<svg width="1713" height="974" viewBox="0 0 1713 974" fill="none" xmlns="http://www.w3.org/2000/svg">
<g clip-path="url(#clip0_335_1939)">
<path d="M1588.93 42.9303C1578.97 62.4003 1563.92 78.5603 1553.64 97.8803C1544.28 115.47 1533.94 132.53 1523.99 149.8C1523.04 151.45 1521.82 152.94 1522.59 155.42C1575.54 148.28 1627.44 154.5 1678.5 168.97C1708.82 177.57 1718.76 197.21 1708.37 226.97C1696.02 262.35 1676.43 293.56 1652.67 322.3C1605.27 379.65 1548.17 423.35 1477.1 447.62C1436.04 461.64 1393.94 467.22 1350.75 463.75C1330.88 462.15 1311.34 458.25 1291.47 451.27C1299.83 478.59 1308.06 505.51 1316.29 532.43C1310.58 535.53 1304.11 536.94 1298.43 534.37C1294.64 532.65 1294.48 527.95 1299.46 525.63C1301.78 524.55 1304.51 525.49 1308.44 524.14C1303.95 517.32 1309.05 505.15 1294.65 504.59C1292.04 504.49 1291.51 501.6 1292.54 499.28C1293.44 497.26 1294.34 495.31 1294.86 493.1C1297.37 482.35 1293.48 476.66 1282.99 476.07C1275.55 475.65 1270.59 473.05 1272.66 464.3C1273.11 462.41 1273.52 460.42 1272.71 458.68C1271.36 455.76 1271.77 450.17 1267.53 450.95C1263.21 451.75 1260.29 455.97 1261.28 461.26C1261.87 464.39 1263.08 467.35 1263.92 470.42C1264.84 473.77 1266.32 477.18 1262.89 480.09C1259.55 482.92 1256.46 481.32 1253.06 479.2C1252.91 483.81 1254.71 485.43 1258.59 483.52C1263.24 481.23 1267.66 482.96 1271.37 484.89C1275.69 487.14 1277.01 492.71 1271.97 494.38C1267.43 495.88 1266.35 498.88 1265.39 501.9C1274.89 502.9 1274.85 502.88 1270.23 512.05C1268.61 515.25 1267.67 518.56 1269.83 521.99C1271.53 524.69 1277.02 526.36 1274.09 530.29C1271.12 534.27 1266.18 535.32 1261.24 532.71C1255.45 522.05 1253.61 509.97 1249.06 498.87C1239.04 467.4 1229.51 435.77 1219.97 404.15C1199.4 335.99 1178.41 267.95 1156.32 200.27C1150.5 182.44 1145.3 164.43 1139.45 146.61C1137.29 140.03 1134.32 138.8 1128.29 141.8C1114.63 148.6 1100.7 154.84 1086.68 160.85C1080.82 163.36 1079.71 166.7 1081.81 172.84C1096.06 214.67 1108.3 257.14 1121.55 299.29C1137.08 348.69 1153.37 397.86 1167.82 447.6C1171.37 459.81 1175.37 471.87 1178.77 484.12C1178.99 485.55 1178.91 486.96 1178.55 488.35C1175.91 493.82 1172.07 492.78 1168.69 489.58C1164.66 485.78 1157.68 482.59 1164.38 474.32C1158.38 478.28 1157.94 484.17 1155.63 488.97C1151 498.59 1144.74 501 1137.13 494.18C1132.47 490 1127.79 489.88 1122.62 489.31C1121.27 488.67 1120.21 487.71 1119.37 486.48C1111.27 461.75 1104.3 436.67 1096.7 411.79C1078.53 352.25 1059.62 292.94 1041.77 233.3C1039.91 227.07 1036.67 225.06 1030.55 227.16C999.291 237.86 967.49 246.82 936.04 256.94C905.21 266.85 874.531 277.21 843.441 286.3C841.971 286.39 840.571 286.12 839.281 285.39C838.751 285 838.441 284.47 838.181 283.92C833.381 273.64 828.261 263.45 843.681 257.1C845.561 256.33 845.591 252.53 846.831 250.33C848.321 247.7 848.261 242.23 853.551 245.17C857.661 247.45 860.531 250.94 857.691 256.19C856.931 257.59 856.111 258.98 855.091 260.18C851.771 264.1 850.591 269.42 854.831 271.8C858.161 273.67 864.001 272.49 866.621 267.43C869.711 261.47 873.981 260.05 879.491 263.56C877.841 260.28 873.551 256.04 879.611 252.91C888.321 248.42 888.84 259.22 894.1 261.45C890.28 256.66 886.551 251.76 882.641 247.06C879.541 243.33 876.2 238.14 870.29 239.58C860.86 241.88 862.511 233.62 861.341 229.75C859.971 225.22 865.251 225.34 868.451 224.54C869.551 224.26 870.71 224.24 873.29 223.11C861.14 225.86 851.511 231.08 841.011 233.54C839.751 233.84 838.57 234.49 838.16 235.8C837.25 238.68 836.091 241.89 832.441 240.34C828.971 238.87 824.191 237.67 825.341 231.93C830.661 226.58 838.131 228.09 844.451 225.9C848.241 222.82 852.821 221.48 857.341 220.01C907.431 203.66 957.741 188.04 1008.26 173.09C1018.43 170.08 1024.43 165.77 1023.19 154.06C1022.44 146.99 1025.56 140.36 1029.14 134.27C1040.58 114.82 1058.52 105.32 1079.99 101.31C1093.27 95.5903 1106.24 88.9503 1119.9 84.3303C1147.1 75.1203 1176.79 90.1403 1186.28 117.39C1193.12 137.04 1199.23 156.95 1206 177.74C1207.41 174.52 1208.39 172.31 1209.36 170.09C1209.95 166.36 1210.65 162.74 1212.42 159.27C1237.09 110.83 1271.68 71.4603 1318.26 42.9603C1322.36 40.4503 1326.57 38.3803 1331.43 37.9903C1372.83 16.1603 1417.22 5.74034 1463.61 1.24034C1495.38 -1.83966 1526.85 1.78034 1558.46 1.83034C1579.95 1.86034 1591.18 17.7403 1588.93 42.9203V42.9303Z" fill="#363724"/>
<path d="M216.08 973.61C196.36 969.57 187.11 957 190.96 937.36C197.95 901.71 205.7 866.22 213.1 830.65C213.54 828.52 213.77 826.34 214.22 823.3C189.92 839.61 164.14 849.53 135.54 849.68C74.1499 850 21.6299 809.3 5.54986 749.69C-10.7401 689.33 9.42986 629.6 57.2099 596.26C66.8799 589.51 77.8199 585.47 88.4099 580.65C102.47 574.55 98.3099 560.18 102.29 549.57C105.69 540.51 104.13 530.15 108.7 521.28C114.31 519.27 111.62 513.35 114.01 509.74C115.93 506.84 114.6 499.91 121.74 503.95C121.9 504.04 121.6 503.3 121.47 503.01C120.48 500.81 118.04 498.41 120.83 496.28C123.83 494 127.28 494.24 130.62 496.88C128.68 493.32 121.72 496.36 122.41 490.44C122.97 485.57 127.86 486.2 130.94 484.37C137.79 480.3 142.5 478.94 143.43 489.31C143.72 492.51 145.97 494.77 149.46 493.11C154.03 490.93 157.33 493.64 160.99 495.43C161.23 496.57 162.09 493.86 161.25 494.81C160.85 495.26 160.78 495.05 160.59 494.27C159.3 489.08 165.69 483.1 158.8 478.25C157.97 477.67 160.85 475.55 162.64 474.98C165.96 473.94 169.33 473.11 172.49 471.54C175.21 470.18 178.21 467.49 181.08 470.59C184.19 473.96 184.58 478.53 181.65 481.91C178.93 485.04 179.36 488.18 179.4 491.57C173.37 510.26 164.79 528.04 161.32 547.65C152.55 597.21 160.19 644.45 180.39 690C191.15 714.26 205.22 736.4 225.07 755.48C229.1 750.3 229.27 744.24 230.29 738.57C237.4 699.04 246.58 660.05 265.56 624.3C291.38 575.65 327.02 536.29 377.47 512.29C405.13 499.13 433.9 489.01 465.04 487.86C473.22 486.23 481.4 485.03 489.63 487.61C519.76 487.21 548.17 494.44 575.44 506.81C577.14 507.5 578.71 508.52 580.53 508.93C607.79 520.54 631.25 537.75 652.56 558.07C693.24 596.86 714.24 646.02 726.83 699.57C729.96 712.88 732.95 726.23 735.75 739.62C737.98 750.28 739.39 751.13 748.92 745.32C770.31 732.29 788.17 715.23 803.77 695.66C815.13 681.4 825.18 666.42 831.93 649.39C833.22 646.13 834.85 643.01 837.67 640.73C842.5 639.72 851.59 630.09 848.2 645.92C847.79 647.84 848.95 646.21 849.38 646.24C857 646.88 858.1 648.37 854.77 655.55C852.87 659.64 853.12 663.25 854.06 667.42C856.39 677.76 860.79 687.4 863.84 697.49C864.98 701.25 864.79 703.23 862.63 706.61C854.98 718.58 847.24 730.35 836.2 739.58C834.72 740.82 834 742.63 834.57 744.68C813.24 769.96 786.82 788.77 757.89 804.15C751.36 807.62 749.11 810.72 750.88 818.34C759.8 856.78 768.15 895.35 776.58 933.9C779.05 945.21 778.5 955.95 769.1 964.44C758.23 972.4 745.97 972.81 732.94 972.85C642.01 973.09 551.08 972.82 460.16 972.92C382.26 973.01 304.36 972.92 226.47 972.97C223.01 972.97 219.47 972.35 216.07 973.61H216.08Z" fill="#393925"/>
<path d="M834.589 744.67C832.739 742.88 832.309 739.16 833.699 738.84C842.349 736.85 842.349 726.9 849.329 723.05C856.939 718.85 856.249 707.59 863.899 702.72C857.979 699.14 861.929 692.56 859.399 688C858.519 686.41 855.359 693.54 854.779 686.98C854.509 683.93 855.189 681.51 856.499 678.98C856.699 678.6 856.359 677.66 855.979 677.29C847.129 668.94 848.229 660.12 854.449 650.85C854.909 650.16 853.919 648.49 853.409 646.57C849.649 646.94 846.599 654.03 841.999 648.21C844.719 646 848.599 644.32 847.329 639.23C844.419 639.49 842.029 642.39 838.829 641.54C836.489 637.3 839.299 633.65 840.159 629.77C843.469 623.94 842.999 616.82 846.489 611.05C847.869 609.68 847.659 608.06 847.179 606.39C854.329 570.75 851.499 535.58 842.459 500.68C841.869 498.28 841.749 495.87 842.349 493.46C849.449 487.39 858.619 486.61 867.069 484.07C869.079 483.46 870.859 485.96 870.129 487.82C868.399 492.23 868.489 498.35 861.969 499.19C858.259 499.66 854.239 498.71 850.909 503.17C857.819 504.23 854.369 521.11 866.909 512.38C868.499 513.39 867.739 511.01 867.609 512.28C867.569 512.72 867.309 512.76 866.849 512.4C857.959 505.43 857.989 503.72 867.119 498.09C871.319 495.504 875.796 496.184 880.549 500.13C881.629 501.03 882.509 499.68 883.519 499.49C889.969 498.28 896.099 498.73 901.579 502.83C908.819 520.21 908.889 538.82 910.149 557.07C911.449 575.84 907.939 594.46 904.289 612.83C902.739 620.63 904.769 620.93 911.129 618.77C948.719 605.98 986.709 594.42 1024.38 581.85C1057.82 570.68 1091.24 559.43 1124.97 549.17C1133.88 546.46 1136.65 542.39 1133.58 533.21C1129.76 521.77 1125.74 510.36 1122.82 498.63C1121.99 495.3 1120.24 491.95 1123.17 488.75C1128.05 487.93 1134.09 480.31 1137.18 491.43C1137.44 492.38 1141.88 496.76 1145.71 495.99C1149.27 495.28 1151.74 492.76 1152.86 489.14C1155.44 480.76 1158.24 472.54 1168.44 469.11C1167.45 472.1 1167.26 475.53 1165.46 477.4C1163.07 479.87 1162.54 482 1165.54 482.96C1169.66 484.27 1169.97 493.9 1177.06 488.23C1184.33 492.83 1184.46 501.03 1186.66 508.02C1192.38 526.21 1197.66 544.54 1203.89 562.58C1206.34 569.69 1210.46 571.73 1217.62 570.59C1231.12 568.44 1244.68 566.61 1258.28 565.26C1266.11 564.48 1268.45 561.39 1266.63 553.32C1265.11 546.57 1259.19 540.37 1263.06 532.67C1266.52 531.53 1269.98 530.39 1273.68 529.17C1263.2 520.65 1262.97 512.12 1274.91 504.43C1267.52 505.68 1262.78 504.12 1258.1 500.89C1258.3 498.41 1268.02 501.68 1262.26 494.92C1261.49 494.01 1264.34 490.85 1267.66 493.16C1268.78 493.94 1272.62 494.9 1272.95 491.52C1273.17 489.26 1272.83 487.43 1268.54 487C1260.28 486.17 1260.38 485.14 1253.69 489.59C1252.47 487.17 1251.42 484.67 1250.02 482.39C1248.44 479.81 1248.36 477.61 1251 475.85C1253.95 473.88 1255.32 474.89 1256.12 478.28C1256.75 480.97 1259 480.08 1260.72 479.16C1262.36 478.29 1264.48 477.5 1262.31 475.02C1260.36 472.8 1261.78 469.78 1260.12 467.09C1254.72 458.38 1259.81 452.16 1266.13 446.57C1267.67 445.21 1270.17 444.14 1271.02 446.11C1273.37 451.57 1276.57 457.4 1276.46 463.02C1276.27 472.76 1277.38 476.21 1286.57 473.69C1295.92 471.13 1296.2 473.33 1296.5 481.52C1296.65 485.7 1297.01 491.43 1298.12 494.25C1300.83 501.16 1294.2 498.4 1293.51 500.77C1293.78 501.42 1294.14 502.46 1294.22 502.44C1304.92 499.54 1306.8 506.84 1308.48 514.57C1309.41 518.82 1310.68 523 1311.97 527.87C1308.36 527.87 1305.25 527.8 1302.15 527.9C1300.82 527.94 1298.83 526.21 1298.31 528.71C1298.02 530.1 1298.29 531.99 1299.07 533.12C1300.09 534.59 1302.07 534.26 1303.36 533.25C1307.54 529.97 1311.92 531.35 1316.33 532.38C1322.42 547.56 1328.79 562.83 1324.97 579.65C1319.07 605.68 1298.87 618.11 1274.79 620.67C1254.83 622.79 1234.89 625.14 1214.94 627.34C1193.15 629.74 1174.96 623.63 1162.14 604.89C1159.69 601.31 1157.43 597.81 1151.91 599.61C1116.29 611.24 1080.63 622.73 1044.98 634.27C1022.15 641.6 999.289 648.84 976.499 656.28C944.869 666.6 913.309 677.13 881.659 687.41C877.319 688.82 873.519 690.45 871.329 694.74C861.819 713.38 849.269 729.78 834.619 744.64L834.589 744.67Z" fill="#373724"/>
<path d="M216.08 973.609C222.92 969.979 230.51 971.619 237.51 971.679C289.25 972.089 340.99 971.209 392.71 971.559C460.08 972.009 527.44 971.679 594.81 971.969C643.9 972.189 693 971.829 742.09 972.149C752.12 972.219 760.18 967.209 769.12 964.439C763.24 970.899 755.88 973.879 747.21 973.879C571.11 973.879 395.02 973.869 218.92 973.849C217.97 973.849 217.02 973.689 216.07 973.609H216.08Z" fill="#0B0901"/>
<path d="M1251.9 320.7C1246.77 305.48 1241.62 290.26 1236.51 275.03C1231.95 261.42 1237.01 248.83 1240.99 236.25C1250.55 206 1264.09 177.52 1282.11 151.46C1305.56 117.55 1336.14 91.8497 1374.65 76.3797C1420.4 57.9997 1468.29 52.3797 1518.8 53.4297C1510.14 68.1397 1501.92 81.9797 1493.83 95.8797C1481.15 117.68 1468.35 139.4 1456.02 161.4C1448.71 174.44 1447.28 187.73 1457.22 200.49C1463.85 209 1472.81 211.92 1483.11 211.15C1515.41 208.74 1547.62 204.28 1580.12 206.18C1601.96 207.46 1623.64 210.03 1644.66 216.51C1656.65 220.2 1656.63 220.25 1649.99 231.71C1623.81 276.95 1590.97 316.54 1549.59 348.68C1518.67 372.69 1484.93 391.26 1446.81 401.58C1413 410.74 1379.06 413.57 1344.18 409.07C1320.98 406.08 1299.31 399.36 1278.41 389.31C1273.91 387.15 1270.95 384.54 1269.72 379.09C1267.44 368.99 1263.91 359.18 1260.9 349.25C1264.61 346.43 1268.31 348.5 1271.81 349.57C1315.51 362.96 1358.67 359.67 1401.19 344.75C1420.47 337.98 1436.9 326.43 1448.71 309.4C1462.75 289.14 1455.91 272.03 1431.85 266.9C1418.46 264.04 1404.93 262.21 1391.14 262.28C1380.09 262.33 1379.32 260.48 1384.07 250.92C1391.54 235.86 1400.99 221.58 1403.8 204.57C1405.47 194.49 1407.73 183.53 1398.13 176.26C1388.6 169.05 1377.95 172.21 1368.18 176.73C1334.36 192.4 1310.44 218.98 1290.19 249.21C1277.4 268.31 1267.7 289.09 1259.43 310.55C1257.92 314.47 1257.39 319.53 1251.92 320.69L1251.9 320.7Z" fill="#D7402E"/>
<path d="M842.48 284.521C870.16 274.451 898.33 265.881 926.46 257.151C961.52 246.271 996.44 234.931 1031.39 223.681C1037.92 221.581 1041.35 221.561 1043.91 230.041C1066.78 305.861 1090.4 381.461 1113.69 457.161C1116.66 466.821 1118.93 476.691 1121.53 486.461C1122.37 493.161 1121.36 499.121 1114.44 502.221C1112.14 503.251 1109.44 503.661 1107.23 501.761C1104.59 499.491 1106.32 497.271 1107.47 495.001C1108.64 492.681 1112.02 490.371 1108.89 487.601C1106.33 485.341 1104.22 487.881 1102.37 489.511C1100.18 491.431 1097.82 491.401 1095.26 490.661C1093.74 490.221 1091.9 488.761 1090.83 489.261C1084.09 492.361 1078.25 492.401 1073.71 485.641C1068.39 489.471 1063.15 486.271 1057.78 485.751C1053.37 485.321 1049.18 484.111 1046.77 480.991C1042.36 475.281 1035.54 476.421 1030.04 474.281C1026.11 472.751 1025.49 477.891 1026.97 480.811C1028.66 484.161 1029.24 486.641 1025.67 488.831C1024.95 489.361 1024.16 489.771 1023.33 490.131C1021.25 490.951 1019.12 491.571 1016.99 490.371C1014.73 489.091 1014 489.561 1013.52 492.251C1012.77 496.401 1012.48 501.721 1006.75 501.991C1000.88 502.271 994.84 495.551 993.62 488.541C993.71 487.651 993.93 486.791 994.25 485.951C996.42 481.261 1000.87 479.031 1004.76 476.181C1005.44 475.611 1006.16 475.101 1006.89 474.621C1010.27 472.381 1013.87 470.581 1018.4 470.181C1015 465.441 1010.93 462.921 1006.88 460.501C1001.77 457.451 996.38 454.181 993.32 463.051C992.93 464.181 993.65 462.881 992.79 463.821C988.47 468.461 978.25 468.551 977.72 472.121C976.76 478.601 974.76 483.081 970.12 487.011C969.31 487.451 968.45 487.681 967.53 487.721C962.99 486.621 958.51 485.401 955.01 481.771C954.34 485.631 958.13 490.451 952.26 492.661C946.97 494.641 945.43 489.941 942.44 487.321C935.05 480.861 935.27 472.021 934.26 465.981C936.36 472.051 929.67 478.251 928.11 485.831C927.2 490.271 922.12 492.961 917.37 490.201C910.08 485.961 901.91 482.521 897.06 475.181C895.3 472.521 893.09 474.121 891.42 472.981C890.53 472.621 889.79 472.071 889.16 471.341C883.06 456.041 880.12 439.761 873.89 424.451C866.45 406.191 856.98 389.111 846.96 372.251C844.67 369.371 841.47 366.951 841.96 362.631C842.61 360.851 845.94 359.561 843.06 357.121C838.28 353.081 840.57 346.941 838.55 342.031C837.52 339.531 838.85 336.881 841.23 335.521C843.66 334.131 845.45 336.131 846.95 337.671C849.09 339.861 851.37 341.191 856.76 339.871C847.36 338.811 841.68 333.921 834.46 332.111C828.86 330.711 827.59 325.331 831.56 320.771C837.96 313.421 839.52 306.251 834.14 297.521C831.94 293.951 831.51 289.421 838.59 289.881C841.94 290.101 839.9 285.421 842.46 284.491L842.48 284.521Z" fill="#6A695B"/>
<path d="M842.609 362.69C844.489 365.22 846.369 367.75 848.249 370.28C849.019 372.07 849.329 373.98 848.919 375.85C848.349 378.51 848.299 382.16 844.369 381.76C841.689 381.49 839.319 380.12 838.639 376.56C837.509 370.62 833.879 367.41 827.409 368.83C826.719 369.28 826.049 369.74 825.449 370.31C820.749 378.46 813.939 376.01 806.579 373.46C809.189 377.04 812.559 375.96 815.349 376.61C818.629 377.37 822.739 376.78 823.709 381.31C824.649 385.72 821.869 388.47 818.579 390.6C814.109 393.5 809.569 396.29 805.219 399.39C800.189 398.52 798.129 394.26 795.629 390.69C764.769 346.61 722.099 319.23 671.339 303.89C614.809 286.81 559.549 294.49 504.569 312.75C458.079 328.19 411.689 343.95 365.039 358.94C323.679 372.23 281.219 383.92 246.829 412.84C221.559 434.09 198.919 457.56 184.029 487.54C182.509 489.65 180.879 491.58 177.839 490.86C176.509 487.97 174.479 484.61 178.009 482.35C183.469 478.85 180.379 474.9 179.779 469.77C173.699 474.64 167.679 477.48 158.759 477.67C170.149 482.18 167.869 486.93 161.529 491.9C162.449 494.75 169.029 490.34 167.179 496.3C165.859 500.56 163.439 497.15 161.389 497.24C156.859 497.43 152.529 491.84 147.529 497.53C145.519 499.82 142.629 496.68 141.489 493.65C140.169 490.14 139.239 486.61 140.989 481.92C135.389 483.94 132.989 489.69 127.359 487.52C124.919 486.58 125.429 489.32 124.719 490.42C122.939 493.16 125.809 492.44 126.819 492.99C129.559 494.49 132.369 495.87 134.999 497.92C132.819 496.3 130.249 506.15 128.069 497.29C127.569 495.26 123.109 496.92 121.569 498.2C120.009 499.5 122.449 501.39 123.309 502.98C124.359 504.93 129.239 502.31 127.879 506.77C127.579 507.74 126.089 508.76 124.989 508.98C121.039 509.8 121.409 505.32 118.769 503.53C116.689 510.02 114.689 516.29 112.659 522.55C112.589 522.77 112.289 522.91 112.099 523.09C111.659 522.36 111.229 521.64 110.789 520.91C112.849 504.3 120.049 489.51 127.409 474.83C163.659 402.54 218.959 350.99 295.519 324.06C366.929 298.94 438.859 275.3 510.679 251.36C535.139 243.21 560.429 238.8 586.279 238.05C595.359 237.34 604.439 237.29 613.519 238.08C650.969 239.3 686.879 247.49 721.319 262.13C725.449 263.89 729.079 263.26 733.179 261.95C763.849 252.19 794.599 242.67 825.329 233.07C828.399 235.15 831.469 237.23 835.269 239.81C833.849 232.13 839.279 230.98 843.699 229.65C855.189 226.17 866.829 223.16 878.629 219.9C875.469 226.09 875.459 226.49 872.419 226.41C868.949 226.32 865.509 225.43 861.699 228.64C867.009 230.27 869.049 233.25 864.569 238.62C872.729 234.63 882.249 239.22 887.309 247.55C890.489 252.78 892.899 258.86 898.959 262.21C895.699 262.05 891.769 269.22 889.259 260.68C888.199 257.05 884.979 252.92 881.549 254.37C874.909 257.18 882.339 260.62 882.399 263.95C882.419 264.97 883.409 265.97 884.719 268.37C880.869 266.45 878.509 265.1 876.009 264.06C872.729 262.7 868.909 264.72 869.099 267.03C869.759 274.85 863.419 271.93 860.659 274.14C852.609 280.58 851.039 272.61 848.519 269.55C844.659 264.86 851.049 261.98 853.049 259.21C857.309 253.3 857.989 249.55 850.869 246.36C848.089 256.05 844.849 265.29 832.869 267.08C835.939 272.49 844.419 276.19 838.699 284.58C837.639 289.96 832.489 289.19 829.069 290.61C819.389 294.62 809.029 296.68 799.199 300.33C793.649 302.4 792.819 304.12 797.829 308.34C814.179 322.08 828.519 337.73 840.809 355.24C842.459 357.59 844.869 359.5 842.599 362.68L842.609 362.69Z" fill="#383925"/>
<path d="M1251.9 320.7C1261.31 298.87 1269.56 276.49 1282.26 256.23C1303.29 222.67 1328.41 193.26 1364.66 175.1C1371.61 171.62 1378.8 169.46 1386.51 169.16C1398.38 168.71 1407.03 176.84 1407.88 188.67C1408.91 203.09 1404.5 216.29 1398.64 229.02C1394.01 239.07 1388.44 248.7 1382.69 259.66C1398.8 259.59 1414.39 260.32 1429.81 263.27C1446.21 266.41 1457.51 274.6 1458.72 286.7C1459.93 298.86 1453.73 308.69 1446.2 317.58C1425.93 341.54 1398.08 350.96 1368.75 356.82C1332.21 364.12 1296.17 361.42 1260.89 349.26C1257.09 339.99 1254.07 330.48 1251.9 320.7Z" fill="#F9B338"/>
<path d="M968.55 486.841C970.34 481.981 979.17 478.741 971.85 471.681C970.7 470.571 971.98 468.691 974.08 468.741C984.65 469.001 991.13 462.901 996.05 454.501C996.75 453.301 996.5 450.621 998.74 452.581C1005.43 458.431 1014.64 460.521 1020.6 467.401C1021.57 468.521 1023.39 469.511 1022.07 471.241C1021.2 472.391 1019.14 474.101 1018.59 473.801C1013.31 470.901 1010.76 476.491 1006.76 477.291C1006.56 477.051 1006.29 476.831 1006.19 476.561C1004.59 472.521 1009.42 472.691 1010.33 470.281C1008.18 472.281 1005.99 473.721 1003.23 470.371C1003.81 473.311 1005.7 475.101 1006.75 477.311C1002.94 480.481 999.13 483.651 995.33 486.831C993.84 485.151 993.13 482.401 987.77 482.431C991.42 484.731 994.44 484.341 995.28 486.881C993.49 496.501 1002.42 496.531 1007.35 499.811C1009.1 500.971 1008.8 497.261 1010.02 496.061C1013.62 492.511 1010.27 488.591 1009.83 484.071C1015.18 484.891 1018.51 490.451 1023.94 488.801C1025.74 489.931 1027.36 491.551 1029.86 490.911C1031.06 491.041 1030.29 489.181 1030.16 490.451C1030.16 490.541 1029.58 490.931 1028.94 490.951C1026.98 491.011 1025.48 489.831 1023.96 488.771C1021.12 486.761 1031.9 485.121 1024.05 482.751C1019.18 481.281 1021.96 478.841 1023.71 476.471C1025.65 473.841 1026.66 469.751 1031.15 471.791C1032.14 472.241 1032.91 475.461 1034.21 474.171C1041.42 466.991 1043.96 475.471 1046.58 478.481C1052.01 484.731 1061.08 480.291 1066.15 486.351C1066.41 486.661 1068.43 486.231 1068.61 485.751C1072.68 475.141 1075.53 483.361 1079.14 486.131C1080.31 487.031 1082.5 494.491 1084.73 486.491C1084.88 485.961 1085.82 485.111 1085.98 485.191C1093.67 489.251 1100.65 485.881 1108.3 484.381C1115.22 483.011 1116.35 488.241 1111.77 493.661C1110.18 495.541 1108.86 497.651 1107.35 499.741C1114 500.501 1118.73 496.091 1121.54 486.511C1122.09 487.271 1122.63 488.041 1123.18 488.801C1127.75 503.931 1132.3 519.061 1136.91 534.181C1140.76 546.821 1140.83 546.931 1128.85 550.851C1075.65 568.251 1022.43 585.571 969.22 602.951C948.6 609.681 928.01 616.501 907.41 623.301C905.01 624.091 902.22 625.611 900.21 623.861C898.11 622.021 899.73 619.011 900.31 616.741C910.06 578.491 908.8 540.331 899.72 502.201C898.5 501.621 897.23 501.081 896.52 499.811C895.03 496.471 895 492.871 894.68 489.331C897.07 483.411 893.68 478.741 891.33 473.841C891.24 472.911 891.59 472.171 892.3 471.581C897.49 470.581 897.47 470.581 898.65 475.611C898.78 476.161 899.26 477.021 899.63 477.061C907.73 477.791 911.66 485.531 918.71 488.291C923.67 490.231 927.07 485.851 926.87 484.721C925.18 475.321 937.68 468.171 928.23 456.851C936.19 461.151 938.65 466.221 938.11 473.211C937.89 476.031 946.82 491.191 949.12 491.131C950.77 491.081 954.67 492.431 953.05 487.301C951.5 482.381 952.2 482.151 954.68 475.051C956.14 484.081 963.93 483.231 968.54 486.911C978.17 493.061 967.17 494.301 966.19 497.661C973.75 491.861 974.12 490.321 968.55 486.901V486.841Z" fill="#6A695A"/>
<path d="M1176.84 484.901C1167.85 461.491 1162.28 437.021 1154.52 413.221C1146.27 387.931 1138.43 362.501 1130.49 337.101C1113.91 284.081 1097.35 231.051 1080.87 178.001C1075.94 162.111 1076.2 162.351 1092.01 155.561C1105.14 149.921 1117.94 143.501 1130.9 137.471C1135.07 135.531 1138.49 133.321 1140.76 140.591C1162.29 209.881 1184.36 279.011 1205.95 348.291C1219.61 392.101 1232.74 436.081 1246.07 479.991C1247.9 486.031 1249.58 492.121 1251.32 498.191C1249.87 503.201 1247.85 499.211 1246.76 498.191C1243.84 495.471 1243.21 491.581 1242.33 487.841C1241.64 484.921 1241.94 480.781 1237.44 480.961C1234.2 481.081 1231.19 482.681 1230.38 486.351C1228.84 493.311 1224.79 493.061 1219.72 490.291C1218.02 489.361 1215.95 488.241 1214.41 489.801C1208.33 495.911 1202.93 494.401 1196.91 489.441C1193.33 486.491 1192.23 490.341 1191.15 492.991C1190.42 494.801 1189.44 496.661 1187.16 496.361C1184.86 496.061 1184.56 493.871 1184.11 492.041C1181.49 481.551 1187.24 472.801 1197.98 473.311C1204.15 473.601 1204.67 466.421 1209.92 467.061C1210.1 466.571 1209.67 466.891 1208.9 466.731C1197.02 464.321 1191.01 473.021 1184.03 479.811C1181.88 481.901 1180.97 485.631 1176.84 484.911V484.901Z" fill="#6A695B"/>
<path d="M1176.84 484.901C1181.13 476.901 1190.23 472.451 1192.41 463.141C1196.47 462.631 1193.5 468.881 1197.71 467.831C1203.29 466.431 1200.69 461.161 1202.99 457.221C1202.14 468.621 1215.09 462.721 1217.81 471.371C1211.83 467.841 1206.86 466.861 1204.96 474.751C1204.66 476.001 1203.85 478.121 1200.94 477.531C1188.5 474.981 1186.37 476.801 1186.31 489.201C1186.31 491.001 1186.46 492.811 1186.54 494.721C1190.6 494.311 1188.35 491.831 1188.73 490.391C1190.64 483.201 1193.79 481.991 1198.88 487.191C1203.97 492.381 1207.97 495.141 1212.66 486.681C1215.53 481.501 1218.23 485.771 1220.82 487.871C1224.78 491.081 1227.61 493.311 1227.65 484.921C1227.67 479.041 1234.42 478.771 1238.87 477.571C1243.74 476.251 1243.23 481.471 1244.2 483.741C1246.33 488.701 1244.02 495.731 1251.33 498.191C1256.87 509.131 1258.91 521.261 1263.04 532.691C1265.57 541.441 1267.79 550.301 1270.76 558.901C1272.44 563.751 1271.33 566.141 1266.47 566.811C1247.49 569.421 1228.5 571.941 1209.52 574.531C1203.21 575.391 1203.32 569.911 1202.19 566.501C1193.63 540.481 1185.38 514.361 1177.04 488.271C1176.97 487.151 1176.91 486.041 1176.84 484.921V484.901Z" fill="#6A695A"/>
<path d="M842.611 362.691C833.211 347.211 821.071 334.001 808.201 321.451C801.681 315.081 794.701 309.191 787.301 302.521C804.261 294.341 822.141 291.311 838.701 284.591C839.961 284.571 841.221 284.551 842.481 284.531C843.011 287.291 843.581 289.841 841.761 292.651C840.561 294.511 840.501 296.521 838.721 293.301C837.941 291.891 837.361 289.921 835.551 292.071C834.491 293.331 834.661 295.331 835.821 296.491C844.371 305.051 840.981 313.141 835.021 321.161C829.981 327.941 829.951 328.011 838.171 329.291C840.071 329.581 840.591 331.041 841.741 332.001C846.841 336.261 852.381 338.751 859.031 335.371C860.581 340.541 858.071 343.971 853.991 343.901C851.681 343.861 846.401 345.431 845.741 339.891C845.511 337.921 844.371 335.831 842.101 337.131C841.381 337.541 839.401 339.901 840.811 341.951C844.741 347.651 840.551 357.141 852.891 360.501C847.311 361.711 844.951 362.221 842.601 362.721L842.611 362.691Z" fill="#6B6A5B"/>
<path d="M720.251 920.43C696.471 920.43 673.601 920.43 650.741 920.43C520.261 920.43 389.791 920.45 259.311 920.45C257.721 920.45 256.111 920.28 254.541 920.45C249.321 920.98 248.121 919.32 249.341 913.93C254.351 891.66 258.761 869.25 263.511 846.92C273.091 801.93 282.291 756.85 292.511 712.01C302.251 669.29 318.871 629.82 351.501 598.9C396.741 556.04 449.591 535.32 512.211 545.71C576.801 556.42 621.761 593.7 651.721 650.95C671.051 687.89 676.381 728.72 685.881 768.39C694.681 805.11 702.701 842 711.031 878.83C714.091 892.38 717.041 905.96 720.251 920.43Z" fill="#B37432"/>
<path d="M181.95 486.991C192.14 461.181 211.24 442.041 230.48 423.221C261.25 393.121 299.65 377.041 339.98 364.231C386.68 349.401 433.05 333.531 479.5 317.921C510.1 307.631 540.8 296.871 572.86 293.151C605.36 289.371 638.08 290.761 670.01 300.311C724.99 316.751 769.98 346.921 802.34 394.891C803.38 396.441 804.78 397.751 806.01 399.181C806.46 399.301 806.91 399.411 807.36 399.521C819.6 411.301 824.04 427.421 830.51 442.271C834.21 450.781 838.07 459.661 837.44 469.471C837.25 471.521 832.26 471.281 834.67 474.141C837.95 478.021 837.91 481.701 836.69 486.321C835.61 490.391 838.73 490.861 841.98 490.101C843.44 490.441 843.78 491.681 844.2 492.861C844.34 495.271 844.49 497.681 844.63 500.101C844.37 501.841 844.38 503.641 843.61 505.281C839.03 512.811 834.02 512.761 828.65 506.111C828.25 505.621 827.96 504.681 827.52 504.621C815.53 502.911 815.98 498.361 820.03 487.621C822.9 480.011 812.89 482.441 807.33 483.451C811.05 484.531 813.86 486.401 813 490.601C812.19 494.561 812.04 499.921 807.09 500.441C802.46 500.931 801.99 503.101 800.69 506.681C798.69 512.171 794.15 515.361 789.22 509.861C786.56 506.891 787.55 510.431 787.46 510.531C785.07 512.821 782.46 515.001 779.07 513.341C775.68 511.691 774.22 508.361 774.03 504.671C773.79 499.901 774.69 495.221 775.71 490.571C778.06 487.871 783.65 487.601 779.73 480.911C777.06 476.351 776.64 469.611 776.95 466.591C779.45 472.811 771.38 481.281 775.66 490.651C775.03 491.361 774.37 492.091 773.54 492.551C763.2 498.361 763.31 498.301 758.16 487.431C755.83 482.521 753.17 477.491 746.05 480.261C747.05 480.391 748.05 480.511 748.85 481.001C753.05 483.561 758.73 485.131 758.37 491.431C758.18 494.781 755.46 498.021 752.01 497.241C746.6 496.011 738.91 500.591 736.12 491.711C735.57 489.961 734.9 487.141 732.66 487.961C719.34 492.811 705.02 488.411 691.76 492.611C685.66 494.541 678.64 495.791 676.98 504.121C676.4 507.031 661.95 511.491 659.17 509.911C655.88 508.031 655.8 504.911 658.58 502.961C661.04 501.231 662.88 499.401 664.09 496.761C665.68 493.321 668.52 489.541 661.22 489.381C658.44 489.321 657.53 486.431 655.79 484.791C653.79 482.891 650.52 478.751 646.92 483.811C645.78 485.411 643.33 486.311 641.8 485.011C637.51 481.361 631.78 480.671 626.74 477.811C623.98 480.141 625.86 483.921 625.52 487.141C624.53 496.461 617.42 500.701 609.78 495.221C602.93 490.311 594.85 491.711 587.68 488.881C581.6 486.481 582.48 495.871 577.66 495.531C576.71 501.131 594.5 504.551 578.93 511.251C577.7 510.601 576.48 509.951 575.25 509.311C569.16 502.591 562.77 496.041 561.98 485.851C558.72 490.191 553.49 490.831 550.07 494.251C548.96 495.371 546.46 495.261 546.01 493.571C544.49 487.851 541.35 489.621 538.31 491.691C534.43 494.331 530.03 494.631 526.91 491.841C523.62 488.901 525.46 485.111 527.91 481.671C529.47 479.491 530.63 476.151 529.25 473.681C527.88 471.231 524.64 471.801 522.3 472.691C518.72 474.051 514.97 475.961 514.77 480.311C514.6 484.161 515.64 488.171 510.31 489.121C505.85 489.921 503.45 489.411 500.1 484.451C496.92 479.751 492.04 486.501 488.9 490.141C481.32 487.441 473.8 489.171 466.27 490.451C464.98 489.281 465.38 485.331 463.24 486.531C454.16 491.631 446.43 489.061 438.73 483.701C436.75 482.321 435.32 484.611 433.84 485.431C427.55 488.941 421.36 492.441 414.71 486.681C411.75 490.021 416.4 495.231 411.78 496.341C406.69 497.561 403.26 492.961 399.31 490.481C397.37 499.181 384.74 506.091 376.65 502.721C373.61 501.461 372.7 498.931 373.51 495.641C374.59 491.241 372.74 487.151 369.65 484.731C365.49 481.471 364.27 487.681 361.57 488.451C356.18 489.991 351.21 493.361 345.41 493.141C341.88 493.001 338.32 490.531 336.14 496.091C335.15 498.621 332.65 496.411 330.8 494.951C325.57 490.821 320.2 487.111 312.75 488.391C309.55 488.941 306.24 488.811 304.72 483.921C303.38 479.601 297.82 480.561 293.97 478.851C301.29 484.421 295.16 488.781 293.05 493.211C290.62 498.321 287.42 496.531 283.84 494.041C277.1 489.351 267.81 487.431 266.2 476.881C266.01 480.041 264.95 483.131 262.03 483.121C257.64 483.101 256.89 485.651 256.08 488.831C255 493.051 252.33 495.621 247.82 495.001C242.78 494.311 244.68 489.851 244.06 486.391C242.1 490.351 239.8 493.991 235.39 492.671C230 491.061 231.32 485.421 230.03 480.841C231.37 488.571 225.89 491.631 220.99 493.051C215.49 494.641 209.39 488.451 202.94 494.031C201.86 494.961 198.28 485.721 195.64 481.151C197.5 487.701 196.25 494.191 195.26 500.611C194.46 505.841 193.69 509.231 187.14 503.641C181.13 498.521 176.84 494.771 181.97 487.021L181.95 486.991Z" fill="#6A695B"/>
<path d="M775.629 490.671C777.369 492.531 778.759 494.111 777.309 497.201C774.849 502.441 775.029 509.051 780.059 511.461C784.519 513.601 787.279 507.411 789.559 503.671C792.509 505.361 786.879 511.431 793.489 510.251C797.459 509.541 801.159 507.991 798.159 502.561C795.309 497.401 799.659 496.321 802.369 497.611C809.069 500.811 808.979 496.111 810.239 492.201C812.149 486.301 810.979 484.041 804.779 487.191C803.619 487.781 802.319 488.661 801.479 487.301C800.939 486.431 801.089 484.021 801.309 483.971C806.729 482.731 810.939 476.741 816.849 478.611C825.149 481.241 826.129 487.611 820.599 494.971C819.649 496.231 815.179 495.831 817.879 499.431C819.259 501.271 821.459 501.881 822.929 500.941C826.909 498.391 828.099 500.651 829.859 503.701C833.699 510.341 838.109 510.701 842.499 504.031C845.669 503.441 845.759 505.881 844.949 507.401C841.789 513.291 842.639 522.691 831.529 521.841C827.749 521.551 825.409 525.861 823.779 529.871C827.799 521.821 833.559 520.621 840.679 525.081C846.719 528.861 846.929 534.391 845.229 540.481C844.719 542.311 844.239 544.171 844.569 546.111C845.299 550.311 844.169 553.771 840.139 555.621C836.099 557.471 834.199 553.661 831.659 551.661C835.029 555.881 838.369 559.031 844.379 555.561C847.949 553.501 852.829 556.141 852.149 559.611C850.449 568.291 857.029 578.791 846.749 585.711C844.199 587.421 842.549 591.481 844.729 593.111C850.929 597.711 848.669 603.471 848.369 609.111C848.539 609.571 848.769 610.021 848.829 610.501C848.849 610.651 848.409 610.851 848.179 611.031C840.289 615.821 838.259 622.531 842.399 630.131C841.209 633.951 840.019 637.771 838.839 641.591C826.359 672.371 807.639 699.011 783.839 721.901C771.529 733.741 758.029 744.381 742.439 752.001C737.869 754.231 736.419 754.031 735.029 748.441C729.029 724.181 724.659 699.571 717.509 675.551C705.399 634.861 686.819 598.151 657.419 566.991C637.549 545.941 614.059 530.051 589.469 515.451C586.259 513.541 582.449 512.641 578.919 511.271C584.659 506.571 581.569 503.331 577.109 500.341C574.759 498.761 571.409 497.351 572.069 494.131C573.009 489.551 575.959 493.531 577.979 493.301C578.949 493.191 580.049 491.921 580.609 490.911C583.759 485.271 586.089 485.331 592.949 487.331C596.159 488.271 599.549 493.541 604.059 488.851C604.709 488.181 609.479 489.711 609.579 490.551C610.479 498.171 618.349 489.501 619.769 495.131C621.149 494.011 623.519 493.131 622.829 491.041C620.619 484.351 623.249 478.751 626.229 472.961C628.979 473.871 628.659 482.691 634.629 475.901C636.539 473.731 636.229 478.791 638.329 480.241C644.629 484.611 647.499 485.691 646.219 475.011C649.189 478.001 649.739 482.511 653.769 480.711C658.029 478.811 661.379 474.541 658.999 484.481C657.609 490.291 664.809 485.961 668.919 485.661C669.529 493.731 668.609 500.631 659.699 503.951C658.949 504.231 658.339 506.151 658.469 507.211C658.649 508.641 660.189 509.281 661.399 508.471C664.939 506.071 668.989 505.861 672.989 505.331C673.749 505.231 675.099 504.481 675.089 504.461C670.699 493.511 682.159 494.041 686.289 491.631C690.949 488.901 697.949 488.471 704.639 488.571C712.509 488.691 722.149 490.411 728.989 486.181C736.349 481.641 737.599 484.241 738.549 490.391C738.899 492.621 739.939 496.411 741.199 495.261C745.959 490.931 752.229 499.411 755.329 493.641C758.639 487.471 751.559 486.161 748.379 483.331C746.129 481.331 741.979 483.411 739.959 480.101C755.749 473.041 756.739 473.751 763.109 496.711C765.499 490.561 770.799 491.151 775.649 490.731L775.629 490.671Z" fill="#6B695B"/>
<path d="M181.95 486.99C177.1 497.06 189.08 498.38 192.04 505.03C193.18 497.28 194.47 489.62 193.32 481.86C193.01 479.75 191.32 477.42 194.6 477.37C195.67 477.36 200.32 477.45 199.43 480.37C197.77 485.8 204.41 487.97 202.07 493.96C205.55 490.62 207.63 488.32 210.03 486.43C211.64 485.17 214.28 483.33 214.57 487.5C215 493.53 221.6 491.53 221.61 490.99C221.75 486.15 232.55 487.8 227.8 480.67C226.59 478.86 224.92 477.29 225.27 473.67C231.21 476.95 231.2 483.14 233.73 487.6C234.55 489.04 233.92 492.22 236.62 491.21C238.45 490.53 242.38 489.63 240.87 486.31C237.51 478.9 245.26 485.38 245.32 482.53C249.1 482.9 247.84 485.17 247.24 487.35C246.68 489.41 243.44 492.38 247.9 493.25C250.43 493.74 253.16 492.67 253.07 488.37C253 485.31 257.88 482.91 254.01 479.07C258.11 478.32 259.44 484.43 263.21 480.63C267.31 476.5 260.26 476.08 260.85 473.13C263.96 472.12 266.9 472.13 267.41 475.99C268.3 482.73 276.38 483.27 278.16 489.08C283.37 487.22 285.14 492.67 288.56 493.8C291.47 494.76 290.99 488.76 293.86 486.96C295.17 486.14 296.51 483.8 294.72 481.99C292.25 479.49 290.69 484.88 288.11 483.05C291.68 475.27 299.2 474.47 306.31 481.02C313.51 487.66 313.61 487.67 321.62 482.44C324.06 483.42 318.73 492.84 327.85 487.51C331.62 485.31 332.03 492.42 334.35 496.79C333.6 486.98 338.58 488.69 343.5 490.34C349.97 492.51 354.57 484.03 361.21 487.23C360.93 484.27 360.34 479.56 364.08 480.38C367.2 481.06 371.91 477.67 372.93 481.44C374.14 485.9 377.81 490.22 375.82 495.17C375.01 497.18 374.5 498.66 376 500.24C377.86 502.2 379.33 501.16 380.65 499.45C381.04 498.95 381.46 498.2 381.96 498.11C386.59 497.27 392.08 502.97 395.47 498.2C397.85 494.85 392.36 488.59 398.29 484.16C401.22 489.46 405.78 492.91 411.5 494.78C413.6 490.67 406.35 487.26 409.77 484.13C413.6 480.63 417.1 485.51 420.52 487.16C425.61 489.6 427.58 483.82 431.44 483.44C435.23 483.07 437.16 479.64 441.49 477.88C438.8 485.98 443.25 487.24 448.49 485C452.15 483.43 453.3 487.38 453.41 487.18C455.02 484.15 458.55 490.62 459.01 486.25C459.69 479.82 464.98 481.08 467.29 482.35C471.41 484.61 466.84 487.66 466.25 490.44C426.55 493.07 390.62 506.78 356.83 527.2C314.66 552.69 285.83 589.96 264.22 633.1C247.68 666.12 239.85 702.08 233.19 738.21C232.22 743.5 231 748.74 229.75 753.97C229.19 756.31 230.09 759.79 227.01 760.52C224.24 761.17 222.7 758.16 221.07 756.39C205.96 739.97 193.07 722.07 182.88 702.08C160.84 658.89 151.93 612.93 155.56 565.01C157.52 539.1 165.92 514.25 177.83 490.89C179.2 489.59 180.57 488.3 181.93 487L181.95 486.99Z" fill="#6B695B"/>
<path d="M52.4496 712.671C52.6096 678.461 65.5696 652.221 96.2296 635.941C102.99 632.351 105.85 633.951 107.21 641.271C116.03 688.681 134.43 732.051 162.56 771.251C163.3 772.281 164.02 773.321 164.83 774.291C174.71 786.101 174.57 785.681 159.15 790.951C109.9 807.781 61.5996 774.811 53.8596 725.261C53.1896 720.971 50.7896 716.741 52.4396 712.671H52.4496Z" fill="#6B6A5B"/>
<path d="M488.901 490.12C483.961 484.45 491.721 485.01 493.021 482.41C494.741 478.97 499.501 478.52 502.861 479.16C505.881 479.73 505.531 482.79 503.621 485.25C502.751 486.37 503.191 488.2 504.571 488.19C506.991 488.17 509.571 487.72 511.731 486.7C512.651 486.27 513.311 483.82 513.021 482.52C511.401 475.21 518.821 467.52 526.181 469.14C528.561 469.67 530.941 470.25 534.051 470.98C530.241 475.02 534.381 482.06 527.831 485.33C527.131 485.68 527.101 489.62 528.051 490.53C529.791 492.19 533.531 493.25 534.841 491.15C538.151 485.85 543.651 487.36 548.181 485.67C550.611 488.32 545.491 490.53 548.421 494.09C549.861 486.56 560.401 488.74 560.931 479.52C564.341 487.4 567.321 494.54 570.551 501.58C571.141 502.85 572.781 504.64 573.801 504.56C582.111 503.9 575.301 507.59 575.251 509.28C547.671 497.49 519.141 489.99 488.911 490.11L488.901 490.12Z" fill="#6B695B"/>
<path d="M847.011 682.061C848.671 680.821 846.061 675.531 850.631 676.671C854.961 677.761 850.841 680.811 851.371 682.691C852.621 687.121 848.221 692.911 854.741 696.151C856.241 696.901 855.861 699.511 854.331 700.151C848.961 702.421 853.121 706.701 852.361 709.911C847.881 708.521 842.341 701.561 841.531 712.831C841.391 714.801 838.131 717.261 835.451 715.061C830.841 711.281 836.951 712.331 837.321 711.141C838.521 707.211 838.011 702.801 840.671 699.231C837.751 698.001 837.631 690.891 832.091 695.141C831.421 693.521 830.361 691.951 830.151 690.271C829.791 687.451 829.731 684.321 833.031 682.971C836.041 681.741 839.541 681.851 838.311 676.461C837.781 674.161 841.411 675.081 842.581 676.311C844.181 677.981 843.211 681.541 847.021 682.051L847.011 682.061Z" fill="#373724"/>
<path d="M844.2 492.86C843.51 492.19 842.81 491.51 842.12 490.84C839.61 488.89 838.68 486.38 839.42 483.27C840.83 479.87 843.81 478.07 846.73 476.17C839.18 472.21 833.9 463.02 836.14 457.55C837.39 454.48 839.32 452.97 842.55 456.33C841.44 452.59 837.97 452.9 835.74 451.81C832.14 450.06 829.36 447.49 830.72 443.92C832.24 439.95 836.04 441.84 838.9 443.19C840.92 444.14 843.19 444.39 844.3 445.17C840.75 443.94 837.97 440.14 834.25 437.61C831.06 435.43 828.3 432.31 831.16 427.98C833.63 424.24 837.27 423.68 841.27 425.07C845.35 426.48 848.8 428.57 848.91 432.34C849.26 422.7 848.88 421.83 834.5 414.88C828.57 412.01 823.99 408.95 824.81 401.55C825.46 400.97 825.54 399.82 826.66 399.71C825.4 399.48 825.8 400.98 825 401.31C818.96 398.13 811.93 403.45 806.06 399.08L806.02 399.18C804.56 391.36 812.39 392.07 815.9 389.24C818.83 386.88 822.95 385.42 821.62 381.39C821.06 379.7 816.33 378.87 813.42 378.63C810.13 378.36 806.5 380.28 804.23 376.21C803.23 374.43 800.72 373.15 802.57 370.52C804.52 367.75 806.85 369.36 808.28 370.6C811.69 373.58 815.74 373.03 819.66 373.78C824.65 374.73 819.06 365.46 825.58 368.71C826.67 369.79 825.9 372.32 827.98 373.27C828.66 374.35 829.3 373.92 828.83 373.67C826.86 372.64 825.79 370.65 825.59 368.7C827.3 363.28 830.93 365.29 834.51 366.14C839.94 367.43 840.52 372.27 841.2 376.17C841.75 379.38 844.18 378.58 845.47 379.88C846.41 376.68 847.34 373.48 848.28 370.27C869.28 400.95 883.27 434.57 890.48 471.02C894.99 480.35 883.76 479.75 881.82 484.9C891.71 485.07 894.7 492.9 898.31 500.05C898.79 500.75 899.26 501.44 899.74 502.14C892.63 503.58 884.85 498.13 878.22 504.34C875.75 502.15 878.63 501.15 879.04 499.62C879.77 496.87 877.32 495.06 875.68 494.63C871.61 493.55 874.85 497.6 874.34 497.58C869.56 497.45 867.79 505.31 861.2 502.28C865.61 503.74 863.84 511.26 870.5 509.82C871.01 509.71 871.82 513.89 869.47 513.99C863.78 514.22 859.44 519.24 852.86 517.95C853.95 513.47 858.33 507.74 849.47 505.97C846.92 505.46 848.26 502.63 848.99 501.23C850.66 498.02 853.94 494.44 857.09 495.87C868.98 501.27 863.83 488.58 868.62 486.53C859.91 487.58 852.92 493.23 844.23 492.83L844.2 492.86Z" fill="#393925"/>
<path d="M848.36 609.08C846.59 604.13 850.24 595.86 840.3 595.92C842.32 591.88 839.99 586.45 845.23 583.25C849.65 580.55 854.2 576.81 849.05 570.82C847.43 568.93 847.71 567.77 849.27 566.03C851.55 563.47 852.8 560.46 849.31 557.83C845.79 555.18 843.7 558.55 840.99 559.9C833.83 563.47 833.4 553.13 827.23 552.68C825.47 552.55 829.76 548.04 831.84 546.08C834.59 547.35 833.6 549.74 834.59 551.31C835.82 553.28 836.78 555.51 839.61 554.01C841.98 552.76 843.19 548.37 842.78 548.13C837.1 544.85 841.83 538.95 842.45 537.86C844.98 533.43 840.49 530.56 841.46 527C837.67 531.04 829.49 515.68 827.73 530.23C827.34 533.44 822.46 530.66 820.08 533.5C820.71 524.08 827.14 520.42 833.42 517.66C838.18 515.57 842.84 510.34 842.47 504.02C842.53 502.36 843.05 500.95 844.6 500.09C855.15 536.1 858.1 572.37 848.33 609.07L848.36 609.08Z" fill="#6C6B5C"/>
<path d="M842.39 630.09C836.8 628.8 836.82 628.81 838.71 623.91C839.02 623.1 839.41 621.97 839.09 621.31C833.96 610.63 841.13 610.88 848.17 610.99C846.11 617.32 845.76 624.16 842.39 630.09Z" fill="#6C6B5C"/>
<path d="M898.29 500.061C897.66 500.041 896.64 500.251 896.46 499.951C891.4 491.601 886.5 483.051 872.18 489.761C878.39 480.531 889.44 480.811 890.46 471.031C891.08 471.191 891.69 471.361 892.31 471.521C892.33 472.191 892.36 472.861 892.38 473.531C895.09 478.201 897.58 482.931 896.26 488.641C896.94 492.441 897.62 496.251 898.3 500.061H898.29Z" fill="#373724"/>
<path d="M874.18 260.54C868.26 260.46 866.53 255.86 863.99 252.36C862.54 250.36 860.59 247.63 863.6 245.79C867.1 243.65 868.63 248.5 871.56 249.01C867.53 253.74 874.91 256.34 874.18 260.54Z" fill="#363724"/>
<path d="M854.809 238.75C852.009 239.85 849.319 243.01 846.749 239.42C846.309 238.81 846.949 236.73 847.719 236.07C851.059 233.25 852.499 237.29 854.809 238.74V238.75Z" fill="#363724"/>
<path d="M1006.74 477.3C1005.04 475.95 1003.23 474.7 1001.65 473.21C1000.05 471.7 996.43 470.97 998.74 467.58C999.55 466.39 1001.1 464.94 1002.33 464.93C1005.98 464.88 1003.87 469.21 1006.35 470.71C1007.97 468.92 1009.66 467.05 1011.55 464.96C1016.7 472.2 1006.03 472.36 1006.76 477.29L1006.74 477.3Z" fill="#6A695B"/>
<path d="M968.55 486.841C973.19 486.201 977.39 485.201 973.52 492.651C970.85 497.791 969.21 502.871 961.64 499.691C961.36 497.131 963.47 496.301 966.29 495.001C969.32 493.611 973.54 491.121 968.54 486.861L968.55 486.841Z" fill="#6A695B"/>
<path d="M995.27 486.871C994.38 486.591 993.49 486.101 992.59 486.061C990.14 485.951 987.08 490.931 985.69 486.651C984.84 484.041 986.52 478.831 990.88 478.051C995.49 477.231 993.72 481.861 994.79 484.061C995.18 484.881 995.16 485.901 995.33 486.821L995.28 486.871H995.27Z" fill="#6A695B"/>
<path d="M1037.28 490.92C1037 487.22 1034.56 483.05 1038.4 480.3C1041.18 478.32 1045 481.7 1042.82 483.53C1040.26 485.67 1039.61 488.51 1037.28 490.92Z" fill="#6A695B"/>
<path d="M896.239 488.651C894.949 483.611 893.649 478.581 892.359 473.541C897.029 477.711 901.259 481.991 896.239 488.651Z" fill="#6A695B"/>
<path d="M1023.96 488.74C1026.98 488.77 1031.43 492.6 1031.1 484.77C1034.48 488.27 1033.14 490.35 1030.79 491.67C1027.56 493.49 1025.47 491.53 1023.93 488.78L1023.96 488.74Z" fill="#6A695B"/>
<path d="M1052.35 496.4C1051.09 489.42 1055.46 489.94 1057.68 488.32C1058.02 488.83 1058.65 489.34 1058.66 489.86C1058.78 494.13 1054.56 493.1 1052.34 496.4H1052.35Z" fill="#6A695B"/>
<path d="M1234.85 489.361C1233.52 485.701 1234.47 483.661 1237.29 482.671C1237.81 482.491 1239.25 483.281 1239.3 483.711C1239.58 486.611 1237.94 488.291 1234.85 489.361Z" fill="#6A695B"/>
<path d="M410.48 719.411C408.86 680.841 442.85 645.131 485.16 645.551C524.62 645.931 558.31 680.551 557.9 720.001C557.47 762.481 524.66 794.841 482.82 794.491C444.5 794.171 408.28 760.421 410.48 719.411Z" fill="#383825"/>
<path d="M825.291 400.901C827.241 411.841 837.951 412.711 844.991 417.571C852.871 423.021 854.391 431.231 847.261 440.371C847.121 434.751 848.251 429.031 841.061 427.411C837.781 426.671 834.951 425.671 832.681 429.101C830.001 433.151 834.421 435.121 835.941 435.471C842.141 436.901 843.251 446.451 851.391 444.671C846.161 449.991 841.201 444.881 836.261 444.561C834.651 444.461 832.511 441.961 831.851 445.231C831.581 446.561 832.201 448.211 834.781 448.911C838.721 449.971 842.251 452.541 845.971 454.481C843.711 454.311 844.611 462.401 839.961 456.681C839.061 455.571 836.551 459.391 837.341 462.131C839.461 469.511 844.821 473.611 852.331 475.841C847.961 478.481 844.111 480.801 840.261 483.121C836.221 479.411 834.621 475.021 836.551 469.661C829.991 444.571 819.801 421.051 806.051 399.071C809.401 400.711 811.961 399.121 814.621 397.221C819.421 393.791 819.411 393.901 821.341 399.711C821.991 401.681 823.941 400.601 825.291 400.901Z" fill="#383925"/>
<path d="M777.51 476.451C761.71 468.491 779.75 464.161 777.57 457.641C782.67 467.141 776.48 480.101 787.73 488.191C780.85 490.251 773.52 492.741 769.06 486.361C766.24 482.331 771.54 478.811 777.51 476.441V476.451Z" fill="#6B695B"/>
<path d="M836.539 469.66C837.779 474.14 839.01 478.63 840.25 483.12C840.87 485.69 841.489 488.26 842.109 490.84C839.799 489.8 842.21 498.36 837.77 492.98C836.05 490.89 829.139 491.99 832.969 486.63C838.189 479.33 834.36 476.03 828.02 473.31C830.29 470.09 833.339 469.7 836.539 469.67V469.66Z" fill="#6B695B"/>
<path d="M705.859 480.53C701.689 479.52 699.659 481.96 697.129 483.74C695.079 485.18 692.499 488.03 689.799 484.66C687.959 482.36 686.919 479.42 688.419 476.67C690.809 472.26 692.269 477.43 694.299 477.55C698.049 477.76 702.629 472.74 705.869 480.54L705.859 480.53Z" fill="#6B695B"/>
<path d="M383.86 472.69C386.58 474.7 387.6 477.62 389.81 479.88C391.69 481.81 392.55 485.86 388.93 488.05C387.47 488.93 386.37 491.8 384.47 490.46C381.79 488.57 381.13 485.71 381.88 482.12C382.51 479.11 384.46 476.29 383.87 472.68L383.86 472.69Z" fill="#6B695B"/>
<path d="M672.26 485.49C678.39 483.57 681.25 482.68 684.23 481.74C685.06 486.4 681.78 488.77 680.12 491.96C677.41 490.31 678.1 486.44 672.26 485.49Z" fill="#6B695B"/>
<path d="M786.75 491.201C791.52 491.791 794.62 492.041 795.27 495.811C795.4 496.591 793.94 498.421 793.17 498.441C789.21 498.571 789.08 495.001 786.75 491.201Z" fill="#6B695B"/>
<path d="M845.54 572.841C841 572.401 841.04 577.991 835.59 575.991C831.75 574.581 834.52 572.461 833.82 570.851C833.33 569.711 833.26 568.221 834.65 567.641C836.58 566.831 837.15 567.821 837.47 569.801C838.35 575.181 842.06 569.591 845.54 572.841Z" fill="#6C6B5C"/>
<path d="M825.26 368.881C829.95 371.271 834.58 373.071 833.1 379.511C828.16 377.081 825.03 373.961 825.26 368.881Z" fill="#383925"/>
<path d="M827.839 394.09C829.709 394.58 831.499 395.78 831.659 397.56C831.999 401.21 828.589 399.34 826.969 400.17C823.589 401.9 825.449 398.71 825.419 398.14C825.339 396.43 825.099 394.29 827.839 394.08V394.09Z" fill="#383925"/>
<path d="M486.01 694.92C499.77 694.98 510.18 706.28 510.02 720.98C509.86 735.06 497.37 746.12 481.9 745.87C469.69 745.67 458.79 733.21 458.65 719.27C458.51 705.83 470.85 694.85 486.02 694.91L486.01 694.92Z" fill="#6C6A5B"/>
</g>
<defs>
<clipPath id="clip0_335_1939">
<rect width="1712.35" height="973.88" fill="white"/>
</clipPath>
</defs>
</svg>
