<svg width="128" height="128" viewBox="0 0 128 128" fill="none" xmlns="http://www.w3.org/2000/svg">
<path d="M74.5001 109C73.6542 106.815 73.1041 104.665 74 102.5C74.1669 102.097 74.1507 101.762 74.5 101.5C74.9686 101.149 76 100.999 76.5001 101.5C77.0001 102 81.2267 106.832 81.5001 107.5C81.7734 108.167 82.0624 108.385 82.0001 109C81.929 109.7 81.9979 110.002 81.5001 110.5C81.0023 110.998 80.1566 111.746 79.5001 112C78.4075 112.423 77.5589 112.502 76.5001 112C75.2276 111.397 75.0084 110.313 74.5001 109Z" fill="#F62F2F"/>
<path d="M12.7907 86.0634C10.1656 86.3973 8.00731 88.4246 8.00001 90.4378C7.99271 92.4511 11.2791 93.7856 13.5 93.5C15.1625 93.2862 15 93 16.5 92C17.019 91.654 19 91 19 90.5C19 89.6901 19 89 18.6552 88.499C17.285 86.5088 15.375 85.7346 12.7907 86.0634Z" fill="#FF2C2C"/>
<path d="M37.5 104C38.2174 101.208 41.292 99.5108 44 100.5C44.4101 100.65 44.738 100.651 45 101C45.3515 101.469 45.0641 101.918 45 102.5C44.7094 105.14 43.6029 107.472 41 108C40.2345 108.155 39.7252 108.29 39 108C38.2308 107.692 37.8428 107.254 37.5 106.5C37.096 105.611 37.2571 104.946 37.5 104Z" fill="#FF2C2C"/>
<path d="M71.0001 35.4996C71.1079 36.47 71.0001 37.9996 71.0001 37.9996H77.5001C77.5001 37.9996 76.257 36.284 76.0001 34.9996C75.6914 33.4559 76.1352 32.531 76.5001 30.9996C76.9875 28.9538 78.2782 28.0909 78.5001 25.9996C78.7304 23.8287 78.4979 22.4413 77.5001 20.4996C76.0363 17.6512 74.2006 15.6131 71.0001 15.4996C67.6428 15.3806 64.6734 17.2084 64.0001 20.4996C63.5539 22.6808 64.5148 24.0032 65.5001 25.9996C66.6068 28.2419 68.3638 28.7721 69.5001 30.9996C70.3418 32.6497 70.7955 33.6585 71.0001 35.4996Z" fill="#F90B0B"/>
<path d="M59.5 38.5C59.0634 39.3732 58 40 58 40H67C67 40 66.2433 38.9403 66 38.5C65.7567 38.0597 66 37 65.5 36C65.006 35.012 64.0831 34.2166 63 34C61.6193 33.7239 60.5416 34.7003 60 36C59.6245 36.9012 59.9366 37.6268 59.5 38.5Z" fill="#F90B0B"/>
<path d="M47.4992 40.5001C47.623 41.2956 47.9992 42.5001 47.9992 42.5001L54.999 40.5C54.999 40.5 54.499 39.3051 54.499 38.5C54.499 38 54.4029 37.61 54.4992 37.0001C54.5906 36.4215 54.75 36.0295 54.4992 35.5001C54.1978 34.8638 53.6502 34.7681 52.9992 34.5001C51.7353 33.9797 50.7182 33.8818 49.4992 34.5001C48.3842 35.0657 47.9314 35.8269 47.4992 37.0001C47.0267 38.2826 47.2891 39.1495 47.4992 40.5001Z" fill="#ED2626"/>
<path d="M10.501 62C12.2059 61.6211 14.501 60.7447 14.501 59.5C14.501 58.2553 9.50115 54.9997 7.50098 55C5.82127 55.0002 3.98032 55.8902 3.50081 57.5C3.27784 58.2485 3.27892 58.7511 3.50081 59.5C3.93405 60.9622 5.06929 61.4746 6.50098 62C7.96745 62.5382 10.0011 62.1111 10.501 62Z" fill="#FD0D0D"/>
<path d="M37.0008 44.4997C37.0998 45.077 37.0008 45.9996 37.0008 45.9996L42.0006 46C42.0006 46 41.3352 44.8066 41.0006 44C40.456 42.6869 40.5005 41.9996 40.0005 40.4996C39.5639 39.1898 39.0005 38.4285 37.5005 38.5008C35.4144 38.6014 35.5005 40.5 35.5005 41.4996C35.5005 41.9996 36.7629 43.1118 37.0008 44.4997Z" fill="#F01414"/>
<path d="M26.4999 53.5C26.7842 54.2532 26.9999 55.5 26.9999 55.5L35.4999 48C35.4999 48 31.2341 47.8406 29 46.5007C26.5001 45.0014 25.8107 41.0817 23.5 38.0007C20.5 34.0007 13.9996 30.0007 10.4997 34.9994C6.9999 39.998 12.5 46.0007 15.9999 48C20.0193 50.2961 24.8654 49.1692 26.4999 53.5Z" fill="#F22929"/>
<path d="M117 89.5002C113.526 89.3663 111.5 83.5011 111.5 82.5002C111.5 82.196 112.05 81.8204 112.5 81.5002C113.759 80.6047 115.538 81.1035 117.5 81.9995C119.138 82.7473 120.613 83.2411 121 84.9992C121.306 86.3875 121.505 87.495 120.5 88.5002C119.495 89.5054 118.42 89.5549 117 89.5002Z" fill="#FB1616"/>
<path d="M31 103.5C32.2374 101.39 32.9077 99.4449 33 97C33.1268 93.643 29.9848 87.9865 28.5003 91.0001C28.1446 91.7223 28.1017 92.4656 27.5 93.0005C23 97.0005 18.4648 97.2326 16.0006 101.5C13.9295 105.088 13.1818 107.465 16.0003 110.5C18.6577 113.362 22.6704 112.54 26.0003 110.5C28.7714 108.802 29.3897 106.247 31 103.5Z" fill="#FF1515"/>
<path d="M53.4991 101.5C52.9425 99.4252 52.5092 97.9059 53.4991 95.9998C55.4871 92.1717 67.1007 93.5591 64.4991 96.9998C63.745 97.997 62.7739 98.0185 61.9991 98.9998C60.7358 100.6 61.8668 102.488 60.4991 104C59.2089 105.426 57.8349 106.573 55.9991 106C54.08 105.401 54.02 103.441 53.4991 101.5Z" fill="#F52121"/>
<path d="M91 96.5C90.2923 95.4693 89.9786 95.6552 89.4999 94.5002C87.8534 90.5277 96.5269 83.4602 97.9999 87.5002C98.535 88.9678 97.4661 90.0321 97.9999 91.5002C98.6605 93.3168 100.569 93.7007 102 95C103.851 96.6809 105.5 96.7084 106.5 99.0002C107.359 100.969 107.34 103.023 106.5 105C105.58 107.164 103.787 108.452 101.5 109C98.6076 109.693 97.1162 108.458 94.5 106C91.8838 103.542 91.7077 97.5307 91 96.5Z" fill="#F01212"/>
<path d="M120 56.4998C118.256 56.4029 116.552 56.8429 116 58.4998C115.753 59.2408 115.763 59.7556 116 60.4998C116.584 62.3322 118.604 62.8247 120.5 62.4998C121.888 62.2619 123.031 61.8276 123.5 60.4998C123.76 59.7633 123.755 59.238 123.5 58.4998C122.986 57.0119 121.572 56.5871 120 56.4998Z" fill="#F31010"/>
<path d="M88.4999 23.4998C87.3622 25.0987 87.2802 27.5545 88.9999 28.4998C90.8508 29.5172 93.0585 27.5652 93.4999 25.4998C93.797 24.1097 93.7094 22.7467 92.4999 21.9998C91.0804 21.1232 89.4671 22.1405 88.4999 23.4998Z" fill="#F31010"/>
<path d="M87.9999 38.9998C86.0367 40.6207 82.2408 40.9355 81.4999 38.4998C80.8852 36.4791 82.9479 35.4324 84.4999 33.9998C85.5345 33.0447 86.1192 31.7237 87.4999 31.9998C88.583 32.2164 89.0468 32.9924 89.4999 33.9998C90.3361 35.859 89.5719 37.7019 87.9999 38.9998Z" fill="#F31010"/>
<path d="M94.4999 44.4998C92.2907 45.3047 89.4415 42.0994 90.4999 39.9998C91.3962 38.2216 93.9886 37.7032 95.4999 38.9998C97.1568 40.4213 96.5511 43.7525 94.4999 44.4998Z" fill="#F31010"/>
<path d="M101 44.9998C99.9869 45.9778 98.7369 45.8 97.9999 46.9998C96.2594 49.8331 101.946 54.6295 104.5 52.4998C105.781 51.4313 104.905 49.7588 106 48.4998C107.033 47.3118 108.055 47.1251 109.5 46.4998C112.066 45.3893 113.99 46.2311 116.5 44.9998C118.745 43.8985 120.452 43.2702 121.5 40.9998C122.241 39.3944 122.401 38.222 122 36.4998C121.495 34.3314 120.398 33.1629 118.5 31.9998C115.997 30.4663 113.842 30.7657 111 31.4998C107.747 32.3399 106.039 33.8301 104 36.4998C101.863 39.2972 103.532 42.5547 101 44.9998Z" fill="#F31010"/>
<path d="M105.5 63.4998C102.991 65.6821 102.676 55.0867 106 54.9998C107.836 54.9518 108.801 56.0887 109.989 57.4867L110 57.4998C110.456 58.0364 111 58.2958 111 58.9998C111 59.7038 110.517 60.022 110 60.4998C109.093 61.3379 107.975 60.7416 107 61.4998C106.229 62.0992 106.237 62.8591 105.5 63.4998Z" fill="#F31010"/>
</svg>
