<svg width="307" height="62" viewBox="0 0 307 62" fill="none" xmlns="http://www.w3.org/2000/svg">
<path d="M100.762 1.04591C104.977 0.126869 107.452 -0.114152 111.762 0.0459057C116.317 0.215056 118.773 1.25571 123.262 2.04591C128.732 3.00864 131.75 3.86458 137.262 4.54591C143.469 5.31307 153.24 5.54539 153.262 5.54591L167.262 4.54591C167.262 4.54591 176.073 2.8544 181.762 2.04591C186.822 1.32685 189.652 0.545909 194.762 0.545906C199.873 0.545906 202.825 0.724741 207.762 2.04591C213.585 3.60424 216.564 5.49449 221.762 8.54591C227.185 11.729 230.056 13.8756 234.762 18.0459C239 21.8015 240.727 24.5735 244.762 28.5459C247.814 31.5501 249.454 33.3266 252.762 36.0459C255.568 38.3522 257.177 39.629 260.262 41.5459C263.971 43.8503 266.152 45.073 270.262 46.5459C274.409 48.032 276.933 48.2318 281.262 49.0459C286.88 50.1023 290.264 49.4818 295.762 51.0459L296.044 51.126C299.083 51.9896 300.912 52.5099 303.762 54.0459C304.764 54.5861 305.693 54.5597 306.262 55.5459C306.848 56.5607 306.875 57.5473 306.262 58.5459C305.337 60.0529 303.435 58.473 301.762 59.0459C300.02 59.6428 300.762 60.5459 297.762 61.5459C297.28 61.7065 296.626 61.7918 295.834 61.8154C296.522 61.499 297 60.8063 297 60C297 58.8956 296.105 58.0003 295 58C293.896 58 293.001 58.8955 293 60C293 60.7789 293.446 61.452 294.096 61.7822C289.725 61.5309 282.985 60.1135 277.262 58.5459C272.258 57.1751 269.434 56.3032 264.762 54.0459C256.955 50.2733 252.889 47.1821 246.762 41.0459C242.043 36.3194 240.652 32.58 236.262 27.5459C233.811 24.7342 232.53 23.0475 229.762 20.5459C226.926 17.9824 225.092 16.7616 221.966 14.6816L221.762 14.5459C218.556 12.4122 216.797 11.0739 213.262 9.54591C210.258 8.24726 208.422 7.90024 205.262 7.04591C203.708 6.62564 202.846 6.33709 201.262 6.04591C198.375 5.51506 196.689 5.324 193.762 5.54591C190.974 5.75725 189.427 6.19889 186.762 7.04591C184.758 7.68306 183.727 8.29645 181.762 9.04591C176.57 11.0263 173.652 12.1923 168.262 13.5459C162.502 14.9924 159.201 16.0701 153.262 16.0459C146.905 16.02 143.42 14.6271 137.262 13.0459C131.7 11.6175 123.262 8.54591 123.262 8.54591C123.243 8.53816 116.39 5.79183 111.762 5.54591C107.433 5.31586 104.965 5.9816 100.762 7.04591C97.3498 7.91005 95.445 8.54217 92.2622 10.0459C89.1739 11.505 87.6181 12.6721 84.7622 14.5459C81.9534 16.3888 80.3772 17.437 77.7622 19.5459C74.4287 22.2342 72.712 23.9415 69.7622 27.0459C64.9728 32.0864 63.6268 36.0779 58.7622 41.0459C53.0229 46.9072 49.6429 50.4655 42.2622 54.0459C36.7597 56.7152 33.2156 57.146 27.2622 58.5459L27.2241 58.5547C23.1458 59.5137 18.3356 60.6433 14.5337 61.2822C14.8243 60.935 14.9995 60.4882 14.9995 60C14.9995 58.8955 14.1041 58 12.9995 58C11.8952 58.0003 10.9996 58.8956 10.9995 60C10.9995 60.6917 11.3515 61.301 11.8853 61.6602C10.1636 61.8491 8.86446 61.847 8.26221 61.5459C6.26224 60.5459 5.68847 59.6212 3.76221 59.0459C2.43927 58.6508 1.81289 59.4417 0.762212 58.5459C-0.582532 57.3994 0.261266 54.0497 0.262212 54.0459C0.262212 54.0459 4.86241 51.9584 8.26221 51.0459C14.1569 49.4638 17.7632 50.1692 23.7622 49.0459C26.5102 48.5314 28.0722 48.3073 30.7622 47.5459C33.5553 46.7554 35.0693 46.1295 37.7622 45.0459C41.9756 43.3506 44.3989 42.4337 48.2622 40.0459C52.7499 37.2722 54.7495 34.971 58.7622 31.5459C66.9562 24.5518 70.2278 19.1204 78.7622 12.5459C82.5386 9.6368 84.5513 7.78023 88.7622 5.54591C93.1833 3.20002 95.8722 2.11227 100.762 1.04591Z" fill="#F26E1B"/>
<circle cx="13" cy="60" r="2" fill="#52250B"/>
<circle cx="295" cy="60" r="2" fill="#52250B"/>
<path d="M34.0003 46.4999L40.0003 54.9997C40.0003 54.9997 44.9357 52.9997 49.0003 49.9997C51.9596 47.8154 56.5003 43.4997 56.5003 43.4997L52.0003 37.4999C52.0003 37.4999 47.0003 40.9999 44.0003 42.4999C40.9953 44.0024 34.0003 46.4999 34.0003 46.4999Z" fill="black"/>
<path d="M273 47.4999L269 55.9999C269 55.9999 262.856 53.5813 259.5 51.4999C256.235 49.4754 251.5 45.4999 251.5 45.4999L256.5 38.9999C256.5 38.9999 263.652 43.5805 264.5 43.9999C265.348 44.4193 273 47.4999 273 47.4999Z" fill="black"/>
<path d="M122 8.5V1.5C122 1.5 142.481 4.90949 153.5 5C165.295 5.09688 182.5 1.5 182.5 1.5V9C182.5 9 165.529 17.1894 153.5 17C142.23 16.8225 122 8.5 122 8.5Z" fill="black"/>
</svg>
