<svg width="194" height="204" viewBox="0 0 194 204" fill="none" xmlns="http://www.w3.org/2000/svg">
<path d="M6.16122 69.5211C7.86122 59.9011 12.9113 52.0111 18.9713 44.6511C22.5413 43.4611 23.5412 40.7911 23.1812 37.3411C24.4512 33.7011 27.9213 32.0711 30.3613 29.5111C35.7313 29.1711 37.7512 21.8311 43.8712 23.0111C47.5812 25.1011 50.4813 27.7611 50.5913 32.4211C50.3413 33.3011 49.8913 34.0511 49.2213 34.6711C45.5113 36.5811 40.7712 36.5511 38.1812 40.5311C36.4012 45.4211 43.8413 47.8911 41.4713 52.9211C41.2413 54.7311 40.5312 56.3511 39.5112 57.8411C33.5112 64.1611 31.6112 72.4511 28.7912 80.3011C19.2712 106.601 28.5512 128.731 44.1412 149.441C46.0312 151.951 48.1112 154.311 49.6212 157.071C52.5312 167.911 59.9112 174.341 70.5412 176.391C81.2212 178.451 90.7412 184.451 102.291 184.091C107.841 183.921 111.641 182.791 115.151 179.041C121.961 179.371 130.451 173.841 134.271 184.521C129.871 193.741 116.521 199.921 107.301 197.041C106.261 196.721 105.461 195.621 104.191 196.051C105.271 197.021 105.131 198.241 104.891 199.491C101.271 203.901 97.2612 203.431 93.0612 200.481C91.6412 199.721 94.1713 196.241 90.6113 196.891C86.0913 197.721 81.7612 196.231 77.8812 194.571C74.6812 193.201 69.5012 194.771 68.3812 189.151C68.1712 188.081 67.0913 188.301 64.2213 193.801C63.8613 194.601 63.3312 195.281 62.6712 195.861C59.5212 194.691 56.3713 193.511 53.2213 192.341C49.5113 188.051 45.2212 184.771 39.2612 184.441C34.4212 182.591 30.6113 179.641 28.7113 174.641C28.8113 171.071 27.8312 168.011 24.5212 166.101L24.6212 166.251C20.3412 159.671 16.8112 152.671 13.2812 145.671C11.9712 143.071 10.4013 140.351 11.5913 137.651C13.6913 132.871 8.16124 137.271 8.55124 134.871C2.84124 122.451 1.75127 109.311 2.21127 95.9111C2.37127 86.9511 5.56121 78.4411 6.15121 69.5411L6.16122 69.5211Z" fill="#3E94A0"/>
<path d="M49.4304 33.4809C47.5304 30.3209 45.6305 27.1609 43.7305 24.0009C44.0205 23.6909 44.3105 23.3709 44.5905 23.0509C45.9705 21.8909 48.7304 22.4309 48.7604 19.6309C48.8004 18.5009 49.0704 17.4109 49.1804 16.3009C51.1204 15.0409 53.0505 13.7809 54.9905 12.5209C60.3705 13.0709 64.5504 9.87092 69.1704 8.00092C73.4804 5.83092 78.9504 6.31093 82.3804 2.14093C90.0604 -1.03907 97.7804 -0.269074 105.52 1.81093C109.09 4.53093 113.52 5.28093 117.53 6.99093C128.06 7.92093 137.98 10.4209 145.96 17.9509C148.84 20.4009 151.32 23.5109 155.55 23.7309C158.4 25.9109 161.28 28.0709 162.97 31.3709C165.61 34.4809 166.4 39.0709 170.6 40.9309C172.86 41.9609 174.48 43.4609 174.45 46.1709C176.19 49.6009 177.57 53.2309 180.17 56.1609C182.04 59.2409 185.61 61.4009 185.33 65.6509C181.59 72.2609 186.2 78.3209 186.64 84.6609C186.87 87.9809 189.16 91.7409 185.48 94.1609C182.56 96.0909 178.9 94.0409 176.06 93.3509C173.04 92.6209 173.01 88.3509 173.84 85.1109C175.37 79.1009 172.75 84.4109 172.16 84.5209C168.85 85.1409 168.11 82.2409 166.5 80.5209C164.79 77.8509 164.08 74.7109 162.39 72.0309C160.72 66.6609 155.25 62.6009 156.79 56.1209C155.54 50.6609 151.56 46.9909 147.93 43.2009C143.3 38.3709 143.22 34.7009 151.79 31.6509C142.23 32.7909 133.87 36.7009 128.16 27.6309C115.3 27.0809 103.87 17.4609 89.5604 23.8909C78.7404 28.7509 66.0204 29.0109 55.2704 35.0609C53.3704 36.1309 50.9404 35.5709 49.4104 33.4709L49.4304 33.4809Z" fill="#4095A3"/>
<path d="M168.631 78.8906C169.561 80.0506 170.491 81.2106 171.661 82.6606C172.991 78.6906 172.471 74.4206 175.771 70.7406C180.871 77.5806 172.921 84.7006 177.111 91.0106C179.911 89.8706 176.331 85.3406 180.031 84.1606C183.831 85.7506 179.911 90.9506 184.461 92.9606C185.021 87.7906 184.261 83.2706 181.941 79.0306C178.881 73.4506 179.981 69.0306 185.341 65.6406C186.341 71.4206 190.351 76.5406 189.111 82.8106C191.291 93.7306 192.681 104.731 192.901 115.871C192.731 120.181 191.111 124.211 190.551 128.451C188.721 131.311 186.501 134.041 187.351 137.831C187.191 139.181 186.691 140.331 185.491 141.081C184.341 143.191 183.201 145.301 182.051 147.411C176.641 144.381 178.131 139.571 178.431 136.781C178.641 143.921 174.371 149.851 165.941 153.081C155.801 156.971 152.731 166.891 147.891 175.201C146.651 177.331 146.391 180.011 144.651 181.961C140.361 182.791 138.321 189.291 132.681 186.731C132.881 182.011 130.091 180.911 126.041 181.041C121.951 181.171 117.861 181.061 113.771 181.061C111.621 176.001 115.341 175.361 118.711 174.611C127.771 172.611 135.171 167.861 141.371 161.101C160.801 140.611 169.101 116.401 165.891 88.2706C165.501 84.8606 165.381 81.3206 168.631 78.8806V78.8906Z" fill="#3D93A1"/>
<path d="M144.012 181.049C145.782 167.889 150.742 156.099 163.612 150.959C172.162 147.549 174.142 140.199 177.782 133.379C183.552 137.399 179.842 143.209 182.052 147.409C178.862 151.409 178.902 157.269 174.502 160.579C166.732 161.619 167.682 171.469 161.162 173.779L161.332 173.699C155.362 174.859 154.132 183.029 147.432 183.109C146.012 182.889 144.822 182.289 144.022 181.039L144.012 181.049Z" fill="#3C949D"/>
<path d="M62.6917 195.829C62.6917 195.329 62.6916 194.829 62.6816 194.329C69.0316 189.989 69.0917 189.989 72.8517 195.059C73.6017 196.069 71.5916 195.539 72.7516 195.879C73.2616 196.029 74.1417 194.749 74.9517 194.869C80.9717 195.769 87.3216 194.899 92.9116 198.139C96.7116 200.819 100.512 200.839 104.312 198.139C114.552 197.649 123.702 192.269 133.892 191.579C134.952 192.229 135.172 193.099 134.562 194.179C126.962 196.729 119.362 199.289 111.762 201.839C101.092 205.339 90.4316 203.429 79.7616 201.839C74.6616 198.169 67.7417 199.659 62.6917 195.839V195.829Z" fill="#569BA6"/>
<path d="M9.76099 135.611C10.701 134.481 11.6311 133.351 12.8611 131.871C13.6311 144.701 22.811 154.161 24.641 166.211C16.051 159.151 11.371 149.671 8.04102 139.351C9.14102 138.351 8.20099 136.401 9.76099 135.611Z" fill="#4C97A5"/>
<path d="M9.76107 135.609C9.19107 136.859 8.6111 138.099 8.0411 139.349C5.0011 130.169 1.08116 121.189 1.85116 111.169C0.521159 105.729 1.34106 100.239 1.37106 94.7588C2.01106 93.5988 2.9011 93.3488 4.0411 94.0188C3.2311 108.259 4.53107 122.199 9.76107 135.609Z" fill="#5DA4B0"/>
<path d="M134.561 194.17C134.561 193.58 134.561 192.98 134.561 192.39C134.861 183.74 143.78 185.27 147.88 181.11C153.61 180.91 153.931 170.89 161.331 173.7C154.651 183.45 145.431 189.89 134.571 194.17H134.561Z" fill="#5497A3"/>
<path d="M49.1809 16.2991C49.8909 16.9791 50.6109 17.6591 51.3209 18.3391C50.4709 22.4691 46.241 22.0691 43.741 23.9891C38.121 22.9791 37.0709 33.0991 30.3809 29.4791C35.5009 23.4491 42.0909 19.4991 49.1909 16.2891L49.1809 16.2991Z" fill="#56A0AA"/>
<path d="M4.0409 94.0295C3.5109 94.0295 2.98093 94.0495 2.45093 94.0595C1.25093 93.6495 1.08091 92.9795 1.93091 92.0395C1.27091 84.1395 3.04089 76.6995 6.16089 69.5195C9.10089 72.6695 6.87089 75.8395 6.28089 79.0595C5.38089 84.0195 4.7709 89.0395 4.0409 94.0295Z" fill="#579DAA"/>
<path d="M161.15 173.779C162.13 170.029 166.27 168.279 166.27 163.349C166.27 158.859 170.54 158.139 174.49 160.579C169.85 164.779 168.41 172.229 161.15 173.779Z" fill="#4F98A3"/>
<path d="M191.621 111.2C191.421 113.01 191.231 114.81 191.031 116.62C188.061 105.48 189.601 94.0903 189.111 82.8203C189.951 85.8703 190.801 88.9103 191.641 91.9603C192.621 98.3803 192.671 104.79 191.611 111.21L191.621 111.2Z" fill="#60A1AD"/>
<path d="M43.7313 187.139C42.1113 186.089 40.2913 185.219 40.1113 182.929C47.6813 181.579 50.2513 187.229 53.2413 192.299C50.0713 190.579 46.9013 188.859 43.7413 187.139H43.7313Z" fill="#5899A8"/>
<path d="M68.3522 8.90157C64.2722 11.4816 60.8522 16.5116 54.9922 12.5216C59.4422 10.8016 63.8922 9.07156 68.3422 7.35156C69.1222 7.69156 69.3821 8.03157 69.1321 8.38157C68.8821 8.73157 68.6222 8.91157 68.3622 8.91157L68.3522 8.90157Z" fill="#569EAE"/>
<path d="M68.3521 8.90094C68.3521 8.38094 68.352 7.86094 68.332 7.35094C69.752 6.90094 71.452 6.94094 72.162 5.21094C75.242 5.13094 78.322 5.04094 81.402 4.96094C77.902 9.09094 73.012 8.62094 68.342 8.91094L68.3521 8.90094Z" fill="#5D9DAA"/>
<path d="M170.61 40.9389C163.95 41.0389 164.48 35.3989 162.98 31.3789C167.14 33.2789 168.45 37.4489 170.61 40.9389Z" fill="#5FA3B1"/>
<path d="M1.93128 92.0391C2.10128 92.7091 2.2813 93.3891 2.4513 94.0591C2.2513 99.7691 2.05132 105.469 1.85132 111.179C-0.618677 104.789 -0.63873 98.4091 1.92127 92.0391H1.93128Z" fill="#296E7A"/>
<path d="M191.621 111.201C191.621 104.791 191.641 98.3709 191.651 91.9609C192.171 92.6509 192.691 93.3409 193.211 94.0409C192.361 99.7309 194.701 105.721 191.621 111.211V111.201Z" fill="#2E697A"/>
<path d="M30.4208 173.899C29.2308 173.009 28.0408 172.129 26.8508 171.239C26.0808 169.509 25.3208 167.779 24.5508 166.059C29.6608 166.309 30.7308 169.589 30.4208 173.899Z" fill="#5BA2AF"/>
<path d="M23.1807 37.3281C26.1907 42.3081 24.2307 44.4281 18.9707 44.6381C20.3707 42.1981 21.7807 39.7581 23.1807 37.3281Z" fill="#63A2B0"/>
<path d="M155.561 23.7292C149.961 25.7892 148.191 21.4992 145.971 17.9492C150.011 18.4692 152.231 22.0192 155.561 23.7292Z" fill="#5DA1B0"/>
<path d="M180.171 56.158C176.151 54.038 174.671 50.468 174.451 46.168C177.661 48.748 179.371 52.198 180.171 56.158Z" fill="#5DA4AE"/>
<path d="M106.342 4.99126C108.812 4.92126 111.282 4.85125 113.752 4.78125C115.192 5.21125 117.032 4.95126 117.542 6.99126C113.892 5.85126 109.452 9.14125 106.352 4.98125L106.342 4.99126Z" fill="#63A5B2"/>
<path d="M168.63 78.89C172.46 100.25 169.14 120.48 160.77 140.48C156.83 149.89 149.091 155.81 143.991 163.95C134.011 168.75 125.231 176.65 113.111 175.99C103.871 180.25 94.0605 177.32 84.5705 178.25C79.4205 178.39 74.3105 178.19 69.5205 175.98C65.4105 174.69 62.1404 171.85 58.3804 169.92C53.7304 167.07 50.8205 162.56 47.5205 158.42C36.1305 147.08 29.4305 133.25 24.0805 118.18C19.1305 104.24 21.9904 91.74 26.7504 78.93C30.9604 78.54 30.8804 81.84 31.2604 84.45C31.6604 87.22 31.6104 90.06 34.1304 91.97C48.8704 105.69 70.3605 101.73 81.6105 83.17C84.4405 79.05 85.4405 74.89 82.4005 70.34C80.4105 67.36 80.7505 63.83 80.6705 60.43C80.0905 49.67 78.6605 38.94 80.4305 28.17C82.4405 25.01 85.4504 24.02 89.0104 24.21C97.4704 25.34 106.24 24.71 114.17 28.75C116.46 40.8 123.571 45.08 135.721 43.52C143.141 42.57 147.1 47.44 147.44 54.97C147.58 58.09 147.58 61.21 147.67 64.33C147.98 75.77 151.751 77.86 162.341 72.45C163.171 72.02 163.98 71.55 164.87 71.25L168.64 78.9L168.63 78.89Z" fill="#247D8C"/>
<path d="M89.2319 25.9898C86.4719 25.6798 83.9619 26.4698 81.5919 27.7998C80.4319 29.6898 78.9818 31.3298 76.8818 32.1098C67.1618 35.6998 58.9319 41.6698 50.8619 47.9798C47.7119 50.4398 44.2018 52.5498 39.8918 52.3798C37.8418 50.1298 39.4819 46.2598 34.0919 44.8698C28.8319 43.5098 34.4919 40.9298 36.1919 39.1798C41.7919 40.0398 44.4319 34.0198 49.4419 33.4898C56.2519 35.2098 59.4819 28.0998 65.9619 26.9698C74.4619 25.4898 83.6519 24.3298 91.8519 19.9398C98.6719 16.2898 109.312 15.6898 113.452 19.2598C119.492 24.4798 124.012 24.2098 130.162 22.8898C130.922 22.7298 132.622 23.4398 132.612 23.6998C132.122 37.0398 140.532 29.6098 145.422 28.9198C152.512 27.9198 154.342 31.6098 155.032 37.1398C151.382 40.2798 149.962 31.5098 147.272 35.9498C144.822 39.9898 150.202 40.5098 151.922 42.7298C155.992 47.9798 158.222 54.9398 167.472 56.0898C162.222 60.4298 160.202 55.2998 157.332 56.2098C149.652 55.7098 147.762 48.0698 142.712 44.2898C134.222 37.9298 125.002 33.0798 115.072 29.4598C106.792 25.8098 97.7318 28.0698 89.2518 26.0198L89.2319 25.9898Z" fill="#4298A7"/>
<path d="M39.8815 52.3691C52.9115 42.6891 64.7916 31.0691 81.5916 27.7891C85.5416 38.9691 82.5516 50.5291 83.4716 61.8691C82.8416 62.4991 82.0815 62.8291 81.2015 62.8891C75.3815 61.1691 74.3515 54.6091 69.7715 51.6391C67.8315 50.0491 65.7015 49.9791 63.4515 50.8891C61.5615 51.5391 59.6915 52.2091 57.7815 52.7991C55.4315 53.2591 53.0815 53.7291 51.1615 55.3391C50.4515 55.7891 49.7015 56.1491 48.9315 56.4591C46.8615 56.9691 44.9215 57.9391 42.7615 58.1291C40.9215 58.1691 39.2316 57.8291 38.1016 56.1791C38.6916 54.9091 39.2915 53.6391 39.8815 52.3691Z" fill="#267F8B"/>
<path d="M113.782 173.541C121.822 174.061 128.872 171.041 135.562 167.131C138.242 165.561 140.682 163.721 143.992 163.941C135.822 169.831 128.312 177.001 117.352 177.441C115.172 177.531 114.172 179.061 113.762 181.051C112.642 184.551 116.982 194.741 106.542 186.911C105.722 186.291 104.062 186.611 102.832 186.751C87.4518 188.491 74.6118 180.261 60.8418 175.851C52.7918 173.271 49.0917 166.401 47.5117 158.391C51.3317 161.501 55.1418 164.621 58.9618 167.731C61.2518 171.101 65.0918 171.891 68.4618 173.451C73.4618 174.101 78.4618 174.761 83.4718 175.411C93.6618 176.211 103.962 178.671 113.782 173.531V173.541Z" fill="#398D9D"/>
<path d="M147.871 181.109C146.581 188.589 137.011 186.289 134.561 192.389C124.631 195.109 114.941 199.089 104.311 198.129C102.971 196.869 101.641 195.599 100.301 194.339C112.811 198.999 122.551 192.039 132.681 186.739C136.931 185.769 138.221 178.919 144.021 181.049C145.311 181.069 146.601 181.089 147.881 181.109H147.871Z" fill="#408F9B"/>
<path d="M92.9113 198.129C86.0413 198.029 77.6413 200.219 72.8913 195.799C68.6413 191.839 66.0913 194.169 62.6813 194.329C60.3013 192.029 59.1613 189.519 63.0613 187.919C65.5813 186.889 67.5913 185.859 71.1413 188.579C75.7113 192.079 82.6013 192.569 88.5113 194.259C90.8813 194.929 94.4613 194.519 95.5113 195.999C97.6513 199.049 93.9313 197.459 92.9113 198.129Z" fill="#3C8F99"/>
<path d="M38.1122 56.1914C39.9922 56.1914 41.8721 56.1914 43.7521 56.1914C38.6921 66.7014 35.1021 77.5814 35.1621 89.4314C35.1721 91.2914 34.0721 92.9514 32.4021 94.0314C24.8021 91.1314 31.5022 82.8814 26.7422 78.9114C29.1622 70.6514 30.5922 61.9014 38.1022 56.1914H38.1122Z" fill="#2F8492"/>
<path d="M49.4316 33.4808C47.5216 35.8908 45.7916 38.4608 43.6716 40.6608C40.5916 43.8808 37.8216 43.9808 36.1816 39.1708C38.3816 32.1208 44.2316 33.5608 49.4316 33.4808Z" fill="#4095A3"/>
<path d="M20.4911 130.359C19.4311 133.399 18.3811 136.439 16.4811 141.899C15.4511 135.549 17.4411 132.729 20.4911 130.359Z" fill="#4C97A5"/>
<path d="M117.532 27.8086C135.042 31.2986 146.242 43.6486 157.312 56.1786C159.262 61.4886 164.232 65.2786 164.872 71.2386C165.242 82.1286 156.812 77.9286 151.572 78.7986C145.912 79.7386 143.692 76.8486 143.972 71.2186C144.262 65.2886 143.892 59.3286 144.052 53.3886C144.182 48.5986 142.102 46.5186 137.332 46.7086C133.272 46.8686 129.142 46.2886 125.152 46.8086C116.082 47.9886 112.342 44.4286 113.722 35.3586C114.002 33.5286 113.762 31.6086 113.762 29.7386C114.582 28.2386 116.622 29.1286 117.532 27.8086Z" fill="#257E8A"/>
<path d="M43.7422 24.0016C45.2622 20.7616 48.5121 19.8616 51.3221 18.3516C55.1121 28.7116 47.9122 24.3216 43.7422 24.0016Z" fill="#3E94A0"/>
<path d="M185.682 108.66C185.072 110.42 186.572 113.89 183.032 113.24C180.832 112.84 178.492 110.75 178.562 107.93C178.632 105.22 180.442 102.73 183.042 102.81C186.792 102.91 185.122 106.49 185.682 108.66Z" fill="#4095A3"/>
<path d="M187.751 128.102C187.621 131.382 187.741 134.722 185.391 137.442C182.381 133.372 185.041 130.722 187.751 128.102Z" fill="#60A1AD"/>
<path d="M32.4016 94.0297C32.0216 84.7197 32.9116 75.6997 35.7216 66.6397C37.2616 61.6897 39.6617 58.5997 43.7417 56.1997C45.2117 54.2597 47.3216 54.2697 49.4416 54.3297C51.4016 58.0597 48.9916 60.9397 47.4516 63.9097C45.7116 67.2597 43.7815 70.5597 43.5015 74.3797C43.1315 79.4797 40.4215 85.5497 46.3715 88.9297C52.1915 92.2297 58.5016 91.4197 64.2716 87.9697C67.7716 85.8797 70.4316 82.6397 73.9216 80.4897C76.0716 79.5597 77.9515 77.8897 80.5015 78.0197C83.7415 79.1797 85.6816 80.9497 83.5216 84.5897C80.7116 98.5897 68.2816 100.26 57.9216 102.9C48.4616 105.32 38.4516 104.04 32.4116 94.0397L32.4016 94.0297Z" fill="#368C99"/>
<path d="M83.512 84.5789C83.362 81.9389 82.112 80.0289 79.712 78.8989C78.452 77.8389 77.932 76.4289 77.752 74.8389C78.052 70.3089 77.502 65.5389 81.322 61.9889C82.042 61.9489 82.752 61.9189 83.472 61.8789C83.342 65.0489 84.592 67.6489 85.922 70.5389C88.132 75.3389 89.062 80.7389 83.512 84.5789Z" fill="#2D8590"/>
<path d="M117.532 27.8112C116.272 28.4512 115.012 29.0912 113.762 29.7412C105.542 28.7612 97.1722 28.7912 89.2422 25.9912C98.7222 25.9512 108.262 24.7612 117.542 27.8212L117.532 27.8112Z" fill="#207585"/>
<path d="M113.781 173.539C104.061 180.249 93.7507 177.539 83.4707 175.419C93.5807 174.889 103.831 176.719 113.781 173.539Z" fill="#2C8693"/>
<path d="M68.4609 173.458C64.8609 172.268 59.1209 174.638 58.9609 167.738C62.8809 168.388 65.6309 170.988 68.4609 173.458Z" fill="#3E94A0"/>
<path d="M81.3204 61.9799C81.4304 66.4399 82.6804 71.0399 79.8204 75.1699C78.1804 77.4899 78.0403 80.6099 75.8903 82.6599C68.8203 88.8399 62.4004 95.7799 51.3504 94.2399C41.9404 92.9199 39.5304 89.5899 39.4104 80.2799C39.2804 69.9199 45.0504 62.5399 49.4504 54.3199C51.5304 52.1899 54.5704 51.9499 56.9904 50.4999C58.8504 49.8299 60.7204 49.1499 62.5804 48.4799C65.7504 47.3999 68.9103 46.9599 72.0003 48.7599C76.1903 52.4099 78.3004 57.5199 81.3304 61.9899L81.3204 61.9799Z" fill="#5CA9B4"/>
<path d="M56.9814 50.5004C55.0214 52.8804 52.4214 53.9604 49.4414 54.3204C50.9114 50.9804 53.7714 50.3904 56.9814 50.5004Z" fill="#368C99"/>
<path d="M71.9904 48.7494C68.8504 48.6594 65.7103 48.5694 62.5703 48.4794C65.7803 46.0494 68.9304 45.7494 71.9904 48.7494Z" fill="#4395A2"/>
<path d="M75.8906 82.658C76.3306 79.708 77.2907 77.028 79.8207 75.168C79.7807 76.408 79.7507 77.648 79.7107 78.888C78.4407 80.138 77.1706 81.398 75.8906 82.648V82.658Z" fill="#459DA6"/>
</svg>
