<svg width="128" height="128" viewBox="0 0 128 128" fill="none" xmlns="http://www.w3.org/2000/svg">
<path d="M74.5001 109C73.6542 106.815 73.1041 104.665 74 102.5C74.1669 102.097 74.1507 101.762 74.5 101.5C74.9686 101.149 76 100.999 76.5001 101.5C77.0001 102 81.2267 106.832 81.5001 107.5C81.7734 108.167 82.0624 108.385 82.0001 109C81.929 109.7 81.9979 110.002 81.5001 110.5C81.0023 110.998 80.1566 111.746 79.5001 112C78.4075 112.423 77.5589 112.502 76.5001 112C75.2276 111.397 75.0084 110.313 74.5001 109Z" fill="#F62F2F"/>
<path d="M12.7907 86.0634C10.1656 86.3973 8.00731 88.4246 8.00001 90.4378C7.99271 92.4511 11.2791 93.7856 13.5 93.5C15.1625 93.2862 15 93 16.5 92C17.019 91.654 19 91 19 90.5C19 89.6901 19 89 18.6552 88.499C17.285 86.5088 15.375 85.7346 12.7907 86.0634Z" fill="#FF2C2C"/>
<path d="M37.5 104C38.2174 101.208 41.292 99.5108 44 100.5C44.4101 100.65 44.738 100.651 45 101C45.3515 101.469 45.0641 101.918 45 102.5C44.7094 105.14 43.6029 107.472 41 108C40.2345 108.155 39.7252 108.29 39 108C38.2308 107.692 37.8428 107.254 37.5 106.5C37.096 105.611 37.2571 104.946 37.5 104Z" fill="#FF2C2C"/>
<path d="M71.0001 35.4996C71.1079 36.47 71.0001 37.9996 71.0001 37.9996H77.5001C77.5001 37.9996 76.257 36.284 76.0001 34.9996C75.6914 33.4559 76.1352 32.531 76.5001 30.9996C76.9875 28.9538 78.2782 28.0909 78.5001 25.9996C78.7304 23.8287 78.4979 22.4413 77.5001 20.4996C76.0363 17.6512 74.2006 15.6131 71.0001 15.4996C67.6428 15.3806 64.6734 17.2084 64.0001 20.4996C63.5539 22.6808 64.5148 24.0032 65.5001 25.9996C66.6068 28.2419 68.3638 28.7721 69.5001 30.9996C70.3418 32.6497 70.7955 33.6585 71.0001 35.4996Z" fill="#F90B0B"/>
<path d="M59.5 38.5C59.0634 39.3732 58 40 58 40H67C67 40 66.2433 38.9403 66 38.5C65.7567 38.0597 66 37 65.5 36C65.006 35.012 64.0831 34.2166 63 34C61.6193 33.7239 60.5416 34.7003 60 36C59.6245 36.9012 59.9366 37.6268 59.5 38.5Z" fill="#F90B0B"/>
<path d="M47.5002 40.5001C47.6239 41.2956 48.0002 42.5001 48.0002 42.5001L55 40.5C55 40.5 54.5 39.3051 54.5 38.5C54.5 38 54.4039 37.61 54.5002 37.0001C54.5915 36.4215 54.751 36.0295 54.5002 35.5001C54.1988 34.8638 53.6512 34.7681 53.0002 34.5001C51.7363 33.9797 50.7192 33.8818 49.5002 34.5001C48.3851 35.0657 47.9324 35.8269 47.5002 37.0001C47.0277 38.2826 47.2901 39.1495 47.5002 40.5001Z" fill="#ED2626"/>
<path d="M10.5 62C12.2049 61.6211 14.5 60.7447 14.5 59.5C14.5 58.2553 9.50017 54.9997 7.5 55C5.82029 55.0002 3.97935 55.8902 3.49983 57.5C3.27686 58.2485 3.27794 58.7511 3.49983 59.5C3.93308 60.9622 5.06831 61.4746 6.5 62C7.96647 62.5382 10.0002 62.1111 10.5 62Z" fill="#FD0D0D"/>
<path d="M36.9999 44.4997C37.0988 45.077 36.9999 45.9996 36.9999 45.9996L41.9996 46C41.9996 46 41.3342 44.8066 40.9996 44C40.455 42.6869 40.4995 41.9996 39.9995 40.4996C39.5629 39.1898 38.9995 38.4285 37.4995 38.5008C35.4134 38.6014 35.4995 40.5 35.4995 41.4996C35.4995 41.9996 36.7619 43.1118 36.9999 44.4997Z" fill="#F01414"/>
<path d="M26.4999 53.499C26.7842 54.2523 26.9999 55.499 26.9999 55.499L35.4999 47.999C35.4999 47.999 31.2341 47.8396 29 46.4997C26.5001 45.0005 25.8107 41.0807 23.5 37.9997C20.5 33.9997 13.9996 29.9998 10.4997 34.9984C6.9999 39.9971 12.5 45.9997 15.9999 47.999C20.0193 50.2951 24.8654 49.1682 26.4999 53.499Z" fill="#F22929"/>
<path d="M117 89.4992C113.526 89.3653 111.5 83.5002 111.5 82.4992C111.5 82.195 112.05 81.8194 112.5 81.4992C113.759 80.6037 115.538 81.1026 117.5 81.9985C119.138 82.7463 120.613 83.2401 121 84.9983C121.306 86.3866 121.505 87.494 120.5 88.4992C119.495 89.5044 118.42 89.554 117 89.4992Z" fill="#FB1616"/>
<path d="M31 103.5C32.2374 101.39 32.9077 99.4449 33 97C33.1268 93.643 29.9848 87.9865 28.5003 91.0001C28.1446 91.7223 28.1017 92.4656 27.5 93.0005C23 97.0005 18.4648 97.2326 16.0006 101.5C13.9295 105.088 13.1818 107.465 16.0003 110.5C18.6577 113.362 22.6704 112.54 26.0003 110.5C28.7714 108.802 29.3897 106.247 31 103.5Z" fill="#FF1515"/>
<path d="M53.5001 101.501C52.9435 99.4262 52.5102 97.9069 53.5001 96.0007C55.488 92.1727 67.1017 93.5601 64.5001 97.0007C63.746 97.998 62.7749 98.0195 62.0001 99.0007C60.7368 100.601 61.8677 102.489 60.5001 104.001C59.2099 105.427 57.8359 106.574 56.0001 106.001C54.081 105.402 54.021 103.442 53.5001 101.501Z" fill="#F52121"/>
<path d="M91 96.5C90.2923 95.4693 89.9786 95.6552 89.4999 94.5002C87.8534 90.5277 96.5269 83.4602 97.9999 87.5002C98.535 88.9678 97.4661 90.0321 97.9999 91.5002C98.6605 93.3168 100.569 93.7007 102 95C103.851 96.6809 105.5 96.7084 106.5 99.0002C107.359 100.969 107.34 103.023 106.5 105C105.58 107.164 103.787 108.452 101.5 109C98.6076 109.693 97.1162 108.458 94.5 106C91.8838 103.542 91.7077 97.5307 91 96.5Z" fill="#F01212"/>
<path d="M120 56.5008C118.256 56.4039 116.552 56.8439 116 58.5008C115.753 59.2417 115.763 59.7566 116 60.5008C116.584 62.3331 118.604 62.8257 120.5 62.5008C121.888 62.2629 123.031 61.8286 123.5 60.5008C123.76 59.7643 123.755 59.239 123.5 58.5008C122.986 57.0129 121.572 56.5881 120 56.5008Z" fill="#F31010"/>
<path d="M88.4999 23.5008C87.3622 25.0997 87.2802 27.5555 88.9999 28.5008C90.8508 29.5182 93.0585 27.5662 93.4999 25.5008C93.797 24.1106 93.7094 22.7477 92.4999 22.0008C91.0804 21.1242 89.4671 22.1414 88.4999 23.5008Z" fill="#F31010"/>
<path d="M87.9999 39.0008C86.0367 40.6217 82.2408 40.9365 81.4999 38.5008C80.8852 36.4801 82.9479 35.4334 84.4999 34.0008C85.5345 33.0457 86.1192 31.7246 87.4999 32.0008C88.583 32.2174 89.0468 32.9934 89.4999 34.0008C90.3361 35.86 89.5719 37.7029 87.9999 39.0008Z" fill="#F31010"/>
<path d="M94.4999 44.5008C92.2907 45.3057 89.4415 42.1004 90.4999 40.0008C91.3962 38.2226 93.9886 37.7041 95.4999 39.0008C97.1568 40.4223 96.5511 43.7534 94.4999 44.5008Z" fill="#F31010"/>
<path d="M101 45.0008C99.9869 45.9788 98.7369 45.801 97.9999 47.0008C96.2594 49.8341 101.946 54.6305 104.5 52.5008C105.781 51.4323 104.905 49.7598 106 48.5008C107.033 47.3128 108.055 47.1261 109.5 46.5008C112.066 45.3902 113.99 46.2321 116.5 45.0008C118.745 43.8995 120.452 43.2712 121.5 41.0008C122.241 39.3953 122.401 38.2229 122 36.5008C121.495 34.3324 120.398 33.1639 118.5 32.0008C115.997 30.4672 113.842 30.7667 111 31.5008C107.747 32.3409 106.039 33.8311 104 36.5008C101.863 39.2982 103.532 42.5557 101 45.0008Z" fill="#F31010"/>
<path d="M105.5 63.5008C102.991 65.6831 102.676 55.0877 106 55.0008C107.836 54.9528 108.801 56.0897 109.989 57.4877L110 57.5008C110.456 58.0374 111 58.2967 111 59.0008C111 59.7048 110.517 60.023 110 60.5008C109.093 61.3389 107.975 60.7426 107 61.5008C106.229 62.1002 106.237 62.86 105.5 63.5008Z" fill="#F31010"/>
</svg>
