<?xml version="1.0" encoding="UTF-8"?>
<svg id="Layer_2" data-name="Layer 2" xmlns="http://www.w3.org/2000/svg" viewBox="0 0 2404.65 3626.59">
  <defs>
    <style>
      .cls-1 {
        fill: #6190bb;
      }

      .cls-2 {
        fill: #23465f;
      }

      .cls-3 {
        fill: #132e43;
      }

      .cls-4 {
        fill: #2b4e6a;
      }

      .cls-5 {
        fill: #173349;
      }

      .cls-6 {
        fill: #284c65;
      }

      .cls-7 {
        fill: #163349;
      }

      .cls-8 {
        fill: #22455e;
      }

      .cls-9 {
        fill: #122d42;
      }

      .cls-10 {
        fill: #365a79;
      }

      .cls-11 {
        fill: #173249;
      }

      .cls-12 {
        fill: #2c536e;
      }

      .cls-13 {
        fill: #1a364e;
      }

      .cls-14 {
        fill: #082233;
      }

      .cls-15 {
        fill: #142f46;
      }

      .cls-16 {
        fill: #082232;
      }

      .cls-17 {
        fill: #23455f;
      }

      .cls-18 {
        fill: #1d3b52;
      }

      .cls-19 {
        fill: #1b3c53;
      }
    </style>
  </defs>
  <g id="Layer_1-2" data-name="Layer 1">
    <path class="cls-2" d="m2092,593.45c15.31,22.8,30.43,45.74,45.98,68.39,50.88,74.09,89.29,155.2,126.03,236.47,38.24,84.58,66.98,173.31,84.97,264.93,3.49,3.74,3.05,8.47,2.63,12.85-1.6,16.69-.46,20.85,8.07,26.32,2.07,16.69,4.15,33.38,6.22,50.07-6.39,12.62-12,2.84-17.16-.97-7.87-5.81-10.21-18.03-21.67-19.46-4.63,2.09-4.55,6.04-5.17,9.64-5.55,32.48-14.45,41.38-47.29,42.57-45.56,1.66-91.18.68-136.77.44-18.89-.1-33.88,2.88-42.92,22.83-8.3,18.3-26.92,21.24-45.27,21.69-31.63.77-63.27.21-94.9.36-15.7.07-27.19,3.73-36.75,19.07-22.51,36.16-77.92,35.39-100.22-.9-13.82-22.48-42.51-29.43-53.16-55.49-3.49-8.53-15.25-4.64-19.97,4.3-8.14,15.39-19.86,26.71-35.29,34.49-4.38,2.21-7.37,6.22-7.92,10.92-3.42,29.65-3.36,59.37-.18,89.03,1.05,9.83,9.9,12.86,16.94,17.07,13.43,8.01,20.15,19.34,16.83,34.98-3.44,16.24-16.14,21.55-30.73,23.98-1.84.31-3.73.29-5.54.68-13.86,2.99-33.28-5.73-40.42,10.77-7.73,17.87-8.06,39.73,1.4,57.06,14.61,26.76,8.78,54.42,9.35,81.89.23,11.02-4.95,21.11-17.04,22.06-12.6.99-16.82-9.81-19.81-19.85-3.23-10.81-3.48-22.16-2.78-33.24,1.41-22.19-9.45-29.6-30.2-28.79-17.63.68-35.39,1.03-53-.67-29.09-2.8-44.16-15.15-43.93-43.84.23-28.35-14.54-51.53-19.39-77.77-2.28-12.34-10.32-12.68-20.9-11.76-34.95,3.06-38.88-.39-46.31-35.31-3.32-15.58-5.14-31.22-2.67-47.08,2.1-13.47,7.02-26.78,20.63-30.95,28.27-8.66,23.2-27.96,19.39-49.17-10.47,4.02-10.67,13.87-16,19.83-13.32,14.89-21.35,13.88-30.78-3.89-4.75-8.96-4.91-26.3-20.3-20.6-14.43,5.34-18.42,19.73-12.45,35.1.97,12.47,2.36,25.06-9.63,33.79-19.38-15.5-19.26-41.97-33.84-60.16,1.23-8.81,16.26-11.5,10.63-23.21-2.56-5.33-7.9-7.85-13.49-8.6-12.12-1.63-6.55,14.37-15.59,16.14-34.46-1.07-62.8-21.2-94.35-31.31-46.23-14.82-94.25-20.57-140.52-34.14-10.65-3.12-21.78-5.2-30.26-13.29-27.31-84.91-98.23-115.47-174.53-137.49-32.77-9.46-67.21-12.88-101.71-12.5-12.83.14-26.13,1.31-37.45-7.13-3.35-3.25-4.13-10.49-7.94-10.9-37.87-4.13-67.9-34.77-107.61-31.84-29.07,2.15-48.51-6.68-60.3-36.63-7.62-19.35-16.29-39.45-27.88-57.26-26.19-40.24-65.91-62.57-110.57-74.56-41.09-11.03-83.24-19.47-126.56-13.44-11.39,1.59-22.31.21-30.91-8.77-10.83-13.19-11.4-29.08-11.5-44.96-.29-46.5-3.38-93.29.66-139.44,6.7-76.55,30.11-148.74,68.21-215.97,19.28-34.02,41.79-65.53,66.87-95.51,67.21-80.35,149.22-141.68,240.81-191.41,18.38-9.98,38.46-12.88,57.48-19.85,33.34-.78,59.45-23.65,91.75-29.54,21.4-3.9,42.89-9.97,64.51-14.38-3.99,18.83,19.94,27.82,16.42,46.52-6.73,5.67-14.34,7.53-22.88,5.34-19.71-15.26-36.15-17.26-54.33,5.2-12.75,15.76-35.35,20.28-54.19,27.23-22.48,8.29-44.23,18.49-67.24,25.81-22.19,7.06-37.49,28.59-62.44,33.53-14.21,2.82-27.13,11.84-42.37,12.99-12.63.95-19.42,10.33-25.44,19.78-8.45,13.25-14.69,28.44-33.1,31.15-2.59.38-6.42,2.85-6.27,4.94,2.63,36.99-31.58,38.81-51.43,54.25-3.67,2.85-7.49,5.51-13.12,10.87,11.81,3.68,23.16,8.8,17.09,23.32-8.67,20.74-26.7,15.9-46.08,14.04,8.12,22.43,10.64,43.51.97,64.79-7.19,15.81-15.07,24.49-30.32,8.75-9.68-10-14.89-7.69-19.47,4.68-7.56,20.43-21,38.9-12.45,63.24,3.93,11.2-1.12,23.96-5.02,35.45-8.49,25,1.33,47.65,8.79,70.52,2.92,8.96,11.22,12.93,19.72,13.36,25.28,1.29,43.52,15.62,60.14,32.08,16.6,16.44,36.63,25.22,58.68,30,37.29,8.08,74.02,17.35,105.48,40.42,15.16,11.12,25.6-6.74,39.06-6.08,4.69.41,9.59,1.26,13.06,4.17,40.9,34.3,88.9,30.53,137.08,25.86,9.21-.89,18.37-2.38,27.12,2,8.1,5.45,4.66,11.3-.46,15.8-15.33,13.47-10.59,28.05-2.75,42.55,20.16,37.23,47.65,65.52,91.32,74.03,8.13,1.58,16.21,3.63,24.32,5.51,17.69,5.47,35.27,5.09,52.77-.81,73.27-9.83,142.81-81.86,136.67-169.81-1.09-15.58-1.57-31.47,1.78-47.05,12.15-22.41,23.24-9.12,24.34,4.08,2.69,32.33,24.53,63.32,7.44,97.28-4.37,8.68-2.22,15.06,9.8,17.43,24.66,4.86,49.36,9.47,74.4,11.02,20.32,1.26,37.96-6.69,53.71-19.59,30.45-24.95,47.12-24.74,74.19,1.9,10.32,10.15,22.3,12.77,35.54,12.88,56.73.47,113.47.32,170.2.1,17.96-.07,32.79-4.72,40.96-22.77,8.1-17.9,24.26-21.87,41.89-21.55,21.87.39,40.25-3.99,50.05-26.89,5.2-12.17,17.14-16.32,29.91-17.3,15.79-1.21,31.64-1.21,47.41-.58,24.57.99,45.74-2.86,59.41-27,8.01-14.14,23.54-17.58,38.99-17.52,21.1.09,38.22-5.42,47.47-26.72,4.66-10.73,15.81-15.12,25.04-21.38,29.2-19.83,30.39-44.77,11.02-73.75-37.86-56.62-86.32-104.22-129.72-155.96-41.18-49.09-95.34-85.27-147.25-123.1-41.39-30.16-89.87-48.63-129.65-81.47-15.82-13.06-37.64-15.45-56.66-22.83-15.64-6.07-29.02-14.26-31.4-32.01-2.25-16.76-24.35-21.42-22.68-39.86,53.92-15.87,98.24,13.19,144.72,31.36,38.03,14.86,72.55,37.05,109.56,54.1,5.3,1.68,9.88,4.58,14,8.24,12,13.92,28.11,21.86,44.08,30.01,77.46,56.52,153.28,115.35,216.9,187.42,43.61,49.41,88.72,97.82,126.82,151.93,4.85,6.89,9.69,13.7,10.57,22.42Z"/>
    <path class="cls-13" d="m2360.14,1990.15c-11.45,22.96-18.5,47.28-22.24,72.6,3.26,3.74,2.82,7.39-.26,10.98-18.51,20.58-19.28,48.45-28.48,72.69-11.55,30.45-31.49,57.19-38.16,89.53,5.94,7.55,5.72,14.97-.44,22.28-21.28,11.4-24.74,34.73-35.37,53.19-16.8,29.16-26.62,62.26-50.41,87.57-3.12,3.32-2.24,10.4-3.21,15.75,5.76,7.54,6.11,14.93-.62,22.13-29.44-1.77-30.2,26.44-41.3,42-23.65,33.16-45.89,67.3-70.63,99.79-34.6,45.44-71.43,88.85-109.57,131.36-28.55,31.83-61.44,58.45-93.32,86.37-15.26,13.36-19.45,27.55-3.54,42.44,56,52.42,99.24,114.59,132.76,182.67,12.49,25.38,20.54,54.22,28.96,81.94,26.24,86.34,23.35,175.37,23.49,264.28.05,31.45-13.55,59.33-15.97,89.47-2.98,37.08-23.05,68.62-31.12,104.26-5.79,25.58-28.61,44.85-48.17,62.88-9,8.3-37.93-7.85-38.87-21.2-2.88-40.87-28.06-69.64-53.06-97.7-46.41-52.1-101.32-94.68-157.49-135.8-63.94-46.81-112.32-106.91-145.89-178.65-2.95-6.3-1.55-14.63-2.16-22.01-15.78-19.68-7.33-43-9.75-64.69-1-8.95,2.53-19.97-6.71-25.71-9.98-6.2-17.69,2.69-24.75,7.89-26.88,19.78-57.34,31.03-89.59,36.91-66.81,12.19-132.95,20.95-202.07,9.84-61.23-9.85-122.17-22.78-184.29-28.3-33.15-2.95-65.69-11.61-99.56-10.07-23.28,1.05-46.5,1.05-69.24,7.07-9.01,2.39-18.29,3.57-27.66,3.39-36.63-.71-49.96-23.61-32.83-55.85,19.44-36.6,46.45-67.5,75.44-96.31,58.04-57.66,114.18-118.48,189.87-153.88,41.1-19.22,84.99-32.11,128.29-46.02,118.89-38.19,241.42-20.74,362.59-23.96,2.79-.07,5.85-.33,8.31.69,35.49,14.74,63.75,6.54,84.46-26.18,16.53,3.81,25.77-7.62,34.85-17.75,74.01-82.6,132.02-174.8,169.89-279.59,42.89-118.69,65.74-240.79,57.26-366.75-6.05-89.97-16.57-180.17-67.81-259.08-9.11-14.03-17.57-28.4-29.2-40.61-1.52-4.67-.35-8.98,1.67-13.19,3.77-47.43,10.95-94.54,13.22-142.05,1.35-28.18,5.84-56.12,5.67-84.37,16.12-8.21,21.49,5.42,27.34,14.78,37.94,60.74,73.09,122.76,99.25,189.94,24.13,61.98,55.83,70.48,126.58,62.2,64.87-7.59,129.83-7.55,194.67.55,11.02,1.38,21.78,5.16,32.96,5.81,25.49,1.48,43.26,11.44,45.3,40.31,5.13-14.89-.79-29.11-.11-43.23,1.03-21.16.95-43.93,29.56-48.76-5.94,71.81-9.59,144-32.49,213.17-4.77,14.42-6.98,28.8-5.78,43.82,3.08,3.81,2.72,7.54-.29,11.19Z"/>
    <path class="cls-17" d="m2398.7,1721.97c-19.91,17.94-26.42,39.2-18.04,65.32,3.7,11.52,3.23,24.05.06,35.86-2.15,8-9.4,12.99-16.91,12.04-10.21-1.29-9.22-9.78-6.76-17.43,6.81-21.2-1.95-30.56-22.99-34.53-61.53-11.61-123.57-12.37-185.77-10.9-21.04.5-41.87-2.34-62.44,8.98-11.08,6.1-27.25,4.9-40.36-2.7-3.97-2.3-8.54-5.84-12.52-5.47-57.56,5.33-58.48-44.63-75.74-77.83-18.77-36.13-32.81-75.04-54.38-109.29-18.49-29.37-32.33-62.08-56.83-87.6-4.84.53-9.31-.51-13.42-3.11-10.65-9.6-16.95-9-18.97,6.91-6.55,51.64-15.02,103.06-18.7,155.03-5.12,72.33-10.96,144.67-1.34,217.14,1.46,11.03.77,22.41-6.4,32.1-23.47,5.18-29.71.87-34.18-24.72-8.82-50.54-15.35-101.32-4.48-152.32,7.64-35.85-3.1-72.39,5.96-108.27,4.1-16.22-11.27-19.31-22.31-23.33-38.75-14.1-50.18-5.72-49.6,36,.1,7.31-1.24,14.9,2.63,21.94,6.01-.49,6.19-6,8.08-9.62,5.42-10.36,13.37-15.57,25.03-12.46,11.29,3.01,17.7,11.95,17.64,22.63-.15,27.34,4.2,56.28-28.62,72.02-16.07,7.71-15.5,21.36-.03,32.63,12.56,9.15,25.88,17.51,19.7,35.48-6.44,18.75-23.9,18.24-39.75,18.83-18.63.68-37.23.15-55.51-4.2-8.17-1.94-18.03-2.77-22.81-9.49-15.75-22.1-29.59-37.01-51.42-4.72-5.74,8.5-18.94-.42-27.82-5.59-14.51-9.37-23.85-23.2-32.01-37.88-43.66-78.47-76.36-160.76-88.25-250.49-6.58-49.62-20.86-98.07-22.11-148.54-.33-13.39-3.32-26.2-21.93-23.34-12.85-18.26,2.04-33.84,9.83-45.25,7.29-10.68,26.11-9.93,33.76,7.08,4.47,9.95,5.98,21.22,9.39,34.01,13.54-6.05,17.59-17.55,19.38-30.25,1.1-7.76,1.74-15.39,12.12-15.19,10.27.2,15.28,6.59,15.61,16.05.52,14.87.68,29.79-.07,44.64-.55,10.92-6.63,18-18.38,14.74-9.78-2.72-15.71-.48-20.64,8.34-7.85,14.05-5.98,74.94,3.93,87.09,9.24,11.34,20.12,6.39,30.3,1.26,21.87-11.03,29.91-1.66,33.43,19.9,5.04,30.89,21.02,59.13,18.75,92.33-1.06,15.46,15.05,21.9,30.59,21.99,17.69.1,35.38.07,53.06.08q42.67.02,42.74,41.49c.03,10.21-.16,20.54,1.28,30.59.85,5.95,2.65,14.12,11.03,13.84,8.4-.29,10.43-8.17,9.57-14.42-3.6-26.43,7.83-53.1-11.76-80.02-13.25-18.2-6.08-46.9-2.2-70.68,1.61-9.84,12.16-9.97,20.72-10.13,13.95-.27,28,.37,41.82-1.08,10.98-1.15,18.7-7.11,18.9-20.07.17-10.64-3.13-20.15-13.73-21.09-27.35-2.42-25.99-20.98-25.49-40.27.46-17.67.54-35.37-.01-53.04-.68-21.83-3.27-43.38,28.09-47,10.89-1.26,15.31-12.88,16.6-23.57,1.76-14.63,11.24-17.55,23.78-17.38,11.85.16,19.52,4.42,21.14,17.17,2.01,15.81,11.13,25.31,27.04,27.33,10.91,1.39,16.16,7.08,17.83,17.88,4.04,26.09,23.48,27.2,44.25,27.17,20.64-.03,40.59-.64,44.57-26.74,2.48-16.26,12.89-18.25,26.1-18.18,38.17.18,76.34-.24,114.51.16,19.92.21,35.32-5.19,38.44-27.42,2.33-16.59,13.82-17.44,26.66-17.42,51.2.09,102.41.15,153.61-.02,35.72-.12,38.82-3.44,38.09-39.08-.18-8.79.63-17.13,10.29-20.7,9.72-3.6,14.42,3.32,21.05,8.97,9.78,8.34,6.13,27.97,24.49,28.28,19.29,39.31,15.64,82.81,21.55,124.38,11.82,83.18,18.3,167.02,17.03,251.17-.47,31.34-3.78,62.64-5.79,93.96Z"/>
    <path class="cls-6" d="m856.69,112.87c-11.46-12.35-39.02-18.52-16.84-43.79,92.07-20.5,185.62-20.05,278.98-17.25,102.83,3.09,203.65,20.91,302.35,50.22,1.69,2,5.58,1.73,5.59,5.45,4.67,8.52,11.2,14.6,20.9,17.17,6.91,1.83,12.64,6.2,10.18,13.95-7.1,22.34,7.86,28.64,23.94,32.43,61.27,14.44,106.42,58.23,159.6,87.3,58.74,32.11,107.92,78.09,159.51,120.35,11.69,9.57,19.71,22.06,29.15,33.51,40.92,49.58,82.18,98.89,123.93,147.76,25.66,30.03,12.53,69.25-20.88,87.11-8.16,4.37-18.24,5.51-20.12,16.72-4.42,26.3-23.27,31.65-45.37,29.95-24.03-1.86-41.78,3.73-49.68,29.33-4.33,14.03-18.66,14.36-30.27,15.14-18.54,1.25-37.25,1.1-55.83.3-22.55-.97-41.72-.67-48.25,28.41-3.91,17.4-23.07,16.31-37.61,16.19-23.85-.19-46.72-2.8-52.47,30.45-2.28,13.22-18.85,14.04-30.6,14.15-64.23.57-128.48.64-192.71.06-14.81-.13-28.12-3.25-35.9-20.39-8.08-17.8-38.23-18.8-51.66-2.96-21.28,25.11-48.19,30.9-79.69,28.53-26.69-2.01-51.86-17.9-79.96-7.88-7.84,2.8-8.99-4.72-7.28-10.46,2.38-7.97,5.54-15.75,8.92-23.36,15.12-34-12.06-64.87-7.41-98.44.95-6.89-6.73-7.03-9.03,1.29-14.31.06-14.49-12.34-16.54-20.96-5-21-15.25-38.75-29.02-54.87-3.3-13.11,5.72-21.64,13.6-28.3,15.49-13.1,15.5-25.54,3.17-39.95,11.92-14.25,26.54-9.82,41.04-5.92,47.89,12.87,95.68,6.66,143.48-.65,9.5-1.45,13.85-8.78,18.48-15.67,8.3-12.33,19.99-19.27,34.3-21.89,24.54-4.5,48.57-7.77,66.04-30.22,9.46-12.15,27.58-8.87,42.36-9.3,15.83-.47,27.1-5.73,36.91-19.95,28.36-41.13,60.99-77.37,117.74-74.74,5.52.26,11.12-.89,16.63-1.79,29.02-4.76,30.09-6.7,18.07-34.46-2.62-6.05-6.65-12.92-4.45-18.63,12.1-31.34-11.26-43.83-30.63-56.87-86.22-58.04-178.47-104.91-280.36-126.61-128.3-27.33-257.71-49.67-389.38-18.69-17.11,4.03-35.86,13.45-52.96-1.76Z"/>
    <path class="cls-5" d="m2092,593.45c-33.66-29.34-56.65-67.82-85.25-101.46-70.01-82.37-145.05-158.64-232.62-222.34-14.06-10.23-26.7-22.42-40-33.7-14.18-10.43-27.85-21.67-44.57-28.08-3.73-1.87-7.47-3.74-11.2-5.6-24.84-21.17-52.74-37.4-82.49-50.47-7.66-3.37-15.32-6.68-22.71-10.59-7.45-3.94-16.19-8.2-13.76-18.35,2.75-11.49,14.09-13.44,22.58-10.91,40.29,12.01,86.62,2.42,121.49,33.76,5.97,5.36,13.43,5.46,21.07,4.84,71.48-5.75,143.09-1.64,214.63-2.57,21.67-.28,42.32-1.8,61.54-13.72,17.47-10.83,34.81-6.5,52.98,1.79,47.92,21.88,98.32,10.63,147.95,8.38,1.73-.08,3.81-1.07,4.98-2.35,29.6-32.21,59.46-16.16,87.64,1.1,24.87,15.23,55.07,23.3,71.16,51.46,5.81,10.17,20.13-.29,28.17,7.73-11.84,43.51-47.64,68.41-82.43,85.98-62.16,31.39-110.49,74.66-151.66,129.56-31.42,41.89-45.59,89.2-56.1,138.81-2.65,12.51-3.48,25.77-11.42,36.71Z"/>
    <path class="cls-19" d="m2393.61,202.39c-8.13,0-13.29,6.04-19.75,9.49-4.49,2.4-12.16,6.99-13.28-1.72-4.08-31.73-34.59-34.39-53.39-49.52-11.32-9.1-25.53-15.08-39.18-20.68-17-6.97-34.98-20.24-48.39,7.66-4.64,9.65-18.88,10.19-30.46,10.11-33.49-.23-66.98-.43-100.46.09-15.56.24-29.18-2.98-41.15-13.56-14.63-12.95-30.47-13.25-45.08-.28-12.84,11.4-27.44,13.95-43.86,13.85-64.18-.39-128.37-.22-192.56-.11-13.87.02-27.75-1.04-41.41,3.81-8.91,3.16-21.45,4.36-25.76-4.31-12.01-24.2-34.72-21.02-54.82-24.84-25.97-4.94-52.04-9.32-82.78-14.78,10.75,19.95,27.01,22.03,40.15,28.41,29.07,14.12,58,28.32,76.93,56.26-59.86-33.81-123.41-59.7-186.47-86.61-20.84-8.89-43.95-1.13-65.13-8.17-1.86-1.82-3.72-3.64-5.59-5.45,23.36,2.75,43.32-4.11,61.62-19.04,35-28.56,79.04-35.73,120.81-46.32,105.17-26.68,212.59-43.76,320.84-33.82,82.42,7.56,164.55,21.25,246.06,38.85,66.19,14.29,125.7,41.68,183.24,73.74,30.53,17.01,48.71,47.82,39.87,86.94Z"/>
    <path class="cls-17" d="m2359.69,1202.39c-7.93-1.79-15.85-3.58-26.37-5.95,11.59-8.96,18.36-19.25,15.67-33.21,7.05,12.1,10.58,25.17,10.7,39.16Z"/>
    <path class="cls-12" d="m856.69,112.87c39.25,0,76.39-13.33,115.02-18.2,63.34-7.98,125.55-2.35,188.25,4.41,34.96,3.77,69.32,11.11,104.25,15.29,38.07,4.56,76.1,16.63,111.9,31.02,44.31,17.82,89.85,33.47,131.15,58.39,31.93,19.26,61.36,43.1,93.57,60.69,26.67,14.56,29.72,25.38,16.91,49.74-5.71,10.86,6.2,19.77,13.27,28.5,14,17.29,9.89,28.52-11.67,32.72-13.58,2.65-27.6,3.07-41.12,5.94-28.08,5.95-59.02-.09-77.2,36.21-7.02,14.02-27.99,24.39-36.12,44.16-7.01,17.06-25.96,14.96-41.91,14.36-20.86-.78-41.65-2.38-48.99,24.74-2.21,8.15-11.39,7.74-18.89,8.9-28.15,4.34-58.51-.11-73.19,37.27-6.26,15.93-34.04,8.51-51.73,11.73-29.92,5.45-60.92-.65-91.63,3.64-14.38,2.01-25.13-18.68-43.09-13.87-5.32,1.42-11.09.96-15.2,5.54-2.18,11.73-11.85,16.4-20.96,20.53-77.71,35.22-148.18,84.91-229.05,113.89-41.3,14.8-82.72,27.48-127.31,25.62-18.48-.77-35.62-4.96-46.18-21.13-12.73-19.49-22.39-14.83-32.2,1.9-3.74,6.37-6.6,13.35-12.32,18.45-32.04,13.7-64.24.37-96.14-.7-64.02-2.15-112.49-31.53-141.62-91.08-22.8-46.62-9.82-91.37,5.31-135.04,18.84-54.38,49.67-102.78,83.56-149.37,39.64-54.5,91.65-94.24,147.9-129.38,56.83-35.5,119.44-58.72,181.08-83.81,12.89-5.25,26.64-15.38,42.13-5.45,6.94-3.76,14.21-6.18,22.24-5.62Z"/>
    <path class="cls-10" d="m1377.91,1816.59c-69.91-71.65-144.65-137.43-230.39-189.88-29.94-4.33-50.98-25.78-75.26-40.4-95.93-57.75-197.73-101.52-304.99-133.02-17.64-5.18-36.71-7.15-50.23-21.84-89.23-22.05-180.58-31.12-271.25-44.44-123.9-18.21-242.19-53.7-350.07-118.89-17.3-10.45-31.97-25.25-47.85-38.04,1.52-19.5,18.63-15.48,29.3-17.05,40.54-5.97,80.77-13.63,121.16-20.33,127.72-21.21,252.06-58.93,380.34-77.32,78.41-11.24,157.19-19.9,236.21-10.85,58.83,6.74,114.47,25.57,162.61,61.77,21.66,16.28,43.79,31.43,69.09,41.5,91.42,19.59,183.29,37.64,268.44,78.63,9.8,1.27,18.55,3.62,17.07,16.53,22.3,14.61,31.5,35.1,27.66,61.46,9.07,9.44,6.12,20.79,4.53,31.61-16.2,110.08-2.02,215.73,44.49,317.13,15.02,32.75,28.52,66.2,45.73,97.97-3.57,25.36-12.54,32.15-36.01,28.42-16.54-2.63-27.66-14.24-40.59-22.93Z"/>
    <path class="cls-18" d="m1.76,1146.58c-.01-6.51.81-13.15-.16-19.52-10.19-67.14,30.11-110.66,71.74-153.42,18.52-19.02,37.86-41.75,58.94-52.62,37.52-19.34,71.6-45.46,111.48-60.02,22.44-8.19,31-21.32,20.62-44.1,7.6,3.81,15.14,5.41,24.07,4.32,65.11-7.99,127.61,1.81,185.05,33.77,35.48,19.74,67.5,43.44,77.34,88.03,3.92,17.75,23.19,30.37,24.83,51.04.2,2.5,7.97,7.05,11.13,6.26,50.36-12.63,89.88,25.31,136.56,28.7,18.39,1.34,16.69,10.25,10.59,22.23-21.38,17.1-47.78,13.32-71.98,15.16-66.04,5.03-130.72,17.67-195.4,30.52-128.44,25.52-255.33,59.06-385.82,73.96-13.89,1.59-27.73,2.49-41.71,2.38-18.93-.14-32.04-7.74-37.25-26.7Z"/>
    <path class="cls-14" d="m610.71,710.73c-.14-10.65,3.73-20.01,9.67-28.54,17.64-25.31,26.08-24.84,40.71,2.36,8.45,15.71,21.97,20.17,39.03,21.05,64.59,3.33,122.22-21.23,178.25-47.3,68.61-31.92,134.71-69.25,201.9-104.24,8.55,2.1,20.65-4.42,25.3,5.92,5.38,11.94-7.35,17.49-13.77,24.66-9.21,10.28-19.2,19.85-28.86,29.73-30.99,33.65-5.97,67.25.16,100.82,16.66,91.26-50.57,168.04-140.66,160.44-37.37-3.16-66.55-21.38-90.76-49.12-12.96-14.84-19.76-33.47-31.4-49.06-24.13.23-47.88,4.93-71.92,6.71-44.34,3.27-79.78-12.05-111.63-40.29-16.13-8.48-15.19-20.06-6.01-33.13Z"/>
    <path class="cls-16" d="m1.76,1146.58c8.76,14.37,21.69,17.51,37.93,17.07,62.25-1.69,123.18-14.13,183.7-25.86,132.44-25.67,263.35-59.34,397.04-78.58,37.44-5.39,75.65-5.44,113.5-7.94,82.61-2.79,162.07,8.6,235.11,50.65,29.55,17.01,51.8,41.57,72.08,67.94,8.14,10.59,16.41,23.5,5.45,37.93-16.2,10.79-28.43,1.03-39.91-8.53-51.69-43.04-110.04-71.84-176.57-83.11-56.26-9.53-112.66-5.09-169.02-.67-160.66,12.6-314.02,63.92-472.33,88.95-42.04,6.65-84.09,13.21-126.16,19.63-5.53.84-11.24.52-14.74,6.01-19.33-25.64-40.75-50.12-46.09-83.49Z"/>
    <path class="cls-7" d="m1448.96,1811.74c-49.62-76.92-81.73-160.41-95.05-251.11-9.66-65.8-7.74-131.16,5.84-196.22,9.35-9.84,4.25-22.15,5.68-33.34,8.93-4.15,6.77-22.83,20.44-18.48,10.44,3.32,6.53,16,7.82,24.86,9.21,63.04,14.86,126.85,28.42,188.94,20.17,92.33,47.91,182.58,110.77,257.06,49.78,57.08,93.36,120.4,161.23,159.27,7.02,4.02,14.18,9.4,13.76,19.39-.73,1.66-1.43,3.59-2.88,4.49-21.29,13.22-35.3,29.07-22.44,56.15,1.84,3.87-.28,8.88-3.2,12.68-12.44,5.23-21.58-2.47-30.55-8.59-69.64-47.52-129.04-105.68-179.74-172.98-9.71-12.89-14.33-27.66-20.1-42.13Z"/>
    <path class="cls-6" d="m610.71,710.73c.64,11.29-1.18,23.03,6.01,33.13-22.35,26.55-22.56,23.37-49.69,4.55-24.16-16.76-54.01-26.25-83.7-31.4-26.44-4.59-49.66-14.05-69.9-31.84-18.59-16.34-35.82-34.49-65-32.06-11.58.96-19.62-8.97-23.27-23.32-7.66-30.15-15.12-59.32-.15-89.24,1.53-3.05,2.16-8.32.55-10.9-18.99-30.31,10.29-52.85,12.57-79.67.73-8.61,7.66-12.13,15.97-12.62,8.22-.48,14.8,1.24,16.29,10.94.85,5.5,2.04,12.72,8.76,12.11,8.31-.76,7.21-9.33,8.67-15.47,3.89-16.31,15.56-32.3-2.47-48.37-6.02-5.37-6.31-16.23.41-22.96,6.26-6.27,14.05-3.24,20.27,1.52,10.28,7.87,18.79,5.86,26.56-3.57,3.13-3.8,5.53-8.41,2.99-12.71-3.15-5.34-7.81-2.81-11.85-.1-5.52,3.7-12.23,8.31-16.96.91-5.11-7.99,1.51-14.23,7.49-18.61,11.94-8.74,23.87-17.82,36.9-24.66,14.17-7.44,37.88-6.46,21.56-33.86-3.18-5.34,5.24-13.31,11.32-13.42,23.17-.39,29.34-19.8,39.62-34,9.01-12.46,19.17-15.68,34.32-20.28,26.72-8.11,61.29-6.97,78.18-37.93,1.88-3.46,7.15-6.82,11.09-7.13,42.7-3.4,77.46-28.7,116.64-41.69,6.21-2.06,10.63-6.14,14.57-12.02,18.81-28.08,35.06-27.16,55.97,2.41-97.65,30.55-190.49,71.05-272.45,133.47-52.62,40.07-95.07,88.78-129.06,146-19.44,32.73-35.66,66.55-48.48,101.84-24.25,66.76-14.71,125.65,41.48,175.31,26.44,23.37,58.2,22.57,88.07,28.57,31.44,6.31,64.4,5.02,96.7,7.06Z"/>
    <path class="cls-1" d="m800.27,777.45c15.42-7.66,15.64,4.88,19.85,14.02,38.6,83.82,147.31,103.59,205.58,36,36.9-42.8,42.28-96.12,18.22-143.94-17.96-35.7-5.24-51.07,19.01-69.16,23.22,5.16,25.96,26.27,33.32,43.44,5,11.68,4.33,25.36,11.95,36.28-1.59,33.18,1.36,66.2-4.74,99.65-9.82,53.83-78.7,122.38-140.78,124.5-18.44,3.28-36.89,3.16-55.34.06-55.63-5.94-96.77-33-122.02-83.42-15.88-31.72-13.82-39.99,14.94-57.44Z"/>
    <path class="cls-17" d="m2002.24,1252.57c.68,16.45-7.38,22.35-22.27,22.49-17.33.16-22.72-8.83-22.24-24.61.49-16.13,9.69-20.34,23.87-20.11,15.69.26,21.68,8.4,20.64,22.23Z"/>
    <path class="cls-17" d="m1332.09,1302.94c-5.69-5.51-11.38-11.02-17.07-16.53-2.04-8.45-14.34-18.39-6.54-24.16,11.14-8.25,23.57,4.09,35.55,7.08,10.61,2.64,10.17,11.49,9.91,19.9-.49,15.35-11.92,13.33-21.84,13.72Z"/>
    <path class="cls-19" d="m1689.57,207.88c22.45-2.69,33.69,12.4,44.57,28.08-18.2-4.05-32.67-14.02-44.57-28.08Z"/>
    <path class="cls-6" d="m907.35,918.31c18.45-.02,36.9-.05,55.34-.07-18.44,7.72-36.89,7.63-55.34.07Z"/>
    <path class="cls-4" d="m1448.96,1811.74c39.32,58.89,86.93,110.51,139.1,158.1,27.52,25.11,57.57,46.7,90.27,64.59,11.71-7.38,21.43.08,31.09,4.75,22.14,10.71,45.27,16.4,69.84,14.75,31-2.08,46.87-16.26,53.36-46.6,8.74-40.85-2-81.15-4.53-121.55-2.42-38.68-7.74-77.29-11.79-115.93-1.15-11-2.74-22.39,7.53-30.73,17.21-2.04,20.94,12.72,28.03,22.87,46.59,66.69,62.62,143.57,72.11,222.15,11.54,95.58,4.83,189.68-13.81,284.76-23.42,119.48-68.58,228.55-135.25,328.7-26.99,40.55-55.76,81.22-93.83,113.46-10.69,9.05-18.91,15.65-19.63-5.89,36.75-102.96,46.46-207.76,31.02-316.64-11.57-81.59-35.84-158.63-70.68-231.74-38.2-80.15-86.03-155.12-142.52-224.51-32.46-39.87-68.61-76.27-101.38-115.72,16.46-1.98,27.56,11.51,42.64,14.62,18.07,3.73,28.67,1.29,28.43-19.48Z"/>
    <path class="cls-15" d="m1823.83,1739.14c6.3,68.2,11.35,136.56,19.5,204.54,3.39,28.31,2.48,55.63-3.8,82.79-5.73,24.77-39.87,40.81-72.86,38.98-32.82-1.82-60.24-16.9-88.34-31.01-6.79-16.52-1.92-37.19-21.17-51.41,22.44,2.03,30-21.55,49.12-20.84,10.38-8.35,19.2.19,28.49,2.75,23.17,6.4,35.33-.97,39.69-24.76,2.13-11.65.02-24.45,9.84-33.84,2.72-38.1-6.29-75.47-6.02-113.65.75-105.73,13.75-210.14,28.58-314.48.79-5.56.41-12.22,6.51-14.19,6.94-2.25,8.69,4.83,11.83,9.12,4.91,6.7,10.1,13.2,15.17,19.79,8.09,40.69-.62,81.35-1.38,121.95-.66,35-9.88,69.78-5.27,105.28.61,4.67-2.05,8.97-4.55,12.96-1.78,2.01-3.56,4.03-5.35,6.04Z"/>
    <path class="cls-11" d="m1829.18,1733.1c-.08-80.24,5.19-160.23,11.2-240.18,1.88,1.84,3.75,3.67,5.63,5.5,9.42,57.36-4,113.73-8.09,170.46-1,13.82-5.09,27.41-.42,40.99,3.6,10.47,1.78,18.1-8.32,23.23Z"/>
    <path class="cls-8" d="m1784.31,1906.33c.04,9.28.3,18.56.09,27.83-.92,41.84-26.46,55.71-63.09,34.52-4.69-2.72-10.01-4.36-15.03-6.5-53.24-35.81-104.04-74.57-141.32-127.73-11.47-16.35-26.07-31.09-32.07-51.01,12.14,6.72,26.61,22.84,28.74-7.97.69-9.94,8.1-13.77,17.59-14.2,11.55-.52,22.74,4.29,23.93,14.82,2.62,23.15,19.08,23.27,35.43,26.9,22.18,4.92,44.4,2.02,66.58,2.41,9.35.17,16.19-4.47,17.11-14.61.89-9.72-3.58-16.47-13.4-17.95-17.93-2.69-25.71-12.91-24.91-30.66.77-17,10.09-24.95,26.45-26.1,13.62-.95,11.86-11.51,12.87-20.6,1.97-17.85,13.5-36.74-1.34-52.94-6.7-7.31-17.51-6.78-20.8,6.7-1.31,5.38-1.42,11.18-3.49,16.2-2.71,6.57-4.94,15.46-14.41,14.47-9.64-1-10.16-9.58-10.32-17.07-.31-13.92-.18-27.86-.18-41.79.01-40.03,5.18-44.88,45.15-38.18,13.53,2.27,26.72,7.39,39.62,12.34,10.78,4.13,12.47,14.78,9.28,23.54-14.99,41.14,1.4,84.39-9.93,125.89-12.8,46.91,2.22,93.4,5.11,140.1.94,15.19,7.33,22.21,22.35,21.56Z"/>
    <path class="cls-9" d="m717.03,1431.45c112.97,24.37,217.9,69.68,319.32,123.66,38.95,20.73,77.01,43.24,111.17,71.61-35.94,1.71-49.23,35.15-65.62,56.22-30.41,39.07-69.69,71.28-92.67,116.31-14.9,29.18-26.64,58.58-26.81,92.2-.07,14.48-3.56,29.65-8.77,43.26-11.29,29.5-35.26,34.16-60.44,16.71-41.88-29.01-75.39-65.71-102.06-108.25-18.97-30.26-32.54-63.6-40.48-98.81,22.61-7.95,38.66,2.6,42.53,22.93,11.38,59.81,50.13,99.65,93.41,136.97,4.31,3.71,6.98,8.64,11.01,13.28.33-15.71,4.27-28.81,23.41-25.32,17.99,3.29,22.21-6.64,20.44-20.44-3.92-30.62,7.43-55.99,22.88-81.25,15.73-25.72,13.42-30.93-12.87-46.94-6.43-3.92-13.71-7.6-13.06-16.36.76-10.14,9.44-12.84,17.48-15.48,3.54-1.16,7.35-1,11-1.53,12.36-1.82,27.31,10.97,36.42-1.72,6.71-9.35.73-23.51.82-35.53.34-42.19,6.98-48.04,53.84-46.13,1.13-5.17-1.73-11.57-4.93-11.74-30.63-1.57-54.97-29.49-90.26-16.51-29.55,10.87-62.69,2.69-94.2,3.99-17.17.71-34.77-2.08-51.86,3.73,2.63,13.08,11.59,10.51,18.08,11.23,11.05,1.23,22.36.03,33.25,3,17.02,4.64,27.98,15.26,28.45,33.38.51,19.57-10.91,30.87-29.14,35.56-13.66,3.51-27.88,3.67-41.62,2.19-30.91-3.32-57.81,1.38-75.26,30.44-18.14-15.56-18.92-39.35-21.01-58.94-8.2-76.9-14.71-154.13-12.46-231.69Z"/>
    <path class="cls-3" d="m750.5,1722.08c2.09-37.43,25.14-43.42,56.83-39.6,17.42,2.1,35.32.78,52.97.09,17.11-.67,28.9-9.47,29.14-27.26.24-17.78-11.24-26.85-28.38-27.99-12.04-.8-24.18-.31-36.27-.35-12.03-.04-23.5-1.76-23.04-17.3.46-15.61,12.55-16.14,24.19-16.16,37.21-.04,74.44-.73,111.63.23,20.93.54,39.29-1.06,47.43-35.85,7.6,37.85,28.63,42.04,51.72,40.93,15.68-.75,27.19,2.27,31.24,19.61,1.82,7.8,10.16,15.4,3.6,23.28-8.54,10.26-14.6-2.08-21.26-4.74-25.69-10.27-36.71-3.68-36.9,24.17-.1,14.77-1.35,29.54,2.49,44.35,4.83,18.61-3.75,23.34-21.33,18.84-16.58-4.24-33.79-12.9-50.18,1.39-1.18,5.8,3.14,8.12,7.37,9.79,38.62,15.26,43.93,26.12,21.13,59.69-16.99,25.02-27.54,49.45-21.37,79.89,2.09,10.31-1.19,20.57-7.68,28.94-9.96,12.84-15.56-1.48-22.81-4.46-5.74-2.36-10.58-3.47-14.3,2.82-2.93,4.96-4.92,9.77-.93,15.42,4.43,6.28,16.6,6.18,13.92,22.84-29.76-23.18-62.15-39.99-82.2-69.71-21.13-31.3-53.1-57.48-52.01-101.12.56-22.33-22.27-18.14-34.85-25.49-.05-7.42-.11-14.84-.17-22.26Z"/>
    <path class="cls-15" d="m1653.14,1957.45c1.77,7.3-1.69,15.86-8.22,13.05-14.67-6.31-31.25-13.73-36.53-30.16-2.93-9.11,5.16-17.04,16.57-17.02,22.94.03,24.69,17.79,28.18,34.12Z"/>
  </g>
</svg>