<?xml version="1.0" encoding="UTF-8"?>
<svg id="Layer_2" data-name="Layer 2" xmlns="http://www.w3.org/2000/svg" viewBox="0 0 2391.23 3669.57">
  <defs>
    <style>
      .cls-1 {
        fill: #01a1d8;
      }

      .cls-2 {
        fill: #082437;
      }

      .cls-3 {
        fill: #2dbeea;
      }

      .cls-4 {
        fill: #01b1de;
      }

      .cls-5 {
        fill: #0288c6;
      }

      .cls-6 {
        fill: #019acf;
      }

      .cls-7 {
        fill: #01afe2;
      }

      .cls-8 {
        fill: #01b9e3;
      }

      .cls-9 {
        fill: #0159a4;
      }

      .cls-10 {
        fill: #31c6eb;
      }

      .cls-11 {
        fill: #0195d3;
      }

      .cls-12 {
        fill: #0058a2;
      }

      .cls-13 {
        fill: #12a2df;
      }

      .cls-14 {
        fill: #0289cc;
      }

      .cls-15 {
        fill: #1cb0e6;
      }

      .cls-16 {
        fill: #01addf;
      }

      .cls-17 {
        fill: #196a72;
      }

      .cls-18 {
        fill: #8b5779;
      }

      .cls-19 {
        fill: #37284f;
      }

      .cls-20 {
        fill: #018fd2;
      }

      .cls-21 {
        fill: #0474b8;
      }

      .cls-22 {
        fill: #0471b9;
      }

      .cls-23 {
        fill: #05cdef;
      }

      .cls-24 {
        fill: #1b8a8c;
      }

      .cls-25 {
        fill: #2fbeea;
      }

      .cls-26 {
        fill: #0198d5;
      }

      .cls-27 {
        fill: #2c6f7f;
      }

      .cls-28 {
        fill: #33caee;
      }
    </style>
  </defs>
  <g id="Layer_1-2" data-name="Layer 1">
    <path class="cls-8" d="m1241.09,89.35c11.47.24,23,.94,33.92-3.78,9.33-10.31,21.87-8.57,33.73-8.63,46.27-.24,92.53-.08,138.76-.12,86.21,8.29,170.41,26.04,250.69,58.89,17.03,6.97,36.6,13.13,48.09,30.31-11.8,35.06-41.46,22.3-71.43,23.9,25.63,18.53,35.75,38.51,20.51,64.77-12.01,20.69-12.54,48.04-33.23,63.37-16.13,11.95-21.99,26.43-20.94,45.45,1.92,34.81-9.92,68.01-12.45,102.35-1.64,22.2-19.78,30.25-37.2,31.47-34.28,2.39-46.23,22.67-55.2,52.05-10.3,33.73-27.16,64.92-56.27,87.42-11.59,8.96-9.8,20.71-6.73,33.05,3.29,13.28,9.13,27.41-6.17,37.85-22.6.08-26.75-21.79-39.68-33.23-7.9-20.81-21-21.99-37.69-10.02-5.86,4.21-11.98,8.08-16.79,13.61-68.11,54-67.78,140.01.83,189.83,6.88,9.81,30.53,7.17,24,25.01-5.56,15.2-23.88,11.07-37.39,11.35-43.72.89-52.71-4.78-60.07-36.11-3.09,44.47-11.38,53.53-56.37,52.58-29.64-.62-54.36,6.99-74.36,29.02-4.87,10.23-15.08,12.92-24.05,17.52-47.75,24.49-90.93,53.46-106.89,109.19-2.32,8.09-6.78,15.21-14.82,19.25-15.45,3.57-12.69,16.67-13.34,27.1-2.08,33.08-4.58,65.62-37.52,85.05-3.21,1.89-5.89,5.35-5.77,9.14,1.01,31.82-27.34,44.84-42.99,65.57-13.85,18.35-39.06,15.09-51.82-4.45-6.12-9.37-11.38-17.91-21.95-23.93-23.34-13.31-26.7-31.77-9.47-53.02,11.42-14.08,17.07-28.5,13.69-46.16-.87-4.55-2.88-9.44-8.55-9.51-5.88-.07-7.02,4.94-8.03,9.54-.4,1.82-.55,3.68-.9,5.51-8.15,42.18-31.42,55.89-73.27,43.75-17.22-5-23.61-17.57-23.77-33.61-.2-20.4-4.34-38.56-20.66-52.51-4.2-3.59-8.77-9.37-8.05-14.27,4.97-33.79-14.68-56.37-32.28-81.55-9.66-13.82-18.02-22.19-34.6-22.41-17.68-.24-35.36-.16-53.04-.39-20.26-.26-34.67-7.42-36.26-29.76-1.18-16.54-9.67-23.71-25.89-27.13-29.75-6.27-46.71-32.54-68.57-50.31-15.25-12.4-28.64-20.77-48.23-22.57-23.55-2.16-34.53-15.99-35.5-38.89-1.1-25.98,9.22-36.72,38.64-39.95,13.71-1.5,29.54.34,35.36-16.33,4.41-12.63,5.24-27-6.73-35.96-13.25-9.91-28.17-8.66-41,2.31-9.85,8.43-17.92,19.09-30.57,23.85-10.9,4.1-22.72,6.36-31.44-2.77-9.99-10.45-3.25-21.11,4.29-29.73,11.84-13.53,14.07-29.91,16.03-46.63,1.18-10.08-.51-21.62,6.78-29.43,18.48-19.79,10.38-34.53-7.28-48.35-3.48-13.36,4.96-21.64,12.76-30.2,72.88-88.29,155.17-166.6,246.4-235.99,97.58-74.22,202.85-134.4,316.02-181.13,5.14-2.12,10.29-4.37,15.63-12.94-22.5-12.88-40.67-32.96-68.29-37.18-16.04-2.45-30.76-7.13-42.72-18.64-18.33-13.03-39.34-14.83-60.85-15.26-62.03-1.23-123.09-11.43-184.27-20.34-2.96-24.09,14.65-50.25,35.7-51.48,10.29-.6,20.15-2.58,30.12-4.72,52.42-.42,102.82,12.16,153.04,24.83,44.83,11.32,90.07,21.83,131.11,44.69,17.81,9.92,35.62,19.03,49.92,34.57,15.11,16.41,34.9,19.5,56.34,12.66,46.96-14.99,95.4-23.48,143.85-31.76,15.22-2.6,31.13-7.81,45.11,4.35Z"/>
    <path class="cls-16" d="m363.14,605.05c4.93,10.59,21.17-11.18,20.71,5.58-.4,14.75,19.51,31.87-2.88,44.67-19.41,11.1-5.49,30.1-10.67,45.04-5.13,14.81-4.52,30.99-20.5,40.06-5.03,2.85-8.95,7.51-7.02,13.75,2.58,8.36,10.24,7.32,16.41,6.45,13.56-1.92,23.53-9.42,31.68-20.66,13.07-18.04,41.69-24.76,58.6-13.26,21.11,14.35,17.04,36.27,11.16,55.61-6.19,20.36-25.69,17.77-42.49,17.98-30.09.38-35.72,7.24-32.43,36.74,2.32,20.83,15.6,25.41,33.41,24.69,18.91-.77,29.93,8.05,45.44,20.56,24.22,19.54,40.77,55.81,81.62,53.02,17.35-1.19,19.09,15.95,17.96,28.98-1.9,21.87,8,27.63,27.91,26.21,18.53-1.32,37.24.15,55.85-.38,22.72-.65,38.41,6.59,39.68,32.08.47,9.39,4.35,17.58,14.3,17.5,28.64-.24,23.53,17.5,17.92,33.72-7.16,20.73-3.09,36.15,15.95,47.61,18.24,10.97,14.19,29.55,12.75,45.46-2.94,32.43,17.58,30.76,39.3,30.67,21.36-.09,43.27,2.39,39.47-30.12-.64-5.51-.03-11.16.02-16.74.1-11.93,4.94-19.43,17.93-20.13,11.59-.63,18.25,6.01,19.44,15.91,2.64,22.04,6.16,45.33-16.81,60.09-11.02,7.08-10.05,16.91-8.68,27.07,1.36,10.1,8.73,13.71,18,13.88,13.85.25,20.17,7.33,20.48,20.9.28,12.71,7.69,18.05,19.85,18.25,10.78.18,21.01-.64,24.38-13.41,3.36-12.73,10.79-21.31,23.44-25.41,2.55-.83,6.82-2.7,6.83-4.12.33-49.81,67.54-74.52,49.17-132.18-3.31-10.39,1.68-26.86,21.49-20.23,11.46,9.6,10.89,23.17,10.58,35.87-1.14,45.47,5.6,90.27,9.3,135.38,4.6,56,1.28,112.15-11.47,167.27-8.86,3.67-15.02,10.31-22.18,16.66-37.18,32.97-41.96,80.32-61.41,121.34-52.5,110.69-108.81,220.52-197.81,307.73-32.86,32.2-68.95,62.26-109.23,85.59-36,20.84-58.7,7.92-62.32-33.82-3.61-41.62-4.74-83.35-6.11-125.11-1.26-38.45-1.91-77.91-19.64-113.91-11.23-61.43-16.88-124-37.39-184.09-10.14,17.62-7.9,36.36-6.31,55.12,2.41,28.41,11.2,56.34,6.69,85.31-10.06,21.98-21.1,45.38-36.35,62.04-16.22,17.73-28.21,32.13-30.25,57.15-1.15,14.08-16.47,24.74-33.03,25.59-17.43.89-30.3-7.48-38.23-23.09-4.24-8.34-6.8-17.3-9.55-26.19-1.93-6.21-2.41-15.58-7.3-17.63-27.99-11.72-36.16-44.19-62.26-57.57-15.72-8.06-21.44-22.74-22.41-39.34-1.2-20.46-7.64-29.67-29.59-18.66-22.45,11.26-41.91,6.25-54.37-16.73-6.28-11.58-16.15-14.36-27.92-14.55-14.9-.23-29.69-1.53-44.53-3.05-24.4-2.5-47.9-5.72-59.97-32.69-7.09,11.07-3.69,20.39-3.24,29.42.42,8.45,2.47,19.06-4.06,23.99-25.29,19.11-19.83,46.11-20.86,71.65-.26,6.52-.36,13.14-2.8,19.25-5.39,13.55-12.84,14.9-22.08,3.16-5.23-11.35-5.25-23.42-5.66-35.55-3.56-107.25.85-214.2,23.05-319.29,29.15-137.99,63.93-274.57,128.41-401.43,4.99-9.82,8.49-21.01,20.72-24.85,6.91-10.14,12.81-20.75,15.72-32.81,14.6-45.33,31.03-89.62,68.6-122.04,5.75-4.62,10.03-10.13,10.78-17.79,8.95-25.09,15.56-51.83,44.35-62.97,6.72,3.63,10.36,10.11,15.08,17.04,5.54-11.96,7.68-25.8,17.8-33.52,15-11.44,7.17-19.49-1.72-28.45-1.02-13.83,3.55-22.36,19.26-20.27Z"/>
    <path class="cls-11" d="m436.98,2715.53c-14.48-25.83-37.2-44.49-57.11-65.6-5.74-1.94-9.49-5.66-10.55-11.79-22.49-29.63-44.98-59.25-67.47-88.88-9.63,1.45-10.57-4.65-10.27-11.83,1.53-11.61-9.76-17.4-12.31-27.15,8.47-24.02,10.4-24.59,39.5-11.78-.5-.76-.82-1.89-1.53-2.24-13.32-6.54-32.6-6.54-31.85-28.58.56-16.32,10.53-25.49,25.12-29.52,20.43-5.65,43.36-8.85,55.63,11.67,11.87,19.85,30.43,35.43,37.2,58.36,4.56,15.47,16.59,15.16,29.22,13.92,13.51-1.33,16.15-10.92,16.4-21.79.39-16.9,2.4-33.3,10.69-48.45,5.46-9.98-1.34-17.55-5.32-25.81-14.23-29.51-9.25-47.23,18.93-68.76,12.28,4.55,14.35,16.31,18.12,26.51,41.46,112.33,95.47,217.54,171.82,310.74,33.74,41.18,72.75,76.93,110.28,114.27,14.63,14.56,29.14,23.05,44.51.27,3.49-5.17,10.37-7.69,16.46-10.22,19.74-7.5,39.7-10.8,60.22-3.22,23.36-.83,46.57-2.57,68.68-11.13,2.88-3.56,5.88-4.69,9.17-.47,77.04-1.07,154.15-5.54,230.6,9.81,19.92,4,38.93,13.08,59.91,11.61,2.02-2.04,3.92-1.94,5.72.3,10.86,10.86,24.81,11.64,38.91,11.93,54.03,9.72,103.36,29.61,144.75,66.72,43.5,36.31,90.88,67.87,129.8,109.87,13.81,14.9,23.93,32.43,38.32,46.59l-.03-.02c3.58,14.69,15.47,26.99,12.51,43.56,6.86,22.93-9.09,22.79-23.37,21.67-26.8-2.11-53.5-4.58-80.45-5.44-74.19-2.38-145.82,10.73-216.11,32.72-77.99,24.39-157.61,33.25-239.11,29-22.97-1.2-44.67-14.72-68.32-6.46-2.76.52-5.61.47-8.37-.01-12.43-1.22-16.86-22.74-33.51-13.23-5.19,10.27.82,19.51,2.64,29.03,2.08,10.91,4.17,21.61-4.56,30.82-.63,20.37-1.26,40.75-1.88,61.12-5.81,8.95-1.73,26.12-7.73,28.19-19.35,6.67-13.16,25.28-19.23,36.81-15.64,29.73-36.33,55.89-52.67,84.74-14.86,26.23-33.13,46.81-56.14,66.87-33.88,29.54-57.47,69.27-72.52,112.79-1.86,5.36-3.86,10.9-2.08,16.25,6.95,20.85,9.67,36.09-20.82,41.25-10.42,1.76-15.49,27.73-36.19,15.96-42.84-14.55-62.39-53.49-88.43-85.35-12.61-15.43-22.55-33.04-33.7-49.66-11.13-5.89-15.95-14.68-12.5-27.26-17.71-39.82-31.14-81.15-43.28-122.92-8.87-8.97-8.33-19.06-3.51-29.64,1.87-38.72-2.37-77.56,2.33-116.23,2.53-67.89,19.97-132.33,45.21-194.97-.83-9.74,2.39-17.2,11.86-21.17,16.13-21.32,32.06-42.8,48.45-63.92,20.91-26.96,20.62-37.87-.85-65.95-17.61-23.03-39.01-42.22-61.32-60.13-43.19-34.66-77.41-78.59-119.85-113.93v.14Z"/>
    <path class="cls-1" d="m474.71,2358.98c-17.82,25.04-33.43,50.01-1.86,76.48,2.04,1.71,2.82,8.71,1.21,10.38-20.54,21.31-11.3,49.22-17.65,73.42-5.87,22.37-28.32,10.5-43.54,12.55-11.59,1.56-19.48-2.07-17.35-17.31,1.63-11.71-6.07-21.1-14.88-28.46-5.72-4.78-11.41-9.12-14.78-16.23-12.8-27.08-36.21-34.83-61.38-21.21-9.34,5.05-14.14,12.59-12.31,22.6,1.86,10.18,7.2,16.68,19.73,12.21,8.1-2.89,14.25,2.48,18.84,8.77,5.47,7.49,6.89,16.07.1,22.9-9.14,9.21-16.36.82-19.92-5.99-12.1-23.18-21.64-12.08-31.67,1.19,0,0-.14-.55-.14-.55-27.01-43.19-10.88-83.79,4.58-124.71-20.63,14.59-30.68-.82-39.7-18.83-4.14-8.25-6.28-17.72-13.07-24.39-6.04-5.94-13.75-7.36-19.72-.76-7.06,7.8-2.08,14.36,5.64,17.33,17.22,6.62,26.58,19.82,32.13,36.19,7.75,22.83-.35,30.77-26.26,26.5-2.99-2.47-5.98-4.95-8.97-7.42-8.15-1.76-12.39-8.02-15.75-14.65-19.65-38.8-44.28-75.09-58.7-116.51-18.61-33.48-30.75-69.66-44.12-105.34-2.1-6.36-3.69-12.9-7.02-18.81-6.4-15.09-8.93-31.5-16.13-46.34-1.34-10.22-4.48-19.88-8.82-29.22-24.58-82.68-43.55-166.21-50.7-252.64-3.19-38.53-13.22-76.42-6.94-115.55,1.42-8.86-2.37-18.84,6.05-26.06,9.79,3.72,10.91-1.93,10.84-9.63-.18-17.65.39-35.31-.2-52.94-.47-13.84.47-25.44,16.91-30.28,11.02-3.24,12.04-12.55,9.11-22.81-1.76-6.17-3.46-12.72-3.24-19.03.4-11.32-5.08-26.95,10.94-30.77,16.5-3.93,15.13,11.79,18.25,21.82,3.08,9.89,9.41,15.2,20.48,15.19,25.91-.01,51.22,8.67,77.41,5.58,14.74-1.74,23.99,3.27,29.04,18.88,7.01,21.68,23.63,26.61,42.73,13.02,9.82-6.98,19.07-12.35,30.55-7.85,13.63,5.33,10.74,18.26,10.44,28.96-.61,21.74,14.5,29.86,27.19,44.26,20.83,23.66,54.56,36.48,64.2,70.91,4.23,15.12,3.54,34.52,21.3,43.13,12.02,5.83,23.98,9.08,35.14-3.81,9.45-10.91,19.63-19.99,9.74-36.14-11.05-18.04-9.27-29.12,15.7-23.49,9.41,2.12,14.87-1.73,16.1-10.32,3.53-24.54,21.7-40.34,34.39-59.4,24.07,13.08,18.75,33.84,14.27,54.41-31.97,24.85-42.44,61.9-54.1,97.78-31.41,96.61-35.2,196.71-35.64,297.13-.09,21.35,7.21,41.92,6.85,63.3,3.46,32.8,15.16,64.48,13.52,97.96-5.65,12.56-10.46,25.27-10.45,39.51.02,20.22-4.32,37.91-24.75,48.66-9.46,4.98-15.27,16.08-5.88,25.37,9.52,9.43,20.12,6.63,27.82-4.84,7.07-10.53,15.44-18.67,29.78-13.92,3.74,2.24,6.55,4.91,4.62,9.8Z"/>
    <path class="cls-25" d="m474.71,2358.98c-1.58-1.91-3.16-3.83-4.75-5.74-2.03-1.83-3.87-3.84-5.54-6.02-4.03-12.94-7.05-26.26-14.29-38.02-6.75-16.47-8.75-33.28-3.44-50.56-5.3-33.67-10.61-67.34-15.91-101.01,4.56-6.27,8.27-14.73,6.34-20.88-12.22-38.82,9.1-75.07,7.35-112.91-.17-3.68-.44.9.19-2.77,2.42-13.97,4.77-30.61,21.97-31.08,15.71-.43,18.91,15.31,21.81,28.2,1.22,5.44,1.52,11.05,2.56,16.54,3.45,18.23,11.9,27.14,30.97,16.83,12.09-6.53,24.73-7.54,42.55.78-9.16-7.3-13.07-11.03-12.29-17.39,3.03-3.94,7.32-6.71,11.96-6.12,88.35,11.3,146.31-42.01,203.61-96.04,16.87-15.91,32.93-32.84,47.17-51.36,5.6-7.29,11.72-14.65,21.66-16.64,25.85-2.48,51.23-3.41,74.09,12.93,8.86,6.33,15.55.88,19.88-7.85,4.94-9.99.76-15.73-8.54-19.45-6.02-2.41-12.46-4.1-17.53-8.36-11.53-9.68-10.29-27.75,3.02-27.97,38.15-.61,72.48-17.84,109.71-20.79,5.04,20.58-10.45,32.67-20.61,45.95-73.71,96.35-133.38,200.71-180.79,312.21-5.84,13.74-9.01,28.29-12.52,45,14.8-28.34,25.62-56.31,40.61-82.1,5.43-9.35,11.8-25.22,26.39-7.73,2.17,26.73-18.17,45.12-25.29,68.42-5.44,9.14-7.82,20.55-18.77,25.67-79.01,194.57-90.19,389.06.64,583.45,8.42,4.76,11.98,11.25,7.34,20.66-5.71,4.71-14.94,8.45-16.55,14.29-10.47,37.92-25.97,16.22-40.04,3.86-68.53-60.15-129.94-126.35-179.63-203.46-52.6-81.62-93.94-168.14-123.32-260.54Z"/>
    <path class="cls-20" d="m2268.28,817.32c6.9,5.36,13.94,10.41,23.16,10.79,64.48,7.32,113.25,77.88,96.45,139.5-2.5,9.17-6.75,17.19-14.43,23.09-88.79,66.48-190.22,100.16-299.04,113.98-80.4,10.21-160.89,20.69-241.85,4.47-7.07-1.42-14.93-3.52-19.39,5.66-6.05,12.43-17.87,11.6-29.01,12.2-6.06.48-11.75-.84-17.19-3.4-14.64-13.68-30.81-23.19-52.05-18.78-35.86-6.09-64.91-26.73-95.01-44.94-6.96-4.21-13.81-10.13-10.96-20.38,11.15-10.1,24.17-8.13,36.88-4.86,33.26,8.56,66.35,17.8,100.76,20.73,1.84.16,4.06.18,5.39,1.23,38.09,30.15,65.76.95,94.93-17.09,15.52-9.59,19.46-26.41,22.29-43.21,3.89-23.06,6.66-46.57,32.12-57.91,5.19-2.31,7.52-8.44,8.68-13.81,7.01-32.45,16.13-64.29,29.17-96.25-27.63-5.26-51.75-.96-75.06,9.68-22.06,10.06-44.56,18.84-68.79,21.95-11.61,1.49-25.8,6.6-32.02-7.98-6.3-14.77,4.73-24.83,15.42-32.39,28.91-20.44,60.36-37.03,92.46-51.38,34.94-15.62,67.15-35.76,100.66-53.72,12.29-6.59,23.68-15.86,38.07-6.51,5.14-12.8,2.49-22.57-1.05-32.3-1.59-4.37-3.25-8.75-3.82-13.38-1.37-11.17-3.57-24.36,8.23-29.97,14.76-7.01,14.5,10.99,21.35,17.31,7.61-22.68-8.64-49.16,13.17-68.59,10.98,4.04,10.13,14.02,12.26,22.96,8.75,36.67,6.27,73.93,6.73,111.04.43,34.37,1.73,36.02,35.21,46.7,46.79,14.93,95.59,22.64,141.81,39.72,9.65,3.57,20.05,4.73,24.47,15.85Z"/>
    <path class="cls-6" d="m849.55,90.69c12.37,6.62,25.15,10.17,39.5,11.85,29.15,3.43,49.69,26.07,73.4,40.51,12.39,7.55-2.85,17.33-13.92,21.68-97.09,38.16-187.93,88.27-273.58,147.38-94.83,65.45-181.31,140.69-256.31,228.61-12.21,14.32-25.4,27.81-38.13,41.69-12.17-24.22-4.53-50.69-7.62-76-3.99-32.68-11.05-63.54-24.68-93.19-4.69-10.2-8.16-20.66-6.98-32.13-2.75-9.73-7.29-18.19-16.61-23.22-22.87-16.3-43.11-34.54-47.78-64.39,3.45-12.44,12.81-20.2,22.14-27.98,29.23-24.4,57.41-49.42,82.67-78.51,19.19-22.1,48.09-35.52,77.67-41.32,36.68-7.2,66.45-33.59,105.14-35.23,11.84-.5,16.7-13.52,21.54-23.77,8.94-18.95,24.02-28.76,44.92-25.9,61.44,8.42,123.79,7.19,185.05,18.06,12.3,2.18,23.32,5.21,33.57,11.87Z"/>
    <path class="cls-9" d="m1632.19,1923.7c-.97,15.28-15.79,21.28-22.1,32.98-10.48,11.83-20.81,23.8-33.97,32.86-3.41.45-6.83.9-10.24,1.36-27.89.32-51.75-5.26-61.81-36.34-3.61-11.15-11.5-20.72-23.92-24.57-2.42-1.2-4.58-2.78-6.52-4.65-7.8-12.61-5.71-30.99-22.43-38.44-1.64-2.04-2.93-4.29-3.98-6.68-2.86-19.28-14.97-31.03-31.83-38.89-3.7-1.45-6.93-3.56-9.59-6.52-4.75-6.22-5.03-13.68-5.76-21.02-2.09-20.95-12.03-32.4-34.61-28.48-24.91-1.65-34.78-27.1-55.71-35.06-2.3-1.29-4.37-2.9-6.28-4.71-12.6-16.71-30.29-27.21-47.32-38.45-8.45-5.58-18.62-8.99-22.93-19.44,4.38-21.76,23.92-29.94,38.91-41.2,98-73.62,199.17-142.72,302.37-208.87,9.36-6,19.19-11.36,26.76-19.86,10.73-7.52,21.65-12.71,33.76-2.68,16.08,63.47,45.43,124.18,40.33,192.09-3.72,42.69-.67,85.5-1.61,128.25-.23,10.23.65,20.53-.7,30.68-1.81,13.49-6.8,27.67-21.6,28.58-14.03.86-13.22-14.74-17.73-24.57-14.77-32.24-26.62-64.7-23.25-101.18,1.09-11.78-7.16-13.51-16.94-10.12-21.28,7.4-43.38,10.37-65.72,12.05-8.7.65-17.06,3.38-21.74,10.89-12.78,20.55-32.49,22.25-53.72,21.9-33.02-.55-66.59,3.69-98.03-14.31,22.8,24.1,36.48,54.66,69.36,67.4,21.13,8.19,32.24,28.26,33.69,51.05,1.1,17.33,7.65,30.11,21.66,39.82,17.59,12.2,27.12,30.45,35.03,49.45,7.1,17.07,18.39,29.71,34.44,38.77,9.56,5.4,18.82,15.73,29.75,5.84,9.6-8.69,23.63-16.1,18.2-34.07-2.6-8.61-1.21-18.36-7.03-28.99-11.69,11.1-5.5,21-1.63,30.34,4.43,10.69,3.96,20.17-5.82,27.36-9.26,6.81-19.23,5.64-29.01.75-24.07-12.04-52.33-66.18-48.45-92.89,1.5-10.35,8.5-17.31,16.93-10.18,16.76,14.16,34.57,9.4,52.95,8.19,46.75-3.06,74.75,36.78,57.82,81.57Z"/>
    <path class="cls-4" d="m235.67,267.1c-25.91-21.64-52.42-42.61-77.42-65.26-9.74-8.83-22.15-16.97-24.12-32.18,14.37-4,26.5-10.24,36.43-22.73,27.89-35.1,68.43-49.81,109.1-63.72,81.59-27.9,166.43-38.13,251.72-44.85,20.71-1.63,42.88-1.21,61.03,13.19,76.89,7.42,153.77,15.05,230.7,22.07,12.48,1.14,20.79,6.49,26.43,17.08-42.86-7.06-85.54-18.01-128.63-19.94-33.72-1.51-67.84-.09-101.84-1.61-13.23-.59-23.29,8.43-25.38,21.78-4.04,25.79-21.17,33.3-43.76,33.09-15.58-.15-29.44,2.79-41,13.84-9.91,9.48-22.67,13.47-35.59,13.93-31.52,1.13-53.57,23.62-80.69,34.58-15.73,6.36-17.93,27.09-32.03,39.42-27.65,24.18-59.36,44.19-83.15,72.8-12.71-.12-21.86-5.31-25.64-18.08-3.73-6.48-8.41-11.81-16.18-13.41Z"/>
    <path class="cls-12" d="m1632.19,1923.7c5.94-26.58-8.32-46.13-23.26-65.11-12.2-15.5-29.78-9.01-43.87-6.2-21.13,4.22-39.94,8.72-53.17-16.22,11.64,31.8,7.3,68.26,39.89,90.27,10.89,7.35,19.91,11.22,29.56,3.21,9.9-8.21-.61-14.49-5.14-20.76-7.92-10.97-7.57-22.87-2.55-34.35,2.98-6.82,8.99-12.45,17.52-11.51,8.97.99,12.41,7.79,12.52,15.87.2,13.97,5.72,28.61,3.94,41.05-2.49,17.29-21.93,25.97-34.63,37.28-11.5,10.24-15.66-8.25-23.32-10.7-33.15-10.6-37.27-42.82-54.55-65.46-22.62-29.63-51.23-53.68-54.59-95.15-1.06-13.11-13.99-26.17-32.47-25.16-8.37.46-11.97-7.02-17.52-11.86-15.31-13.36-22.37-33.8-40.82-44.7-6.74-3.99-19.53-10.87-13.89-20.81,6.28-11.06,23.61-9.74,30.27-4.29,33.25,27.23,71.43,9.92,106.9,14.88,10.42,1.46,17.47-2.59,21.08-13.45,5.18-15.57,17.86-19.88,33.12-20.01,26.1-.21,51.74-2.53,74.78-16.95,12.45-7.8,17.39.42,18.24,11.07,1.1,13.87.63,27.87.53,41.82-.14,18.54-1.82,36.3,16.86,49.83,13.52,9.79-.7,30.81,11.35,44.48,14.42-8.75,16.73-21.37,16.66-35.84-.24-48.36.07-96.71.17-145.07,14.8,2.67,13.85,15.41,15.64,25.64,5.92,33.74,3.12,67.83,3.08,101.79-.13,3.24-.6,6.46-1.27,9.63-4.35,21.34-6.46,43.02-9.5,64.57-1.15,8.15-.78,16.55-9.08,21.53-12.72,22.8-13.84,48.96-21.18,73.31,4.26,5.45,4.35,10.62-1.05,15.42-3.42.65-6.84,1.31-10.25,1.96Z"/>
    <path class="cls-21" d="m994.22,3153.29c13.85-16.55,28.99-11.42,47.79-7.66,63.3,12.69,127.46,11.2,190.45-3.18,55.79-12.73,110.49-32.26,166.12-42.97,62.11-11.95,127.01-14.09,191.27-5.96,13.52,1.71,34.23,18.21,43.13-9.09,10.51,36.67-.51,54.38-35.79,56.35-28.66,1.6-57.18-1.15-85.8-2.81-67.05-3.88-132.49,3.86-193,36.22l.21-.13c-20.08-2.56-37.86,5.55-55.85,12.29-54.73,20.53-111.22,9.02-167.06,9.49-35.25,6.73-64.54-10.57-94.59-24.05-6.69-3-11.28-9.86-6.89-18.52Z"/>
    <path class="cls-11" d="m222.73,2421.07c5.28-8.4,26.57,1.36,21.58-13.45-4.84-14.4-4.79-38.31-28.08-38.62-16.33-.22-18.2-9.66-20.09-20.66-2.15-12.48,5.2-19.1,16.37-21.74,12.95-3.07,24.3-.2,30.78,12.4,4.15,8.08,4.13,17.61,9.89,25.6,8.1,11.23,11.2,37.99,27.95,5.73,3.25-6.25,9.39-5.9,14.18-2.01,7.59,6.17,9.17,15.56,3.12,22.26-28.37,31.4-29.75,67.06-19.23,105.32,1.18,4.28,0,9.21-.07,13.84-22.41-27.26-40.78-57.09-56.4-88.66Z"/>
    <path class="cls-13" d="m1966.8,1152.44c25.18,23.66,41.46,53.39,57.09,83.56.78,10.49,4.71,19.88,10.11,28.75-.17,7.23-.34,14.46-.51,21.68-5.62,20.21-14.78,11.19-21.66,1.72-16.18-22.27-31.68-44.94-50.69-65.11-6.43-6.83-12.38-13.31-21.16-16.83-16.42-13.91-33.8-27.07-38.98-49.82,15.56-25.22,40.85-26.72,65.79-3.95Z"/>
    <path class="cls-12" d="m1543.12,2001.12c-33.7-15.47-50.41-44.9-63.56-77.27,21.42-2.92,25.73,15.77,32.97,28.31,8.78,15.21,14.7,30.71,36.87,29.04,5.22-.39,10.96,6.26,16.47,9.68-6.24,6.4-14.16,9.07-22.76,10.23Z"/>
    <path class="cls-27" d="m513.79,3354.16c-1.41-.55-2.87-.9-4.37-1.07.13-39.25-6.92-78.76,4.07-117.64.1,39.57.2,79.14.3,118.7Z"/>
    <path class="cls-12" d="m1576.12,1989.54c7.33-15.08,18.09-26.61,33.97-32.86-4.71,17.78-16.06,28.71-33.97,32.86Z"/>
    <path class="cls-7" d="m1743.98,168.87c68.92,35.84,129.88,79.76,181.19,140.55,67.77,80.3,104.72,171.12,120.91,272.69-.18,24.19-.11,48.37-.71,72.54-.17,6.81,3.57,17.49-6.17,18.89-9.38,1.35-13.41-7.86-15.56-16.47-1.68-6.74,2.36-15.01-7.66-21.98-5.4,13.02-6.87,24.89,1.32,36.04,9.39,12.79,5.13,26.83,5.35,40.43.11,6.89-3.22,12.81-10.77,14.39-7.31,1.53-9.71-3.39-10.93-9.39-1.81-8.85-5.83-6.69-11.42-2.88-61.05,41.63-130.85,67.21-193.88,105.24-3.98,2.4-8.77,3.82-12.07,6.9-7.14,6.66-19.99,12.35-14.97,23.93,5.42,12.51,16.35,1.46,24.59.81,20.52-1.61,40.25-7.09,58.21-17.48,28.56-16.52,60.43-15.41,91.69-18.43,15.38-1.49,14.27,6.89,9.14,14.54-20.23,30.15-25.34,64.87-32.58,99.12-1.48,6.99-2.47,17.91-9.8,18.99-33.41,4.92-27.63,32.65-31.48,53.41-4.92,26.55-13.64,48.12-42.8,55.16-4.32,1.04-10.41,3.04-11.88,6.31-15.11,33.58-35.25,22.44-58.43,9.11-26.09-15-57.43-10.57-86.05-18.06-22.21-5.81-44.65-20.17-69.79-12.05-13.95,8.59-24.38-2.35-36.04-6.49-29.54-10.48-52.44-34.59-84-40.91-13.53,3.54-27.03,7.01-40.31,11.33-30.27,9.85-59.2,7.59-84.55-12.7-48.76-39-103.51-52.4-164.76-41.66-10.72,1.88-22.32,4.6-31.48-5.15-.92-.15-2.11.02-2.69-.5-1.19-1.08-2.99-3.61-2.92-3.66,25.96-22.24,54.36-35.71,90.2-29.82,24.19,3.98,39.66-5.44,38.75-33.24-.23-7.12,3.39-14.31,4.84-21.55,1.74-8.64,4.82-19.02,14.97-15.33,11.68,4.24.3,11.54-1.46,17.37-6.28,20.85,2.7,35.55,24.67,35.87,19.58.29,39.87,4.27,60.53-3.49-7.54-10.25-21.78-6.11-25.84-17.41,3.51-5.33,9.12-5.43,14.62-6.02,49.97-5.35,77.79-33.6,81.72-83.58,1.37-17.45.83-34.89-3.19-52.14-2.03-8.72-5.81-17.87,1.24-26.3,11.38-12.12,4.35-23.86-.19-36.1-7.16-19.33-5.18-32.89,16.7-44.69,22.62-12.2,27.97-41.21,42.76-61.66,7.24-10.01,11.62-24.02,12.25-36.48,1.4-27.52,17.58-32.36,40.61-34.63,36.09-3.55,39.81-11.23,45.65-47.14,5.67-34.84,12.78-69.26,10.62-104.81-.41-6.67.46-14.53,6.93-17.2,41.83-17.28,37.42-62.16,55.79-93.32,7.96-13.51-8.47-17.38-16.67-23.95-7.13-5.71-24.7-5.02-19.29-18.27,4.66-11.43,23.44-14.2,31.71-9.3,22.26,13.19,36.55-1.76,53.39-9.39Z"/>
    <path class="cls-28" d="m1168.29,945.6c30.94-3.56,61.84-6.51,93.05-7.82,35.18-1.48,65.05,14.34,88.28,33.97,39.83,33.65,78.9,34.92,123.31,16.82,5.86-2.39,12.52-2.82,18.81-4.15,6.67,5.38,10.64,12.47,13.65,20.39,23.55,62.09,63.26,114.09,103.71,165.61,24.95,36.07,55.4,66.5,91.09,92.17,11.61,8.35,29.57,15.28,21.75,36.29-7.04,4.72-14.08,2.35-21.17.07-3.39-1.09-6.64-2.54-10.07.85-37.55,37.23-58.29,51.42-96.18,54.13-37.14,2.66-64.62,18.27-85.75,47.56-39.75,30.89-85.75,51.7-127.66,79.23-124.66,81.89-240.49,173.54-333.46,291.58-7.85,9.97-15.96,20.93-30.52,22.37-32.87,13.77-64.58,32.21-102.8,23.2-5.25-1.24-11.04,2.88-11.75,9.45-.74,6.86,4.33,9.68,10.03,11.22,3.58.97,7.64.73,10.86,2.31,8.02,3.94,22.6,5.27,21.42,14.39-1.69,13.04-8.18,27.28-17.02,37.02-7.85,8.65-15.54-5.25-23.65-7.81-16.91-5.34-31.4-26-52.83-8.22-6.17,5.12-11.82-1.23-13.03-8.98-4.1-11.85,4.83-19.02,10.08-27.36,63.64-101.14,118.66-206.14,147.02-323.34,3.29-13.59,6-27.13,7.78-41.01,2.1-16.44,3.78-33.53,19.5-44.16,1.47-2.31,4.18-4.59,4.22-6.92,1.31-69.81,14.28-139.71.4-209.39-8.23-41.33-2.92-82.83-4.51-124.23,12.21-43.82,37.27-77.7,73.47-105.86,22.38-17.42,50.09-22.61,71.98-39.38Z"/>
    <path class="cls-2" d="m1463.73,705.78c13.69,36.54,17.64,73.6,3.79,110.9-18.79,50.61-44.6,65.32-98.17,57.15-77.32-42.61-77.19-149.23.24-203.45,20.47-7.7,41-22.46,61.21.51,16.46,6.46,19.52,25.56,32.93,34.9Z"/>
    <path class="cls-23" d="m592.42,51.54c-90.3-8.46-178.27,6.28-265.3,27.87-41.94,10.41-83.77,22.76-120.47,46.4-14.32,9.23-30.07,21.76-36.44,36.55-10.52,24.43-21.93,15.94-36.08,7.29-14.99-24.06-1.92-42.45,13.27-59.24,41.5-45.84,97.68-64.36,154.7-80.77,10.59-3.05,21.7-4.28,32.57-6.34,20.84-3.22,42.1-3.74,62.48-9.89C473.9,3.71,550.78-3.25,628.22,3.24c10.15.85,20.19,3.14,30.26,4.77-7.75,7.27-17.38,4.26-26.24,4.42-11.48.21-21.52-2.28-16.35,16.91,4.2,15.61-16.47,13.57-23.47,22.21Z"/>
    <path class="cls-5" d="m1319.05,554.4c-15.84,7.14-22.36,27.78-43.18,28.36-16.5.47-24.02-2.53-18.99-21.68,7.59-28.9,30.03-44.57,51.99-59.04,29.57-19.47,62.02-34.14,99.28-31.24.8.45,1.56,1.05,2.42,1.33,17.31,5.62,34.35,12.35,31,35.14-2.68,18.19-21.62,26.21-48.09,22.35-4.54-.66-9.18-.84-13.13,2.32-1.82-.02-3.63.04-5.45.17-16.61,12.43-38.25,12.28-55.84,22.28Z"/>
    <path class="cls-7" d="m1380.33,531.95c6.68-7,15.46-5.48,23.64-5.37,13.95.19,26.71-2.04,31.12-17.46,4.12-14.42-6.94-21.89-16.06-29.78-3.48-3.01-7.25-5.69-10.88-8.52,2.79-.04,5.59-.29,8.36-.08,15.79,1.25,29.69,6.82,35.33,22.6,7.71,21.57-14.2,28.29-23.98,39.83-7.65,9.03-21.77,14.52-34.35,1.88-2.7-2.71-8.7-2.15-13.18-3.09Z"/>
    <path class="cls-7" d="m1430.8,670.89c-20.36-5.54-40.77-5.37-61.21-.5,12.3-9.75,22.09-22.46,41.15-21.54,16.23.79,21.48,7.3,20.06,22.04Z"/>
    <path class="cls-7" d="m1319.05,554.4c14.47-17.81,36.43-16.85,55.84-22.28-14.28,18.28-34.8,20.94-55.84,22.28Z"/>
    <path class="cls-7" d="m1452.38,609.81c.19,5.1-1.64,9.79-7.15,8.88-6.91-1.13-15.23-3.09-15.74-11.91-.26-4.54,5.19-6.77,10.04-7.07,7.26-.44,12.29,2.04,12.85,10.09Z"/>
    <path class="cls-26" d="m1022.72,1431.39c-12.36,40.55-15.37,83.1-27.73,123.8-25.07,82.48-61.36,159.92-104.81,233.82-15.74,26.77-28.9,55.95-51.83,78.24-40.71,51.9-85.75,100.23-140.79,136.35-42.62,27.97-90.42,47.45-144.22,31.32-7.19-.34-7.93-3.53-3.94-8.85,11.32-6.6,16.53-13.39,11.58-28.82-7.95-24.81-5.59-51.52-6.41-77.46-2.06-65.04,3.47-130.24-4.86-195.18-1.62-12.6-2.29-26.36,9.34-36.2,23.35,32.36,18.95,71.28,20.87,107.06,2.37,44.31,5.35,88.71,7.13,133.11,1.38,34.17,19.01,44.9,46.6,26.47,89.35-59.67,163.63-133.28,218.05-227.6,24.08-41.74,43.57-85.96,69.86-126.21,18.26-27.97,25.51-59.16,33.82-90.27,5.82-21.8,10.3-43.15,35.16-52.79,12.33-4.78,12.88-19.45,18.14-30.1,2.03-4.1,4.91-11.51,11.99-7.04,2.05,1.3,1.45,6.78,2.06,10.35Z"/>
    <path class="cls-14" d="m559.06,1688.4c11.19,91.18.97,183.06,8.71,274.48,1.48,17.48-2.52,33.63,11.85,47.73,6.91,6.78,2.88,14.36-6.21,16.4-8.01,1.8-16.49,1.51-24.77,2.15-28.41-10.87-34.27-22.77-32.26-65.26,1.82-42.84.24-85.69.72-128.51-1.3-30.21,3.85-60.79-5.25-90.57-1.59-15.57-5.45-31.56,7.51-44.68-.92-19.28-2.74-38.38-10.69-56.32-3.73-37.74-7.41-75.49-11.22-113.23-1.96-19.45,6.23-35.44,19.21-58.98,26.63,74.77,35.87,145.49,42.4,216.79Z"/>
    <path class="cls-8" d="m313.08,672.57c9.76-16.25,18.91-32.94,33.41-45.73,10.11-3.76,18.8-2.74,21.62,9.15,2.03,8.58.79,16.78-10.4,18.98-14.02,2.76-12.42,16.92-18.17,25.67-5.44,8.29-9.53,17.46-16.46,26.24,1.31-13.35-9.13-22.31-10-34.31Z"/>
    <path class="cls-8" d="m277.66,759.13c-1.19-1.26-2.92-3.1-4.66-4.94,14.41-8.62,13.11-29.68,28.35-36.79,6.01-2.8,15.37-1.98,15.77,9.22.14,3.8-34.37,32.87-39.46,32.51Z"/>
    <path class="cls-8" d="m268.67,816.18c-8.34,0-11.15-5.18-11.2-12.48-.04-5.67.15-11.66,8.71-9.92,6.61,1.34,12.67,3.41,12.56,11.87-.09,6.57-3.33,10.21-10.07,10.53Z"/>
    <path class="cls-21" d="m994.03,3152.85c-14.79-4.26-27.26-12.35-38.15-23.06,17.98-1.01,33.68,1.74,38.15,23.06Z"/>
    <path class="cls-10" d="m525.35,1967.86c-4.55,25.1,4.7,44.97,23.28,61.3,1.57,1.92,3.14,3.83,4.71,5.75,10.31,7.11,20.61,14.22,32.84,22.66-13.45,8.3-23.58-.31-33.28-2.07-10.75-1.95-18.49-2.36-28.21,4.53-22.3,15.8-35.22,10.32-41.7-16.18-1.96-8.01-1.25-16.62-2.58-24.83-1.6-9.89-2.65-24.23-14.19-23.68-10.69.51-14.41,15.03-12.91,24.77,6.03,39.1-22.12,75.27-8.65,115.2,2.69,7.98-4.78,17.55-13.89,22.31-.94-35.05-6.8-69.65-6.41-104.96.89-80.54,6.98-159.81,28.78-238.13,10.53-37.84,26.68-72.25,43.45-106.93,4.66-9.63,9.27-23.1,22.77-7.47.22,14.59.45,29.18.68,43.77,5.68,29.56,1,59.42,2.53,89.1,1.68,44.93-3.42,90.01,2.77,134.86Z"/>
    <path class="cls-11" d="m446.7,2258.63c3.89,16.68,7.77,33.36,11.66,50.05,5.85,12.4,2.56,27.37,10.97,39.05.2,1.83.41,3.67.63,5.5-11.08-.07-20.49,2.21-22.65,15.39-2.03,12.37-9.76,18.43-21.65,15.18-9.98-2.73-23.93-.05-27.6-14.54-3.22-12.7-.47-29.97,9.72-32.26,31.82-7.14,24.37-31.97,27.78-51.88,1.71-9.99-.35-20.86,11.14-26.49Z"/>
    <path class="cls-15" d="m1017.12,1794.67c75.7-88.99,153.36-175.19,249.78-243.84,76.71-54.62,154.92-106.21,236.51-152.94,24.68-22.94,50.07-36.39,84.93-18.04,30.42,16.01,33.17,18.97,15.78,46.23-58.18,39.34-116.59,78.35-174.5,118.1-66.45,45.61-132.76,91.47-194.68,143.25-18.59,13.2-36.35,27.35-51.37,44.67-27.14,23.07-54.28,46.14-81.42,69.2-32.46,21.88-58.08,50.11-77.93,83.72-1.8,1.66-3.61,3.32-5.41,4.98-28.61,28.62-55.62,58.5-74.3,94.9-16.29,24.23-32.58,48.45-48.87,72.68-10.05,8.94-16.93,19.71-19.23,33.15-1.12,3.83-2.23,7.65-3.35,11.48-.27,4.26-.76,8.13-6.21,3.69-9.57-5.61-10.17,2.39-12.96,8.12-17.52,36.02-35.28,71.92-55.55,113.12-9.78-34.28,1.39-59.87,11.76-84.53,39.04-92.85,89.63-179.27,145.59-263.01,19.5-29.18,45.93-53.09,61.43-84.92Z"/>
    <path class="cls-1" d="m469.33,2347.73c-16.59-9.39-9.31-25.47-10.97-39.05,8.84,11.56,11.79,24.78,10.97,39.05Z"/>
    <path class="cls-19" d="m1604.83,1175.38c-49.94-56.41-93.34-116.69-113.09-190.96,38.92,11.38,69.67,39.32,107.46,53,3.41,1.24,6.81,2.5,10.22,3.76,32.01,24.8,66.36,45.14,105.89,55.64,17.21,6.36,36.8,6.71,51.19,20.2,5.34.82,10.68,1.64,16.02,2.46,32.1,8.18,65.1,12.19,96.98,21.55,12.18,3.57,22.27,8.09,26.59,20.85,12.97,13.43,25.93,26.85,38.9,40.28,15.52,11.42,24.26,28.07,29.27,45.44,14.45,50.15-15.41,84.94-70.72,84.45-13.57-3.42-17.6-15.43-23.18-26.02-41.64-79.01-112.04-118.73-194.38-141.96-16.79-4.74-33.13-1.52-49.12,4.75-10.24,4.02-20.17,10.23-32.04,6.55Z"/>
    <path class="cls-22" d="m1906.1,1161.89c-19.41-15.11-43.82-14.41-66.02-20.56-19.94-5.53-41.18-7.13-57.56-21.84,1.66-8.65,33.72,15.27,16.88-16.62-4.05-7.68,16.13-6.82,24.43-5.47,33.9,5.51,67.6,11.35,102.2,10.21,87.26-2.86,174.32-10.03,258.12-34.85,66-19.55,129.33-47.41,186.18-87.66-19.72,70.07-75.4,100.15-137.9,119.71-74.5,23.32-151.05,37.21-229.61,37.42-12.79.03-26.47-1.81-36.02,10.2-14.1-5.15-28.6-6.65-43.6-6.18-10.91.34-18.26,2.88-17.1,15.63Z"/>
    <path class="cls-22" d="m1766.51,1117.03c-17.75-4.99-36.52-7.43-51.19-20.2,20.22-1.25,41.11-4.21,51.19,20.2Z"/>
    <path class="cls-3" d="m1899.54,1325.79c65.2-5.67,84.63-37.53,58.67-96.46-4.06-9.21-8.78-18.12-13.2-27.16,24.14,4.95,30.39,29.3,46.09,43.47,11.98,10.82,19.88,26.47,28.42,40.67,5.57,9.26,9.3,5.37,13.98.12,12.71,103.72-46.01,155.73-155.5,162.05-29.84,3.73-59.66,4.98-89.45-.44-24.2-6.22-50-5.05-73.22-15.83-23.28-8.77-46.34-18.38-71.86-18.4-3.93.63-7.87,1.25-11.81,1.88-11.13-1.7-19.87,2.93-27.55,10.38-12.28-9.94,22.3-22.25-.21-29.14-21.13-6.47-39.27-29.18-65.6-13.95-10.87,6.29-23.22,10.01-34.9,14.9,22.17-44.52,63.79-52.07,107.03-55.27,25.08-1.86,39.17-26.94,66.69-27.28,12.28-.15-1.5-22.59,2.11-36.75,15.89,3.64,26.66,20.31,44.19,17.52,3.89-2.21,7.76-1.99,11.65,0,15.2,21.89,36.82,15.46,57.57,12.93,36.45.45,71.09,12.29,106.9,16.76Z"/>
    <path class="cls-12" d="m1408.46,1832.43c-3.57.24-7.13.48-10.7.71l.12.15c1.27-14.88-10.23-22.2-18.74-31.14-6.75-7.1-15.71-12.51-16.44-23.72,40.1-6.79,45.58-.32,45.75,54Z"/>
    <path class="cls-12" d="m1452.71,1879.36c-17.17-10.66-31.09-23.81-34.64-44.96,19.63,8.76,36.81,19.41,34.64,44.96Z"/>
    <path class="cls-12" d="m1475.5,1921.94c-9.26-11.52-18.43-23.1-22.15-37.86,25.15,2.24,22.58,20.67,22.15,37.86Z"/>
    <path class="cls-24" d="m397.15,13.41c-19.59,11.11-40.93,11.09-62.47,9.89,19.94-8.85,41.02-10.53,62.47-9.89Z"/>
    <path class="cls-28" d="m1643.47,1413.81c26.55-4.01,51.25-.77,71.86,18.41-25.85,1.24-47.91-12.26-71.86-18.41Z"/>
    <path class="cls-17" d="m1788.55,1448.04c29.82.15,59.63.29,89.45.44-29.86,7.62-59.68,8.38-89.45-.44Z"/>
    <path class="cls-25" d="m1024.22,1885.02c-8.55-8.64,1.77-13.44,4.92-18.18,16.2-24.39,38.52-43.45,58.75-64.32,3.71-3.83,9.01-6.76,14.26-1.23-25.97,27.91-51.95,55.81-77.93,83.72Z"/>
    <path class="cls-25" d="m944.51,1984.9c-1.2-2.3-4.01-5.9-3.35-6.72,24.51-30.59,40.37-68.85,77.65-88.17-24.76,31.63-49.53,63.26-74.3,94.9Z"/>
    <path class="cls-25" d="m876.41,2090.72c-4.31-17.26,2.84-27.88,19.22-33.15-6.41,11.05-12.82,22.1-19.22,33.15Z"/>
    <path class="cls-18" d="m1899.54,1325.79c-28.47,11.72-55.26-2.56-82.79-5.37-9.97-1.02-19.9-2.49-29.84-3.76-19.64-2.22-40.48-.97-54.59-19.03-2.96-.51-5.92-1.01-8.88-1.53-20.03-28.31-54.15-40.54-76.03-67.05-14.56-17.64-33.74-31.53-42.58-53.69,42.39-32.08,87.44-26.57,131.11-5.64,71.07,34.08,135.43,76.46,163.61,156.06Z"/>
    <path class="cls-26" d="m525.35,1967.86c-11.43-32.04-2.7-65.13-5.04-97.66-.85-11.86-.16-23.82-.17-35.74,1.08-3.02,2.71-3.52,4.97-1.08.08,44.83.15,89.65.23,134.48Z"/>
    <path class="cls-25" d="m525.12,1833.38c-1.67.31-3.33.66-4.98,1.07-.03-30.18-.06-60.36-.09-90.55,10.49,29.32,2.43,59.7,5.07,89.48Z"/>
    <path class="cls-28" d="m1732.31,1297.64c18.21,6.34,36.42,12.68,54.61,19.02-21.68,3.61-45.08,12.17-54.61-19.02Z"/>
  </g>
</svg>