<svg width="134" height="95" viewBox="0 0 134 95" fill="none" xmlns="http://www.w3.org/2000/svg">
<path d="M8.16419 71.0762C4.65983 73.5376 2.44198 75.1802 0.664185 79.0762C-4.36222 90.0914 20.4289 74.0631 31.6642 78.5762C39.4195 81.6914 40.9192 88.4354 48.6642 91.5762C57.3799 95.1106 63.4139 95.2755 72.6642 93.5762C83.0579 91.6668 86.2556 82.9025 96.6642 81.0762C102.626 80.0301 106.111 81.0762 112.164 81.0762C119.975 81.0762 127.154 87.0679 132.164 81.0762C138.661 73.3071 120.732 67.669 110.664 66.5762C108.335 66.3233 103.664 67.0762 104.164 66.0762C106.414 61.5762 103.664 44.5762 103.664 44.5762C103.664 44.5762 103.188 52.1643 102.164 56.5762C101.187 60.7866 98.6642 66.5762 98.6642 66.5762C98.6642 66.5762 94.6642 74.0762 92.6642 75.5762C91.6642 76.3262 88.1642 82.0762 73.1642 86.5762C70.1858 87.4697 58.6923 88.8402 51.1642 85.0762C43.1642 81.0762 38.8796 78.1301 33.6642 70.5762C28.5417 63.1568 25.6642 49.0762 25.6642 49.0762L28.1642 66.5762C28.1642 66.5762 14.7154 66.4746 8.16419 71.0762Z" fill="black" fill-opacity="0.1"/>
<path d="M36.1642 74.5864C44.9975 84.0531 53.7229 87.9975 66.6642 87.5864C78.7139 87.2036 88.1642 81.2154 93.6642 74.5864C99.8953 67.0762 103.268 55.5762 103.664 46.0937C104.06 36.6112 99.6612 22.0762 93.6642 14.5864C86.4666 5.59716 74.521 -0.825255 62.6642 0.0861231C50.8074 0.997503 43.9498 5.59759 36.1642 14.5864C27.3916 24.7147 23.9141 41.5861 25.6642 48.5861C27.6641 56.5859 28.2731 66.1295 36.1642 74.5864Z" fill="url(#paint0_radial_357_6243)"/>
<defs>
<radialGradient id="paint0_radial_357_6243" cx="0" cy="0" r="1" gradientUnits="userSpaceOnUse" gradientTransform="translate(54 34) rotate(-102.339) scale(49.135 44.0028)">
<stop stop-color="white"/>
<stop offset="0.649038" stop-color="#C1C7B1"/>
<stop offset="1" stop-color="#ABAF9E"/>
</radialGradient>
</defs>
</svg>
