<svg width="175" height="210" viewBox="0 0 175 210" fill="none" xmlns="http://www.w3.org/2000/svg">
<path d="M88.002 0C103.173 -0.000154543 114.002 8.4998 120.002 20.5C121.43 23.3555 134.502 17.0088 144.002 26.5088C153.057 35.5642 151.002 48.5078 151.002 48.5078C151.002 48.5078 174.002 51.5085 174.002 76.0078C174.002 97.5085 159.298 115.141 138.002 127.008C112.002 141.496 62.0019 140.801 39.002 127.008C28.1948 120.527 19.2562 112.996 14.502 106.008C8.71139 97.4962 4.1069 86.4961 4.00195 76.0078C3.92227 68.0431 6.05169 60.346 8.00195 56.9961C11.4934 50.9991 24.439 48.5198 24.502 48.5078C24.502 48.5078 21.6204 36.9964 30.002 26.5088C39.9827 14.0206 56.9366 18.9769 57.002 18.9961C57.002 18.9961 68.5021 0.000337382 88.002 0ZM88.002 15.4961C68.0021 15.4962 62.502 31.9961 62.502 31.9961C62.4309 31.9845 44.1954 29.0146 37.002 38.4961C31.5258 45.7142 31.502 58.4961 31.502 58.4961C31.4433 58.499 19.2908 59.1144 16.1279 64.126C14.3613 66.9252 12.4318 73.357 12.5039 80.0127C12.599 88.7774 18.7564 98.3832 24.002 105.496C28.3087 111.336 34.42 117.216 44.21 122.632C65.045 134.158 110.338 134.739 133.891 122.632C153.182 112.715 164.002 90.4961 164.002 77.9961C164.002 57.5228 142.502 57.0322 142.502 57.0322C142.506 56.9938 143.987 42.4855 132.502 34.4961C122.891 27.8101 114.295 34.3823 113.002 31.9961C107.567 21.9678 101.745 15.4961 88.002 15.4961Z" fill="#E68866"/>
<path d="M8.00211 180.996C9.00214 177.996 19.0022 175.496 19.0022 175.496C19.0022 175.496 52.0022 193.496 59.5022 193.496C67.0022 193.496 67.0021 189.996 69.5022 190.496C72.0022 190.996 77.5022 197.496 86.0022 197.496C94.5022 197.496 100.502 193.496 100.502 193.496C100.502 193.496 102.002 191.496 104.002 191.996C106.002 192.496 108.759 193.055 112.002 193.496C123.078 195.002 133.964 182.996 136.002 181.996C138.04 180.996 141.848 179.759 144.502 178.996C149.814 177.47 152.002 175.496 152.002 175.496C152.002 175.496 173.002 179.496 173.002 183.496C173.002 187.496 172.292 187.496 170.502 189.996C168.712 192.496 144.002 209.996 89.5021 208.996C35.0021 207.996 8.50217 187.496 8.00211 186.496C7.04147 184.575 7.00208 183.996 8.00211 180.996Z" fill="#1D1C1C" fill-opacity="0.3"/>
<path d="M66.5021 194.004C65.2164 195.504 56.5021 194.996 56.5021 194.996C56.5021 194.996 26.0021 182.496 12.5021 170.996C8.42057 167.519 6.00214 157.496 6.00214 157.496C6.00214 157.496 11.8256 163.726 17.0021 165.496C23.0991 167.581 33.5021 166.504 33.5021 166.504C33.5021 166.504 40.3509 173.626 46.0021 176.004C53.2212 179.043 66.0021 177.504 66.0021 177.504C66.0021 177.504 72.5021 183.132 86.0021 183.496C99.5021 183.86 106.002 177.504 106.002 177.504C106.002 177.504 121.316 178.924 129.002 176.004C135.179 173.658 143.502 166.004 143.502 166.004C143.502 166.004 154.689 166.642 161.002 162.996C165.307 160.511 170.002 155.496 170.502 155.004C170.859 154.654 168.145 163.504 166.002 166.004C163.002 169.504 149.502 179.504 144.502 181.504C141.958 182.522 138.992 182.01 136.002 183.504C134.002 184.504 126.733 193.333 118.502 195.004C114.484 195.82 111.798 196.555 108.002 195.004C106.297 194.308 105.842 193.586 104.002 193.496C101.505 193.374 101.661 195.734 99.5021 196.996C95.3322 199.434 91.3321 200.068 86.5021 199.996C73.0021 199.795 70.3593 189.504 66.5021 194.004Z" fill="#A9554A"/>
<g filter="url(#filter0_d_357_6216)">
<path d="M168.502 144.002C162.473 135.03 140.002 133.002 140.002 133.002C140.002 133.002 109.227 131.905 89.5022 132.002C69.7722 132.1 39.0022 133.502 39.0022 133.502L22.0022 136.502C22.0022 136.502 6.31863 140.029 4.50215 148.002C2.67226 156.035 8.17373 162.239 15.5022 166.002C21.9291 169.302 26.8571 164.667 33.5022 167.502C39.0956 169.889 40.0284 173.852 45.5022 176.502C52.5519 179.915 61.5022 177.359 65.5022 178.002C67.0022 178.244 79.8322 185.386 89.5022 184.502C96.7623 183.839 103.002 179.502 107.002 178.002C111.002 176.502 120.6 179.4 128.502 176.502C135.367 173.985 141.881 166.709 144.002 166.002C145.502 165.502 154.318 166.713 160.002 164.002C164.628 161.796 168.509 160.405 170.002 155.502C171.55 150.421 171.465 148.411 168.502 144.002Z" fill="#E68866"/>
</g>
<path d="M35.5022 157.506C31.9544 156 20.737 161.984 17.0022 156C14.5021 151.995 19.0945 145.682 23.5022 142C26.5021 139.495 41.5022 136.5 41.5022 136.5C41.5022 136.5 74.5116 134.453 92.5022 134.497C109.713 134.539 134.502 135.5 134.502 135.5C134.502 135.5 156.123 135.598 159.002 145.5C159.984 148.875 160.33 150.246 159.002 153.5C156.296 160.133 147.539 157.068 141.002 160C134.127 163.084 131.849 167.836 124.502 169.506C116.638 171.293 111.502 166.8 105.002 168C97.9601 169.3 94.6439 174.48 87.5022 175.006C80.3578 175.532 76.9967 171.548 70.0022 170C64.5022 168.783 55.4799 170.816 47.5022 167.006C42.1087 164.43 41.0043 159.841 35.5022 157.506Z" fill="#BD585C"/>
<path d="M42.5 122.136C63.335 133.662 109.447 136.107 133 124C152.291 114.083 165 90.5 165 78C165 57.5267 144 56.5 144 56.5C144 56.5 144.5 41.5 133 33.5C123.389 26.8138 115.293 33.8863 114 31.5C108.565 21.4717 102.243 15 88.5 15C68.5 15 62.5 31.5 62.5 31.5C62.5 31.5 43.7074 28 36.5 37.5C31.0238 44.7181 31 56.5362 31 56.5362C31 56.5362 17.6705 57.9763 14.5 63C12.7333 65.7993 10.9278 72.8441 11 79.5C11.095 88.2647 17.7545 98.3871 23 105.5C27.3067 111.34 32.71 116.72 42.5 122.136Z" fill="url(#paint0_linear_357_6216)"/>
<g filter="url(#filter1_f_357_6216)">
<path d="M27 57.0005C16 59.0005 40.5 63.5012 51 96.0004C51.8165 98.5277 53 88.9996 53 86.5004C53 84.0012 31 52.5005 31 53.5005L31 56.5005C31 56.5005 29.3053 56.5813 27 57.0005Z" fill="black" fill-opacity="0.12"/>
<path d="M78.5 65.0009C78.901 66.4329 75.705 68.8102 75 67.5009C68 54.5017 57.4824 31.0009 59 31.0009C60 31.0009 62 31.5009 62.5 31.5009C62.5 31.5009 63.3758 29.0043 63.5 29.5009C64.5 33.5 75 52.5017 78.5 65.0009Z" fill="black" fill-opacity="0.12"/>
<path d="M111.97 41.4117C108.47 44.4117 109.47 60.9117 106.47 64.4117C105.095 66.0153 104.008 67.964 101.97 67.4117C100.029 66.8859 99.4699 64.922 99.4699 62.9117C99.4699 58.4117 103 39.1137 108 35C111.844 31.8371 118 31.5009 120.5 30.5C123 29.4991 129.47 31.4129 131.47 32.4147C133.47 33.4164 139.987 38.4147 141.97 44.4117C142.963 47.4147 143.918 56.0883 144 56.5C144.082 56.9117 150 55.8214 158.5 62.5C162.5 65.6428 164.5 71.5 164.5 74.5C164.5 76 159.769 68.0014 155.97 65.9117C151.693 63.5588 150.732 68.7994 146 70C133.348 73.2104 127.149 98 124.47 93.4117C122.725 90.4237 122.275 88.3582 121.97 84.9117C121.664 81.4651 142.334 64.4117 139.47 60.9117C137.886 58.9766 136.162 58.7531 134.47 56.9117C130.124 52.182 134.173 45.178 128.97 41.4117C123.592 37.5187 117.01 37.0911 111.97 41.4117Z" fill="black" fill-opacity="0.12"/>
</g>
<defs>
<filter id="filter0_d_357_6216" x="0.148071" y="131.996" width="174.849" height="60.582" filterUnits="userSpaceOnUse" color-interpolation-filters="sRGB">
<feFlood flood-opacity="0" result="BackgroundImageFix"/>
<feColorMatrix in="SourceAlpha" type="matrix" values="0 0 0 0 0 0 0 0 0 0 0 0 0 0 0 0 0 0 127 0" result="hardAlpha"/>
<feOffset dy="4"/>
<feGaussianBlur stdDeviation="2"/>
<feComposite in2="hardAlpha" operator="out"/>
<feColorMatrix type="matrix" values="0 0 0 0 0 0 0 0 0 0 0 0 0 0 0 0 0 0 0.25 0"/>
<feBlend mode="normal" in2="BackgroundImageFix" result="effect1_dropShadow_357_6216"/>
<feBlend mode="normal" in="SourceGraphic" in2="effect1_dropShadow_357_6216" result="shape"/>
</filter>
<filter id="filter1_f_357_6216" x="20.221" y="25.4355" width="148.279" height="74.9883" filterUnits="userSpaceOnUse" color-interpolation-filters="sRGB">
<feFlood flood-opacity="0" result="BackgroundImageFix"/>
<feBlend mode="normal" in="SourceGraphic" in2="BackgroundImageFix" result="shape"/>
<feGaussianBlur stdDeviation="2" result="effect1_foregroundBlur_357_6216"/>
</filter>
<linearGradient id="paint0_linear_357_6216" x1="87.9989" y1="15" x2="88" y2="87.5" gradientUnits="userSpaceOnUse">
<stop stop-color="#92494C"/>
<stop offset="1" stop-color="#BD585C"/>
</linearGradient>
</defs>
</svg>
