<svg width="20" height="10" viewBox="0 0 20 10" fill="none" xmlns="http://www.w3.org/2000/svg">
<mask id="mask0_284_7118" style="mask-type:luminance" maskUnits="userSpaceOnUse" x="2" y="0" width="18" height="10">
<path d="M20 10V2.23517e-07L2.5 2.23517e-07V10L20 10Z" fill="white"/>
</mask>
<g mask="url(#mask0_284_7118)">
<mask id="mask1_284_7118" style="mask-type:luminance" maskUnits="userSpaceOnUse" x="2" y="0" width="18" height="10">
<path d="M2.50491 6.61484C2.50491 8.22775 5.23905 10 8.1895 10C11.2505 10 13.1592 8.70721 13.1592 8.70721C11.634 8.70721 10.4609 8.18404 10.4609 7.42785C11.4568 7.80125 12.3221 7.91391 12.9434 7.91391C16.882 7.91391 17.5989 4.20744 19.9961 4.20744C19.9961 4.20744 18.9754 3.08336 17.8097 3.08336C16.483 3.08336 17.1 3.3891 15.2769 3.3891C13.9275 3.3891 13.0507 1.3418 11.4333 1.3418C10.573 1.3418 9.40459 1.65455 9.05703 1.91949C9.05703 1.01391 11.234 0.625 11.8518 0.625C11.1893 0.343047 10.2862 2.23517e-07 8.24423 2.23517e-07C5.75618 2.23517e-07 2.50491 1.18875 2.50491 3.56039C2.50491 3.56039 3.7478 1.75 5.78452 1.75C7.06992 1.75 7.4747 2.16346 7.8107 2.41961C6.29299 2.4485 5.44047 2.8283 5.44047 3.54025C5.44047 3.98555 6.25822 4.625 7.15099 4.625C7.94742 4.625 8.50823 3.70836 10.1573 3.70836C12.2076 3.70836 12.9449 5.125 12.9449 5.125C12.5653 4.96471 12.1772 4.83961 11.2505 4.83961C9.62125 4.83961 9.16782 6.66664 7.53357 6.66664C6.64421 6.66664 5.66591 6.35439 5.66591 6.35439C5.66591 6.82869 6.65858 7.66664 7.97089 7.66664C7.63709 7.8702 7.2751 8.25 6.11248 8.25C4.32135 8.25 2.50491 6.61484 2.50491 6.61484Z" fill="white"/>
</mask>
<g mask="url(#mask1_284_7118)">
<mask id="mask2_284_7118" style="mask-type:luminance" maskUnits="userSpaceOnUse" x="0" y="0" width="20" height="10">
<path d="M0.714285 6.61484C0.714285 8.22775 3.72894 10 6.98209 10C10.3571 10 12.4617 8.70721 12.4617 8.70721C10.78 8.70721 9.48654 8.18404 9.48654 7.42785C10.5846 7.80125 11.5387 7.91391 12.2237 7.91391C16.5664 7.91391 17.3569 4.20744 20 4.20744C20 4.20744 18.8746 3.08336 17.5893 3.08336C16.1265 3.08336 16.8068 3.3891 14.7966 3.3891C13.3088 3.3891 12.342 1.3418 10.5587 1.3418C9.61014 1.3418 8.32185 1.65455 7.93863 1.91949C7.93863 1.01391 10.339 0.625 11.0201 0.625C10.2897 0.343047 9.29393 2.23517e-07 7.04243 2.23517e-07C4.29913 2.23517e-07 0.714285 1.18875 0.714285 3.56039C0.714285 3.56039 2.0847 1.75 4.33037 1.75C5.74765 1.75 6.19395 2.16346 6.56443 2.41961C4.891 2.4485 3.95102 2.8283 3.95102 3.54025C3.95102 3.98555 4.85267 4.625 5.83704 4.625C6.71518 4.625 7.33353 3.70836 9.15174 3.70836C11.4124 3.70836 12.2254 5.125 12.2254 5.125C11.8068 4.96471 11.3789 4.83961 10.3571 4.83961C8.56074 4.83961 8.06079 6.66664 6.25887 6.66664C5.27827 6.66664 4.1996 6.35439 4.1996 6.35439C4.1996 6.82869 5.29411 7.66664 6.74106 7.66664C6.37301 7.8702 5.97388 8.25 4.69198 8.25C2.71709 8.25 0.714285 6.61484 0.714285 6.61484Z" fill="white"/>
</mask>
<g mask="url(#mask2_284_7118)">
<path d="M19.9961 -4.76837e-07V10L2.50491 10V-4.76837e-07L19.9961 -4.76837e-07Z" fill="url(#paint0_linear_284_7118)"/>
</g>
</g>
</g>
<path d="M5.48148 1C3.00643 1 1 3.66667 1 5C1 6.33333 3.00643 9 5.48148 9C7.95654 9 12 5.72727 12 5C12 4.27273 7.95654 1 5.48148 1Z" fill="url(#paint1_linear_284_7118)"/>
<defs>
<linearGradient id="paint0_linear_284_7118" x1="19.9961" y1="5" x2="2.50489" y2="5" gradientUnits="userSpaceOnUse">
<stop stop-color="#FF1D25"/>
<stop offset="0.125" stop-color="#FF1D25"/>
<stop offset="0.15625" stop-color="#FF1D25"/>
<stop offset="0.160156" stop-color="#FF1E25"/>
<stop offset="0.164062" stop-color="#FF1E25"/>
<stop offset="0.167969" stop-color="#FF1F25"/>
<stop offset="0.171875" stop-color="#FF1F25"/>
<stop offset="0.175781" stop-color="#FF2025"/>
<stop offset="0.179688" stop-color="#FF2025"/>
<stop offset="0.183594" stop-color="#FF2125"/>
<stop offset="0.1875" stop-color="#FF2225"/>
<stop offset="0.191406" stop-color="#FF2225"/>
<stop offset="0.195312" stop-color="#FF2325"/>
<stop offset="0.199219" stop-color="#FF2325"/>
<stop offset="0.203125" stop-color="#FF2425"/>
<stop offset="0.207031" stop-color="#FF2425"/>
<stop offset="0.210938" stop-color="#FF2525"/>
<stop offset="0.214844" stop-color="#FF2525"/>
<stop offset="0.21875" stop-color="#FF2624"/>
<stop offset="0.222656" stop-color="#FF2624"/>
<stop offset="0.226562" stop-color="#FF2724"/>
<stop offset="0.230469" stop-color="#FF2724"/>
<stop offset="0.234375" stop-color="#FF2824"/>
<stop offset="0.238281" stop-color="#FF2824"/>
<stop offset="0.242188" stop-color="#FF2924"/>
<stop offset="0.246094" stop-color="#FF2924"/>
<stop offset="0.25" stop-color="#FF2A24"/>
<stop offset="0.253906" stop-color="#FF2A24"/>
<stop offset="0.257812" stop-color="#FF2B24"/>
<stop offset="0.261719" stop-color="#FF2B24"/>
<stop offset="0.265625" stop-color="#FF2C24"/>
<stop offset="0.269531" stop-color="#FF2D24"/>
<stop offset="0.273438" stop-color="#FF2D24"/>
<stop offset="0.277344" stop-color="#FF2E24"/>
<stop offset="0.28125" stop-color="#FF2E24"/>
<stop offset="0.285156" stop-color="#FF2F24"/>
<stop offset="0.289062" stop-color="#FF2F24"/>
<stop offset="0.292969" stop-color="#FF3024"/>
<stop offset="0.296875" stop-color="#FF3024"/>
<stop offset="0.300781" stop-color="#FF3124"/>
<stop offset="0.304688" stop-color="#FF3124"/>
<stop offset="0.308594" stop-color="#FF3224"/>
<stop offset="0.3125" stop-color="#FF3224"/>
<stop offset="0.316406" stop-color="#FF3324"/>
<stop offset="0.320312" stop-color="#FF3324"/>
<stop offset="0.324219" stop-color="#FF3424"/>
<stop offset="0.328125" stop-color="#FF3524"/>
<stop offset="0.332031" stop-color="#FF3524"/>
<stop offset="0.335938" stop-color="#FF3624"/>
<stop offset="0.339844" stop-color="#FF3624"/>
<stop offset="0.34375" stop-color="#FF3723"/>
<stop offset="0.347656" stop-color="#FF3723"/>
<stop offset="0.351562" stop-color="#FF3823"/>
<stop offset="0.355469" stop-color="#FF3823"/>
<stop offset="0.359375" stop-color="#FF3923"/>
<stop offset="0.363281" stop-color="#FF3923"/>
<stop offset="0.367188" stop-color="#FF3A23"/>
<stop offset="0.371094" stop-color="#FF3A23"/>
<stop offset="0.375" stop-color="#FF3B23"/>
<stop offset="0.378906" stop-color="#FF3B23"/>
<stop offset="0.382812" stop-color="#FF3C23"/>
<stop offset="0.386719" stop-color="#FF3D23"/>
<stop offset="0.390625" stop-color="#FF3D23"/>
<stop offset="0.394531" stop-color="#FF3E23"/>
<stop offset="0.398438" stop-color="#FF3E23"/>
<stop offset="0.402344" stop-color="#FF3F23"/>
<stop offset="0.40625" stop-color="#FF3F23"/>
<stop offset="0.410156" stop-color="#FF4023"/>
<stop offset="0.414062" stop-color="#FF4023"/>
<stop offset="0.417969" stop-color="#FF4123"/>
<stop offset="0.421875" stop-color="#FF4123"/>
<stop offset="0.425781" stop-color="#FF4223"/>
<stop offset="0.429688" stop-color="#FF4223"/>
<stop offset="0.433594" stop-color="#FF4323"/>
<stop offset="0.4375" stop-color="#FF4323"/>
<stop offset="0.441406" stop-color="#FF4423"/>
<stop offset="0.445312" stop-color="#FF4523"/>
<stop offset="0.449219" stop-color="#FF4523"/>
<stop offset="0.453125" stop-color="#FF4623"/>
<stop offset="0.457031" stop-color="#FF4623"/>
<stop offset="0.460937" stop-color="#FF4723"/>
<stop offset="0.464844" stop-color="#FF4722"/>
<stop offset="0.46875" stop-color="#FF4822"/>
<stop offset="0.472656" stop-color="#FF4822"/>
<stop offset="0.476562" stop-color="#FF4922"/>
<stop offset="0.480469" stop-color="#FF4922"/>
<stop offset="0.484375" stop-color="#FF4A22"/>
<stop offset="0.488281" stop-color="#FF4A22"/>
<stop offset="0.492187" stop-color="#FF4B22"/>
<stop offset="0.496094" stop-color="#FF4C22"/>
<stop offset="0.5" stop-color="#FF4C22"/>
<stop offset="0.503906" stop-color="#FF4D22"/>
<stop offset="0.507812" stop-color="#FF4D22"/>
<stop offset="0.511719" stop-color="#FF4E22"/>
<stop offset="0.515625" stop-color="#FF4E22"/>
<stop offset="0.519531" stop-color="#FF4F22"/>
<stop offset="0.523438" stop-color="#FF4F22"/>
<stop offset="0.527344" stop-color="#FF5022"/>
<stop offset="0.53125" stop-color="#FF5022"/>
<stop offset="0.535156" stop-color="#FF5122"/>
<stop offset="0.539063" stop-color="#FF5122"/>
<stop offset="0.542969" stop-color="#FF5222"/>
<stop offset="0.546875" stop-color="#FF5222"/>
<stop offset="0.550781" stop-color="#FF5322"/>
<stop offset="0.554688" stop-color="#FF5422"/>
<stop offset="0.558594" stop-color="#FF5422"/>
<stop offset="0.5625" stop-color="#FF5522"/>
<stop offset="0.566406" stop-color="#FF5522"/>
<stop offset="0.570312" stop-color="#FF5622"/>
<stop offset="0.574219" stop-color="#FF5622"/>
<stop offset="0.578125" stop-color="#FF5722"/>
<stop offset="0.582031" stop-color="#FF5722"/>
<stop offset="0.585938" stop-color="#FF5822"/>
<stop offset="0.589844" stop-color="#FF5821"/>
<stop offset="0.59375" stop-color="#FF5921"/>
<stop offset="0.597656" stop-color="#FF5921"/>
<stop offset="0.601562" stop-color="#FF5A21"/>
<stop offset="0.605469" stop-color="#FF5B21"/>
<stop offset="0.609375" stop-color="#FF5B21"/>
<stop offset="0.613281" stop-color="#FF5C21"/>
<stop offset="0.617188" stop-color="#FF5C21"/>
<stop offset="0.621094" stop-color="#FF5D21"/>
<stop offset="0.625" stop-color="#FF5D21"/>
<stop offset="0.628906" stop-color="#FF5E21"/>
<stop offset="0.632812" stop-color="#FF5E21"/>
<stop offset="0.636719" stop-color="#FF5F21"/>
<stop offset="0.640625" stop-color="#FF5F21"/>
<stop offset="0.644531" stop-color="#FF6021"/>
<stop offset="0.648437" stop-color="#FF6121"/>
<stop offset="0.652344" stop-color="#FF6121"/>
<stop offset="0.65625" stop-color="#FF6221"/>
<stop offset="0.660156" stop-color="#FF6221"/>
<stop offset="0.664062" stop-color="#FF6321"/>
<stop offset="0.667969" stop-color="#FF6321"/>
<stop offset="0.671875" stop-color="#FF6421"/>
<stop offset="0.675781" stop-color="#FF6421"/>
<stop offset="0.679688" stop-color="#FF6521"/>
<stop offset="0.683594" stop-color="#FF6521"/>
<stop offset="0.6875" stop-color="#FF6621"/>
<stop offset="0.691406" stop-color="#FF6621"/>
<stop offset="0.695312" stop-color="#FF6721"/>
<stop offset="0.699219" stop-color="#FF6821"/>
<stop offset="0.703125" stop-color="#FF6821"/>
<stop offset="0.707031" stop-color="#FF6921"/>
<stop offset="0.710938" stop-color="#FF6920"/>
<stop offset="0.714844" stop-color="#FF6A20"/>
<stop offset="0.71875" stop-color="#FF6A20"/>
<stop offset="0.722656" stop-color="#FF6B20"/>
<stop offset="0.726562" stop-color="#FF6B20"/>
<stop offset="0.730469" stop-color="#FF6C20"/>
<stop offset="0.734375" stop-color="#FF6C20"/>
<stop offset="0.738281" stop-color="#FF6D20"/>
<stop offset="0.742187" stop-color="#FF6D20"/>
<stop offset="0.746094" stop-color="#FF6E20"/>
<stop offset="0.75" stop-color="#FF6F20"/>
<stop offset="0.753906" stop-color="#FF6F20"/>
<stop offset="0.757812" stop-color="#FF7020"/>
<stop offset="0.761719" stop-color="#FF7020"/>
<stop offset="0.765625" stop-color="#FF7120"/>
<stop offset="0.769531" stop-color="#FF7120"/>
<stop offset="0.773438" stop-color="#FF7220"/>
<stop offset="0.777344" stop-color="#FF7220"/>
<stop offset="0.78125" stop-color="#FF7320"/>
<stop offset="0.785156" stop-color="#FF7320"/>
<stop offset="0.789062" stop-color="#FF7420"/>
<stop offset="0.792969" stop-color="#FF7520"/>
<stop offset="0.796875" stop-color="#FF7520"/>
<stop offset="0.800781" stop-color="#FF7620"/>
<stop offset="0.804688" stop-color="#FF7620"/>
<stop offset="0.808594" stop-color="#FF7720"/>
<stop offset="0.8125" stop-color="#FF7720"/>
<stop offset="0.816406" stop-color="#FF7820"/>
<stop offset="0.820312" stop-color="#FF7820"/>
<stop offset="0.824219" stop-color="#FF7920"/>
<stop offset="0.828125" stop-color="#FF7920"/>
<stop offset="0.832031" stop-color="#FF7A1F"/>
<stop offset="0.835937" stop-color="#FF7A1F"/>
<stop offset="0.839844" stop-color="#FF7B1F"/>
<stop offset="0.84375" stop-color="#FF7C1F"/>
<stop offset="0.847656" stop-color="#FF7C1F"/>
<stop offset="0.851562" stop-color="#FF7D1F"/>
<stop offset="0.855469" stop-color="#FF7D1F"/>
<stop offset="0.859375" stop-color="#FF7E1F"/>
<stop offset="0.863281" stop-color="#FF7E1F"/>
<stop offset="0.867188" stop-color="#FF7F1F"/>
<stop offset="0.871094" stop-color="#FF7F1F"/>
<stop offset="0.875" stop-color="#FF801F"/>
<stop offset="0.878906" stop-color="#FF801F"/>
<stop offset="0.882812" stop-color="#FF811F"/>
<stop offset="0.886719" stop-color="#FF821F"/>
<stop offset="0.890625" stop-color="#FF821F"/>
<stop offset="0.894531" stop-color="#FF831F"/>
<stop offset="0.898438" stop-color="#FF831F"/>
<stop offset="0.902344" stop-color="#FF841F"/>
<stop offset="0.90625" stop-color="#FF841F"/>
<stop offset="0.910156" stop-color="#FF851F"/>
<stop offset="0.914062" stop-color="#FF851F"/>
<stop offset="0.917969" stop-color="#FF861F"/>
<stop offset="0.921875" stop-color="#FF861F"/>
<stop offset="0.925781" stop-color="#FF871F"/>
<stop offset="0.929687" stop-color="#FF881F"/>
<stop offset="0.933594" stop-color="#FF881F"/>
<stop offset="0.9375" stop-color="#FF891F"/>
<stop offset="0.941406" stop-color="#FF891F"/>
<stop offset="0.945312" stop-color="#FF8A1F"/>
<stop offset="0.949219" stop-color="#FF8A1F"/>
<stop offset="0.953125" stop-color="#FF8B1E"/>
<stop offset="0.957031" stop-color="#FF8B1E"/>
<stop offset="0.960938" stop-color="#FF8C1E"/>
<stop offset="0.964844" stop-color="#FF8C1E"/>
<stop offset="0.96875" stop-color="#FF8D1E"/>
<stop offset="0.972656" stop-color="#FF8D1E"/>
<stop offset="0.976562" stop-color="#FF8E1E"/>
<stop offset="0.980469" stop-color="#FF8F1E"/>
<stop offset="0.984375" stop-color="#FF8F1E"/>
<stop offset="0.988281" stop-color="#FF901E"/>
<stop offset="0.992188" stop-color="#FF901E"/>
<stop offset="0.996094" stop-color="#FF911E"/>
<stop offset="1" stop-color="#FF911E"/>
</linearGradient>
<linearGradient id="paint1_linear_284_7118" x1="9.96296" y1="5" x2="0.999998" y2="5" gradientUnits="userSpaceOnUse">
<stop stop-color="#FB0000"/>
<stop offset="1" stop-color="#FECB00"/>
</linearGradient>
</defs>
</svg>
