<svg width="365" height="407" viewBox="0 0 365 407" fill="none" xmlns="http://www.w3.org/2000/svg">
<g clip-path="url(#clip0_335_179)">
<path d="M183.12 390.18C183.12 390.51 183.12 390.84 183.12 391.18C185.14 395.01 183.22 397.77 180.11 399.32C173.45 402.63 166.4 404.75 158.78 404.1C151.33 403.14 143.89 403.23 136.45 404.08C130.69 404.79 125.23 403.42 119.95 401.41C115.99 399.91 113.22 397.19 112.96 392.62C114.15 385.16 113.96 377.68 113.19 370.2C105.82 366.37 105.29 359.17 104.17 352.18C103.26 346.51 103.22 340.59 100.17 334.13C96.97 343.16 94.05 350.97 91.45 358.89C89.4 365.15 86.3 370.24 79.61 372.38C76.32 373.43 76.79 374.71 79.39 376.43C83.12 378.9 86.82 381.53 88.23 386.16C89.28 389.27 89.67 392.44 89.79 395.74C89.91 399.02 89.06 401.51 86.29 403.28C83.89 406.13 79.89 404.06 77.26 406.21C71.27 406.92 65.27 406.82 59.27 406.25C50.88 406.33 42.76 404.26 34.53 403.03C29.65 402.3 25.03 396.55 25.46 391.47C25.95 385.68 27.18 379.95 27.89 374.17C28.36 370.38 29.57 366.59 26.12 363.09C24.3 361.24 24.24 358.04 24.23 355.26C23.04 353.59 23.5 351.76 23.79 349.99C24.93 343 25.33 335.9 26.92 328.98C28.68 325.95 27.84 322.63 27.95 319.42C28.37 314.63 27.8 310.37 23.78 306.83C20.65 304.07 20.86 300.05 21.47 296.11C22.68 288.34 22.41 287.78 15.52 283.81C7.93005 279.44 1.09005 274.2 0.450046 264.75C0.100046 259.57 -0.259954 254.21 0.220046 249.04C1.46005 235.62 4.45005 222.51 8.77005 209.72C9.20005 208.45 9.78005 207.26 10.86 206.39C15.14 204.71 16.95 207.68 18.79 210.6C17.29 220 13.1 228.72 11.89 238.2C11.69 242.21 10.76 246.12 10.39 250.11C9.72005 252.08 9.69005 254.13 9.74005 256.18C9.58005 260.39 10.85 264.29 12.25 268.17C13.03 270.45 15.03 271.51 16.86 272.73C18.55 273.85 20.37 274.75 22.14 275.73C24.93 277.09 27.95 277.77 30.88 278.72C38.74 281.92 47 283.66 55.27 285.32C66.64 287.86 66.58 287.84 69.4 276.73C70.21 273.53 70.64 270.24 71.53 267.09C72.94 262.08 71.6 259.13 66.25 258.42C60.74 256.18 55.07 254.36 49.61 252.01C47.64 251.16 45.64 250.3 44.56 248.23C43.58 245.37 44.04 242.4 43.88 239.48C44.25 232.55 46.99 226.26 49.27 219.85C50.42 217.77 51.55 215.67 52.31 213.4C52.68 212.48 53.17 211.63 53.73 210.81C54.94 209.04 56.31 207.52 58.72 207.69C61.73 208.28 62.26 210.31 61.73 212.93C61.31 215.05 60.73 217.13 60.39 219.27C60.07 220.7 59.63 222.1 59.34 223.54C58.13 228.88 62.12 226.93 64.51 227.21C66.05 227.08 67.5 226.57 69.02 226.35C73.51 225.92 78 226.2 82.49 226.23C85.65 226.39 88.74 227.44 91.95 227.06C96.02 230.56 98.91 234.81 100.15 240.11C97.77 243.31 98.59 247.1 98.31 250.65C98.11 253.17 100.44 253.43 102.16 253.54C107.73 253.88 113.32 254.48 118.9 253.67C121.03 253.36 123.15 253.05 125.29 253C132.54 252.83 136.26 256.44 136.43 263.76C136.46 265.08 136.46 266.4 136.45 267.72C135.24 273.18 140.58 273.37 143.04 275.89C144.75 283.95 146.91 291.89 149.25 299.78C149.81 301.66 150.42 303.58 149.8 305.59C145.59 306.34 144.57 308.77 145.84 312.69C146.19 313.76 145.31 314.82 144.17 315.36C134.3 318.03 124.13 318.54 114.06 318.68C90.16 319.01 66.18 319.9 42.55 314.83C39.64 314.21 38.14 315.39 37.88 318.36C36.86 330.11 35.22 341.79 33.91 353.51C33.3 358.92 34.47 360.38 39.68 361.55C49.6 363.78 59.63 365.08 69.82 364.81C79.16 364.56 81.84 362.77 84.46 353.73C86.83 345.56 90.39 337.86 93.1 329.83C93.95 327.32 95.04 324.82 97.73 323.61C102.64 321.41 107.11 323.42 108.42 328.79C110.42 337.03 111.57 345.44 113.06 353.78C114.31 360.79 116.14 362.61 123.28 362.7C131.73 362.8 140.23 363.6 148.62 361.77C151.25 361.2 153.8 360.54 155.76 358.53C160.29 355.06 157.3 351.34 156.12 347.68C154.75 341.43 156.59 335.27 156.64 329.06C156.67 325 156.86 320.85 150.52 322.08C148.67 322.44 147.18 320.94 146.75 318.89C148.6 315.57 150.12 311.91 155.16 312.9C157.48 313.36 158.08 315.1 159.23 316.71C160.83 318.97 163.25 320.61 164.84 322.97C165.83 329.42 164.92 335.93 165.4 342.4C165.38 346.09 163.94 349.67 164.5 353.4C164.02 357.47 164.85 361.65 163.25 365.64C162.37 367.84 163.82 368.97 165.68 369.77C168.71 371.08 171.83 372.22 174.74 373.78C181.83 377.59 185.18 384.31 183.1 390.21L183.12 390.18Z" fill="#1D1E19"/>
<path d="M184.87 111.581C184.62 111.741 184.35 111.841 184.06 111.911C181.09 105.001 182.31 97.9208 183.31 90.8708C183.4 90.2308 184.13 89.9008 184.82 89.8008C184.94 91.8308 185.06 93.8508 185.19 95.8808C185.09 101.111 184.98 106.351 184.88 111.581H184.87Z" fill="#88847F"/>
<path d="M157.08 358.249C156.96 360.119 155.909 361.549 154.229 361.969C142.03 365.059 129.71 365.119 117.33 363.159C113.82 362.609 112.65 360.249 112.11 356.979C110.57 347.549 108.86 338.149 107.03 328.769C106.66 326.859 106.6 324.219 103.41 324.329C100.36 324.439 96.9895 323.479 95.5095 327.619C91.9595 337.579 87.8595 347.369 84.7995 357.479C82.7195 364.349 77.8395 365.879 71.9995 366.169C60.0395 366.749 48.2895 365.069 36.6495 362.339C33.4195 361.579 32.0395 359.859 32.3595 356.769C33.4595 346.279 34.6695 335.809 35.8195 325.329C36.1795 322.049 36.3395 318.749 36.8295 315.499C37.1595 313.329 37.9895 312.299 40.8795 312.959C66.4995 318.789 92.5695 317.479 118.53 317.199C127.38 317.099 136.21 315.379 145.05 314.399C146.46 315.349 147.08 316.689 147.02 318.369C148.4 320.939 150.28 321.969 153.1 320.469C156.07 318.879 156.929 320.339 157.539 323.179C158.279 326.659 158.49 330.219 157.82 333.509C156.81 338.469 157.25 343.379 157.06 348.309C158.29 351.629 158.82 354.949 157.06 358.269L157.08 358.249Z" fill="#33322D"/>
<path d="M147.039 318.361C145.799 317.331 145.239 315.951 145.069 314.391C144.909 313.121 145.169 311.551 144.509 310.661C143.209 308.921 143.169 307.421 144.409 305.861C146.159 303.651 147.509 306.101 149.049 306.381C151.619 306.761 151.549 312.501 154.859 310.011C157.199 308.251 154.069 305.261 153.839 302.741C153.609 300.221 151.159 297.961 152.949 295.181C155.419 294.151 157.109 296.061 159.109 296.781C161.399 298.531 161.609 301.331 162.639 303.721C163.209 305.041 163.629 306.941 165.619 306.181C167.459 305.481 167.039 303.691 166.419 302.331C163.519 296.011 161.389 289.411 159.079 282.881C158.319 280.721 157.249 278.611 157.459 276.191C157.599 275.661 157.889 275.261 158.339 274.961C161.429 274.131 164.119 275.201 166.699 276.721C168.999 279.301 169.239 282.771 170.659 285.501C170.639 276.681 170.699 267.571 170.629 258.461C170.609 255.591 170.479 252.701 167.139 251.451C166.519 251.211 165.919 250.981 165.289 250.781C160.359 249.261 159.879 247.551 163.279 243.691C163.819 243.081 164.339 242.441 165.039 241.991C169.749 241.271 171.199 238.391 170.739 233.901C170.509 231.621 170.329 229.291 170.559 226.971C174.139 223.281 174.849 226.991 175.519 229.171C176.339 231.841 176.629 234.621 179.999 235.351C181.519 236.971 181.259 239.031 181.419 240.991C181.599 243.191 180.729 245.931 183.739 246.931C186.629 247.891 190.199 248.791 192.239 246.321C198.659 238.541 208.689 241.331 216.349 237.431C224.049 239.751 232.739 236.641 239.939 242.611C244.109 246.061 249.889 243.921 254.939 243.871C258.229 243.841 261.519 243.191 264.839 243.001C270.209 242.701 271.369 240.851 271.389 234.691C271.399 229.901 268.889 228.911 264.749 228.931C246.169 229.031 227.579 228.931 208.999 228.991C203.499 229.011 198.089 228.481 192.719 227.321C190.359 223.981 192.759 222.161 194.969 220.271C195.559 220.111 196.159 220.051 196.769 220.081C210.849 220.081 224.919 220.081 238.999 220.081C250.269 220.361 261.549 219.521 272.809 220.531C276.049 222.941 278.069 222.441 280.339 218.721C284.599 211.731 289.839 205.341 294.159 198.391C296.129 195.211 298.229 194.001 301.699 194.791C305.619 199.891 305.049 206.251 300.489 208.461C299.869 208.481 299.069 207.951 298.619 208.461C293.839 213.961 289.019 219.451 286.679 226.551C293.249 230.741 299.109 228.441 300.539 221.101C300.829 219.601 301.139 218.031 302.749 217.561C304.499 217.051 305.429 218.301 306.069 219.761C306.529 221.971 305.519 224.341 306.769 226.471C317.969 226.451 329.169 226.441 340.369 226.421C347.789 225.881 355.209 225.711 362.629 226.511C362.949 226.841 363.259 227.171 363.579 227.501C364.329 232.521 364.309 237.541 363.589 242.561C363.249 243.551 362.589 244.211 361.589 244.521C354.569 245.301 347.559 245.241 340.539 244.551C340.159 244.301 339.779 244.061 339.409 243.811C338.849 242.581 337.729 243.001 336.819 243.001C327.389 242.971 317.969 242.981 308.539 243.001C307.579 243.001 306.529 242.741 305.779 243.661C303.249 245.071 300.959 245.291 297.789 244.771C291.999 243.801 285.919 244.541 279.969 244.681C279.289 244.701 278.279 245.301 278.009 245.891C275.799 250.771 271.499 251.411 266.929 251.591C263.619 252.681 260.089 251.191 256.789 252.471L256.889 252.601C251.839 252.411 246.779 251.911 241.839 253.491C238.769 257.811 238.559 263.501 234.609 267.511C229.429 272.771 223.449 275.971 216.089 276.381C214.839 276.451 213.919 276.921 212.979 277.551C208.899 277.551 204.759 276.711 200.759 278.221C193.919 279.571 187.079 280.891 180.059 280.521C177.789 284.341 179.319 288.471 179.099 292.461C178.169 295.321 178.359 298.461 176.299 301.071C175.559 302.011 175.659 304.091 176.109 305.401C177.589 309.671 175.329 311.801 171.919 313.181C169.549 314.141 166.899 314.401 164.979 316.341C163.759 318.191 165.279 320.491 163.999 322.331C160.559 322.221 159.689 318.931 158.079 316.971C154.819 312.971 152.619 312.571 149.829 316.701C149.109 317.771 148.249 318.291 147.029 318.361H147.039Z" fill="#1D1D19"/>
<path d="M92.2297 227.47C89.2497 230.23 86.2197 227.31 83.2197 227.54C79.5597 226.15 75.9697 224.67 71.8497 225.15C66.9397 225.72 63.3197 222.25 63.5197 217.18C63.6097 214.86 63.2697 212.55 63.4297 210.27C63.7497 205.62 63.2897 201.96 57.1897 203.48C57.6397 204.86 59.9397 206.32 58.2897 208.58C56.0597 208.4 55.6397 210.6 54.3097 211.61C51.9697 210.92 51.0397 208.53 48.8797 207.34C45.8997 205.71 48.6097 203.46 50.0197 201.39C47.8297 200.42 45.7097 199.7 43.9497 198.13C42.0497 196.44 40.6497 198.29 39.4597 199.68C38.2997 201.04 38.7097 201.97 39.8297 203.47C41.8997 206.23 47.3297 208.2 43.0797 213.16C43.0197 213.23 43.0097 213.51 43.1297 213.61C48.5697 218.28 45.7897 222.23 43.1997 227.38C41.7497 230.26 43.6097 234.82 38.5897 236.09C39.7497 240.24 37.0997 244.63 39.4297 248.72C40.1097 249.91 41.7197 251.26 39.9697 252.59C38.5797 253.65 37.1697 252.35 35.7997 251.85C33.9197 251.17 32.9297 249.33 31.0597 247.84C30.7997 250.91 32.1897 252.01 34.3297 252.47C36.9697 253.04 38.5997 254.48 38.0797 257.33C37.6297 259.77 35.7797 260.37 33.5297 260.03C31.2997 259.7 30.3897 260.43 31.0897 262.78C31.6197 264.55 31.7197 266.38 30.9697 268.15C30.7197 268.56 30.3797 268.89 29.9597 269.13C27.4597 269.77 25.0297 270.22 23.5997 267.2C22.4397 264.75 21.1397 266.6 20.0397 267.25C18.1997 268.33 16.3797 270.2 14.3897 267.87C12.6497 265.84 13.3597 263.65 14.5197 261.41C17.3197 255.98 19.4197 250.39 18.6597 244.02C18.1397 239.62 21.1997 236.87 26.0997 236.59C22.6597 236.49 18.9697 235.94 15.5097 238.22C14.0297 239.2 11.9597 238.97 10.4297 237.53C12.6197 228.41 14.8597 219.32 18.3597 210.59C17.7797 209.13 18.1597 207.71 18.4797 206.28C20.2197 202.9 20.7797 198.83 24.1097 196.36C27.4897 198.87 31.4397 197.26 33.7097 192.03C34.6897 189.76 35.4597 188.34 38.2997 187.71C40.0797 187.31 44.0197 185.31 40.3797 181.77C39.3597 180.78 39.8597 179.51 40.7297 178.65C41.9797 177.42 42.6997 176.04 42.6897 174.28C44.4397 170.79 47.1897 169.02 51.1697 169.39C50.8697 173.34 51.7697 175.44 56.3497 173.38C58.1797 172.56 59.2597 174.17 58.6697 175.91C57.1197 180.45 57.6097 185.5 55.1197 189.76C54.2397 191.26 53.0697 192.71 55.6797 193.59C57.9397 194.36 59.7297 193.91 59.9597 191.19C60.1997 188.44 61.3897 186.12 62.8297 183.89C64.0697 181.98 65.3697 179 67.7997 179.9C70.3297 180.84 69.0597 183.87 68.8097 185.98C68.8897 185.88 69.1397 185.36 69.2697 185.39C75.7597 187.03 78.3797 179.94 83.7297 178.98C85.3697 178.68 86.3897 177.05 87.9397 176.41C89.0197 176.15 89.7997 176.62 90.4497 177.42C91.4764 180.313 93.0597 180.617 95.1997 178.33C96.4997 177.8 97.4997 178.25 98.3597 179.25C100.11 184.94 104.29 182.99 108.06 182.32C110.75 184.2 112.92 182.51 115.16 181.27C115.62 181.22 116.06 181.3 116.47 181.49C120.73 184.39 124.28 184.46 127.68 181.71C128.04 181.42 128.46 181.3 128.92 181.31C130.29 182.14 131.86 182.08 133.37 182.34C136.88 185.01 141.96 185.16 145.15 182.59C146.75 181.3 144.55 179.41 145.7 177.98C146.58 176.84 147.7 176.7 148.96 177.24C150.38 181.92 154.51 183.82 158.17 186.2C159.32 187.7 158.71 189.39 158.65 191.02C158.54 194.1 159.49 195.69 162.75 193.86C164.26 193.01 165.74 192.38 167.44 193.34C170.38 197.25 171.47 201.85 172.39 206.53C171.3 208.49 169.69 209.43 167.41 209.03C165.84 208.2 167.51 204.59 164.18 205.28C162.11 205.19 160.12 205.7 158.13 206.01C157.99 206.38 156.4 204.96 157.35 206.62C157.61 207.09 158.28 207.35 158.6 207.89C158.97 208.85 158.93 209.79 158.38 210.68C157.45 211.61 156.29 211.94 155.03 212.01C150.12 208.59 149.77 205.85 153.72 201.27C152.42 200.71 150.75 201.31 149.76 199.96C148.76 198.87 148.56 195.25 146.09 198.81C143.49 196.73 141.15 193.86 137.21 195.97C132.65 193.47 130.89 196.82 129 199.9C124.51 199.68 120.73 197.04 116.42 196.23C114.83 194.19 112.31 193.65 109.98 192.33C111.47 193.71 113.89 194.22 113.31 196.82C109.69 199.24 105.75 200.93 101.57 202.08C99.9697 201.72 98.8597 201.03 99.1997 199.08C99.4897 197.44 98.9097 195.72 97.2297 195.79C95.2797 195.87 96.0497 198.12 95.6497 199.37C94.8297 201.96 97.5297 202.9 98.5097 204.66C98.3097 208.2 96.4897 211.01 94.4297 213.71C92.0497 212.637 91.5964 210.46 93.0697 207.18C88.5997 211.44 88.6097 214.1 93.1197 219.51C93.6297 222.25 94.2397 225 92.2297 227.46V227.47Z" fill="#33322E"/>
<path d="M127.459 261.779C128.689 264.709 128.039 267.659 128.079 270.469C128.119 273.379 128.539 275.929 131.949 276.399C134.499 276.749 134.469 278.879 134.899 280.449C136.929 287.769 138.689 295.159 140.669 302.489C141.519 305.629 140.679 306.979 137.279 307.439C116.829 310.199 96.2695 309.749 75.7695 309.179C62.3095 308.799 48.8295 307.099 35.6095 304.199C33.4995 303.739 30.7695 303.239 30.4295 300.319C30.0195 296.839 30.2595 293.279 31.9795 290.199C32.6595 288.969 34.4795 290.239 35.6395 290.529C43.8095 292.529 51.9595 294.579 60.2795 295.909C60.5995 295.959 60.9295 296.269 61.2195 296.209C70.0195 294.529 77.4895 299.669 85.6895 300.899C91.2095 301.729 96.9495 301.569 102.559 301.229C106.479 300.989 109.769 297.929 110.679 294.659C112.049 289.699 116.029 285.859 116.179 280.559C116.239 278.439 117.989 278.399 119.289 277.939C125.679 275.689 127.839 271.929 126.499 265.149C126.279 264.049 125.739 262.919 127.479 261.789L127.459 261.779Z" fill="#34332E"/>
<path d="M94.0299 213.57C94.7599 210.26 96.7499 207.55 98.3799 204.68C98.5999 202.98 99.5499 202.01 101.25 201.79C104.99 199.53 108.89 197.62 113.13 196.49C113.97 195.54 115.05 195.55 116.18 195.75C121.07 194.92 124.76 198.34 129.11 199.39C130.44 198.97 131.53 199.59 132.64 200.16C136.78 202.71 140.18 206.01 142.58 210.27C143.55 211.99 144.62 213.76 143.17 215.76C138.83 216.61 136.22 214.98 134.21 210.87C129.79 201.82 121.96 199.64 111.57 204.52C115 205.19 117.81 205.95 120.67 206.49C125.79 207.45 129.48 210.86 133.48 213.74C134.82 214.7 135.25 216.09 134.35 217.67C133.66 218.22 132.86 218.25 132.02 218.26C126.58 218.33 124.51 220.78 125.53 225.9C126.17 229.12 129.01 231.54 131.75 231.02C134.99 230.4 135.72 227.98 135.76 225.1C135.79 223.31 134.94 221.53 135.7 219.74C138.68 219.12 141.77 220.25 144.74 219.2C145.65 221.45 145.43 223.73 145.04 226.03C143.6 231.38 141.51 236.25 136.75 239.68C134.39 241.38 133.75 244.26 133.32 247.14C132.46 252.84 131.2 253.57 126.19 251.27C125.01 250.73 124.48 251.14 123.6 251.68C118.73 254.65 117.29 254.24 114.24 249.3C113.86 252.16 112.21 253.57 109.31 253.44C106.16 253.3 104.84 251.21 105 248.47C105.24 244.44 102.02 242.41 100.42 239.45C96.4499 236.3 94.5599 231.73 92.1999 227.47C92.1999 224.51 92.2199 221.55 92.2299 218.59C91.9299 216.6 91.9699 214.73 93.9999 213.56L94.0299 213.57Z" fill="#F5E2C0"/>
<path d="M10.4303 237.539C13.1803 237.499 15.4603 236.969 18.1103 235.419C21.2403 233.589 25.6403 235.719 29.5103 236.009C30.2003 236.059 30.3203 237.139 29.9503 237.669C29.1503 238.819 27.9003 238.639 26.8103 238.189C22.3303 236.359 20.9003 239.139 19.8003 242.639C19.4203 243.859 19.3603 244.959 20.2903 245.849C22.4803 247.949 22.9403 249.629 19.4603 250.779C18.3103 251.159 18.3603 252.339 18.4003 253.319C18.5403 256.799 18.5903 260.059 15.2003 262.509C13.7403 263.569 13.8203 266.029 15.2003 267.459C17.0503 269.379 18.1203 267.149 19.1503 266.129C20.6803 264.629 22.5203 264.209 24.4803 263.839C24.627 266.899 26.5936 268.449 30.3803 268.489C31.0503 269.029 31.4703 269.929 32.4303 270.259C31.8603 269.469 30.9003 269.209 30.3803 268.489C30.2503 266.649 30.4203 264.769 29.9903 263.039C28.8203 258.289 28.7303 258.229 33.9503 258.889C35.2203 259.049 36.2403 259.289 36.9203 258.009C37.5003 256.909 37.4703 255.739 36.7803 254.699C36.0403 253.589 34.9703 253.589 33.7003 253.749C31.2403 254.059 30.1203 252.139 29.5703 250.309C29.1403 248.899 28.5303 246.719 30.4603 245.899C32.3003 245.119 32.9603 246.789 33.4403 248.299C34.3703 251.209 37.7303 250.319 39.5903 252.209C37.0103 248.449 36.1603 244.599 37.8503 240.429C38.3003 239.319 37.5803 238.609 37.1503 237.719C36.0303 235.459 35.1203 233.489 39.3803 234.269C42.1703 234.779 42.7603 232.399 42.0203 230.289C41.0603 227.549 40.5903 225.629 43.9403 223.999C46.1803 222.909 45.7403 216.199 43.5203 215.159C42.1803 214.529 39.7503 215.209 40.0703 212.849C40.3703 210.619 43.0203 212.619 44.5303 211.089C41.3303 209.339 41.9703 204.429 37.6003 203.619C36.5103 203.419 36.0503 202.119 36.7303 201.209C38.1903 199.259 39.2903 196.869 41.8303 195.989C43.1203 195.539 44.5903 195.249 45.1803 196.949C45.9003 199.029 47.0203 199.859 49.3003 199.309C50.9003 198.919 51.7303 200.309 52.0803 201.579C52.5003 203.119 51.2503 203.319 50.0603 203.719C47.4403 204.589 48.4703 207.209 49.7603 207.029C53.9303 206.439 53.3303 209.629 54.3203 211.619C53.9803 212.279 53.6303 212.949 53.2903 213.609C51.0903 215.009 50.0903 216.989 50.3303 219.589C48.6403 224.979 47.0003 230.389 45.2003 235.749C44.8503 236.799 44.9703 237.619 45.3003 238.539C41.6603 242.949 41.6603 243.669 45.3603 248.499C52.3303 251.489 59.3103 254.479 66.2803 257.479C68.1903 260.849 65.7703 262.899 63.6203 264.469C61.7303 265.859 59.5303 265.589 60.0603 262.319C60.3203 260.699 60.6403 259.409 58.7203 258.719C57.0403 258.119 55.8003 258.709 54.8603 260.069C52.8403 262.989 49.5703 263.139 45.9403 264.149C49.4303 265.969 49.0403 268.049 46.4503 269.939C44.3003 271.509 44.4003 273.119 46.0703 274.889C48.2703 277.239 49.8303 280.109 53.6403 280.769C56.8503 281.329 58.1803 283.509 55.3003 286.399C46.7203 285.039 38.1703 283.559 30.3503 279.449C27.9803 276.589 24.6903 276.479 21.3703 276.439C19.7103 275.449 18.0503 274.449 16.3803 273.459C15.5403 271.119 13.2803 270.539 11.4203 269.449C9.69029 265.289 8.27029 261.059 8.43029 256.469C9.88029 254.659 9.63029 252.569 9.39029 250.489C9.73029 246.169 10.0803 241.849 10.4203 237.529L10.4303 237.539Z" fill="#34332E"/>
<path d="M100.45 239.45C104.15 240.86 106.55 243.07 106.4 247.49C106.34 249.36 105.57 252.01 108.89 252.54C112.3 253.08 113.17 250.99 113.73 248.35C113.82 247.92 114.29 247.57 114.62 247.12C115.94 249.25 115.62 252.36 119.43 252.59C123.41 252.82 123.15 249.56 124.48 247.6C126.52 247.48 126.06 249.44 126.84 250.34C127.59 251.19 128.07 252.71 129.36 252.32C130.7 251.91 132.19 251.01 132.04 249.19C131.54 243.08 134.43 239.03 139.31 235.64C142.2 233.63 142.26 229.5 144.06 226.56C144.62 225.68 145.36 225.03 146.45 225.1C153.65 225.53 160.9 224.42 168.07 225.67C169.3 226.21 170.16 227.64 169.3 228.35C165.62 231.39 167.14 237.11 163.04 239.9C161.82 240.73 162.25 242.69 161.46 243.96C158.95 246.82 159.83 249.99 160.26 253.31C160.86 257.91 162.05 262.9 157.09 266.24C152.76 267.85 148.12 267.83 143.66 268.75C142.06 268.86 140.51 269.28 138.92 269.52C137.5 269.69 136.19 269.46 135.11 268.44C135.11 267.94 135.11 267.45 135.11 266.95C135.09 255.46 131.38 252.47 119.89 254.72C112.74 256.12 105.62 255.22 98.4898 254.49C96.4298 254.28 95.8398 253.06 96.4298 251.45C97.5098 248.54 97.1898 245.57 97.1398 242.62C97.0998 240.17 98.2598 239.38 100.44 239.45H100.45Z" fill="#34332E"/>
<path d="M66.4392 399.141C56.6392 399.461 46.9792 398.351 37.4592 396.051C33.8292 395.171 31.8192 393.631 33.0692 389.011C34.4792 383.811 34.7492 378.281 35.3192 372.871C35.5592 370.601 36.5992 369.951 38.5892 370.441C48.0792 372.771 57.6892 374.181 67.4792 374.191C68.9692 374.191 70.2492 374.601 70.6192 376.061C71.5692 379.831 74.2392 381.741 77.4992 383.361C80.4992 384.851 81.9692 387.821 82.9292 390.841C84.6992 396.461 82.8392 398.931 76.9092 399.111C73.4192 399.221 69.9292 399.131 66.4392 399.111V399.141Z" fill="#33332D"/>
<path d="M155.081 372.21C156.601 375.72 160.231 376.41 163.041 378.19C163.991 380.69 165.251 382.77 167.871 384.11C170.361 385.38 170.561 387.93 168.011 389.13C164.791 390.65 165.691 392.85 166.031 395.18C165.601 395.99 164.841 396.15 164.021 396.18C162.931 396.92 161.761 397.23 160.461 396.85C157.011 394.29 153.601 394.47 150.231 397.04C148.121 397.14 145.991 397.48 144.081 396.18C138.181 394.23 131.911 395.96 125.941 394.23C122.571 393.26 120.831 391.76 121.071 388.03C121.331 384.07 121.281 380.07 121.071 376.1C120.911 372.97 122.201 372.13 125.141 372.16C132.731 372.24 140.341 372.65 147.881 371.24C149.001 371.03 150.231 371.34 151.061 370.26C153.331 368.99 154.821 369.31 155.061 372.2L155.081 372.21Z" fill="#33322D"/>
<path d="M92.3409 262.29C99.9009 262.68 107.451 263.1 115.011 263.43C117.221 263.53 119.261 263.23 119.261 266.63C119.261 269.74 118.251 271.35 115.101 271.4C113.281 271.43 111.451 271.41 109.631 271.44C106.581 271.49 105.131 272.49 106.991 275.69C108.951 279.07 109.511 282.12 104.881 283.97C103.381 284.57 102.971 285.75 103.611 287.62C105.021 291.79 103.761 293.96 99.4709 294.25C94.0909 294.62 88.6409 294.89 83.3509 293.18C77.8209 291.39 76.1309 288.64 77.3109 283.06C78.6809 276.56 80.0509 270.06 81.4309 263.55C84.7409 260.31 88.6909 262.46 92.3609 262.26L92.3409 262.29Z" fill="#FDD5A5"/>
<path d="M55.2993 286.41C56.4293 283.46 55.6693 281.69 52.2893 281.44C51.0293 281.35 49.1993 282 48.7093 280.5C47.6293 277.16 43.8293 275.86 42.9993 272.5C42.4793 270.39 44.0993 269.71 45.7693 269.12C46.6993 268.79 47.6693 268.06 47.6393 267C47.6093 265.79 46.4593 265.57 45.4493 265.47C44.0993 265.34 43.1193 264.84 43.5793 263.29C44.0793 261.61 45.2493 262.72 46.2293 262.59C49.3293 262.2 52.6693 262.07 54.3993 258.45C56.1293 254.85 58.5193 257.37 60.6893 258.19C63.3593 259.2 62.9193 260.52 61.2193 262.13C60.6093 262.71 60.1993 263.61 61.2193 264.17C61.9993 264.6 62.9493 264.33 63.4293 263.59C64.6593 261.69 66.5993 260.09 66.2693 257.46C66.7693 257.48 67.2793 257.44 67.7493 257.55C74.0993 259.04 74.2693 259.07 73.1593 265.48C72.0093 272.1 70.4993 278.66 69.1193 285.25C68.6493 287.5 67.3093 288.69 64.8893 288.4C61.6293 288.02 58.3793 287.6 55.2993 286.4V286.41Z" fill="#33322E"/>
<path d="M72.0209 236.551C76.6709 236.551 81.3109 236.611 85.9609 236.521C88.2509 236.481 89.4009 237.331 89.2209 239.701C88.8709 244.401 90.9809 249.831 85.2209 252.911C83.7609 253.691 82.5009 254.511 80.6109 253.781C72.3009 250.571 63.9309 247.501 55.5609 244.461C53.0009 243.531 53.2709 241.521 53.3609 239.541C53.4609 237.171 55.0209 236.531 57.0909 236.541C62.0709 236.551 67.0409 236.541 72.0209 236.541V236.551Z" fill="#34332E"/>
<path d="M135.119 268.44C136.449 268.46 137.769 268.47 139.099 268.49C140.649 269.26 141.369 271.39 143.579 271.23C144.349 269.85 141.449 268.93 143.089 267.5C147.739 266.83 152.399 266.15 157.049 265.48C159.979 265.54 161.419 264.12 161.859 261.2C162.319 258.21 163.409 255.6 167.359 257.42C169.829 263.04 169.609 268.37 165.639 273.29C163.209 275.01 160.369 274.05 157.749 274.51C156.509 275.09 153.849 273.86 154.639 276.99C155.729 282.59 158.579 287.82 158.049 293.74C156.179 295.2 154.069 295.06 151.929 294.66C149.859 291.77 149.129 288.51 149.349 285C151.589 279.81 151.179 278.24 147.149 276.82C145.359 276.75 143.549 276.79 142.099 275.48C136.849 276.04 135.129 273.08 135.119 268.44Z" fill="#1D1D19"/>
<path d="M150.1 284.419C150.76 287.749 151.43 291.069 152.09 294.399C152.49 294.659 152.8 294.989 153.05 295.399C154.27 299.469 155.44 303.549 156.72 307.599C157.23 309.219 158.86 310.769 155.69 311.659C153.37 312.319 151.52 312.829 150.44 310.049C149.97 308.829 149.51 307.599 149.04 306.369C148.87 300.559 146.4 295.299 145 289.789C143.8 285.049 142.43 280.369 142.09 275.459C144.08 275.459 146.07 275.449 148.06 275.439C150.74 277.979 150.83 281.099 150.09 284.409L150.1 284.419Z" fill="#33342E"/>
<path d="M58.2897 208.58C58.0897 205.38 55.5997 203.57 53.6797 201.16C57.0597 201.61 60.1097 203.17 63.5297 201.82C64.7997 201.32 65.4397 202.9 64.9097 204.19C63.0297 208.81 65.8897 213.44 64.6097 218.24C63.7397 221.48 68.2697 224.41 71.8897 223.87C76.2397 223.21 80.1597 224.15 83.2297 227.55C78.2397 227.55 73.2497 227.55 68.2597 227.55C66.5997 226.53 65.3397 227.13 64.2697 228.53C63.2897 228.53 62.2997 228.49 61.3297 228.57C56.9697 228.91 56.5097 226.93 58.3097 223.57C58.5497 222.22 64.0897 222.17 59.2997 219.57C58.9197 217.01 59.9697 214.66 60.5997 212.32C61.2597 209.88 60.5797 208.88 58.2797 208.58H58.2897Z" fill="#34332E"/>
<path d="M166.04 395.18C163.37 392.61 161.06 390.12 166.93 388.66C167.84 388.43 168.89 387.88 168.84 386.66C168.78 385.22 167.49 384.73 166.44 384.49C162.77 383.67 162.16 381.36 163.05 378.18C167.24 378.67 170.43 381.37 174.01 383.2C176.65 384.95 177.68 387.17 176.04 390.16C174.54 395.49 170.05 394.85 166.04 395.17V395.18Z" fill="#33332D"/>
<path d="M19.3806 206.61C19.5406 208.07 19.0906 209.37 18.3606 210.6C15.9506 209.56 14.9406 206.16 11.6406 206.62C13.0306 201.78 15.5206 197.47 18.1806 193.25C21.5206 194.54 21.6306 197.15 21.0406 200.11C20.6006 202.31 18.9306 204.2 19.3806 206.62V206.61Z" fill="#1D1E19"/>
<path d="M155.079 372.21C154.299 370.43 152.809 370.1 151.079 370.27C150.989 368.72 151.179 367.27 152.689 366.42C154.409 365.46 155.619 362.29 157.929 364.01C160.589 366 157.759 367.61 156.669 369.25C156.049 370.18 155.599 371.22 155.079 372.21Z" fill="#1D1D19"/>
<path d="M160.04 396.14C161.37 396.15 162.7 396.17 164.02 396.18C163.48 397.28 162.66 398.09 161.38 398.09C156.49 398.12 151.6 398.13 146.72 398.09C145.45 398.09 144.63 397.28 144.08 396.18C146.41 396.17 148.74 396.15 151.06 396.14C154.05 394.33 157.04 394.63 160.03 396.14H160.04Z" fill="#1D1D19"/>
<path d="M45.3494 248.499C42.0394 248.069 41.3694 245.859 41.2694 242.929C41.1794 239.959 42.7094 238.859 45.2894 238.539C45.3094 241.859 45.3294 245.179 45.3494 248.499Z" fill="#33322E"/>
<path d="M21.3691 276.45C25.1791 275.03 28.8391 274.03 30.3491 279.46C27.1391 279.11 24.1191 278.19 21.3691 276.45Z" fill="#33322E"/>
<path d="M59.2999 219.58C60.7199 219.14 62.7399 217.38 63.0999 220.3C63.5299 223.81 60.6599 223.56 58.3099 223.58C58.1199 222.12 58.5899 220.82 59.2999 219.58Z" fill="#33322E"/>
<path d="M157.08 358.249C157.08 354.929 157.08 351.609 157.08 348.289C160.15 351.949 160.15 356.569 157.08 358.249Z" fill="#1D1D19"/>
<path d="M50.3197 219.58C49.5697 219.29 47.6197 219.17 48.2297 218.79C51.4697 216.7 49.3597 214.44 48.4597 212.09C50.5797 212.04 51.1497 215.28 53.2797 213.6C52.8997 215.89 51.9297 217.9 50.3197 219.58Z" fill="#33322E"/>
<path d="M176.04 390.17C176.36 387.56 175.19 385.38 174.01 383.21C175.09 381.83 177.24 382.26 177.06 383.14C176.61 385.47 180.29 388.51 176.04 390.17Z" fill="#1D1D19"/>
<path d="M92.3401 262.29C88.7801 263.38 84.8002 261.01 81.4102 263.58C81.4702 260.65 83.6601 261.34 85.2701 261.5C87.6301 261.72 90.1201 260.88 92.3401 262.3V262.29Z" fill="#FDD5A5"/>
<path d="M9.38938 250.5C12.0794 252.98 10.7794 254.81 8.42938 256.48C8.70938 254.48 7.60938 252.26 9.38938 250.5Z" fill="#33322E"/>
<path d="M11.4297 269.46C14.3197 269.27 16.6897 269.71 16.3897 273.47C14.4397 272.5 12.3897 271.66 11.4297 269.46Z" fill="#33322E"/>
<path d="M64.2698 228.53C64.2998 227.11 64.1298 225.37 65.8998 225.04C67.5198 224.74 67.5698 226.59 68.2498 227.55C67.0098 228.24 65.7198 228.73 64.2598 228.53H64.2698Z" fill="#33322E"/>
<path d="M98.1907 179.7C97.1907 179.37 96.2006 179.04 95.2006 178.7C93.2006 180.07 91.6006 179.4 90.2106 177.7C89.5406 177.37 88.8806 177.03 88.2106 176.7C84.0506 178.02 80.6306 175.49 76.9306 174.49C75.8306 174.19 74.6607 173.85 73.7307 173.21C66.8007 168.44 59.4806 166.44 51.3106 169.69C48.1606 170.57 45.1106 171.61 43.3206 174.67C37.4406 180.83 31.2206 186.71 26.9606 194.23C26.6306 194.82 25.9106 194.98 25.2206 194.92C23.2306 193.66 20.8007 193.2 19.0407 191.52C26.3907 177.35 37.2006 166.86 52.1006 160.88C55.3306 159.58 56.2006 158.55 53.2206 155.84C46.9606 150.13 43.0206 142.78 39.5706 135.19C38.4706 132.77 37.1106 131.39 34.3906 131.68C30.4206 130.57 26.2806 132 22.3106 130.86C18.9606 131.22 15.9206 130.19 12.9006 128.85C4.41065 125.08 2.55065 119.67 6.37065 111.23C8.74065 106 10.4906 100.47 11.1906 94.69C13.0806 91.58 11.0006 88.01 12.3306 84.83C12.4006 36.59 53.0206 2.51 96.0906 0C101.811 0 107.531 0 113.251 0C120.941 1.43 128.991 1.29 136.101 5.23C137.731 9.94 137.261 10.61 131.731 11.42C128.601 11.53 125.611 10.54 122.541 10.24C120.741 9.88 118.951 9.41 117.091 9.41C107.311 9.57 97.4607 8.55 87.7607 10.37C66.6007 14.33 48.6306 23.68 35.9406 41.7C33.1706 45.63 30.1707 49.42 28.3407 53.94C27.6307 55.34 26.8607 56.7 26.5107 58.25C23.0307 69.19 20.8506 80.32 20.6406 91.87C20.5006 99.35 18.4906 106.58 15.5806 113.52C13.4806 118.55 14.2706 119.84 19.6006 121.06C28.1107 123.01 36.7407 122.22 45.3307 122.39C46.6107 122.44 47.8206 122.03 49.0506 121.81C52.3806 121.46 55.4806 120.37 58.4506 118.87C64.8006 115.71 68.6406 110.07 72.6406 104.57C73.9406 102.9 75.5006 101.47 76.9306 99.91C82.1906 93.86 88.6106 89.7 96.4706 87.88C99.8106 86.62 103.401 86.51 106.831 85.68C108.611 85.47 110.331 84.94 112.101 84.69C113.131 84.55 114.171 84.55 115.211 84.52C117.581 84.49 119.841 83.7 122.191 83.57C123.791 83.47 125.391 83.49 126.991 83.49C129.171 83.47 131.261 82.83 133.421 82.58C136.211 82.31 139.011 82.54 141.811 82.48C144.341 82.48 146.841 82.26 149.311 81.67C152.501 81.3 155.701 81.43 158.901 81.42C160.381 81.57 161.901 81.57 163.171 82.54C164.901 85.39 164.761 88.17 162.801 90.86C161.731 91.85 160.371 92.22 159.041 92.66C146.031 94.06 132.921 94.1 119.871 95.05C113.891 95.49 107.991 96.09 102.151 97.43C94.5907 99.16 88.3806 102.87 83.7106 109.22C80.1706 114.03 76.2507 118.55 72.3007 123.04C70.7907 124.76 69.6307 126.48 70.9807 128.82C79.8107 144.12 90.1906 157.91 106.601 165.95C121.691 173.34 136.581 173.58 151.291 164.92C152.581 164.16 153.821 163.3 155.401 163.3C158.171 165.58 156.271 167.2 154.551 168.74C152.951 170.17 150.551 170.22 148.411 172.33C151.721 172 153.831 167.25 156.971 170.92C158.851 173.12 161.971 174.05 162.911 177.3C163.621 179.75 166.971 180.11 167.861 182.61C168.061 182.85 168.141 183.12 168.081 183.43C169.181 186.6 168.511 188.81 164.831 189.36C163.481 189.14 162.531 188.27 161.631 187.35C159.741 184.84 157.831 182.35 155.671 180.06C153.861 178.14 151.791 177.01 149.061 177.62C147.971 177.68 146.791 177.45 146.061 178.61C142.361 181.22 138.031 181.38 133.751 181.75C132.211 181.57 130.641 182.17 129.101 181.61C128.771 181.61 128.441 181.62 128.111 181.64C124.121 183.84 120.131 183.82 116.141 181.64C115.811 181.64 115.471 181.64 115.141 181.64C112.731 183.01 110.311 181.8 107.891 181.7C104.451 181.99 101.121 181.72 98.1806 179.66L98.1907 179.7Z" fill="#1D1E19"/>
<path d="M19.0299 191.53C21.6699 191.49 24.1299 191.83 25.3699 194.65C25.8599 195.73 25.2599 196.25 24.3599 196.62C22.6999 199.95 21.0399 203.28 19.3699 206.61C17.2099 204.8 19.0699 202.81 19.5599 201.29C20.5699 198.17 20.2399 195.65 18.1699 193.24C18.1899 192.54 18.2599 191.86 19.0299 191.53Z" fill="#1D1E19"/>
<path d="M22.3008 130.861C26.3508 130.791 30.4308 130.251 34.3808 131.681C30.3208 131.921 26.2508 132.331 22.3008 130.861Z" fill="#68655F"/>
<path d="M298.869 207.611C301.479 207.891 302.939 207.091 302.749 204.091C302.539 200.971 302.979 197.801 301.709 194.811C305.689 194.111 305.869 196.711 305.819 199.531C306.229 206.231 306.779 212.921 305.539 219.591C302.619 217.131 301.479 218.381 301.749 221.601C302.059 225.331 301.009 228.041 297.209 229.241C292.799 230.631 287.199 229.411 284.779 226.501C286.919 224.751 289.489 225.271 291.939 225.151C293.749 225.071 295.609 225.291 297.219 224.191C299.549 219.741 298.209 215.141 297.859 210.591C297.759 209.441 297.889 208.371 298.879 207.611H298.869Z" fill="#1F1F1B"/>
<path d="M305.801 243.681C306.151 243.351 306.491 242.761 306.851 242.741C317.381 242.291 327.921 242.371 338.451 242.831C338.791 242.841 339.101 243.491 339.421 243.831C328.211 243.291 317.011 243.421 305.801 243.671V243.681Z" fill="#64615B"/>
<path d="M167.879 182.651C165.529 180.381 160.839 180.681 161.009 175.471C161.079 173.351 157.279 173.661 155.769 171.521C153.509 168.291 152.659 172.541 151.059 173.151C149.699 173.671 148.409 174.951 147.169 173.211C145.579 170.971 148.209 171.081 148.999 170.141C150.199 168.721 152.129 169.451 153.519 168.481C155.309 167.231 156.329 165.741 155.979 163.501C155.719 161.781 156.769 160.601 157.879 159.651C169.949 149.281 172.559 134.891 174.679 120.291C174.869 118.981 174.859 117.641 175.179 116.331C176.019 112.871 175.559 109.361 175.579 105.871C175.579 103.101 175.489 100.321 175.629 97.5607C175.819 93.9107 174.509 91.9307 170.599 92.3107C167.729 91.9007 164.589 93.1207 162.039 90.8707C163.589 88.3707 162.879 85.5807 163.039 82.9107C163.409 81.7507 164.309 81.2107 165.409 80.8907C167.749 80.4107 170.119 80.6307 172.469 80.5507C173.949 80.4907 175.409 80.2307 176.859 79.9007C179.159 79.6107 181.459 79.3307 183.699 78.6507C185.969 77.9607 186.259 76.6407 184.719 75.0207C178.429 68.4507 176.229 59.9107 172.949 51.7907C170.489 45.7007 167.829 39.5807 164.169 34.0307C163.299 31.9307 160.929 30.7207 160.669 28.2507C160.299 25.4207 159.999 22.5207 155.859 23.5307C154.239 23.8207 153.239 23.0707 152.649 21.6307C152.459 18.5107 150.179 18.2407 147.809 18.0907C145.229 17.6707 143.069 16.2307 140.729 15.2007C139.669 14.7007 138.579 14.2807 137.449 13.9507C135.349 12.6407 131.899 13.5107 131.109 10.0607C134.889 10.6307 136.819 9.2807 136.109 5.2207C143.549 5.5407 149.569 9.6307 155.389 13.4207C164.949 19.6507 171.749 28.4607 177.119 38.6907C181.329 46.7207 182.619 55.8307 187.519 63.5607C189.509 66.6907 192.119 69.0207 194.649 71.4707C197.539 74.2707 199.819 77.3807 198.789 81.3707C197.839 85.0307 194.589 86.2707 190.909 87.0707C188.909 87.5107 186.319 87.7207 184.819 89.7707C183.279 97.1007 184.129 104.501 184.069 111.881C181.739 117.321 182.889 123.191 182.239 128.821C180.399 144.801 173.659 157.931 161.589 168.201C158.659 170.691 159.189 171.381 161.459 173.491C164.189 176.041 167.069 178.651 167.899 182.621L167.879 182.651Z" fill="#1D1E1A"/>
<path d="M194.911 219.739C194.951 220.009 194.981 220.269 195.001 220.539L194.931 220.599C192.261 222.249 188.841 221.949 186.301 224.099C185.291 224.959 183.541 224.819 182.531 223.999C178.651 220.849 174.871 222.819 170.821 223.559C162.941 224.999 154.951 226.229 146.891 224.619C146.061 224.449 145.341 224.079 144.891 223.319C144.961 220.779 145.931 218.899 148.601 218.269C150.411 218.479 152.201 223.309 154.051 218.289C155.071 216.999 158.241 218.319 157.761 215.209C157.461 213.639 156.711 212.049 158.031 210.589C158.031 209.589 158.031 208.589 158.031 207.599C157.451 206.929 157.531 206.279 158.071 205.639C159.801 203.829 161.821 203.689 164.021 204.639C165.241 205.539 165.591 206.929 166.031 208.259C167.231 210.619 167.981 213.189 169.381 215.449C169.831 216.169 170.411 216.849 171.371 216.609C172.621 216.299 172.601 215.269 172.551 214.239C172.421 211.699 170.181 209.299 171.991 206.619C170.321 202.289 168.651 197.969 166.981 193.639C166.701 193.189 166.761 192.789 167.141 192.439C172.021 193.289 174.201 197.419 177.121 200.639C178.881 206.539 180.621 212.449 182.441 218.329C182.521 218.569 183.341 218.589 183.811 218.709C187.381 220.369 191.221 219.159 194.891 219.739H194.911Z" fill="#1D1D19"/>
<path d="M177.129 200.641C173.749 197.981 170.369 195.321 166.989 192.651C164.199 192.651 163.609 191.021 164.049 188.651C167.839 188.831 167.249 185.591 168.099 183.471C171.489 185.401 172.389 189.061 173.949 192.191C175.289 194.871 176.089 197.811 177.129 200.641Z" fill="#1D1E1A"/>
<path d="M191.97 226.55C217.12 228.52 242.32 227.24 267.5 227.48C271.51 227.52 272.87 229.21 272.77 232.82C272.77 233.15 272.77 233.48 272.77 233.82C272.93 243.82 272.36 243.99 262.2 244.66C256.1 245.06 249.99 245.23 243.91 245.68C241.38 245.87 239.87 245.27 238.36 243.55C235.66 240.48 232.53 238.86 228.28 240.42C226.62 241.03 224.97 240.82 223.15 239.87C219.05 237.74 214.79 237.95 211.06 240.94C209.75 242 208.69 242.12 207.05 241.79C202.36 240.85 198.28 242.1 195.04 245.9C191.89 249.59 185.07 250.6 181.1 248.22C179.63 247.34 180.14 245.93 179.97 244.68C179.54 241.64 180.97 238.4 178.99 235.53C175.51 228.25 177.64 225.05 185.98 225.07C188.09 225.07 190.26 224.85 191.96 226.55H191.97Z" fill="#34332E"/>
<path d="M220.89 253.79C221.49 255.72 219.34 259.58 223.91 259.37C227.5 259.21 228.73 256.5 228.94 253.14C229.03 251.62 227.98 249.71 229.73 248.63C231.74 247.39 234.4 249.62 233.8 252.5C232.53 258.66 230.76 264.64 224.03 267.39C218.66 269.59 213.04 270.74 207.37 271.35C203.22 271.8 199.77 269.55 197.45 266.08C196.41 264.52 195.58 262.98 197.23 260.76C198.7 258.77 198.84 255.84 199.75 253.39C200.69 250.85 202.69 249.01 205.35 249.86C207.88 250.67 207.52 253.34 206.89 255.43C206.16 257.83 206.26 259.81 208.99 260.51C211.79 261.22 212.7 258.67 213.62 256.94C214.25 255.75 213.97 254.02 213.9 252.54C213.78 249.68 213.77 247.42 217.87 247.43C222.44 247.43 220.55 250.48 220.88 252.55C220.93 252.87 220.88 253.21 220.88 253.81L220.89 253.79Z" fill="#FAD5A7"/>
<path d="M191.969 226.551C190.669 226.551 189.369 226.561 188.059 226.561C182.013 226.561 178.993 229.551 178.999 235.531C176.079 236.501 175.219 235.441 174.819 232.401C174.539 230.241 176.059 225.931 170.999 226.561C170.349 227.181 169.679 227.141 169.019 226.581L144.059 226.551C144.019 223.901 143.979 221.251 143.949 218.591C143.469 217.721 143.509 216.971 144.409 216.391C147.389 218.061 145.609 220.321 145.159 222.421C149.409 223.431 153.369 224.891 158.119 223.891C164.579 222.531 171.409 222.941 177.629 220.211C179.409 219.431 179.799 220.991 180.829 221.641C182.919 222.971 184.859 225.201 187.429 221.591C189.069 219.281 192.389 220.911 194.939 220.581C193.949 222.561 192.969 224.551 191.979 226.531L191.969 226.551Z" fill="#1C1D18"/>
<path d="M158.02 293.41C156.38 287.76 154.73 282.1 153.09 276.45C154.73 274.96 156.38 275.21 158.02 276.45C161.48 285.01 163.72 294.03 167.85 302.35C168.96 304.57 169.3 306.7 166.11 307.86C162.52 309.17 162.32 306.5 161.54 304.38C160.69 302.06 159.85 299.73 159.01 297.4C157.96 296.25 156.78 295.13 158.01 293.41H158.02Z" fill="#33342E"/>
<path d="M165.01 273.45C167.65 268.38 167.94 263.01 167 257.49C165.34 255.16 165.2 252.83 167.03 250.51C170.78 249.79 171.82 252.41 171.86 255.11C172.03 266.91 171.93 278.71 171.08 290.7C169.4 286.28 167.73 281.86 166.05 277.44C165.36 276.2 164.25 275.07 165.01 273.45Z" fill="#33342E"/>
<path d="M185.2 272.461C181.16 273.411 179.31 271.541 179.95 266.851C180.2 265.061 179.92 263.201 180.01 261.381C180.11 259.231 179.15 256.271 183.03 256.541C186.25 256.771 189.54 257.011 189 261.741C188.79 263.541 189.06 265.321 189.69 267.111C191.58 272.451 191.5 272.481 185.19 272.461H185.2Z" fill="#33332E"/>
<path d="M167.031 250.511C167.021 252.841 167.011 255.161 167.001 257.491C164.041 257.291 162.881 258.781 163.031 261.621C163.291 266.361 161.181 267.511 157.051 265.471C160.511 261.241 159.681 256.501 158.651 251.741C157.961 248.561 156.691 245.221 161.041 243.511C162.201 242.491 163.431 241.761 165.031 242.551C164.721 243.291 164.601 244.231 164.071 244.741C162.981 245.781 161.551 246.601 162.261 248.401C163.001 250.271 164.601 248.761 165.711 249.151C166.241 249.341 166.591 250.051 167.031 250.521V250.511Z" fill="#1D1E19"/>
<path d="M165.031 242.55C163.781 243.19 162.491 243.7 161.041 243.51C161.901 241.51 158.761 237.26 164.241 237.83C164.421 237.85 164.861 237.29 164.821 237.22C161.671 231.86 168.731 230.56 169.031 226.59C169.691 226.59 170.351 226.58 171.011 226.57C172.941 230.8 172.221 235.31 171.791 239.59C171.421 243.32 167.671 242.34 165.031 242.55Z" fill="#34332E"/>
<path d="M321.891 233.56C325.861 233.56 329.831 233.54 333.791 233.57C334.911 233.58 336.361 233.45 336.311 235.14C336.281 236.43 335.08 236.51 334.08 236.51C325.81 236.52 317.551 236.53 309.281 236.51C308.291 236.51 307.09 236.48 307.02 235.18C306.92 233.46 308.38 233.58 309.49 233.57C313.62 233.53 317.761 233.55 321.891 233.55V233.56Z" fill="#333530"/>
<path d="M350.9 237.53C349.74 237.53 348.58 237.55 347.43 237.53C346.03 237.5 344.68 237.33 344.77 235.44C344.86 233.54 346.31 233.58 347.65 233.56C349.8 233.54 351.95 233.54 354.1 233.56C355.69 233.58 357.34 233.93 357.3 235.84C357.26 238.16 355.21 237.36 353.88 237.51C352.9 237.62 351.9 237.53 350.9 237.52V237.53Z" fill="#33342E"/>
<path d="M165.009 273.45C165.729 274.68 166.179 275.99 166.049 277.44C163.489 276.35 160.809 275.75 158.049 275.45C156.199 275.56 156.489 274.58 157.029 273.46C159.689 273.68 162.349 272.12 165.009 273.46V273.45Z" fill="#1D1E19"/>
<path d="M158.02 293.41C158.35 294.74 158.69 296.07 159.02 297.4C156.6 298.01 155.26 295.4 153.05 295.41C152.73 295.08 152.41 294.74 152.09 294.41C154.07 294.08 156.04 293.74 158.02 293.41Z" fill="#1D1E19"/>
<path d="M157.03 273.461C157.07 274.281 157.25 275.021 158.05 275.451C158.05 275.781 158.03 276.121 158.02 276.451H153.09C151.92 272.181 155.32 273.931 157.03 273.461Z" fill="#32332E"/>
<path d="M51.3106 169.689C54.2106 167.639 57.7806 167.319 60.9506 165.979C62.0306 165.519 63.2706 165.559 64.2706 166.359C71.3006 172.019 79.8006 174.259 88.2206 176.699C86.7506 179.029 85.0606 180.969 81.9206 180.689C80.0006 180.509 79.4806 181.659 79.0906 183.339C78.5406 185.769 76.4506 187.449 74.3206 186.489C70.9106 184.939 69.0906 185.739 67.7506 189.289C67.8506 186.119 68.3306 183.299 67.8206 179.689C64.2106 183.379 61.3306 186.719 61.2806 191.699C61.2606 193.459 61.0706 195.309 58.9406 195.439C56.6806 195.579 54.1906 195.259 52.5206 193.619C50.7306 191.859 52.7506 190.639 53.8706 189.609C55.9806 187.679 55.4406 184.939 55.9606 182.649C56.5706 179.959 56.8706 177.189 58.3906 174.069C55.0106 174.619 51.8606 177.439 49.4006 174.799C48.0106 173.299 50.9006 171.549 51.3006 169.699L51.3106 169.689Z" fill="#34332E"/>
<path d="M145.151 222.431C144.761 220.491 145.891 218.271 144.081 216.591C143.531 216.471 143.211 216.141 143.111 215.591C141.941 208.761 136.811 204.891 132.061 200.741C132.371 197.691 135.141 197.061 137.101 195.641C142.401 192.291 142.831 192.431 146.081 198.631C147.691 197.841 148.921 198.601 150.071 199.631C152.051 200.901 154.281 198.671 156.761 200.411C151.671 203.481 150.131 207.201 155.061 211.601C156.731 212.581 157.551 214.421 159.031 215.591C160.021 217.401 160.011 218.661 157.431 218.581C156.311 218.551 155.191 218.591 154.071 218.601C152.411 220.121 150.741 219.811 149.081 218.601C147.131 219.221 146.601 221.291 145.161 222.431H145.151Z" fill="#33332D"/>
<path d="M24.3594 196.62C24.6994 195.96 25.0294 195.31 25.3694 194.65C29.2294 188.92 32.7594 182.96 38.0894 178.35C39.7294 176.93 41.3094 175.52 43.3194 174.67C44.3694 176.37 44.2194 177.66 42.3094 178.75C40.3094 179.88 39.7894 181.13 42.6994 181.75C43.9194 182.01 44.6394 183.05 44.1594 183.89C43.0094 185.93 40.6694 187.13 39.9294 189.53C35.6094 187.72 35.7094 191.15 34.4994 193.69C33.2094 196.41 29.4394 197.22 28.4994 200.63C28.2094 201.67 26.5494 200.92 26.0194 200.19C25.2594 199.15 24.8994 197.82 24.3694 196.62H24.3594Z" fill="#34332E"/>
<path d="M149.07 177.661C150.35 175.341 151.9 175.241 153.85 176.951C157.08 179.781 160.2 182.681 162.06 186.651C160.73 187.861 159.39 187.651 158.05 186.651C154.06 184.641 148.14 184.571 149.07 177.651V177.661Z" fill="#34332E"/>
<path d="M133.11 180.7C137.43 180.02 141.75 179.33 146.07 178.65C146.62 180.14 147.36 181.59 147.63 183.12C147.78 183.98 136.73 186.75 135.98 185.99C134.95 184.95 134.06 183.78 133.11 182.66C132.49 182.01 132.53 181.35 133.11 180.7Z" fill="#34332E"/>
<path d="M171.991 206.619C172.621 209.009 173.421 211.369 173.831 213.799C174.081 215.309 174.871 217.559 172.911 218.209C171.101 218.809 169.031 218.319 168.151 215.919C167.231 213.439 166.101 211.039 165.061 208.599C165.721 207.989 166.371 207.989 167.031 208.599L171.991 206.609V206.619Z" fill="#33332F"/>
<path d="M158.05 186.66C159.39 186.66 160.72 186.66 162.06 186.66C162.72 187.33 163.39 187.99 164.05 188.66C164.86 190.12 165.22 191.91 166.99 192.66C167 192.99 166.99 193.32 166.99 193.65C165.43 193.53 164.12 193.97 163.03 195.14C161.97 196.28 160.72 197.14 159.17 196.06C157.78 195.09 156.81 193.94 157.34 191.94C157.8 190.24 157.83 188.42 158.05 186.66Z" fill="#33332D"/>
<path d="M101.261 201.8C100.301 202.76 99.3406 203.72 98.3906 204.69C94.4706 203.03 92.5006 197.54 94.7406 194.33C95.3806 193.41 96.6306 193.43 97.4406 193.94C99.1806 195.05 101.771 196.28 100.771 198.65C100.101 200.25 100.491 200.84 101.261 201.8Z" fill="#34332E"/>
<path d="M94.0303 213.57C93.3303 215.21 93.5603 217.17 92.2603 218.6C88.1003 218.55 87.9103 215.58 88.4503 212.75C88.8703 210.57 90.1903 208.57 91.1003 206.49C91.5803 205.41 91.5303 203.39 93.5303 204.63C95.0403 205.57 95.9903 207.27 94.3203 208.72C92.3503 210.42 91.2203 211.77 94.0303 213.58V213.57Z" fill="#34332E"/>
<path d="M80.8808 206.75C79.1708 202.86 75.8808 199.85 80.6608 196.68C81.8608 195.88 83.0108 195.27 84.2308 196.38C85.5208 197.55 85.6708 199.23 84.6208 200.42C83.1808 202.05 82.3808 204 80.8808 206.75Z" fill="#34332E"/>
<path d="M98.191 179.699C101.521 180.039 104.841 180.369 108.171 180.709C108.771 181.359 108.701 182.019 108.171 182.669C105.581 185.019 102.791 184.949 99.661 183.729C97.351 182.829 97.071 181.629 98.191 179.699Z" fill="#34332E"/>
<path d="M137.1 195.64C136.52 198.43 133.61 198.91 132.06 200.74C130.78 200.94 130.03 199.99 129.12 199.4C128.79 196.76 129.68 194.79 132.37 194.1C134.18 193.63 136.37 192.57 137.1 195.65V195.64Z" fill="#34332E"/>
<path d="M36.1199 210.789C36.1699 211.929 35.9899 213.219 34.3999 212.919C31.0199 212.289 31.0799 208.869 29.7499 206.639C29.3799 206.019 29.9099 203.949 31.4499 204.509C34.2099 205.509 35.8999 207.669 36.1299 210.789H36.1199Z" fill="#34332E"/>
<path d="M116.15 181.689C120.14 181.689 124.13 181.689 128.12 181.689C128.35 183.909 126.8 185.909 125.22 185.179C122.25 183.809 117.44 187.099 116.15 181.699V181.689Z" fill="#34332E"/>
<path d="M116.19 195.751C115.47 197.191 114.21 196.471 113.14 196.491C112.19 194.541 110.32 193.921 108.5 193.111C107.39 192.621 106.74 191.401 107.75 190.271C108.61 189.311 109.59 189.851 110.17 190.791C111.06 192.221 112.36 192.681 113.94 192.671C116.09 192.651 116.15 194.201 116.18 195.751H116.19Z" fill="#34332E"/>
<path d="M90.2105 177.699C91.8705 178.029 93.5405 178.359 95.2005 178.699C95.2705 181.199 94.4105 183.209 91.5705 182.429C89.2205 181.779 89.0405 179.759 90.2005 177.699H90.2105Z" fill="#34332E"/>
<path d="M108.17 182.67C108.17 182.02 108.17 181.36 108.17 180.71C110.59 180.36 112.86 181.09 115.15 181.69C113.12 184.13 111.17 187.13 108.17 182.68V182.67Z" fill="#33332D"/>
<path d="M167.031 208.61C166.371 208.61 165.721 208.61 165.061 208.61C164.351 207.38 163.881 206.09 164.021 204.65C165.001 203.44 166.341 203.19 167.361 204.19C168.801 205.6 167.641 207.16 167.031 208.61Z" fill="#33332D"/>
<path d="M73.9202 203.721C73.6102 205.391 72.0702 205.801 70.7202 206.201C69.7302 206.491 69.2002 205.671 69.4502 204.741C69.8502 203.241 70.7502 202.031 72.4202 201.991C73.2502 201.971 73.8402 202.681 73.9202 203.731V203.721Z" fill="#34332E"/>
<path d="M150.07 199.63C148.62 199.79 147.32 199.31 146.08 198.63C146.38 197.26 145.29 194.75 147.74 195C149.95 195.23 150.02 197.68 150.07 199.63Z" fill="#34332E"/>
<path d="M159.031 215.59C156.671 215.29 155.351 213.96 155.061 211.6C155.771 210.43 156.941 210.64 158.031 210.6C158.361 212.26 158.701 213.92 159.031 215.59Z" fill="#34332E"/>
<path d="M158.07 205.65C158.06 206.3 158.04 206.96 158.03 207.61C156.58 207.59 155.01 207.69 154.44 205.93C154.15 205.04 154.75 204.3 155.53 204.04C156.92 203.58 157.53 204.62 158.07 205.65Z" fill="#34332E"/>
<path d="M133.109 180.7C133.109 181.35 133.109 182.01 133.109 182.66C131.549 183.21 129.699 184.93 129.119 181.65C130.189 180.21 131.729 180.8 133.119 180.7H133.109Z" fill="#33332D"/>
<path d="M143.109 215.58C143.429 215.91 143.759 216.25 144.079 216.58C144.029 217.25 143.989 217.92 143.939 218.59C142.839 221.73 141.609 224.27 138.239 220.38C137.789 219.86 136.749 219.85 135.989 219.6C134.529 219.81 133.919 219.14 134.059 217.72C131.919 211.92 126.619 209.82 121.569 208.11C118.829 207.18 115.859 205.7 112.549 206.4C111.459 206.63 109.739 206.03 109.649 204.38C109.579 203.11 110.869 201.91 111.799 202.01C117.629 202.61 123.469 198.95 129.459 202.9C132.189 204.7 134.399 207.2 134.959 209.39C136.189 214.2 139.619 214.6 143.129 215.57L143.109 215.58Z" fill="#F5E1BF"/>
<path d="M116.169 224.13C116.139 229.56 112.689 233.61 108.189 233.49C105.369 233.42 101.169 228.61 101.199 225.49C101.239 220.89 105.519 216.46 109.849 216.54C114.109 216.62 116.199 219.13 116.169 224.14V224.13Z" fill="#34332C"/>
<path d="M134.059 217.731C134.699 218.361 135.349 218.991 135.989 219.611C137.329 221.841 137.019 224.351 137.239 226.781C137.499 229.591 135.749 231.221 133.689 232.171C131.419 233.211 128.969 233.201 126.879 231.101C124.129 228.341 122.969 223.641 124.429 220.201C125.939 216.651 128.659 215.951 134.049 217.731H134.059Z" fill="#34332D"/>
<path d="M123.01 236.21C123.08 238.22 122.52 239.64 120.28 239.49C118.52 239.37 116.78 238.83 117.19 236.6C117.53 234.73 117.85 232.04 119.98 231.88C122.44 231.69 122.4 234.51 123.02 236.22L123.01 236.21Z" fill="#443D2F"/>
<path d="M30.3008 268.381C32.4708 268.621 34.3508 268.671 34.7508 270.581C34.9508 271.541 33.4608 272.141 32.5808 272.111C30.2308 272.021 30.4708 270.081 30.3008 268.381Z" fill="#33322E"/>
<path d="M24.3192 269.961C24.2892 272.471 23.9692 273.311 22.6792 273.281C21.7792 273.261 20.9692 272.741 21.0092 271.901C21.0492 270.771 21.5492 269.601 23.0092 269.671C23.9492 269.721 24.3092 270.481 24.3192 269.961Z" fill="#33322E"/>
<path d="M143.09 267.501C143.25 267.961 143.33 268.481 143.59 268.861C144.33 269.931 146.57 268.861 146.61 270.751C146.63 271.831 145.47 272.131 144.5 272.501C142.89 273.111 141.69 272.821 140.59 271.501C139.83 270.591 139.08 269.751 139.09 268.491C140.33 267.781 141.62 267.301 143.08 267.501H143.09Z" fill="#1D1E19"/>
<path d="M160.04 396.141C157.05 396.141 154.06 396.141 151.07 396.141C154.25 392.451 156.76 392.451 160.04 396.141Z" fill="#33332D"/>
<path d="M150.1 284.419C148.52 281.629 149.33 278.309 148.07 275.449C152.42 276.909 153.4 281.239 150.1 284.419Z" fill="#1D1E19"/>
<path d="M138.1 13.0891C139.1 13.4191 140.1 13.7491 141.09 14.0791C142.67 18.2491 140 19.6691 136.8 20.8891C132.88 22.3791 128.41 22.7691 125.4 26.2491C127.4 25.0491 129.7 25.0291 131.85 24.4691C135.92 23.4091 138.65 24.6291 140.11 28.6391C141.44 32.2991 143.27 33.0691 146.01 29.7191C147.5 27.8891 149.49 27.8091 151.35 29.1891C153.3 30.6391 153.48 32.5191 151.89 34.3391C150.96 35.3991 151.02 35.9191 152.31 36.4391C153.31 36.8491 154.08 37.7491 153.97 38.7291C153.42 43.4791 154.95 44.5591 159.7 43.2491C163.49 42.2091 167.41 45.5891 168.25 49.5791C168.91 52.7291 171.56 54.4591 173.13 56.9591C174.83 59.6691 175.79 62.3291 174.01 65.3291C173.31 66.5091 172.39 67.5691 170.85 67.3191C169.32 67.0691 168.84 65.7591 168.46 64.4391C168.03 62.9291 169.15 61.0991 167.1 59.4591C167.16 63.4491 165.89 67.2991 170.98 68.9691C172.43 69.4491 174.01 70.6091 173.26 72.7791C169.08 74.4891 164.89 77.3491 161.18 71.8291C160.12 70.2491 158.92 71.3991 157.93 72.4391C158.94 73.5291 161.66 72.6791 161.2 75.2591C160.8 77.4991 159.29 78.7991 157.06 78.8191C153.66 78.8491 150.92 79.9191 149.1 82.8991C146.92 84.2891 144.49 83.8491 142.12 83.8791C140.75 82.5491 138.72 82.7191 137.21 81.6491C134.39 79.6491 133.64 81.5791 133.14 83.8891C131.15 84.2391 129.27 85.2591 127.15 84.8791C125.92 84.0891 126.28 82.1091 124.71 81.5391C123.19 82.1791 123.36 84.0491 122.16 84.8891C119.83 85.2191 117.5 85.5491 115.18 85.8791C113.99 84.8491 112.94 83.6791 111.67 82.5591C112.19 83.6891 113.42 84.6291 112.19 85.8891C110.53 86.2191 108.86 86.5491 107.2 86.8791C103.23 84.5991 99.4797 85.2891 96.2397 88.8991C88.8797 91.2491 82.6397 95.3591 77.2797 100.869C74.1897 100.849 70.8297 99.1291 68.3097 102.599C67.1897 104.149 66.2997 105.519 67.3497 107.419C69.7997 107.519 70.5997 103.979 73.2997 104.859C70.1197 111.229 65.5197 116.259 59.3097 119.789C58.2697 118.779 58.8397 117.649 59.0697 116.549C60.0197 111.969 59.5997 107.999 53.3297 105.799C58.3197 113.349 55.5097 118.589 49.3297 122.799C48.3297 123.129 47.3297 123.449 46.3397 123.779C43.0697 120.909 40.2897 117.959 42.9197 113.109C43.8997 111.289 42.2897 110.909 40.6797 110.579C42.5097 113.939 42.4197 115.849 38.1297 117.389C34.2697 118.769 30.6397 119.609 26.6297 119.409C25.3597 119.349 23.5197 118.579 23.9697 118.059C26.9497 114.709 21.8897 111.829 23.6797 108.799C24.2697 107.799 23.7197 107.459 23.2897 106.739C21.8597 104.339 22.3797 102.389 25.3297 102.099C28.0797 101.829 29.1697 99.9591 30.6497 98.1391C32.4397 95.9391 32.6997 94.5091 29.6797 93.4291C27.1697 92.5291 26.7297 91.0591 28.6097 88.9791C29.7197 87.7491 30.3097 86.0891 31.5397 84.9591C33.5997 83.0491 33.2897 81.2491 31.5597 79.3591C29.5297 77.1391 28.0597 74.4991 26.5297 71.9491C24.5097 68.5991 25.1497 66.2091 30.0997 65.9291C26.9197 63.5691 27.1597 59.8091 25.4097 56.9691C26.0597 55.9691 26.7097 54.9691 27.3597 53.9691C30.8197 50.4691 35.6497 49.8491 39.9797 48.4291C43.3797 47.3091 47.3697 51.4891 47.1397 55.3591C46.9797 58.0591 46.7497 60.6091 49.8197 62.6991C49.4897 59.9791 48.1197 57.3691 51.0297 55.7491C54.4497 53.8391 54.6897 58.0191 57.2497 59.2091C57.0997 55.2991 55.7297 52.1591 55.1097 48.9091C54.8197 47.3691 53.2797 47.1791 51.8297 47.6191C50.3997 48.0491 49.0197 48.6691 47.5297 48.8791C45.5497 49.1591 43.3097 49.6191 42.0297 47.6591C40.7397 45.6791 40.6897 43.2491 40.9097 40.9091C40.9697 40.2391 41.6097 39.4191 42.1997 39.6391C45.7097 40.9691 48.5097 38.3191 51.7497 38.0491C55.8497 37.7091 57.0897 41.6691 60.1197 42.8991C60.3897 41.8191 59.4897 41.1391 59.0797 40.3491C55.9297 34.2191 56.4297 34.6391 60.4497 29.2791C63.5997 25.0791 65.0697 21.2591 71.2797 25.8391C73.9397 27.7991 79.0697 25.3091 83.2997 28.1491C82.9597 26.1891 81.8997 25.7391 81.1497 25.0891C79.7897 23.9091 77.8397 22.7891 79.3697 20.6491C80.8697 18.5591 83.0997 18.6591 85.2097 19.6791C87.0597 20.5791 88.0597 22.4391 89.3197 23.9591C92.5997 27.8991 99.0697 27.6091 101.62 23.1491C103.58 19.7191 105.11 16.0691 110.21 17.8791C111.19 18.2291 111.93 17.4591 111.82 16.5591C111.33 12.2591 115.2 10.8091 117.17 8.11907C118.93 7.96907 120.62 8.14907 122.16 9.10907C124.69 12.2791 124.5 14.7591 120.34 16.2291C119.42 16.5491 118.35 16.8591 118.56 18.1491C118.68 18.8891 119.45 19.2591 120.08 19.0691C126.14 17.2091 133.03 17.8491 138.13 13.1091L138.1 13.0891Z" fill="#33322D"/>
<path d="M171.121 91.0302C176.241 89.7802 177.751 92.0002 177.091 96.8702C176.691 99.8002 176.901 102.81 176.831 105.79C175.891 109.47 177.101 113.28 176.161 116.96C174.861 134.83 170.651 151.44 155.991 163.52C147.401 169.45 138.161 173.14 127.451 172.75C113.071 172.22 101.211 166.05 90.7208 156.8C81.6608 148.82 75.2308 138.78 69.2008 128.45C68.1108 126.58 67.9108 125.36 69.5708 123.74C75.0508 118.41 79.8008 112.43 84.4008 106.35C90.2608 98.5902 98.8608 96.1302 107.741 94.9902C119.491 93.4902 131.331 92.9402 143.201 92.6902C148.401 92.5802 153.691 92.0002 158.951 91.7102C162.971 90.8402 167.111 92.0602 171.131 91.0402L171.121 91.0302Z" fill="#FCD5A6"/>
<path d="M117.15 8.11017C117.11 8.94017 117.34 10.3202 116.97 10.5102C113.46 12.3302 112.71 15.2402 112.96 18.8802C113.05 20.1602 111.93 21.0502 110.56 19.8802C106.03 16.0402 104.5 19.5802 103.24 23.0002C101.97 26.4302 99.5698 27.8102 96.1298 27.8702C95.9698 27.8702 95.7598 27.6702 95.6698 27.7302C89.9398 31.0602 89.3298 25.0102 86.6998 22.7602C85.8698 22.0402 85.6498 20.5802 84.3898 20.3002C82.7698 19.9402 80.8698 19.5302 79.8998 21.3002C78.9098 23.1102 81.1198 23.2802 81.9098 24.1302C83.2198 25.5602 86.8098 26.0402 85.3798 28.5302C83.9398 31.0402 81.5498 28.5002 79.7098 27.7502C77.9098 27.0102 76.2598 27.0902 74.3898 27.4302C70.6498 28.1102 67.2498 27.5502 65.0898 22.5102C64.1798 28.0102 61.7798 31.4202 57.3898 33.2202C56.3698 33.6402 56.4098 34.6402 57.1398 35.2102C59.3098 36.9202 59.6098 39.9502 61.3798 41.5802C62.8598 42.9502 62.6198 43.6802 61.8198 44.7102C60.6098 46.2602 59.8798 44.9902 59.2298 44.0102C58.1498 42.3502 56.0398 42.0302 54.9298 40.0802C53.8098 38.1102 49.5698 38.9402 49.2998 39.4802C47.2298 43.6902 44.6198 40.8602 42.2198 40.1202C42.1898 48.8102 43.4498 49.9302 51.0498 46.4202C55.2198 44.4902 56.3198 46.7002 56.8498 49.4802C57.3598 52.1502 57.3198 54.7702 59.0598 57.1902C59.8998 58.3602 59.1798 60.3402 57.3598 60.6802C55.7098 60.9902 53.7098 60.6502 53.7798 58.4402C53.8298 56.7802 53.9698 55.6002 51.9398 56.3302C50.7998 56.7402 49.2998 57.5602 50.2198 59.2802C51.1498 61.0102 52.6298 63.2702 50.1098 64.0602C47.6598 64.8302 46.7998 61.9502 45.8698 60.0202C45.2498 58.7402 45.1198 57.4202 45.7698 56.1802C47.2998 53.2602 45.0498 52.1302 43.3998 50.4902C41.5798 48.6802 39.9898 49.2602 38.0098 50.0902C34.5198 51.5502 30.8998 52.7002 27.3398 53.9802C31.6798 44.0102 37.6798 35.1702 46.0798 28.2202C56.1298 19.9102 67.4498 13.9602 80.1298 10.5302C85.2898 9.13017 90.4998 8.45017 95.7298 8.19017C102.85 7.83017 110.01 8.12017 117.15 8.12017V8.11017Z" fill="#33322D"/>
<path d="M25.3991 56.9707C26.8691 57.0207 27.2591 58.0507 27.5891 59.2507C27.9491 60.5207 28.1591 62.0207 28.9791 62.9507C31.1191 65.4007 36.5791 68.3907 27.5291 67.3607C25.9191 67.1807 26.2791 69.6707 27.1091 71.0107C27.9791 72.4107 29.3191 73.6007 29.8791 75.1007C31.0691 78.2807 36.5791 80.2607 34.4191 83.5807C32.6991 86.2207 30.8591 89.2907 28.0691 91.4207C30.4491 92.7007 34.7491 93.5707 34.3291 95.0107C33.4491 98.0107 30.6091 100.461 28.4691 103.051C28.1591 103.431 27.2091 103.551 26.6691 103.401C25.0991 102.961 23.5691 102.481 23.4791 104.891C23.3691 107.721 25.7691 105.631 26.7091 106.401C27.2491 107.881 25.7991 107.951 25.1991 108.571C23.6191 110.211 22.5391 111.621 26.0791 111.851C26.8991 111.901 27.8191 111.941 28.0691 112.951C28.4091 114.291 27.3791 114.581 26.4291 114.951C25.0591 115.481 23.8591 116.581 24.7891 117.941C26.0091 119.711 26.9591 118.201 27.7691 117.121C27.9591 116.871 28.2791 116.721 28.5391 116.521C31.8691 122.161 34.3191 116.311 37.1391 115.801C41.7291 114.971 41.8791 114.151 38.5591 110.341C38.1591 109.891 37.9091 109.311 37.5291 108.681C39.7291 107.541 40.7091 110.191 42.7391 109.721C45.7491 109.021 45.8491 111.501 44.5991 112.941C41.4391 116.591 43.2791 119.171 45.7291 121.921C46.1191 122.361 46.1291 123.151 46.3191 123.781C36.6091 123.621 26.8291 124.671 17.2691 121.971C12.2091 120.541 11.4491 119.031 13.6991 114.221C17.4491 106.191 19.2891 97.7207 19.3891 88.8707C19.5091 77.8807 22.2391 67.3907 25.4091 56.9807L25.3991 56.9707Z" fill="#33322D"/>
<path d="M92.4203 169.7C88.0203 169.97 85.2303 167.91 82.2803 166.64C67.0103 160.07 55.4403 149.44 47.4703 134.78C46.1403 132.33 47.9503 132.12 48.8403 132.04C51.8103 131.76 54.7803 131.59 57.6103 130.62C59.1303 130.1 59.6703 130.88 60.2803 131.98C60.9203 133.13 61.8303 134.13 62.4203 135.3C69.3203 149.05 79.8303 159.68 92.4203 169.7Z" fill="#F9D4A7"/>
<path d="M149.07 82.9006C149.27 79.5906 151.67 77.3105 155.39 77.7005C158.21 78.0005 159.88 77.4605 160.35 74.5305C160.04 74.3505 159.77 74.2005 159.51 74.0205C158.16 73.1305 155.79 76.1306 155.44 73.5406C155.15 71.4006 157.95 70.2505 159.71 69.3505C161.49 68.4405 162.71 69.4606 162.73 71.7506C162.76 74.6606 165.16 74.0805 166.71 73.7405C168.81 73.2705 170.86 72.8006 173.02 72.9306C173.15 73.1106 173.29 73.2905 173.42 73.4605C172.52 75.7539 172.384 78.5605 173.01 81.8805C170.35 81.8805 167.69 81.9006 165.04 81.9006C162.9 81.3106 160.93 81.7605 159.06 82.8805C155.73 82.8805 152.4 82.8906 149.07 82.9006Z" fill="#33322D"/>
<path d="M138.1 13.0902C138.52 15.3902 136.54 17.3102 135.34 17.0802C131.24 16.3002 128.27 20.1102 124.37 19.2502C122.83 18.9102 121.97 20.0502 120.81 20.5902C118.58 21.6102 117.3 20.1302 116.53 18.4402C115.75 16.7302 116.8 15.1902 118.47 15.2602C123.84 15.5002 122.64 12.1602 122.14 9.10023C125.23 8.51023 128.05 10.3802 131.11 10.0902C133.1 11.9002 135.94 11.7102 138.11 13.1002L138.1 13.0902Z" fill="#33322D"/>
<path d="M49.3105 122.8C49.5905 122.04 49.6505 121.01 50.2005 120.57C54.4405 117.08 57.0905 113.48 52.6705 108.15C51.7305 107.01 51.7605 104.68 53.3705 103.64C55.4705 102.29 54.9005 105.18 55.8305 105.56C63.5905 108.74 60.4905 114.48 59.2905 119.79C56.1405 121.38 53.0105 123.02 49.3105 122.8Z" fill="#33322D"/>
<path d="M73.2796 104.86C72.3896 105.57 71.5396 106.33 70.6096 106.98C69.1496 108 67.6196 111.16 66.1096 109.11C65.0296 107.64 64.2696 104.26 67.0796 101.83C70.4796 98.8996 73.4796 97.2796 77.2496 100.88C76.2896 102.57 74.9596 103.9 73.2796 104.86Z" fill="#33322D"/>
<path d="M96.2107 88.8994C95.9907 88.6694 95.5608 88.4194 95.5808 88.2094C96.1208 82.9294 100.931 85.6594 103.531 84.1494C105.361 83.0894 107.391 84.0194 107.171 86.8694C103.521 87.5394 99.8607 88.2194 96.2107 88.8894V88.8994Z" fill="#33322D"/>
<path d="M133.11 83.8896C132.7 82.7096 132.29 81.5296 131.82 80.1896C136.19 78.9496 139.38 80.7196 142.09 83.8796C139.1 83.8796 136.11 83.8896 133.11 83.8996V83.8896Z" fill="#33322D"/>
<path d="M122.139 84.8901C122.079 82.5101 122.129 79.4401 124.989 79.5601C127.489 79.6701 127.059 82.7901 127.119 84.8801C125.459 84.8801 123.789 84.8801 122.129 84.8801L122.139 84.8901Z" fill="#33322D"/>
<path d="M112.159 85.8803C112.089 84.4503 111.489 83.4003 110.029 82.9903C109.039 82.7103 107.969 82.3403 108.799 81.0803C109.609 79.8503 110.439 80.8703 111.229 81.3503C113.019 82.4403 115.029 83.3403 115.149 85.8703C114.149 85.8703 113.159 85.8703 112.159 85.8703V85.8803Z" fill="#33322D"/>
<path d="M171.119 91.0306C167.109 92.1406 163.039 92.1506 158.939 91.7006C159.969 91.4306 161.009 91.1606 162.039 90.8906C165.059 90.9406 168.089 90.9906 171.109 91.0406L171.119 91.0306Z" fill="#867766"/>
<path d="M159.061 82.8801C160.751 80.7201 162.561 79.2701 165.041 81.9001C164.381 82.2401 163.711 82.5801 163.051 82.9101C161.721 82.9001 160.401 82.8801 159.071 82.8701L159.061 82.8801Z" fill="#33322D"/>
<path d="M173.02 72.9298C172.96 71.8298 172.3 71.2098 171.43 70.5898C168.63 68.5798 166.32 64.4798 165.56 61.1698C165.14 59.3498 164.83 57.5398 167.1 57.4398C168.87 57.3598 169.83 59.0598 169.96 60.9098C169.98 61.2398 169.99 61.6098 169.87 61.8898C169.14 63.5498 169.05 65.1398 170.61 66.3598C171.19 66.8098 171.9 66.4998 172.33 65.9198C173.45 64.4198 174.32 62.8198 173.85 60.8598C173.2 58.1598 170.81 56.5598 169.55 54.2298C168.5 52.2898 164.74 51.7298 167.12 48.0298C167.89 46.8298 160.75 43.6798 158.26 44.4398C152.75 46.1298 152.8 46.1298 153.02 40.7398C153.09 39.0398 153.63 36.7098 150.45 37.3098C149.07 37.5698 148.77 36.4798 148.53 35.5598C148.23 34.4298 149.13 34.1498 149.97 34.0398C151.36 33.8698 152.08 33.1698 151.96 31.7398C151.85 30.3298 150.72 29.8698 149.66 29.4098C148.33 28.8298 147.51 29.4898 146.78 30.5698C146.23 31.3898 145.43 32.0298 144.82 32.8098C143.01 35.1098 141.67 34.7098 140.58 32.1798C140.39 31.7398 139.94 31.4098 139.7 30.9798C138.3 28.4498 138.43 23.9498 133.76 25.4198C131.05 26.2798 127.53 24.9498 125.61 28.1798C125.24 28.8098 124.81 29.9098 123.83 28.9298C123.44 28.5398 123.11 27.4798 123.34 27.1698C124.71 25.3798 125.17 23.3098 128.08 22.1898C132.75 20.3898 140.04 21.8898 141.09 14.0898C143.45 14.9998 145.45 16.7398 148.06 17.0698C149.76 18.3598 152.54 18.2898 153.06 21.0598C153.62 22.3698 154.62 23.0498 156.04 23.0898C157.09 23.3798 157.61 24.1698 157.96 25.1198C158.58 27.4998 158.95 29.8998 158.4 32.4898C160.65 32.8798 163 31.1898 165.01 33.0198C171.9 43.6798 175.29 55.9398 180.52 67.3598C181.92 70.4098 184.11 72.4298 186.25 74.6298C188.93 77.3798 188.03 78.9998 184.78 79.7498C182.24 80.3398 179.71 81.3298 177.01 80.8798C175.49 78.3198 175 75.2498 173.02 72.9198V72.9298Z" fill="#33322D"/>
<path d="M173.02 72.9297C176.66 74.4297 177.54 77.3097 177.01 80.8897C175.77 81.5997 174.47 82.0697 173.01 81.8797C171.14 79.0197 171.15 76.5597 173.01 72.9297H173.02Z" fill="#33322D"/>
<path d="M165.01 33.0205C162.24 32.4705 159.68 34.8005 156.52 33.5905C158.39 30.7705 156.93 27.8805 157.06 25.0305C159.42 24.6705 160.37 26.1605 161.03 28.0405C162.36 29.7005 163.69 31.3605 165.01 33.0205Z" fill="#33322D"/>
<path d="M161.029 28.0395C159.709 27.0395 158.379 26.0295 157.059 25.0295C156.719 24.3795 156.379 23.7295 156.039 23.0795C156.179 21.7595 157.139 20.4695 158.139 21.3795C159.939 22.9895 161.179 25.2195 162.649 27.1895C162.109 27.4695 161.559 27.7595 161.019 28.0395H161.029Z" fill="#1D1E19"/>
<path d="M153.061 21.0608C151.421 19.7008 149.161 19.1208 148.061 17.0708C150.771 17.0908 153.791 16.7308 153.061 21.0608Z" fill="#1D1E19"/>
<path d="M176.161 116.949C175.981 113.199 175.431 109.429 176.831 105.779C177.051 109.529 177.491 113.289 176.161 116.949Z" fill="#968972"/>
<path d="M149.07 218.609C150.73 218.609 152.4 218.609 154.06 218.609C154.91 220.169 155.37 221.949 153.09 222.329C150.6 222.739 149.45 220.919 149.07 218.619V218.609Z" fill="#1C1D18"/>
<path d="M142 200.01C143.18 200.33 143.61 201.32 143.5 202.27C143.37 203.39 142.86 204.67 141.33 204.38C140.07 204.15 140.07 203.02 140.21 202.01C140.35 200.97 140.83 200.14 142.01 200L142 200.01Z" fill="#34332E"/>
<path d="M125.67 42.3392C126.24 42.8692 127.33 43.4092 127.6 44.2292C129.16 48.9692 132.28 49.5992 136.51 48.0492C137.39 47.7292 138.48 47.9592 139.48 47.9792C141.04 47.9992 142 47.3992 142.07 45.7092C142.14 44.1992 142.22 42.2692 144.2 42.4492C146.02 42.6092 148.22 42.8092 149.03 45.2292C149.55 46.7692 150.62 48.1492 150.99 49.7092C151.7 52.6892 153.09 52.4092 154.65 50.5892C155.78 49.2692 156.9 48.7492 157.6 50.5192C158.22 52.1092 160.18 54.2692 157.36 55.6292C155.98 56.2992 154.24 57.4292 152.67 56.2592C149.21 53.6592 144.66 54.7692 141.1 52.6292C139.53 51.6892 138.08 51.9592 137.45 53.6992C136.77 55.5792 138.19 55.9192 139.66 55.9892C140.69 56.0392 142.05 56.2392 141.9 57.4092C141.21 62.9992 141.53 68.7992 139.22 74.0792C138.55 75.6092 136.04 76.9292 135.27 75.1192C133.76 71.5792 130.63 69.3192 129.14 65.9192C127.99 63.2892 128.36 61.1492 131.29 59.8492C132.27 59.4192 133.86 59.1492 133.7 57.7192C133.51 56.0092 131.91 56.9292 130.92 56.6392C128.13 55.8092 125.52 54.7392 126.1 50.9392C126.38 49.1292 125.56 47.8192 124.01 46.7692C122.91 46.0292 123 44.7492 123.48 43.6092C123.82 42.7892 124.47 42.3092 125.67 42.3392Z" fill="#33322D"/>
<path d="M67.8995 80.0204C63.4095 84.7204 63.4295 91.5804 58.4495 95.7204C55.3695 98.2804 53.2295 102 48.2795 100.46C47.5095 100.22 46.1495 101.21 45.8195 99.9304C45.6195 99.1504 46.2895 98.0804 46.7495 97.2304C47.3695 96.0804 48.9495 96.3504 49.6895 95.7404C52.3895 93.5004 60.4095 95.6804 56.6095 87.6904C56.2995 87.0304 57.5995 85.2304 58.5495 84.4404C59.9095 83.3204 60.4895 82.3404 59.6995 80.6504C59.1195 79.4004 58.8995 77.9304 60.0495 76.9504C61.3795 75.8204 62.4495 77.1504 63.5695 77.7504C64.8595 78.4504 66.1595 79.1104 67.8895 80.0204H67.8995Z" fill="#33322D"/>
<path d="M107.23 30.1505C111.82 27.2105 113.71 27.5205 115.9 31.6205C117.05 33.7705 118.23 35.5505 120.79 36.0905C122.21 36.3905 123.26 37.2605 122.87 38.8905C122.56 40.1905 121.27 40.5305 120.19 40.8105C118.82 41.1705 117.77 40.9305 117.13 39.2305C116.32 37.0905 109.56 31.0305 107.23 30.1505Z" fill="#33322D"/>
<path d="M101.191 53.9596C101.111 55.6096 101.141 57.5096 98.4906 56.4896C95.5106 55.3396 92.8606 47.4096 94.4606 44.4996C94.9106 43.6896 95.1006 42.4896 96.3206 42.4396C97.4406 42.3896 98.2806 43.2596 98.5406 44.1196C99.5306 47.3396 100.311 50.6296 101.191 53.9596Z" fill="#33322D"/>
<path d="M42.9297 84.3694C45.4997 85.6994 47.8197 86.2794 50.5397 85.1094C52.1397 84.4194 54.1497 85.1894 54.8597 86.6994C55.8097 88.7294 54.2097 90.6094 52.9897 91.9994C51.6897 93.4894 50.2597 91.8594 49.1397 91.0894C46.6297 89.3694 43.7597 87.9294 42.9297 84.3594V84.3694Z" fill="#33322D"/>
<path d="M78.9593 94.8295C77.9893 96.1895 76.6793 97.3595 75.3193 96.1595C73.5693 94.6195 72.3093 94.3795 70.2193 95.6095C68.9293 96.3695 66.6493 96.3895 65.8993 94.5495C65.1193 92.6395 66.4793 90.7995 67.2793 89.0395C67.3793 88.8295 67.9893 88.5995 68.0293 88.6495C70.6793 91.8695 74.6193 92.3795 78.2293 93.5995C78.5593 93.7095 78.6993 94.3795 78.9493 94.8295H78.9593Z" fill="#33322D"/>
<path d="M114.52 42.4298C113.25 44.6498 108.13 45.8898 114.19 48.2698C115.47 48.7698 114.74 50.0998 113.77 50.5198C112.16 51.2098 110.12 52.3898 109 50.0998C107.95 47.9398 106.37 45.2198 107.66 43.1098C109.19 40.5998 112.13 42.6298 114.52 42.4398V42.4298Z" fill="#33322D"/>
<path d="M114.961 68.6705C118.641 67.5905 121.961 66.8805 118.711 62.7305C117.891 61.6805 117.691 60.0305 119.181 59.3005C120.841 58.4905 122.631 59.1905 123.571 60.5905C125.101 62.8805 123.301 65.2505 123.171 67.6105C120.371 66.6005 118.901 72.3905 114.971 68.6805L114.961 68.6705Z" fill="#33322D"/>
<path d="M35.75 71.5309C40.31 71.7409 43.58 69.9409 45.87 65.6309C46.42 67.2109 49.35 67.5109 46.96 70.1409C41.4 76.2609 41.5 76.3509 35.75 71.5209V71.5309Z" fill="#33322D"/>
<path d="M153.101 62.4709C154.221 63.1109 155.071 62.2409 156.041 61.6109C157.291 60.7909 158.771 60.6309 159.301 62.2609C159.771 63.7109 158.671 64.6609 157.211 65.0309C155.941 65.3509 154.671 65.6809 153.411 66.0309C152.021 66.4109 150.621 67.2709 149.361 65.7109C148.811 65.0309 148.341 64.4109 149.051 63.5709C150.091 62.3309 151.291 61.6209 153.101 62.4809V62.4709Z" fill="#33322D"/>
<path d="M76.3393 82.9905C77.3593 85.7105 80.7193 85.3705 81.9793 87.7905C82.1593 88.1305 82.0493 88.9705 81.7893 89.1305C79.1093 90.8205 77.5993 87.5605 75.1793 87.4305C73.9093 87.3605 74.1093 85.3305 74.8493 84.1205C75.0793 83.7505 75.5693 83.5505 76.3393 82.9805V82.9905Z" fill="#33322D"/>
<path d="M96.4999 68.4194C96.2299 65.1494 96.1499 63.3594 95.8999 61.5894C95.7299 60.3894 94.4899 59.0394 96.3599 58.2394C97.4099 57.7894 98.2199 58.5794 98.9399 59.2694C99.9899 60.2794 100.58 61.4994 99.6299 62.7694C98.5899 64.1694 97.3099 65.3894 96.4899 68.4094L96.4999 68.4194Z" fill="#33322D"/>
<path d="M81.2493 42.8094C79.0793 42.7194 79.2593 41.2494 79.2693 39.9894C79.2693 38.7394 79.0593 37.1294 81.0393 37.2594C82.5993 37.3594 83.1293 38.5694 83.1593 40.0094C83.1893 41.4994 82.4593 42.4094 81.2493 42.8094Z" fill="#33322D"/>
<path d="M74.7394 76.7994C72.4394 73.7294 73.4395 71.5294 74.6795 69.4294C74.7795 69.2594 76.0995 69.4294 76.3595 69.7994C78.3395 72.5694 75.6895 74.1994 74.7495 76.7994H74.7394Z" fill="#33322D"/>
<path d="M120.469 74.9804C120.379 76.2404 119.249 76.4904 118.419 76.5804C117.089 76.7304 116.209 75.8204 116.519 74.5004C116.749 73.5404 117.019 72.0304 118.569 72.3504C119.799 72.6104 120.139 73.8404 120.469 74.9704V74.9804Z" fill="#33322D"/>
<path d="M73.9395 53.3205C76.4395 51.5005 78.2395 52.0305 80.8695 51.5605C78.6995 54.7005 76.7895 54.0105 73.9395 53.3205Z" fill="#33322D"/>
<path d="M49.1094 77.4395C50.8094 78.2395 53.0094 78.7694 52.4194 80.9594C52.2294 81.6594 50.3894 83.2095 50.0094 80.4695C49.8694 79.4395 49.4194 78.4495 49.1194 77.4395H49.1094Z" fill="#33322D"/>
<path d="M87.9201 86.2998C87.1301 86.2998 86.6201 85.8798 86.5501 85.1998C86.4301 84.0798 87.0401 83.2798 88.1601 83.2598C88.6401 83.2598 89.5101 83.8398 89.5501 84.2398C89.6801 85.3198 88.8201 85.9098 87.9201 86.2998Z" fill="#33322D"/>
<path d="M68.5693 70.5996C69.5893 70.5996 69.9693 71.2796 70.0993 72.1396C70.2093 72.8596 69.9193 73.4596 69.2093 73.6696C68.2393 73.9696 67.5593 73.4996 67.4393 72.5496C67.3193 71.6996 67.6593 70.9396 68.5693 70.5996Z" fill="#33322D"/>
<path d="M146.58 75.0801C147.34 75.1301 147.87 75.6001 147.66 76.2901C147.32 77.3901 146.57 78.2901 145.37 78.5101C144.79 78.6101 144.58 78.1301 144.8 77.5701C145.19 76.6001 144.99 75.2001 146.57 75.0801H146.58Z" fill="#33322D"/>
<path d="M165.44 142.951C164.41 139.271 159.56 137.191 161.66 132.441C161.93 131.821 160.42 130.571 159.48 131.311C157.77 132.661 154.48 134.031 155.7 136.381C158.15 141.091 155.47 140.701 152.31 141.251C147.14 142.161 142.24 142.831 137.75 139.131C134.91 136.791 132.07 138.471 129.39 139.691C127.41 140.591 125.69 141.361 124.53 138.651C124.06 137.551 123.24 136.341 121.91 137.201C120.43 138.161 120.08 139.871 120.17 141.621C120.24 143.041 120.95 144.001 122.36 143.491C124.99 142.551 124.83 144.141 125.22 145.921C126.16 150.201 128.18 152.941 133.23 153.991C140.87 155.581 148.43 156.341 156.22 155.681C156.14 156.381 156.22 156.791 156.06 156.991C152.88 160.881 148.15 160.411 143.89 161.231C144.1 167.611 138.87 167.491 134.83 168.971C131.09 170.341 127.56 169.771 124.24 168.151C121.33 166.731 118.16 165.931 115.17 165.901C107.92 165.831 103.65 160.651 98.3695 157.191C95.9195 155.581 100.03 152.321 97.1195 151.141C94.9295 150.251 94.3895 154.591 91.7595 153.591C91.2195 153.391 90.3895 152.721 90.4395 152.381C91.5195 145.711 84.7295 145.231 81.9295 141.651C79.3995 138.421 76.7795 135.241 74.4895 131.841C73.9095 130.981 73.8095 129.371 74.7395 128.561C76.0095 127.441 76.7095 129.021 77.5795 129.621C78.7695 130.431 79.9795 131.981 81.4495 130.741C82.8495 129.571 82.1895 127.611 82.1795 125.991C82.1695 123.701 80.7195 124.161 79.0795 124.171C76.5895 124.171 75.4895 122.761 77.7895 120.871C80.6695 118.491 82.4395 115.211 85.7395 112.941C88.1595 111.281 89.3095 107.161 92.3995 105.021C94.0895 103.851 95.4995 102.651 97.6895 102.831C98.8095 102.921 100.25 103.181 100.89 102.001C102.78 98.5406 106.09 99.3506 109.12 98.7206C119.58 96.5606 130.47 98.5806 140.82 95.1006C143.03 94.3606 146.13 95.3406 148.53 96.2806C154.23 98.5206 159.57 97.5306 164.68 94.9406C166.97 93.7806 168.86 94.9706 170.93 94.9406C172.39 94.9206 173.02 95.7906 172.94 97.1806C172.87 98.3806 172.48 99.6506 171.47 100.201C170.26 100.851 169.95 99.3606 169.29 98.7306C166.41 95.9606 163.96 95.9106 161.59 99.5306C160.02 101.921 158.34 103.861 154.73 101.501C151.8 99.5806 151.41 103.301 150.67 104.941C149.75 106.991 151.03 107.161 152.99 107.101C156.62 106.991 156.31 109.471 155.48 111.931C152.84 119.741 156.32 125.471 164.62 126.781C166.23 127.031 168.25 127.571 167.77 129.131C166.39 133.621 170.09 138.821 165.43 142.941L165.44 142.951Z" fill="#FED4A4"/>
<path d="M144.559 153.97C140.039 153.09 135.789 151.94 132.019 149.58C130.249 148.46 128.239 146.84 129.579 144.36C130.979 141.75 133.209 142.77 135.159 143.85C142.049 147.69 148.889 147.69 155.689 143.65C157.049 142.84 158.469 142.07 159.519 143.85C160.359 145.27 160.559 146.6 159.149 148.25C155.189 152.91 149.549 152.52 144.559 153.97Z" fill="#201D17"/>
<path d="M159.079 113.36C159.049 110.6 158.889 108.1 160.449 105.97C161.879 104.01 163.609 102.47 166.279 103.13C168.729 103.73 169.419 105.66 169.839 107.92C170.599 111.92 169.439 115.74 168.889 119.59C168.599 121.59 166.589 122.33 164.799 122.72C162.739 123.17 161.289 121.91 160.299 120.3C158.939 118.09 158.939 115.57 159.079 113.37V113.36Z" fill="#1D1E18"/>
<path d="M135.04 113.19C135.04 114.85 135.251 116.54 135.001 118.16C134.551 121.08 132.901 123.07 129.741 123.07C126.611 123.07 124.741 121.09 124.291 118.26C123.711 114.64 124.021 110.97 125.621 107.57C126.631 105.41 127.931 103.36 130.821 103.92C133.641 104.47 134.97 106.44 135.15 109.22C135.24 110.54 135.161 111.87 135.161 113.2H135.051L135.04 113.19Z" fill="#1F1D17"/>
</g>
<defs>
<clipPath id="clip0_335_179">
<rect width="364.14" height="406.71" fill="white"/>
</clipPath>
</defs>
</svg>
