<svg width="933" height="680" viewBox="0 0 933 680" fill="none" xmlns="http://www.w3.org/2000/svg">
<g clip-path="url(#clip0_429_113)">
<path d="M671.71 591.42L656.07 591.65C654.42 592.68 652.56 592.49 650.75 592.49C636.02 592.48 621.28 592.55 606.55 592.46C604.99 592.2 603.41 592.05 601.86 591.73C596.48 591.61 591.1 591.5 585.72 591.38C566.55 591 547.78 587.5 529 584.15C503.76 579.65 478.87 573.66 454.5 565.69C451.61 564.74 447.8 565.9 445.86 562.41C429.92 555.98 413.5 550.81 397.78 543.8C372.03 532.33 347.37 518.92 324.2 502.85C299.84 485.95 277.31 466.8 257.08 445.15C237.66 424.36 220.45 401.86 207.93 376.1C204.44 372.9 203.38 368.47 202.01 364.23C196.08 345.8 198.02 327.9 205.76 310.4C208.17 304.95 212.02 300.05 212.18 293.73C215.12 298.45 216.54 294.79 218.01 292.58C230.59 273.62 245.33 256.4 261.11 240.1C287.84 212.48 317.84 188.83 350.57 168.74C368.29 157.86 386.55 147.87 405.74 139.7C407.46 138.97 410.14 138.8 410.53 136.05C428.09 128.49 446.11 122.24 464.45 116.84C487.61 110.02 511.11 104.72 534.99 101.28C549.77 99.1497 564.69 97.7097 579.64 97.6797C588.8 97.6597 597.86 96.3897 607.01 96.5397C612.64 96.6297 618.22 98.1697 623.89 97.1497C624.5 97.4797 625.12 97.8097 625.73 98.1397C631.02 99.4897 636.55 98.6897 641.85 99.9397C658.76 100.95 675.38 103.74 691.91 107.45C717.25 113.13 741.13 122.55 763.98 134.63C782.31 144.32 799.61 155.66 815.68 168.84C857.03 202.75 888.55 244.42 912.66 291.85C919.57 305.45 925.51 319.6 929.03 334.51C930.65 341.41 932.18 348.46 931.69 355.69C932.32 361.77 932.16 367.86 931.76 373.95C930.53 405.61 920.27 434.55 904.33 461.5C883.3 497.05 854.31 524.91 819.01 546.12C795.96 559.97 771.37 570.39 745.47 577.92C727.97 583.01 710.12 586.03 692.27 589.25C689.52 589.75 686.63 589.52 683.81 589.64C679.8 590.36 675.76 590.9 671.71 591.4V591.42Z" fill="#F4981F"/>
<path d="M212.201 293.74C214.771 298.88 211.201 302.61 209.191 306.67C202.691 319.77 198.751 333.49 200.211 348.23C201.071 356.93 203.111 365.45 207.201 373.31C207.671 374.22 208.111 375.06 207.961 376.1C197.991 388.4 188.781 401.34 177.991 412.97C155.901 436.79 132.361 458.95 104.661 476.3C90.2108 485.34 75.1108 493 58.4708 496.97C47.0108 499.7 35.3408 500.14 24.4808 494.58C11.7008 488.04 6.81076 473.01 9.73076 457.63C13.9208 435.63 24.8608 416.5 36.7708 397.94C51.1408 375.56 67.4408 354.67 86.5308 336.07C88.6208 334.04 88.0608 333.21 86.3608 331.4C59.4008 302.62 37.0208 270.59 19.4508 235.3C10.5108 217.38 3.07076 198.78 0.720759 178.7C-0.759241 166.1 -0.679241 153.43 8.32076 142.94C12.4908 138.08 17.5808 134.57 24.2208 133.9C29.5708 132.54 34.9108 132.37 40.2508 133.94C49.8608 135.19 58.6108 138.97 67.2508 143.07C92.7308 155.16 114.661 172.18 135.111 191.39C166.131 220.53 191.281 254.07 211.481 291.42C211.861 292.12 211.971 292.96 212.201 293.74Z" fill="#E67E24"/>
<path d="M623.902 97.1594C621.742 100.929 618.122 99.1594 615.422 98.8094C608.282 97.8894 601.282 97.9194 594.142 98.8494C589.062 99.5094 583.832 98.8294 578.692 99.0994C558.552 100.159 538.522 101.959 518.602 105.509C493.602 109.959 469.272 116.849 445.082 124.289C435.442 127.249 426.172 131.439 416.752 135.139C414.722 135.939 412.792 136.879 410.552 136.049C402.982 127.239 394.992 118.769 388.212 109.329C376.872 93.5294 367.622 76.5894 362.642 57.6894C359.672 46.4094 358.132 35.0094 363.382 23.6594C369.382 10.6894 380.442 4.97941 393.392 2.29941C414.602 -2.09059 435.782 0.419414 456.692 4.45941C474.792 7.95941 492.322 13.6594 509.402 20.7194C536.292 31.8194 561.832 45.3994 585.662 62.0894C598.592 71.1494 610.442 81.5494 621.262 93.0594C622.322 94.1894 623.842 95.2694 623.912 97.1494L623.902 97.1594Z" fill="#E77F24"/>
<path d="M445.88 562.398C456.68 563.978 466.82 568.038 477.26 570.938C497.69 576.608 518.45 580.598 539.24 584.518C552.89 587.088 566.74 588.128 580.42 590.338C582.16 590.618 584.74 587.458 585.73 591.368C569.05 615.198 547.08 633.348 523.12 649.248C503.5 662.278 482.19 671.828 459.2 676.998C446.43 679.868 433.27 681.638 420.33 677.448C401.53 671.358 394.37 655.918 397.34 638.008C400.1 621.348 409.09 607.488 418.59 594.018C426.64 582.598 435.44 571.788 445.86 562.398H445.88Z" fill="#E37B25"/>
<path d="M40.2409 133.939C34.9009 133.559 29.5509 133.439 24.2109 133.899C29.5609 131.309 34.9009 131.519 40.2409 133.939Z" fill="#DFC28A"/>
<path d="M931.771 373.979C931.751 367.889 931.721 361.809 931.701 355.719C933.321 361.799 933.371 367.889 931.771 373.979Z" fill="#CAAF7F"/>
<path d="M737.871 318.751C737.871 317.801 737.871 316.851 737.871 315.901C738.551 312.211 738.691 308.431 739.571 304.771C741.701 290.791 752.221 272.271 769.561 268.321C778.341 266.321 786.631 268.491 793.661 274.271C808.121 286.181 815.031 309.851 810.281 328.201C807.761 337.931 803.861 346.731 796.481 353.641C782.031 367.181 759.361 364.451 747.791 348.131C743.511 342.091 740.001 335.571 739.561 327.891C738.521 324.931 738.721 321.751 737.871 318.751Z" fill="#F6F5F5"/>
<path d="M827.67 459.769C838.81 459.189 848.72 455.189 857.86 449.009C859.73 447.739 861.38 446.019 863.78 445.679C867.56 445.149 870.92 446.099 872.7 449.599C874.96 454.059 873.56 458.259 870.55 461.909C863.73 470.179 854.19 474.069 844.5 477.589C829.72 482.949 814.52 483.179 799.47 479.529C779.75 474.739 762.07 466.299 751.18 447.889C748.2 442.859 749.11 438.299 753.11 435.199C756.65 432.459 760.61 432.849 764.8 437.489C774.61 448.359 786.79 454.879 800.76 458.549C803.69 459.319 806.61 459.719 809.61 459.779C815.63 461.399 821.65 460.759 827.67 459.759V459.769Z" fill="#F6F5F4"/>
<path d="M827.671 459.77C821.651 462.01 815.641 463.03 809.611 459.79C815.631 459.79 821.651 459.78 827.671 459.77Z" fill="#EAD2A3"/>
<path d="M739.571 304.758C739.761 308.588 739.671 312.368 737.871 315.888C737.581 312.048 737.341 308.208 739.571 304.758Z" fill="#E4CB93"/>
<path d="M737.871 318.75C739.641 321.57 739.811 324.69 739.571 327.89C737.121 325.19 737.721 321.93 737.871 318.75Z" fill="#E4CB93"/>
</g>
<defs>
<clipPath id="clip0_429_113">
<rect width="932.94" height="679.95" fill="white"/>
</clipPath>
</defs>
</svg>
