<svg width="216" height="420" viewBox="0 0 216 420" fill="none" xmlns="http://www.w3.org/2000/svg">
<g clip-path="url(#clip0_335_2965)">
<path d="M120.17 377.57C113.24 373.24 114.06 365.53 112.32 359.04C110.75 353.18 109.98 347.1 108.65 340.04C104.6 346.5 103.03 352.81 101.28 358.99C99.5203 365.22 97.2203 371.21 93.9003 376.73C92.1603 379.63 89.1203 381.24 86.0103 382.57C82.4703 384.08 82.0403 386.11 84.7603 388.76C85.7803 389.75 87.0103 390.5 88.3203 391.21C94.1503 394.36 98.3303 403.04 97.1303 409.77C96.3403 414.19 92.6703 416.53 88.7803 417.4C81.7703 418.97 74.6403 420.38 67.3403 419.5C63.6903 418.45 59.8703 419.83 56.2203 418.74C55.9103 418.78 55.6103 418.74 55.3203 418.62C52.0303 417.36 48.5103 418.87 45.2103 417.75C39.4103 417.71 34.6303 415.69 31.3603 410.69C30.1003 406.76 31.5603 402.64 30.5603 398.69C31.4703 392.78 32.4603 386.89 33.2303 380.97C33.5403 378.57 33.9803 376.08 31.6903 374.06C28.9603 371.65 27.8603 368.45 28.2103 364.8C27.4503 356.35 29.2003 348.08 30.2703 339.78C30.9203 334.72 31.1303 329.68 31.2503 324.64C27.8703 321.81 23.9003 323.86 20.2603 323.29C10.9603 322 1.48028 311.55 1.10028 301.93C0.860281 295.79 1.01028 289.64 1.02028 283.5C1.83028 277.57 0.730281 271.63 1.02028 265.7C1.09028 249.27 4.51028 233.52 10.6703 218.32C11.2903 216.79 11.8303 215.2 13.2403 214.16C16.4003 215.62 17.5303 218.34 15.2103 221.36C12.4303 224.98 13.7003 229.31 12.0903 233.11C10.9203 235.88 14.6103 235.93 15.8703 237.44C16.4103 241.71 14.2303 245.5 13.8003 249.6C12.3803 257.03 11.7803 264.57 10.9003 272.07C10.6703 274.06 10.0803 276.43 12.4503 277.84C14.5103 279.43 16.9703 279.7 19.4303 279.99C20.9203 280.32 22.3903 280.75 23.9503 280.63C25.8203 280.63 27.6803 280.61 29.5503 280.63C32.2003 280.54 34.8703 280.49 37.5103 280.61C41.2803 280.79 42.6903 279.18 43.0103 275.39C44.1203 262.31 46.3403 249.4 50.1003 236.8C51.1703 233.95 51.6603 230.89 52.9803 228.12C54.0703 226.17 54.7803 224.04 55.8403 222.06C56.1703 221.64 56.5703 221.29 57.0303 221.01C62.8303 219.46 64.0403 220.4 64.5903 226.84C64.5903 228.19 64.5003 229.53 64.1703 230.84C63.8303 232.12 63.4303 233.38 63.0503 234.65C59.4003 246.12 56.9803 257.84 55.6303 269.79C55.6003 271.7 54.9503 273.5 54.7303 275.37C54.7103 277.01 54.6303 278.65 54.4003 280.28C53.4003 285.73 53.4303 291.18 54.4003 296.63C54.7703 298.97 54.6403 301.32 54.5403 303.67C54.8403 306.5 57.3003 306.07 59.0103 306.4C61.7103 306.92 64.4303 307.41 67.1703 307.78C71.3903 308.9 75.7703 308.17 80.0303 308.91C82.6903 309.61 85.4203 309.51 88.1303 309.55C91.1503 309.71 94.2003 309.29 97.2003 309.97C97.7303 310.14 98.2003 310.42 98.6203 310.77C103.33 316.87 103.07 317.74 95.6103 319.29C93.7103 319.68 92.5703 321.18 90.8503 321.71C78.8403 322.73 67.0403 320.93 55.3303 318.73C45.4103 316.87 43.9803 317.15 43.1903 327.34C42.2603 339.22 41.3603 351.14 39.3403 362.92C38.7303 366.47 40.4203 368.66 43.7803 369.6C55.5603 372.89 67.6003 373.69 79.7503 373.14C84.5203 372.92 87.0803 369.62 88.7103 365.56C92.5403 356.02 96.0703 346.36 98.8903 336.46C100.09 332.27 101.45 328.16 105.79 326.03C112.31 325.38 115.27 327.37 116.98 333.52C117.42 335.1 117.71 336.71 118.15 338.29C118.47 340.09 118.74 341.91 119.24 343.68C119.87 346.67 120.77 349.6 121.37 352.6C121.7 354.7 122.31 356.76 122.55 358.88C123.1 363.73 124.66 368.05 128.55 371.27C128.21 374.79 126.19 374.95 123.82 373.31C121.48 371.69 119.3 369.76 118.67 366.7C119.36 370.31 121.63 373.67 120.14 377.56L120.17 377.57Z" fill="#181411"/>
<path d="M9.29092 89.4494C9.29092 88.7794 9.30092 88.1194 9.31092 87.4494C8.68092 76.4294 11.9809 66.2494 16.1909 56.3194C21.1609 44.5894 28.3209 34.3594 37.8409 25.8394C39.2809 24.5594 40.4909 22.7494 42.8709 23.2894C44.2509 24.6794 43.0709 25.7594 42.2909 26.6994C37.5609 32.3694 34.4909 39.4394 26.9109 43.9194C30.5409 44.3294 33.6409 41.9094 35.6809 45.0994C35.6109 46.4994 34.9009 47.6394 34.1309 48.7194C24.6809 61.9394 21.6109 77.0394 20.6809 92.8994C20.1209 102.359 18.8409 111.749 14.7309 120.519C12.4209 125.449 12.9209 126.159 18.0709 127.099C26.4909 128.619 34.9909 128.299 43.4309 127.729C55.1909 126.929 64.2409 121.399 70.0309 110.929C80.5109 96.9494 95.1809 91.6594 111.961 90.7194C113.691 91.6294 115.841 92.4794 115.511 94.8294C115.181 97.2294 112.901 97.5994 110.931 97.6394C107.461 97.7094 107.051 100.619 105.781 102.769C104.741 103.949 103.321 104.499 101.851 104.739C91.9709 106.339 85.3309 112.669 79.3509 119.999C76.4209 123.589 73.7609 127.419 70.3209 130.569C68.0009 132.699 67.8909 134.849 69.3109 137.659C78.3009 155.509 92.2109 168.269 109.841 177.229C114.481 179.589 119.641 180.239 124.621 181.469C127.851 182.169 131.071 182.179 134.281 181.309C137.101 181.019 139.881 180.289 142.751 180.749C143.751 181.249 144.081 182.199 144.191 183.179C144.481 185.749 145.791 185.819 147.471 184.479C151.161 181.539 155.831 181.779 160.031 180.519C162.771 179.689 164.991 180.859 165.861 183.639C166.751 186.479 169.091 189.199 167.011 192.449C166.841 192.469 166.601 192.559 166.521 192.479C160.501 186.769 154.161 188.789 147.571 191.399C142.181 193.529 136.281 193.509 130.611 194.519C112.931 195.469 95.5709 193.879 78.8109 187.779C76.6309 186.989 74.4209 186.289 72.4609 185.019C71.2909 184.479 70.1209 183.949 69.0809 183.179C65.3609 180.169 61.3809 178.709 56.7709 181.189C55.2609 181.629 53.8309 182.239 52.4509 182.989C44.6609 187.069 38.9609 193.489 33.2909 199.959C32.3809 201.129 31.5209 202.359 29.9009 202.619C26.9809 202.279 26.2109 200.329 26.3709 197.789C26.4809 195.999 26.2509 194.229 26.2809 192.449C26.6109 189.209 28.7009 187.469 31.5009 186.339L31.4609 186.379C33.6309 181.259 38.8309 179.429 42.6409 176.099C43.7609 175.119 45.1709 174.519 46.4409 173.739C51.7009 170.509 51.6509 170.559 47.6609 165.639C42.2209 158.919 37.2609 151.879 34.4309 143.579C34.1009 142.619 33.6809 141.739 32.8209 141.129C30.0109 139.239 27.0809 139.649 24.1109 140.619C18.4209 141.049 12.8509 140.719 7.70092 137.969C0.94092 134.359 -1.60908 129.229 0.96092 122.389C4.70092 112.429 7.84092 102.419 8.26092 91.6994C8.29092 90.8694 8.80092 90.1494 9.27092 89.4694L9.29092 89.4494Z" fill="#161310"/>
<path d="M105.2 102.25C105.38 98.8799 106.18 96.1199 110.48 96.4099C111.92 96.5099 113.73 96.8399 114.5 95.2599C115.55 93.0999 112.34 93.1499 112.19 91.4899C114.39 89.5699 117.19 89.6699 119.83 89.2199C120.89 89.1699 121.94 89.2999 122.97 89.5299C127.85 91.0099 132.64 91.8599 136.73 87.5999C141.35 86.9899 145.92 85.9499 150.62 86.0699C152.75 86.1799 154.85 85.8799 156.92 85.4099C169.28 84.8399 181.65 84.2999 193.99 83.1399C195.27 83.0199 197.02 83.4299 197.58 82.0799C198.31 80.3099 196.46 79.4899 195.34 78.6999C190.05 74.9699 187.14 69.7399 185.53 63.6499C183.27 55.0999 179.93 47.0699 174.48 40.0199C171.45 35.5599 167.5 31.9899 163.39 28.5799C160.34 26.4699 157.21 24.4899 154.23 22.2699C148.35 18.8999 142.3 16.0099 135.51 14.9899C133.14 14.8199 130.87 14.1799 128.56 13.7199C106.66 9.65985 85.7504 13.6999 65.3004 21.4199C63.5404 21.9299 61.7204 21.8799 59.9204 21.9099C57.5504 21.9499 56.7904 23.3099 56.8104 25.4099C55.4104 28.5199 52.6004 29.9599 49.7804 31.4099C44.7304 34.2599 39.6204 37.0299 36.8004 42.4899C36.7704 43.4999 36.3704 44.2499 35.3504 44.5699C33.1004 44.7599 30.7204 43.9899 28.6904 45.6999C27.7704 46.4799 26.5404 47.0299 25.7604 45.6399C25.0604 44.4199 25.9804 43.3799 26.8904 42.6699C30.1004 40.1899 33.1604 37.6399 35.4204 34.1399C37.8104 30.4499 40.6004 27.0199 43.2204 23.4799C43.3604 23.2999 43.5004 23.1299 43.6404 22.9399C47.1704 21.0599 51.1604 19.7499 52.7904 15.5199C59.2304 9.80985 67.5104 8.25985 75.2704 5.48985C77.8104 5.40985 80.3404 5.31985 82.5204 3.72985C87.9504 1.89985 93.4104 0.339854 99.2404 1.48985C99.5304 1.64985 99.8304 1.67985 100.15 1.60985C106.86 -0.430146 113.57 -0.620146 120.27 1.60985C120.91 1.56985 121.54 1.52985 122.18 1.49985C129.25 0.549854 136.03 2.62985 142.65 4.28985C159.63 8.54985 173.34 18.2299 183.86 32.1699C189.17 39.2099 193.46 47.0399 195.48 55.6299C197.27 63.2799 201.64 68.6599 207.51 73.2499C209.21 74.5799 210.87 75.9599 212.32 77.5599C217.18 82.9199 215.68 89.9999 209.14 93.1599C204.86 95.2299 200.38 95.6299 195.75 95.3999C195.17 103.1 195.65 110.8 195.49 118.5C195.5 119.06 195.47 119.61 195.4 120.17C194.95 123.67 195.59 127.19 195.33 130.69C193.94 145.64 189.83 159.55 179.9 171.26C178.61 172.78 177.45 174.49 175.73 175.48C170.68 178.42 169.29 182.15 172.76 187.19C172.67 189.15 172.68 191.07 173.82 192.84C174.62 194.09 175.33 195.54 174.28 196.93C173.04 198.57 171.42 198.01 169.88 197.28C168.27 195.97 166.57 194.7 167.08 192.22C166.62 190.32 166.29 188.37 165.68 186.52C163.74 180.58 163.85 181.4 157.46 182.54C152.94 183.34 149.12 184.64 145.54 187.26C143.79 188.54 143.21 187.53 143.16 185.86C143.12 184.38 143.14 182.9 143.14 181.41C144.07 179.51 145.96 179.23 147.7 178.8C163.28 174.87 173.04 164.42 179.37 150.31C183 142.21 184.36 133.51 184.68 124.69C184.8 121.36 185.69 118.14 185.65 114.81C185.69 110.26 185.66 105.72 185.65 101.18C185.65 99.3399 185.68 97.4799 183.15 97.2399C158.79 98.5499 134.42 99.6699 110.28 103.42C108.49 103.7 106.61 103.94 105.21 102.27L105.2 102.25Z" fill="#161310"/>
<path d="M170.03 196.19C171.18 196.55 172.41 197.88 173.52 196.51C174.61 195.18 173.44 194.08 172.52 193.21C170.44 191.25 170.95 189.19 172.1 187.05C175.2 187 176.18 189.57 177.51 191.58C184.02 201.44 187.25 212.63 190.22 223.87C194.13 238.65 197.6 253.66 198.51 268.86C199.15 279.61 200.78 290.62 198.35 301.43C196.64 309.06 192.35 315.1 184.93 317.56C179.03 319.52 175.41 322.28 175.51 328.77C175.75 340.99 175.02 353.22 175.88 365.42C176.68 368.7 175.53 371.63 174.21 374.51C171.53 380.32 172.15 381.68 178.4 383.84C182.35 385.2 185.94 387.22 189.38 389.6C195.08 393.53 195.62 399.41 195.64 405.5C195.64 406.35 194.95 406.97 194.16 407.36C191.15 408.12 188.83 406.74 186.64 404.96C184.11 397.67 178.88 393.73 171.37 392.37C167 391.58 163.57 389.43 162.84 384.55C162.47 382.07 160.81 381.94 158.81 382C153.17 382.18 147.61 383.54 141.93 383.1C140.12 383.11 138.3 383.19 136.58 382.45C132.22 376.7 128.81 375.67 121.13 377.8C120.8 377.73 120.47 377.65 120.15 377.58C119.22 373.73 118.27 369.89 117.39 366.04C117.14 364.94 116.76 363.41 118.32 363.14C120.46 362.77 120.16 364.55 119.99 365.81C119.46 369.81 123.17 370.84 125.13 373.02C126.38 374.41 127.46 373.02 128.14 371.77C129.16 370.74 130.42 370.6 131.77 370.78C132.27 370.87 132.74 371.04 133.18 371.28C138.15 375.18 142.17 375.45 147.29 372.19C148.26 371.57 149.22 370.97 150.36 370.69C160.507 369.336 165.58 363.52 165.58 353.24C165.58 343.78 165.61 334.32 165.57 324.86C165.54 318.55 165.19 318.34 159.06 319.06C150.52 320.06 142.07 322.34 133.36 321.02C130.11 319.11 126.35 319.35 122.83 318.54C120.17 317.93 119.61 320.4 118.07 321.45C116.11 322.36 114.1 322.31 112.07 321.77C111.61 321.58 111.22 321.29 110.9 320.91C110.53 319.96 110.6 319 110.85 318.02C111.61 315.07 109.91 315.1 107.74 315.47C107.1 317.99 112.23 318.67 109.58 321.6C108.57 322.12 107.49 322.22 106.39 322.3C101.32 321.93 96.0505 323.79 91.2305 320.89C92.3205 318.76 93.9905 317.74 96.4405 317.88C97.8805 317.96 99.6005 318.29 100.52 316.76C101.7 314.78 99.3605 314.45 98.7105 313.3C98.3305 312.63 98.3605 311.73 98.2105 310.94C99.3405 309.67 100.86 309.62 102.39 309.55C105.93 309.29 109.47 309.64 113 309.48C116.64 309.53 120.3 309.24 123.92 309.84C124.24 309.91 124.57 309.99 124.85 310.15C128.717 312.33 132.107 311.96 135.02 309.04C145.21 307.72 155.49 307.01 165.43 304.11C170.96 302.5 172.66 300.56 172.35 294.93C171.23 274.91 170.41 254.86 167.36 235C166.83 231.55 166.1 228.15 165.16 224.79C164.57 222.37 164.01 219.99 164.65 217.43C165.94 212.26 167.6 211.56 172.21 214.49C172.73 215.13 173.09 215.85 173.35 216.62C174.53 219.53 175.81 222.41 176.46 225.51C179.63 239.63 181.31 253.95 182.39 268.36C182.49 269.68 182.39 271.01 182.8 272.31C183.27 273.84 184.4 274.37 185.86 274.27C187.16 274.19 187.97 273.44 188.26 272.14C188.75 269.99 188.45 267.86 188.18 265.71C186.47 251.67 182.98 237.99 179.65 224.28C178.33 218.63 175.24 213.52 174.61 207.66C176.57 205.64 175.95 204.41 173.4 203.78C171.27 201.7 168.68 199.82 170.02 196.2L170.03 196.19Z" fill="#171411"/>
<path d="M121.15 377.79C121.24 376.17 122.27 375.29 123.72 375.37C126.49 375.51 129.26 375.87 132.02 376.23C135.21 376.65 136.6 378.52 136.13 381.73C135.3 383.1 132.99 382.61 132.61 384.54C132.41 387.38 132.59 390.21 132.54 393.04C132.66 396.41 132.56 399.77 132.69 403.13C132.95 405.38 134.42 406.04 136.46 406.27C150.13 407.83 163.84 407.37 177.56 407.21C180.99 407.17 183.72 405 187.01 404.68C189.53 404.86 191.47 407.08 194.14 406.72C196.03 409.68 194.44 411.98 192.22 413.46C187.22 416.8 181.83 419.17 175.56 417.15C166.98 417.1 158.4 417.15 149.83 417.13C149.27 417.15 148.7 417.1 148.15 416.99C144.34 416.75 140.53 416.86 136.74 417.48C124.58 416.47 119.83 410.3 122.66 399.19C122.34 392.43 123.39 385.64 122.09 378.91C121.78 378.54 121.46 378.16 121.15 377.79Z" fill="#181411"/>
<path d="M30.5804 398.68C32.2104 402.59 30.9704 406.69 31.3804 410.68C29.1804 406.81 30.6204 402.7 30.5804 398.68Z" fill="#413B35"/>
<path d="M125.162 310.919C121.172 310.919 117.172 310.909 113.182 310.899C109.522 309.959 105.872 306.349 102.212 310.899C100.882 310.899 99.5519 310.919 98.2219 310.929V310.899C94.8919 309.419 91.5719 309.299 88.2419 310.899C85.5919 310.479 82.7219 311.899 80.2619 309.919C79.2219 306.819 77.5119 304.879 73.8419 306.009C72.9319 306.289 71.8019 306.309 70.9419 305.919C67.7719 304.499 66.9619 306.529 66.3019 308.899C62.5219 308.229 58.7419 307.599 54.9719 306.879C53.9919 306.689 52.4619 306.749 53.3419 304.919C55.0119 303.229 57.3819 303.929 59.3219 303.169C60.8919 302.549 62.5319 301.769 62.4319 299.859C62.3219 297.819 60.3019 298.319 59.0019 297.909C57.1619 297.329 55.0519 298.289 53.3419 296.939C51.7619 291.289 51.7619 285.629 53.3419 279.979C57.8419 278.319 54.9019 276.659 53.3419 274.989C53.6719 273.329 54.0019 271.659 54.3319 269.999C56.2719 268.369 57.6319 266.729 57.4119 263.739C57.0519 258.899 58.4919 258.049 63.5219 259.489C62.9919 256.229 63.9519 253.239 65.3019 250.479C66.6619 247.689 66.7919 244.829 67.1219 241.859C67.5819 237.749 66.0419 235.349 62.2919 234.079C62.3419 232.989 62.1119 231.799 63.2919 231.089C63.7619 229.539 66.8319 228.699 64.5519 226.409C62.5419 220.959 63.6519 215.339 63.9119 209.829C64.1619 204.479 61.6819 201.179 57.3319 198.779C56.7519 198.459 57.6519 198.579 57.0119 198.389C55.8919 198.059 56.3219 199.209 55.8919 199.529C52.7619 201.829 45.7219 200.579 48.2319 207.979C48.3019 210.239 47.3419 212.519 48.3619 214.759C49.8119 218.009 53.2319 217.449 55.7819 218.479C58.3219 219.519 58.3819 220.569 56.3319 222.119C54.9819 223.749 53.3019 224.939 51.4019 225.859C49.9119 226.589 48.5119 227.419 49.2319 229.489C49.4919 231.829 49.6919 234.179 51.3419 236.079C49.6619 244.939 47.0019 253.609 46.0019 262.609C45.4619 267.499 44.6519 272.369 44.4419 277.269C44.3019 280.589 43.3019 282.179 39.8019 281.999C36.3419 281.829 32.8619 281.959 29.3919 281.949C27.4019 279.239 25.4019 279.759 23.4019 281.949C21.9519 282.119 20.6619 281.639 19.4219 280.959C18.2819 279.099 17.8219 276.969 16.9919 274.989C16.5719 273.979 16.5019 272.409 14.9619 272.579C13.5419 272.739 13.4119 274.099 13.3719 275.289C13.3219 276.589 13.6219 277.979 12.4419 278.989C9.41186 278.719 9.24186 276.509 9.48186 274.299C10.4119 265.879 11.4619 257.469 12.4619 249.059C15.1319 249.419 14.9119 251.779 15.3219 253.499C16.1019 256.829 16.3719 260.279 17.4019 263.549C19.1719 267.209 21.1219 265.319 23.0519 263.729C25.0419 261.259 25.0819 258.189 25.5719 255.289C26.0719 252.339 26.1619 249.319 29.9119 248.379C31.0919 248.079 31.7719 247.009 31.4219 245.649C31.1119 244.429 30.2419 243.699 29.0719 243.319C27.7719 242.889 26.4419 243.319 25.1419 243.209C21.9719 242.929 17.6619 244.909 16.5019 239.979C15.4419 235.459 17.4719 232.329 22.0319 231.019C24.4619 228.239 23.1319 224.939 23.3019 221.849C23.6219 217.639 26.1319 215.239 29.8819 213.859C30.7519 213.959 31.1819 214.639 31.8019 215.409C32.4919 214.369 32.0319 213.319 32.0419 212.339C31.1119 209.989 30.5919 211.839 29.9219 212.529C26.9719 215.559 26.3019 215.379 24.4419 211.069C25.0019 207.149 27.2119 204.329 30.3719 202.149C31.0519 201.149 31.7319 200.159 32.4019 199.159C37.6219 197.219 39.8819 191.969 43.9019 188.619C46.6319 186.349 50.8819 186.009 52.3219 182.189C53.3519 180.909 54.7319 180.359 56.3219 180.209C59.1919 180.849 60.9619 182.879 62.1619 185.509C64.7119 183.979 65.8019 180.329 69.2919 182.189C70.2919 182.529 71.2819 182.869 72.2819 183.209C73.6119 187.189 73.1119 191.379 73.5419 195.459C73.8219 198.159 74.2019 200.269 77.0919 201.299C79.5819 202.189 80.5019 204.289 80.5819 206.829C80.6619 209.489 80.6819 212.149 80.6019 214.809C80.6019 215.609 80.5219 216.409 80.3819 217.189C78.9019 220.939 81.4219 224.849 79.9819 228.599C77.7919 230.189 76.3319 232.099 77.1719 235.029C76.8619 238.649 77.0719 242.259 77.4119 245.859C77.8119 250.869 81.6219 250.419 85.1119 250.739C81.4419 246.039 81.8619 244.839 87.6819 242.979C91.2619 242.479 94.1319 243.749 96.4019 246.489C97.7119 248.449 96.5019 250.209 96.0419 252.079C94.9019 256.719 96.5519 258.419 100.942 257.099C102.552 256.609 103.872 256.799 104.982 257.929C106.332 259.309 107.872 259.999 109.802 259.769C111.082 260.539 111.112 261.689 110.802 262.949C108.622 266.859 105.072 269.019 100.872 269.739C96.8919 270.419 96.5319 273.049 96.1819 276.189C95.7819 279.769 98.4819 279.619 100.582 280.299C100.902 280.399 101.312 280.419 101.512 280.639C105.862 285.439 112.392 287.329 116.742 292.099C117.742 293.199 118.512 294.509 119.942 295.129C122.152 296.079 124.482 298.629 126.732 296.829C128.882 295.119 128.502 291.679 129.412 289.059C129.812 287.909 128.622 287.639 127.532 287.399C122.322 286.259 121.092 283.949 123.102 278.999C124.162 276.399 125.742 274.009 126.332 271.209C126.672 270.309 127.132 269.479 127.852 268.819C131.302 267.769 131.842 270.929 133.282 272.679C134.652 274.349 136.092 275.799 138.272 274.369C140.502 272.919 139.752 271.019 138.522 269.229C138.912 264.809 138.032 260.049 141.852 256.529C142.342 255.979 142.902 255.489 143.482 255.029C147.912 252.159 147.962 246.999 149.872 242.819C152.382 241.799 154.822 241.199 155.352 237.549C155.902 233.719 159.022 236.749 161.602 236.339C157.742 233.419 156.872 230.519 161.022 227.549C161.772 227.009 161.702 225.749 161.912 224.789C162.712 221.099 164.152 221.119 166.072 224.089C169.182 230.619 168.872 237.819 170.032 244.729C172.782 261.009 172.172 277.559 174.002 293.919C174.722 300.359 172.462 303.649 166.312 305.309C155.772 308.159 145.082 309.919 134.142 309.899C131.182 310.529 128.382 312.609 125.162 310.889V310.919Z" fill="#27241F"/>
<path d="M91.2414 320.871C96.5614 320.871 101.881 320.891 107.201 320.901C109.261 323.291 109.041 325.291 106.211 326.861C102.661 329.221 101.301 332.871 100.201 336.771C97.2314 347.271 93.6014 357.541 89.3714 367.601C87.2214 372.711 83.4514 374.801 78.0714 374.781C66.1414 374.731 54.2914 374.111 42.7314 370.821C38.7214 369.681 36.9314 367.041 37.7514 363.131C39.9114 352.771 40.2414 342.191 41.3514 331.711C41.7514 327.941 42.5114 324.231 42.5014 320.381C42.4914 317.071 45.9714 315.381 50.0114 316.271C63.6014 319.271 77.3614 320.691 91.2614 320.871H91.2414Z" fill="#27241F"/>
<path d="M106.201 326.859C108.131 325.139 107.321 322.959 107.191 320.899C108.191 320.899 109.181 320.879 110.181 320.879C110.511 320.419 110.851 320.409 111.191 320.879V320.899C115.601 323.339 119.711 321.269 123.881 320.019C126.631 319.659 129.361 318.319 132.131 319.879C141.911 320.419 151.481 318.819 161.041 317.059C166.031 316.139 167.031 316.889 167.041 321.749C167.061 335.319 166.931 348.889 167.121 362.459C167.181 366.849 165.521 369.159 161.291 370.239C157.261 371.269 153.261 372.039 149.091 371.769C143.771 373.829 138.451 374.269 133.131 371.769C132.801 371.769 132.471 371.749 132.131 371.739C131.701 367.229 135.111 367.699 137.651 367.909C141.381 368.199 142.361 366.779 141.901 363.309C141.481 360.189 141.731 357.019 141.781 353.859C141.841 349.499 143.771 347.409 148.351 348.119C150.921 348.519 153.541 348.899 157.491 348.079C152.371 346.139 152.281 342.949 152.561 339.229C153.071 332.599 151.671 331.289 145.141 331.219C141.821 331.189 138.501 331.329 135.191 331.179C131.511 331.009 129.701 332.029 130.061 336.259C130.711 343.979 126.351 348.999 120.161 352.789C119.491 349.799 118.821 346.809 118.151 343.819C122.481 341.429 118.271 336.629 120.381 334.899C119.931 335.639 120.881 339.009 117.161 338.829C116.491 336.489 115.901 334.119 115.141 331.819C113.701 327.449 110.161 326.719 106.191 326.849L106.201 326.859Z" fill="#27231F"/>
<path d="M70.4013 410.659C61.1113 410.909 51.9113 410.029 42.7313 408.699C39.0913 408.169 38.0113 406.079 38.5213 402.749C39.4613 396.559 40.5013 390.389 41.3313 384.179C41.6713 381.659 42.4013 380.709 45.1913 381.479C53.5113 383.779 62.2113 383.439 70.7013 384.619C73.6413 385.029 75.6213 385.559 75.2513 388.919C74.9613 391.519 76.3913 392.599 78.3913 393.889C81.5113 395.909 85.2113 397.149 87.1513 400.939C89.7213 405.969 87.5113 410.479 81.8813 410.649C78.0613 410.769 74.2313 410.669 70.4113 410.659H70.4013Z" fill="#27241F"/>
<path d="M120.182 352.811C122.802 350.521 123.932 347.151 126.982 344.871C129.202 343.221 129.272 338.621 128.732 335.151C128.012 330.541 128.382 329.951 133.062 329.891C138.202 329.831 143.352 330.031 148.482 329.821C152.152 329.671 153.602 331.621 154.012 334.771C154.232 336.401 154.212 338.101 154.052 339.741C153.752 342.761 152.362 346.221 157.702 346.051C158.902 346.011 159.172 347.321 158.912 348.341C158.462 350.071 157.082 350.601 155.462 350.431C152.682 350.131 149.872 349.931 147.172 349.281C144.552 348.651 143.222 349.491 143.182 352.031C143.112 356.331 143.042 360.661 143.412 364.941C143.752 368.941 142.622 370.361 138.572 369.381C135.722 368.691 133.362 368.421 132.162 371.761C130.832 371.761 129.502 371.761 128.172 371.761C124.202 369.711 122.262 366.521 121.972 361.991C121.772 358.901 120.812 355.871 120.192 352.811H120.182Z" fill="#27241F"/>
<path d="M13.5815 289.869C17.1515 290.279 20.7215 290.679 24.3015 291.089C29.7015 291.789 35.1115 291.619 40.5215 291.169C41.4315 291.309 42.4515 290.759 43.2215 291.759C46.0015 295.429 44.2515 305.269 40.3515 307.799C39.2615 308.509 37.8115 309.029 37.1815 310.039C33.2315 316.399 27.0015 315.579 21.4515 314.279C16.0415 313.009 12.3315 308.889 11.4215 302.959C10.4215 299.319 11.1415 295.599 10.9815 291.919C10.9015 290.149 11.5115 289.009 13.5915 289.869H13.5815Z" fill="white"/>
<path d="M16.4214 265.019C14.1114 259.949 15.2614 254.01 12.4414 249.069C13.4314 245.079 14.4214 241.079 15.4114 237.089C15.0614 236.689 14.8514 236.229 14.7814 235.699C15.9814 227.599 19.6814 220.379 22.8714 212.979C23.3114 211.949 23.8814 210.829 25.3914 211.149C26.1214 214.369 27.2014 215.109 29.1214 211.779C29.7914 210.619 29.8214 208.409 31.7314 208.809C32.9214 209.059 33.2814 210.789 33.3814 212.149C32.4914 212.979 31.7814 214.079 30.3914 214.149C27.6414 216.239 24.3714 217.949 24.4014 222.129C24.1714 225.469 22.7114 228.679 23.4014 232.109C22.2514 233.909 19.7414 232.35 18.5514 234.07C17.1114 236.15 17.0214 238.529 17.7114 240.759C18.3814 242.879 20.5214 241.959 22.0514 242.059C24.0314 242.189 25.9914 241.739 27.9414 241.569C30.5914 241.349 32.7214 242.909 33.2914 245.739C33.8514 248.519 32.0814 249.499 29.6914 250.049C24.9314 251.149 27.7114 255.459 26.5314 258.129C25.5114 260.429 25.9614 263.379 23.4014 265.029C21.0714 266.019 18.7414 266.489 16.4214 265.029V265.019Z" fill="#27231F"/>
<path d="M56.3204 222.131C56.1604 221.361 58.2904 220.291 55.9404 219.791C53.7904 219.331 51.7004 218.471 49.5304 218.171C47.4904 217.891 47.3204 216.681 47.3304 215.141C47.8604 214.481 47.4404 213.361 48.0704 212.921C51.1704 210.761 48.7704 209.551 47.3304 208.151C45.4104 202.211 46.9504 199.861 52.6104 200.051C54.0571 200.097 55.0938 198.654 55.7204 195.721C58.3504 197.521 60.0204 200.361 63.5304 201.081C64.5904 201.301 65.1204 206.131 65.1704 208.861C65.2804 214.941 63.9904 221.021 65.2804 227.101C64.6204 227.631 63.9604 227.701 63.3004 227.101C63.1204 220.731 62.7004 220.421 56.3004 222.121L56.3204 222.131Z" fill="#27231F"/>
<path d="M62.3018 234.1C66.9818 233.31 68.4318 235.1 68.4918 239.95C68.5518 245.14 67.4218 249.82 65.3618 254.34C64.5318 256.16 63.9118 257.6 65.1418 259.34C65.7018 260.13 66.5418 261.06 65.1918 261.76C64.2918 262.23 63.2518 262.03 62.5118 261.16C61.6818 260.2 61.0018 258.65 59.3918 259.78C57.9618 260.78 58.0118 262.51 58.5018 263.87C59.9818 267.98 58.5018 269.85 54.3418 270.02C55.7818 257.78 57.5318 245.61 62.3018 234.1Z" fill="#27241F"/>
<path d="M15.4118 236.09C15.4118 236.42 15.4118 236.76 15.4118 237.09C11.7518 237.72 9.33179 234.99 10.9118 231.6C11.8618 229.57 12.8918 227.89 11.7718 225.62C11.1918 224.46 11.6318 223.29 12.7118 222.58C16.3718 220.2 15.2818 217.02 14.2718 213.83C14.3818 213.27 14.4918 212.71 14.6018 212.15C18.2718 210.2 19.2218 210.57 19.6418 214.36C20.1318 218.74 19.1918 222.91 17.1218 226.74C15.5118 229.73 14.6318 232.72 15.4118 236.09Z" fill="#161310"/>
<path d="M53.3301 296.95C56.3801 295.4 59.4501 296.77 62.4501 297.12C64.9101 297.41 65.0001 300.81 62.7201 302.95C59.9901 305.5 56.5901 304.88 53.3301 304.94C53.3301 302.28 53.3301 299.62 53.3301 296.96V296.95Z" fill="#27241F"/>
<path d="M66.3013 308.899C65.9613 305.639 65.4913 302.399 70.6813 304.739C71.9013 305.289 73.6013 304.989 75.0413 304.779C80.1913 304.029 80.8913 304.669 80.2713 309.919C75.6013 309.729 70.8713 310.519 66.3113 308.899H66.3013Z" fill="#27241F"/>
<path d="M12.4206 279.001C13.0206 276.481 10.2606 273.521 13.5706 271.321C14.8006 270.501 16.2706 269.601 16.7906 271.271C17.7806 274.461 20.3306 277.281 19.4106 280.981C16.8906 281.011 14.2906 281.281 12.4206 279.011V279.001Z" fill="#27241F"/>
<path d="M117.182 338.841C119.362 337.281 120.702 335.411 119.582 332.571C119.202 331.611 119.022 330.451 120.342 330.181C122.052 329.831 122.322 331.261 122.102 332.391C121.432 335.791 121.262 339.011 121.912 342.561C122.582 346.201 119.472 343.361 118.182 343.841C117.222 342.301 117.072 340.601 117.192 338.851L117.182 338.841Z" fill="#27241F"/>
<path d="M51.3401 236.09C45.9501 235.65 49.3201 231.44 48.3401 229.11C49.9401 226.44 51.8801 225.84 54.3101 228.11C53.3201 230.77 52.3301 233.43 51.3401 236.09Z" fill="#27241F"/>
<path d="M54.3114 228.109C52.1114 227.199 50.2014 227.989 48.3414 229.109C46.9914 227.959 47.1414 226.859 48.6214 226.059C51.1514 224.689 53.7514 223.439 56.3314 222.129C56.5814 224.429 55.1814 226.179 54.3114 228.109Z" fill="#27231F"/>
<path d="M88.2402 310.9C88.3002 310.26 88.1302 309.39 88.4802 309.04C89.5702 307.92 96.8802 309.41 98.2202 310.9C94.8902 310.9 91.5702 310.9 88.2402 310.9Z" fill="#27241F"/>
<path d="M53.3518 275C54.0018 275.07 54.7818 274.92 55.2618 275.24C56.8218 276.28 58.1018 278.05 57.5418 279.69C56.7218 282.11 54.7718 279.67 53.3418 279.99C53.3418 278.33 53.3418 276.66 53.3418 275H53.3518Z" fill="#27241F"/>
<path d="M23.3912 281.969C22.2212 278.119 25.2112 279.309 26.9812 278.989C29.6212 278.519 30.0012 279.839 29.3812 281.969C27.3812 281.969 25.3912 281.969 23.3912 281.969Z" fill="#27241F"/>
<path d="M13.5803 289.869C11.3403 290.209 11.3403 291.849 11.3603 293.569C11.4103 296.699 11.4003 299.829 11.4103 302.949C9.4103 299.059 10.4803 294.869 10.4203 290.829C10.3903 288.489 12.1203 288.939 13.5703 289.869H13.5803Z" fill="#D4CEC8"/>
<path d="M40.5208 291.16C35.1108 292.46 29.7008 292.53 24.3008 291.08C29.7108 291.11 35.1108 291.13 40.5208 291.16Z" fill="#7E7973"/>
<path d="M63.3208 227.11H65.3008C67.2808 226.32 67.8708 227.21 66.7808 228.74C66.0208 229.81 64.4908 230.33 63.3008 231.1C63.3008 229.77 63.3208 228.44 63.3208 227.11Z" fill="#27241F"/>
<path d="M33.2712 323.109C28.9512 322.299 24.4212 323.979 20.2012 321.999C24.5512 322.399 29.0912 320.589 33.2712 323.109Z" fill="#3C3835"/>
<path d="M64.3301 20.6199C75.6101 15.6499 87.3501 12.7299 99.6701 11.4899C107.97 10.6499 116.12 10.4599 124.36 11.5899C126.01 11.8199 127.67 11.7499 129.14 12.6699C130.21 15.5199 131.27 18.2399 135.14 18.2499C137.01 18.2499 137.84 19.8999 138.38 21.5799C139.19 24.1199 139.61 26.7399 140.11 29.3399C140.52 31.4399 141.64 33.9699 138.49 34.5999C135.43 35.2099 135.23 32.6099 134.92 30.3299C134.23 31.0799 133.91 32.0499 133.31 32.8499C130.84 36.1599 132.78 37.6399 135.86 37.4799C140.7 37.2299 145 37.1399 145.76 43.4399C145.84 44.0799 146.55 44.5899 147.28 44.3899C148.61 44.0299 149.22 42.9099 148.93 41.7099C148.25 38.8899 148.15 36.3799 149.77 33.6499C150.89 31.7699 148.99 29.9599 147.79 28.3899C146.67 26.9299 145.61 27.5099 144.43 28.4399C142.86 29.6799 141.24 28.9499 140.78 27.4499C139.57 23.4799 138.13 19.7199 135.59 16.3799C135 15.6099 135.36 14.4499 136.15 13.6599C142.95 15.1499 149.36 17.5799 155.11 21.5899C155.75 24.4599 158.76 25.5499 159.93 28.2299C160.87 30.3799 162.68 28.0899 164.08 27.6099C168.16 30.8299 171.82 34.4699 175.02 38.5599C174.9 43.2399 171.61 46.1999 168.52 48.7099C165.39 51.2599 163.02 54.3999 160.14 57.0799C157.4 59.6299 156.01 62.5399 156.18 66.3299C156.28 68.4899 155.63 71.0499 158.04 72.0499C160.23 72.9599 162.69 72.0899 164.59 70.7699C165.94 69.8299 167.05 67.9699 168.79 68.8399C171.37 70.1299 173.65 72.0299 176.39 73.1099C176.75 73.2499 176.7 74.0099 176.67 74.5099C176.48 77.8399 170.34 83.8199 167.03 83.2499C164.24 82.7799 161.82 84.0299 159.26 83.8999C156.98 83.7899 157.62 85.4599 157.09 86.4399C155.24 87.6399 153.16 87.4599 151.11 87.3999C146.56 84.2099 141.83 82.3299 136.42 85.3799C133.82 86.8399 130.99 86.9899 128.19 86.4099C125.54 85.8599 124.78 84.4699 127.3 82.2899C123.99 83.1499 120.93 85.0299 117.47 83.3899C116.05 82.7199 115.36 83.5899 115.03 84.9399C114.48 87.1899 112.51 88.0499 110.82 87.4199C106.8 85.9299 103.93 87.2299 100.91 89.8099C98.7901 91.6199 95.8401 91.7399 93.1101 92.4099C86.4101 94.0399 80.1801 97.2299 76.0801 103.12C74.2801 105.7 70.8101 107.44 71.2701 111.37C63.9901 124.91 51.9901 129.54 37.4101 129.35C30.3001 129.26 23.1801 129.66 16.1201 128.31C11.3401 127.4 10.5301 126.38 12.5901 122.11C17.6401 111.62 18.7701 100.42 19.5201 88.9999C20.5901 72.7799 25.1301 57.5999 35.3501 44.5499C35.7001 43.8899 36.0501 43.2299 36.4001 42.5599C39.7701 37.5499 44.2201 33.6999 49.3401 30.5799C51.6701 28.9099 54.0001 27.2399 56.3201 25.5699C57.9601 22.2599 61.3801 21.8199 64.3401 20.6199H64.3301Z" fill="#2F2C27"/>
<path d="M186.822 115.381C185.732 127.441 185.712 139.721 180.512 151.001C173.632 165.951 163.292 177.041 146.292 180.281C145.202 180.491 144.162 181.021 143.102 181.391C140.142 181.731 137.192 182.071 134.232 182.411C130.832 182.881 127.432 182.891 124.042 182.411C111.492 181.071 101.402 174.541 91.6815 167.171C81.4215 159.381 74.0415 149.341 68.0415 138.061C66.2215 134.651 66.0415 132.641 69.0815 129.731C73.9415 125.071 78.2715 119.811 82.5015 114.551C87.7315 108.061 94.4915 104.661 102.552 103.381C103.472 103.231 104.312 102.651 105.192 102.271C111.792 102.561 118.172 100.751 124.642 99.9706C128.502 99.5106 132.492 99.2006 136.332 98.7906C142.512 98.1306 148.762 97.3806 155.062 97.3106C164.732 97.2106 174.382 96.2406 184.042 95.6406C186.492 95.9706 186.482 97.7006 186.522 99.6306C186.612 104.891 186.102 110.161 186.822 115.401V115.381Z" fill="#FDCEA2"/>
<path d="M76.2709 246.07C75.9309 242.41 74.9509 238.75 76.2709 235.1C77.7109 233.33 78.5909 231.27 79.2609 229.11C80.2109 225.12 76.7709 221.13 79.2609 217.14C80.0409 216.58 81.0909 216.76 82.1109 216.35C81.0909 215.65 79.9209 216.01 79.2609 215.15C79.2609 213.16 79.1209 211.16 79.2909 209.19C79.6309 205.12 79.0309 201.82 73.9209 201.81C72.5109 201.81 72.2109 200.92 72.3209 199.89C72.9309 194.34 70.3809 188.8 72.2809 183.26C80.0309 187.54 88.5709 189.36 97.1009 191.23C108.351 193.7 119.761 193.18 131.141 193.22C134.391 196.18 134.971 200.51 132.561 204.09C131.031 206.36 128.891 206.51 126.981 204.96C122.671 201.46 118.321 203.11 113.261 204.34C115.261 206.36 117.231 205.74 119.011 205.63C120.981 205.5 122.931 204.84 124.931 205.25C126.431 205.56 127.971 206.09 128.401 207.69C128.881 209.52 127.401 210.29 126.021 210.97C123.481 211.8 120.841 211.35 118.261 211.6C108.871 212.89 102.581 218.16 98.8009 226.7C98.2809 227.87 97.9909 229.32 96.2709 229.37C92.8609 226.53 93.2409 222.96 95.7009 220.25C97.9309 217.79 98.8709 214.39 101.791 212.54C102.531 212.07 103.061 211.24 102.211 210.53C101.371 209.82 100.451 210.51 100.251 211.27C98.9909 215.92 96.6309 217.55 91.8609 215.29C90.1709 214.49 89.2609 216.38 89.4509 218.06C89.9209 222.18 90.0009 226.27 89.6409 230.41C89.3709 233.49 92.2809 235.02 93.8009 237.81C93.5409 232.343 94.5809 229.946 96.9209 230.62C98.1809 235.16 97.3809 239.86 98.1109 244.44C97.9609 245.66 97.4509 246.62 96.2209 247.07C93.4409 245.43 90.8409 243.26 87.2409 244.08C84.8009 243.56 82.8609 244.22 81.1209 246.11C79.6809 247.67 77.8609 248.61 76.2609 246.07H76.2709Z" fill="#27231F"/>
<path d="M126.152 210.01C126.512 209.18 128.292 208.95 127.522 207.76C126.672 206.45 125.082 206.01 123.562 206.23C120.792 206.62 118.092 207.5 115.242 207.18C113.552 206.99 111.182 207.75 111.342 204.81C111.472 202.36 113.432 202.26 115.362 202.16C116.832 202.08 118.292 201.78 119.732 201.47C122.482 200.88 124.962 201.01 126.942 203.42C127.772 204.43 128.802 205.46 130.342 204.92C132.102 204.31 131.792 202.64 132.242 201.25C133.192 198.31 132.402 195.78 131.172 193.22C140.102 191.91 148.982 190.43 157.302 186.67C159.472 185.69 161.092 187.12 162.632 188.33C164.172 189.55 165.602 190.92 167.072 192.22C168.062 193.55 169.062 194.88 170.052 196.2C170.452 199.06 172.252 201.12 174.042 203.18C175.102 204.32 176.322 205.43 175.062 207.17C177.052 212.49 179.032 217.82 181.022 223.14C179.622 225.54 177.942 227.14 175.062 225.13C174.502 222.3 173.392 219.69 172.072 217.15C172.502 216.49 173.902 215.81 172.052 215.17C166.992 212.71 167.202 212.78 165.772 218.31C165.212 220.47 166.422 222.18 166.082 224.13C165.042 224.2 163.172 220.64 163.072 224.83C163.052 225.66 163.272 226.78 162.832 227.25C159.992 230.33 157.092 233.17 163.542 235.56C164.392 235.87 163.292 237.29 162.622 238C161.652 239.01 160.612 239.08 159.602 238.06C157.252 235.7 155.882 235.88 156.122 239.5C156.442 244.49 152.752 242.73 150.302 243.08C148.402 240.71 150.002 238.01 149.602 235.46C148.742 230.03 146.742 225.02 144.722 220C145.982 216.22 143.932 215.45 140.772 215.69C138.822 215.45 137.162 214.5 135.522 213.51C132.742 211.44 128.502 213.28 126.172 210.01H126.152Z" fill="#26231E"/>
<path d="M89.2602 179.369C84.1802 179.099 80.1602 177.099 76.3502 174.969C63.2102 167.619 52.7002 157.649 46.2402 143.769C44.7802 140.619 44.8502 139.339 48.9202 138.919C56.4602 138.149 56.5502 137.789 59.7302 144.279C65.5202 156.069 73.6802 165.869 83.9202 174.009C85.4702 175.239 86.9602 176.559 88.4602 177.859C88.6802 178.049 88.7602 178.399 89.2602 179.369Z" fill="#FACFA6"/>
<path d="M71.2601 111.38C70.9501 110.82 70.4401 110.28 70.3801 109.7C70.2801 108.62 76.7101 98.5504 77.7701 98.2404C81.7701 97.0704 84.7701 94.2604 88.2101 92.1604C89.4501 91.4004 91.3801 90.2804 92.2901 90.7404C96.3501 92.7804 98.5501 88.6304 101.8 88.3204C101.96 88.3004 102.25 88.2504 102.26 88.1804C103.33 81.2904 107.19 86.3504 109.88 86.3904C112 86.4304 114.65 86.9904 114 83.3804C113.57 80.9804 115.56 81.0404 116.33 81.5904C120.08 84.2804 123.57 81.6904 127.16 81.4404C127.96 81.3804 128.75 81.2604 129.64 81.1504C129.44 83.1104 127.15 82.7804 126.62 84.4104C126.87 84.6804 127.16 85.2504 127.48 85.2704C130.76 85.4804 133.9 85.8104 136.98 83.6604C140.21 81.4104 148.92 82.8404 151.38 85.5604C151.64 85.8504 151.21 86.7804 151.1 87.4104C146.11 87.7604 141.11 88.1204 136.12 88.4704C132.77 90.3604 129.14 90.6304 125.42 90.3704C123.67 90.5704 121.9 87.6004 120.16 90.4004C117.47 90.4804 114.95 91.9104 112.19 91.4704C96.2701 93.4304 81.4001 97.5304 71.2601 111.37V111.38Z" fill="#2F2C27"/>
<path d="M15.4116 236.089C11.5416 232.899 13.9816 228.849 15.5716 226.579C18.6016 222.239 18.5016 217.789 18.3116 213.179C18.1816 209.939 15.8616 212.469 14.5916 212.159C18.1216 204.979 21.8616 197.929 27.2916 191.949C27.1616 193.729 28.1316 195.409 27.5416 197.289C26.7616 199.779 27.9916 201.369 30.3616 202.179C29.3716 205.539 25.6316 207.379 25.3816 211.159C22.2416 217.249 19.3016 223.409 17.4016 230.029C16.8116 232.079 16.0716 234.079 15.4016 236.109L15.4116 236.089Z" fill="#181411"/>
<path d="M69.2905 182.22C66.9805 182.72 64.9105 183.29 64.2305 186.15C63.4905 189.28 61.4405 187.55 61.1205 186.24C60.4205 183.33 57.7305 182.35 56.3105 180.24C61.1505 177.52 65.5005 178.01 69.2805 182.23L69.2905 182.22Z" fill="#27231F"/>
<path d="M52.3206 182.209C53.4206 184.629 52.2806 185.969 50.0606 186.649C45.0906 188.179 41.5506 191.499 38.8806 195.769C37.3206 198.259 35.3506 199.549 32.3906 199.179C38.3706 192.749 43.6806 185.529 52.3106 182.209H52.3206Z" fill="#27231F"/>
<path d="M124.051 182.41C127.451 182.41 130.841 182.41 134.241 182.41C130.841 183.75 127.441 183.74 124.051 182.41Z" fill="#161310"/>
<path d="M157.081 86.4598C156.531 85.6398 155.791 84.8798 155.471 83.9798C154.881 82.2898 155.381 81.1998 157.331 82.1698C159.301 83.1498 160.891 83.7198 162.351 81.3198C163.041 80.1898 164.021 81.3398 164.901 81.6798C168.581 83.0898 170.111 82.1498 171.481 78.6098C172.251 76.6198 175.901 76.9398 175.851 73.4698C173.491 73.3798 170.911 73.5298 169.761 70.4698C169.241 69.0698 166.811 69.0898 166.551 70.3498C165.491 75.4398 160.911 72.5498 158.271 74.0498C156.761 74.8998 154.421 71.3198 154.561 69.2098C154.891 64.1298 155.511 59.4098 159.941 55.2198C164.031 51.3498 168.371 47.6398 172.291 43.5598C173.611 42.1898 172.551 39.4298 174.991 38.5898C180.611 45.6998 184.321 53.7298 186.501 62.4998C188.151 69.1298 191.161 74.8298 197.321 78.5098C198.721 79.3498 200.991 80.6798 200.371 82.5898C199.671 84.7298 197.141 84.3398 195.171 84.4698C182.481 85.2798 169.811 86.5498 157.071 86.4598H157.081Z" fill="#2F2C27"/>
<path d="M136.131 13.6697C136.001 15.2297 136.251 16.9297 137.431 17.8097C140.101 19.7997 140.891 22.4997 141.131 25.5397C141.211 26.5797 141.411 27.6197 142.451 28.0297C143.911 28.6097 143.871 27.2297 144.311 26.4197C145.461 24.2797 146.811 24.4097 147.961 26.3797C149.111 28.3497 150.571 30.0697 151.611 32.1897C153.251 35.5497 148.631 35.4297 149.171 37.7997C149.651 39.9097 151.671 41.7297 150.051 44.2297C149.131 45.6497 147.971 46.4097 146.421 46.3397C144.841 46.2597 144.401 44.9997 144.111 43.5697C143.101 38.4997 141.951 37.1697 136.941 38.8397C132.471 40.3297 132.131 37.0097 130.321 35.1897C129.421 34.2797 129.551 33.1497 130.781 32.9097C133.321 32.4097 133.661 30.1597 134.571 28.2997C136.041 29.5897 135.951 31.1497 136.301 32.5797C136.551 33.6197 137.251 34.3097 138.521 33.7897C139.641 33.3297 140.231 32.4997 139.491 31.4997C138.101 29.5997 138.761 27.3597 138.181 25.3297C137.281 22.1797 137.231 18.8797 132.221 18.9697C128.551 19.0297 128.501 15.6297 129.131 12.6797C131.461 13.0097 133.791 13.3497 136.121 13.6797L136.131 13.6697Z" fill="#2F2C27"/>
<path d="M164.062 27.6294C163.742 29.7894 162.042 30.8794 160.302 30.8094C158.802 30.7494 158.192 28.9794 158.022 27.3794C157.822 25.4194 155.942 24.9094 154.682 23.9894C152.892 22.6894 154.042 22.2394 155.092 21.6094C158.082 23.6194 161.072 25.6294 164.062 27.6294Z" fill="#2F2C27"/>
<path d="M49.3315 30.5801C45.0215 34.5701 40.7015 38.5701 36.3915 42.5601C35.3215 41.8601 33.5615 40.7601 35.3815 39.7701C39.7315 37.3901 43.2015 34.0001 46.9715 30.9301C47.5015 30.5001 48.5315 30.6801 49.3415 30.5801H49.3315Z" fill="#161310"/>
<path d="M124.16 89.4505C128.15 89.1305 132.13 88.8005 136.12 88.4805C133.75 94.0205 129.91 92.7205 123.16 90.4505C123.27 89.9005 123.6 89.5505 124.16 89.4505Z" fill="#161310"/>
<path d="M64.3301 20.6203C61.6601 22.2703 58.9901 23.9203 56.3101 25.5703C54.5001 22.1303 55.1701 20.2903 59.4201 20.5903C61.0501 20.7103 62.6901 20.6203 64.3201 20.6203H64.3301Z" fill="#161310"/>
<path d="M186.821 115.38C185.081 110.6 186.311 105.65 186.051 100.78C185.941 98.7502 186.021 96.8402 184.051 95.6202C186.661 94.8702 187.101 96.1802 187.031 98.4502C186.861 104.09 186.881 109.74 186.831 115.38H186.821Z" fill="#FDCEA2"/>
<path d="M43.1914 23.4892C45.9714 20.2992 49.6714 18.3692 53.1914 16.1992C51.8414 21.3492 47.6614 22.6292 43.1914 23.4892Z" fill="#161310"/>
<path d="M124.162 89.4505C123.832 89.7805 123.492 90.1205 123.162 90.4505C122.162 90.4405 121.162 90.4205 120.162 90.4105C119.962 89.5505 118.772 88.4705 119.992 87.8705C121.702 87.0305 123.012 88.2605 124.162 89.4505Z" fill="#2F2C27"/>
<path d="M75.0918 6.57954C77.4018 5.66954 79.5718 4.24954 82.2418 4.76954C80.4618 7.74954 77.5618 6.32954 75.0918 6.57954Z" fill="#161310"/>
<path d="M131.16 392.721C131.16 389.401 131.16 386.071 131.16 382.751C134.8 382.201 138.81 385.941 142.13 381.771C148.45 382.341 154.64 380.731 160.92 380.471C163.5 380.361 164.21 380.651 164.08 383.051C163.83 387.721 166.47 389.791 170.7 390.881C174.01 391.731 177.42 392.251 180.46 394.281C184.31 396.861 186.88 399.931 187.02 404.691C184.71 408.151 181.06 408.591 177.44 408.641C167.22 408.761 157 408.771 146.78 408.641C143 408.591 139.3 407.421 135.44 407.621C132.96 407.751 131.47 406.231 131.16 403.701C133.56 402.101 137.06 406.711 139.03 401.891C137.34 402.141 135.15 402.301 135.65 399.831C136.45 395.851 134.26 394.081 131.17 392.731L131.16 392.721Z" fill="#27241F"/>
<path d="M175.051 225.119C177.401 225.539 179.251 224.459 181.011 223.129C183.351 234.769 186.871 246.169 188.451 257.969C189.041 262.379 190.031 266.719 190.061 271.219C190.081 274.529 189.061 276.069 185.491 276.069C181.891 276.069 181.061 274.429 180.971 271.179C180.531 255.639 178.121 240.329 175.051 225.119Z" fill="#27241F"/>
<path d="M181.971 286.951C184.581 287.851 187.251 284.351 189.841 287.041C191.071 290.981 190.471 294.971 190.171 298.961C188.261 304.691 185.141 309.121 178.141 310.241C178.871 307.941 181.131 307.091 181.061 305.011C182.381 299.041 180.701 292.931 181.961 286.961L181.971 286.951Z" fill="#FDFDFD"/>
<path d="M133.141 371.779C138.461 371.779 143.781 371.779 149.101 371.779C143.481 377.289 136.181 377.289 133.141 371.779Z" fill="#181411"/>
<path d="M132.142 319.88C129.142 320.13 126.252 321.35 123.162 320.89C121.492 322.15 119.832 321.65 118.172 320.87C118.662 317.11 120.172 315.58 124.072 317.63C126.532 318.92 130.182 316.38 132.142 319.88Z" fill="#181411"/>
<path d="M111.191 320.88C110.851 320.88 110.52 320.88 110.18 320.88C109.48 319.49 108.48 318.4 106.97 317.94C105.3 317.43 104.71 316.22 105.6 314.94C106.98 312.97 109.25 314.09 111.14 313.98C112.55 313.9 113.321 314.78 112.871 316.24C112.391 317.81 111.751 319.33 111.191 320.88Z" fill="#181411"/>
<path d="M102.211 310.9C101.961 307.71 102.871 306.14 106.451 307.47C108.841 308.36 111.741 308.15 113.181 310.9C109.521 310.9 105.871 310.9 102.211 310.9Z" fill="#27241F"/>
<path d="M125.16 310.921C128.24 311.421 130.89 307.951 134.14 309.931C134.06 311.631 134.6 313.591 132 314.061C128.96 314.601 126.65 313.691 125.16 310.931V310.921Z" fill="#181411"/>
<path d="M142.11 381.761C142.34 384.071 142.06 385.391 138.99 384.871C136.27 384.411 133.38 384.961 131.15 382.751C132.54 381.061 134.46 382.011 136.13 381.741C138.12 381.741 140.12 381.761 142.11 381.771V381.761Z" fill="#272320"/>
<path d="M118.171 320.879C119.831 320.879 121.501 320.889 123.161 320.899C120.521 323.709 113.551 323.709 111.191 320.899C113.521 320.899 115.851 320.879 118.181 320.879H118.171Z" fill="#27241F"/>
<path d="M181.971 286.949C181.491 292.959 183.401 299.089 181.071 304.999C181.621 298.999 179.891 292.879 181.971 286.949Z" fill="#534D46"/>
<path d="M175.051 207.16C174.711 205.83 174.371 204.5 174.031 203.17C175.721 203.17 177.561 203.18 177.811 205.36C178.041 207.4 176.301 207.03 175.061 207.16H175.051Z" fill="#161310"/>
<path d="M190.182 298.959C190.072 294.989 189.962 291.009 189.852 287.039C191.892 290.959 191.302 294.949 190.182 298.959Z" fill="#423A31"/>
<path d="M172.031 215.16C172.491 214.32 172.941 213.38 174.111 213.57C174.421 213.62 174.861 214.22 174.861 214.57C174.871 216.4 173.651 217 172.051 217.13C172.051 216.47 172.031 215.81 172.031 215.15V215.16Z" fill="#27241F"/>
<path d="M131.16 392.721C137.07 392.911 137.54 393.611 136.79 401.081C138.52 401.691 138.79 397.731 140.7 399.681C141.7 400.701 141.12 402.361 139.99 403.211C138.46 404.351 137.81 407.501 134.93 405.851C133.67 405.131 132.86 403.641 131.15 403.701C131.15 400.041 131.15 396.381 131.15 392.731L131.16 392.721Z" fill="#272320"/>
<path d="M144.96 219.18C148.5 224.01 149.75 229.71 150.97 235.38C151.52 237.95 150.9 240.54 150.28 243.07C149.54 247.97 149.27 253.1 144.11 255.87C140.08 252.6 137.06 252.92 133.27 257.3C131.43 259.43 129.91 261.86 126.48 261.54C128.93 261.58 131.67 260.82 131.71 264.65C131.19 266.53 129.58 267.6 128.44 269.02C128.01 269.72 128.16 270.78 127.15 271.12C124.75 272.67 123.12 271.68 121.87 269.5C120.88 267.77 119.78 267.35 118.64 269.3C117.39 271.43 115.72 272.5 113.3 271.44C110.89 270.39 110.08 268.29 109.99 265.81C109.95 264.8 110.24 263.85 110.53 262.9C110.36 261.73 110.56 260.43 109.39 259.6C102.87 256.84 98.01 252.69 97.2 245.13C95.48 240.22 96.73 235.09 96.08 230.1C95.84 229.74 95.91 229.44 96.27 229.21C99.56 221.99 103.19 215.18 111.34 212.08C113.29 211.34 115.46 211.56 117.21 210.33C122.37 211.63 127.81 210.53 132.96 212.11C134.02 212.43 135.23 212.26 136.13 213.14C138.1 213.12 139.3 214.82 141.04 215.34C143.25 215.7 144.52 217.02 144.97 219.18H144.96Z" fill="#F8E5C8"/>
<path d="M110.521 262.91C111.661 264.19 111.081 265.74 111.181 267.18C111.331 269.32 112.631 270.41 114.531 270.92C116.821 271.53 117.271 269.84 117.781 268.23C118.211 266.88 118.241 265.03 120.261 265.09C121.921 265.14 122.201 266.69 122.471 267.96C123.021 270.56 124.771 271.28 127.141 271.13C127.501 273.99 125.901 276.1 124.631 278.45C123.671 280.23 122.451 282.34 123.571 284.57C124.881 287.19 126.541 286.09 128.821 285.59C131.581 284.99 131.561 288.19 130.851 289.84C129.851 292.15 128.961 294.32 129.051 296.89C129.121 298.69 127.691 299.19 126.311 298.89C122.291 298.03 118.021 297.5 116.021 293.04C115.891 292.74 115.821 292.28 115.591 292.17C109.181 289.27 104.821 283.01 97.9107 281.12C95.0307 280.33 94.6107 279.6 94.6807 276.53C94.8107 271.04 96.8207 268.43 102.251 268.11C105.861 267.9 107.591 264.39 110.521 262.92V262.91Z" fill="#27241F"/>
<path d="M81.1105 289.35C80.9005 290.56 80.8205 291.82 81.1205 293.18C81.5905 295.27 80.5205 296.97 78.6605 297.53C76.1505 298.29 73.2005 298.77 71.0005 297.23C69.3905 296.1 70.2504 293.81 71.2004 292.21C73.1104 289.01 69.3405 285.97 71.0005 282.77C71.0605 282.65 70.0605 281.62 69.6905 281.69C68.5105 281.92 68.2705 282.95 68.4605 284.02C68.6705 285.21 69.9405 286.94 67.8605 287.2C66.0905 287.42 66.6405 285.3 66.1605 284.18C65.0005 281.48 64.9405 278.78 67.2505 276.89C69.8405 274.76 71.8505 277.22 74.2805 278.11C79.8605 280.15 82.6405 283.21 81.1105 289.35Z" fill="#27241F"/>
<path d="M131.14 264.839C130.7 262.629 129.78 261.349 127.51 263.149C126.07 264.289 125.05 263.559 124.19 262.449C123.84 261.999 123.51 261.059 123.74 260.739C124.52 259.649 125.89 259.819 126.89 260.169C129.2 260.969 130.19 259.649 131.17 257.999C133.02 254.879 135.7 252.839 139.29 252.189C142.14 251.679 144.26 252.339 144.1 255.869L142.75 257.029C140 257.379 138.66 259.089 137.84 261.629C137 264.239 135.53 266.399 132.17 265.749C131.72 265.569 131.38 265.259 131.13 264.839H131.14Z" fill="#F9E5C8"/>
<path d="M97.1904 245.141C99.3104 251.601 104.55 255.441 109.38 259.611C108.02 263.711 106.44 261.121 105.08 259.681C103.95 258.481 103.04 256.701 101.15 258.251C99.5404 259.581 97.4604 261.191 96.0904 259.441C94.4904 257.391 93.4704 254.421 94.6504 251.601C95.2704 250.111 96.4804 248.871 96.2304 247.081L97.2004 245.151L97.1904 245.141Z" fill="#27241F"/>
<path d="M132.051 265.049C135.451 265.329 136.601 263.069 137.051 260.349C137.641 256.809 139.381 255.629 142.751 257.029C138.501 260.479 141.081 265.899 139.021 269.979C137.931 272.279 136.031 272.449 134.191 271.359C131.831 269.969 131.301 267.649 132.061 265.049H132.051Z" fill="#F8E5C8"/>
<path d="M132.052 265.05C133.622 267.75 132.822 273.8 139.012 269.98C139.922 269.8 141.032 269.13 141.092 270.89C141.152 272.78 140.952 274.77 139.152 275.67C136.772 276.86 134.362 276.91 132.722 274.17C131.562 272.23 130.862 269.9 128.432 269.01C128.662 267.19 128.962 265.4 131.132 264.83C131.422 264.97 131.722 265.04 132.042 265.04L132.052 265.05Z" fill="#27241F"/>
<path d="M76.2715 246.069C77.9715 247.199 79.4015 246.879 80.5115 245.219C82.3715 242.469 84.6415 242.339 87.2415 244.069C86.1815 245.039 83.8015 244.479 83.7015 246.239C83.5715 248.599 85.5615 249.789 87.8315 250.619C80.5915 253.259 76.9115 251.729 76.2715 246.059V246.069Z" fill="#27241F"/>
<path d="M103.691 295.859C103.751 296.489 102.521 297.869 101.131 297.509C99.0308 296.959 95.7608 297.819 95.3208 294.269C94.9908 291.589 97.0108 290.919 99.0108 290.649C101.911 290.259 103.091 292.099 103.691 295.859Z" fill="#27241F"/>
<path d="M47.3412 208.16C48.9912 209.68 50.9812 208.58 53.7312 209.78C51.6012 211.57 49.4712 213.36 47.3412 215.14C45.5812 212.81 46.8412 210.48 47.3412 208.16Z" fill="#27241F"/>
<path d="M79.2609 229.11C81.1809 232.56 78.6708 233.8 76.2708 235.1C75.8308 232.39 73.2809 228.62 79.2609 229.11Z" fill="#27241F"/>
<path d="M23.4013 232.099C22.3013 231.899 19.7713 231.749 21.1213 230.479C23.7313 228.009 22.5113 224.539 24.3913 222.129C24.5413 225.499 25.2413 228.929 23.3913 232.109L23.4013 232.099Z" fill="#27241F"/>
<path d="M79.2617 215.139C79.8817 214.999 80.5217 214.909 81.1217 214.699C82.2117 214.309 83.3417 213.839 83.9817 215.249C84.2117 215.769 84.2017 216.579 83.9517 217.089C83.3417 218.349 82.1417 218.189 81.0317 217.889C80.4217 217.729 79.8517 217.389 79.2717 217.129V215.129L79.2617 215.139Z" fill="#27241F"/>
<path d="M30.3809 214.15C30.9409 212.82 31.9309 212.16 33.3709 212.15C33.1709 213.86 33.9309 215.74 32.2509 217.56C30.8809 216.83 30.5009 215.58 30.3809 214.15Z" fill="#27241F"/>
<path d="M94.0404 301.621C93.8004 302.561 93.1504 302.941 92.2404 302.711C91.0004 302.391 90.2704 301.581 90.4404 300.231C90.5404 299.431 91.1504 299.131 91.8404 299.381C92.8904 299.761 94.0604 300.111 94.0404 301.621Z" fill="#27241F"/>
<path d="M16.4219 265.02H23.4019C21.0719 267.01 18.7419 268.45 16.4219 265.02Z" fill="#27241F"/>
<path d="M149.031 54.5597C148.971 56.0297 148.401 57.2197 146.801 57.3197C144.891 57.4397 144.211 56.1297 144.141 54.4597C144.021 51.6397 143.251 50.4297 139.851 50.9997C134.631 51.8697 136.441 54.7597 137.631 57.2997C138.621 59.4197 138.711 60.9197 136.721 62.4097C134.911 63.7697 133.021 63.9997 131.211 62.8297C129.551 61.7597 128.151 60.0097 130.931 58.8097C133.611 57.6497 133.601 56.1497 132.231 54.2397C131.281 52.9197 131.211 51.8797 132.401 50.7897C134.121 49.2297 134.661 47.6097 132.881 45.6897C132.281 45.0397 132.171 44.2097 132.941 43.5097C133.561 42.9497 134.171 43.1597 134.691 43.6297C135.941 44.7297 137.481 44.4197 138.931 44.6097C141.331 44.9197 148.941 52.5397 149.021 54.5697L149.031 54.5597Z" fill="#2F2C27"/>
<path d="M145.11 67.7602C145.11 67.2602 145.04 66.7602 145.12 66.2702C145.34 64.9602 144.41 62.8902 146.75 62.8402C148.34 62.8102 148.85 64.5102 148.92 65.7402C149.06 68.4802 149.23 71.0102 152.2 72.3202C152.76 72.5702 153.03 73.3702 152.65 74.0602C152.32 74.6602 151.87 74.9502 151.06 74.7802C145.44 73.6102 145.1 73.2402 145.11 67.7602Z" fill="#2F2C27"/>
<path d="M163.601 46.6305C161.051 47.6205 160.011 50.4405 158.091 48.6905C156.461 47.2105 155.611 44.8605 154.501 42.8405C154.401 42.6605 154.911 41.9005 155.261 41.7805C156.441 41.3905 157.801 41.5205 158.371 42.6105C159.331 44.4705 160.941 45.4205 163.601 46.6205V46.6305Z" fill="#2F2C27"/>
<path d="M133.39 80.7492C132.49 76.6592 135.84 76.2692 138.19 75.1292C138.88 74.7892 139.45 75.3192 139.73 75.9992C140.03 76.7092 139.78 77.4093 139.18 77.7293C137.34 78.7293 135.98 80.6592 133.4 80.7492H133.39Z" fill="#2F2C27"/>
<path d="M164.87 40.6995C165.99 40.9395 167.18 41.5795 167.22 42.7295C167.27 44.0995 165.76 44.2495 164.71 44.4095C163.68 44.5595 162.63 44.0695 162.69 42.8895C162.74 41.7395 163.31 40.6795 164.87 40.6995Z" fill="#2F2C27"/>
<path d="M100.77 129.79C100.58 127.97 97.7004 128.35 98.4204 126.24C98.9604 124.67 99.8704 122.91 97.8304 121.87C95.6704 120.77 94.1204 122.46 92.5204 123.58C91.6504 124.19 91.0004 125.69 89.6504 124.64C88.8804 124.04 88.3304 123.04 88.6004 122C88.8904 120.88 89.3704 119.75 90.7204 119.5C91.3704 119.38 92.0504 119.33 92.7004 119.39C95.8104 119.65 97.1104 118.36 97.3504 115.13C97.6304 111.4 98.5404 107.71 103.94 109.34C105.31 109.75 106.38 108.56 107.49 107.84C108.9 106.93 110.57 105.84 112.13 106.52C115.82 108.11 119.21 108.33 122.75 106.15C124.44 105.11 125.68 106.43 124.97 107.86C122.35 113.14 124.82 118.54 124.21 123.84C123.99 125.7 124.09 127.14 121.53 126.46C120.56 126.2 119.36 126.51 119.37 127.83C119.37 128.56 119.89 129.37 120.37 129.98C121.08 130.9 121.97 131.15 122.78 130C124.47 127.62 124.71 129.98 125.37 130.81C128.65 134.91 132.53 137.21 137.87 134.92C139.71 134.13 141.01 134.43 142.03 136.24C143.22 138.36 141.77 139.26 140.36 140.19C139.26 140.92 137.76 141.5 138.79 143.19C139.61 144.53 141.05 144.44 142.38 144.08C143.17 143.86 143.89 143.39 144.65 143.06C150.23 140.69 155.76 138.87 161.05 143.78C162.06 144.72 164.24 144.86 163.56 146.87C162.99 148.54 161.31 149.83 159.63 149.21C154.13 147.18 148.46 149.4 143.31 148.52C139.35 147.84 135.96 145.75 131.92 148.09C131.2 148.51 130.29 147.75 130.58 146.67C130.88 145.56 131.21 144.41 131.78 143.43C132.66 141.91 135.95 141.83 134.58 139.02C134.11 138.05 132.66 138.09 131.88 138.64C129.68 140.2 126.48 140.86 126.17 144.33C125.99 146.27 127.13 147.68 127.96 149.32C129.8 152.94 131.99 156.84 127.77 160.45C126.19 161.8 125.25 163.41 127.08 165.03C128.89 166.63 130.78 165.49 131.68 163.86C133.83 159.98 136.53 161.18 138.5 163.36C143.33 168.72 149.61 167.25 155.51 167.53C157.12 167.6 159.25 166.58 160.06 168.23C160.94 170.03 159.07 171.62 157.81 172.7C155.51 174.68 152.45 175.19 149.58 175.96C148.54 176.24 147.62 176.35 147.83 174.66C148.23 171.44 146.24 171.02 143.76 171.53C141.11 172.07 138.98 172.11 137.93 168.85C137.22 166.67 135.72 166.82 134.25 168.52C130.04 173.36 130.02 173.34 135.51 176.73C129.56 180.99 126.48 181.15 122.23 174.16C118.91 168.7 114.01 169.46 109.8 168.59C105.35 167.67 100.88 168.1 98.3904 163.27C98.1104 162.72 96.9804 162.45 96.2104 162.33C94.5204 162.07 93.4304 161.34 93.2904 159.53C93.1604 157.82 94.1204 156.68 95.4204 155.86C96.6104 155.11 98.5304 155.05 98.0704 152.93C97.9504 152.4 97.3904 151.71 96.8904 151.56C94.9204 150.97 93.9504 152.25 92.9304 153.72C91.7604 155.41 89.9404 156.81 87.8804 155.9C85.9804 155.07 86.0004 153.05 85.6904 150.95C85.1504 147.25 83.6204 143.57 81.8704 140.22C80.9504 138.46 79.3004 139.73 78.3904 141.12C77.8704 141.92 77.5004 143.17 76.2404 142.57C74.8204 141.9 74.1604 140.45 73.7104 139.01C73.2504 137.53 74.6404 137.65 75.4204 137.16C78.8604 134.96 80.8604 131.45 83.0504 128.21C83.9504 126.88 84.1704 125.51 86.2004 126.23C87.5504 126.71 89.5404 125.78 90.3104 127.34C91.1804 129.09 89.0404 129.69 88.2604 130.83C87.5604 131.85 85.5504 133.18 86.8704 134.01C90.1204 136.04 90.9304 137.76 87.7204 140.39C87.6304 140.47 87.9804 141.3 88.2904 141.62C91.5904 144.97 100.37 143.09 102.33 138.74C103 137.24 102.83 136.55 101.2 136.42C100.04 136.33 98.8804 136.37 97.7104 136.36C96.0904 136.34 94.6204 135.95 94.4104 134.08C94.2204 132.48 95.3604 131.79 96.7604 131.36C98.1304 130.93 99.4504 130.34 100.76 129.83L100.77 129.79Z" fill="#FDCEA2"/>
<path d="M135.131 151.29C137.621 149.39 139.861 150.2 142.191 151.77C149.411 156.64 156.731 156.72 163.921 151.73C166.061 150.25 168.091 149.26 169.941 151.73C171.941 154.42 170.86 157.06 168.43 158.61C161.56 162.98 148.78 166.31 139.04 159.54C136.51 157.38 134.471 154.98 135.141 151.3L135.131 151.29Z" fill="#18130F"/>
<path d="M167.091 118.7C167.091 116.88 166.831 115.02 167.151 113.26C167.731 110.04 168.921 107.17 173.051 107.32C176.941 107.47 178.681 109.9 178.951 113.36C179.221 116.81 179.151 120.3 178.981 123.76C178.771 128.02 175.281 131.96 172.031 131.16C168.471 130.29 166.881 127.34 166.891 123.65C166.891 122 166.891 120.35 166.891 118.7C166.961 118.7 167.031 118.7 167.111 118.7H167.091Z" fill="#1A1510"/>
<path d="M141.21 125.431C141.07 126.041 140.93 126.661 140.79 127.271C137.98 126.131 139.4 123.651 138.98 121.491C138.52 123.461 137.82 125.061 135.65 125.021C133.16 124.961 133.19 122.451 132 120.951C131.03 124.281 132.89 125.561 135.41 126.651C136.85 127.271 139.32 126.761 139.2 129.511C134.46 132.641 129.46 131.061 128.37 125.591C127.36 120.571 128.52 115.521 130.24 110.711C130.82 109.081 132.13 107.991 134.15 108.591C135.45 109.581 133.88 111.141 134.8 112.171C136.86 112.431 137.51 108.831 139.97 110.401C140.39 111.041 140.81 111.691 141.23 112.331C141.86 116.691 141.86 121.061 141.23 125.421L141.21 125.431Z" fill="#191511"/>
<path d="M139.191 129.5C138.291 127.9 136.531 128.38 135.191 127.92C129.421 125.97 128.601 123.18 132.481 118.17C134.221 119.86 132.591 124.12 136.221 124.02C139.201 123.94 136.661 120.61 138.001 118.92C141.561 121.02 139.041 124.88 140.791 127.26C140.441 128.13 140.221 129.1 139.201 129.49L139.191 129.5Z" fill="#191512"/>
<path d="M139.951 110.399C139.491 110.569 138.871 110.609 138.611 110.939C137.141 112.779 135.261 115.209 133.081 113.819C131.251 112.659 134.331 110.529 134.131 108.579C136.281 108.499 138.851 107.099 139.941 110.399H139.951Z" fill="#191512"/>
<path d="M135.131 151.289C136.431 154.039 137.731 156.779 139.031 159.529C134.691 158.219 132.801 155.749 135.131 151.289Z" fill="#22160D"/>
<path d="M141.211 125.43C141.211 121.07 141.211 116.7 141.211 112.34C142.761 116.7 142.681 121.07 141.211 125.43Z" fill="#191512"/>
<path d="M96.2708 229.221C96.2508 229.531 96.1808 229.821 96.0808 230.111C95.0708 230.411 93.1808 230.401 94.2908 232.031C95.2608 233.461 95.3108 234.821 95.1708 236.231C95.0208 237.721 96.2208 240.121 94.0308 240.471C92.1708 240.771 92.8608 237.861 91.9708 237.151C84.7508 231.351 90.4708 223.181 88.0908 216.481C87.3108 214.301 91.1708 212.271 93.2708 213.951C97.0908 216.991 97.9008 215.321 98.3808 211.531C98.6608 209.371 100.281 208.021 102.641 208.311C104.501 208.531 104.051 210.281 104.361 211.461C104.471 211.871 104.301 212.761 104.201 212.771C99.4708 213.181 100.281 218.681 96.8008 220.681C93.6708 222.481 95.0908 226.241 96.2608 229.221H96.2708Z" fill="#27241F"/>
<path d="M136.121 213.15C129.791 212.35 123.281 212.84 117.201 210.35C120.181 210.24 123.161 210.13 126.141 210.01C128.781 210.39 131.281 211.68 134.071 211.17C135.561 210.9 135.961 211.95 136.121 213.15Z" fill="#F1E6D0"/>
<path d="M173.411 208.8C168.191 208.92 164.531 209.82 164.761 215.33C164.801 216.31 163.771 217.68 162.451 217.44C161.001 217.17 160.261 216.05 160.861 214.44C160.921 214.29 160.911 214.1 160.991 213.96C163.081 210.49 155.621 210.98 158.241 207.67C160.081 205.35 160.741 203.58 159.521 200.61C158.291 197.6 161.711 195.75 163.141 193.64C164.041 192.31 165.901 194.48 166.841 195.82C168.851 198.7 167.731 200.64 164.971 202.26C162.191 203.89 163.531 205.16 165.651 205.82C167.931 206.52 170.551 206.15 173.401 208.8H173.411Z" fill="#27241F"/>
<path d="M144.961 219.181C143.651 217.901 142.341 216.621 141.031 215.341C143.521 212.971 145.291 214.941 146.611 216.631C147.721 218.051 146.551 218.981 144.961 219.181Z" fill="#27241F"/>
<path d="M137.941 388.55C139.821 389.05 142.701 388.02 142.871 391.25C142.951 392.79 141.351 392.79 140.231 392.65C138.271 392.4 136.041 392.07 135.571 389.8C135.241 388.19 136.701 388.16 137.941 388.54V388.55Z" fill="#272320"/>
<path d="M125.391 235.57C117.281 223.49 110.951 223.85 103.461 236.56C102.721 237.81 102.141 239.76 100.451 239.3C98.7115 238.82 99.0515 236.76 99.2815 235.37C100.781 226.48 106.261 219.26 113.581 215.77C120.591 212.43 129.311 212.64 136.681 218.04C141.941 221.9 147.731 225.13 146.181 233.65C143.761 229.91 140.731 226.58 135.931 227.21C131.051 227.85 128.851 232.31 125.401 235.57H125.391Z" fill="#F9E5C8"/>
<path d="M113.09 249.3C108.45 249.23 105.16 245.82 105.16 241.07C105.16 235.76 108.59 232.08 113.54 232.1C118.4 232.12 122.25 236.07 122.16 240.94C122.07 245.83 118.22 249.37 113.09 249.3Z" fill="#28241F"/>
<path d="M134.172 248.81C130.702 247.35 128.192 244.58 128.332 241.03C128.482 236.98 130.862 233.66 135.202 232.41C139.472 232.58 140.642 234.95 139.542 238.73C138.902 240.95 137.892 243.1 138.022 245.46C138.182 248.32 136.202 248.55 134.172 248.8V248.81Z" fill="#29241F"/>
<path d="M134.17 248.809C135.49 247.849 137.63 247.789 136.85 244.969C136.36 243.189 137.02 241.029 138.05 239.259C140.11 235.699 138.48 233.719 135.19 232.409C139.07 231.369 142.15 232.579 144.05 236.049C145.71 239.079 145.95 242.479 144.16 245.489C141.9 249.299 138.25 249.959 134.16 248.809H134.17Z" fill="#29241D"/>
<path d="M115.83 259.83C113.93 258.43 110.03 258.55 110.44 255.15C110.83 251.94 114.49 251.72 117.04 251.25C119.36 250.82 120.01 253.1 120.05 254.93C120.11 257.53 118.75 259.28 115.83 259.83Z" fill="#F9E5C8"/>
<path d="M126.251 257.04C124.431 257.25 121.971 256.9 122.401 254.71C122.841 252.44 123.301 248.68 126.541 248.82C129.021 248.93 130.381 252.2 130.711 254.35C131.061 256.59 128.501 257.14 126.251 257.04Z" fill="#302B24"/>
<path d="M108.642 252.86C103.342 251.9 102.022 249.33 100.922 245.34C104.712 246.88 106.072 249.48 108.642 252.86Z" fill="#F9E5C8"/>
</g>
<defs>
<clipPath id="clip0_335_2965">
<rect width="215.16" height="419.77" fill="white"/>
</clipPath>
</defs>
</svg>
