<svg width="365" height="407" viewBox="0 0 365 407" fill="none" xmlns="http://www.w3.org/2000/svg">
<g clip-path="url(#clip0_335_179)">
<path d="M183.12 390.18C183.12 390.51 183.12 390.84 183.12 391.18C185.14 395.01 183.22 397.77 180.11 399.32C173.45 402.63 166.4 404.75 158.78 404.1C151.33 403.14 143.89 403.23 136.45 404.08C130.69 404.79 125.23 403.42 119.95 401.41C115.99 399.91 113.22 397.19 112.96 392.62C114.15 385.16 113.96 377.68 113.19 370.2C105.82 366.37 105.29 359.17 104.17 352.18C103.26 346.51 103.22 340.59 100.17 334.13C96.97 343.16 94.05 350.97 91.45 358.89C89.4 365.15 86.3 370.24 79.61 372.38C76.32 373.43 76.79 374.71 79.39 376.43C83.12 378.9 86.82 381.53 88.23 386.16C89.28 389.27 89.67 392.44 89.79 395.74C89.91 399.02 89.06 401.51 86.29 403.28C83.89 406.13 79.89 404.06 77.26 406.21C71.27 406.92 65.27 406.82 59.27 406.25C50.88 406.33 42.76 404.26 34.53 403.03C29.65 402.3 25.03 396.55 25.46 391.47C25.95 385.68 27.18 379.95 27.89 374.17C28.36 370.38 29.57 366.59 26.12 363.09C24.3 361.24 24.24 358.04 24.23 355.26C23.04 353.59 23.5 351.76 23.79 349.99C24.93 343 25.33 335.9 26.92 328.98C28.68 325.95 27.84 322.63 27.95 319.42C28.37 314.63 27.8 310.37 23.78 306.83C20.65 304.07 20.86 300.05 21.47 296.11C22.68 288.34 22.41 287.78 15.52 283.81C7.93005 279.44 1.09005 274.2 0.450046 264.75C0.100046 259.57 -0.259954 254.21 0.220046 249.04C1.46005 235.62 4.45005 222.51 8.77005 209.72C9.20005 208.45 9.78005 207.26 10.86 206.39C15.14 204.71 16.95 207.68 18.79 210.6C17.29 220 13.1 228.72 11.89 238.2C11.69 242.21 10.76 246.12 10.39 250.11C9.72005 252.08 9.69005 254.13 9.74005 256.18C9.58005 260.39 10.85 264.29 12.25 268.17C13.03 270.45 15.03 271.51 16.86 272.73C18.55 273.85 20.37 274.75 22.14 275.73C24.93 277.09 27.95 277.77 30.88 278.72C38.74 281.92 47 283.66 55.27 285.32C66.64 287.86 66.58 287.84 69.4 276.73C70.21 273.53 70.64 270.24 71.53 267.09C72.94 262.08 71.6 259.13 66.25 258.42C60.74 256.18 55.07 254.36 49.61 252.01C47.64 251.16 45.64 250.3 44.56 248.23C43.58 245.37 44.04 242.4 43.88 239.48C44.25 232.55 46.99 226.26 49.27 219.85C50.42 217.77 51.55 215.67 52.31 213.4C52.68 212.48 53.17 211.63 53.73 210.81C54.94 209.04 56.31 207.52 58.72 207.69C61.73 208.28 62.26 210.31 61.73 212.93C61.31 215.05 60.73 217.13 60.39 219.27C60.07 220.7 59.63 222.1 59.34 223.54C58.13 228.88 62.12 226.93 64.51 227.21C66.05 227.08 67.5 226.57 69.02 226.35C73.51 225.92 78 226.2 82.49 226.23C85.65 226.39 88.74 227.44 91.95 227.06C96.02 230.56 98.91 234.81 100.15 240.11C97.77 243.31 98.59 247.1 98.31 250.65C98.11 253.17 100.44 253.43 102.16 253.54C107.73 253.88 113.32 254.48 118.9 253.67C121.03 253.36 123.15 253.05 125.29 253C132.54 252.83 136.26 256.44 136.43 263.76C136.46 265.08 136.46 266.4 136.45 267.72C135.24 273.18 140.58 273.37 143.04 275.89C144.75 283.95 146.91 291.89 149.25 299.78C149.81 301.66 150.42 303.58 149.8 305.59C145.59 306.34 144.57 308.77 145.84 312.69C146.19 313.76 145.31 314.82 144.17 315.36C134.3 318.03 124.13 318.54 114.06 318.68C90.16 319.01 66.18 319.9 42.55 314.83C39.64 314.21 38.14 315.39 37.88 318.36C36.86 330.11 35.22 341.79 33.91 353.51C33.3 358.92 34.47 360.38 39.68 361.55C49.6 363.78 59.63 365.08 69.82 364.81C79.16 364.56 81.84 362.77 84.46 353.73C86.83 345.56 90.39 337.86 93.1 329.83C93.95 327.32 95.04 324.82 97.73 323.61C102.64 321.41 107.11 323.42 108.42 328.79C110.42 337.03 111.57 345.44 113.06 353.78C114.31 360.79 116.14 362.61 123.28 362.7C131.73 362.8 140.23 363.6 148.62 361.77C151.25 361.2 153.8 360.54 155.76 358.53C160.29 355.06 157.3 351.34 156.12 347.68C154.75 341.43 156.59 335.27 156.64 329.06C156.67 325 156.86 320.85 150.52 322.08C148.67 322.44 147.18 320.94 146.75 318.89C148.6 315.57 150.12 311.91 155.16 312.9C157.48 313.36 158.08 315.1 159.23 316.71C160.83 318.97 163.25 320.61 164.84 322.97C165.83 329.42 164.92 335.93 165.4 342.4C165.38 346.09 163.94 349.67 164.5 353.4C164.02 357.47 164.85 361.65 163.25 365.64C162.37 367.84 163.82 368.97 165.68 369.77C168.71 371.08 171.83 372.22 174.74 373.78C181.83 377.59 185.18 384.31 183.1 390.21L183.12 390.18Z" fill="#1D1E19"/>
<path d="M184.87 111.58C184.62 111.74 184.35 111.84 184.06 111.91C181.09 105 182.31 97.9198 183.31 90.8698C183.4 90.2298 184.13 89.8998 184.82 89.7998C184.94 91.8298 185.06 93.8498 185.19 95.8798C185.09 101.11 184.98 106.35 184.88 111.58H184.87Z" fill="#88847F"/>
<path d="M157.08 358.25C156.96 360.12 155.909 361.55 154.229 361.97C142.03 365.06 129.71 365.12 117.33 363.16C113.82 362.61 112.65 360.25 112.11 356.98C110.57 347.55 108.86 338.15 107.03 328.77C106.66 326.86 106.6 324.22 103.41 324.33C100.36 324.44 96.9895 323.48 95.5095 327.62C91.9595 337.58 87.8595 347.37 84.7995 357.48C82.7195 364.35 77.8395 365.88 71.9995 366.17C60.0395 366.75 48.2895 365.07 36.6495 362.34C33.4195 361.58 32.0395 359.86 32.3595 356.77C33.4595 346.28 34.6695 335.81 35.8195 325.33C36.1795 322.05 36.3395 318.75 36.8295 315.5C37.1595 313.33 37.9895 312.3 40.8795 312.96C66.4995 318.79 92.5695 317.48 118.53 317.2C127.38 317.1 136.21 315.38 145.05 314.4C146.46 315.35 147.08 316.69 147.02 318.37C148.4 320.94 150.28 321.97 153.1 320.47C156.07 318.88 156.929 320.34 157.539 323.18C158.279 326.66 158.49 330.22 157.82 333.51C156.81 338.47 157.25 343.38 157.06 348.31C158.29 351.63 158.82 354.95 157.06 358.27L157.08 358.25Z" fill="#33322D"/>
<path d="M147.039 318.36C145.799 317.33 145.239 315.95 145.069 314.39C144.909 313.12 145.169 311.55 144.509 310.66C143.209 308.92 143.169 307.42 144.409 305.86C146.159 303.65 147.509 306.1 149.049 306.38C151.619 306.76 151.549 312.5 154.859 310.01C157.199 308.25 154.069 305.26 153.839 302.74C153.609 300.22 151.159 297.96 152.949 295.18C155.419 294.15 157.109 296.06 159.109 296.78C161.399 298.53 161.609 301.33 162.639 303.72C163.209 305.04 163.629 306.94 165.619 306.18C167.459 305.48 167.039 303.69 166.419 302.33C163.519 296.01 161.389 289.41 159.079 282.88C158.319 280.72 157.249 278.61 157.459 276.19C157.599 275.66 157.889 275.26 158.339 274.96C161.429 274.13 164.119 275.2 166.699 276.72C168.999 279.3 169.239 282.77 170.659 285.5C170.639 276.68 170.699 267.57 170.629 258.46C170.609 255.59 170.479 252.7 167.139 251.45C166.519 251.21 165.919 250.98 165.289 250.78C160.359 249.26 159.879 247.55 163.279 243.69C163.819 243.08 164.339 242.44 165.039 241.99C169.749 241.27 171.199 238.39 170.739 233.9C170.509 231.62 170.329 229.29 170.559 226.97C174.139 223.28 174.849 226.99 175.519 229.17C176.339 231.84 176.629 234.62 179.999 235.35C181.519 236.97 181.259 239.03 181.419 240.99C181.599 243.19 180.729 245.93 183.739 246.93C186.629 247.89 190.199 248.79 192.239 246.32C198.659 238.54 208.689 241.33 216.349 237.43C224.049 239.75 232.739 236.64 239.939 242.61C244.109 246.06 249.889 243.92 254.939 243.87C258.229 243.84 261.519 243.19 264.839 243C270.209 242.7 271.369 240.85 271.389 234.69C271.399 229.9 268.889 228.91 264.749 228.93C246.169 229.03 227.579 228.93 208.999 228.99C203.499 229.01 198.089 228.48 192.719 227.32C190.359 223.98 192.759 222.16 194.969 220.27C195.559 220.11 196.159 220.05 196.769 220.08C210.849 220.08 224.919 220.08 238.999 220.08C250.269 220.36 261.549 219.52 272.809 220.53C276.049 222.94 278.069 222.44 280.339 218.72C284.599 211.73 289.839 205.34 294.159 198.39C296.129 195.21 298.229 194 301.699 194.79C305.619 199.89 305.049 206.25 300.489 208.46C299.869 208.48 299.069 207.95 298.619 208.46C293.839 213.96 289.019 219.45 286.679 226.55C293.249 230.74 299.109 228.44 300.539 221.1C300.829 219.6 301.139 218.03 302.749 217.56C304.499 217.05 305.429 218.3 306.069 219.76C306.529 221.97 305.519 224.34 306.769 226.47C317.969 226.45 329.169 226.44 340.369 226.42C347.789 225.88 355.209 225.71 362.629 226.51C362.949 226.84 363.259 227.17 363.579 227.5C364.329 232.52 364.309 237.54 363.589 242.56C363.249 243.55 362.589 244.21 361.589 244.52C354.569 245.3 347.559 245.24 340.539 244.55C340.159 244.3 339.779 244.06 339.409 243.81C338.849 242.58 337.729 243 336.819 243C327.389 242.97 317.969 242.98 308.539 243C307.579 243 306.529 242.74 305.779 243.66C303.249 245.07 300.959 245.29 297.789 244.77C291.999 243.8 285.919 244.54 279.969 244.68C279.289 244.7 278.279 245.3 278.009 245.89C275.799 250.77 271.499 251.41 266.929 251.59C263.619 252.68 260.089 251.19 256.789 252.47L256.889 252.6C251.839 252.41 246.779 251.91 241.839 253.49C238.769 257.81 238.559 263.5 234.609 267.51C229.429 272.77 223.449 275.97 216.089 276.38C214.839 276.45 213.919 276.92 212.979 277.55C208.899 277.55 204.759 276.71 200.759 278.22C193.919 279.57 187.079 280.89 180.059 280.52C177.789 284.34 179.319 288.47 179.099 292.46C178.169 295.32 178.359 298.46 176.299 301.07C175.559 302.01 175.659 304.09 176.109 305.4C177.589 309.67 175.329 311.8 171.919 313.18C169.549 314.14 166.899 314.4 164.979 316.34C163.759 318.19 165.279 320.49 163.999 322.33C160.559 322.22 159.689 318.93 158.079 316.97C154.819 312.97 152.619 312.57 149.829 316.7C149.109 317.77 148.249 318.29 147.029 318.36H147.039Z" fill="#1D1D19"/>
<path d="M92.2297 227.47C89.2497 230.23 86.2197 227.31 83.2197 227.54C79.5597 226.15 75.9697 224.67 71.8497 225.15C66.9397 225.72 63.3197 222.25 63.5197 217.18C63.6097 214.86 63.2697 212.55 63.4297 210.27C63.7497 205.62 63.2897 201.96 57.1897 203.48C57.6397 204.86 59.9397 206.32 58.2897 208.58C56.0597 208.4 55.6397 210.6 54.3097 211.61C51.9697 210.92 51.0397 208.53 48.8797 207.34C45.8997 205.71 48.6097 203.46 50.0197 201.39C47.8297 200.42 45.7097 199.7 43.9497 198.13C42.0497 196.44 40.6497 198.29 39.4597 199.68C38.2997 201.04 38.7097 201.97 39.8297 203.47C41.8997 206.23 47.3297 208.2 43.0797 213.16C43.0197 213.23 43.0097 213.51 43.1297 213.61C48.5697 218.28 45.7897 222.23 43.1997 227.38C41.7497 230.26 43.6097 234.82 38.5897 236.09C39.7497 240.24 37.0997 244.63 39.4297 248.72C40.1097 249.91 41.7197 251.26 39.9697 252.59C38.5797 253.65 37.1697 252.35 35.7997 251.85C33.9197 251.17 32.9297 249.33 31.0597 247.84C30.7997 250.91 32.1897 252.01 34.3297 252.47C36.9697 253.04 38.5997 254.48 38.0797 257.33C37.6297 259.77 35.7797 260.37 33.5297 260.03C31.2997 259.7 30.3897 260.43 31.0897 262.78C31.6197 264.55 31.7197 266.38 30.9697 268.15C30.7197 268.56 30.3797 268.89 29.9597 269.13C27.4597 269.77 25.0297 270.22 23.5997 267.2C22.4397 264.75 21.1397 266.6 20.0397 267.25C18.1997 268.33 16.3797 270.2 14.3897 267.87C12.6497 265.84 13.3597 263.65 14.5197 261.41C17.3197 255.98 19.4197 250.39 18.6597 244.02C18.1397 239.62 21.1997 236.87 26.0997 236.59C22.6597 236.49 18.9697 235.94 15.5097 238.22C14.0297 239.2 11.9597 238.97 10.4297 237.53C12.6197 228.41 14.8597 219.32 18.3597 210.59C17.7797 209.13 18.1597 207.71 18.4797 206.28C20.2197 202.9 20.7797 198.83 24.1097 196.36C27.4897 198.87 31.4397 197.26 33.7097 192.03C34.6897 189.76 35.4597 188.34 38.2997 187.71C40.0797 187.31 44.0197 185.31 40.3797 181.77C39.3597 180.78 39.8597 179.51 40.7297 178.65C41.9797 177.42 42.6997 176.04 42.6897 174.28C44.4397 170.79 47.1897 169.02 51.1697 169.39C50.8697 173.34 51.7697 175.44 56.3497 173.38C58.1797 172.56 59.2597 174.17 58.6697 175.91C57.1197 180.45 57.6097 185.5 55.1197 189.76C54.2397 191.26 53.0697 192.71 55.6797 193.59C57.9397 194.36 59.7297 193.91 59.9597 191.19C60.1997 188.44 61.3897 186.12 62.8297 183.89C64.0697 181.98 65.3697 179 67.7997 179.9C70.3297 180.84 69.0597 183.87 68.8097 185.98C68.8897 185.88 69.1397 185.36 69.2697 185.39C75.7597 187.03 78.3797 179.94 83.7297 178.98C85.3697 178.68 86.3897 177.05 87.9397 176.41C89.0197 176.15 89.7997 176.62 90.4497 177.42C91.4764 180.313 93.0597 180.617 95.1997 178.33C96.4997 177.8 97.4997 178.25 98.3597 179.25C100.11 184.94 104.29 182.99 108.06 182.32C110.75 184.2 112.92 182.51 115.16 181.27C115.62 181.22 116.06 181.3 116.47 181.49C120.73 184.39 124.28 184.46 127.68 181.71C128.04 181.42 128.46 181.3 128.92 181.31C130.29 182.14 131.86 182.08 133.37 182.34C136.88 185.01 141.96 185.16 145.15 182.59C146.75 181.3 144.55 179.41 145.7 177.98C146.58 176.84 147.7 176.7 148.96 177.24C150.38 181.92 154.51 183.82 158.17 186.2C159.32 187.7 158.71 189.39 158.65 191.02C158.54 194.1 159.49 195.69 162.75 193.86C164.26 193.01 165.74 192.38 167.44 193.34C170.38 197.25 171.47 201.85 172.39 206.53C171.3 208.49 169.69 209.43 167.41 209.03C165.84 208.2 167.51 204.59 164.18 205.28C162.11 205.19 160.12 205.7 158.13 206.01C157.99 206.38 156.4 204.96 157.35 206.62C157.61 207.09 158.28 207.35 158.6 207.89C158.97 208.85 158.93 209.79 158.38 210.68C157.45 211.61 156.29 211.94 155.03 212.01C150.12 208.59 149.77 205.85 153.72 201.27C152.42 200.71 150.75 201.31 149.76 199.96C148.76 198.87 148.56 195.25 146.09 198.81C143.49 196.73 141.15 193.86 137.21 195.97C132.65 193.47 130.89 196.82 129 199.9C124.51 199.68 120.73 197.04 116.42 196.23C114.83 194.19 112.31 193.65 109.98 192.33C111.47 193.71 113.89 194.22 113.31 196.82C109.69 199.24 105.75 200.93 101.57 202.08C99.9697 201.72 98.8597 201.03 99.1997 199.08C99.4897 197.44 98.9097 195.72 97.2297 195.79C95.2797 195.87 96.0497 198.12 95.6497 199.37C94.8297 201.96 97.5297 202.9 98.5097 204.66C98.3097 208.2 96.4897 211.01 94.4297 213.71C92.0497 212.637 91.5964 210.46 93.0697 207.18C88.5997 211.44 88.6097 214.1 93.1197 219.51C93.6297 222.25 94.2397 225 92.2297 227.46V227.47Z" fill="#33322E"/>
<path d="M127.459 261.78C128.689 264.71 128.039 267.66 128.079 270.47C128.119 273.38 128.539 275.93 131.949 276.4C134.499 276.75 134.469 278.88 134.899 280.45C136.929 287.77 138.689 295.16 140.669 302.49C141.519 305.63 140.679 306.98 137.279 307.44C116.829 310.2 96.2695 309.75 75.7695 309.18C62.3095 308.8 48.8295 307.1 35.6095 304.2C33.4995 303.74 30.7695 303.24 30.4295 300.32C30.0195 296.84 30.2595 293.28 31.9795 290.2C32.6595 288.97 34.4795 290.24 35.6395 290.53C43.8095 292.53 51.9595 294.58 60.2795 295.91C60.5995 295.96 60.9295 296.27 61.2195 296.21C70.0195 294.53 77.4895 299.67 85.6895 300.9C91.2095 301.73 96.9495 301.57 102.559 301.23C106.479 300.99 109.769 297.93 110.679 294.66C112.049 289.7 116.029 285.86 116.179 280.56C116.239 278.44 117.989 278.4 119.289 277.94C125.679 275.69 127.839 271.93 126.499 265.15C126.279 264.05 125.739 262.92 127.479 261.79L127.459 261.78Z" fill="#34332E"/>
<path d="M94.0299 213.57C94.7599 210.26 96.7499 207.55 98.3799 204.68C98.5999 202.98 99.5499 202.01 101.25 201.79C104.99 199.53 108.89 197.62 113.13 196.49C113.97 195.54 115.05 195.55 116.18 195.75C121.07 194.92 124.76 198.34 129.11 199.39C130.44 198.97 131.53 199.59 132.64 200.16C136.78 202.71 140.18 206.01 142.58 210.27C143.55 211.99 144.62 213.76 143.17 215.76C138.83 216.61 136.22 214.98 134.21 210.87C129.79 201.82 121.96 199.64 111.57 204.52C115 205.19 117.81 205.95 120.67 206.49C125.79 207.45 129.48 210.86 133.48 213.74C134.82 214.7 135.25 216.09 134.35 217.67C133.66 218.22 132.86 218.25 132.02 218.26C126.58 218.33 124.51 220.78 125.53 225.9C126.17 229.12 129.01 231.54 131.75 231.02C134.99 230.4 135.72 227.98 135.76 225.1C135.79 223.31 134.94 221.53 135.7 219.74C138.68 219.12 141.77 220.25 144.74 219.2C145.65 221.45 145.43 223.73 145.04 226.03C143.6 231.38 141.51 236.25 136.75 239.68C134.39 241.38 133.75 244.26 133.32 247.14C132.46 252.84 131.2 253.57 126.19 251.27C125.01 250.73 124.48 251.14 123.6 251.68C118.73 254.65 117.29 254.24 114.24 249.3C113.86 252.16 112.21 253.57 109.31 253.44C106.16 253.3 104.84 251.21 105 248.47C105.24 244.44 102.02 242.41 100.42 239.45C96.4499 236.3 94.5599 231.73 92.1999 227.47C92.1999 224.51 92.2199 221.55 92.2299 218.59C91.9299 216.6 91.9699 214.73 93.9999 213.56L94.0299 213.57Z" fill="#F5E2C0"/>
<path d="M10.4303 237.54C13.1803 237.5 15.4603 236.97 18.1103 235.42C21.2403 233.59 25.6403 235.72 29.5103 236.01C30.2003 236.06 30.3203 237.14 29.9503 237.67C29.1503 238.82 27.9003 238.64 26.8103 238.19C22.3303 236.36 20.9003 239.14 19.8003 242.64C19.4203 243.86 19.3603 244.96 20.2903 245.85C22.4803 247.95 22.9403 249.63 19.4603 250.78C18.3103 251.16 18.3603 252.34 18.4003 253.32C18.5403 256.8 18.5903 260.06 15.2003 262.51C13.7403 263.57 13.8203 266.03 15.2003 267.46C17.0503 269.38 18.1203 267.15 19.1503 266.13C20.6803 264.63 22.5203 264.21 24.4803 263.84C24.627 266.9 26.5936 268.45 30.3803 268.49C31.0503 269.03 31.4703 269.93 32.4303 270.26C31.8603 269.47 30.9003 269.21 30.3803 268.49C30.2503 266.65 30.4203 264.77 29.9903 263.04C28.8203 258.29 28.7303 258.23 33.9503 258.89C35.2203 259.05 36.2403 259.29 36.9203 258.01C37.5003 256.91 37.4703 255.74 36.7803 254.7C36.0403 253.59 34.9703 253.59 33.7003 253.75C31.2403 254.06 30.1203 252.14 29.5703 250.31C29.1403 248.9 28.5303 246.72 30.4603 245.9C32.3003 245.12 32.9603 246.79 33.4403 248.3C34.3703 251.21 37.7303 250.32 39.5903 252.21C37.0103 248.45 36.1603 244.6 37.8503 240.43C38.3003 239.32 37.5803 238.61 37.1503 237.72C36.0303 235.46 35.1203 233.49 39.3803 234.27C42.1703 234.78 42.7603 232.4 42.0203 230.29C41.0603 227.55 40.5903 225.63 43.9403 224C46.1803 222.91 45.7403 216.2 43.5203 215.16C42.1803 214.53 39.7503 215.21 40.0703 212.85C40.3703 210.62 43.0203 212.62 44.5303 211.09C41.3303 209.34 41.9703 204.43 37.6003 203.62C36.5103 203.42 36.0503 202.12 36.7303 201.21C38.1903 199.26 39.2903 196.87 41.8303 195.99C43.1203 195.54 44.5903 195.25 45.1803 196.95C45.9003 199.03 47.0203 199.86 49.3003 199.31C50.9003 198.92 51.7303 200.31 52.0803 201.58C52.5003 203.12 51.2503 203.32 50.0603 203.72C47.4403 204.59 48.4703 207.21 49.7603 207.03C53.9303 206.44 53.3303 209.63 54.3203 211.62C53.9803 212.28 53.6303 212.95 53.2903 213.61C51.0903 215.01 50.0903 216.99 50.3303 219.59C48.6403 224.98 47.0003 230.39 45.2003 235.75C44.8503 236.8 44.9703 237.62 45.3003 238.54C41.6603 242.95 41.6603 243.67 45.3603 248.5C52.3303 251.49 59.3103 254.48 66.2803 257.48C68.1903 260.85 65.7703 262.9 63.6203 264.47C61.7303 265.86 59.5303 265.59 60.0603 262.32C60.3203 260.7 60.6403 259.41 58.7203 258.72C57.0403 258.12 55.8003 258.71 54.8603 260.07C52.8403 262.99 49.5703 263.14 45.9403 264.15C49.4303 265.97 49.0403 268.05 46.4503 269.94C44.3003 271.51 44.4003 273.12 46.0703 274.89C48.2703 277.24 49.8303 280.11 53.6403 280.77C56.8503 281.33 58.1803 283.51 55.3003 286.4C46.7203 285.04 38.1703 283.56 30.3503 279.45C27.9803 276.59 24.6903 276.48 21.3703 276.44C19.7103 275.45 18.0503 274.45 16.3803 273.46C15.5403 271.12 13.2803 270.54 11.4203 269.45C9.69029 265.29 8.27029 261.06 8.43029 256.47C9.88029 254.66 9.63029 252.57 9.39029 250.49C9.73029 246.17 10.0803 241.85 10.4203 237.53L10.4303 237.54Z" fill="#34332E"/>
<path d="M100.45 239.45C104.15 240.86 106.55 243.07 106.4 247.49C106.34 249.36 105.57 252.01 108.89 252.54C112.3 253.08 113.17 250.99 113.73 248.35C113.82 247.92 114.29 247.57 114.62 247.12C115.94 249.25 115.62 252.36 119.43 252.59C123.41 252.82 123.15 249.56 124.48 247.6C126.52 247.48 126.06 249.44 126.84 250.34C127.59 251.19 128.07 252.71 129.36 252.32C130.7 251.91 132.19 251.01 132.04 249.19C131.54 243.08 134.43 239.03 139.31 235.64C142.2 233.63 142.26 229.5 144.06 226.56C144.62 225.68 145.36 225.03 146.45 225.1C153.65 225.53 160.9 224.42 168.07 225.67C169.3 226.21 170.16 227.64 169.3 228.35C165.62 231.39 167.14 237.11 163.04 239.9C161.82 240.73 162.25 242.69 161.46 243.96C158.95 246.82 159.83 249.99 160.26 253.31C160.86 257.91 162.05 262.9 157.09 266.24C152.76 267.85 148.12 267.83 143.66 268.75C142.06 268.86 140.51 269.28 138.92 269.52C137.5 269.69 136.19 269.46 135.11 268.44C135.11 267.94 135.11 267.45 135.11 266.95C135.09 255.46 131.38 252.47 119.89 254.72C112.74 256.12 105.62 255.22 98.4898 254.49C96.4298 254.28 95.8398 253.06 96.4298 251.45C97.5098 248.54 97.1898 245.57 97.1398 242.62C97.0998 240.17 98.2598 239.38 100.44 239.45H100.45Z" fill="#34332E"/>
<path d="M66.4392 399.14C56.6392 399.46 46.9792 398.35 37.4592 396.05C33.8292 395.17 31.8192 393.63 33.0692 389.01C34.4792 383.81 34.7492 378.28 35.3192 372.87C35.5592 370.6 36.5992 369.95 38.5892 370.44C48.0792 372.77 57.6892 374.18 67.4792 374.19C68.9692 374.19 70.2492 374.6 70.6192 376.06C71.5692 379.83 74.2392 381.74 77.4992 383.36C80.4992 384.85 81.9692 387.82 82.9292 390.84C84.6992 396.46 82.8392 398.93 76.9092 399.11C73.4192 399.22 69.9292 399.13 66.4392 399.11V399.14Z" fill="#33332D"/>
<path d="M155.081 372.21C156.601 375.72 160.231 376.41 163.041 378.19C163.991 380.69 165.251 382.77 167.871 384.11C170.361 385.38 170.561 387.93 168.011 389.13C164.791 390.65 165.691 392.85 166.031 395.18C165.601 395.99 164.841 396.15 164.021 396.18C162.931 396.92 161.761 397.23 160.461 396.85C157.011 394.29 153.601 394.47 150.231 397.04C148.121 397.14 145.991 397.48 144.081 396.18C138.181 394.23 131.911 395.96 125.941 394.23C122.571 393.26 120.831 391.76 121.071 388.03C121.331 384.07 121.281 380.07 121.071 376.1C120.911 372.97 122.201 372.13 125.141 372.16C132.731 372.24 140.341 372.65 147.881 371.24C149.001 371.03 150.231 371.34 151.061 370.26C153.331 368.99 154.821 369.31 155.061 372.2L155.081 372.21Z" fill="#33322D"/>
<path d="M92.3409 262.29C99.9009 262.68 107.451 263.1 115.011 263.43C117.221 263.53 119.261 263.23 119.261 266.63C119.261 269.74 118.251 271.35 115.101 271.4C113.281 271.43 111.451 271.41 109.631 271.44C106.581 271.49 105.131 272.49 106.991 275.69C108.951 279.07 109.511 282.12 104.881 283.97C103.381 284.57 102.971 285.75 103.611 287.62C105.021 291.79 103.761 293.96 99.4709 294.25C94.0909 294.62 88.6409 294.89 83.3509 293.18C77.8209 291.39 76.1309 288.64 77.3109 283.06C78.6809 276.56 80.0509 270.06 81.4309 263.55C84.7409 260.31 88.6909 262.46 92.3609 262.26L92.3409 262.29Z" fill="#FDD5A5"/>
<path d="M55.2993 286.41C56.4293 283.46 55.6693 281.69 52.2893 281.44C51.0293 281.35 49.1993 282 48.7093 280.5C47.6293 277.16 43.8293 275.86 42.9993 272.5C42.4793 270.39 44.0993 269.71 45.7693 269.12C46.6993 268.79 47.6693 268.06 47.6393 267C47.6093 265.79 46.4593 265.57 45.4493 265.47C44.0993 265.34 43.1193 264.84 43.5793 263.29C44.0793 261.61 45.2493 262.72 46.2293 262.59C49.3293 262.2 52.6693 262.07 54.3993 258.45C56.1293 254.85 58.5193 257.37 60.6893 258.19C63.3593 259.2 62.9193 260.52 61.2193 262.13C60.6093 262.71 60.1993 263.61 61.2193 264.17C61.9993 264.6 62.9493 264.33 63.4293 263.59C64.6593 261.69 66.5993 260.09 66.2693 257.46C66.7693 257.48 67.2793 257.44 67.7493 257.55C74.0993 259.04 74.2693 259.07 73.1593 265.48C72.0093 272.1 70.4993 278.66 69.1193 285.25C68.6493 287.5 67.3093 288.69 64.8893 288.4C61.6293 288.02 58.3793 287.6 55.2993 286.4V286.41Z" fill="#33322E"/>
<path d="M72.0209 236.55C76.6709 236.55 81.3109 236.61 85.9609 236.52C88.2509 236.48 89.4009 237.33 89.2209 239.7C88.8709 244.4 90.9809 249.83 85.2209 252.91C83.7609 253.69 82.5009 254.51 80.6109 253.78C72.3009 250.57 63.9309 247.5 55.5609 244.46C53.0009 243.53 53.2709 241.52 53.3609 239.54C53.4609 237.17 55.0209 236.53 57.0909 236.54C62.0709 236.55 67.0409 236.54 72.0209 236.54V236.55Z" fill="#34332E"/>
<path d="M135.119 268.44C136.449 268.46 137.769 268.47 139.099 268.49C140.649 269.26 141.369 271.39 143.579 271.23C144.349 269.85 141.449 268.93 143.089 267.5C147.739 266.83 152.399 266.15 157.049 265.48C159.979 265.54 161.419 264.12 161.859 261.2C162.319 258.21 163.409 255.6 167.359 257.42C169.829 263.04 169.609 268.37 165.639 273.29C163.209 275.01 160.369 274.05 157.749 274.51C156.509 275.09 153.849 273.86 154.639 276.99C155.729 282.59 158.579 287.82 158.049 293.74C156.179 295.2 154.069 295.06 151.929 294.66C149.859 291.77 149.129 288.51 149.349 285C151.589 279.81 151.179 278.24 147.149 276.82C145.359 276.75 143.549 276.79 142.099 275.48C136.849 276.04 135.129 273.08 135.119 268.44Z" fill="#1D1D19"/>
<path d="M150.1 284.42C150.76 287.75 151.43 291.07 152.09 294.4C152.49 294.66 152.8 294.99 153.05 295.4C154.27 299.47 155.44 303.55 156.72 307.6C157.23 309.22 158.86 310.77 155.69 311.66C153.37 312.32 151.52 312.83 150.44 310.05C149.97 308.83 149.51 307.6 149.04 306.37C148.87 300.56 146.4 295.3 145 289.79C143.8 285.05 142.43 280.37 142.09 275.46C144.08 275.46 146.07 275.45 148.06 275.44C150.74 277.98 150.83 281.1 150.09 284.41L150.1 284.42Z" fill="#33342E"/>
<path d="M58.2897 208.58C58.0897 205.38 55.5997 203.57 53.6797 201.16C57.0597 201.61 60.1097 203.17 63.5297 201.82C64.7997 201.32 65.4397 202.9 64.9097 204.19C63.0297 208.81 65.8897 213.44 64.6097 218.24C63.7397 221.48 68.2697 224.41 71.8897 223.87C76.2397 223.21 80.1597 224.15 83.2297 227.55C78.2397 227.55 73.2497 227.55 68.2597 227.55C66.5997 226.53 65.3397 227.13 64.2697 228.53C63.2897 228.53 62.2997 228.49 61.3297 228.57C56.9697 228.91 56.5097 226.93 58.3097 223.57C58.5497 222.22 64.0897 222.17 59.2997 219.57C58.9197 217.01 59.9697 214.66 60.5997 212.32C61.2597 209.88 60.5797 208.88 58.2797 208.58H58.2897Z" fill="#34332E"/>
<path d="M166.04 395.18C163.37 392.61 161.06 390.12 166.93 388.66C167.84 388.43 168.89 387.88 168.84 386.66C168.78 385.22 167.49 384.73 166.44 384.49C162.77 383.67 162.16 381.36 163.05 378.18C167.24 378.67 170.43 381.37 174.01 383.2C176.65 384.95 177.68 387.17 176.04 390.16C174.54 395.49 170.05 394.85 166.04 395.17V395.18Z" fill="#33332D"/>
<path d="M19.3806 206.61C19.5406 208.07 19.0906 209.37 18.3606 210.6C15.9506 209.56 14.9406 206.16 11.6406 206.62C13.0306 201.78 15.5206 197.47 18.1806 193.25C21.5206 194.54 21.6306 197.15 21.0406 200.11C20.6006 202.31 18.9306 204.2 19.3806 206.62V206.61Z" fill="#1D1E19"/>
<path d="M155.079 372.21C154.299 370.43 152.809 370.1 151.079 370.27C150.989 368.72 151.179 367.27 152.689 366.42C154.409 365.46 155.619 362.29 157.929 364.01C160.589 366 157.759 367.61 156.669 369.25C156.049 370.18 155.599 371.22 155.079 372.21Z" fill="#1D1D19"/>
<path d="M160.04 396.14C161.37 396.15 162.7 396.17 164.02 396.18C163.48 397.28 162.66 398.09 161.38 398.09C156.49 398.12 151.6 398.13 146.72 398.09C145.45 398.09 144.63 397.28 144.08 396.18C146.41 396.17 148.74 396.15 151.06 396.14C154.05 394.33 157.04 394.63 160.03 396.14H160.04Z" fill="#1D1D19"/>
<path d="M45.3494 248.5C42.0394 248.07 41.3694 245.86 41.2694 242.93C41.1794 239.96 42.7094 238.86 45.2894 238.54C45.3094 241.86 45.3294 245.18 45.3494 248.5Z" fill="#33322E"/>
<path d="M21.3691 276.45C25.1791 275.03 28.8391 274.03 30.3491 279.46C27.1391 279.11 24.1191 278.19 21.3691 276.45Z" fill="#33322E"/>
<path d="M59.2999 219.58C60.7199 219.14 62.7399 217.38 63.0999 220.3C63.5299 223.81 60.6599 223.56 58.3099 223.58C58.1199 222.12 58.5899 220.82 59.2999 219.58Z" fill="#33322E"/>
<path d="M157.08 358.25C157.08 354.93 157.08 351.61 157.08 348.29C160.15 351.95 160.15 356.57 157.08 358.25Z" fill="#1D1D19"/>
<path d="M50.3197 219.58C49.5697 219.29 47.6197 219.17 48.2297 218.79C51.4697 216.7 49.3597 214.44 48.4597 212.09C50.5797 212.04 51.1497 215.28 53.2797 213.6C52.8997 215.89 51.9297 217.9 50.3197 219.58Z" fill="#33322E"/>
<path d="M176.04 390.17C176.36 387.56 175.19 385.38 174.01 383.21C175.09 381.83 177.24 382.26 177.06 383.14C176.61 385.47 180.29 388.51 176.04 390.17Z" fill="#1D1D19"/>
<path d="M92.3401 262.29C88.7801 263.38 84.8002 261.01 81.4102 263.58C81.4702 260.65 83.6601 261.34 85.2701 261.5C87.6301 261.72 90.1201 260.88 92.3401 262.3V262.29Z" fill="#FDD5A5"/>
<path d="M9.38938 250.5C12.0794 252.98 10.7794 254.81 8.42938 256.48C8.70938 254.48 7.60938 252.26 9.38938 250.5Z" fill="#33322E"/>
<path d="M11.4297 269.46C14.3197 269.27 16.6897 269.71 16.3897 273.47C14.4397 272.5 12.3897 271.66 11.4297 269.46Z" fill="#33322E"/>
<path d="M64.2698 228.53C64.2998 227.11 64.1298 225.37 65.8998 225.04C67.5198 224.74 67.5698 226.59 68.2498 227.55C67.0098 228.24 65.7198 228.73 64.2598 228.53H64.2698Z" fill="#33322E"/>
<path d="M98.1907 179.7C97.1907 179.37 96.2006 179.04 95.2006 178.7C93.2006 180.07 91.6006 179.4 90.2106 177.7C89.5406 177.37 88.8806 177.03 88.2106 176.7C84.0506 178.02 80.6306 175.49 76.9306 174.49C75.8306 174.19 74.6607 173.85 73.7307 173.21C66.8007 168.44 59.4806 166.44 51.3106 169.69C48.1606 170.57 45.1106 171.61 43.3206 174.67C37.4406 180.83 31.2206 186.71 26.9606 194.23C26.6306 194.82 25.9106 194.98 25.2206 194.92C23.2306 193.66 20.8007 193.2 19.0407 191.52C26.3907 177.35 37.2006 166.86 52.1006 160.88C55.3306 159.58 56.2006 158.55 53.2206 155.84C46.9606 150.13 43.0206 142.78 39.5706 135.19C38.4706 132.77 37.1106 131.39 34.3906 131.68C30.4206 130.57 26.2806 132 22.3106 130.86C18.9606 131.22 15.9206 130.19 12.9006 128.85C4.41065 125.08 2.55065 119.67 6.37065 111.23C8.74065 106 10.4906 100.47 11.1906 94.69C13.0806 91.58 11.0006 88.01 12.3306 84.83C12.4006 36.59 53.0206 2.51 96.0906 0C101.811 0 107.531 0 113.251 0C120.941 1.43 128.991 1.29 136.101 5.23C137.731 9.94 137.261 10.61 131.731 11.42C128.601 11.53 125.611 10.54 122.541 10.24C120.741 9.88 118.951 9.41 117.091 9.41C107.311 9.57 97.4607 8.55 87.7607 10.37C66.6007 14.33 48.6306 23.68 35.9406 41.7C33.1706 45.63 30.1707 49.42 28.3407 53.94C27.6307 55.34 26.8607 56.7 26.5107 58.25C23.0307 69.19 20.8506 80.32 20.6406 91.87C20.5006 99.35 18.4906 106.58 15.5806 113.52C13.4806 118.55 14.2706 119.84 19.6006 121.06C28.1107 123.01 36.7407 122.22 45.3307 122.39C46.6107 122.44 47.8206 122.03 49.0506 121.81C52.3806 121.46 55.4806 120.37 58.4506 118.87C64.8006 115.71 68.6406 110.07 72.6406 104.57C73.9406 102.9 75.5006 101.47 76.9306 99.91C82.1906 93.86 88.6106 89.7 96.4706 87.88C99.8106 86.62 103.401 86.51 106.831 85.68C108.611 85.47 110.331 84.94 112.101 84.69C113.131 84.55 114.171 84.55 115.211 84.52C117.581 84.49 119.841 83.7 122.191 83.57C123.791 83.47 125.391 83.49 126.991 83.49C129.171 83.47 131.261 82.83 133.421 82.58C136.211 82.31 139.011 82.54 141.811 82.48C144.341 82.48 146.841 82.26 149.311 81.67C152.501 81.3 155.701 81.43 158.901 81.42C160.381 81.57 161.901 81.57 163.171 82.54C164.901 85.39 164.761 88.17 162.801 90.86C161.731 91.85 160.371 92.22 159.041 92.66C146.031 94.06 132.921 94.1 119.871 95.05C113.891 95.49 107.991 96.09 102.151 97.43C94.5907 99.16 88.3806 102.87 83.7106 109.22C80.1706 114.03 76.2507 118.55 72.3007 123.04C70.7907 124.76 69.6307 126.48 70.9807 128.82C79.8107 144.12 90.1906 157.91 106.601 165.95C121.691 173.34 136.581 173.58 151.291 164.92C152.581 164.16 153.821 163.3 155.401 163.3C158.171 165.58 156.271 167.2 154.551 168.74C152.951 170.17 150.551 170.22 148.411 172.33C151.721 172 153.831 167.25 156.971 170.92C158.851 173.12 161.971 174.05 162.911 177.3C163.621 179.75 166.971 180.11 167.861 182.61C168.061 182.85 168.141 183.12 168.081 183.43C169.181 186.6 168.511 188.81 164.831 189.36C163.481 189.14 162.531 188.27 161.631 187.35C159.741 184.84 157.831 182.35 155.671 180.06C153.861 178.14 151.791 177.01 149.061 177.62C147.971 177.68 146.791 177.45 146.061 178.61C142.361 181.22 138.031 181.38 133.751 181.75C132.211 181.57 130.641 182.17 129.101 181.61C128.771 181.61 128.441 181.62 128.111 181.64C124.121 183.84 120.131 183.82 116.141 181.64C115.811 181.64 115.471 181.64 115.141 181.64C112.731 183.01 110.311 181.8 107.891 181.7C104.451 181.99 101.121 181.72 98.1806 179.66L98.1907 179.7Z" fill="#1D1E19"/>
<path d="M19.0299 191.53C21.6699 191.49 24.1299 191.83 25.3699 194.65C25.8599 195.73 25.2599 196.25 24.3599 196.62C22.6999 199.95 21.0399 203.28 19.3699 206.61C17.2099 204.8 19.0699 202.81 19.5599 201.29C20.5699 198.17 20.2399 195.65 18.1699 193.24C18.1899 192.54 18.2599 191.86 19.0299 191.53Z" fill="#1D1E19"/>
<path d="M22.3008 130.86C26.3508 130.79 30.4308 130.25 34.3808 131.68C30.3208 131.92 26.2508 132.33 22.3008 130.86Z" fill="#68655F"/>
<path d="M298.869 207.61C301.479 207.89 302.939 207.09 302.749 204.09C302.539 200.97 302.979 197.8 301.709 194.81C305.689 194.11 305.869 196.71 305.819 199.53C306.229 206.23 306.779 212.92 305.539 219.59C302.619 217.13 301.479 218.38 301.749 221.6C302.059 225.33 301.009 228.04 297.209 229.24C292.799 230.63 287.199 229.41 284.779 226.5C286.919 224.75 289.489 225.27 291.939 225.15C293.749 225.07 295.609 225.29 297.219 224.19C299.549 219.74 298.209 215.14 297.859 210.59C297.759 209.44 297.889 208.37 298.879 207.61H298.869Z" fill="#1F1F1B"/>
<path d="M305.801 243.68C306.151 243.35 306.491 242.76 306.851 242.74C317.381 242.29 327.921 242.37 338.451 242.83C338.791 242.84 339.101 243.49 339.421 243.83C328.211 243.29 317.011 243.42 305.801 243.67V243.68Z" fill="#64615B"/>
<path d="M167.879 182.65C165.529 180.38 160.839 180.68 161.009 175.47C161.079 173.35 157.279 173.66 155.769 171.52C153.509 168.29 152.659 172.54 151.059 173.15C149.699 173.67 148.409 174.95 147.169 173.21C145.579 170.97 148.209 171.08 148.999 170.14C150.199 168.72 152.129 169.45 153.519 168.48C155.309 167.23 156.329 165.74 155.979 163.5C155.719 161.78 156.769 160.6 157.879 159.65C169.949 149.28 172.559 134.89 174.679 120.29C174.869 118.98 174.859 117.64 175.179 116.33C176.019 112.87 175.559 109.36 175.579 105.87C175.579 103.1 175.489 100.32 175.629 97.5597C175.819 93.9097 174.509 91.9297 170.599 92.3097C167.729 91.8997 164.589 93.1197 162.039 90.8697C163.589 88.3697 162.879 85.5797 163.039 82.9097C163.409 81.7497 164.309 81.2097 165.409 80.8897C167.749 80.4097 170.119 80.6297 172.469 80.5497C173.949 80.4897 175.409 80.2297 176.859 79.8997C179.159 79.6097 181.459 79.3297 183.699 78.6497C185.969 77.9597 186.259 76.6397 184.719 75.0197C178.429 68.4497 176.229 59.9097 172.949 51.7897C170.489 45.6997 167.829 39.5797 164.169 34.0297C163.299 31.9297 160.929 30.7197 160.669 28.2497C160.299 25.4197 159.999 22.5197 155.859 23.5297C154.239 23.8197 153.239 23.0697 152.649 21.6297C152.459 18.5097 150.179 18.2397 147.809 18.0897C145.229 17.6697 143.069 16.2297 140.729 15.1997C139.669 14.6997 138.579 14.2797 137.449 13.9497C135.349 12.6397 131.899 13.5097 131.109 10.0597C134.889 10.6297 136.819 9.27973 136.109 5.21973C143.549 5.53973 149.569 9.62973 155.389 13.4197C164.949 19.6497 171.749 28.4597 177.119 38.6897C181.329 46.7197 182.619 55.8297 187.519 63.5597C189.509 66.6897 192.119 69.0197 194.649 71.4697C197.539 74.2697 199.819 77.3797 198.789 81.3697C197.839 85.0297 194.589 86.2697 190.909 87.0697C188.909 87.5097 186.319 87.7197 184.819 89.7697C183.279 97.0997 184.129 104.5 184.069 111.88C181.739 117.32 182.889 123.19 182.239 128.82C180.399 144.8 173.659 157.93 161.589 168.2C158.659 170.69 159.189 171.38 161.459 173.49C164.189 176.04 167.069 178.65 167.899 182.62L167.879 182.65Z" fill="#1D1E1A"/>
<path d="M194.911 219.74C194.951 220.01 194.981 220.27 195.001 220.54L194.931 220.6C192.261 222.25 188.841 221.95 186.301 224.1C185.291 224.96 183.541 224.82 182.531 224C178.651 220.85 174.871 222.82 170.821 223.56C162.941 225 154.951 226.23 146.891 224.62C146.061 224.45 145.341 224.08 144.891 223.32C144.961 220.78 145.931 218.9 148.601 218.27C150.411 218.48 152.201 223.31 154.051 218.29C155.071 217 158.241 218.32 157.761 215.21C157.461 213.64 156.711 212.05 158.031 210.59C158.031 209.59 158.031 208.59 158.031 207.6C157.451 206.93 157.531 206.28 158.071 205.64C159.801 203.83 161.821 203.69 164.021 204.64C165.241 205.54 165.591 206.93 166.031 208.26C167.231 210.62 167.981 213.19 169.381 215.45C169.831 216.17 170.411 216.85 171.371 216.61C172.621 216.3 172.601 215.27 172.551 214.24C172.421 211.7 170.181 209.3 171.991 206.62C170.321 202.29 168.651 197.97 166.981 193.64C166.701 193.19 166.761 192.79 167.141 192.44C172.021 193.29 174.201 197.42 177.121 200.64C178.881 206.54 180.621 212.45 182.441 218.33C182.521 218.57 183.341 218.59 183.811 218.71C187.381 220.37 191.221 219.16 194.891 219.74H194.911Z" fill="#1D1D19"/>
<path d="M177.129 200.64C173.749 197.98 170.369 195.32 166.989 192.65C164.199 192.65 163.609 191.02 164.049 188.65C167.839 188.83 167.249 185.59 168.099 183.47C171.489 185.4 172.389 189.06 173.949 192.19C175.289 194.87 176.089 197.81 177.129 200.64Z" fill="#1D1E1A"/>
<path d="M191.97 226.55C217.12 228.52 242.32 227.24 267.5 227.48C271.51 227.52 272.87 229.21 272.77 232.82C272.77 233.15 272.77 233.48 272.77 233.82C272.93 243.82 272.36 243.99 262.2 244.66C256.1 245.06 249.99 245.23 243.91 245.68C241.38 245.87 239.87 245.27 238.36 243.55C235.66 240.48 232.53 238.86 228.28 240.42C226.62 241.03 224.97 240.82 223.15 239.87C219.05 237.74 214.79 237.95 211.06 240.94C209.75 242 208.69 242.12 207.05 241.79C202.36 240.85 198.28 242.1 195.04 245.9C191.89 249.59 185.07 250.6 181.1 248.22C179.63 247.34 180.14 245.93 179.97 244.68C179.54 241.64 180.97 238.4 178.99 235.53C175.51 228.25 177.64 225.05 185.98 225.07C188.09 225.07 190.26 224.85 191.96 226.55H191.97Z" fill="#34332E"/>
<path d="M220.89 253.79C221.49 255.72 219.34 259.58 223.91 259.37C227.5 259.21 228.73 256.5 228.94 253.14C229.03 251.62 227.98 249.71 229.73 248.63C231.74 247.39 234.4 249.62 233.8 252.5C232.53 258.66 230.76 264.64 224.03 267.39C218.66 269.59 213.04 270.74 207.37 271.35C203.22 271.8 199.77 269.55 197.45 266.08C196.41 264.52 195.58 262.98 197.23 260.76C198.7 258.77 198.84 255.84 199.75 253.39C200.69 250.85 202.69 249.01 205.35 249.86C207.88 250.67 207.52 253.34 206.89 255.43C206.16 257.83 206.26 259.81 208.99 260.51C211.79 261.22 212.7 258.67 213.62 256.94C214.25 255.75 213.97 254.02 213.9 252.54C213.78 249.68 213.77 247.42 217.87 247.43C222.44 247.43 220.55 250.48 220.88 252.55C220.93 252.87 220.88 253.21 220.88 253.81L220.89 253.79Z" fill="#FAD5A7"/>
<path d="M191.969 226.55C190.669 226.55 189.369 226.56 188.059 226.56C182.013 226.56 178.993 229.55 178.999 235.53C176.079 236.5 175.219 235.44 174.819 232.4C174.539 230.24 176.059 225.93 170.999 226.56C170.349 227.18 169.679 227.14 169.019 226.58L144.059 226.55C144.019 223.9 143.979 221.25 143.949 218.59C143.469 217.72 143.509 216.97 144.409 216.39C147.389 218.06 145.609 220.32 145.159 222.42C149.409 223.43 153.369 224.89 158.119 223.89C164.579 222.53 171.409 222.94 177.629 220.21C179.409 219.43 179.799 220.99 180.829 221.64C182.919 222.97 184.859 225.2 187.429 221.59C189.069 219.28 192.389 220.91 194.939 220.58C193.949 222.56 192.969 224.55 191.979 226.53L191.969 226.55Z" fill="#1C1D18"/>
<path d="M158.02 293.41C156.38 287.76 154.73 282.1 153.09 276.45C154.73 274.96 156.38 275.21 158.02 276.45C161.48 285.01 163.72 294.03 167.85 302.35C168.96 304.57 169.3 306.7 166.11 307.86C162.52 309.17 162.32 306.5 161.54 304.38C160.69 302.06 159.85 299.73 159.01 297.4C157.96 296.25 156.78 295.13 158.01 293.41H158.02Z" fill="#33342E"/>
<path d="M165.01 273.45C167.65 268.38 167.94 263.01 167 257.49C165.34 255.16 165.2 252.83 167.03 250.51C170.78 249.79 171.82 252.41 171.86 255.11C172.03 266.91 171.93 278.71 171.08 290.7C169.4 286.28 167.73 281.86 166.05 277.44C165.36 276.2 164.25 275.07 165.01 273.45Z" fill="#33342E"/>
<path d="M185.2 272.46C181.16 273.41 179.31 271.54 179.95 266.85C180.2 265.06 179.92 263.2 180.01 261.38C180.11 259.23 179.15 256.27 183.03 256.54C186.25 256.77 189.54 257.01 189 261.74C188.79 263.54 189.06 265.32 189.69 267.11C191.58 272.45 191.5 272.48 185.19 272.46H185.2Z" fill="#33332E"/>
<path d="M167.031 250.51C167.021 252.84 167.011 255.16 167.001 257.49C164.041 257.29 162.881 258.78 163.031 261.62C163.291 266.36 161.181 267.51 157.051 265.47C160.511 261.24 159.681 256.5 158.651 251.74C157.961 248.56 156.691 245.22 161.041 243.51C162.201 242.49 163.431 241.76 165.031 242.55C164.721 243.29 164.601 244.23 164.071 244.74C162.981 245.78 161.551 246.6 162.261 248.4C163.001 250.27 164.601 248.76 165.711 249.15C166.241 249.34 166.591 250.05 167.031 250.52V250.51Z" fill="#1D1E19"/>
<path d="M165.031 242.55C163.781 243.19 162.491 243.7 161.041 243.51C161.901 241.51 158.761 237.26 164.241 237.83C164.421 237.85 164.861 237.29 164.821 237.22C161.671 231.86 168.731 230.56 169.031 226.59C169.691 226.59 170.351 226.58 171.011 226.57C172.941 230.8 172.221 235.31 171.791 239.59C171.421 243.32 167.671 242.34 165.031 242.55Z" fill="#34332E"/>
<path d="M321.891 233.56C325.861 233.56 329.831 233.54 333.791 233.57C334.911 233.58 336.361 233.45 336.311 235.14C336.281 236.43 335.08 236.51 334.08 236.51C325.81 236.52 317.551 236.53 309.281 236.51C308.291 236.51 307.09 236.48 307.02 235.18C306.92 233.46 308.38 233.58 309.49 233.57C313.62 233.53 317.761 233.55 321.891 233.55V233.56Z" fill="#333530"/>
<path d="M350.9 237.53C349.74 237.53 348.58 237.55 347.43 237.53C346.03 237.5 344.68 237.33 344.77 235.44C344.86 233.54 346.31 233.58 347.65 233.56C349.8 233.54 351.95 233.54 354.1 233.56C355.69 233.58 357.34 233.93 357.3 235.84C357.26 238.16 355.21 237.36 353.88 237.51C352.9 237.62 351.9 237.53 350.9 237.52V237.53Z" fill="#33342E"/>
<path d="M165.009 273.45C165.729 274.68 166.179 275.99 166.049 277.44C163.489 276.35 160.809 275.75 158.049 275.45C156.199 275.56 156.489 274.58 157.029 273.46C159.689 273.68 162.349 272.12 165.009 273.46V273.45Z" fill="#1D1E19"/>
<path d="M158.02 293.41C158.35 294.74 158.69 296.07 159.02 297.4C156.6 298.01 155.26 295.4 153.05 295.41C152.73 295.08 152.41 294.74 152.09 294.41C154.07 294.08 156.04 293.74 158.02 293.41Z" fill="#1D1E19"/>
<path d="M157.03 273.46C157.07 274.28 157.25 275.02 158.05 275.45C158.05 275.78 158.03 276.12 158.02 276.45H153.09C151.92 272.18 155.32 273.93 157.03 273.46Z" fill="#32332E"/>
<path d="M51.3106 169.69C54.2106 167.64 57.7806 167.32 60.9506 165.98C62.0306 165.52 63.2706 165.56 64.2706 166.36C71.3006 172.02 79.8006 174.26 88.2206 176.7C86.7506 179.03 85.0606 180.97 81.9206 180.69C80.0006 180.51 79.4806 181.66 79.0906 183.34C78.5406 185.77 76.4506 187.45 74.3206 186.49C70.9106 184.94 69.0906 185.74 67.7506 189.29C67.8506 186.12 68.3306 183.3 67.8206 179.69C64.2106 183.38 61.3306 186.72 61.2806 191.7C61.2606 193.46 61.0706 195.31 58.9406 195.44C56.6806 195.58 54.1906 195.26 52.5206 193.62C50.7306 191.86 52.7506 190.64 53.8706 189.61C55.9806 187.68 55.4406 184.94 55.9606 182.65C56.5706 179.96 56.8706 177.19 58.3906 174.07C55.0106 174.62 51.8606 177.44 49.4006 174.8C48.0106 173.3 50.9006 171.55 51.3006 169.7L51.3106 169.69Z" fill="#34332E"/>
<path d="M145.151 222.43C144.761 220.49 145.891 218.27 144.081 216.59C143.531 216.47 143.211 216.14 143.111 215.59C141.941 208.76 136.811 204.89 132.061 200.74C132.371 197.69 135.141 197.06 137.101 195.64C142.401 192.29 142.831 192.43 146.081 198.63C147.691 197.84 148.921 198.6 150.071 199.63C152.051 200.9 154.281 198.67 156.761 200.41C151.671 203.48 150.131 207.2 155.061 211.6C156.731 212.58 157.551 214.42 159.031 215.59C160.021 217.4 160.011 218.66 157.431 218.58C156.311 218.55 155.191 218.59 154.071 218.6C152.411 220.12 150.741 219.81 149.081 218.6C147.131 219.22 146.601 221.29 145.161 222.43H145.151Z" fill="#33332D"/>
<path d="M24.3594 196.62C24.6994 195.96 25.0294 195.31 25.3694 194.65C29.2294 188.92 32.7594 182.96 38.0894 178.35C39.7294 176.93 41.3094 175.52 43.3194 174.67C44.3694 176.37 44.2194 177.66 42.3094 178.75C40.3094 179.88 39.7894 181.13 42.6994 181.75C43.9194 182.01 44.6394 183.05 44.1594 183.89C43.0094 185.93 40.6694 187.13 39.9294 189.53C35.6094 187.72 35.7094 191.15 34.4994 193.69C33.2094 196.41 29.4394 197.22 28.4994 200.63C28.2094 201.67 26.5494 200.92 26.0194 200.19C25.2594 199.15 24.8994 197.82 24.3694 196.62H24.3594Z" fill="#34332E"/>
<path d="M149.07 177.66C150.35 175.34 151.9 175.24 153.85 176.95C157.08 179.78 160.2 182.68 162.06 186.65C160.73 187.86 159.39 187.65 158.05 186.65C154.06 184.64 148.14 184.57 149.07 177.65V177.66Z" fill="#34332E"/>
<path d="M133.11 180.7C137.43 180.02 141.75 179.33 146.07 178.65C146.62 180.14 147.36 181.59 147.63 183.12C147.78 183.98 136.73 186.75 135.98 185.99C134.95 184.95 134.06 183.78 133.11 182.66C132.49 182.01 132.53 181.35 133.11 180.7Z" fill="#34332E"/>
<path d="M171.991 206.62C172.621 209.01 173.421 211.37 173.831 213.8C174.081 215.31 174.871 217.56 172.911 218.21C171.101 218.81 169.031 218.32 168.151 215.92C167.231 213.44 166.101 211.04 165.061 208.6C165.721 207.99 166.371 207.99 167.031 208.6L171.991 206.61V206.62Z" fill="#33332F"/>
<path d="M158.05 186.66C159.39 186.66 160.72 186.66 162.06 186.66C162.72 187.33 163.39 187.99 164.05 188.66C164.86 190.12 165.22 191.91 166.99 192.66C167 192.99 166.99 193.32 166.99 193.65C165.43 193.53 164.12 193.97 163.03 195.14C161.97 196.28 160.72 197.14 159.17 196.06C157.78 195.09 156.81 193.94 157.34 191.94C157.8 190.24 157.83 188.42 158.05 186.66Z" fill="#33332D"/>
<path d="M101.261 201.8C100.301 202.76 99.3406 203.72 98.3906 204.69C94.4706 203.03 92.5006 197.54 94.7406 194.33C95.3806 193.41 96.6306 193.43 97.4406 193.94C99.1806 195.05 101.771 196.28 100.771 198.65C100.101 200.25 100.491 200.84 101.261 201.8Z" fill="#34332E"/>
<path d="M94.0303 213.57C93.3303 215.21 93.5603 217.17 92.2603 218.6C88.1003 218.55 87.9103 215.58 88.4503 212.75C88.8703 210.57 90.1903 208.57 91.1003 206.49C91.5803 205.41 91.5303 203.39 93.5303 204.63C95.0403 205.57 95.9903 207.27 94.3203 208.72C92.3503 210.42 91.2203 211.77 94.0303 213.58V213.57Z" fill="#34332E"/>
<path d="M80.8808 206.75C79.1708 202.86 75.8808 199.85 80.6608 196.68C81.8608 195.88 83.0108 195.27 84.2308 196.38C85.5208 197.55 85.6708 199.23 84.6208 200.42C83.1808 202.05 82.3808 204 80.8808 206.75Z" fill="#34332E"/>
<path d="M98.191 179.7C101.521 180.04 104.841 180.37 108.171 180.71C108.771 181.36 108.701 182.02 108.171 182.67C105.581 185.02 102.791 184.95 99.661 183.73C97.351 182.83 97.071 181.63 98.191 179.7Z" fill="#34332E"/>
<path d="M137.1 195.64C136.52 198.43 133.61 198.91 132.06 200.74C130.78 200.94 130.03 199.99 129.12 199.4C128.79 196.76 129.68 194.79 132.37 194.1C134.18 193.63 136.37 192.57 137.1 195.65V195.64Z" fill="#34332E"/>
<path d="M36.1199 210.79C36.1699 211.93 35.9899 213.22 34.3999 212.92C31.0199 212.29 31.0799 208.87 29.7499 206.64C29.3799 206.02 29.9099 203.95 31.4499 204.51C34.2099 205.51 35.8999 207.67 36.1299 210.79H36.1199Z" fill="#34332E"/>
<path d="M116.15 181.69C120.14 181.69 124.13 181.69 128.12 181.69C128.35 183.91 126.8 185.91 125.22 185.18C122.25 183.81 117.44 187.1 116.15 181.7V181.69Z" fill="#34332E"/>
<path d="M116.19 195.75C115.47 197.19 114.21 196.47 113.14 196.49C112.19 194.54 110.32 193.92 108.5 193.11C107.39 192.62 106.74 191.4 107.75 190.27C108.61 189.31 109.59 189.85 110.17 190.79C111.06 192.22 112.36 192.68 113.94 192.67C116.09 192.65 116.15 194.2 116.18 195.75H116.19Z" fill="#34332E"/>
<path d="M90.2105 177.7C91.8705 178.03 93.5405 178.36 95.2005 178.7C95.2705 181.2 94.4105 183.21 91.5705 182.43C89.2205 181.78 89.0405 179.76 90.2005 177.7H90.2105Z" fill="#34332E"/>
<path d="M108.17 182.67C108.17 182.02 108.17 181.36 108.17 180.71C110.59 180.36 112.86 181.09 115.15 181.69C113.12 184.13 111.17 187.13 108.17 182.68V182.67Z" fill="#33332D"/>
<path d="M167.031 208.61C166.371 208.61 165.721 208.61 165.061 208.61C164.351 207.38 163.881 206.09 164.021 204.65C165.001 203.44 166.341 203.19 167.361 204.19C168.801 205.6 167.641 207.16 167.031 208.61Z" fill="#33332D"/>
<path d="M73.9202 203.72C73.6102 205.39 72.0702 205.8 70.7202 206.2C69.7302 206.49 69.2002 205.67 69.4502 204.74C69.8502 203.24 70.7502 202.03 72.4202 201.99C73.2502 201.97 73.8402 202.68 73.9202 203.73V203.72Z" fill="#34332E"/>
<path d="M150.07 199.63C148.62 199.79 147.32 199.31 146.08 198.63C146.38 197.26 145.29 194.75 147.74 195C149.95 195.23 150.02 197.68 150.07 199.63Z" fill="#34332E"/>
<path d="M159.031 215.59C156.671 215.29 155.351 213.96 155.061 211.6C155.771 210.43 156.941 210.64 158.031 210.6C158.361 212.26 158.701 213.92 159.031 215.59Z" fill="#34332E"/>
<path d="M158.07 205.65C158.06 206.3 158.04 206.96 158.03 207.61C156.58 207.59 155.01 207.69 154.44 205.93C154.15 205.04 154.75 204.3 155.53 204.04C156.92 203.58 157.53 204.62 158.07 205.65Z" fill="#34332E"/>
<path d="M133.109 180.7C133.109 181.35 133.109 182.01 133.109 182.66C131.549 183.21 129.699 184.93 129.119 181.65C130.189 180.21 131.729 180.8 133.119 180.7H133.109Z" fill="#33332D"/>
<path d="M143.109 215.58C143.429 215.91 143.759 216.25 144.079 216.58C144.029 217.25 143.989 217.92 143.939 218.59C142.839 221.73 141.609 224.27 138.239 220.38C137.789 219.86 136.749 219.85 135.989 219.6C134.529 219.81 133.919 219.14 134.059 217.72C131.919 211.92 126.619 209.82 121.569 208.11C118.829 207.18 115.859 205.7 112.549 206.4C111.459 206.63 109.739 206.03 109.649 204.38C109.579 203.11 110.869 201.91 111.799 202.01C117.629 202.61 123.469 198.95 129.459 202.9C132.189 204.7 134.399 207.2 134.959 209.39C136.189 214.2 139.619 214.6 143.129 215.57L143.109 215.58Z" fill="#F5E1BF"/>
<path d="M116.169 224.13C116.139 229.56 112.689 233.61 108.189 233.49C105.369 233.42 101.169 228.61 101.199 225.49C101.239 220.89 105.519 216.46 109.849 216.54C114.109 216.62 116.199 219.13 116.169 224.14V224.13Z" fill="#34332C"/>
<path d="M134.059 217.73C134.699 218.36 135.349 218.99 135.989 219.61C137.329 221.84 137.019 224.35 137.239 226.78C137.499 229.59 135.749 231.22 133.689 232.17C131.419 233.21 128.969 233.2 126.879 231.1C124.129 228.34 122.969 223.64 124.429 220.2C125.939 216.65 128.659 215.95 134.049 217.73H134.059Z" fill="#34332D"/>
<path d="M123.01 236.21C123.08 238.22 122.52 239.64 120.28 239.49C118.52 239.37 116.78 238.83 117.19 236.6C117.53 234.73 117.85 232.04 119.98 231.88C122.44 231.69 122.4 234.51 123.02 236.22L123.01 236.21Z" fill="#443D2F"/>
<path d="M30.3008 268.38C32.4708 268.62 34.3508 268.67 34.7508 270.58C34.9508 271.54 33.4608 272.14 32.5808 272.11C30.2308 272.02 30.4708 270.08 30.3008 268.38Z" fill="#33322E"/>
<path d="M24.3192 269.96C24.2892 272.47 23.9692 273.31 22.6792 273.28C21.7792 273.26 20.9692 272.74 21.0092 271.9C21.0492 270.77 21.5492 269.6 23.0092 269.67C23.9492 269.72 24.3092 270.48 24.3192 269.96Z" fill="#33322E"/>
<path d="M143.09 267.5C143.25 267.96 143.33 268.48 143.59 268.86C144.33 269.93 146.57 268.86 146.61 270.75C146.63 271.83 145.47 272.13 144.5 272.5C142.89 273.11 141.69 272.82 140.59 271.5C139.83 270.59 139.08 269.75 139.09 268.49C140.33 267.78 141.62 267.3 143.08 267.5H143.09Z" fill="#1D1E19"/>
<path d="M160.04 396.14C157.05 396.14 154.06 396.14 151.07 396.14C154.25 392.45 156.76 392.45 160.04 396.14Z" fill="#33332D"/>
<path d="M150.1 284.42C148.52 281.63 149.33 278.31 148.07 275.45C152.42 276.91 153.4 281.24 150.1 284.42Z" fill="#1D1E19"/>
<path d="M138.1 13.09C139.1 13.42 140.1 13.75 141.09 14.08C142.67 18.25 140 19.67 136.8 20.89C132.88 22.38 128.41 22.77 125.4 26.25C127.4 25.05 129.7 25.03 131.85 24.47C135.92 23.41 138.65 24.63 140.11 28.64C141.44 32.3 143.27 33.07 146.01 29.72C147.5 27.89 149.49 27.81 151.35 29.19C153.3 30.64 153.48 32.52 151.89 34.34C150.96 35.4 151.02 35.92 152.31 36.44C153.31 36.85 154.08 37.75 153.97 38.73C153.42 43.48 154.95 44.56 159.7 43.25C163.49 42.21 167.41 45.59 168.25 49.58C168.91 52.73 171.56 54.46 173.13 56.96C174.83 59.67 175.79 62.33 174.01 65.33C173.31 66.51 172.39 67.57 170.85 67.32C169.32 67.07 168.84 65.76 168.46 64.44C168.03 62.93 169.15 61.1 167.1 59.46C167.16 63.45 165.89 67.3 170.98 68.97C172.43 69.45 174.01 70.61 173.26 72.78C169.08 74.49 164.89 77.35 161.18 71.83C160.12 70.25 158.92 71.4 157.93 72.44C158.94 73.53 161.66 72.68 161.2 75.26C160.8 77.5 159.29 78.8 157.06 78.82C153.66 78.85 150.92 79.92 149.1 82.9C146.92 84.29 144.49 83.85 142.12 83.88C140.75 82.55 138.72 82.72 137.21 81.65C134.39 79.65 133.64 81.58 133.14 83.89C131.15 84.24 129.27 85.26 127.15 84.88C125.92 84.09 126.28 82.11 124.71 81.54C123.19 82.18 123.36 84.05 122.16 84.89C119.83 85.22 117.5 85.55 115.18 85.88C113.99 84.85 112.94 83.68 111.67 82.56C112.19 83.69 113.42 84.63 112.19 85.89C110.53 86.22 108.86 86.55 107.2 86.88C103.23 84.6 99.4797 85.29 96.2397 88.9C88.8797 91.25 82.6397 95.36 77.2797 100.87C74.1897 100.85 70.8297 99.13 68.3097 102.6C67.1897 104.15 66.2997 105.52 67.3497 107.42C69.7997 107.52 70.5997 103.98 73.2997 104.86C70.1197 111.23 65.5197 116.26 59.3097 119.79C58.2697 118.78 58.8397 117.65 59.0697 116.55C60.0197 111.97 59.5997 108 53.3297 105.8C58.3197 113.35 55.5097 118.59 49.3297 122.8C48.3297 123.13 47.3297 123.45 46.3397 123.78C43.0697 120.91 40.2897 117.96 42.9197 113.11C43.8997 111.29 42.2897 110.91 40.6797 110.58C42.5097 113.94 42.4197 115.85 38.1297 117.39C34.2697 118.77 30.6397 119.61 26.6297 119.41C25.3597 119.35 23.5197 118.58 23.9697 118.06C26.9497 114.71 21.8897 111.83 23.6797 108.8C24.2697 107.8 23.7197 107.46 23.2897 106.74C21.8597 104.34 22.3797 102.39 25.3297 102.1C28.0797 101.83 29.1697 99.96 30.6497 98.14C32.4397 95.94 32.6997 94.51 29.6797 93.43C27.1697 92.53 26.7297 91.06 28.6097 88.98C29.7197 87.75 30.3097 86.09 31.5397 84.96C33.5997 83.05 33.2897 81.25 31.5597 79.36C29.5297 77.14 28.0597 74.5 26.5297 71.95C24.5097 68.6 25.1497 66.21 30.0997 65.93C26.9197 63.57 27.1597 59.81 25.4097 56.97C26.0597 55.97 26.7097 54.97 27.3597 53.97C30.8197 50.47 35.6497 49.85 39.9797 48.43C43.3797 47.31 47.3697 51.49 47.1397 55.36C46.9797 58.06 46.7497 60.61 49.8197 62.7C49.4897 59.98 48.1197 57.37 51.0297 55.75C54.4497 53.84 54.6897 58.02 57.2497 59.21C57.0997 55.3 55.7297 52.16 55.1097 48.91C54.8197 47.37 53.2797 47.18 51.8297 47.62C50.3997 48.05 49.0197 48.67 47.5297 48.88C45.5497 49.16 43.3097 49.62 42.0297 47.66C40.7397 45.68 40.6897 43.25 40.9097 40.91C40.9697 40.24 41.6097 39.42 42.1997 39.64C45.7097 40.97 48.5097 38.32 51.7497 38.05C55.8497 37.71 57.0897 41.67 60.1197 42.9C60.3897 41.82 59.4897 41.14 59.0797 40.35C55.9297 34.22 56.4297 34.64 60.4497 29.28C63.5997 25.08 65.0697 21.26 71.2797 25.84C73.9397 27.8 79.0697 25.31 83.2997 28.15C82.9597 26.19 81.8997 25.74 81.1497 25.09C79.7897 23.91 77.8397 22.79 79.3697 20.65C80.8697 18.56 83.0997 18.66 85.2097 19.68C87.0597 20.58 88.0597 22.44 89.3197 23.96C92.5997 27.9 99.0697 27.61 101.62 23.15C103.58 19.72 105.11 16.07 110.21 17.88C111.19 18.23 111.93 17.46 111.82 16.56C111.33 12.26 115.2 10.81 117.17 8.12004C118.93 7.97004 120.62 8.15004 122.16 9.11004C124.69 12.28 124.5 14.76 120.34 16.23C119.42 16.55 118.35 16.86 118.56 18.15C118.68 18.89 119.45 19.26 120.08 19.07C126.14 17.21 133.03 17.85 138.13 13.11L138.1 13.09Z" fill="#33322D"/>
<path d="M171.121 91.0302C176.241 89.7802 177.751 92.0002 177.091 96.8702C176.691 99.8002 176.901 102.81 176.831 105.79C175.891 109.47 177.101 113.28 176.161 116.96C174.861 134.83 170.651 151.44 155.991 163.52C147.401 169.45 138.161 173.14 127.451 172.75C113.071 172.22 101.211 166.05 90.7208 156.8C81.6608 148.82 75.2308 138.78 69.2008 128.45C68.1108 126.58 67.9108 125.36 69.5708 123.74C75.0508 118.41 79.8008 112.43 84.4008 106.35C90.2608 98.5902 98.8608 96.1302 107.741 94.9902C119.491 93.4902 131.331 92.9402 143.201 92.6902C148.401 92.5802 153.691 92.0002 158.951 91.7102C162.971 90.8402 167.111 92.0602 171.131 91.0402L171.121 91.0302Z" fill="#FCD5A6"/>
<path d="M117.15 8.11017C117.11 8.94017 117.34 10.3202 116.97 10.5102C113.46 12.3302 112.71 15.2402 112.96 18.8802C113.05 20.1602 111.93 21.0502 110.56 19.8802C106.03 16.0402 104.5 19.5802 103.24 23.0002C101.97 26.4302 99.5698 27.8102 96.1298 27.8702C95.9698 27.8702 95.7598 27.6702 95.6698 27.7302C89.9398 31.0602 89.3298 25.0102 86.6998 22.7602C85.8698 22.0402 85.6498 20.5802 84.3898 20.3002C82.7698 19.9402 80.8698 19.5302 79.8998 21.3002C78.9098 23.1102 81.1198 23.2802 81.9098 24.1302C83.2198 25.5602 86.8098 26.0402 85.3798 28.5302C83.9398 31.0402 81.5498 28.5002 79.7098 27.7502C77.9098 27.0102 76.2598 27.0902 74.3898 27.4302C70.6498 28.1102 67.2498 27.5502 65.0898 22.5102C64.1798 28.0102 61.7798 31.4202 57.3898 33.2202C56.3698 33.6402 56.4098 34.6402 57.1398 35.2102C59.3098 36.9202 59.6098 39.9502 61.3798 41.5802C62.8598 42.9502 62.6198 43.6802 61.8198 44.7102C60.6098 46.2602 59.8798 44.9902 59.2298 44.0102C58.1498 42.3502 56.0398 42.0302 54.9298 40.0802C53.8098 38.1102 49.5698 38.9402 49.2998 39.4802C47.2298 43.6902 44.6198 40.8602 42.2198 40.1202C42.1898 48.8102 43.4498 49.9302 51.0498 46.4202C55.2198 44.4902 56.3198 46.7002 56.8498 49.4802C57.3598 52.1502 57.3198 54.7702 59.0598 57.1902C59.8998 58.3602 59.1798 60.3402 57.3598 60.6802C55.7098 60.9902 53.7098 60.6502 53.7798 58.4402C53.8298 56.7802 53.9698 55.6002 51.9398 56.3302C50.7998 56.7402 49.2998 57.5602 50.2198 59.2802C51.1498 61.0102 52.6298 63.2702 50.1098 64.0602C47.6598 64.8302 46.7998 61.9502 45.8698 60.0202C45.2498 58.7402 45.1198 57.4202 45.7698 56.1802C47.2998 53.2602 45.0498 52.1302 43.3998 50.4902C41.5798 48.6802 39.9898 49.2602 38.0098 50.0902C34.5198 51.5502 30.8998 52.7002 27.3398 53.9802C31.6798 44.0102 37.6798 35.1702 46.0798 28.2202C56.1298 19.9102 67.4498 13.9602 80.1298 10.5302C85.2898 9.13017 90.4998 8.45017 95.7298 8.19017C102.85 7.83017 110.01 8.12017 117.15 8.12017V8.11017Z" fill="#33322D"/>
<path d="M25.3991 56.9697C26.8691 57.0197 27.2591 58.0497 27.5891 59.2497C27.9491 60.5197 28.1591 62.0197 28.9791 62.9497C31.1191 65.3997 36.5791 68.3897 27.5291 67.3597C25.9191 67.1797 26.2791 69.6697 27.1091 71.0097C27.9791 72.4097 29.3191 73.5997 29.8791 75.0997C31.0691 78.2797 36.5791 80.2597 34.4191 83.5797C32.6991 86.2197 30.8591 89.2897 28.0691 91.4197C30.4491 92.6997 34.7491 93.5697 34.3291 95.0097C33.4491 98.0097 30.6091 100.46 28.4691 103.05C28.1591 103.43 27.2091 103.55 26.6691 103.4C25.0991 102.96 23.5691 102.48 23.4791 104.89C23.3691 107.72 25.7691 105.63 26.7091 106.4C27.2491 107.88 25.7991 107.95 25.1991 108.57C23.6191 110.21 22.5391 111.62 26.0791 111.85C26.8991 111.9 27.8191 111.94 28.0691 112.95C28.4091 114.29 27.3791 114.58 26.4291 114.95C25.0591 115.48 23.8591 116.58 24.7891 117.94C26.0091 119.71 26.9591 118.2 27.7691 117.12C27.9591 116.87 28.2791 116.72 28.5391 116.52C31.8691 122.16 34.3191 116.31 37.1391 115.8C41.7291 114.97 41.8791 114.15 38.5591 110.34C38.1591 109.89 37.9091 109.31 37.5291 108.68C39.7291 107.54 40.7091 110.19 42.7391 109.72C45.7491 109.02 45.8491 111.5 44.5991 112.94C41.4391 116.59 43.2791 119.17 45.7291 121.92C46.1191 122.36 46.1291 123.15 46.3191 123.78C36.6091 123.62 26.8291 124.67 17.2691 121.97C12.2091 120.54 11.4491 119.03 13.6991 114.22C17.4491 106.19 19.2891 97.7197 19.3891 88.8697C19.5091 77.8797 22.2391 67.3897 25.4091 56.9797L25.3991 56.9697Z" fill="#33322D"/>
<path d="M92.4203 169.7C88.0203 169.97 85.2303 167.91 82.2803 166.64C67.0103 160.07 55.4403 149.44 47.4703 134.78C46.1403 132.33 47.9503 132.12 48.8403 132.04C51.8103 131.76 54.7803 131.59 57.6103 130.62C59.1303 130.1 59.6703 130.88 60.2803 131.98C60.9203 133.13 61.8303 134.13 62.4203 135.3C69.3203 149.05 79.8303 159.68 92.4203 169.7Z" fill="#F9D4A7"/>
<path d="M149.07 82.8996C149.27 79.5896 151.67 77.3096 155.39 77.6996C158.21 77.9996 159.88 77.4596 160.35 74.5296C160.04 74.3496 159.77 74.1996 159.51 74.0196C158.16 73.1296 155.79 76.1296 155.44 73.5396C155.15 71.3996 157.95 70.2496 159.71 69.3496C161.49 68.4396 162.71 69.4596 162.73 71.7496C162.76 74.6596 165.16 74.0796 166.71 73.7396C168.81 73.2696 170.86 72.7996 173.02 72.9296C173.15 73.1096 173.29 73.2896 173.42 73.4596C172.52 75.7529 172.384 78.5596 173.01 81.8796C170.35 81.8796 167.69 81.8996 165.04 81.8996C162.9 81.3096 160.93 81.7596 159.06 82.8796C155.73 82.8796 152.4 82.8896 149.07 82.8996Z" fill="#33322D"/>
<path d="M138.1 13.0902C138.52 15.3902 136.54 17.3102 135.34 17.0802C131.24 16.3002 128.27 20.1102 124.37 19.2502C122.83 18.9102 121.97 20.0502 120.81 20.5902C118.58 21.6102 117.3 20.1302 116.53 18.4402C115.75 16.7302 116.8 15.1902 118.47 15.2602C123.84 15.5002 122.64 12.1602 122.14 9.10023C125.23 8.51023 128.05 10.3802 131.11 10.0902C133.1 11.9002 135.94 11.7102 138.11 13.1002L138.1 13.0902Z" fill="#33322D"/>
<path d="M49.3105 122.8C49.5905 122.04 49.6505 121.01 50.2005 120.57C54.4405 117.08 57.0905 113.48 52.6705 108.15C51.7305 107.01 51.7605 104.68 53.3705 103.64C55.4705 102.29 54.9005 105.18 55.8305 105.56C63.5905 108.74 60.4905 114.48 59.2905 119.79C56.1405 121.38 53.0105 123.02 49.3105 122.8Z" fill="#33322D"/>
<path d="M73.2796 104.86C72.3896 105.57 71.5396 106.33 70.6096 106.98C69.1496 108 67.6196 111.16 66.1096 109.11C65.0296 107.64 64.2696 104.26 67.0796 101.83C70.4796 98.8996 73.4796 97.2796 77.2496 100.88C76.2896 102.57 74.9596 103.9 73.2796 104.86Z" fill="#33322D"/>
<path d="M96.2107 88.9004C95.9907 88.6704 95.5608 88.4204 95.5808 88.2104C96.1208 82.9304 100.931 85.6604 103.531 84.1504C105.361 83.0904 107.391 84.0204 107.171 86.8704C103.521 87.5404 99.8607 88.2204 96.2107 88.8904V88.9004Z" fill="#33322D"/>
<path d="M133.11 83.8896C132.7 82.7096 132.29 81.5296 131.82 80.1896C136.19 78.9496 139.38 80.7196 142.09 83.8796C139.1 83.8796 136.11 83.8896 133.11 83.8996V83.8896Z" fill="#33322D"/>
<path d="M122.139 84.8901C122.079 82.5101 122.129 79.4401 124.989 79.5601C127.489 79.6701 127.059 82.7901 127.119 84.8801C125.459 84.8801 123.789 84.8801 122.129 84.8801L122.139 84.8901Z" fill="#33322D"/>
<path d="M112.159 85.8803C112.089 84.4503 111.489 83.4003 110.029 82.9903C109.039 82.7103 107.969 82.3403 108.799 81.0803C109.609 79.8503 110.439 80.8703 111.229 81.3503C113.019 82.4403 115.029 83.3403 115.149 85.8703C114.149 85.8703 113.159 85.8703 112.159 85.8703V85.8803Z" fill="#33322D"/>
<path d="M171.119 91.0296C167.109 92.1396 163.039 92.1496 158.939 91.6996C159.969 91.4296 161.009 91.1596 162.039 90.8896C165.059 90.9396 168.089 90.9896 171.109 91.0396L171.119 91.0296Z" fill="#867766"/>
<path d="M159.061 82.8801C160.751 80.7201 162.561 79.2701 165.041 81.9001C164.381 82.2401 163.711 82.5801 163.051 82.9101C161.721 82.9001 160.401 82.8801 159.071 82.8701L159.061 82.8801Z" fill="#33322D"/>
<path d="M173.02 72.9298C172.96 71.8298 172.3 71.2098 171.43 70.5898C168.63 68.5798 166.32 64.4798 165.56 61.1698C165.14 59.3498 164.83 57.5398 167.1 57.4398C168.87 57.3598 169.83 59.0598 169.96 60.9098C169.98 61.2398 169.99 61.6098 169.87 61.8898C169.14 63.5498 169.05 65.1398 170.61 66.3598C171.19 66.8098 171.9 66.4998 172.33 65.9198C173.45 64.4198 174.32 62.8198 173.85 60.8598C173.2 58.1598 170.81 56.5598 169.55 54.2298C168.5 52.2898 164.74 51.7298 167.12 48.0298C167.89 46.8298 160.75 43.6798 158.26 44.4398C152.75 46.1298 152.8 46.1298 153.02 40.7398C153.09 39.0398 153.63 36.7098 150.45 37.3098C149.07 37.5698 148.77 36.4798 148.53 35.5598C148.23 34.4298 149.13 34.1498 149.97 34.0398C151.36 33.8698 152.08 33.1698 151.96 31.7398C151.85 30.3298 150.72 29.8698 149.66 29.4098C148.33 28.8298 147.51 29.4898 146.78 30.5698C146.23 31.3898 145.43 32.0298 144.82 32.8098C143.01 35.1098 141.67 34.7098 140.58 32.1798C140.39 31.7398 139.94 31.4098 139.7 30.9798C138.3 28.4498 138.43 23.9498 133.76 25.4198C131.05 26.2798 127.53 24.9498 125.61 28.1798C125.24 28.8098 124.81 29.9098 123.83 28.9298C123.44 28.5398 123.11 27.4798 123.34 27.1698C124.71 25.3798 125.17 23.3098 128.08 22.1898C132.75 20.3898 140.04 21.8898 141.09 14.0898C143.45 14.9998 145.45 16.7398 148.06 17.0698C149.76 18.3598 152.54 18.2898 153.06 21.0598C153.62 22.3698 154.62 23.0498 156.04 23.0898C157.09 23.3798 157.61 24.1698 157.96 25.1198C158.58 27.4998 158.95 29.8998 158.4 32.4898C160.65 32.8798 163 31.1898 165.01 33.0198C171.9 43.6798 175.29 55.9398 180.52 67.3598C181.92 70.4098 184.11 72.4298 186.25 74.6298C188.93 77.3798 188.03 78.9998 184.78 79.7498C182.24 80.3398 179.71 81.3298 177.01 80.8798C175.49 78.3198 175 75.2498 173.02 72.9198V72.9298Z" fill="#33322D"/>
<path d="M173.02 72.9297C176.66 74.4297 177.54 77.3097 177.01 80.8897C175.77 81.5997 174.47 82.0697 173.01 81.8797C171.14 79.0197 171.15 76.5597 173.01 72.9297H173.02Z" fill="#33322D"/>
<path d="M165.01 33.0196C162.24 32.4696 159.68 34.7996 156.52 33.5896C158.39 30.7696 156.93 27.8796 157.06 25.0296C159.42 24.6696 160.37 26.1596 161.03 28.0396C162.36 29.6996 163.69 31.3596 165.01 33.0196Z" fill="#33322D"/>
<path d="M161.029 28.0404C159.709 27.0404 158.379 26.0304 157.059 25.0304C156.719 24.3804 156.379 23.7304 156.039 23.0804C156.179 21.7604 157.139 20.4704 158.139 21.3804C159.939 22.9904 161.179 25.2204 162.649 27.1904C162.109 27.4704 161.559 27.7604 161.019 28.0404H161.029Z" fill="#1D1E19"/>
<path d="M153.061 21.0598C151.421 19.6998 149.161 19.1198 148.061 17.0698C150.771 17.0898 153.791 16.7298 153.061 21.0598Z" fill="#1D1E19"/>
<path d="M176.161 116.95C175.981 113.2 175.431 109.43 176.831 105.78C177.051 109.53 177.491 113.29 176.161 116.95Z" fill="#968972"/>
<path d="M149.07 218.61C150.73 218.61 152.4 218.61 154.06 218.61C154.91 220.17 155.37 221.95 153.09 222.33C150.6 222.74 149.45 220.92 149.07 218.62V218.61Z" fill="#1C1D18"/>
<path d="M142 200.01C143.18 200.33 143.61 201.32 143.5 202.27C143.37 203.39 142.86 204.67 141.33 204.38C140.07 204.15 140.07 203.02 140.21 202.01C140.35 200.97 140.83 200.14 142.01 200L142 200.01Z" fill="#34332E"/>
<path d="M125.67 42.3402C126.24 42.8702 127.33 43.4102 127.6 44.2302C129.16 48.9702 132.28 49.6002 136.51 48.0502C137.39 47.7302 138.48 47.9602 139.48 47.9802C141.04 48.0002 142 47.4002 142.07 45.7102C142.14 44.2002 142.22 42.2702 144.2 42.4502C146.02 42.6102 148.22 42.8102 149.03 45.2302C149.55 46.7702 150.62 48.1502 150.99 49.7102C151.7 52.6902 153.09 52.4102 154.65 50.5902C155.78 49.2702 156.9 48.7502 157.6 50.5202C158.22 52.1102 160.18 54.2702 157.36 55.6302C155.98 56.3002 154.24 57.4302 152.67 56.2602C149.21 53.6602 144.66 54.7702 141.1 52.6302C139.53 51.6902 138.08 51.9602 137.45 53.7002C136.77 55.5802 138.19 55.9202 139.66 55.9902C140.69 56.0402 142.05 56.2402 141.9 57.4102C141.21 63.0002 141.53 68.8002 139.22 74.0802C138.55 75.6102 136.04 76.9302 135.27 75.1202C133.76 71.5802 130.63 69.3202 129.14 65.9202C127.99 63.2902 128.36 61.1502 131.29 59.8502C132.27 59.4202 133.86 59.1502 133.7 57.7202C133.51 56.0102 131.91 56.9302 130.92 56.6402C128.13 55.8102 125.52 54.7402 126.1 50.9402C126.38 49.1302 125.56 47.8202 124.01 46.7702C122.91 46.0302 123 44.7502 123.48 43.6102C123.82 42.7902 124.47 42.3102 125.67 42.3402Z" fill="#33322D"/>
<path d="M67.8995 80.0204C63.4095 84.7204 63.4295 91.5804 58.4495 95.7204C55.3695 98.2804 53.2295 102 48.2795 100.46C47.5095 100.22 46.1495 101.21 45.8195 99.9304C45.6195 99.1504 46.2895 98.0804 46.7495 97.2304C47.3695 96.0804 48.9495 96.3504 49.6895 95.7404C52.3895 93.5004 60.4095 95.6804 56.6095 87.6904C56.2995 87.0304 57.5995 85.2304 58.5495 84.4404C59.9095 83.3204 60.4895 82.3404 59.6995 80.6504C59.1195 79.4004 58.8995 77.9304 60.0495 76.9504C61.3795 75.8204 62.4495 77.1504 63.5695 77.7504C64.8595 78.4504 66.1595 79.1104 67.8895 80.0204H67.8995Z" fill="#33322D"/>
<path d="M107.23 30.1505C111.82 27.2105 113.71 27.5205 115.9 31.6205C117.05 33.7705 118.23 35.5505 120.79 36.0905C122.21 36.3905 123.26 37.2605 122.87 38.8905C122.56 40.1905 121.27 40.5305 120.19 40.8105C118.82 41.1705 117.77 40.9305 117.13 39.2305C116.32 37.0905 109.56 31.0305 107.23 30.1505Z" fill="#33322D"/>
<path d="M101.191 53.9596C101.111 55.6096 101.141 57.5096 98.4906 56.4896C95.5106 55.3396 92.8606 47.4096 94.4606 44.4996C94.9106 43.6896 95.1006 42.4896 96.3206 42.4396C97.4406 42.3896 98.2806 43.2596 98.5406 44.1196C99.5306 47.3396 100.311 50.6296 101.191 53.9596Z" fill="#33322D"/>
<path d="M42.9297 84.3704C45.4997 85.7004 47.8197 86.2804 50.5397 85.1104C52.1397 84.4204 54.1497 85.1903 54.8597 86.7003C55.8097 88.7303 54.2097 90.6104 52.9897 92.0004C51.6897 93.4904 50.2597 91.8603 49.1397 91.0903C46.6297 89.3703 43.7597 87.9304 42.9297 84.3604V84.3704Z" fill="#33322D"/>
<path d="M78.9593 94.8305C77.9893 96.1905 76.6793 97.3605 75.3193 96.1605C73.5693 94.6205 72.3093 94.3805 70.2193 95.6105C68.9293 96.3705 66.6493 96.3905 65.8993 94.5505C65.1193 92.6405 66.4793 90.8005 67.2793 89.0405C67.3793 88.8305 67.9893 88.6005 68.0293 88.6505C70.6793 91.8705 74.6193 92.3805 78.2293 93.6005C78.5593 93.7105 78.6993 94.3805 78.9493 94.8305H78.9593Z" fill="#33322D"/>
<path d="M114.52 42.4298C113.25 44.6498 108.13 45.8898 114.19 48.2698C115.47 48.7698 114.74 50.0998 113.77 50.5198C112.16 51.2098 110.12 52.3898 109 50.0998C107.95 47.9398 106.37 45.2198 107.66 43.1098C109.19 40.5998 112.13 42.6298 114.52 42.4398V42.4298Z" fill="#33322D"/>
<path d="M114.961 68.6695C118.641 67.5895 121.961 66.8795 118.711 62.7295C117.891 61.6795 117.691 60.0295 119.181 59.2995C120.841 58.4895 122.631 59.1895 123.571 60.5895C125.101 62.8795 123.301 65.2495 123.171 67.6095C120.371 66.5995 118.901 72.3895 114.971 68.6795L114.961 68.6695Z" fill="#33322D"/>
<path d="M35.75 71.5299C40.31 71.7399 43.58 69.9399 45.87 65.6299C46.42 67.2099 49.35 67.5099 46.96 70.1399C41.4 76.2599 41.5 76.3499 35.75 71.5199V71.5299Z" fill="#33322D"/>
<path d="M153.101 62.4699C154.221 63.1099 155.071 62.2399 156.041 61.6099C157.291 60.7899 158.771 60.6299 159.301 62.2599C159.771 63.7099 158.671 64.6599 157.211 65.0299C155.941 65.3499 154.671 65.6799 153.411 66.0299C152.021 66.4099 150.621 67.2699 149.361 65.7099C148.811 65.0299 148.341 64.4099 149.051 63.5699C150.091 62.3299 151.291 61.6199 153.101 62.4799V62.4699Z" fill="#33322D"/>
<path d="M76.3393 82.9905C77.3593 85.7105 80.7193 85.3705 81.9793 87.7905C82.1593 88.1305 82.0493 88.9705 81.7893 89.1305C79.1093 90.8205 77.5993 87.5605 75.1793 87.4305C73.9093 87.3605 74.1093 85.3305 74.8493 84.1205C75.0793 83.7505 75.5693 83.5505 76.3393 82.9805V82.9905Z" fill="#33322D"/>
<path d="M96.4999 68.4204C96.2299 65.1504 96.1499 63.3604 95.8999 61.5904C95.7299 60.3904 94.4899 59.0404 96.3599 58.2404C97.4099 57.7904 98.2199 58.5804 98.9399 59.2704C99.9899 60.2804 100.58 61.5004 99.6299 62.7704C98.5899 64.1704 97.3099 65.3904 96.4899 68.4104L96.4999 68.4204Z" fill="#33322D"/>
<path d="M81.2493 42.8103C79.0793 42.7203 79.2593 41.2503 79.2693 39.9903C79.2693 38.7403 79.0593 37.1303 81.0393 37.2603C82.5993 37.3603 83.1293 38.5703 83.1593 40.0103C83.1893 41.5003 82.4593 42.4103 81.2493 42.8103Z" fill="#33322D"/>
<path d="M74.7394 76.8004C72.4394 73.7304 73.4395 71.5304 74.6795 69.4304C74.7795 69.2604 76.0995 69.4304 76.3595 69.8004C78.3395 72.5704 75.6895 74.2004 74.7495 76.8004H74.7394Z" fill="#33322D"/>
<path d="M120.469 74.9804C120.379 76.2404 119.249 76.4904 118.419 76.5804C117.089 76.7304 116.209 75.8204 116.519 74.5004C116.749 73.5404 117.019 72.0304 118.569 72.3504C119.799 72.6104 120.139 73.8404 120.469 74.9704V74.9804Z" fill="#33322D"/>
<path d="M73.9395 53.3196C76.4395 51.4996 78.2395 52.0296 80.8695 51.5596C78.6995 54.6996 76.7895 54.0096 73.9395 53.3196Z" fill="#33322D"/>
<path d="M49.1094 77.4404C50.8094 78.2404 53.0094 78.7704 52.4194 80.9604C52.2294 81.6604 50.3894 83.2104 50.0094 80.4704C49.8694 79.4404 49.4194 78.4504 49.1194 77.4404H49.1094Z" fill="#33322D"/>
<path d="M87.9201 86.2998C87.1301 86.2998 86.6201 85.8798 86.5501 85.1998C86.4301 84.0798 87.0401 83.2798 88.1601 83.2598C88.6401 83.2598 89.5101 83.8398 89.5501 84.2398C89.6801 85.3198 88.8201 85.9098 87.9201 86.2998Z" fill="#33322D"/>
<path d="M68.5693 70.5996C69.5893 70.5996 69.9693 71.2796 70.0993 72.1396C70.2093 72.8596 69.9193 73.4596 69.2093 73.6696C68.2393 73.9696 67.5593 73.4996 67.4393 72.5496C67.3193 71.6996 67.6593 70.9396 68.5693 70.5996Z" fill="#33322D"/>
<path d="M146.58 75.0801C147.34 75.1301 147.87 75.6001 147.66 76.2901C147.32 77.3901 146.57 78.2901 145.37 78.5101C144.79 78.6101 144.58 78.1301 144.8 77.5701C145.19 76.6001 144.99 75.2001 146.57 75.0801H146.58Z" fill="#33322D"/>
<path d="M165.44 142.95C164.41 139.27 159.56 137.19 161.66 132.44C161.93 131.82 160.42 130.57 159.48 131.31C157.77 132.66 154.48 134.03 155.7 136.38C158.15 141.09 155.47 140.7 152.31 141.25C147.14 142.16 142.24 142.83 137.75 139.13C134.91 136.79 132.07 138.47 129.39 139.69C127.41 140.59 125.69 141.36 124.53 138.65C124.06 137.55 123.24 136.34 121.91 137.2C120.43 138.16 120.08 139.87 120.17 141.62C120.24 143.04 120.95 144 122.36 143.49C124.99 142.55 124.83 144.14 125.22 145.92C126.16 150.2 128.18 152.94 133.23 153.99C140.87 155.58 148.43 156.34 156.22 155.68C156.14 156.38 156.22 156.79 156.06 156.99C152.88 160.88 148.15 160.41 143.89 161.23C144.1 167.61 138.87 167.49 134.83 168.97C131.09 170.34 127.56 169.77 124.24 168.15C121.33 166.73 118.16 165.93 115.17 165.9C107.92 165.83 103.65 160.65 98.3695 157.19C95.9195 155.58 100.03 152.32 97.1195 151.14C94.9295 150.25 94.3895 154.59 91.7595 153.59C91.2195 153.39 90.3895 152.72 90.4395 152.38C91.5195 145.71 84.7295 145.23 81.9295 141.65C79.3995 138.42 76.7795 135.24 74.4895 131.84C73.9095 130.98 73.8095 129.37 74.7395 128.56C76.0095 127.44 76.7095 129.02 77.5795 129.62C78.7695 130.43 79.9795 131.98 81.4495 130.74C82.8495 129.57 82.1895 127.61 82.1795 125.99C82.1695 123.7 80.7195 124.16 79.0795 124.17C76.5895 124.17 75.4895 122.76 77.7895 120.87C80.6695 118.49 82.4395 115.21 85.7395 112.94C88.1595 111.28 89.3095 107.16 92.3995 105.02C94.0895 103.85 95.4995 102.65 97.6895 102.83C98.8095 102.92 100.25 103.18 100.89 102C102.78 98.5396 106.09 99.3496 109.12 98.7196C119.58 96.5596 130.47 98.5796 140.82 95.0996C143.03 94.3596 146.13 95.3396 148.53 96.2796C154.23 98.5196 159.57 97.5296 164.68 94.9396C166.97 93.7796 168.86 94.9696 170.93 94.9396C172.39 94.9196 173.02 95.7896 172.94 97.1796C172.87 98.3796 172.48 99.6496 171.47 100.2C170.26 100.85 169.95 99.3596 169.29 98.7296C166.41 95.9596 163.96 95.9096 161.59 99.5296C160.02 101.92 158.34 103.86 154.73 101.5C151.8 99.5796 151.41 103.3 150.67 104.94C149.75 106.99 151.03 107.16 152.99 107.1C156.62 106.99 156.31 109.47 155.48 111.93C152.84 119.74 156.32 125.47 164.62 126.78C166.23 127.03 168.25 127.57 167.77 129.13C166.39 133.62 170.09 138.82 165.43 142.94L165.44 142.95Z" fill="#FED4A4"/>
<path d="M144.559 153.97C140.039 153.09 135.789 151.94 132.019 149.58C130.249 148.46 128.239 146.84 129.579 144.36C130.979 141.75 133.209 142.77 135.159 143.85C142.049 147.69 148.889 147.69 155.689 143.65C157.049 142.84 158.469 142.07 159.519 143.85C160.359 145.27 160.559 146.6 159.149 148.25C155.189 152.91 149.549 152.52 144.559 153.97Z" fill="#201D17"/>
<path d="M159.079 113.36C159.049 110.6 158.889 108.1 160.449 105.97C161.879 104.01 163.609 102.47 166.279 103.13C168.729 103.73 169.419 105.66 169.839 107.92C170.599 111.92 169.439 115.74 168.889 119.59C168.599 121.59 166.589 122.33 164.799 122.72C162.739 123.17 161.289 121.91 160.299 120.3C158.939 118.09 158.939 115.57 159.079 113.37V113.36Z" fill="#1D1E18"/>
<path d="M135.04 113.19C135.04 114.85 135.251 116.54 135.001 118.16C134.551 121.08 132.901 123.07 129.741 123.07C126.611 123.07 124.741 121.09 124.291 118.26C123.711 114.64 124.021 110.97 125.621 107.57C126.631 105.41 127.931 103.36 130.821 103.92C133.641 104.47 134.97 106.44 135.15 109.22C135.24 110.54 135.161 111.87 135.161 113.2H135.051L135.04 113.19Z" fill="#1F1D17"/>
</g>
<defs>
<clipPath id="clip0_335_179">
<rect width="364.14" height="406.71" fill="white"/>
</clipPath>
</defs>
</svg>
