<svg width="365" height="407" viewBox="0 0 365 407" fill="none" xmlns="http://www.w3.org/2000/svg">
<g clip-path="url(#clip0_337_3390)">
<path d="M181.021 390.18C181.021 390.51 181.021 390.84 181.021 391.18C179.001 395.01 180.921 397.77 184.031 399.32C190.691 402.63 197.741 404.75 205.361 404.1C212.811 403.14 220.251 403.23 227.691 404.08C233.451 404.79 238.911 403.42 244.191 401.41C248.151 399.91 250.921 397.19 251.181 392.62C249.991 385.16 250.181 377.68 250.951 370.2C258.321 366.37 258.851 359.17 259.971 352.18C260.881 346.51 260.921 340.59 263.971 334.13C267.171 343.16 270.091 350.97 272.691 358.89C274.741 365.15 277.841 370.24 284.531 372.38C287.821 373.43 287.351 374.71 284.751 376.43C281.021 378.9 277.321 381.53 275.911 386.16C274.861 389.27 274.471 392.44 274.351 395.74C274.231 399.02 275.081 401.51 277.851 403.28C280.251 406.13 284.251 404.06 286.881 406.21C292.871 406.92 298.871 406.82 304.871 406.25C313.261 406.33 321.381 404.26 329.611 403.03C334.491 402.3 339.111 396.55 338.681 391.47C338.191 385.68 336.961 379.95 336.251 374.17C335.781 370.38 334.571 366.59 338.021 363.09C339.841 361.24 339.901 358.04 339.911 355.26C341.101 353.59 340.641 351.76 340.351 349.99C339.211 343 338.811 335.9 337.221 328.98C335.461 325.95 336.301 322.63 336.191 319.42C335.771 314.63 336.341 310.37 340.361 306.83C343.491 304.07 343.281 300.05 342.671 296.11C341.461 288.34 341.731 287.78 348.621 283.81C356.211 279.44 363.051 274.2 363.691 264.75C364.041 259.57 364.401 254.21 363.921 249.04C362.681 235.62 359.691 222.51 355.371 209.72C354.941 208.45 354.361 207.26 353.281 206.39C349.001 204.71 347.191 207.68 345.351 210.6C346.851 220 351.041 228.72 352.251 238.2C352.451 242.21 353.381 246.12 353.751 250.11C354.421 252.08 354.451 254.13 354.401 256.18C354.561 260.39 353.291 264.29 351.891 268.17C351.111 270.45 349.111 271.51 347.281 272.73C345.591 273.85 343.771 274.75 342.001 275.73C339.211 277.09 336.191 277.77 333.261 278.72C325.401 281.92 317.141 283.66 308.871 285.32C297.501 287.86 297.561 287.84 294.741 276.73C293.931 273.53 293.501 270.24 292.611 267.09C291.201 262.08 292.541 259.13 297.891 258.42C303.401 256.18 309.071 254.36 314.531 252.01C316.501 251.16 318.501 250.3 319.581 248.23C320.561 245.37 320.101 242.4 320.261 239.48C319.891 232.55 317.151 226.26 314.871 219.85C313.721 217.77 312.591 215.67 311.831 213.4C311.461 212.48 310.971 211.63 310.411 210.81C309.201 209.04 307.831 207.52 305.421 207.69C302.411 208.28 301.881 210.31 302.411 212.93C302.831 215.05 303.411 217.13 303.751 219.27C304.071 220.7 304.511 222.1 304.801 223.54C306.011 228.88 302.021 226.93 299.631 227.21C298.091 227.08 296.641 226.57 295.121 226.35C290.631 225.92 286.141 226.2 281.651 226.23C278.491 226.39 275.401 227.44 272.191 227.06C268.121 230.56 265.231 234.81 263.991 240.11C266.371 243.31 265.551 247.1 265.831 250.65C266.031 253.17 263.701 253.43 261.981 253.54C256.411 253.88 250.821 254.48 245.241 253.67C243.111 253.36 240.991 253.05 238.851 253C231.601 252.83 227.881 256.44 227.711 263.76C227.681 265.08 227.681 266.4 227.691 267.72C228.901 273.18 223.561 273.37 221.101 275.89C219.391 283.95 217.231 291.89 214.891 299.78C214.331 301.66 213.721 303.58 214.341 305.59C218.551 306.34 219.571 308.77 218.301 312.69C217.951 313.76 218.831 314.82 219.971 315.36C229.841 318.03 240.011 318.54 250.081 318.68C273.981 319.01 297.961 319.9 321.591 314.83C324.501 314.21 326.001 315.39 326.261 318.36C327.281 330.11 328.921 341.79 330.231 353.51C330.841 358.92 329.671 360.38 324.461 361.55C314.541 363.78 304.511 365.08 294.321 364.81C284.981 364.56 282.301 362.77 279.681 353.73C277.311 345.56 273.751 337.86 271.041 329.83C270.191 327.32 269.101 324.82 266.411 323.61C261.501 321.41 257.031 323.42 255.721 328.79C253.721 337.03 252.571 345.44 251.081 353.78C249.831 360.79 248.001 362.61 240.861 362.7C232.411 362.8 223.911 363.6 215.521 361.77C212.891 361.2 210.341 360.54 208.381 358.53C203.851 355.06 206.841 351.34 208.021 347.68C209.391 341.43 207.551 335.27 207.501 329.06C207.471 325 207.281 320.85 213.621 322.08C215.471 322.44 216.961 320.94 217.391 318.89C215.541 315.57 214.021 311.91 208.981 312.9C206.661 313.36 206.061 315.1 204.911 316.71C203.311 318.97 200.891 320.61 199.301 322.97C198.311 329.42 199.221 335.93 198.741 342.4C198.761 346.09 200.201 349.67 199.641 353.4C200.121 357.47 199.291 361.65 200.891 365.64C201.771 367.84 200.321 368.97 198.461 369.77C195.431 371.08 192.311 372.22 189.401 373.78C182.311 377.59 178.961 384.31 181.041 390.21L181.021 390.18Z" fill="#1D1E19"/>
<path d="M179.27 111.581C179.52 111.741 179.79 111.841 180.08 111.911C183.05 105.001 181.83 97.9208 180.83 90.8708C180.74 90.2308 180.01 89.9008 179.32 89.8008C179.2 91.8308 179.08 93.8508 178.95 95.8808C179.05 101.111 179.16 106.351 179.26 111.581H179.27Z" fill="#88847F"/>
<path d="M207.061 358.249C207.181 360.119 208.231 361.549 209.911 361.969C222.111 365.059 234.431 365.119 246.811 363.159C250.321 362.609 251.491 360.249 252.031 356.979C253.571 347.549 255.281 338.149 257.111 328.769C257.481 326.859 257.541 324.219 260.731 324.329C263.781 324.439 267.151 323.479 268.631 327.619C272.181 337.579 276.281 347.369 279.341 357.479C281.421 364.349 286.301 365.879 292.141 366.169C304.101 366.749 315.851 365.069 327.491 362.339C330.721 361.579 332.101 359.859 331.781 356.769C330.681 346.279 329.471 335.809 328.321 325.329C327.961 322.049 327.801 318.749 327.311 315.499C326.981 313.329 326.151 312.299 323.261 312.959C297.641 318.789 271.571 317.479 245.611 317.199C236.761 317.099 227.931 315.379 219.091 314.399C217.681 315.349 217.061 316.689 217.121 318.369C215.741 320.939 213.861 321.969 211.041 320.469C208.071 318.879 207.211 320.339 206.601 323.179C205.861 326.659 205.651 330.219 206.321 333.509C207.331 338.469 206.891 343.379 207.081 348.309C205.851 351.629 205.321 354.949 207.081 358.269L207.061 358.249Z" fill="#33322D"/>
<path d="M217.102 318.361C218.342 317.331 218.902 315.951 219.072 314.391C219.232 313.121 218.972 311.551 219.632 310.661C220.932 308.921 220.972 307.421 219.732 305.861C217.982 303.651 216.632 306.101 215.092 306.381C212.522 306.761 212.592 312.501 209.282 310.011C206.942 308.251 210.072 305.261 210.302 302.741C210.532 300.221 212.982 297.961 211.192 295.181C208.722 294.151 207.032 296.061 205.032 296.781C202.742 298.531 202.532 301.331 201.502 303.721C200.932 305.041 200.512 306.941 198.522 306.181C196.682 305.481 197.102 303.691 197.722 302.331C200.622 296.011 202.752 289.411 205.062 282.881C205.822 280.721 206.892 278.611 206.682 276.191C206.542 275.661 206.252 275.261 205.802 274.961C202.712 274.131 200.022 275.201 197.442 276.721C195.142 279.301 194.902 282.771 193.482 285.501C193.502 276.681 193.442 267.571 193.512 258.461C193.532 255.591 193.662 252.701 197.002 251.451C197.622 251.211 198.222 250.981 198.852 250.781C203.782 249.261 204.262 247.551 200.862 243.691C200.322 243.081 199.802 242.441 199.102 241.991C194.392 241.271 192.942 238.391 193.402 233.901C193.632 231.621 193.812 229.291 193.582 226.971C190.002 223.281 189.292 226.991 188.622 229.171C187.802 231.841 187.512 234.621 184.142 235.351C182.622 236.971 182.882 239.031 182.722 240.991C182.542 243.191 183.412 245.931 180.402 246.931C177.512 247.891 173.942 248.791 171.902 246.321C165.482 238.541 155.452 241.331 147.792 237.431C140.092 239.751 131.402 236.641 124.202 242.611C120.032 246.061 114.252 243.921 109.202 243.871C105.912 243.841 102.622 243.191 99.3015 243.001C93.9315 242.701 92.7715 240.851 92.7515 234.691C92.7415 229.901 95.2515 228.911 99.3915 228.931C117.972 229.031 136.562 228.931 155.142 228.991C160.642 229.011 166.052 228.481 171.422 227.321C173.782 223.981 171.382 222.161 169.172 220.271C168.582 220.111 167.982 220.051 167.372 220.081C153.292 220.081 139.222 220.081 125.142 220.081C113.872 220.361 102.592 219.521 91.3315 220.531C88.0915 222.941 86.0715 222.441 83.8015 218.721C79.5415 211.731 74.3015 205.341 69.9815 198.391C68.0115 195.211 65.9115 194.001 62.4415 194.791C58.5215 199.891 59.0916 206.251 63.6516 208.461C64.2716 208.481 65.0715 207.951 65.5215 208.461C70.3015 213.961 75.1215 219.451 77.4615 226.551C70.8915 230.741 65.0315 228.441 63.6015 221.101C63.3115 219.601 63.0015 218.031 61.3915 217.561C59.6415 217.051 58.7115 218.301 58.0715 219.761C57.6115 221.971 58.6216 224.341 57.3716 226.471C46.1716 226.451 34.9715 226.441 23.7715 226.421C16.3515 225.881 8.93154 225.711 1.51154 226.511C1.19154 226.841 0.881554 227.171 0.561554 227.501C-0.188446 232.521 -0.168456 237.541 0.551544 242.561C0.891544 243.551 1.55154 244.211 2.55154 244.521C9.57154 245.301 16.5815 245.241 23.6015 244.551C23.9815 244.301 24.3615 244.061 24.7315 243.811C25.2915 242.581 26.4115 243.001 27.3215 243.001C36.7515 242.971 46.1715 242.981 55.6015 243.001C56.5615 243.001 57.6115 242.741 58.3615 243.661C60.8915 245.071 63.1815 245.291 66.3515 244.771C72.1415 243.801 78.2215 244.541 84.1715 244.681C84.8515 244.701 85.8615 245.301 86.1315 245.891C88.3415 250.771 92.6415 251.411 97.2115 251.591C100.522 252.681 104.052 251.191 107.352 252.471L107.252 252.601C112.302 252.411 117.362 251.911 122.302 253.491C125.372 257.811 125.582 263.501 129.532 267.511C134.712 272.771 140.692 275.971 148.052 276.381C149.302 276.451 150.222 276.921 151.162 277.551C155.242 277.551 159.382 276.711 163.382 278.221C170.222 279.571 177.062 280.891 184.082 280.521C186.352 284.341 184.822 288.471 185.042 292.461C185.972 295.321 185.782 298.461 187.842 301.071C188.582 302.011 188.482 304.091 188.032 305.401C186.552 309.671 188.812 311.801 192.222 313.181C194.592 314.141 197.242 314.401 199.162 316.341C200.382 318.191 198.862 320.491 200.142 322.331C203.582 322.221 204.452 318.931 206.062 316.971C209.322 312.971 211.522 312.571 214.312 316.701C215.032 317.771 215.892 318.291 217.112 318.361H217.102Z" fill="#1D1D19"/>
<path d="M271.911 227.47C274.891 230.23 277.921 227.31 280.921 227.54C284.581 226.15 288.171 224.67 292.291 225.15C297.201 225.72 300.821 222.25 300.621 217.18C300.531 214.86 300.871 212.55 300.711 210.27C300.391 205.62 300.851 201.96 306.951 203.48C306.501 204.86 304.201 206.32 305.851 208.58C308.081 208.4 308.501 210.6 309.831 211.61C312.171 210.92 313.101 208.53 315.261 207.34C318.241 205.71 315.531 203.46 314.121 201.39C316.311 200.42 318.431 199.7 320.191 198.13C322.091 196.44 323.491 198.29 324.681 199.68C325.841 201.04 325.431 201.97 324.311 203.47C322.241 206.23 316.811 208.2 321.061 213.16C321.121 213.23 321.131 213.51 321.011 213.61C315.571 218.28 318.351 222.23 320.941 227.38C322.391 230.26 320.531 234.82 325.551 236.09C324.391 240.24 327.041 244.63 324.711 248.72C324.031 249.91 322.421 251.26 324.171 252.59C325.561 253.65 326.971 252.35 328.341 251.85C330.221 251.17 331.211 249.33 333.081 247.84C333.341 250.91 331.951 252.01 329.811 252.47C327.171 253.04 325.541 254.48 326.061 257.33C326.511 259.77 328.361 260.37 330.611 260.03C332.841 259.7 333.751 260.43 333.051 262.78C332.521 264.55 332.421 266.38 333.171 268.15C333.421 268.56 333.761 268.89 334.181 269.13C336.681 269.77 339.111 270.22 340.541 267.2C341.701 264.75 343.001 266.6 344.101 267.25C345.941 268.33 347.761 270.2 349.751 267.87C351.491 265.84 350.781 263.65 349.621 261.41C346.821 255.98 344.721 250.39 345.481 244.02C346.001 239.62 342.941 236.87 338.041 236.59C341.481 236.49 345.171 235.94 348.631 238.22C350.111 239.2 352.181 238.97 353.711 237.53C351.521 228.41 349.281 219.32 345.781 210.59C346.361 209.13 345.981 207.71 345.661 206.28C343.921 202.9 343.361 198.83 340.031 196.36C336.651 198.87 332.701 197.26 330.431 192.03C329.451 189.76 328.681 188.34 325.841 187.71C324.061 187.31 320.121 185.31 323.761 181.77C324.781 180.78 324.281 179.51 323.411 178.65C322.161 177.42 321.441 176.04 321.451 174.28C319.701 170.79 316.951 169.02 312.971 169.39C313.271 173.34 312.371 175.44 307.791 173.38C305.961 172.56 304.881 174.17 305.471 175.91C307.021 180.45 306.531 185.5 309.021 189.76C309.901 191.26 311.071 192.71 308.461 193.59C306.201 194.36 304.411 193.91 304.181 191.19C303.941 188.44 302.751 186.12 301.311 183.89C300.071 181.98 298.771 179 296.341 179.9C293.811 180.84 295.081 183.87 295.331 185.98C295.251 185.88 295.001 185.36 294.871 185.39C288.381 187.03 285.761 179.94 280.411 178.98C278.771 178.68 277.751 177.05 276.201 176.41C275.121 176.15 274.341 176.62 273.691 177.42C272.664 180.313 271.081 180.617 268.941 178.33C267.641 177.8 266.641 178.25 265.781 179.25C264.031 184.94 259.851 182.99 256.081 182.32C253.391 184.2 251.221 182.51 248.981 181.27C248.521 181.22 248.081 181.3 247.671 181.49C243.411 184.39 239.861 184.46 236.461 181.71C236.101 181.42 235.681 181.3 235.221 181.31C233.851 182.14 232.281 182.08 230.771 182.34C227.261 185.01 222.181 185.16 218.991 182.59C217.391 181.3 219.591 179.41 218.441 177.98C217.561 176.84 216.441 176.7 215.181 177.24C213.761 181.92 209.631 183.82 205.971 186.2C204.821 187.7 205.431 189.39 205.491 191.02C205.601 194.1 204.651 195.69 201.391 193.86C199.881 193.01 198.401 192.38 196.701 193.34C193.761 197.25 192.671 201.85 191.751 206.53C192.841 208.49 194.451 209.43 196.731 209.03C198.301 208.2 196.631 204.59 199.961 205.28C202.031 205.19 204.021 205.7 206.011 206.01C206.151 206.38 207.741 204.96 206.791 206.62C206.531 207.09 205.861 207.35 205.541 207.89C205.171 208.85 205.211 209.79 205.761 210.68C206.691 211.61 207.851 211.94 209.111 212.01C214.021 208.59 214.371 205.85 210.421 201.27C211.721 200.71 213.391 201.31 214.381 199.96C215.381 198.87 215.581 195.25 218.051 198.81C220.651 196.73 222.991 193.86 226.931 195.97C231.491 193.47 233.251 196.82 235.141 199.9C239.631 199.68 243.411 197.04 247.721 196.23C249.311 194.19 251.831 193.65 254.161 192.33C252.671 193.71 250.251 194.22 250.831 196.82C254.451 199.24 258.391 200.93 262.571 202.08C264.171 201.72 265.281 201.03 264.941 199.08C264.651 197.44 265.231 195.72 266.911 195.79C268.861 195.87 268.091 198.12 268.491 199.37C269.311 201.96 266.611 202.9 265.631 204.66C265.831 208.2 267.651 211.01 269.711 213.71C272.091 212.637 272.544 210.46 271.071 207.18C275.541 211.44 275.531 214.1 271.021 219.51C270.511 222.25 269.901 225 271.911 227.46V227.47Z" fill="#33322E"/>
<path d="M236.681 261.779C235.451 264.709 236.101 267.659 236.061 270.469C236.021 273.379 235.601 275.929 232.191 276.399C229.641 276.749 229.671 278.879 229.241 280.449C227.211 287.769 225.451 295.159 223.471 302.489C222.621 305.629 223.461 306.979 226.861 307.439C247.311 310.199 267.871 309.749 288.371 309.179C301.831 308.799 315.311 307.099 328.531 304.199C330.641 303.739 333.371 303.239 333.711 300.319C334.121 296.839 333.881 293.279 332.161 290.199C331.481 288.969 329.661 290.239 328.501 290.529C320.331 292.529 312.181 294.579 303.861 295.909C303.541 295.959 303.211 296.269 302.921 296.209C294.121 294.529 286.651 299.669 278.451 300.899C272.931 301.729 267.191 301.569 261.581 301.229C257.661 300.989 254.371 297.929 253.461 294.659C252.091 289.699 248.111 285.859 247.961 280.559C247.901 278.439 246.151 278.399 244.851 277.939C238.461 275.689 236.301 271.929 237.641 265.149C237.861 264.049 238.401 262.919 236.661 261.789L236.681 261.779Z" fill="#34332E"/>
<path d="M270.111 213.57C269.381 210.26 267.391 207.55 265.761 204.68C265.541 202.98 264.591 202.01 262.891 201.79C259.151 199.53 255.251 197.62 251.011 196.49C250.171 195.54 249.091 195.55 247.961 195.75C243.071 194.92 239.381 198.34 235.031 199.39C233.701 198.97 232.611 199.59 231.501 200.16C227.361 202.71 223.961 206.01 221.561 210.27C220.591 211.99 219.521 213.76 220.971 215.76C225.311 216.61 227.921 214.98 229.931 210.87C234.351 201.82 242.181 199.64 252.571 204.52C249.141 205.19 246.331 205.95 243.471 206.49C238.351 207.45 234.661 210.86 230.661 213.74C229.321 214.7 228.891 216.09 229.791 217.67C230.481 218.22 231.281 218.25 232.121 218.26C237.561 218.33 239.631 220.78 238.611 225.9C237.971 229.12 235.131 231.54 232.391 231.02C229.151 230.4 228.421 227.98 228.381 225.1C228.351 223.31 229.201 221.53 228.441 219.74C225.461 219.12 222.371 220.25 219.401 219.2C218.491 221.45 218.711 223.73 219.101 226.03C220.541 231.38 222.631 236.25 227.391 239.68C229.751 241.38 230.391 244.26 230.821 247.14C231.681 252.84 232.941 253.57 237.951 251.27C239.131 250.73 239.661 251.14 240.541 251.68C245.411 254.65 246.851 254.24 249.901 249.3C250.281 252.16 251.931 253.57 254.831 253.44C257.981 253.3 259.301 251.21 259.141 248.47C258.901 244.44 262.121 242.41 263.721 239.45C267.691 236.3 269.581 231.73 271.941 227.47C271.941 224.51 271.921 221.55 271.911 218.59C272.211 216.6 272.171 214.73 270.141 213.56L270.111 213.57Z" fill="#F5E2C0"/>
<path d="M353.71 237.539C350.96 237.499 348.68 236.969 346.03 235.419C342.9 233.589 338.5 235.719 334.63 236.009C333.94 236.059 333.82 237.139 334.19 237.669C334.99 238.819 336.24 238.639 337.33 238.189C341.81 236.359 343.24 239.139 344.34 242.639C344.72 243.859 344.78 244.959 343.85 245.849C341.66 247.949 341.2 249.629 344.68 250.779C345.83 251.159 345.78 252.339 345.74 253.319C345.6 256.799 345.55 260.059 348.94 262.509C350.4 263.569 350.32 266.029 348.94 267.459C347.09 269.379 346.02 267.149 344.99 266.129C343.46 264.629 341.62 264.209 339.66 263.839C339.514 266.899 337.547 268.449 333.76 268.489C333.09 269.029 332.67 269.929 331.71 270.259C332.28 269.469 333.24 269.209 333.76 268.489C333.89 266.649 333.72 264.769 334.15 263.039C335.32 258.289 335.41 258.229 330.19 258.889C328.92 259.049 327.9 259.289 327.22 258.009C326.64 256.909 326.67 255.739 327.36 254.699C328.1 253.589 329.17 253.589 330.44 253.749C332.9 254.059 334.02 252.139 334.57 250.309C335 248.899 335.61 246.719 333.68 245.899C331.84 245.119 331.18 246.789 330.7 248.299C329.77 251.209 326.41 250.319 324.55 252.209C327.13 248.449 327.98 244.599 326.29 240.429C325.84 239.319 326.56 238.609 326.99 237.719C328.11 235.459 329.02 233.489 324.76 234.269C321.97 234.779 321.38 232.399 322.12 230.289C323.08 227.549 323.55 225.629 320.2 223.999C317.96 222.909 318.4 216.199 320.62 215.159C321.96 214.529 324.39 215.209 324.07 212.849C323.77 210.619 321.12 212.619 319.61 211.089C322.81 209.339 322.17 204.429 326.54 203.619C327.63 203.419 328.09 202.119 327.41 201.209C325.95 199.259 324.85 196.869 322.31 195.989C321.02 195.539 319.55 195.249 318.96 196.949C318.24 199.029 317.12 199.859 314.84 199.309C313.24 198.919 312.41 200.309 312.06 201.579C311.64 203.119 312.89 203.319 314.08 203.719C316.7 204.589 315.67 207.209 314.38 207.029C310.21 206.439 310.81 209.629 309.82 211.619C310.16 212.279 310.51 212.949 310.85 213.609C313.05 215.009 314.05 216.989 313.81 219.589C315.5 224.979 317.14 230.389 318.94 235.749C319.29 236.799 319.17 237.619 318.84 238.539C322.48 242.949 322.48 243.669 318.78 248.499C311.81 251.489 304.83 254.479 297.86 257.479C295.95 260.849 298.37 262.899 300.52 264.469C302.41 265.859 304.61 265.589 304.08 262.319C303.82 260.699 303.5 259.409 305.42 258.719C307.1 258.119 308.34 258.709 309.28 260.069C311.3 262.989 314.57 263.139 318.2 264.149C314.71 265.969 315.1 268.049 317.69 269.939C319.84 271.509 319.74 273.119 318.07 274.889C315.87 277.239 314.31 280.109 310.5 280.769C307.29 281.329 305.96 283.509 308.84 286.399C317.42 285.039 325.97 283.559 333.79 279.449C336.16 276.589 339.45 276.479 342.77 276.439C344.43 275.449 346.09 274.449 347.76 273.459C348.6 271.119 350.86 270.539 352.72 269.449C354.45 265.289 355.87 261.059 355.71 256.469C354.26 254.659 354.51 252.569 354.75 250.489C354.41 246.169 354.06 241.849 353.72 237.529L353.71 237.539Z" fill="#34332E"/>
<path d="M263.691 239.45C259.991 240.86 257.591 243.07 257.741 247.49C257.801 249.36 258.571 252.01 255.251 252.54C251.841 253.08 250.971 250.99 250.411 248.35C250.321 247.92 249.851 247.57 249.521 247.12C248.201 249.25 248.521 252.36 244.711 252.59C240.731 252.82 240.991 249.56 239.661 247.6C237.621 247.48 238.081 249.44 237.301 250.34C236.551 251.19 236.071 252.71 234.781 252.32C233.441 251.91 231.951 251.01 232.101 249.19C232.601 243.08 229.711 239.03 224.831 235.64C221.941 233.63 221.881 229.5 220.081 226.56C219.521 225.68 218.781 225.03 217.691 225.1C210.491 225.53 203.241 224.42 196.071 225.67C194.841 226.21 193.981 227.64 194.841 228.35C198.521 231.39 197.001 237.11 201.101 239.9C202.321 240.73 201.891 242.69 202.681 243.96C205.191 246.82 204.311 249.99 203.881 253.31C203.281 257.91 202.091 262.9 207.051 266.24C211.381 267.85 216.021 267.83 220.481 268.75C222.081 268.86 223.631 269.28 225.221 269.52C226.641 269.69 227.951 269.46 229.031 268.44C229.031 267.94 229.031 267.45 229.031 266.95C229.051 255.46 232.761 252.47 244.251 254.72C251.401 256.12 258.521 255.22 265.651 254.49C267.711 254.28 268.301 253.06 267.711 251.45C266.631 248.54 266.951 245.57 267.001 242.62C267.041 240.17 265.881 239.38 263.701 239.45H263.691Z" fill="#34332E"/>
<path d="M297.701 399.141C307.501 399.461 317.161 398.351 326.681 396.051C330.311 395.171 332.321 393.631 331.071 389.011C329.661 383.811 329.391 378.281 328.821 372.871C328.581 370.601 327.541 369.951 325.551 370.441C316.061 372.771 306.451 374.181 296.661 374.191C295.171 374.191 293.891 374.601 293.521 376.061C292.571 379.831 289.901 381.741 286.641 383.361C283.641 384.851 282.171 387.821 281.211 390.841C279.441 396.461 281.301 398.931 287.231 399.111C290.721 399.221 294.211 399.131 297.701 399.111V399.141Z" fill="#33332D"/>
<path d="M209.06 372.21C207.54 375.72 203.91 376.41 201.1 378.19C200.15 380.69 198.89 382.77 196.27 384.11C193.78 385.38 193.58 387.93 196.13 389.13C199.35 390.65 198.45 392.85 198.11 395.18C198.54 395.99 199.3 396.15 200.12 396.18C201.21 396.92 202.38 397.23 203.68 396.85C207.13 394.29 210.54 394.47 213.91 397.04C216.02 397.14 218.15 397.48 220.06 396.18C225.96 394.23 232.23 395.96 238.2 394.23C241.57 393.26 243.31 391.76 243.07 388.03C242.81 384.07 242.86 380.07 243.07 376.1C243.23 372.97 241.94 372.13 239 372.16C231.41 372.24 223.8 372.65 216.26 371.24C215.14 371.03 213.91 371.34 213.08 370.26C210.81 368.99 209.32 369.31 209.08 372.2L209.06 372.21Z" fill="#33322D"/>
<path d="M271.8 262.29C264.24 262.68 256.69 263.1 249.13 263.43C246.92 263.53 244.88 263.23 244.88 266.63C244.88 269.74 245.89 271.35 249.04 271.4C250.86 271.43 252.69 271.41 254.51 271.44C257.56 271.49 259.01 272.49 257.15 275.69C255.19 279.07 254.63 282.12 259.26 283.97C260.76 284.57 261.17 285.75 260.53 287.62C259.12 291.79 260.38 293.96 264.67 294.25C270.05 294.62 275.5 294.89 280.79 293.18C286.32 291.39 288.01 288.64 286.83 283.06C285.46 276.56 284.09 270.06 282.71 263.55C279.4 260.31 275.45 262.46 271.78 262.26L271.8 262.29Z" fill="#FDD5A5"/>
<path d="M308.841 286.41C307.711 283.46 308.471 281.69 311.851 281.44C313.111 281.35 314.941 282 315.431 280.5C316.511 277.16 320.311 275.86 321.141 272.5C321.661 270.39 320.041 269.71 318.371 269.12C317.441 268.79 316.471 268.06 316.501 267C316.531 265.79 317.681 265.57 318.691 265.47C320.041 265.34 321.021 264.84 320.561 263.29C320.061 261.61 318.891 262.72 317.911 262.59C314.811 262.2 311.471 262.07 309.741 258.45C308.011 254.85 305.621 257.37 303.451 258.19C300.781 259.2 301.221 260.52 302.921 262.13C303.531 262.71 303.941 263.61 302.921 264.17C302.141 264.6 301.191 264.33 300.711 263.59C299.481 261.69 297.541 260.09 297.871 257.46C297.371 257.48 296.861 257.44 296.391 257.55C290.041 259.04 289.871 259.07 290.981 265.48C292.131 272.1 293.641 278.66 295.021 285.25C295.491 287.5 296.831 288.69 299.251 288.4C302.511 288.02 305.761 287.6 308.841 286.4V286.41Z" fill="#33322E"/>
<path d="M292.12 236.551C287.47 236.551 282.83 236.611 278.18 236.521C275.89 236.481 274.74 237.331 274.92 239.701C275.27 244.401 273.16 249.831 278.92 252.911C280.38 253.691 281.64 254.511 283.53 253.781C291.84 250.571 300.21 247.501 308.58 244.461C311.14 243.531 310.87 241.521 310.78 239.541C310.68 237.171 309.12 236.531 307.05 236.541C302.07 236.551 297.1 236.541 292.12 236.541V236.551Z" fill="#34332E"/>
<path d="M229.021 268.44C227.691 268.46 226.371 268.47 225.041 268.49C223.491 269.26 222.771 271.39 220.561 271.23C219.791 269.85 222.691 268.93 221.051 267.5C216.401 266.83 211.741 266.15 207.091 265.48C204.161 265.54 202.721 264.12 202.281 261.2C201.821 258.21 200.731 255.6 196.781 257.42C194.311 263.04 194.531 268.37 198.501 273.29C200.931 275.01 203.771 274.05 206.391 274.51C207.631 275.09 210.291 273.86 209.501 276.99C208.411 282.59 205.561 287.82 206.091 293.74C207.961 295.2 210.071 295.06 212.211 294.66C214.281 291.77 215.011 288.51 214.791 285C212.551 279.81 212.961 278.24 216.991 276.82C218.781 276.75 220.591 276.79 222.041 275.48C227.291 276.04 229.011 273.08 229.021 268.44Z" fill="#1D1D19"/>
<path d="M214.041 284.419C213.381 287.749 212.711 291.069 212.051 294.399C211.651 294.659 211.341 294.989 211.091 295.399C209.871 299.469 208.701 303.549 207.421 307.599C206.911 309.219 205.281 310.769 208.451 311.659C210.771 312.319 212.621 312.829 213.701 310.049C214.171 308.829 214.631 307.599 215.101 306.369C215.271 300.559 217.741 295.299 219.141 289.789C220.341 285.049 221.711 280.369 222.051 275.459C220.061 275.459 218.071 275.449 216.081 275.439C213.401 277.979 213.311 281.099 214.051 284.409L214.041 284.419Z" fill="#33342E"/>
<path d="M305.851 208.58C306.051 205.38 308.541 203.57 310.461 201.16C307.081 201.61 304.031 203.17 300.611 201.82C299.341 201.32 298.701 202.9 299.231 204.19C301.111 208.81 298.251 213.44 299.531 218.24C300.401 221.48 295.871 224.41 292.251 223.87C287.901 223.21 283.981 224.15 280.911 227.55C285.901 227.55 290.891 227.55 295.881 227.55C297.541 226.53 298.801 227.13 299.871 228.53C300.851 228.53 301.841 228.49 302.811 228.57C307.171 228.91 307.631 226.93 305.831 223.57C305.591 222.22 300.051 222.17 304.841 219.57C305.221 217.01 304.171 214.66 303.541 212.32C302.881 209.88 303.561 208.88 305.861 208.58H305.851Z" fill="#34332E"/>
<path d="M198.101 395.18C200.771 392.61 203.081 390.12 197.211 388.66C196.301 388.43 195.251 387.88 195.301 386.66C195.361 385.22 196.651 384.73 197.701 384.49C201.371 383.67 201.981 381.36 201.091 378.18C196.901 378.67 193.711 381.37 190.131 383.2C187.491 384.95 186.461 387.17 188.101 390.16C189.601 395.49 194.091 394.85 198.101 395.17V395.18Z" fill="#33332D"/>
<path d="M344.76 206.61C344.6 208.07 345.05 209.37 345.78 210.6C348.19 209.56 349.2 206.16 352.5 206.62C351.11 201.78 348.62 197.47 345.96 193.25C342.62 194.54 342.51 197.15 343.1 200.11C343.54 202.31 345.21 204.2 344.76 206.62V206.61Z" fill="#1D1E19"/>
<path d="M209.061 372.21C209.841 370.43 211.331 370.1 213.061 370.27C213.151 368.72 212.961 367.27 211.451 366.42C209.731 365.46 208.521 362.29 206.211 364.01C203.551 366 206.381 367.61 207.471 369.25C208.091 370.18 208.541 371.22 209.061 372.21Z" fill="#1D1D19"/>
<path d="M204.101 396.14C202.771 396.15 201.441 396.17 200.121 396.18C200.661 397.28 201.481 398.09 202.761 398.09C207.651 398.12 212.541 398.13 217.421 398.09C218.691 398.09 219.511 397.28 220.061 396.18C217.731 396.17 215.401 396.15 213.081 396.14C210.091 394.33 207.101 394.63 204.111 396.14H204.101Z" fill="#1D1D19"/>
<path d="M318.791 248.499C322.101 248.069 322.771 245.859 322.871 242.929C322.961 239.959 321.431 238.859 318.851 238.539C318.831 241.859 318.811 245.179 318.791 248.499Z" fill="#33322E"/>
<path d="M342.771 276.45C338.961 275.03 335.301 274.03 333.791 279.46C337.001 279.11 340.021 278.19 342.771 276.45Z" fill="#33322E"/>
<path d="M304.841 219.58C303.421 219.14 301.401 217.38 301.041 220.3C300.611 223.81 303.481 223.56 305.831 223.58C306.021 222.12 305.551 220.82 304.841 219.58Z" fill="#33322E"/>
<path d="M207.061 358.249C207.061 354.929 207.061 351.609 207.061 348.289C203.991 351.949 203.991 356.569 207.061 358.249Z" fill="#1D1D19"/>
<path d="M313.821 219.58C314.571 219.29 316.521 219.17 315.911 218.79C312.671 216.7 314.781 214.44 315.681 212.09C313.561 212.04 312.991 215.28 310.861 213.6C311.241 215.89 312.211 217.9 313.821 219.58Z" fill="#33322E"/>
<path d="M188.101 390.17C187.781 387.56 188.951 385.38 190.131 383.21C189.051 381.83 186.901 382.26 187.081 383.14C187.531 385.47 183.851 388.51 188.101 390.17Z" fill="#1D1D19"/>
<path d="M271.8 262.29C275.36 263.38 279.34 261.01 282.73 263.58C282.67 260.65 280.48 261.34 278.87 261.5C276.51 261.72 274.02 260.88 271.8 262.3V262.29Z" fill="#FDD5A5"/>
<path d="M354.751 250.5C352.061 252.98 353.361 254.81 355.711 256.48C355.431 254.48 356.531 252.26 354.751 250.5Z" fill="#33322E"/>
<path d="M352.711 269.46C349.821 269.27 347.451 269.71 347.751 273.47C349.701 272.5 351.751 271.66 352.711 269.46Z" fill="#33322E"/>
<path d="M299.871 228.53C299.841 227.11 300.011 225.37 298.241 225.04C296.621 224.74 296.571 226.59 295.891 227.55C297.131 228.24 298.421 228.73 299.881 228.53H299.871Z" fill="#33322E"/>
<path d="M265.95 179.7C266.95 179.37 267.94 179.04 268.94 178.7C270.94 180.07 272.54 179.4 273.93 177.7C274.6 177.37 275.26 177.03 275.93 176.7C280.09 178.02 283.51 175.49 287.21 174.49C288.31 174.19 289.48 173.85 290.41 173.21C297.34 168.44 304.66 166.44 312.83 169.69C315.98 170.57 319.03 171.61 320.82 174.67C326.7 180.83 332.92 186.71 337.18 194.23C337.51 194.82 338.23 194.98 338.92 194.92C340.91 193.66 343.34 193.2 345.1 191.52C337.75 177.35 326.94 166.86 312.04 160.88C308.81 159.58 307.94 158.55 310.92 155.84C317.18 150.13 321.12 142.78 324.57 135.19C325.67 132.77 327.03 131.39 329.75 131.68C333.72 130.57 337.86 132 341.83 130.86C345.18 131.22 348.22 130.19 351.24 128.85C359.73 125.08 361.59 119.67 357.77 111.23C355.4 106 353.65 100.47 352.95 94.69C351.06 91.58 353.14 88.01 351.81 84.83C351.74 36.59 311.12 2.51 268.05 0C262.33 0 256.61 0 250.89 0C243.2 1.43 235.15 1.29 228.04 5.23C226.41 9.94 226.88 10.61 232.41 11.42C235.54 11.53 238.53 10.54 241.6 10.24C243.4 9.88 245.19 9.41 247.05 9.41C256.83 9.57 266.68 8.55 276.38 10.37C297.54 14.33 315.51 23.68 328.2 41.7C330.97 45.63 333.97 49.42 335.8 53.94C336.51 55.34 337.28 56.7 337.63 58.25C341.11 69.19 343.29 80.32 343.5 91.87C343.64 99.35 345.65 106.58 348.56 113.52C350.66 118.55 349.87 119.84 344.54 121.06C336.03 123.01 327.4 122.22 318.81 122.39C317.53 122.44 316.32 122.03 315.09 121.81C311.76 121.46 308.66 120.37 305.69 118.87C299.34 115.71 295.5 110.07 291.5 104.57C290.2 102.9 288.64 101.47 287.21 99.91C281.95 93.86 275.53 89.7 267.67 87.88C264.33 86.62 260.74 86.51 257.31 85.68C255.53 85.47 253.81 84.94 252.04 84.69C251.01 84.55 249.97 84.55 248.93 84.52C246.56 84.49 244.3 83.7 241.95 83.57C240.35 83.47 238.75 83.49 237.15 83.49C234.97 83.47 232.88 82.83 230.72 82.58C227.93 82.31 225.13 82.54 222.33 82.48C219.8 82.48 217.3 82.26 214.83 81.67C211.64 81.3 208.44 81.43 205.24 81.42C203.76 81.57 202.24 81.57 200.97 82.54C199.24 85.39 199.38 88.17 201.34 90.86C202.41 91.85 203.77 92.22 205.1 92.66C218.11 94.06 231.22 94.1 244.27 95.05C250.25 95.49 256.15 96.09 261.99 97.43C269.55 99.16 275.76 102.87 280.43 109.22C283.97 114.03 287.89 118.55 291.84 123.04C293.35 124.76 294.51 126.48 293.16 128.82C284.33 144.12 273.95 157.91 257.54 165.95C242.45 173.34 227.56 173.58 212.85 164.92C211.56 164.16 210.32 163.3 208.74 163.3C205.97 165.58 207.87 167.2 209.59 168.74C211.19 170.17 213.59 170.22 215.73 172.33C212.42 172 210.31 167.25 207.17 170.92C205.29 173.12 202.17 174.05 201.23 177.3C200.52 179.75 197.17 180.11 196.28 182.61C196.08 182.85 196 183.12 196.06 183.43C194.96 186.6 195.63 188.81 199.31 189.36C200.66 189.14 201.61 188.27 202.51 187.35C204.4 184.84 206.31 182.35 208.47 180.06C210.28 178.14 212.35 177.01 215.08 177.62C216.17 177.68 217.35 177.45 218.08 178.61C221.78 181.22 226.11 181.38 230.39 181.75C231.93 181.57 233.5 182.17 235.04 181.61C235.37 181.61 235.7 181.62 236.03 181.64C240.02 183.84 244.01 183.82 248 181.64C248.33 181.64 248.67 181.64 249 181.64C251.41 183.01 253.83 181.8 256.25 181.7C259.69 181.99 263.02 181.72 265.96 179.66L265.95 179.7Z" fill="#1D1E19"/>
<path d="M345.111 191.53C342.471 191.49 340.011 191.83 338.771 194.65C338.281 195.73 338.881 196.25 339.781 196.62C341.441 199.95 343.101 203.28 344.771 206.61C346.931 204.8 345.071 202.81 344.581 201.29C343.571 198.17 343.901 195.65 345.971 193.24C345.951 192.54 345.881 191.86 345.111 191.53Z" fill="#1D1E19"/>
<path d="M341.84 130.861C337.79 130.791 333.71 130.251 329.76 131.681C333.82 131.921 337.89 132.331 341.84 130.861Z" fill="#68655F"/>
<path d="M65.2713 207.611C62.6613 207.891 61.2013 207.091 61.3913 204.091C61.6013 200.971 61.1613 197.801 62.4313 194.811C58.4513 194.111 58.2713 196.711 58.3213 199.531C57.9113 206.231 57.3613 212.921 58.6013 219.591C61.5213 217.131 62.6613 218.381 62.3913 221.601C62.0813 225.331 63.1313 228.041 66.9313 229.241C71.3413 230.631 76.9413 229.411 79.3613 226.501C77.2213 224.751 74.6513 225.271 72.2013 225.151C70.3913 225.071 68.5313 225.291 66.9213 224.191C64.5913 219.741 65.9313 215.141 66.2813 210.591C66.3813 209.441 66.2513 208.371 65.2613 207.611H65.2713Z" fill="#1F1F1B"/>
<path d="M58.3398 243.681C57.9898 243.351 57.6498 242.761 57.2898 242.741C46.7598 242.291 36.2198 242.371 25.6898 242.831C25.3498 242.841 25.0398 243.491 24.7198 243.831C35.9298 243.291 47.1298 243.421 58.3398 243.671V243.681Z" fill="#64615B"/>
<path d="M196.261 182.651C198.611 180.381 203.301 180.681 203.131 175.471C203.061 173.351 206.861 173.661 208.371 171.521C210.631 168.291 211.481 172.541 213.081 173.151C214.441 173.671 215.731 174.951 216.971 173.211C218.561 170.971 215.931 171.081 215.141 170.141C213.941 168.721 212.011 169.451 210.621 168.481C208.831 167.231 207.811 165.741 208.161 163.501C208.421 161.781 207.371 160.601 206.261 159.651C194.191 149.281 191.581 134.891 189.461 120.291C189.271 118.981 189.281 117.641 188.961 116.331C188.121 112.871 188.581 109.361 188.561 105.871C188.561 103.101 188.651 100.321 188.511 97.5607C188.321 93.9107 189.631 91.9307 193.541 92.3107C196.411 91.9007 199.551 93.1207 202.101 90.8707C200.551 88.3707 201.261 85.5807 201.101 82.9107C200.731 81.7507 199.831 81.2107 198.731 80.8907C196.391 80.4107 194.021 80.6307 191.671 80.5507C190.191 80.4907 188.731 80.2307 187.281 79.9007C184.981 79.6107 182.681 79.3307 180.441 78.6507C178.171 77.9607 177.881 76.6407 179.421 75.0207C185.711 68.4507 187.911 59.9107 191.191 51.7907C193.651 45.7007 196.311 39.5807 199.971 34.0307C200.841 31.9307 203.211 30.7207 203.471 28.2507C203.841 25.4207 204.141 22.5207 208.281 23.5307C209.901 23.8207 210.901 23.0707 211.491 21.6307C211.681 18.5107 213.961 18.2407 216.331 18.0907C218.911 17.6707 221.071 16.2307 223.411 15.2007C224.471 14.7007 225.561 14.2807 226.691 13.9507C228.791 12.6407 232.241 13.5107 233.031 10.0607C229.251 10.6307 227.321 9.2807 228.031 5.2207C220.591 5.5407 214.571 9.6307 208.751 13.4207C199.191 19.6507 192.391 28.4607 187.021 38.6907C182.811 46.7207 181.521 55.8307 176.621 63.5607C174.631 66.6907 172.021 69.0207 169.491 71.4707C166.601 74.2707 164.321 77.3807 165.351 81.3707C166.301 85.0307 169.551 86.2707 173.231 87.0707C175.231 87.5107 177.821 87.7207 179.321 89.7707C180.861 97.1007 180.011 104.501 180.071 111.881C182.401 117.321 181.251 123.191 181.901 128.821C183.741 144.801 190.481 157.931 202.551 168.201C205.481 170.691 204.951 171.381 202.681 173.491C199.951 176.041 197.071 178.651 196.241 182.621L196.261 182.651Z" fill="#1D1E1A"/>
<path d="M169.23 219.739C169.19 220.009 169.16 220.269 169.14 220.539L169.21 220.599C171.88 222.249 175.3 221.949 177.84 224.099C178.85 224.959 180.6 224.819 181.61 223.999C185.49 220.849 189.27 222.819 193.32 223.559C201.2 224.999 209.19 226.229 217.25 224.619C218.08 224.449 218.8 224.079 219.25 223.319C219.18 220.779 218.21 218.899 215.54 218.269C213.73 218.479 211.94 223.309 210.09 218.289C209.07 216.999 205.9 218.319 206.38 215.209C206.68 213.639 207.43 212.049 206.11 210.589C206.11 209.589 206.11 208.589 206.11 207.599C206.69 206.929 206.61 206.279 206.07 205.639C204.34 203.829 202.32 203.689 200.12 204.639C198.9 205.539 198.55 206.929 198.11 208.259C196.91 210.619 196.16 213.189 194.76 215.449C194.31 216.169 193.73 216.849 192.77 216.609C191.52 216.299 191.54 215.269 191.59 214.239C191.72 211.699 193.96 209.299 192.15 206.619C193.82 202.289 195.49 197.969 197.16 193.639C197.44 193.189 197.38 192.789 197 192.439C192.12 193.289 189.94 197.419 187.02 200.639C185.26 206.539 183.52 212.449 181.7 218.329C181.62 218.569 180.8 218.589 180.33 218.709C176.76 220.369 172.92 219.159 169.25 219.739H169.23Z" fill="#1D1D19"/>
<path d="M187.011 200.641C190.391 197.981 193.771 195.321 197.151 192.651C199.941 192.651 200.531 191.021 200.091 188.651C196.301 188.831 196.891 185.591 196.041 183.471C192.651 185.401 191.751 189.061 190.191 192.191C188.851 194.871 188.051 197.811 187.011 200.641Z" fill="#1D1E1A"/>
<path d="M172.17 226.55C147.02 228.52 121.82 227.24 96.6404 227.48C92.6304 227.52 91.2704 229.21 91.3704 232.82C91.3704 233.15 91.3704 233.48 91.3704 233.82C91.2104 243.82 91.7804 243.99 101.94 244.66C108.04 245.06 114.15 245.23 120.23 245.68C122.76 245.87 124.27 245.27 125.78 243.55C128.48 240.48 131.61 238.86 135.86 240.42C137.52 241.03 139.17 240.82 140.99 239.87C145.09 237.74 149.35 237.95 153.08 240.94C154.39 242 155.45 242.12 157.09 241.79C161.78 240.85 165.86 242.1 169.1 245.9C172.25 249.59 179.07 250.6 183.04 248.22C184.51 247.34 184 245.93 184.17 244.68C184.6 241.64 183.17 238.4 185.15 235.53C188.63 228.25 186.5 225.05 178.16 225.07C176.05 225.07 173.88 224.85 172.18 226.55H172.17Z" fill="#34332E"/>
<path d="M143.25 253.79C142.65 255.72 144.8 259.58 140.23 259.37C136.64 259.21 135.41 256.5 135.2 253.14C135.11 251.62 136.16 249.71 134.41 248.63C132.4 247.39 129.74 249.62 130.34 252.5C131.61 258.66 133.38 264.64 140.11 267.39C145.48 269.59 151.1 270.74 156.77 271.35C160.92 271.8 164.37 269.55 166.69 266.08C167.73 264.52 168.56 262.98 166.91 260.76C165.44 258.77 165.3 255.84 164.39 253.39C163.45 250.85 161.45 249.01 158.79 249.86C156.26 250.67 156.62 253.34 157.25 255.43C157.98 257.83 157.88 259.81 155.15 260.51C152.35 261.22 151.44 258.67 150.52 256.94C149.89 255.75 150.17 254.02 150.24 252.54C150.36 249.68 150.37 247.42 146.27 247.43C141.7 247.43 143.59 250.48 143.26 252.55C143.21 252.87 143.26 253.21 143.26 253.81L143.25 253.79Z" fill="#FAD5A7"/>
<path d="M172.171 226.551C173.471 226.551 174.771 226.561 176.081 226.561C182.128 226.561 185.148 229.551 185.141 235.531C188.061 236.501 188.921 235.441 189.321 232.401C189.601 230.241 188.081 225.931 193.141 226.561C193.791 227.181 194.461 227.141 195.121 226.581L220.081 226.551C220.121 223.901 220.161 221.251 220.191 218.591C220.671 217.721 220.631 216.971 219.731 216.391C216.751 218.061 218.531 220.321 218.981 222.421C214.731 223.431 210.771 224.891 206.021 223.891C199.561 222.531 192.731 222.941 186.511 220.211C184.731 219.431 184.341 220.991 183.311 221.641C181.221 222.971 179.281 225.201 176.711 221.591C175.071 219.281 171.751 220.911 169.201 220.581C170.191 222.561 171.171 224.551 172.161 226.531L172.171 226.551Z" fill="#1C1D18"/>
<path d="M206.121 293.41C207.761 287.76 209.411 282.1 211.051 276.45C209.411 274.96 207.761 275.21 206.121 276.45C202.661 285.01 200.421 294.03 196.291 302.35C195.181 304.57 194.841 306.7 198.031 307.86C201.621 309.17 201.821 306.5 202.601 304.38C203.451 302.06 204.291 299.73 205.131 297.4C206.181 296.25 207.361 295.13 206.131 293.41H206.121Z" fill="#33342E"/>
<path d="M199.131 273.45C196.491 268.38 196.201 263.01 197.141 257.49C198.801 255.16 198.941 252.83 197.111 250.51C193.361 249.79 192.321 252.41 192.281 255.11C192.111 266.91 192.211 278.71 193.061 290.7C194.741 286.28 196.411 281.86 198.091 277.44C198.781 276.2 199.891 275.07 199.131 273.45Z" fill="#33342E"/>
<path d="M178.94 272.461C182.98 273.411 184.83 271.541 184.19 266.851C183.94 265.061 184.22 263.201 184.13 261.381C184.03 259.231 184.99 256.271 181.11 256.541C177.89 256.771 174.6 257.011 175.14 261.741C175.35 263.541 175.08 265.321 174.45 267.111C172.56 272.451 172.64 272.481 178.95 272.461H178.94Z" fill="#33332E"/>
<path d="M197.11 250.511C197.12 252.841 197.13 255.161 197.14 257.491C200.1 257.291 201.26 258.781 201.11 261.621C200.85 266.361 202.96 267.511 207.09 265.471C203.63 261.241 204.46 256.501 205.49 251.741C206.18 248.561 207.45 245.221 203.1 243.511C201.94 242.491 200.71 241.761 199.11 242.551C199.42 243.291 199.54 244.231 200.07 244.741C201.16 245.781 202.59 246.601 201.88 248.401C201.14 250.271 199.54 248.761 198.43 249.151C197.9 249.341 197.55 250.051 197.11 250.521V250.511Z" fill="#1D1E19"/>
<path d="M199.11 242.55C200.36 243.19 201.65 243.7 203.1 243.51C202.24 241.51 205.38 237.26 199.9 237.83C199.72 237.85 199.28 237.29 199.32 237.22C202.47 231.86 195.41 230.56 195.11 226.59C194.45 226.59 193.79 226.58 193.13 226.57C191.2 230.8 191.92 235.31 192.35 239.59C192.72 243.32 196.47 242.34 199.11 242.55Z" fill="#34332E"/>
<path d="M42.2501 233.56C38.2801 233.56 34.3101 233.54 30.3501 233.57C29.2301 233.58 27.7801 233.45 27.8301 235.14C27.8601 236.43 29.0601 236.51 30.0601 236.51C38.3301 236.52 46.5901 236.53 54.8601 236.51C55.8501 236.51 57.0501 236.48 57.1201 235.18C57.2201 233.46 55.7601 233.58 54.6501 233.57C50.5201 233.53 46.3801 233.55 42.2501 233.55V233.56Z" fill="#333530"/>
<path d="M13.2407 237.53C14.4007 237.53 15.5607 237.55 16.7107 237.53C18.1107 237.5 19.4607 237.33 19.3707 235.44C19.2807 233.54 17.8307 233.58 16.4907 233.56C14.3407 233.54 12.1907 233.54 10.0407 233.56C8.45072 233.58 6.80074 233.93 6.84074 235.84C6.88074 238.16 8.93072 237.36 10.2607 237.51C11.2407 237.62 12.2407 237.53 13.2407 237.52V237.53Z" fill="#33342E"/>
<path d="M199.131 273.45C198.411 274.68 197.961 275.99 198.091 277.44C200.651 276.35 203.331 275.75 206.091 275.45C207.941 275.56 207.651 274.58 207.111 273.46C204.451 273.68 201.791 272.12 199.131 273.46V273.45Z" fill="#1D1E19"/>
<path d="M206.121 293.41C205.791 294.74 205.451 296.07 205.121 297.4C207.541 298.01 208.881 295.4 211.091 295.41C211.411 295.08 211.731 294.74 212.051 294.41C210.071 294.08 208.101 293.74 206.121 293.41Z" fill="#1D1E19"/>
<path d="M207.111 273.461C207.071 274.281 206.891 275.021 206.091 275.451C206.091 275.781 206.111 276.121 206.121 276.451H211.051C212.221 272.181 208.821 273.931 207.111 273.461Z" fill="#32332E"/>
<path d="M312.83 169.689C309.93 167.639 306.36 167.319 303.19 165.979C302.11 165.519 300.87 165.559 299.87 166.359C292.84 172.019 284.34 174.259 275.92 176.699C277.39 179.029 279.08 180.969 282.22 180.689C284.14 180.509 284.66 181.659 285.05 183.339C285.6 185.769 287.69 187.449 289.82 186.489C293.23 184.939 295.05 185.739 296.39 189.289C296.29 186.119 295.81 183.299 296.32 179.689C299.93 183.379 302.81 186.719 302.86 191.699C302.88 193.459 303.07 195.309 305.2 195.439C307.46 195.579 309.95 195.259 311.62 193.619C313.41 191.859 311.39 190.639 310.27 189.609C308.16 187.679 308.7 184.939 308.18 182.649C307.57 179.959 307.27 177.189 305.75 174.069C309.13 174.619 312.28 177.439 314.74 174.799C316.13 173.299 313.24 171.549 312.84 169.699L312.83 169.689Z" fill="#34332E"/>
<path d="M218.99 222.431C219.38 220.491 218.25 218.271 220.06 216.591C220.61 216.471 220.93 216.141 221.03 215.591C222.2 208.761 227.33 204.891 232.08 200.741C231.77 197.691 229 197.061 227.04 195.641C221.74 192.291 221.31 192.431 218.06 198.631C216.45 197.841 215.22 198.601 214.07 199.631C212.09 200.901 209.86 198.671 207.38 200.411C212.47 203.481 214.01 207.201 209.08 211.601C207.41 212.581 206.59 214.421 205.11 215.591C204.12 217.401 204.13 218.661 206.71 218.581C207.83 218.551 208.95 218.591 210.07 218.601C211.73 220.121 213.4 219.811 215.06 218.601C217.01 219.221 217.54 221.291 218.98 222.431H218.99Z" fill="#33332D"/>
<path d="M339.781 196.62C339.441 195.96 339.111 195.31 338.771 194.65C334.911 188.92 331.381 182.96 326.051 178.35C324.411 176.93 322.831 175.52 320.821 174.67C319.771 176.37 319.921 177.66 321.831 178.75C323.831 179.88 324.351 181.13 321.441 181.75C320.221 182.01 319.501 183.05 319.981 183.89C321.131 185.93 323.471 187.13 324.211 189.53C328.531 187.72 328.431 191.15 329.641 193.69C330.931 196.41 334.701 197.22 335.641 200.63C335.931 201.67 337.591 200.92 338.121 200.19C338.881 199.15 339.241 197.82 339.771 196.62H339.781Z" fill="#34332E"/>
<path d="M215.07 177.661C213.79 175.341 212.24 175.241 210.29 176.951C207.06 179.781 203.94 182.681 202.08 186.651C203.41 187.861 204.75 187.651 206.09 186.651C210.08 184.641 216 184.571 215.07 177.651V177.661Z" fill="#34332E"/>
<path d="M231.03 180.7C226.71 180.02 222.39 179.33 218.07 178.65C217.52 180.14 216.78 181.59 216.51 183.12C216.36 183.98 227.41 186.75 228.16 185.99C229.19 184.95 230.08 183.78 231.03 182.66C231.65 182.01 231.61 181.35 231.03 180.7Z" fill="#34332E"/>
<path d="M192.15 206.619C191.52 209.009 190.72 211.369 190.31 213.799C190.06 215.309 189.27 217.559 191.23 218.209C193.04 218.809 195.11 218.319 195.99 215.919C196.91 213.439 198.04 211.039 199.08 208.599C198.42 207.989 197.77 207.989 197.11 208.599L192.15 206.609V206.619Z" fill="#33332F"/>
<path d="M206.09 186.66C204.75 186.66 203.42 186.66 202.08 186.66C201.42 187.33 200.75 187.99 200.09 188.66C199.28 190.12 198.92 191.91 197.15 192.66C197.14 192.99 197.15 193.32 197.15 193.65C198.71 193.53 200.02 193.97 201.11 195.14C202.17 196.28 203.42 197.14 204.97 196.06C206.36 195.09 207.33 193.94 206.8 191.94C206.34 190.24 206.31 188.42 206.09 186.66Z" fill="#33332D"/>
<path d="M262.88 201.8C263.84 202.76 264.8 203.72 265.75 204.69C269.67 203.03 271.64 197.54 269.4 194.33C268.76 193.41 267.51 193.43 266.7 193.94C264.96 195.05 262.37 196.28 263.37 198.65C264.04 200.25 263.65 200.84 262.88 201.8Z" fill="#34332E"/>
<path d="M270.11 213.57C270.81 215.21 270.58 217.17 271.88 218.6C276.04 218.55 276.23 215.58 275.69 212.75C275.27 210.57 273.95 208.57 273.04 206.49C272.56 205.41 272.61 203.39 270.61 204.63C269.1 205.57 268.15 207.27 269.82 208.72C271.79 210.42 272.92 211.77 270.11 213.58V213.57Z" fill="#34332E"/>
<path d="M283.26 206.75C284.97 202.86 288.26 199.85 283.48 196.68C282.28 195.88 281.13 195.27 279.91 196.38C278.62 197.55 278.47 199.23 279.52 200.42C280.96 202.05 281.76 204 283.26 206.75Z" fill="#34332E"/>
<path d="M265.95 179.699C262.62 180.039 259.3 180.369 255.97 180.709C255.37 181.359 255.44 182.019 255.97 182.669C258.56 185.019 261.35 184.949 264.48 183.729C266.79 182.829 267.07 181.629 265.95 179.699Z" fill="#34332E"/>
<path d="M227.04 195.64C227.62 198.43 230.53 198.91 232.08 200.74C233.36 200.94 234.11 199.99 235.02 199.4C235.35 196.76 234.46 194.79 231.77 194.1C229.96 193.63 227.77 192.57 227.04 195.65V195.64Z" fill="#34332E"/>
<path d="M328.021 210.789C327.971 211.929 328.151 213.219 329.741 212.919C333.121 212.289 333.061 208.869 334.391 206.639C334.761 206.019 334.231 203.949 332.691 204.509C329.931 205.509 328.241 207.669 328.011 210.789H328.021Z" fill="#34332E"/>
<path d="M247.99 181.689C244 181.689 240.01 181.689 236.02 181.689C235.79 183.909 237.34 185.909 238.92 185.179C241.89 183.809 246.7 187.099 247.99 181.699V181.689Z" fill="#34332E"/>
<path d="M247.951 195.751C248.671 197.191 249.931 196.471 251.001 196.491C251.951 194.541 253.821 193.921 255.641 193.111C256.751 192.621 257.401 191.401 256.391 190.271C255.531 189.311 254.551 189.851 253.971 190.791C253.081 192.221 251.781 192.681 250.201 192.671C248.051 192.651 247.991 194.201 247.961 195.751H247.951Z" fill="#34332E"/>
<path d="M273.93 177.699C272.27 178.029 270.6 178.359 268.94 178.699C268.87 181.199 269.73 183.209 272.57 182.429C274.92 181.779 275.1 179.759 273.94 177.699H273.93Z" fill="#34332E"/>
<path d="M255.971 182.67C255.971 182.02 255.971 181.36 255.971 180.71C253.551 180.36 251.281 181.09 248.991 181.69C251.021 184.13 252.971 187.13 255.971 182.68V182.67Z" fill="#33332D"/>
<path d="M197.11 208.61C197.77 208.61 198.42 208.61 199.08 208.61C199.79 207.38 200.26 206.09 200.12 204.65C199.14 203.44 197.8 203.19 196.78 204.19C195.34 205.6 196.5 207.16 197.11 208.61Z" fill="#33332D"/>
<path d="M290.22 203.721C290.53 205.391 292.07 205.801 293.42 206.201C294.41 206.491 294.94 205.671 294.69 204.741C294.29 203.241 293.39 202.031 291.72 201.991C290.89 201.971 290.3 202.681 290.22 203.731V203.721Z" fill="#34332E"/>
<path d="M214.071 199.63C215.521 199.79 216.821 199.31 218.061 198.63C217.761 197.26 218.851 194.75 216.401 195C214.191 195.23 214.121 197.68 214.071 199.63Z" fill="#34332E"/>
<path d="M205.11 215.59C207.47 215.29 208.79 213.96 209.08 211.6C208.37 210.43 207.2 210.64 206.11 210.6C205.78 212.26 205.44 213.92 205.11 215.59Z" fill="#34332E"/>
<path d="M206.071 205.65C206.081 206.3 206.101 206.96 206.111 207.61C207.561 207.59 209.131 207.69 209.701 205.93C209.991 205.04 209.391 204.3 208.611 204.04C207.221 203.58 206.611 204.62 206.071 205.65Z" fill="#34332E"/>
<path d="M231.031 180.7C231.031 181.35 231.031 182.01 231.031 182.66C232.591 183.21 234.441 184.93 235.021 181.65C233.951 180.21 232.411 180.8 231.021 180.7H231.031Z" fill="#33332D"/>
<path d="M221.031 215.58C220.711 215.91 220.381 216.25 220.061 216.58C220.111 217.25 220.151 217.92 220.201 218.59C221.301 221.73 222.531 224.27 225.901 220.38C226.351 219.86 227.391 219.85 228.151 219.6C229.611 219.81 230.221 219.14 230.081 217.72C232.221 211.92 237.521 209.82 242.571 208.11C245.311 207.18 248.281 205.7 251.591 206.4C252.681 206.63 254.401 206.03 254.491 204.38C254.561 203.11 253.271 201.91 252.341 202.01C246.511 202.61 240.671 198.95 234.681 202.9C231.951 204.7 229.741 207.2 229.181 209.39C227.951 214.2 224.521 214.6 221.011 215.57L221.031 215.58Z" fill="#F5E1BF"/>
<path d="M247.971 224.13C248.001 229.56 251.451 233.61 255.951 233.49C258.771 233.42 262.971 228.61 262.941 225.49C262.901 220.89 258.621 216.46 254.291 216.54C250.031 216.62 247.941 219.13 247.971 224.14V224.13Z" fill="#34332C"/>
<path d="M230.081 217.731C229.441 218.361 228.791 218.991 228.151 219.611C226.811 221.841 227.121 224.351 226.901 226.781C226.641 229.591 228.391 231.221 230.451 232.171C232.721 233.211 235.171 233.201 237.261 231.101C240.011 228.341 241.171 223.641 239.711 220.201C238.201 216.651 235.481 215.951 230.091 217.731H230.081Z" fill="#34332D"/>
<path d="M241.131 236.21C241.061 238.22 241.621 239.64 243.861 239.49C245.621 239.37 247.361 238.83 246.951 236.6C246.611 234.73 246.291 232.04 244.161 231.88C241.701 231.69 241.741 234.51 241.121 236.22L241.131 236.21Z" fill="#443D2F"/>
<path d="M333.84 268.381C331.67 268.621 329.79 268.671 329.39 270.581C329.19 271.541 330.68 272.141 331.56 272.111C333.91 272.021 333.67 270.081 333.84 268.381Z" fill="#33322E"/>
<path d="M339.821 269.961C339.851 272.471 340.171 273.311 341.461 273.281C342.361 273.261 343.171 272.741 343.131 271.901C343.091 270.771 342.591 269.601 341.131 269.671C340.191 269.721 339.831 270.481 339.821 269.961Z" fill="#33322E"/>
<path d="M221.051 267.501C220.891 267.961 220.811 268.481 220.551 268.861C219.811 269.931 217.571 268.861 217.531 270.751C217.511 271.831 218.671 272.131 219.641 272.501C221.251 273.111 222.451 272.821 223.551 271.501C224.311 270.591 225.061 269.751 225.051 268.491C223.811 267.781 222.521 267.301 221.061 267.501H221.051Z" fill="#1D1E19"/>
<path d="M204.1 396.141C207.09 396.141 210.08 396.141 213.07 396.141C209.89 392.451 207.38 392.451 204.1 396.141Z" fill="#33332D"/>
<path d="M214.04 284.419C215.62 281.629 214.81 278.309 216.07 275.449C211.72 276.909 210.74 281.239 214.04 284.419Z" fill="#1D1E19"/>
<path d="M226.041 13.0891C225.041 13.4191 224.041 13.7491 223.051 14.0791C221.471 18.2491 224.141 19.6691 227.341 20.8891C231.261 22.3791 235.731 22.7691 238.741 26.2491C236.741 25.0491 234.441 25.0291 232.291 24.4691C228.221 23.4091 225.491 24.6291 224.031 28.6391C222.701 32.2991 220.871 33.0691 218.131 29.7191C216.641 27.8891 214.651 27.8091 212.791 29.1891C210.841 30.6391 210.661 32.5191 212.251 34.3391C213.181 35.3991 213.121 35.9191 211.831 36.4391C210.831 36.8491 210.061 37.7491 210.171 38.7291C210.721 43.4791 209.191 44.5591 204.441 43.2491C200.651 42.2091 196.731 45.5891 195.891 49.5791C195.231 52.7291 192.581 54.4591 191.011 56.9591C189.311 59.6691 188.351 62.3291 190.131 65.3291C190.831 66.5091 191.751 67.5691 193.291 67.3191C194.821 67.0691 195.301 65.7591 195.681 64.4391C196.111 62.9291 194.991 61.0991 197.041 59.4591C196.981 63.4491 198.251 67.2991 193.161 68.9691C191.711 69.4491 190.131 70.6091 190.881 72.7791C195.061 74.4891 199.251 77.3491 202.961 71.8291C204.021 70.2491 205.221 71.3991 206.211 72.4391C205.201 73.5291 202.481 72.6791 202.941 75.2591C203.341 77.4991 204.851 78.7991 207.081 78.8191C210.481 78.8491 213.221 79.9191 215.041 82.8991C217.221 84.2891 219.651 83.8491 222.021 83.8791C223.391 82.5491 225.421 82.7191 226.931 81.6491C229.751 79.6491 230.501 81.5791 231.001 83.8891C232.991 84.2391 234.871 85.2591 236.991 84.8791C238.221 84.0891 237.861 82.1091 239.431 81.5391C240.951 82.1791 240.781 84.0491 241.981 84.8891C244.311 85.2191 246.641 85.5491 248.961 85.8791C250.151 84.8491 251.201 83.6791 252.471 82.5591C251.951 83.6891 250.721 84.6291 251.951 85.8891C253.611 86.2191 255.281 86.5491 256.941 86.8791C260.911 84.5991 264.661 85.2891 267.901 88.8991C275.261 91.2491 281.501 95.3591 286.861 100.869C289.951 100.849 293.311 99.1291 295.831 102.599C296.951 104.149 297.841 105.519 296.791 107.419C294.341 107.519 293.541 103.979 290.841 104.859C294.021 111.229 298.621 116.259 304.831 119.789C305.871 118.779 305.301 117.649 305.071 116.549C304.121 111.969 304.541 107.999 310.811 105.799C305.821 113.349 308.631 118.589 314.811 122.799C315.811 123.129 316.811 123.449 317.801 123.779C321.071 120.909 323.851 117.959 321.221 113.109C320.241 111.289 321.851 110.909 323.461 110.579C321.631 113.939 321.721 115.849 326.011 117.389C329.871 118.769 333.501 119.609 337.511 119.409C338.781 119.349 340.621 118.579 340.171 118.059C337.191 114.709 342.251 111.829 340.461 108.799C339.871 107.799 340.421 107.459 340.851 106.739C342.281 104.339 341.761 102.389 338.811 102.099C336.061 101.829 334.971 99.9591 333.491 98.1391C331.701 95.9391 331.441 94.5091 334.461 93.4291C336.971 92.5291 337.411 91.0591 335.531 88.9791C334.421 87.7491 333.831 86.0891 332.601 84.9591C330.541 83.0491 330.851 81.2491 332.581 79.3591C334.611 77.1391 336.081 74.4991 337.611 71.9491C339.631 68.5991 338.991 66.2091 334.041 65.9291C337.221 63.5691 336.981 59.8091 338.731 56.9691C338.081 55.9691 337.431 54.9691 336.781 53.9691C333.321 50.4691 328.491 49.8491 324.161 48.4291C320.761 47.3091 316.771 51.4891 317.001 55.3591C317.161 58.0591 317.391 60.6091 314.321 62.6991C314.651 59.9791 316.021 57.3691 313.111 55.7491C309.691 53.8391 309.451 58.0191 306.891 59.2091C307.041 55.2991 308.411 52.1591 309.031 48.9091C309.321 47.3691 310.861 47.1791 312.311 47.6191C313.741 48.0491 315.121 48.6691 316.611 48.8791C318.591 49.1591 320.831 49.6191 322.111 47.6591C323.401 45.6791 323.451 43.2491 323.231 40.9091C323.171 40.2391 322.531 39.4191 321.941 39.6391C318.431 40.9691 315.631 38.3191 312.391 38.0491C308.291 37.7091 307.051 41.6691 304.021 42.8991C303.751 41.8191 304.651 41.1391 305.061 40.3491C308.211 34.2191 307.711 34.6391 303.691 29.2791C300.541 25.0791 299.071 21.2591 292.861 25.8391C290.201 27.7991 285.071 25.3091 280.841 28.1491C281.181 26.1891 282.241 25.7391 282.991 25.0891C284.351 23.9091 286.301 22.7891 284.771 20.6491C283.271 18.5591 281.041 18.6591 278.931 19.6791C277.081 20.5791 276.081 22.4391 274.821 23.9591C271.541 27.8991 265.071 27.6091 262.521 23.1491C260.561 19.7191 259.031 16.0691 253.931 17.8791C252.951 18.2291 252.211 17.4591 252.321 16.5591C252.811 12.2591 248.941 10.8091 246.971 8.11907C245.211 7.96907 243.521 8.14907 241.981 9.10907C239.451 12.2791 239.641 14.7591 243.801 16.2291C244.721 16.5491 245.791 16.8591 245.581 18.1491C245.461 18.8891 244.691 19.2591 244.061 19.0691C238.001 17.2091 231.111 17.8491 226.011 13.1091L226.041 13.0891Z" fill="#33322D"/>
<path d="M193.02 91.0302C187.9 89.7802 186.39 92.0002 187.05 96.8702C187.45 99.8002 187.24 102.81 187.31 105.79C188.25 109.47 187.04 113.28 187.98 116.96C189.28 134.83 193.49 151.44 208.15 163.52C216.74 169.45 225.98 173.14 236.69 172.75C251.07 172.22 262.93 166.05 273.42 156.8C282.48 148.82 288.91 138.78 294.94 128.45C296.03 126.58 296.23 125.36 294.57 123.74C289.09 118.41 284.34 112.43 279.74 106.35C273.88 98.5902 265.28 96.1302 256.4 94.9902C244.65 93.4902 232.81 92.9402 220.94 92.6902C215.74 92.5802 210.45 92.0002 205.19 91.7102C201.17 90.8402 197.03 92.0602 193.01 91.0402L193.02 91.0302Z" fill="#FCD5A6"/>
<path d="M246.991 8.11017C247.031 8.94017 246.801 10.3202 247.171 10.5102C250.681 12.3302 251.431 15.2402 251.181 18.8802C251.091 20.1602 252.211 21.0502 253.581 19.8802C258.111 16.0402 259.641 19.5802 260.901 23.0002C262.171 26.4302 264.571 27.8102 268.011 27.8702C268.171 27.8702 268.381 27.6702 268.471 27.7302C274.201 31.0602 274.811 25.0102 277.441 22.7602C278.271 22.0402 278.491 20.5802 279.751 20.3002C281.371 19.9402 283.271 19.5302 284.241 21.3002C285.231 23.1102 283.021 23.2802 282.231 24.1302C280.921 25.5602 277.331 26.0402 278.761 28.5302C280.201 31.0402 282.591 28.5002 284.431 27.7502C286.231 27.0102 287.881 27.0902 289.751 27.4302C293.491 28.1102 296.891 27.5502 299.051 22.5102C299.961 28.0102 302.361 31.4202 306.751 33.2202C307.771 33.6402 307.731 34.6402 307.001 35.2102C304.831 36.9202 304.531 39.9502 302.761 41.5802C301.281 42.9502 301.521 43.6802 302.321 44.7102C303.531 46.2602 304.261 44.9902 304.911 44.0102C305.991 42.3502 308.101 42.0302 309.211 40.0802C310.331 38.1102 314.571 38.9402 314.841 39.4802C316.911 43.6902 319.521 40.8602 321.921 40.1202C321.951 48.8102 320.691 49.9302 313.091 46.4202C308.921 44.4902 307.821 46.7002 307.291 49.4802C306.781 52.1502 306.821 54.7702 305.081 57.1902C304.241 58.3602 304.961 60.3402 306.781 60.6802C308.431 60.9902 310.431 60.6502 310.361 58.4402C310.311 56.7802 310.171 55.6002 312.201 56.3302C313.341 56.7402 314.841 57.5602 313.921 59.2802C312.991 61.0102 311.511 63.2702 314.031 64.0602C316.481 64.8302 317.341 61.9502 318.271 60.0202C318.891 58.7402 319.021 57.4202 318.371 56.1802C316.841 53.2602 319.091 52.1302 320.741 50.4902C322.561 48.6802 324.151 49.2602 326.131 50.0902C329.621 51.5502 333.241 52.7002 336.801 53.9802C332.461 44.0102 326.461 35.1702 318.061 28.2202C308.011 19.9102 296.691 13.9602 284.011 10.5302C278.851 9.13017 273.641 8.45017 268.411 8.19017C261.291 7.83017 254.131 8.12017 246.991 8.12017V8.11017Z" fill="#33322D"/>
<path d="M338.742 56.9707C337.272 57.0207 336.882 58.0507 336.552 59.2507C336.192 60.5207 335.982 62.0207 335.162 62.9507C333.022 65.4007 327.562 68.3907 336.612 67.3607C338.222 67.1807 337.862 69.6707 337.032 71.0107C336.162 72.4107 334.822 73.6007 334.262 75.1007C333.072 78.2807 327.562 80.2607 329.722 83.5807C331.442 86.2207 333.282 89.2907 336.072 91.4207C333.692 92.7007 329.392 93.5707 329.812 95.0107C330.692 98.0107 333.532 100.461 335.672 103.051C335.982 103.431 336.932 103.551 337.472 103.401C339.042 102.961 340.572 102.481 340.662 104.891C340.772 107.721 338.372 105.631 337.432 106.401C336.892 107.881 338.342 107.951 338.942 108.571C340.522 110.211 341.602 111.621 338.062 111.851C337.242 111.901 336.322 111.941 336.072 112.951C335.732 114.291 336.762 114.581 337.712 114.951C339.082 115.481 340.282 116.581 339.352 117.941C338.132 119.711 337.182 118.201 336.372 117.121C336.182 116.871 335.862 116.721 335.602 116.521C332.272 122.161 329.822 116.311 327.002 115.801C322.412 114.971 322.262 114.151 325.582 110.341C325.982 109.891 326.232 109.311 326.612 108.681C324.412 107.541 323.432 110.191 321.402 109.721C318.392 109.021 318.292 111.501 319.542 112.941C322.702 116.591 320.862 119.171 318.412 121.921C318.022 122.361 318.012 123.151 317.822 123.781C327.532 123.621 337.312 124.671 346.872 121.971C351.932 120.541 352.692 119.031 350.442 114.221C346.692 106.191 344.852 97.7207 344.752 88.8707C344.632 77.8807 341.902 67.3907 338.732 56.9807L338.742 56.9707Z" fill="#33322D"/>
<path d="M271.72 169.7C276.12 169.97 278.91 167.91 281.86 166.64C297.13 160.07 308.7 149.44 316.67 134.78C318 132.33 316.19 132.12 315.3 132.04C312.33 131.76 309.36 131.59 306.53 130.62C305.01 130.1 304.47 130.88 303.86 131.98C303.22 133.13 302.31 134.13 301.72 135.3C294.82 149.05 284.31 159.68 271.72 169.7Z" fill="#F9D4A7"/>
<path d="M215.07 82.9006C214.87 79.5906 212.47 77.3105 208.75 77.7005C205.93 78.0005 204.26 77.4605 203.79 74.5305C204.1 74.3505 204.37 74.2005 204.63 74.0205C205.98 73.1305 208.35 76.1306 208.7 73.5406C208.99 71.4006 206.19 70.2505 204.43 69.3505C202.65 68.4405 201.43 69.4606 201.41 71.7506C201.38 74.6606 198.98 74.0805 197.43 73.7405C195.33 73.2705 193.28 72.8006 191.12 72.9306C190.99 73.1106 190.85 73.2905 190.72 73.4605C191.62 75.7539 191.757 78.5605 191.13 81.8805C193.79 81.8805 196.45 81.9006 199.1 81.9006C201.24 81.3106 203.21 81.7605 205.08 82.8805C208.41 82.8805 211.74 82.8906 215.07 82.9006Z" fill="#33322D"/>
<path d="M226.041 13.0902C225.621 15.3902 227.601 17.3102 228.801 17.0802C232.901 16.3002 235.871 20.1102 239.771 19.2502C241.311 18.9102 242.171 20.0502 243.331 20.5902C245.561 21.6102 246.841 20.1302 247.611 18.4402C248.391 16.7302 247.341 15.1902 245.671 15.2602C240.301 15.5002 241.501 12.1602 242.001 9.10023C238.911 8.51023 236.091 10.3802 233.031 10.0902C231.041 11.9002 228.201 11.7102 226.031 13.1002L226.041 13.0902Z" fill="#33322D"/>
<path d="M314.83 122.8C314.55 122.04 314.49 121.01 313.94 120.57C309.7 117.08 307.05 113.48 311.47 108.15C312.41 107.01 312.38 104.68 310.77 103.64C308.67 102.29 309.24 105.18 308.31 105.56C300.55 108.74 303.65 114.48 304.85 119.79C308 121.38 311.13 123.02 314.83 122.8Z" fill="#33322D"/>
<path d="M290.861 104.86C291.751 105.57 292.601 106.33 293.531 106.98C294.991 108 296.521 111.16 298.031 109.11C299.111 107.64 299.871 104.26 297.061 101.83C293.661 98.8996 290.661 97.2796 286.891 100.88C287.851 102.57 289.181 103.9 290.861 104.86Z" fill="#33322D"/>
<path d="M267.93 88.8994C268.15 88.6694 268.58 88.4194 268.56 88.2094C268.02 82.9294 263.21 85.6594 260.61 84.1494C258.78 83.0894 256.75 84.0194 256.97 86.8694C260.62 87.5394 264.28 88.2194 267.93 88.8894V88.8994Z" fill="#33322D"/>
<path d="M231.03 83.8896C231.44 82.7096 231.85 81.5296 232.32 80.1896C227.95 78.9496 224.76 80.7196 222.05 83.8796C225.04 83.8796 228.03 83.8896 231.03 83.8996V83.8896Z" fill="#33322D"/>
<path d="M242.001 84.8901C242.061 82.5101 242.011 79.4401 239.151 79.5601C236.651 79.6701 237.081 82.7901 237.021 84.8801C238.681 84.8801 240.351 84.8801 242.011 84.8801L242.001 84.8901Z" fill="#33322D"/>
<path d="M251.981 85.8803C252.051 84.4503 252.651 83.4003 254.111 82.9903C255.101 82.7103 256.171 82.3403 255.341 81.0803C254.531 79.8503 253.701 80.8703 252.911 81.3503C251.121 82.4403 249.111 83.3403 248.991 85.8703C249.991 85.8703 250.981 85.8703 251.981 85.8703V85.8803Z" fill="#33322D"/>
<path d="M193.021 91.0306C197.031 92.1406 201.101 92.1506 205.201 91.7006C204.171 91.4306 203.131 91.1606 202.101 90.8906C199.081 90.9406 196.051 90.9906 193.031 91.0406L193.021 91.0306Z" fill="#867766"/>
<path d="M205.08 82.8801C203.39 80.7201 201.58 79.2701 199.1 81.9001C199.76 82.2401 200.43 82.5801 201.09 82.9101C202.42 82.9001 203.74 82.8801 205.07 82.8701L205.08 82.8801Z" fill="#33322D"/>
<path d="M191.121 72.9298C191.181 71.8298 191.841 71.2098 192.711 70.5898C195.511 68.5798 197.821 64.4798 198.581 61.1698C199.001 59.3498 199.311 57.5398 197.041 57.4398C195.271 57.3598 194.311 59.0598 194.181 60.9098C194.161 61.2398 194.151 61.6098 194.271 61.8898C195.001 63.5498 195.091 65.1398 193.531 66.3598C192.951 66.8098 192.241 66.4998 191.811 65.9198C190.691 64.4198 189.821 62.8198 190.291 60.8598C190.941 58.1598 193.331 56.5598 194.591 54.2298C195.641 52.2898 199.401 51.7298 197.021 48.0298C196.251 46.8298 203.391 43.6798 205.881 44.4398C211.391 46.1298 211.341 46.1298 211.121 40.7398C211.051 39.0398 210.511 36.7098 213.691 37.3098C215.071 37.5698 215.371 36.4798 215.611 35.5598C215.911 34.4298 215.011 34.1498 214.171 34.0398C212.781 33.8698 212.061 33.1698 212.181 31.7398C212.291 30.3298 213.421 29.8698 214.481 29.4098C215.811 28.8298 216.631 29.4898 217.361 30.5698C217.911 31.3898 218.711 32.0298 219.321 32.8098C221.131 35.1098 222.471 34.7098 223.561 32.1798C223.751 31.7398 224.201 31.4098 224.441 30.9798C225.841 28.4498 225.711 23.9498 230.381 25.4198C233.091 26.2798 236.611 24.9498 238.531 28.1798C238.901 28.8098 239.331 29.9098 240.311 28.9298C240.701 28.5398 241.031 27.4798 240.801 27.1698C239.431 25.3798 238.971 23.3098 236.061 22.1898C231.391 20.3898 224.101 21.8898 223.051 14.0898C220.691 14.9998 218.691 16.7398 216.081 17.0698C214.381 18.3598 211.601 18.2898 211.081 21.0598C210.521 22.3698 209.521 23.0498 208.101 23.0898C207.051 23.3798 206.531 24.1698 206.181 25.1198C205.561 27.4998 205.191 29.8998 205.741 32.4898C203.491 32.8798 201.141 31.1898 199.131 33.0198C192.241 43.6798 188.851 55.9398 183.621 67.3598C182.221 70.4098 180.031 72.4298 177.891 74.6298C175.211 77.3798 176.111 78.9998 179.361 79.7498C181.901 80.3398 184.431 81.3298 187.131 80.8798C188.651 78.3198 189.141 75.2498 191.121 72.9198V72.9298Z" fill="#33322D"/>
<path d="M191.121 72.9297C187.481 74.4297 186.601 77.3097 187.131 80.8897C188.371 81.5997 189.671 82.0697 191.131 81.8797C193.001 79.0197 192.991 76.5597 191.131 72.9297H191.121Z" fill="#33322D"/>
<path d="M199.131 33.0205C201.901 32.4705 204.461 34.8005 207.621 33.5905C205.751 30.7705 207.211 27.8805 207.081 25.0305C204.721 24.6705 203.771 26.1605 203.111 28.0405C201.781 29.7005 200.451 31.3605 199.131 33.0205Z" fill="#33322D"/>
<path d="M203.112 28.0395C204.432 27.0395 205.762 26.0295 207.082 25.0295C207.422 24.3795 207.762 23.7295 208.102 23.0795C207.962 21.7595 207.002 20.4695 206.002 21.3795C204.202 22.9895 202.962 25.2195 201.492 27.1895C202.032 27.4695 202.582 27.7595 203.122 28.0395H203.112Z" fill="#1D1E19"/>
<path d="M211.08 21.0608C212.72 19.7008 214.98 19.1208 216.08 17.0708C213.37 17.0908 210.35 16.7308 211.08 21.0608Z" fill="#1D1E19"/>
<path d="M187.98 116.949C188.16 113.199 188.71 109.429 187.31 105.779C187.09 109.529 186.65 113.289 187.98 116.949Z" fill="#968972"/>
<path d="M215.07 218.609C213.41 218.609 211.74 218.609 210.08 218.609C209.23 220.169 208.77 221.949 211.05 222.329C213.54 222.739 214.69 220.919 215.07 218.619V218.609Z" fill="#1C1D18"/>
<path d="M222.141 200.01C220.961 200.33 220.531 201.32 220.641 202.27C220.771 203.39 221.281 204.67 222.811 204.38C224.071 204.15 224.071 203.02 223.931 202.01C223.791 200.97 223.311 200.14 222.131 200L222.141 200.01Z" fill="#34332E"/>
<path d="M238.471 42.3392C237.901 42.8692 236.811 43.4092 236.541 44.2292C234.981 48.9692 231.861 49.5992 227.631 48.0492C226.751 47.7292 225.661 47.9592 224.661 47.9792C223.101 47.9992 222.141 47.3992 222.071 45.7092C222.001 44.1992 221.921 42.2692 219.941 42.4492C218.121 42.6092 215.921 42.8092 215.111 45.2292C214.591 46.7692 213.521 48.1492 213.151 49.7092C212.441 52.6892 211.051 52.4092 209.491 50.5892C208.361 49.2692 207.241 48.7492 206.541 50.5192C205.921 52.1092 203.961 54.2692 206.781 55.6292C208.161 56.2992 209.901 57.4292 211.471 56.2592C214.931 53.6592 219.481 54.7692 223.041 52.6292C224.611 51.6892 226.061 51.9592 226.691 53.6992C227.371 55.5792 225.951 55.9192 224.481 55.9892C223.451 56.0392 222.091 56.2392 222.241 57.4092C222.931 62.9992 222.611 68.7992 224.921 74.0792C225.591 75.6092 228.101 76.9292 228.871 75.1192C230.381 71.5792 233.511 69.3192 235.001 65.9192C236.151 63.2892 235.781 61.1492 232.851 59.8492C231.871 59.4192 230.281 59.1492 230.441 57.7192C230.631 56.0092 232.231 56.9292 233.221 56.6392C236.011 55.8092 238.621 54.7392 238.041 50.9392C237.761 49.1292 238.581 47.8192 240.131 46.7692C241.231 46.0292 241.141 44.7492 240.661 43.6092C240.321 42.7892 239.671 42.3092 238.471 42.3392Z" fill="#33322D"/>
<path d="M296.241 80.0204C300.731 84.7204 300.711 91.5804 305.691 95.7204C308.771 98.2804 310.911 102 315.861 100.46C316.631 100.22 317.991 101.21 318.321 99.9304C318.521 99.1504 317.851 98.0804 317.391 97.2304C316.771 96.0804 315.191 96.3504 314.451 95.7404C311.751 93.5004 303.731 95.6804 307.531 87.6904C307.841 87.0304 306.541 85.2304 305.591 84.4404C304.231 83.3204 303.651 82.3404 304.441 80.6504C305.021 79.4004 305.241 77.9304 304.091 76.9504C302.761 75.8204 301.691 77.1504 300.571 77.7504C299.281 78.4504 297.981 79.1104 296.251 80.0204H296.241Z" fill="#33322D"/>
<path d="M256.91 30.1505C252.32 27.2105 250.43 27.5205 248.24 31.6205C247.09 33.7705 245.91 35.5505 243.35 36.0905C241.93 36.3905 240.88 37.2605 241.27 38.8905C241.58 40.1905 242.87 40.5305 243.95 40.8105C245.32 41.1705 246.37 40.9305 247.01 39.2305C247.82 37.0905 254.58 31.0305 256.91 30.1505Z" fill="#33322D"/>
<path d="M262.95 53.9596C263.03 55.6096 263 57.5096 265.65 56.4896C268.63 55.3396 271.28 47.4096 269.68 44.4996C269.23 43.6896 269.04 42.4896 267.82 42.4396C266.7 42.3896 265.86 43.2596 265.6 44.1196C264.61 47.3396 263.83 50.6296 262.95 53.9596Z" fill="#33322D"/>
<path d="M321.211 84.3694C318.641 85.6994 316.321 86.2794 313.601 85.1094C312.001 84.4194 309.991 85.1894 309.281 86.6994C308.331 88.7294 309.931 90.6094 311.151 91.9994C312.451 93.4894 313.881 91.8594 315.001 91.0894C317.511 89.3694 320.381 87.9294 321.211 84.3594V84.3694Z" fill="#33322D"/>
<path d="M285.181 94.8295C286.151 96.1895 287.461 97.3595 288.821 96.1595C290.571 94.6195 291.831 94.3795 293.921 95.6095C295.211 96.3695 297.491 96.3895 298.241 94.5495C299.021 92.6395 297.661 90.7995 296.861 89.0395C296.761 88.8295 296.151 88.5995 296.111 88.6495C293.461 91.8695 289.521 92.3795 285.911 93.5995C285.581 93.7095 285.441 94.3795 285.191 94.8295H285.181Z" fill="#33322D"/>
<path d="M249.621 42.4298C250.891 44.6498 256.011 45.8898 249.951 48.2698C248.671 48.7698 249.401 50.0998 250.371 50.5198C251.981 51.2098 254.021 52.3898 255.141 50.0998C256.191 47.9398 257.771 45.2198 256.481 43.1098C254.951 40.5998 252.011 42.6298 249.621 42.4398V42.4298Z" fill="#33322D"/>
<path d="M249.18 68.6705C245.5 67.5905 242.18 66.8805 245.43 62.7305C246.25 61.6805 246.45 60.0305 244.96 59.3005C243.3 58.4905 241.51 59.1905 240.57 60.5905C239.04 62.8805 240.84 65.2505 240.97 67.6105C243.77 66.6005 245.24 72.3905 249.17 68.6805L249.18 68.6705Z" fill="#33322D"/>
<path d="M328.391 71.5309C323.831 71.7409 320.561 69.9409 318.271 65.6309C317.721 67.2109 314.791 67.5109 317.181 70.1409C322.741 76.2609 322.641 76.3509 328.391 71.5209V71.5309Z" fill="#33322D"/>
<path d="M211.04 62.4709C209.92 63.1109 209.07 62.2409 208.1 61.6109C206.85 60.7909 205.37 60.6309 204.84 62.2609C204.37 63.7109 205.47 64.6609 206.93 65.0309C208.2 65.3509 209.47 65.6809 210.73 66.0309C212.12 66.4109 213.52 67.2709 214.78 65.7109C215.33 65.0309 215.8 64.4109 215.09 63.5709C214.05 62.3309 212.85 61.6209 211.04 62.4809V62.4709Z" fill="#33322D"/>
<path d="M287.801 82.9905C286.781 85.7105 283.421 85.3705 282.161 87.7905C281.981 88.1305 282.091 88.9705 282.351 89.1305C285.031 90.8205 286.541 87.5605 288.961 87.4305C290.231 87.3605 290.031 85.3305 289.291 84.1205C289.061 83.7505 288.571 83.5505 287.801 82.9805V82.9905Z" fill="#33322D"/>
<path d="M267.641 68.4194C267.911 65.1494 267.991 63.3594 268.241 61.5894C268.411 60.3894 269.651 59.0394 267.781 58.2394C266.731 57.7894 265.921 58.5794 265.201 59.2694C264.151 60.2794 263.561 61.4994 264.511 62.7694C265.551 64.1694 266.831 65.3894 267.651 68.4094L267.641 68.4194Z" fill="#33322D"/>
<path d="M282.891 42.8094C285.061 42.7194 284.881 41.2494 284.871 39.9894C284.871 38.7394 285.081 37.1294 283.101 37.2594C281.541 37.3594 281.011 38.5694 280.981 40.0094C280.951 41.4994 281.681 42.4094 282.891 42.8094Z" fill="#33322D"/>
<path d="M289.401 76.7994C291.701 73.7294 290.701 71.5294 289.461 69.4294C289.361 69.2594 288.041 69.4294 287.781 69.7994C285.801 72.5694 288.451 74.1994 289.391 76.7994H289.401Z" fill="#33322D"/>
<path d="M243.671 74.9804C243.761 76.2404 244.891 76.4904 245.721 76.5804C247.051 76.7304 247.931 75.8204 247.621 74.5004C247.391 73.5404 247.121 72.0304 245.571 72.3504C244.341 72.6104 244.001 73.8404 243.671 74.9704V74.9804Z" fill="#33322D"/>
<path d="M290.201 53.3205C287.701 51.5005 285.901 52.0305 283.271 51.5605C285.441 54.7005 287.351 54.0105 290.201 53.3205Z" fill="#33322D"/>
<path d="M315.031 77.4395C313.331 78.2395 311.131 78.7694 311.721 80.9594C311.911 81.6594 313.751 83.2095 314.131 80.4695C314.271 79.4395 314.721 78.4495 315.021 77.4395H315.031Z" fill="#33322D"/>
<path d="M276.221 86.2998C277.011 86.2998 277.521 85.8798 277.591 85.1998C277.711 84.0798 277.101 83.2798 275.981 83.2598C275.501 83.2598 274.631 83.8398 274.591 84.2398C274.461 85.3198 275.321 85.9098 276.221 86.2998Z" fill="#33322D"/>
<path d="M295.571 70.5996C294.551 70.5996 294.171 71.2796 294.041 72.1396C293.931 72.8596 294.221 73.4596 294.931 73.6696C295.901 73.9696 296.581 73.4996 296.701 72.5496C296.821 71.6996 296.481 70.9396 295.571 70.5996Z" fill="#33322D"/>
<path d="M217.56 75.0801C216.8 75.1301 216.27 75.6001 216.48 76.2901C216.82 77.3901 217.57 78.2901 218.77 78.5101C219.35 78.6101 219.56 78.1301 219.34 77.5701C218.95 76.6001 219.15 75.2001 217.57 75.0801H217.56Z" fill="#33322D"/>
<path d="M198.701 142.951C199.731 139.271 204.581 137.191 202.481 132.441C202.211 131.821 203.721 130.571 204.661 131.311C206.371 132.661 209.661 134.031 208.441 136.381C205.991 141.091 208.671 140.701 211.831 141.251C217.001 142.161 221.901 142.831 226.391 139.131C229.231 136.791 232.071 138.471 234.751 139.691C236.731 140.591 238.451 141.361 239.611 138.651C240.081 137.551 240.901 136.341 242.231 137.201C243.711 138.161 244.061 139.871 243.971 141.621C243.901 143.041 243.191 144.001 241.781 143.491C239.151 142.551 239.311 144.141 238.921 145.921C237.981 150.201 235.961 152.941 230.911 153.991C223.271 155.581 215.711 156.341 207.921 155.681C208.001 156.381 207.921 156.791 208.081 156.991C211.261 160.881 215.991 160.411 220.251 161.231C220.041 167.611 225.271 167.491 229.311 168.971C233.051 170.341 236.581 169.771 239.901 168.151C242.811 166.731 245.981 165.931 248.971 165.901C256.221 165.831 260.491 160.651 265.771 157.191C268.221 155.581 264.111 152.321 267.021 151.141C269.211 150.251 269.751 154.591 272.381 153.591C272.921 153.391 273.751 152.721 273.701 152.381C272.621 145.711 279.411 145.231 282.211 141.651C284.741 138.421 287.361 135.241 289.651 131.841C290.231 130.981 290.331 129.371 289.401 128.561C288.131 127.441 287.431 129.021 286.561 129.621C285.371 130.431 284.161 131.981 282.691 130.741C281.291 129.571 281.951 127.611 281.961 125.991C281.971 123.701 283.421 124.161 285.061 124.171C287.551 124.171 288.651 122.761 286.351 120.871C283.471 118.491 281.701 115.211 278.401 112.941C275.981 111.281 274.831 107.161 271.741 105.021C270.051 103.851 268.641 102.651 266.451 102.831C265.331 102.921 263.891 103.181 263.251 102.001C261.361 98.5406 258.051 99.3506 255.021 98.7206C244.561 96.5606 233.671 98.5806 223.321 95.1006C221.111 94.3606 218.011 95.3406 215.611 96.2806C209.911 98.5206 204.571 97.5306 199.461 94.9406C197.171 93.7806 195.281 94.9706 193.211 94.9406C191.751 94.9206 191.121 95.7906 191.201 97.1806C191.271 98.3806 191.661 99.6506 192.671 100.201C193.881 100.851 194.191 99.3606 194.851 98.7306C197.731 95.9606 200.181 95.9106 202.551 99.5306C204.121 101.921 205.801 103.861 209.411 101.501C212.341 99.5806 212.731 103.301 213.471 104.941C214.391 106.991 213.111 107.161 211.151 107.101C207.521 106.991 207.831 109.471 208.661 111.931C211.301 119.741 207.821 125.471 199.521 126.781C197.911 127.031 195.891 127.571 196.371 129.131C197.751 133.621 194.051 138.821 198.711 142.941L198.701 142.951Z" fill="#FED4A4"/>
<path d="M219.581 153.97C224.101 153.09 228.351 151.94 232.121 149.58C233.891 148.46 235.901 146.84 234.561 144.36C233.161 141.75 230.931 142.77 228.981 143.85C222.091 147.69 215.251 147.69 208.451 143.65C207.091 142.84 205.671 142.07 204.621 143.85C203.781 145.27 203.581 146.6 204.991 148.25C208.951 152.91 214.591 152.52 219.581 153.97Z" fill="#201D17"/>
<path d="M205.061 113.36C205.091 110.6 205.251 108.1 203.691 105.97C202.261 104.01 200.531 102.47 197.861 103.13C195.411 103.73 194.721 105.66 194.301 107.92C193.541 111.92 194.701 115.74 195.251 119.59C195.541 121.59 197.551 122.33 199.341 122.72C201.401 123.17 202.851 121.91 203.841 120.3C205.201 118.09 205.201 115.57 205.061 113.37V113.36Z" fill="#1D1E18"/>
<path d="M229.1 113.19C229.1 114.85 228.89 116.54 229.14 118.16C229.59 121.08 231.24 123.07 234.4 123.07C237.53 123.07 239.4 121.09 239.85 118.26C240.43 114.64 240.12 110.97 238.52 107.57C237.51 105.41 236.21 103.36 233.32 103.92C230.5 104.47 229.17 106.44 228.99 109.22C228.9 110.54 228.98 111.87 228.98 113.2H229.09L229.1 113.19Z" fill="#1F1D17"/>
</g>
<defs>
<clipPath id="clip0_337_3390">
<rect width="364.14" height="406.71" fill="white" transform="matrix(-1 0 0 1 364.141 0)"/>
</clipPath>
</defs>
</svg>
