<svg width="1194" height="916" viewBox="0 0 1194 916" fill="none" xmlns="http://www.w3.org/2000/svg">
<g clip-path="url(#clip0_429_4)">
<path d="M935.569 527.77C925.289 550.2 911.969 570.76 896.569 589.96C879.839 610.83 861.409 630.07 841.209 647.69C828.069 659.15 814.609 670.16 800.409 680.24C781.719 693.51 762.239 705.54 741.999 716.33C719.699 728.21 696.729 738.65 673.099 747.52C653.699 754.8 634.169 761.83 613.919 766.58C612.159 766.99 610.479 767.77 608.759 768.38C607.169 770.95 604.429 771.25 601.859 771.83C575.589 777.73 549.089 782.3 522.399 785.78C508.559 787.59 494.609 787.95 480.719 789.11C462.649 790.62 444.539 790.09 426.439 790.15C423.799 790.15 421.069 790.36 418.859 788.41C415.549 788.37 412.249 788.34 408.939 788.3C405.679 787.03 402.169 788.64 398.909 787.4C381.349 786.72 363.939 784.62 346.489 782.66C322.859 780.02 299.669 775.33 276.729 769.42C243.069 760.74 210.349 749.41 179.069 734.01C155.639 722.48 132.859 709.92 111.919 694.27C90.3291 678.13 70.4491 660.15 53.1891 639.29C36.7491 619.42 23.2691 597.88 14.3491 573.68C8.31907 557.33 4.09907 540.49 2.13907 523.1C1.59907 518.31 1.15907 513.54 1.16907 508.73C0.449069 499.4 0.459069 490.06 1.16907 480.73C2.28907 451.08 9.42907 422.78 20.0291 395.2C32.9691 361.55 51.6291 331.19 73.9191 303.1C93.1391 278.86 115.129 257.22 138.969 237.42C165.529 215.36 194.199 196.51 224.709 180.55C245.889 169.47 267.999 160.35 290.879 153.15C314.519 145.71 338.739 140.96 363.199 137.57C372.339 136.3 381.589 134.9 390.919 135.14C393.489 133.96 396.379 135.5 398.939 134.23C400.599 134.21 402.249 134.19 403.909 134.17C408.179 132.87 412.669 134.57 416.939 133.25C418.929 133.23 420.909 133.2 422.899 133.18C424.789 131.44 427.149 131.5 429.479 131.47C460.939 131.07 492.229 133.21 523.459 136.96C553.259 140.54 582.559 146.45 611.259 155.1C623.179 158.69 635.179 162.17 646.679 167.07C648.959 168.04 651.429 168.75 652.749 171.15C668.819 177.88 684.699 185.01 700.159 193.08C730.869 209.11 759.569 228.18 786.719 249.63C809.269 267.46 830.859 286.4 850.939 306.96C879.769 336.47 906.069 368.06 928.009 403.1C929.589 405.63 931.019 408.26 932.519 410.84C937.399 414.03 938.549 419.64 941.259 424.25C941.719 425.08 942.119 425.94 942.479 426.82C943.379 429.76 944.389 432.65 945.839 435.37C946.569 436.98 947.129 438.65 947.829 440.27C949.679 446.56 951.519 452.85 952.019 459.44C952.749 465 951.409 470.56 952.129 476.11C951.589 485.36 949.189 494.25 946.919 503.17C946.609 504.18 946.019 505.08 945.789 506.13C944.169 510.83 942.449 515.5 940.689 520.14C939.599 523.03 938.779 526.25 935.559 527.76L935.569 527.77Z" fill="#054A54"/>
<path d="M652.759 171.151C636.849 164.931 620.659 159.541 604.229 154.891C583.199 148.951 561.889 144.311 540.249 141.051C524.549 138.691 508.759 137.191 493.009 135.331C486.939 134.611 480.779 134.651 474.669 134.191C457.429 132.891 440.159 133.291 422.889 133.171C424.639 126.571 428.639 121.141 432.829 116.091C439.809 107.681 447.109 99.4611 454.959 91.8611C469.349 77.9211 484.249 64.4011 500.839 53.1211C522.549 38.3711 545.379 25.5911 570.219 16.6011C587.599 10.3111 605.329 5.38105 623.559 2.76105C646.429 -0.518947 669.409 -1.42895 692.349 3.00105C699.769 4.43105 706.709 6.46105 713.019 10.8511C719.669 15.4811 722.229 21.9611 722.639 29.5511C723.609 47.1511 718.929 63.7211 712.789 79.9311C702.269 107.691 685.569 131.681 667.019 154.581C662.419 160.261 656.259 164.551 652.749 171.121L652.759 171.151Z" fill="#003441"/>
<path d="M418.879 788.413C429.199 788.393 439.529 788.433 449.849 788.343C471.579 788.153 493.239 786.763 514.859 784.483C542.729 781.543 570.329 777.183 597.589 770.633C601.289 769.743 605.049 769.123 608.789 768.383C616.439 774.713 625.149 779.703 632.279 786.663C654.129 807.973 671.879 831.883 678.219 862.503C680.939 875.643 680.579 888.563 671.499 899.803C664.749 908.153 655.599 912.203 645.469 914.093C621.329 918.593 598.109 913.653 575.019 906.923C563.029 903.433 551.279 899.353 539.919 894.293C517.259 884.203 495.939 871.913 476.839 855.853C463.839 844.923 451.559 833.243 440.699 820.283C432.449 810.443 424.409 800.233 418.889 788.413H418.879Z" fill="#003441"/>
<path d="M1156.36 358.94C1151.59 371.54 1144.97 383.24 1138.27 394.83C1124.84 418.07 1110.69 440.86 1094.19 462.11C1093.7 462.74 1092.99 463.22 1092.39 463.76C1090.82 462.58 1089.25 466.86 1087.88 463.88C1086.91 461.76 1088.29 460.06 1089.93 458.73C1091.75 457.27 1094.33 456.34 1093.98 453.06C1087.49 456.24 1084.85 455.82 1080.82 449.78C1078.91 446.92 1076.88 444.13 1075.04 441.23C1074.41 440.23 1073.99 439.16 1072.86 438.68C1071.32 438.04 1070.19 437.13 1070.85 435.3C1071.51 433.43 1072.96 431.77 1074.9 432.29C1078.79 433.33 1079.84 431.35 1080.65 428.23C1081.13 426.39 1082.61 425.1 1084.71 425.09C1086.83 425.08 1087.36 426.76 1087.92 428.36C1088.62 430.36 1089.18 432.5 1091.78 432.93C1092.96 431.2 1091.68 430.33 1090.87 429.39C1087.74 425.72 1086.97 421.79 1088.9 419.14C1090.93 416.35 1096.46 415.61 1100.47 417.66C1099.06 416.61 1097.78 415.57 1096.86 414.16C1095.86 412.64 1095.92 410.84 1097.63 410.44C1101.3 409.6 1101.23 407.54 1100.25 404.77C1100.11 404.38 1100.71 403.92 1100.48 403.4C1098.59 404.34 1096.56 403.97 1094.58 404.02C1086.5 404.21 1085.27 403.15 1084.97 395.16C1084.85 392.06 1083.99 389.41 1081.1 388.2C1078.07 386.93 1076.09 389.48 1074.3 391.22C1072.42 393.05 1071.18 395.5 1068.55 396.58C1067.45 397.03 1066.46 397.91 1066.8 399.27C1067.19 400.82 1068.58 401.17 1069.97 401.15C1072.64 401.11 1075.09 399.85 1077.82 399.86C1083.13 399.88 1084.03 400.56 1083.49 405.74C1083.29 407.62 1084.07 408.59 1085.35 409.43C1089.56 412.2 1089.38 415.86 1087.66 419.92C1087.2 421.01 1086.82 422.23 1085.38 422.2C1083.95 422.16 1083.53 420.95 1083.23 419.81C1082.65 417.65 1082.9 415.18 1079.94 412.41C1080.09 417.33 1079.53 421.1 1078.94 424.85C1078.47 427.84 1077.93 430.13 1073.98 428.82C1072.07 428.19 1069.88 429.28 1069.29 430.88C1068.33 433.5 1070.14 435.97 1071.61 437.98C1072.58 439.31 1074.29 440.09 1073.39 442.04C1072.64 443.66 1071.01 443.67 1069.49 443.65C1066.77 443.63 1065.26 444.54 1065.01 447.65C1064.68 451.68 1060.8 450.51 1057.95 451.54C1060.3 455.59 1058.35 457 1054.46 457.13C1053.08 457.18 1051.99 458.03 1050.83 458.7C1049.33 459.56 1047.65 460.28 1046.3 458.7C1044.98 457.17 1045.8 455.53 1046.78 454.12C1048.47 451.7 1049.52 448.82 1052.61 446.74C1045.74 444.38 1041.92 440.09 1041.4 433.24C1041.34 432.42 1040.82 431.5 1041.26 430.8C1042.75 428.44 1043.42 426.24 1041.11 423.92C1040.71 423.52 1041.44 422.59 1041.59 421.8C1038.91 425.52 1038.11 430.39 1033.59 433.42C1037.8 432.54 1038.91 433.42 1038.2 436.44C1036.61 443.27 1028.59 445.88 1023.17 441.33C1022.79 441.01 1022.42 440.68 1021.73 440.58C1021.95 442.74 1024.93 444.26 1023.16 446.79C1021.49 449.18 1018.87 448.04 1016.71 448.57C1014.78 449.05 1013.2 447.79 1011.5 447.18C1008.7 446.18 1008.16 444.7 1010.45 442.48C1012.18 440.81 1015.43 438.21 1013.61 436.64C1011.09 434.47 1009.87 438.71 1008.38 440.27C1005.57 443.21 1002.69 444.7 998.639 443.3C995.139 442.09 992.069 443.81 989.109 445.25C985.379 447.06 981.829 447.54 978.229 445.18C976.599 444.11 974.669 444.45 972.929 443.95C970.369 443.21 968.199 441.82 967.969 439C967.759 436.38 969.669 434.09 971.829 433.77C976.519 433.07 980.269 429.83 985.079 429.44C983.319 428.61 980.879 428.32 981.029 425.8C981.209 422.68 984.069 423.4 986.479 422.77C982.389 421 978.529 420.67 974.569 420.82C972.659 420.89 970.689 420.64 970.119 418.47C969.519 416.17 971.289 415.25 973.089 414.57C974.339 414.09 975.969 413.86 976.499 412.66C978.939 407.11 982.589 407.89 987.029 410.02C989.649 411.28 991.399 410.45 989.929 407.07C988.869 404.62 990.089 400.96 985.439 400.46C983.469 400.25 985.499 396.71 983.749 395.13C984.849 397.77 984.209 400.72 986.069 403.11C986.899 404.18 986.329 405.72 985.199 406.69C983.989 407.73 982.829 407.31 981.539 406.64C974.419 402.98 971.379 403.56 965.609 409.65C964.049 411.29 962.359 412.25 960.409 410.63C958.119 408.73 956.429 409.33 954.289 411.01C951.279 413.36 949.339 412.38 949.239 408.58C949.149 404.85 950.059 401.55 954.549 400.83C955.569 400.67 956.649 400.49 956.429 399.09C956.249 397.95 956.039 396.63 954.679 396.33C953.549 396.08 952.929 397.05 952.359 397.88C951.689 398.85 951.349 399.98 950.779 400.99C950.009 402.35 949.009 403.58 947.299 403.37C945.359 403.14 944.479 401.8 944.519 399.86C950.759 390.85 958.449 383.04 965.579 374.76C984.619 352.64 1004.49 331.27 1024.79 310.32C1037.37 297.34 1050.29 284.63 1063.71 272.54C1073.03 264.14 1081.86 255.06 1092.41 248.07C1094.76 249.01 1093.14 250.4 1092.61 251.38C1091.76 252.93 1091.99 253.76 1093.61 254.43C1095.01 255.01 1096.26 255.89 1096.76 257.43C1097.04 258.3 1096.76 259.34 1095.95 259.56C1091.03 260.89 1091.74 266.32 1088.84 269.21C1087.07 270.97 1088.5 273.63 1089.16 275.85C1089.69 277.64 1090.14 279.64 1088.46 280.95C1086.53 282.46 1085.07 280.69 1083.69 279.6C1082.12 278.37 1080.71 277 1078.59 276.68C1073.74 275.94 1072.31 276.9 1071.96 281.84C1071.71 285.35 1070.75 288.1 1065.95 288.39C1071.14 291.03 1077.65 287.45 1080.78 293.59C1081.57 292.46 1081.44 291.1 1081.83 289.88C1083.09 285.94 1085.46 284.71 1088.96 286.74C1091.38 288.14 1093.08 289.56 1095.66 286.66C1097.37 284.74 1105.61 286.64 1107.25 288.75C1108.37 290.2 1107.46 291.06 1106.43 292.09C1104.08 294.43 1103.05 300.82 1104.41 303.56C1104.71 304.17 1105.07 304.88 1105.74 304.93C1109.6 305.26 1112 308.49 1115.45 309.71C1119.79 311.25 1120.06 313.25 1116.77 316.54C1115.85 317.46 1114.61 318.05 1113.8 319.79C1118.1 316.57 1122.64 315.28 1127.46 314.79C1130.39 314.5 1132.84 315.37 1134.12 318.09C1135.36 320.74 1137.13 322.32 1140.08 322.7C1141.61 322.89 1143.01 323.62 1143 325.53C1142.99 327.17 1141.8 327.84 1140.45 328.17C1138.27 328.7 1137.21 329.76 1138.34 332.29C1139.72 329.37 1141.86 327.72 1145.03 328.13C1147.46 328.44 1148.26 330.14 1148.09 332.37C1148.66 331.23 1148.62 329.76 1149.35 328.56C1150.27 327.03 1151.48 325.88 1153.38 326.24C1155.52 326.64 1156.47 328.26 1156.29 330.27C1156 333.48 1155.83 336.47 1158.53 339C1159.76 340.15 1159.04 341.83 1158.25 343.17C1156.97 345.35 1156.35 347.76 1155.58 350.13C1154.57 353.22 1155.2 356.09 1156.38 358.95L1156.36 358.94Z" fill="#003643"/>
<path d="M944.499 399.851C947.919 403.541 949.099 403.491 950.049 398.861C950.499 396.691 952.679 396.581 953.129 394.741C953.209 394.401 955.469 394.591 956.719 394.541C956.479 397.141 959.409 398.881 958.759 401.461C958.329 403.191 956.749 402.851 955.439 402.331C953.149 401.431 952.019 402.691 951.199 404.551C950.299 406.611 949.869 408.951 951.009 410.791C951.979 412.361 952.819 410.581 953.549 409.791C955.899 407.251 958.129 405.181 960.989 409.451C962.499 411.701 963.639 409.971 964.709 408.531C969.479 402.081 975.899 401.071 982.479 405.711C983.039 406.111 983.489 406.581 984.199 406.231C985.039 405.821 985.689 404.731 985.269 404.231C982.829 401.331 984.549 396.941 981.379 394.241C987.619 392.601 985.439 397.381 985.719 400.021C988.109 399.691 986.919 397.281 989.229 396.011C988.589 399.981 991.339 402.671 991.229 406.241C991.219 406.671 991.229 407.301 991.499 407.521C992.449 408.311 995.219 408.391 993.039 410.351C991.649 411.601 989.989 413.711 987.369 412.151C986.109 411.411 984.409 411.301 983.339 410.391C980.689 408.161 980.009 409.171 979.139 411.991C978.379 414.461 976.249 415.931 973.359 415.901C972.159 415.891 970.849 416.391 970.989 417.871C971.149 419.601 972.569 419.991 973.959 419.481C978.329 417.871 982.379 420.711 986.699 420.291C988.019 420.161 989.619 421.611 988.929 423.431C988.409 424.801 987.289 426.171 985.459 425.091C984.059 424.261 982.459 423.291 982.029 425.591C981.649 427.591 983.649 427.701 985.169 427.791C985.999 427.841 986.839 427.771 987.659 427.871C988.649 427.981 989.799 428.171 989.659 429.501C989.559 430.461 988.489 430.921 987.749 430.701C982.139 429.051 978.689 435.611 972.999 434.471C971.549 434.181 968.889 436.671 969.049 438.911C969.199 441.101 971.249 442.711 973.629 442.701C976.229 442.701 978.499 443.241 980.609 444.781C982.799 446.381 984.949 445.541 987.169 444.491C991.599 442.391 995.729 440.111 1001.24 442.331C1005.53 444.051 1007.34 439.211 1009.25 436.461C1010.62 434.491 1011.67 433.441 1013.96 434.141C1016.14 434.801 1018.33 435.201 1015.7 438.281C1013.86 440.441 1013.33 443.721 1009.49 444.441C1013.02 447.101 1016.46 447.211 1020 447.131C1021.12 447.101 1021.95 446.941 1022.55 446.041C1023.32 444.871 1022.33 444.231 1021.68 443.521C1021.01 442.781 1020.26 442.111 1019.6 441.361C1018.81 440.461 1018.03 439.391 1019.2 438.341C1020.19 437.461 1021.41 437.761 1022.42 438.481C1023.09 438.951 1023.72 439.531 1024.26 440.161C1025.75 441.911 1026.94 443.841 1029.92 442.711C1034.2 441.081 1036.8 438.421 1037.45 433.151C1036.36 433.811 1035.98 434.141 1035.54 434.281C1034.1 434.741 1034.86 438.681 1032.53 436.821C1030.75 435.401 1031.89 432.261 1033.53 431.241C1036.73 429.261 1037.73 426.321 1038.42 423.131C1038.78 421.491 1039.61 420.901 1041.07 420.741C1042.57 420.571 1044.6 418.821 1045.36 421.211C1046.31 424.201 1042.45 421.651 1042.16 424.981C1042.16 425.081 1043.42 424.681 1044.29 424.851C1046.35 425.251 1047.01 426.151 1045.3 427.791C1044.13 428.911 1041.55 430.311 1042.26 431.271C1044.3 434.051 1042.11 438.211 1044.98 440.011C1047.21 441.411 1048.03 445.361 1052.02 444.071C1053.38 443.631 1054.31 445.201 1054.35 446.701C1054.38 447.971 1054.43 448.801 1052.56 449.481C1049.37 450.641 1048.31 454.321 1046.84 457.081C1045.99 458.671 1048.26 458.991 1049.42 458.051C1051.47 456.401 1053.13 454.071 1056.31 455.661C1056.84 455.931 1057.65 455.611 1057.88 454.841C1058.11 454.071 1057.54 453.651 1057.03 453.221C1056.27 452.581 1054.23 452.841 1055.11 451.061C1055.8 449.651 1057.36 448.911 1058.91 449.201C1062.26 449.831 1064.93 450.941 1063.22 445.221C1062.54 442.931 1066.62 441.901 1069.33 441.981C1070.42 442.011 1071.73 443.141 1072.49 441.821C1073.34 440.351 1072.03 439.471 1071.02 438.571C1069.04 436.791 1068.7 433.821 1066.46 432.181C1066.09 431.911 1065.89 430.891 1066.1 430.451C1067.29 427.951 1074.61 426.381 1077.38 428.511C1076.31 423.391 1080.14 419.051 1077.76 414.171C1077 412.611 1078.42 411.791 1079.72 411.271C1081.45 410.581 1082.52 411.321 1083.3 412.911C1084.56 415.481 1084.14 418.401 1084.9 421.321C1088.82 414.861 1088.67 414.231 1083.22 409.981C1081.39 408.561 1079.38 407.181 1082.41 404.541C1084.04 403.131 1082.33 400.721 1080.78 401.221C1078.23 402.041 1075.51 400.241 1073.14 402.261C1071.83 403.381 1069.92 402.911 1068.28 402.771C1066.25 402.591 1064.86 401.371 1064.56 399.331C1064.24 397.211 1065.46 395.701 1067.34 395.141C1069.14 394.611 1071.18 394.421 1071.61 392.301C1072.47 388.061 1076.91 388.231 1079.31 385.851C1080.57 384.601 1086.09 389.451 1086.35 392.101C1086.53 393.911 1086.6 395.781 1086.36 397.581C1085.89 401.171 1088.09 402.891 1090.9 402.601C1094.93 402.191 1099.42 404.301 1103.07 400.111C1103.59 403.051 1098.5 405.851 1103.69 407.581C1102.92 409.411 1103.06 412.241 1099.63 411.081C1098.65 410.751 1097.53 410.911 1097.17 412.101C1096.87 413.091 1098.12 413.351 1098.41 414.001C1099.59 416.611 1103.73 416.371 1104.05 420.271C1100.11 419.421 1096.79 415.631 1092.35 418.631C1090.99 419.551 1089.29 419.551 1089.4 421.731C1089.51 423.741 1088.07 426.101 1090.81 427.471C1093.46 428.801 1095.04 430.721 1094.16 433.871C1093.84 435.021 1093.01 435.261 1091.82 435.051C1088.74 434.521 1087.42 432.361 1086.54 429.701C1086.09 428.331 1087.09 425.761 1084.34 426.181C1082.35 426.481 1081.45 428.241 1081.42 430.291C1081.37 434.361 1079.76 436.021 1075.84 433.741C1073.58 432.431 1072.52 434.331 1071.99 435.561C1070.95 437.991 1073.18 437.671 1074.55 437.791C1076.26 437.931 1077.76 438.101 1076.4 440.391C1076.24 440.661 1076.2 441.011 1076.1 441.321C1081.77 441.941 1078.97 449.971 1084.4 450.821C1084.72 450.871 1085.24 450.921 1085.33 451.111C1087.15 455.251 1088.82 457.211 1091.27 451.351C1091.83 450.011 1094.1 451.031 1095.45 451.481C1097.04 452.011 1096.39 453.441 1095.98 454.431C1095.16 456.391 1094.48 458.441 1091.96 459.121C1089.88 459.681 1088.65 461.231 1088.58 463.561C1089.81 464.841 1091.26 461.721 1092.4 463.751C1090.58 465.371 1088.45 466.891 1090.41 469.761C1090.11 471.234 1088.87 472.061 1086.68 472.241C1089.49 473.021 1091.4 472.857 1092.42 471.751C1100.44 478.951 1107.36 487.191 1114.35 495.331C1120.58 502.601 1126.39 510.231 1132.38 517.711C1131.42 521.401 1125.43 525.251 1121.27 524.431C1118.01 523.791 1116.04 524.271 1115.86 527.911C1116.46 528.651 1116.64 528.031 1116.85 527.701C1117.11 527.281 1117.26 526.781 1117.53 526.371C1119.08 524.001 1120.61 523.831 1121.73 526.631C1122.55 528.671 1123.37 530.051 1126.05 529.541C1128.28 529.121 1129.12 530.781 1128.5 532.691C1127.24 536.641 1127.81 540.601 1128.02 544.571C1128.17 547.331 1128.2 548.491 1124.23 548.811C1119.26 549.211 1114.77 547.991 1110.06 547.581C1108.66 547.461 1107.24 546.121 1106 547.831C1104.83 549.431 1104.55 551.141 1105.48 552.981C1106.31 554.641 1106.83 556.381 1106.64 558.271C1106.48 559.841 1105.96 561.251 1104.43 561.921C1102.77 562.651 1101.35 561.841 1100.55 560.531C1098.31 556.831 1092.88 557.031 1091.18 552.251C1090.6 550.621 1087.68 552.401 1087.55 554.451C1087.26 559.181 1084.43 560.281 1080.45 560.041C1076.62 559.811 1075.97 564.341 1072.61 565.101C1074.24 564.791 1075.82 564.861 1076.55 566.101C1078.85 570.031 1081.88 568.981 1085.06 567.701C1086.78 567.011 1088.51 566.421 1090.33 567.441C1096.16 570.711 1102.34 569.811 1108.33 568.451C1112.07 567.601 1114.5 567.801 1115.61 571.861C1116.71 575.901 1115.32 578.781 1111.48 580.171C1110.54 580.511 1109.48 580.501 1108.6 580.971C1106.24 582.231 1106.06 585.351 1108.34 586.601C1111.39 588.261 1113.38 591.221 1116.64 592.771C1119.12 593.951 1118.44 601.751 1116.01 603.041C1113.82 604.201 1111.83 603.471 1111.37 601.061C1110.58 596.841 1108.89 597.581 1106.61 599.811C1106.37 600.041 1106.09 600.221 1105.8 600.381C1104.6 601.041 1103.32 601.691 1102.2 600.381C1101.34 599.371 1101.64 598.211 1102.31 597.141C1102.76 596.431 1103.59 596.101 1104.07 595.361C1101.52 595.711 1099.06 594.811 1096.55 595.331C1092.64 596.141 1089.71 595.411 1090.41 589.511C1087.04 592.501 1084.99 591.661 1082.45 589.111C1079.18 585.831 1076.35 586.891 1074.82 591.331C1074.21 593.111 1073.71 595.141 1071.45 595.051C1068.93 594.961 1067.77 593.091 1067.45 590.711C1067.34 589.931 1067.55 589.081 1066.81 588.051C1063.53 590.861 1062.73 595.561 1058.57 597.321C1057.05 597.961 1055.7 598.961 1053.96 598.931C1051.89 598.891 1049.65 598.641 1049.12 596.301C1048.53 593.691 1051.09 593.861 1052.62 593.041C1057.51 590.431 1060.48 587.521 1058.24 580.551C1056.69 580.631 1057.07 581.771 1057.16 582.641C1057.24 583.461 1057.57 584.251 1057.73 585.061C1058.24 587.731 1057.19 589.131 1054.45 589.481C1050.84 589.951 1047.18 590.091 1043.64 591.031C1042.4 591.361 1041.14 591.261 1040.47 590.221C1038.89 587.781 1036.94 585.811 1034.27 584.701C1032.04 583.771 1035.1 581.421 1033.34 581.001C1031.81 580.631 1029.85 581.371 1028.51 580.371C1026.54 578.891 1025.43 576.561 1024.51 574.331C1023.92 572.891 1023.13 571.751 1022.04 570.741C1019.49 562.881 1019.03 554.931 1021.49 546.981C1023.07 541.881 1027.52 539.501 1032.77 540.651C1033.74 540.861 1034.72 541.151 1036.04 540.241C1032.9 536.911 1030.61 532.741 1025.15 532.791C1022.5 532.811 1021.32 531.161 1021.08 528.681C1020.84 526.191 1021.01 523.701 1020.92 521.211C1020.86 519.381 1020.66 517.741 1019.12 516.281C1015.35 512.701 1015.54 511.641 1020.74 507.591C1016.33 508.261 1014.12 507.501 1012.98 503.241C1012.27 500.601 1008.99 498.981 1011.24 495.211C1012.03 493.881 1009.09 492.841 1007.59 492.801C1000.27 492.621 998.209 487.111 995.859 481.761C994.539 478.741 995.799 476.931 998.529 475.921C1002.12 474.591 1005.8 473.581 1009.61 473.051C1013.17 472.551 1016.39 471.371 1018.57 468.071C1016.31 469.951 1013.85 471.091 1010.97 471.021C1007.18 470.921 1005.59 469.131 1006.17 465.351C1006.46 463.471 1006.56 461.761 1005.53 460.081C1003.78 457.231 1004.68 454.281 1005.37 451.381C1005.82 449.501 1007.19 448.631 1009.05 448.671C1010.93 448.711 1012.73 449.021 1013.25 451.341C1013.65 453.121 1014.36 454.841 1014.25 456.711C1014.11 459.071 1015.38 460.011 1017.54 460.111C1019.53 460.211 1020.75 459.321 1020.89 457.301C1021.02 455.431 1022.09 452.951 1019.26 452.281C1013.53 450.931 1008.26 447.471 1001.89 448.801C999.749 449.251 997.919 449.221 997.929 452.011C997.939 454.231 998.949 457.411 995.849 457.811C992.899 458.191 992.649 455.101 992.219 452.801C992.089 452.141 991.439 451.751 990.969 451.301C990.529 450.851 990.059 450.441 989.649 449.951C990.049 450.431 990.519 450.841 990.949 451.291C993.919 456.471 993.229 459.031 988.309 460.821C990.789 461.661 991.969 463.361 991.239 465.831C990.499 468.351 988.479 469.631 985.909 469.471C983.419 469.311 981.229 469.221 980.639 472.371C982.199 473.481 983.619 472.551 985.019 472.281C986.609 471.971 987.969 472.311 989.219 473.301C992.759 476.101 993.519 486.881 990.019 489.621C987.189 491.831 985.509 494.241 985.219 497.851C985.069 499.761 984.659 502.061 982.009 502.251C979.329 502.451 976.559 502.371 974.569 500.201C973.029 498.521 973.469 496.551 975.239 495.481C977.519 494.111 978.269 492.271 978.559 489.791C978.979 486.131 983.339 484.731 983.739 480.851C983.199 483.391 981.119 483.921 979.239 484.751C977.129 485.681 975.179 485.741 973.059 484.561C968.859 482.221 964.589 484.301 960.389 484.811C958.569 485.031 958.599 486.961 958.449 488.451C957.939 493.761 957.669 499.071 958.549 504.371C958.789 505.831 959.449 507.711 957.749 508.411C954.309 509.831 953.579 512.541 952.889 515.781C952.319 518.451 951.119 521.541 947.109 520.111C943.539 518.831 942.229 516.001 943.429 512.511C944.179 510.331 944.999 508.141 944.529 505.751C944.849 505.071 945.169 504.401 945.499 503.721C947.019 503.881 947.439 505.321 948.519 506.351C948.379 498.711 948.539 491.301 950.809 484.031C951.489 481.841 951.539 479.171 950.529 476.791C950.529 470.791 950.529 464.791 950.519 458.801C953.499 457.261 957.179 458.231 956.869 460.731C956.429 464.301 958.109 467.571 957.509 470.981C958.939 469.151 959.489 467.211 958.359 464.921C957.929 464.051 957.739 462.771 958.199 462.001C960.619 457.941 957.649 455.321 956.039 452.151C953.959 448.071 951.629 444.141 949.549 440.081C948.289 437.621 947.499 439.781 946.499 439.851C945.849 438.501 945.199 437.161 944.549 435.811C944.919 432.361 943.469 429.521 941.499 426.871C941.169 426.201 940.839 425.521 940.509 424.851C941.809 422.961 943.149 421.231 941.669 418.631C940.819 417.141 941.469 415.421 942.929 414.201C944.179 413.151 945.439 412.051 945.359 409.901C943.589 410.261 943.819 411.771 943.369 412.811C942.739 414.261 941.909 415.601 940.039 414.821C938.309 414.101 937.519 412.641 938.069 410.781C938.669 408.721 940.179 407.021 940.499 404.841C941.869 403.211 942.499 400.981 944.509 399.871L944.499 399.851Z" fill="#003744"/>
<path d="M1022.45 570.639C1027.48 569.809 1027.37 575.729 1027.67 576.949C1028.73 581.299 1031.45 579.039 1033.37 579.579C1034.95 580.019 1036.63 576.189 1037.84 579.259C1038.82 581.759 1035.24 581.119 1034.09 582.989C1036.65 584.869 1041.08 585.059 1041.22 589.539C1041.22 589.769 1042.18 590.279 1042.42 590.149C1046.65 587.929 1051.36 588.839 1055.72 587.959C1058.3 587.439 1056.25 584.489 1055.49 582.959C1053.69 579.339 1056.06 578.559 1058.6 577.839C1059.67 577.539 1061.19 578.699 1060.9 579.099C1058.59 582.209 1062.91 586.279 1059.44 588.999C1056.93 590.969 1056.51 595.779 1051.7 594.679C1050.88 594.489 1049.91 594.929 1050.02 595.979C1050.11 596.859 1050.95 597.229 1051.8 597.489C1054.91 598.419 1061.8 594.959 1062.25 591.659C1062.61 589.019 1064.5 588.149 1065.95 586.679C1066.83 585.789 1067.97 585.379 1069.11 586.159C1070.46 587.079 1069.79 587.979 1069.09 589.079C1067.58 591.449 1069.29 593.279 1071.07 593.819C1073.6 594.589 1073.38 592.099 1073.38 590.569C1073.39 587.879 1074.88 585.259 1076.98 585.319C1079.4 585.389 1082.86 585.709 1084.24 588.239C1085.7 590.929 1086.52 591.859 1088.34 588.769C1088.94 587.759 1089.57 586.529 1090.99 587.179C1092.51 587.869 1092.39 589.219 1091.92 590.609C1090.81 593.909 1091.99 595.289 1095.21 593.849C1098.91 592.189 1103.4 596.339 1106.74 591.199C1107.45 594.919 1105.02 595.949 1103.61 597.499C1102.9 598.279 1102.03 599.019 1103.05 599.939C1103.8 600.619 1104.56 599.829 1105.17 599.289C1105.54 598.959 1105.85 598.539 1106.25 598.259C1107.79 597.159 1108.63 594.419 1110.94 595.219C1113.05 595.949 1112.24 598.359 1112.41 600.109C1112.53 601.389 1112.87 602.429 1114.41 602.419C1115.96 602.399 1116.33 601.319 1116.34 600.059C1116.37 596.769 1118.53 592.309 1112.17 592.469C1111.67 592.479 1110.76 591.819 1110.71 591.389C1110.14 586.599 1106.27 587.909 1103.22 587.439C1103.24 585.459 1106.7 585.269 1105.12 582.099C1103.77 579.399 1107.73 579.369 1109.51 579.009C1114.44 578.009 1115.75 576.249 1114.2 571.629C1113.49 569.509 1112.75 568.659 1109.88 569.439C1103.14 571.289 1096.17 572.929 1089.55 568.479C1087.14 566.859 1085 569.419 1082.89 569.989C1080.75 570.569 1077.88 571.609 1076.87 568.989C1074.97 564.069 1073.41 566.189 1071.62 568.839C1070.2 567.989 1070.17 566.559 1070.97 565.799C1074.1 562.819 1075.53 557.379 1081.68 558.569C1084.35 559.089 1086.57 558.579 1085.73 554.529C1085.14 551.659 1087.46 549.869 1090.29 549.819C1092.51 549.789 1093.16 551.319 1094.33 553.429C1096.17 556.739 1100.2 559.729 1103.88 560.749C1105.82 561.289 1106.1 556.139 1104.59 554.599C1100.67 550.619 1104.73 548.049 1105.55 544.929C1105.74 544.199 1106.45 543.839 1107.11 544.259C1112.57 547.759 1118.5 547.959 1124.65 546.989C1125.29 546.889 1126.04 547.529 1126.81 547.859C1126.58 541.979 1124.83 536.259 1127.79 530.769C1125.5 529.399 1123.83 533.819 1122.01 531.339C1120.82 529.729 1120.52 527.479 1119.79 525.459C1119.36 525.749 1118.94 525.869 1118.86 526.109C1118.11 528.309 1118.36 532.129 1114.99 531.209C1112.38 530.499 1114.65 527.239 1114.52 525.149C1114.33 522.029 1117.04 522.489 1118.88 522.839C1122.74 523.559 1126.46 524.049 1128.36 519.629C1129.25 517.559 1131.72 519.699 1132.36 517.699C1134.42 519.209 1134.1 522.309 1136.38 523.669C1136.59 524.789 1137.28 525.419 1138.36 525.679C1153.87 545.779 1167.64 566.939 1179.02 589.689C1185.54 602.719 1190.58 616.189 1191.97 630.629C1193.19 643.339 1188.89 655.579 1173.19 659.829C1157.16 664.169 1141.68 661.679 1126.25 657.529C1117.01 655.049 1107.67 652.639 1099.37 647.529C1097.12 645.639 1095.91 644.269 1100.16 643.229C1102.12 642.749 1104.13 641.689 1106.11 640.889C1108.16 640.059 1110.19 639.779 1110.93 643.089C1111.49 645.589 1115.51 646.829 1117.68 645.319C1119.67 643.939 1121.37 643.139 1123.47 644.899C1124.85 646.049 1125.94 645.379 1126.83 644.189C1127.81 642.889 1129.1 641.919 1130.29 640.739C1125.64 643.929 1120.13 642.349 1115.13 643.609C1114.17 643.849 1112.82 643.739 1112.32 642.959C1108.94 637.679 1105.12 641.089 1101.61 642.479C1099.14 643.459 1096.67 644.629 1095.04 641.929C1093.61 639.559 1091.94 636.619 1095.01 633.759C1092.69 636.389 1089.83 635.519 1086.86 635.139C1088.17 636.049 1089.36 637.059 1089.66 638.609C1090.02 640.489 1089.19 641.829 1087.39 642.529C1085.97 642.509 1084.97 641.829 1084.36 640.559C1083.32 639.319 1082 638.629 1080.38 638.549C1073.58 636.119 1067.34 632.629 1061.41 628.549C1061.53 627.069 1058.6 627.259 1059.56 625.609C1060.67 623.669 1062.97 625.189 1065.49 624.059C1059.64 621.249 1054.04 620.879 1048.41 620.589C1045.29 619.649 1042.88 617.569 1040.42 615.579C1039.27 612.429 1040.42 610.959 1043.68 611.029C1044.24 611.009 1043.58 610.799 1043.65 610.679C1042.94 609.469 1043.15 608.049 1042.49 606.529C1040.99 609.169 1041.28 612.969 1037.42 613.579C1035.74 612.599 1033.75 612.149 1032.43 610.579C1032.68 609.649 1032.35 609.319 1031.42 609.599C1028.2 608.349 1025.52 606.369 1023.41 603.629C1021.47 601.419 1019.2 599.659 1016.41 598.629C1015.75 598.289 1015.08 597.949 1014.42 597.609C1012.5 594.579 1013.28 593.289 1016.83 594.089C1020.36 594.889 1021.63 593.889 1020.19 590.329C1019.76 589.259 1019.1 587.989 1019.56 586.979C1021.88 581.879 1022.33 576.559 1021.87 571.079C1022.05 570.929 1022.23 570.789 1022.42 570.639H1022.45Z" fill="#003643"/>
<path d="M1156.36 358.94C1152.42 355.56 1152.29 350.15 1156.25 343.38C1157.42 341.38 1159.69 340.05 1155.56 338.46C1153.1 337.51 1154.37 334.28 1154.58 332.09C1154.76 330.16 1156.19 327.85 1153.19 327.28C1150.35 326.74 1150.5 329.63 1149.77 331.32C1149.45 332.06 1149.49 332.94 1149.36 333.76C1149.16 335.1 1149.69 337.35 1147.56 336.98C1145.8 336.68 1146.23 334.5 1146.54 333.11C1146.98 331.16 1147.46 328.95 1144.68 329.32C1143.21 329.52 1139.14 328.65 1140.64 332.83C1141.3 334.68 1140.3 334.9 1139.01 334.9C1137.74 334.9 1135.38 333.92 1136.18 333.38C1138.94 331.51 1131.22 327.19 1137.92 326.97C1138.75 326.94 1139.59 326.96 1140.41 326.88C1141.31 326.8 1142.07 326.37 1142 325.37C1141.93 324.37 1141.08 323.97 1140.21 324.04C1136.1 324.39 1133.64 322.91 1132.87 318.54C1132.54 316.64 1130.51 315.68 1128.49 316.05C1123.49 316.96 1118.27 317.36 1114.42 321.37C1113.48 322.34 1112.37 323.4 1111.08 321.9C1109.92 320.53 1110.69 319.55 1111.93 318.63C1113.39 317.54 1114.68 316.22 1116.13 315.12C1117.06 314.41 1118.33 313.88 1117.82 312.46C1117.38 311.2 1116.11 310.97 1114.9 311C1112.75 311.06 1110.93 310.67 1110.18 308.27C1109.9 307.38 1109.08 307.13 1108.21 307.02C1106.18 306.77 1103.2 307.74 1102.71 304.91C1101.98 300.69 1101.88 296.29 1102.82 292.05C1103.19 290.37 1105.64 291.56 1106.94 289.9C1104.35 288.92 1101.21 286.54 1099.55 287.32C1094.62 289.64 1090.35 291.19 1085.61 287.15C1084.83 286.49 1083.61 287.77 1083.41 289.16C1083.19 290.63 1082.86 292.09 1082.46 293.53C1082.06 294.96 1083.26 297.49 1080.82 297.53C1078.76 297.56 1079.66 295.21 1079.33 293.89C1078.78 291.69 1077.18 291.2 1075.17 291.19C1072.69 291.18 1070.21 291.09 1067.74 290.97C1065.17 290.85 1063.36 289.73 1062.64 286.81C1065.04 285.93 1067.87 288.34 1069.65 285.84C1071.11 283.79 1070.41 281.3 1070.34 279.03C1070.24 275.99 1071.52 275.36 1074.4 274.88C1080.13 273.92 1083.65 277.14 1088.04 280.8C1084.46 270.91 1087.63 263.76 1095.36 257.32C1094.53 255.52 1092.08 254.92 1089.46 254.97C1088.9 251.83 1092.93 250.96 1092.38 248.06C1093.05 247.4 1093.72 246.75 1094.39 246.09C1096.59 246.5 1100.78 243.11 1100.09 249.49C1100.36 246.74 1100.25 244.4 1100.36 242.07C1105.33 236.14 1112.13 232.43 1118.27 228.04C1128.35 220.82 1138.81 214.01 1150.14 208.81C1158.26 205.08 1166.43 201.39 1175.84 202.05C1182.17 202.5 1186.65 204.73 1189.73 210.68C1194.88 220.63 1193.88 231.2 1192.98 241.45C1191.69 256.25 1188.89 270.91 1184.73 285.26C1177.95 308.65 1170.81 331.91 1158.93 353.37C1157.93 355.18 1158.95 357.9 1156.34 358.95L1156.36 358.94Z" fill="#003642"/>
<path d="M990.479 450.791C993.029 450.551 993.47 452.111 993.59 454.201C993.67 455.541 994.39 457.121 995.89 456.861C997.25 456.621 996.809 455.091 996.669 453.901C995.879 447.101 996.59 447.311 1003.75 447.401C1009.61 447.481 1014.53 450.731 1020.24 450.621C1022.78 450.571 1023.9 451.831 1022.76 454.481C1022.45 455.211 1022.57 456.121 1022.44 456.931C1022.18 458.601 1023.27 461.011 1020.75 461.551C1017.98 462.141 1015.09 462.131 1012.65 460.211C1011.74 459.491 1011.46 458.531 1012.25 457.621C1014.59 454.931 1010.79 452.941 1011.36 450.271C1011.5 449.601 1007.89 448.621 1007.28 450.321C1006.31 453.061 1004.34 456.431 1006.69 459.081C1008.64 461.271 1008.79 463.101 1007.62 465.311C1005.82 468.721 1007.96 469.521 1010.56 469.661C1013.09 469.801 1015.49 468.991 1017.43 467.251C1018.62 466.181 1019.9 465.471 1021.48 466.021C1022.03 466.211 1022.64 466.781 1022.83 467.321C1023.08 468.011 1022.29 468.251 1021.83 468.691C1015.98 474.391 1008.06 474.581 1000.87 476.661C999.12 477.171 997.259 477.301 996.159 479.031C998.529 480.491 997.01 483.591 998.81 485.291C998.93 485.401 999.1 485.521 999.24 485.521C1002.82 485.521 999.49 490.681 1003.07 490.661C1005.58 490.641 1008.08 490.831 1010.38 491.881C1013.13 493.131 1016.87 494.041 1011.92 497.651C1009.56 499.371 1011.41 500.481 1013.28 500.631C1015.8 500.841 1016.57 501.341 1015.07 503.911C1013.71 506.251 1015.45 506.841 1017.46 506.491C1018.75 506.271 1019.97 505.491 1021.34 505.911C1022.57 506.291 1023.37 507.101 1023.22 508.471C1023.09 509.631 1022.37 510.271 1021.16 510.011C1019.18 509.581 1017.84 510.181 1017.56 512.281C1017.28 514.421 1019.01 514.501 1020.42 514.951C1022.17 515.511 1022.4 517.011 1022.4 518.581C1022.41 520.911 1022.44 523.241 1022.4 525.561C1022.35 529.151 1021.69 533.011 1027.72 530.961C1029.75 530.271 1030.95 532.931 1032.41 534.211C1033.53 535.191 1034.69 536.201 1035.57 537.391C1036.6 538.791 1040.26 538.941 1038.47 541.561C1037.04 543.651 1034.18 542.87 1031.97 542.22C1030.45 541.77 1028.01 539.821 1027.63 541.091C1026.66 544.261 1023.31 545.251 1022.38 548.311C1020.11 555.791 1022.57 563.191 1022.4 570.621C1016.35 573.731 1017.21 579.37 1017.83 584.47C1018.52 590.1 1016.72 593.701 1011.41 595.571C1008.92 594.501 1006.77 593.02 1005.39 590.6C1005.03 589.52 1004.56 588.51 1004.61 587.29C1004.66 585.98 1005.76 584.171 1003.54 583.591C1001.01 582.941 1001.64 585.781 1000.41 586.611C993.009 583.581 988.049 577.321 981.979 572.551C967.459 561.141 955 547.511 941.88 534.601C939.65 532.401 938.58 529.141 935.52 527.731C939.27 520.701 941.549 513.061 944.479 505.701C946.489 508.231 945.389 510.831 944.349 513.201C943.689 514.721 943.099 515.691 944.919 516.711C946.419 517.561 947.409 520.31 949.289 519.16C950.689 518.31 951.66 516.001 951.94 514.211C952.75 508.891 952.58 508.871 957.74 506.981C955.01 499.921 957.12 492.611 956.74 485.421C956.63 483.311 958.86 482.621 960.37 482.861C965.32 483.661 970.85 478.731 975.27 484.341C977.13 482.431 981.759 484.701 981.799 479.951C981.809 478.391 982.919 477.311 984.469 476.331C986.429 480.291 985.24 483.431 982.44 486.191C980.49 488.121 978.709 489.881 979.969 493.081C980.979 495.651 978.8 495.581 977.14 495.791C975.9 495.951 974.84 496.491 974.71 497.871C974.54 499.641 976.01 500.041 977.24 500.451C981.89 502.011 984.66 499.861 984.2 494.331C983.99 491.771 984.21 490.771 986.77 490.311C987.76 490.131 988.57 488.931 989.46 488.191C992.77 485.441 992.73 483.351 987.84 482.171C989 480.061 991.74 478.341 989.69 475.721C988.41 474.081 987.149 471.911 984.479 474.001C983.059 475.121 981.29 474.721 979.65 474.681C978.57 474.661 977.71 474.271 977.68 472.971C977.63 470.571 982.74 466.581 984.77 467.761C986.83 468.961 987.82 467.731 989.15 466.831C990.27 466.081 990.58 465.021 990.19 463.791C989.54 461.731 987.799 461.821 986.109 461.741C985.179 461.691 984.12 462.101 983.4 461.111C989.08 458.031 991.423 454.581 990.43 450.761L990.479 450.791Z" fill="#003643"/>
<path d="M1087.41 642.531C1089.51 637.761 1088.7 636.52 1083.18 636C1086.35 633.17 1086.5 633.06 1089.73 634.12C1091.64 634.75 1092.78 634.39 1093.73 632.51C1094.41 631.18 1095.72 631.66 1096.71 632.47C1097.48 633.1 1098.37 633.84 1098.19 634.91C1097.88 636.69 1096.68 635.51 1095.9 635.36C1094.66 635.12 1094.5 635.81 1094.47 636.73C1094.3 640.74 1097.55 643.1 1101.06 641.38C1103.1 640.38 1105.47 640.27 1107.24 638.43C1108.73 636.88 1110 638.48 1110.83 639.68C1112.83 642.56 1114.85 644.27 1117.64 640.54C1118.06 639.98 1118.58 639.68 1119.34 639.87C1123.68 640.99 1127.91 640.65 1131.38 638.91C1132.19 638.5 1133.02 637.25 1133.89 638.41C1134.78 639.61 1133.89 640.771 1132.79 641.211C1130 642.331 1128.26 644.44 1126.74 646.85C1125.51 648.79 1124.23 648.93 1123.06 646.82C1121.8 644.55 1120.49 643.62 1118.89 646.51C1117.44 649.13 1115.63 648.93 1113.62 647.23C1112.74 646.49 1111.95 645.67 1110.63 645.67C1109.64 645.67 1108.31 647.11 1107.7 645.24C1107.12 643.48 1109.88 643.89 1109.77 641.75C1105.65 641.5 1102.4 644.62 1098.49 644.93C1097.86 644.98 1100.86 646.03 1099.39 647.54C1094.84 647.2 1091.44 644.131 1087.42 642.521L1087.41 642.531Z" fill="#003744"/>
<path d="M1011.47 595.589C1017.56 589.639 1018.5 584.899 1015.14 576.719C1014.54 575.249 1014 574.079 1016.46 574.449C1017.4 574.589 1018.18 574.189 1018.08 573.129C1017.67 568.939 1020.92 571.299 1022.47 570.629C1022.06 573.949 1022.72 576.879 1025.94 578.999C1017.96 583.509 1021.79 589.829 1023.36 596.309C1020.21 595.429 1017.27 596.989 1015.04 594.609C1013.08 595.529 1015.99 596.809 1014.47 597.599C1013.48 596.929 1012.48 596.259 1011.49 595.589H1011.47Z" fill="#003744"/>
<path d="M940.489 404.83C940.769 405.66 943.329 405.15 941.759 407.11C940.729 408.4 939.749 409.78 939.029 411.25C938.379 412.58 939.449 413.65 940.489 413.99C942.139 414.53 942.399 413.19 942.339 411.94C942.289 410.87 941.229 409.59 942.759 408.86C944.119 408.21 945.679 406.16 947.049 407.91C948.379 409.62 947.519 412.14 946.019 413.35C943.219 415.62 940.759 417.06 944.459 421C945.699 422.32 942.719 424.33 940.509 424.82C936.979 420.65 935.809 415.14 932.539 410.83C934.909 412.13 935.839 410.08 936.869 408.78C937.989 407.37 938.759 405.67 940.489 404.82V404.83Z" fill="#003643"/>
<path d="M1048.42 620.59C1050.96 617.16 1053.92 619.48 1056.72 620C1059.28 620.47 1061.81 621.07 1064.37 621.55C1066.19 621.89 1067.72 622.64 1067.08 624.75C1066.44 626.88 1065.01 627.53 1062.96 626.01C1062.39 625.59 1061.43 625.7 1060.62 625.56C1060.3 626.88 1063.41 626.99 1061.41 628.56C1056.86 626.26 1052.13 624.24 1048.4 620.59H1048.42Z" fill="#003744"/>
<path d="M1037.44 613.58C1039.3 611.44 1040.65 609.15 1040.59 606.12C1040.57 604.94 1040.93 603.14 1042.66 603.33C1043.86 603.46 1044.21 604.97 1044.31 606.11C1044.46 607.92 1044.4 609.75 1044.43 611.58C1041.51 611.32 1041.34 613.82 1040.43 615.58C1039.43 614.91 1038.44 614.25 1037.44 613.58Z" fill="#003744"/>
<path d="M1100.38 242.062C1103.03 245.203 1101.6 248.852 1101.84 252.372C1099.69 251.012 1096.19 250.533 1098.69 246.853C1097.48 245.093 1095.28 249.523 1094.4 246.083C1096.39 244.743 1098.39 243.403 1100.38 242.062Z" fill="#003643"/>
<path d="M1000.46 586.64C1000.37 584.96 998.749 582.88 1000.74 581.73C1002.15 580.91 1004.03 582.31 1005.64 582.65C1007.29 583 1006.4 585.41 1006.18 586.93C1006.01 588.17 1005.69 589.39 1005.44 590.62C1003.48 589.66 1001.48 588.76 1000.46 586.64Z" fill="#003744"/>
<path d="M1092.41 471.759C1090.45 474.829 1096.01 474.039 1094.49 476.949C1092.06 475.629 1089.67 473.259 1086.07 474.309C1085.05 474.609 1083.36 472.809 1083.73 471.089C1084.11 469.309 1085.87 470.139 1087.03 469.789C1088.24 469.419 1089.38 472.949 1090.41 469.769C1091.08 470.429 1091.75 471.099 1092.42 471.759H1092.41Z" fill="#003643"/>
<path d="M1.1791 480.74C1.1791 490.07 1.1791 499.41 1.1791 508.74C-0.820899 504.52 0.309101 500.04 0.339101 495.72C0.379101 490.73 -0.870899 485.62 1.1691 480.73L1.1791 480.74Z" fill="#0B3646"/>
<path d="M1016.44 598.629C1019.48 598.089 1023.16 600.719 1023.44 603.629C1020.59 602.689 1018.11 601.219 1016.44 598.629Z" fill="#003744"/>
<path d="M416.938 133.25C412.718 135.26 408.248 133.77 403.908 134.17C408.128 132.17 412.598 133.65 416.938 133.25Z" fill="#003A43"/>
<path d="M398.92 787.401C402.26 787.711 405.75 786.431 408.95 788.301C405.61 787.981 402.12 789.281 398.92 787.401Z" fill="#00363E"/>
<path d="M1031.44 609.602C1031.28 608.892 1030.61 607.862 1031.91 607.762C1033.32 607.662 1034.35 608.532 1034.57 609.992C1034.58 610.082 1033.19 610.372 1032.45 610.572C1032.11 610.242 1031.78 609.922 1031.44 609.592V609.602Z" fill="#003744"/>
<path d="M1080.4 638.562C1082.87 637.752 1083.94 638.292 1084.38 640.572C1082.82 640.372 1081.43 639.822 1080.4 638.562Z" fill="#003744"/>
<path d="M398.94 134.233C396.44 136.063 393.6 134.883 390.92 135.143C393.43 133.383 396.27 134.533 398.94 134.233Z" fill="#153547"/>
<path d="M1138.36 525.701C1138.18 526.191 1138.29 527.371 1137.4 526.561C1136.7 525.921 1134.65 525.341 1136.38 523.691C1137.04 524.361 1137.7 525.031 1138.36 525.701Z" fill="#003744"/>
<path d="M440.49 310.941C446.48 313.601 451.86 316.631 456.82 320.411C484.91 341.811 503.82 370.331 518.58 401.721C527.56 420.811 533.6 441.031 536.82 461.981C536.99 463.121 536.73 464.581 538.06 464.981C539.35 465.361 540.04 464.001 540.84 463.211C549.33 454.781 558.04 446.591 566.65 438.301C583.77 421.831 601.53 406.121 620.1 391.351C634.51 379.881 649.38 369.001 666.41 361.591C683.23 354.271 700.17 352.421 717.33 360.711C733.61 368.571 741.61 382.291 744.58 399.341C748.1 419.581 744.26 438.741 734.22 456.481C725.26 472.321 712.47 484.841 697.92 495.621C697.25 496.111 696.43 496.471 695.92 497.081C694.08 499.281 689.36 499.281 689.48 501.841C689.63 505.051 693.88 506.361 696.35 508.431C703.17 514.141 709.18 520.411 713.11 528.511C720.91 544.601 716.53 562.831 702.11 573.371C689.76 582.391 675.93 584.831 660.78 583.861C640.42 582.551 621.91 575.821 604.08 566.721C583.89 556.421 565.68 543.141 548.28 528.701C545.22 526.161 542.01 523.801 538.94 521.281C537.24 519.891 536.3 519.441 535.81 522.311C530.89 551.111 520.54 577.941 505.14 602.661C491.99 623.771 475.86 642.421 455.11 656.551C450.35 659.801 444.81 661.941 439.54 664.391C438.36 664.941 436.63 666.351 435.51 664.711C434.74 663.581 436.09 662.291 436.79 661.171C443.18 650.861 448.8 640.151 453.72 629.051C464.32 605.151 472.67 580.541 477.26 554.781C480.16 538.491 482.44 522.131 483.07 505.521C483.38 497.241 483.94 488.951 483.84 480.661C483.62 462.591 481.85 444.671 479.2 426.781C476.23 406.691 471.46 387.101 464.97 367.911C458.75 349.501 451.05 331.711 441.41 314.801C440.86 313.831 440.14 312.891 440.49 310.941Z" fill="#003441"/>
<path d="M112.129 358.911C115.079 348.811 120.529 344.611 129.729 344.871C135.599 345.041 138.659 349.341 141.539 353.111C151.509 366.171 165.299 373.621 179.929 379.541C193.649 385.091 208.179 387.651 223.049 387.941C229.729 388.651 236.409 388.671 243.089 387.941C245.069 387.911 247.049 387.871 249.029 387.841C250.569 386.771 252.529 388.021 254.069 386.951C269.139 385.361 283.599 381.441 297.359 375.161C309.109 369.791 320.439 363.651 330.469 355.341C332.329 353.801 334.329 352.141 336.969 351.901C339.639 351.181 342.309 351.111 344.969 351.941C357.489 356.711 362.559 373.691 348.139 384.601C322.929 403.681 294.719 415.031 263.679 419.821C254.119 421.291 254.119 421.101 254.059 431.061C253.969 446.591 251.079 461.531 242.479 474.661C233.539 488.301 221.019 496.201 204.119 496.901C189.999 497.491 177.929 493.221 167.769 483.721C158.829 475.361 154.269 464.511 152.209 452.651C149.599 437.621 150.779 422.921 157.129 408.851C158.609 406.451 157.029 405.561 155.149 404.821C143.769 397.981 132.289 391.301 123.049 381.491C118.849 377.031 114.409 372.791 112.169 366.901C111.339 364.241 111.399 361.581 112.129 358.921V358.911Z" fill="#07202F"/>
<path d="M185.09 569.612C167.069 572.172 151.29 579.802 136.71 590.452C127.5 597.182 119.89 605.462 112.43 613.922C105.51 621.772 96.0695 620.372 89.6295 615.372C82.3295 609.702 81.1695 600.602 87.1395 592.852C102.58 572.772 121.56 556.962 144.99 546.852C158.45 541.042 172.28 536.552 187.06 535.662C190.99 534.382 195.13 535.972 199.07 534.762C200.08 534.762 201.1 534.762 202.11 534.762C205.03 535.972 208.22 534.402 211.13 535.662C228.29 537.012 244.229 542.422 259.359 550.392C272.989 557.572 285.37 566.552 295.69 577.982C312.64 596.732 325.63 618.122 335.99 641.112C339.73 649.412 343.76 657.602 345.54 666.652C347.09 674.512 342.04 683.372 334.25 686.162C326.33 689.002 318 685.502 314.42 677.262C310.73 668.752 308.48 659.682 304.5 651.242C297.03 635.402 287.9 620.652 276.97 606.972C264.99 591.972 250 581.032 232.28 573.852C225.52 571.112 218.38 569.502 211.1 568.732C209.92 569.772 208.5 569.622 207.1 569.542C202.48 568.862 197.849 568.862 193.229 569.522C190.509 569.622 187.8 569.792 185.08 569.612H185.09Z" fill="#072030"/>
<path d="M946.498 439.843C946.398 437.543 947.638 436.223 949.988 435.223C950.908 442.553 956.868 447.373 958.558 454.173C959.208 456.773 963.508 453.433 963.018 457.113C962.758 459.093 959.098 458.593 959.508 461.363C959.578 461.853 959.288 462.523 959.528 462.833C963.408 467.783 958.278 471.573 957.428 476.063C956.558 471.863 954.408 467.193 955.198 463.553C956.428 457.873 953.168 459.213 950.508 458.783C949.168 452.473 947.828 446.153 946.488 439.843H946.498Z" fill="#003643"/>
<path d="M950.53 476.77C951.55 480.11 953.28 483.34 950.86 486.92C950.26 487.81 949.24 489.65 951.15 490.83C951.49 491.04 951.93 491.82 951.88 491.87C947 496.45 951.4 501.96 950.39 506.92C950.1 508.34 949.69 509.42 948.19 509.94C947.29 507.84 946.4 505.77 945.51 503.71C947.05 494.71 950.34 486.03 950.54 476.78L950.53 476.77Z" fill="#003643"/>
<path d="M185.09 569.609C187.62 568.189 190.41 568.779 193.1 568.569C197.76 567.859 202.42 567.879 207.08 568.559C208.42 568.609 209.77 568.669 211.11 568.719C211.25 569.349 212.67 570.499 211.59 570.459C202.76 570.129 193.85 571.919 185.09 569.599V569.609Z" fill="#025155"/>
<path d="M941.488 426.852C946.018 430.332 946.228 430.942 944.538 435.792C943.058 432.972 941.668 430.112 941.488 426.852Z" fill="#003643"/>
<path d="M243.079 387.93C236.399 389.49 229.719 389.47 223.039 387.93C229.719 387.93 236.399 387.93 243.079 387.93Z" fill="#013B43"/>
<path d="M199.069 534.761C195.189 536.651 191.059 535.261 187.059 535.661C190.939 533.751 195.069 535.081 199.069 534.761Z" fill="#09293B"/>
<path d="M211.129 535.65C208.119 535.34 204.969 536.54 202.109 534.75C205.119 535.03 208.279 533.81 211.129 535.65Z" fill="#09293B"/>
<path d="M112.128 358.91C112.138 361.57 112.158 364.23 112.168 366.89C110.618 364.24 110.668 361.58 112.128 358.91Z" fill="#0A3746"/>
<path d="M344.969 351.942C342.299 351.932 339.639 351.912 336.969 351.902C339.649 350.442 342.309 350.392 344.969 351.942Z" fill="#023441"/>
<path d="M155.148 404.82C158.158 405.01 159.038 406.24 157.128 408.85C157.488 407.01 156.178 405.98 155.148 404.82Z" fill="#073644"/>
<path d="M254.069 386.939C252.589 388.369 250.739 387.729 249.029 387.829C250.499 386.359 252.349 387.019 254.069 386.939Z" fill="#093543"/>
<path d="M1058.65 484.091C1059.33 489.871 1060.59 494.951 1068.61 493.821C1066.7 496.451 1063.07 494.961 1063.28 498.281C1063.28 498.411 1062.28 498.821 1062.2 498.731C1059.02 494.941 1056.27 498.181 1053.42 499.251C1051.41 500.001 1049.95 499.711 1048.87 497.651C1047.01 494.111 1043.77 492.261 1040.25 490.641C1037.47 489.361 1035.51 487.451 1038.19 484.171C1039.8 482.201 1040.78 479.981 1040.51 477.291C1040.37 475.971 1040.64 474.321 1042.36 474.301C1044.45 474.281 1044.43 476.141 1044.42 477.621C1044.4 480.771 1044.12 483.811 1049.01 483.061C1050.47 482.831 1050.72 484.501 1049.58 485.511C1047.44 487.411 1047.01 488.571 1050.57 488.201C1052.66 487.991 1053.36 488.791 1052.92 490.761C1052.71 491.691 1052.1 492.841 1053.51 493.211C1054.63 493.501 1055.18 492.371 1055.86 491.671C1057.82 489.671 1056.88 486.661 1058.66 484.101L1058.65 484.091Z" fill="#003643"/>
<path d="M1029.72 496.22C1028.96 494.55 1027.48 494.91 1026.63 494.17C1025.8 493.44 1025.42 492.58 1026.32 491.64C1027.65 490.25 1034.46 491.21 1035.34 492.98C1035.78 493.87 1036.01 494.83 1036.96 495.35C1038.01 495.94 1040.05 496.21 1038.84 497.94C1037.94 499.23 1036.15 499.07 1034.9 497.92C1034.16 497.24 1034.03 495.38 1032.45 496.56C1031.13 497.55 1031.5 498.85 1032.33 500.06C1032.77 500.71 1033.54 501.52 1032.63 502.18C1031.51 502.99 1030.91 502.08 1030.4 501.15C1030.18 500.76 1029.8 500.31 1029.4 500.2C1028.12 499.85 1025.75 501.87 1025.77 498.79C1025.78 496.59 1028.23 497.06 1029.72 496.2V496.22Z" fill="#003643"/>
<path d="M1031.42 470.909C1030.76 471.749 1030.33 472.219 1029.98 472.749C1029.35 473.699 1028.75 475.139 1027.39 474.329C1025.78 473.379 1026.89 471.969 1027.45 470.849C1029.83 466.089 1035.4 465.819 1038.35 470.239C1039.47 471.929 1038.38 473.149 1037.44 474.189C1036.08 475.679 1036.17 478.639 1033.29 478.589C1031.7 478.559 1031.44 477.449 1031.83 476.129C1032.3 474.559 1032.95 473.009 1031.42 470.899V470.909Z" fill="#003643"/>
<path d="M1054.31 537.349C1053.74 539.109 1052.67 540.699 1050.9 540.429C1047.99 539.969 1046.52 537.659 1046.16 534.869C1045.87 532.629 1047.7 532.509 1049.14 532.869C1051.55 533.459 1053.82 534.469 1054.31 537.359V537.349Z" fill="#003643"/>
<path d="M1021.23 486.151C1019.89 488.011 1021.27 491.851 1018.08 492.041C1016.26 492.151 1015.04 489.231 1015.89 487.331C1016.72 485.501 1015.08 481.931 1018.72 481.981C1020.91 482.011 1021.3 484.131 1021.22 486.141L1021.23 486.151Z" fill="#003643"/>
<path d="M975.87 446.133C978.37 447.083 980.76 448.473 981.73 450.893C982.19 452.023 980 452.693 978.75 452.673C976.56 452.623 974.32 452.063 973.76 449.563C973.43 448.103 974.12 446.683 975.87 446.133Z" fill="#003643"/>
<path d="M1035.38 462.302C1037.4 460.512 1032.33 457.202 1036.64 456.022C1037.8 455.702 1038.44 456.692 1038.78 457.622C1039.8 460.452 1037.3 461.112 1035.38 462.312V462.302Z" fill="#003643"/>
<path d="M1053.73 511.121C1051.64 510.221 1049.06 509.911 1048.69 507.181C1048.57 506.301 1049.49 505.721 1050.38 505.861C1053.26 506.311 1053.33 508.801 1053.73 511.121Z" fill="#003643"/>
<path d="M1052.31 516.359C1053.54 516.739 1054.94 517.119 1055.04 518.679C1055.11 519.809 1054.65 521.209 1053.32 521.199C1051.68 521.179 1050.77 519.839 1050.61 518.269C1050.5 517.249 1050.98 516.349 1052.31 516.359Z" fill="#003643"/>
<path d="M1049.97 526.882C1049.36 528.862 1047.43 529.112 1045.89 529.832C1045.2 530.152 1044.62 529.842 1044.55 529.012C1044.37 526.842 1045.98 526.312 1047.57 525.892C1048.47 525.652 1049.54 525.532 1049.98 526.882H1049.97Z" fill="#003643"/>
<path d="M1029.9 506.59C1029.63 508.01 1028.44 508.28 1027.38 508.48C1026.13 508.72 1025.06 508.21 1024.9 506.82C1024.77 505.66 1025.63 505.03 1026.68 504.93C1028.04 504.8 1029.19 505.31 1029.91 506.58L1029.9 506.59Z" fill="#003643"/>
<path d="M1071.72 450.762C1070.71 450.652 1069.59 450.542 1069.96 449.082C1070.25 447.942 1070.8 446.832 1072.31 447.052C1073.4 447.212 1074.13 447.932 1074.16 449.042C1074.2 450.722 1072.92 450.702 1071.73 450.762H1071.72Z" fill="#003643"/>
<path d="M1069.62 477.073C1069.8 475.053 1066.57 473.793 1068.46 471.573C1068.91 471.043 1069.66 471.593 1070.14 472.043C1072.16 473.923 1070.37 475.403 1069.62 477.073Z" fill="#003643"/>
<path d="M959.099 421.612C958.849 422.632 958.089 422.812 957.249 422.742C956.039 422.642 954.909 422.212 955.019 420.782C955.089 419.942 955.999 419.462 956.829 419.502C958.119 419.562 958.749 420.492 959.099 421.622V421.612Z" fill="#003643"/>
<path d="M1014.95 476.973C1016.21 477.193 1016.46 478.093 1016.32 479.143C1016.2 480.043 1015.64 480.633 1014.67 480.513C1013.6 480.373 1012.79 479.793 1012.9 478.623C1013.01 477.483 1013.88 477.033 1014.96 476.983L1014.95 476.973Z" fill="#003643"/>
<path d="M1043.77 444.733C1043.44 445.813 1043.1 447.033 1041.82 447.263C1040.77 447.453 1040.5 446.553 1040.53 445.683C1040.56 444.453 1040.96 443.353 1042.35 443.203C1043.26 443.103 1043.84 443.683 1043.78 444.733H1043.77Z" fill="#003643"/>
<path d="M1043.82 516.662C1042.69 516.622 1041.79 516.432 1041.91 515.372C1042.03 514.352 1042.81 513.472 1043.82 513.392C1044.86 513.312 1045.75 514.112 1045.72 515.202C1045.69 516.452 1044.52 516.512 1043.82 516.662Z" fill="#003643"/>
<path d="M1065.01 467.099C1065.47 464.509 1064.94 462.729 1066.55 461.609C1066.78 461.449 1067.68 461.729 1067.77 461.979C1068.48 464.059 1067.28 465.289 1065.01 467.099Z" fill="#003643"/>
<path d="M978.408 466.309C977.418 466.209 976.918 465.629 976.738 464.799C976.488 463.659 977.088 462.939 978.118 462.659C979.268 462.339 979.458 463.179 979.438 464.019C979.418 464.919 979.648 466.009 978.408 466.309Z" fill="#003643"/>
<path d="M1022.23 480.33C1020.83 480.31 1020.54 479.63 1020.56 478.72C1020.58 477.81 1020.9 477.02 1021.97 477.24C1022.9 477.43 1024.11 477.79 1023.82 479.02C1023.68 479.62 1022.65 480 1022.23 480.33Z" fill="#003643"/>
<path d="M1076.06 454.61C1076.08 455.6 1075.52 456.19 1074.68 456.37C1073.77 456.56 1073.03 456 1072.86 455.15C1072.64 454.04 1073.24 453.25 1074.41 453.18C1075.36 453.12 1075.82 453.79 1076.06 454.61Z" fill="#003643"/>
<path d="M1094.29 412.923C1094.19 413.993 1093.75 414.633 1092.81 414.573C1091.85 414.503 1091.49 413.803 1091.65 412.903C1091.8 412.063 1092.3 411.373 1093.18 411.383C1094.23 411.393 1094.28 412.293 1094.29 412.933V412.923Z" fill="#003643"/>
<path d="M1041.71 526.009C1041.71 526.989 1041.08 527.369 1040.24 527.489C1039.54 527.589 1038.97 527.299 1038.76 526.619C1038.46 525.679 1038.95 525.029 1039.84 524.899C1040.65 524.779 1041.4 525.099 1041.71 525.999V526.009Z" fill="#003643"/>
<path d="M1038.23 532.161C1038.1 533.081 1037.58 533.591 1036.64 533.481C1035.8 533.381 1035.01 532.961 1035.24 532.011C1035.35 531.561 1036.06 531.071 1036.59 530.931C1037.49 530.691 1038.06 531.241 1038.24 532.161H1038.23Z" fill="#003643"/>
<path d="M1006.22 481.242C1006.69 481.602 1007.68 481.962 1007.82 482.532C1008.07 483.572 1007.04 483.702 1006.24 483.682C1005.43 483.662 1004.43 483.522 1004.32 482.612C1004.2 481.642 1005.19 481.482 1006.22 481.242Z" fill="#003643"/>
<path d="M1042 453.481C1041.76 453.161 1041.12 452.671 1041.15 452.231C1041.22 451.361 1042.01 450.951 1042.87 450.961C1043.57 450.971 1044.16 451.381 1044.02 452.121C1043.86 452.941 1043.23 453.461 1042 453.481Z" fill="#003643"/>
<path d="M1080.84 392.233C1080.45 393.383 1079.76 393.733 1078.92 393.703C1078.21 393.683 1077.71 393.203 1077.87 392.483C1078.06 391.633 1078.75 391.083 1079.6 391.243C1080.09 391.333 1080.48 391.933 1080.84 392.233Z" fill="#003643"/>
<path d="M1038.03 523.523C1037.21 524.223 1036.7 524.863 1036.03 525.173C1035.37 525.483 1034.72 525.113 1034.91 524.273C1035.1 523.433 1035.81 522.943 1036.65 522.873C1036.99 522.843 1037.36 523.193 1038.03 523.523Z" fill="#003643"/>
<path d="M1056.12 502.722C1056.06 503.402 1055.76 504.032 1055.05 504.052C1054.11 504.072 1053.57 503.382 1053.8 502.522C1053.92 502.062 1054.58 501.492 1055.04 501.432C1055.73 501.352 1056.03 502.052 1056.12 502.722Z" fill="#003643"/>
<path d="M952.299 467.98V473.5C952.129 473.5 951.969 473.5 951.799 473.5V467.98C951.969 467.98 952.129 467.98 952.299 467.98Z" fill="#003643"/>
<path d="M990.499 450.822C989.289 450.622 987.769 451.162 987.299 449.292C989.049 448.432 990.099 448.902 990.499 450.822Z" fill="#003643"/>
<path d="M1041.23 467.311C1040.9 467.731 1040.7 468.271 1040.39 468.331C1039.68 468.471 1039.1 468.011 1039.1 467.301C1039.1 466.991 1039.68 466.441 1039.99 466.441C1040.36 466.441 1040.72 466.931 1041.22 467.321L1041.23 467.311Z" fill="#003643"/>
<path d="M972.069 457.123C971.669 457.613 971.459 458.113 971.099 458.273C970.369 458.603 969.769 458.293 969.899 457.433C969.959 457.053 970.439 456.563 970.829 456.463C971.119 456.383 971.559 456.823 972.079 457.113L972.069 457.123Z" fill="#003643"/>
<path d="M1052.06 479.37C1051.66 478.95 1051.14 478.66 1051.11 478.32C1051.04 477.58 1051.61 477.12 1052.31 477.2C1052.59 477.23 1053.04 477.86 1053 478.15C1052.94 478.54 1052.47 478.88 1052.07 479.37H1052.06Z" fill="#003643"/>
<path d="M977.79 428.223C978.01 428.383 978.55 428.563 978.72 428.923C979.08 429.673 978.64 430.233 977.87 430.183C977.52 430.163 977.08 429.633 976.92 429.233C976.74 428.773 976.98 428.313 977.8 428.223H977.79Z" fill="#003643"/>
<path d="M950.788 429.18C951.038 429.39 951.548 429.61 951.648 429.95C951.818 430.53 951.288 430.71 950.818 430.64C950.538 430.6 950.168 430.41 950.068 430.18C949.828 429.68 950.098 429.33 950.798 429.18H950.788Z" fill="#003643"/>
<path d="M1078.91 471.343C1078.79 470.633 1078.56 470.163 1078.7 469.853C1078.82 469.593 1079.36 469.533 1079.72 469.383C1079.81 469.653 1080.06 469.993 1079.97 470.173C1079.79 470.533 1079.42 470.803 1078.91 471.343Z" fill="#003643"/>
<path d="M1094.3 621.783C1095.08 624.923 1094.09 625.633 1090.93 627.363C1087.94 629.003 1086.01 629.033 1083.28 628.623C1082.09 628.453 1080.84 628.723 1080.54 630.163C1080.17 631.963 1079.26 632.793 1077.4 632.353C1076.7 632.183 1075.94 631.423 1076.31 631.043C1077.57 629.763 1076.83 627.213 1079.13 626.703C1079.77 626.563 1080.46 626.673 1081.11 626.553C1082.45 626.313 1085.26 626.913 1084.71 625.353C1083.92 623.123 1086.86 619.633 1082.69 618.623C1081.46 618.323 1080.27 618.043 1080.72 616.453C1081.16 614.903 1082.39 614.603 1083.89 614.883C1085.51 615.183 1087.15 615.563 1088.77 615.543C1093.12 615.493 1096.33 616.273 1094.29 621.783H1094.3Z" fill="#003744"/>
<path d="M1032.52 597.369C1033.27 595.549 1031.75 595.449 1031.26 594.729C1029.66 592.379 1030.87 590.749 1032.48 589.069C1034.37 587.089 1035.73 588.229 1037.01 589.719C1038.73 591.719 1040.7 592.979 1043.5 592.659C1044.62 592.529 1046.05 592.459 1046.56 593.759C1047.18 595.339 1046.05 596.219 1044.71 596.729C1043.2 597.299 1043.75 599.109 1042.32 600.339C1041.26 595.999 1038.64 596.579 1035.77 598.089C1035.48 598.239 1035.22 598.479 1034.93 598.619C1028.06 601.889 1024.62 599.679 1024.89 592.229C1024.93 591.169 1025.46 590.759 1026.42 590.749C1027.61 590.739 1028.46 591.339 1028.24 592.539C1027.55 596.259 1030.8 595.909 1032.52 597.399V597.369Z" fill="#003744"/>
<path d="M1065.57 607.94C1069.06 608.19 1070.07 605.89 1071.33 603.43C1072.03 602.06 1072.25 599.03 1074.6 599.9C1076.47 600.6 1078.46 602.56 1079.16 604.42C1080.2 607.17 1078.97 610.2 1076.69 611.96C1074.33 613.78 1073.48 611.05 1072.25 609.63C1070.46 607.57 1067.81 609.2 1065.58 607.93L1065.57 607.94Z" fill="#003744"/>
<path d="M1128.03 554.372C1123.31 553.452 1119.09 553.512 1116.19 557.942C1115.45 559.062 1113.7 558.872 1112.56 557.992C1111.34 557.062 1110.47 555.662 1110.7 554.132C1110.97 552.322 1112.66 552.712 1113.92 552.682C1115.91 552.642 1117.7 552.502 1119.49 551.182C1123 548.592 1125.46 549.542 1128.03 554.372Z" fill="#003744"/>
<path d="M1114.96 560.203C1116.44 559.693 1118.01 559.413 1118.58 562.143C1118.99 564.083 1121.13 563.993 1122.62 564.483C1123.99 564.933 1125.79 564.703 1125.98 566.713C1126.07 567.703 1125.44 569.143 1124.61 569.063C1122.9 568.893 1120.56 570.143 1119.58 568.523C1117.66 565.353 1115.25 563.223 1111.64 562.423C1110.93 562.263 1110.45 561.633 1110.72 560.933C1111.61 558.663 1113.27 560.573 1114.97 560.203H1114.96Z" fill="#003744"/>
<path d="M1056.66 603.653C1057.4 607.523 1056.63 610.183 1052.75 610.143C1050.26 610.123 1047.26 609.952 1046.61 606.472C1046.4 605.352 1046.13 604.062 1047.14 603.222C1048.26 602.282 1050.09 602.152 1050.75 603.172C1052.52 605.942 1054.65 604.543 1056.66 603.653Z" fill="#003744"/>
<path d="M1105.49 616.59C1102.32 614.27 1099.9 613.24 1101.58 610.47C1102.92 608.26 1101.85 605.91 1102.75 603.41C1105.93 604.53 1107.37 607.89 1110.27 609.25C1110.83 609.51 1111.22 610.53 1110.6 610.9C1109.83 611.37 1108.77 611.54 1107.84 611.53C1105.23 611.5 1102.62 611.31 1105.49 616.58V616.59Z" fill="#003744"/>
<path d="M1146.21 545.912C1143.65 544.842 1142.53 542.642 1139.85 542.082C1138.2 541.732 1137.21 539.622 1137.99 537.572C1138.45 536.342 1139.03 534.912 1140.61 534.942C1142.81 534.982 1142.87 537.002 1143.43 538.482C1144.37 540.952 1145.28 543.432 1146.21 545.912Z" fill="#003744"/>
<path d="M1119.04 606.471C1118.42 608.611 1116.88 608.611 1115.38 608.531C1113.96 608.451 1112.52 607.951 1112.87 606.241C1113.19 604.701 1114.74 604.611 1116.12 604.631C1117.57 604.651 1118.64 605.171 1119.03 606.481L1119.04 606.471Z" fill="#003744"/>
<path d="M1073.23 617.663C1073.16 618.823 1072.48 619.733 1071.74 619.233C1069.91 618.003 1067.81 616.813 1067 614.663C1066.66 613.753 1068.06 613.543 1068.82 613.693C1071.12 614.153 1072.43 615.753 1073.24 617.663H1073.23Z" fill="#003744"/>
<path d="M1028.98 584.582C1029.86 585.002 1031.91 583.892 1031.53 585.742C1031.06 587.982 1028.34 587.422 1026.68 588.202C1025.66 588.682 1024.05 587.412 1024.4 586.382C1025.08 584.352 1027.24 584.722 1028.99 584.582H1028.98Z" fill="#003744"/>
<path d="M1100.39 625.473C1100.27 626.783 1100.51 628.403 1098.54 628.253C1096.95 628.133 1096.51 626.833 1096.46 625.423C1096.41 624.023 1096.61 622.713 1098.44 622.743C1100.28 622.783 1100.31 624.183 1100.39 625.473Z" fill="#003744"/>
<path d="M1038.17 608.101C1032.84 608.981 1033.58 603.791 1030.78 602.191C1033.57 600.991 1034.33 602.401 1034.59 604.471C1034.84 606.441 1037.28 606.101 1038.16 608.111L1038.17 608.101Z" fill="#003744"/>
<path d="M1101.49 564.639C1099.18 565.889 1097.67 565.879 1095.33 564.629C1097.67 563.429 1099.18 563.429 1101.49 564.639Z" fill="#003744"/>
<path d="M1071.76 627.969C1071.7 628.889 1071.14 629.569 1070.32 629.699C1069.17 629.889 1068.58 628.809 1068.17 628.039C1067.56 626.909 1068.59 626.699 1069.42 626.639C1070.45 626.569 1071.36 626.839 1071.76 627.969Z" fill="#003744"/>
<path d="M1116.78 587.129C1115.23 587.729 1113.96 588.009 1112.99 586.839C1112.51 586.259 1113.03 585.539 1113.59 585.249C1115.16 584.469 1115.9 585.539 1116.77 587.119L1116.78 587.129Z" fill="#003744"/>
<path d="M1084.96 605.012C1086.34 605.302 1086.33 606.172 1086.27 606.982C1086.22 607.722 1085.75 608.242 1084.99 608.082C1084.06 607.882 1083.59 607.112 1083.85 606.242C1084 605.722 1084.64 605.352 1084.96 605.012Z" fill="#003744"/>
<path d="M1088.6 562.543C1088.27 563.323 1087.77 563.983 1086.9 563.983C1086.21 563.983 1085.77 563.393 1085.82 562.693C1085.87 561.873 1086.59 561.733 1087.23 561.723C1087.81 561.703 1088.58 561.553 1088.61 562.543H1088.6Z" fill="#003744"/>
<path d="M1113.99 624.699C1113.7 624.889 1113.35 625.309 1112.96 625.349C1112.22 625.429 1111.66 624.989 1111.84 624.209C1111.93 623.829 1112.44 623.309 1112.8 623.279C1113.54 623.209 1113.92 623.769 1113.99 624.699Z" fill="#003744"/>
<path d="M1061.46 601.102C1061.04 601.492 1060.73 601.772 1060.43 602.052C1060.16 601.732 1059.68 601.412 1059.68 601.102C1059.68 600.782 1060.16 600.472 1060.44 600.152C1060.74 600.432 1061.05 600.712 1061.47 601.112L1061.46 601.102Z" fill="#003744"/>
<path d="M1108.4 601.82C1108.88 601.55 1109.23 601.36 1109.59 601.16C1109.78 601.54 1110.16 601.96 1110.1 602.3C1110.05 602.6 1109.51 602.81 1109.19 603.06C1108.96 602.7 1108.74 602.34 1108.41 601.82H1108.4Z" fill="#003744"/>
<path d="M1045.63 612.811C1045.31 613.061 1044.89 613.631 1044.35 613.781C1043.75 613.941 1043.63 613.271 1043.87 612.901C1044.17 612.461 1043.93 611.491 1044.91 611.641C1045.4 611.711 1045.8 611.931 1045.63 612.811Z" fill="#003744"/>
<path d="M1095.48 602.711C1095.7 603.391 1096.01 603.841 1095.9 604.081C1095.75 604.401 1095.25 604.551 1094.91 604.771C1094.8 604.501 1094.53 604.181 1094.6 603.981C1094.72 603.621 1095.04 603.321 1095.49 602.711H1095.48Z" fill="#003744"/>
<path d="M1095.05 280.771C1097.3 279.951 1099.52 280.071 1101.67 280.651C1102.29 278.621 1100.33 277.781 1100.43 276.231C1100.53 274.711 1100.32 272.981 1102.66 273.321C1104.07 273.531 1105.82 274.661 1106.21 272.311C1106.55 270.261 1107.02 267.951 1104.88 266.351C1104.12 265.791 1102.82 265.441 1103.24 264.231C1103.71 262.901 1105.11 263.071 1106.26 263.051C1108.59 263.021 1110.92 263.081 1113.24 263.021C1115.5 262.961 1117.75 263.461 1118.26 259.831C1118.57 257.611 1121.47 257.921 1123.41 258.131C1125.59 258.371 1127.75 259.031 1128.24 261.651C1128.45 262.781 1128.3 263.971 1128.42 265.131C1128.54 266.331 1128.88 267.571 1130.39 267.541C1131.87 267.511 1132.04 266.251 1132.34 265.081C1132.65 263.861 1131.57 261.381 1133.88 261.781C1136.07 262.161 1134.71 264.241 1134.31 265.511C1133.8 267.151 1133.71 268.671 1134.17 270.351C1134.5 271.541 1134.8 273.231 1133.05 273.701C1131.45 274.131 1130.76 272.751 1130.13 271.551C1129.12 269.641 1128.25 267.101 1125.79 267.221C1120.81 267.461 1116 265.041 1111.01 266.451C1110.71 266.531 1110.23 266.851 1110.25 267.021C1110.69 272.281 1104.28 276.211 1106.97 281.651C1108.94 285.631 1106.47 285.141 1104.34 284.951C1100.81 284.631 1097.23 282.851 1094.16 286.351C1093.41 287.201 1091.82 286.411 1091.87 285.441C1092.03 282.361 1092.5 279.281 1093.06 276.251C1093.22 275.411 1094.35 275.121 1095.14 275.641C1097.48 277.201 1094.33 278.771 1095.03 280.761L1095.05 280.771Z" fill="#003643"/>
<path d="M1095.52 263.319C1095.65 261.709 1096.35 261.159 1097.53 261.219C1098.75 261.279 1099.29 262.029 1099.23 263.189C1099.18 264.409 1098.43 264.919 1097.26 264.899C1095.98 264.869 1095.65 263.999 1095.52 263.329V263.319Z" fill="#003643"/>
<path d="M1080.35 286.592C1079.46 283.822 1077.8 282.472 1079.21 280.572C1079.38 280.342 1080.3 280.292 1080.51 280.512C1081.94 282.022 1081.53 283.662 1080.36 286.592H1080.35Z" fill="#003643"/>
<path d="M1100.95 270.711C1100.74 270.451 1100.07 270.011 1100.07 269.571C1100.07 268.661 1100.82 268.221 1101.71 268.391C1102.36 268.511 1102.84 269.011 1102.7 269.731C1102.57 270.421 1102.02 270.741 1100.95 270.711Z" fill="#003643"/>
<path d="M1013.24 550.621C1012.56 545.661 1001.76 545.431 1009.13 538.511C1006.02 536.701 1003.13 538.371 1000.15 538.471C1002.46 534.931 1002.48 535.561 1012.73 535.281C1019.06 535.101 1017.98 541.501 1022.12 542.891C1018.88 542.741 1015.84 539.941 1012.97 543.591C1013.67 544.941 1015.19 545.651 1015.98 547.141C1017.28 549.591 1018.4 552.151 1015.95 553.791C1013.83 555.211 1010.94 556.701 1008.08 554.711C1006.58 553.671 1004.84 552.791 1006.14 550.381C1007.28 548.271 1008.71 548.781 1010.33 549.571C1011.03 549.911 1011.81 550.111 1013.25 550.621H1013.24Z" fill="#003744"/>
<path d="M1014.87 571.58C1011.75 573.13 1010.32 572.32 1009.27 570.59C1009.11 570.33 1009.37 569.44 1009.6 569.37C1011.7 568.73 1012.4 570.91 1014.86 571.57L1014.87 571.58Z" fill="#003744"/>
<path d="M1014.24 585.422C1013.74 585.862 1013.45 586.323 1013.13 586.343C1012.77 586.363 1012.38 586.002 1012 585.802C1012.26 585.482 1012.48 584.973 1012.79 584.903C1013.13 584.823 1013.56 585.162 1014.24 585.422Z" fill="#003744"/>
<path d="M207.08 568.562C202.42 568.562 197.76 568.563 193.1 568.573C197.76 567.093 202.42 567.112 207.08 568.562Z" fill="#0C2F40"/>
</g>
<defs>
<clipPath id="clip0_429_4">
<rect width="1193.72" height="915.83" fill="white"/>
</clipPath>
</defs>
</svg>
