<?xml version="1.0" encoding="UTF-8"?>
<svg id="Layer_2" data-name="Layer 2" xmlns="http://www.w3.org/2000/svg" viewBox="0 0 78.12 67.06">
  <defs>
    <style>
      .cls-1 {
        fill: #573537;
      }

      .cls-2 {
        fill: #5a3436;
      }

      .cls-3 {
        fill: #62393a;
      }

      .cls-4 {
        fill: #5b3131;
      }

      .cls-5 {
        fill: #5d383b;
      }
    </style>
  </defs>
  <g id="Layer_1-2" data-name="Layer 1">
    <path class="cls-3" d="m62.11,43.11c3.35,2.39,4.35,6.91,8.1,8.95.72,1.32,1.43,2.64,2.15,3.97-4.1,3.05-8.77,2.82-13.08,1.29-3.65-1.29-7.16-3.17-10.01-6.22-3.38-3.61-8.84-3.2-12.38.51-1.82,1.91-3.57,3.91-5.22,5.99-1.88,2.38-4.09,4.49-7.64,2.85-2.42-1.12-3.44,3.25-6.06,1.65-.28-.7-.31-1.39.14-2.05-.35-2.93,2.46-5,2.17-7.91,1.02-1.18.66-3.02,1.97-4.07h0c.79-1.27.67-2.96,1.86-4.04l-.11-3.89c.86-.85,1.69-.82,2.64-.04-1.77-4.06-8.83-3.98-8.11-10-.54-6.16-.12-5.81,5.78-6.34,3.8-.34,8.56-.58,11.02-5.09.93-1.71,1.8-4.21,4.75-3.46.3,1.09.98,1.78,2.12,1.95,1.07.29,1.55,1.01,1.48,2.1-.92,1.62-2.83,2.7-2.69,4.9,0-.01,0-.02.01-.03.42-2.14.87-4.26,3.9-3.55.17.16.33.32.5.47-.15,1.99,1.12,2.73,2.76,3.14,1.94,1.83,6.17,2.14,4.35,6.49,2.96.86,3.88,3.28,4.54,5.91.23,3.3,2.62,4.93,5.05,6.53Z"/>
    <path class="cls-5" d="m40.07,15.2c-1.28,2.28-2.65,4.52-3.81,6.86-1.12,2.26-2.16,4.08-5.2,2.44-1.43-.77-2.6-.44-3.18,1.67-.78,2.85-2.26,5.02-4.33.55-.4-.85-1.32-2.02-2.22-1.54-2.03,1.08-.75,3.24-1.11,4.89-3.8,2.58-6.83,2.26-7.66-1.49-.61-2.74-1.95-2.29-3.6-2.38-2.28-.12-4.41-.83-5.15-3.11-.74-2.27-.38-4.53,2.06-5.88,1.56-.15,3.11-.29,4.46.77,1.28.05,2.56.11,3.84.16,1.87,1.15,4.32.4,6.09,1.85.63.01,1.27.03,1.9.04,2.11-2.64.84-5.36.18-8.06,0-2.61,0-5.22,0-7.82,1.2-1.03.48-3.02,1.94-3.92,4.3-1.05,7.01,1.42,9.19,4.48,2.39,3.36,4.42,6.97,6.61,10.48Z"/>
    <path class="cls-1" d="m5.22,18.19c1.45,6.79,2.6,7.33,9.41,4.46.91-.38,1.86-.74,2.66.32-.22,2.21-4.75,1.77-3.16,5.12,1.35,2.84,3.93,1.73,6.09,2-.3,2.54,1.55,3.14,3.35,4.13,2.87,1.57,6.49,3.01,3.88,7.61-.46.82-.07,2.12-.07,3.5-1.92-1.52-.4-4.82-3.4-5.19-3.38.15-4.83-3.3-7.71-4.09-1.03-1.31-3.05-.59-4.05-1.97-3.05-1.96-5.3-5.1-8.99-6.13-.99-.23-1.53-.77-1.22-1.86-1.1-2.72-3.94-5.44.04-8.13,1.11-.63,2.19-.83,3.17.24Z"/>
    <path class="cls-5" d="m55.22,37.07c-.55-4.33-3.54-5.38-8.01-5.31,5.32-1.46,5.49-3.28,1.2-5.39-1.45-.71-.97-1.38-.25-2.2,8.68.16,17.41-.94,26.03.97,1.8-.22,3.3.13,3.91,2.11,0,.27-.03.55-.07.82-6.63,3.54-13.88,5.73-20.48,9.36-.74.41-1.61.11-2.34-.37Z"/>
    <path class="cls-4" d="m20.04,66.16c-.58-.05-1.16-.11-1.74-.16.01-1.34.02-2.67.03-4.01,1.33-2.33,4.67-3.34,4.03-6.98,2.33.98.74,4.65,3.56,4.33,2.09-.24,3-2.4,4.38-3.8,3.06-3.11,4.49-7.73,9.76-8.85,4.62-.98,7.82.38,11.3,3.1,4.22,3.31,8.19,7.67,14.76,5.52,1.81-.59,4.14.43,6.23.71,4.36,3.64.09,6.12-1.21,9-4.58,2.63-7.92-.53-11.29-2.66-4.03-2.54-7.77-5.52-11.64-8.32-1.31-1.31-2.68-1.16-4.07-.15-5.66,4.01-9.95,9.94-16.88,12.19-2.4,1.2-4.8,1.38-7.23.07Z"/>
    <path class="cls-2" d="m55.22,37.07c3.27-3.16,7.33-4.83,11.51-6.4,1.71-.65,3.73-.41,4.8-3.3.77-2.09,4.13,1.2,6.51.71.68,4.6-2.86,6.24-5.87,8.1-3.47,2.14-7.4,3.59-10.05,6.92-5.08,1.22-6.97-.43-6.9-6.04Z"/>
    <path class="cls-1" d="m28.01,54.9c-2.36-1.65-1.75-3.64-.53-5.71.18,1.9.35,3.8.53,5.71Z"/>
  </g>
</svg>