<?xml version="1.0" encoding="UTF-8"?>
<svg id="Layer_2" data-name="Layer 2" xmlns="http://www.w3.org/2000/svg" viewBox="0 0 663.89 536.16">
  <defs>
    <style>
      .cls-1 {
        fill: #29971c;
      }

      .cls-2 {
        fill: #065f1d;
      }

      .cls-3 {
        fill: #3eab1c;
      }

      .cls-4 {
        fill: #1e9f20;
      }

      .cls-5 {
        fill: #3da921;
      }

      .cls-6 {
        fill: #3aaa24;
      }

      .cls-7 {
        fill: #169121;
      }

      .cls-8 {
        fill: #66bd51;
      }

      .cls-9 {
        fill: #004227;
      }

      .cls-10 {
        fill: #40ae23;
      }

      .cls-11 {
        fill: #46bc22;
      }

      .cls-12 {
        fill: #69c253;
      }

      .cls-13 {
        fill: #40ae1c;
      }

      .cls-14 {
        fill: #34a31c;
      }

      .cls-15 {
        fill: #11811b;
      }

      .cls-16 {
        fill: #4fc626;
      }

      .cls-17 {
        fill: #0c7118;
      }

      .cls-18 {
        fill: #11791d;
      }

      .cls-19 {
        fill: #4bbf27;
      }

      .cls-20 {
        fill: #4abf27;
      }

      .cls-21 {
        fill: #3fad1c;
      }

      .cls-22 {
        fill: #169522;
      }

      .cls-23 {
        fill: #10801f;
      }

      .cls-24 {
        fill: #0c7418;
      }
    </style>
  </defs>
  <g id="Layer_1-2" data-name="Layer 1">
    <path class="cls-16" d="m602.18,18.74c8.43,6.34,17.16,12.36,24.14,20.4,13.92,16.03,24.52,33.89,29.91,54.59,1.76,8.67,4.49,17.12,5.72,25.93.48,3.43.9,6.84,1.11,10.28-1.12,2.04-1.73,4.27-2.42,6.49-.67,2.18-1.04,4.87-3.75,5.45-2.87.62-3.68-2.16-4.96-4.02-5.3,6.78-15.43,5.87-18.79-1.57-.78-1.73-1.63-2.72-3.57-2.82-3.83-.2-5.67-2.38-5.78-6.13-.11-3.67-2.07-4.04-5.01-2.94-6.11,2.28-12.5,1.41-18.79,1.57-2.87.07-5.26-1.14-6.54-3.79-1.35-2.8-3.56-3.31-6.23-2.67-6.39,1.53-12.4-2.27-18.74-1.29-3.47-4.05-6.91-1.76-10.75-.41-3.15,1.11-6.92,1.79-9.63-1.7-.91-1.17-2.33-1.07-2.92.11-1.04,2.07-5.36,2.07-3.73,5.7.66,1.49.67,3.05-.85,3.26-6.15.83-10.26,5.82-16.07,7.41-4.83,1.32-9.47,1.4-14.21.02-2.55-.74-5.06-1.85-7.72-1.99-2.91-.15-4.37-1.95-5.39-4.59-1.97,2-.42,3.12.19,4.29,1.27,2.42.43,3.9-2.04,4.42-5.19,1.11-9.15,1.47-9.58-5.42-.15-2.44-1.5-4.36-2.85-6.28-.51-.58-.8-1.36-1.76-1.85.64.61,1.21.98,1.56,1.56-3.29,5.51-9.98,8.91-15.67,7.74-1.47-.3-2.15.16-2.85,1.22-1.47,2.21-3.17,4.24-4.54,6.54-1.66,2.78-4.08,2.79-5.16-.13-1.83-4.95-4.14-4.81-8.26-2.47-2.7,1.53-5.29,2.68-7.52,5.12-3,3.27-7.37,4.12-11.86,3.41-.46,2.56.13,4.76,1.25,6.5,3.05,4.77,3.64,10.32,5.25,15.53.71,2.27,1.94,5.33-2.04,6.38-4.76-8.1-7.88-16.74-8.69-26.15-1.46-11.37-3.15-22.81-1.98-34.25,3.95-38.73,18.39-72.83,52.74-93.25,40.3-23.96,82.77-25.73,124.81-2.23,1.3.73,2.65,1.35,3.98,2.02Z"/>
    <path class="cls-23" d="m100.05,177.48c1.79-3.66,4.01-7.02,6.8-10.01,2.72-.36,4.33,1.52,5.88,3.18,7.58,8.08,17.42,13.28,25.75,20.41,2.83,2.43,6.45,3.27,9.87,2.16,8.88-2.87,18.23-3.27,27.21-5.86,6.55-1.89,10.31-5.48,12.74-11.27,7.2-17.15,13.98-34.49,23.34-50.63,1.76-3.04.67-5.42-1.43-7.62-4.71-4.92-9.63-9.64-14.55-14.34-1.93-1.84-3.81-3.7-5.54-5.73-1.42-1.66-2.01-3.45-.42-5.38,2.66-3,6.4-3.79,9.99-4.89,2.47-.22,4.06,1.09,5.35,2.99,4.55,6.72,11.3,11.22,17.01,16.76,3.64,3.52,8.13,5.2,13.28,4.32,17.81-3.06,35.81-3.26,53.75-2.6,10.22.38,17.45-4.08,24.07-10.77,3.63-3.67,6.78-7.79,10.5-11.37,1.94-1.87,3.95-3.65,6.96-3.25,3.02,1.29,6.05,2.59,9.07,3.88.7,3.32-1.54,5.29-3.53,7.26-5.89,5.85-12.23,11.25-17.58,17.65-4,4.78-4.63,7.18-.95,11.96,7.38,9.57,12.19,20.58,18.11,30.96,4.04,7.08,8.71,13.77,12.76,20.84,2.09,3.64,5.13,6.08,9.49,6.53,7.82.81,15.32,3.09,22.85,5.17,8.82,2.44,12.97,1.49,18.19-5.89,3.85-5.45,8.52-10.2,12.31-15.68,4.03-5.83,6.91-11.77,4.63-19.08-.3-.96-.24-1.99.62-2.76,1.65,1.38,3.3,2.77,4.95,4.15,2.91,2.19,2.23,4.96,1,7.6-1.74,3.75-3.51,7.51-5.85,10.95-.93,1.37-1.76,2.84-1.96,4.52-.3,2.44,1.1,4.04,2.84,5.45,1.69,1.36,3.1.29,4.53-.55,1.28-.76,2.52-1.65,4.07-1.76,3.55-.24,5.24,2.45,3.81,6.02-7.28.29-11.15,6.03-15.84,10.25-2.56,2.3-4.88,4.99-7.1,7.7-9.17,6.42-13.07,15.85-15.68,26.29-2.51,10.05-7.46,19.08-12.82,27.96-7.94,13.13-17.37,24.93-30.08,33.49-14.08,9.48-29.31,16.84-45.32,22.75-15.09,5.57-30.71,8.62-46.43,11.17-7.49,1.22-15.15,2.11-22.84,1.39-4.8-.11-9.59-.12-14.38.04-17.11.93-33.77-2.2-50.41-5.52-24.04-4.8-46.4-13.8-67.62-26.1-10.68-6.19-21.21-12.43-30.56-20.52-3.19-2.76-5.41-5.91-4.05-10.44.73-2.62,1.46-5.25,2.19-7.87,1.08-.33,1.62.42,2.22,1.07,1.06,1.12,2.29,2.02,3.6,2.83.37.25.71.54,1.03.85,2.82,2.51,5.69,4.95,9.32,6.26,1.49.66,2.96,1.35,4.35,2.22,3.6,2.7,7.83,4.21,11.83,6.12,2.05.98,3.34.39,4.45-2.11,3.24-7.31,5.44-14.91,7.47-22.59.13-.72.37-1.41.69-2.06,2.72-3.84,4.34-8.04,4.26-12.81.06-3.88,2.29-7.08,3.34-10.65,1.68-2.96,2.28-6.26,3.03-9.52.13-.46.31-.9.53-1.32.4-.71.9-1.37,1.23-2.14,2.84-6.61,2.88-7.48-2.79-11.67-7.28-5.39-13.83-11.72-21.67-16.36-.87-.45-1.44-1.18-1.87-2.03Z"/>
    <path class="cls-22" d="m416.6,144.42c5.31,10.98-.82,19.36-7.09,26.99-3.64,4.44-7.37,8.91-10.65,13.56-4.45,6.31-10.43,6.45-16.37,5.02-8.67-2.1-17.14-4.96-26.1-5.87-5.21-.53-7.76-4.56-10.23-8.59-8.4-13.68-16.65-27.44-23.78-41.86-2.02-4.09-5.67-7.17-7.88-11.31-2.52-4.7-.27-7.59,2.52-10.76,5.37-6.1,11.18-11.74,17.22-17.17,2.23-2.01,4.11-4.27,5.45-6.98,15.9,5.72,29.88,14.83,43.18,24.98,12.37,9.44,24.24,19.48,33.74,31.99Z"/>
    <path class="cls-22" d="m189.71,92.39c-.5,4.43,3.39,6.25,5.69,8.73,5.29,5.7,11.16,10.85,16.73,16.3,2.48,2.43,3.57,5.28,1.35,8.48-7.13,10.3-11.01,22.2-16.47,33.32-3.7,7.54-5.95,15.72-10.23,23.04-1.84,3.14-4.24,4.46-7.58,5.67-9.87,3.55-20.43,3.82-30.37,7.09-6.11,2.01-11.02-1.96-15.58-5.7-8.82-7.25-18.49-13.47-26.39-21.85,2.08-5.66,6.08-10.1,9.54-14.87,2.02-2.8,4.28-5.42,6.44-8.13,3.43-3.59,6.89-7.15,10.29-10.77,14.89-15.85,32.11-28.67,51.04-39.26,1.74-.97,3.44-2.04,5.54-2.05Z"/>
    <path class="cls-22" d="m330.61,83.58c-7.22,4.15-11.31,11.5-17.32,16.86-5.98,5.34-11.79,10.54-20.95,10.21-15.4-.55-30.85-.4-46.24.89-2.63.22-5.3.58-7.82,1.32-8.97,2.63-15.02-1.94-21.21-7.53-6.19-5.6-11.6-11.89-17.39-17.84,16.36-7.59,33.59-11.92,51.46-14.02,19.47-2.3,38.71-.61,57.79,3.24,7.42,1.5,14.73,3.7,21.67,6.87Z"/>
    <path class="cls-18" d="m429.54,180.44c.98-1.57.65-2.67-.97-3.67-1.21-.75-2.2-1.45-3.54-.33-.63.53-1.37.93-2.08,1.35-1.8,1.06-3.23,4.12-5.81,1.42-2.54-2.66-6.21-5.03-3.61-9.67,2.34-4.17,4.58-8.41,7.02-12.52,1.61-2.73,2.28-5.44,1.01-8.45.36-.71.72-1.42,1.08-2.13,3,8.65,6,17.29,9,25.94,1.18.73,1.99,1.77,2.39,3.08,4.02,12.96,3.14,25.52-3.17,37.61-4.41,2.58-4.07-2.13-5.75-3.75-.28-2.17.68-4.04,1.49-5.95,2.18-5.8,2.89-11.73,1.74-17.86-.34-1.83-.2-3.62,1.21-5.07Z"/>
    <path class="cls-19" d="m399.53,364.99c-2.12,1.15-1.68,2.77-1.1,4.68,12.09,39.67,2.53,75.39-21.31,107.66-16.7,22.61-39.72,37.5-65.77,47.74-18.93,7.44-38.4,11.95-58.88,10.95-6.49-.32-12.93-1.04-18.86-4.02-6.99-3.52-8.59-8.13-3.93-14.47,4.9-6.68,10.55-12.82,16.09-19.01,27.31-30.52,47.89-64.91,60.3-104.05,2.5-7.87,2.53-8.05-5.57-7.14-16.92,1.89-33.85,1.98-50.8.71-10.6.28-21.03-1.06-31.42-3.06-11.22-2.16-22.31-4.82-33.27-8.02-2.36-.69-4.82-1.33-6.52-3.37-.71-5.37,2.28-11.6,6.64-13.88,9.24.04,18.34,1.98,27.58,2.06,7.54,1.58,15.09,1.41,22.64.11,12.56-1.03,25.19-1.28,37.62-3.93,12.05-2.56,23.96-5.54,35.69-9.29,1.74-.56,3.45-1.27,5.33-.97,3.59,3.27,3.14,7.77,3.36,11.94.3,5.85.38,6.18,6.07,4.26,15.58-5.24,30.07-12.48,42.29-23.73,1.96-1.8,4.2-3.24,6.15-5.08,3.17-2.99,5.5-2.61,8.49.52,6.72,7.05,12.07,15.01,16.09,23.85.89,1.95,3.1,3.12,3.09,5.53Z"/>
    <path class="cls-14" d="m399.53,364.99c-5.91-2.56-6.35-9.01-9.01-13.65-3.46-6.04-8.75-10.39-12.39-16.13-1.13-1.78-3.41-1.34-4.8.14-9.15,9.7-19.88,17.36-31.81,23.04-6.79,3.23-13.74,6.47-21.13,8.4-2.89.76-4.96-.04-4.63-3.16.55-5.21-1.17-10.16-1.18-15.27,1.06-1.59,2.72-1.69,4.39-1.79,8.24-.75,16.25-2.13,22.57-8.19,2.03-2.11,4.68-2.89,7.41-3.52,3.17-.13,5.8-1.44,7.98-3.71,1.45-1.39,3.06-2.56,4.86-3.47,17.87-9.07,30.48-23.24,39.46-40.88,1.36-2.67,2.83-5.27,4.16-7.96.67-1.35,1.19-3.37,3.56-2.43,2.24,5.06,2.74,10.3.73,15.46-1.44,3.7-.28,5.79,2.85,7.77,6.82,4.3,14.64,5.33,22.21,6.87,17.46,3.56,32.09-3.38,45.92-13.15,11.05-7.8,18.33-18.56,24.78-30.06,2.44-4.35,5.07-8.51,8.41-12.29,5.2-5.87,11.92-7.46,19.25-7.8,1.89-.09,3.66.19,4.87,1.9.41.7.47,1.47.45,2.25-.36,2.03-1.13,3.83-2.92,5.04-2.11,1.65-3.47,3.93-5.04,6.04-.3.3-.6.6-.9.91-1.73,3.27-4.34,5.96-6.05,9.23-.31.61-.61,1.22-.92,1.83-5.91,7.25-11.79,14.53-16.12,22.9-.5,2.41,1.25,3.12,2.92,3.97,28.81,14.7,44.16,38.61,47.07,70.42,4.67,51-15.46,91.22-54.8,122.65-4.64,3.71-9.8,6.81-15.51,8.85-7.39,2.64-13.11-.17-14.76-7.74-2.98-13.74-2.46-27.78-2.83-41.7-.86-32.17-4.63-63.89-13.11-94.99-.65-2.4-1.19-4.83-1.78-7.25-.54-2.21-1.07-4.41-1.68-6.93-14.73,8.59-29.38,16.33-44.88,22.35-2.48.96-4.96,1.83-7.63,2.05Z"/>
    <path class="cls-11" d="m429.59,213.39c5.63-13.42,6.85-27.07,2.03-41.01,1.63-2.16.68-4.29.16-6.58-1.57-6.9-5.04-13.13-6.88-19.92-.42-1.56-1.05-3.54.4-4.64,1.35-1.02,2.14,1.02,3.27,1.54,2.67,1.23,9.65-1.88,10.65-5.12.71-2.3,1.24-3.66,3.97-2.52,1.65.69,2.7-.71,3.86-1.66,3.94-3.21,7.06-2.24,8.41,2.59.33,1.16-.3,3.03,1.7,2.99,1.58-.03,1.25-1.69,1.57-2.72,1.02-3.27,5.19-4.42,5.25-8.66.03-1.78,2.11-.1,2.91.7,3.16,3.13,6.18,2.75,8.02-.99,1.69-3.42,6.07-1.81,7.6-4.92h0c4.97.06,4.41,4.04,4.96,7.14.28,1.58-.36,3.95,1.66,4.22,2.37.31,5.19.15,7.22-.92,1.71-.9-.36-2.05-1.32-2.72-2.06-1.43-1.14-3.11-.64-4.89.59-2.05,1.96-1.25,3.19-1.09.47.06,1.34.12,1.35.22.41,7.89,7.44,3.88,11.05,6.02,4.32,2.56,8.97,1.41,13.9.58,4.99-.84,7.44-5.13,11.89-6.17.71-.17,1.32-.79,2.23-.66,1.08.16,2.65.79,2.89-.85.28-1.92-1.95-1.19-2.91-2.04,2.46-2.7,4.89-5.36,7.3-8.03,1.42-1.56,2.55-2.13,3.47.51.58,1.67,1.44,4.17,3.58,3.33,3.17-1.25,7.74,1.16,9.61-3.59.43-1.08.35-3.02,2.3-2.65,1.52.29.99,1.87,1.29,2.92.78,2.73,2.62,3.65,5.32,3.02,2.85-.66,5.55-.42,8.23.9,2.51,1.24,5.12.72,7.79.17,3.42-.71,7.1-1.6,7.91,3.77.26,1.69,1.92,2.82,3.76,2.73,7.05-.34,14.24.98,21.09-1.98,4.16-1.8,5.8-.84,5.68,3.48-.12,4.67,1.13,7.04,6.29,5.77,2.34-.58,2.76,1.13,2.79,3,.03,2.54.91,4.98,3.55,5.33,3.66.49,7.47,1.82,11.12-.42,1.66-1.02.31-2.44.75-3.58.37-.96,1.05-1.83,2.08-1.97,1.5-.2,1.29,1.1,1.49,2.02.21.96.4,1.95.78,2.86.44,1.06.99,2.27,2.45,2.06,1.14-.16,1.67-1.16,1.67-2.18,0-2.34,2.25-4.06,1.58-6.66-.47-1.8,1.22-1.52,2.32-1.63,2.31,4.19,1.27,8.72.86,13.02-.28,2.95-.64,5.9-.67,8.87-.76,10.89-4.77,20.73-9.89,30.17-2.73,5.03-5.45,10.15-10.01,13.9-1.55-1.6-.6-3.16.27-4.51,2.94-4.61,6.12-9.07,8.31-13.94-3.3,1.09-6.14,3.24-8.38,6.24-.7.93-1.34,2.02-2.33,2.58-7.77,4.35-15.44,8.98-24.54,10.12-1.62.2-3.43.59-4.07-1.71.13-3.67,2.87-5.84,4.59-8.3-20.09,15.72-41.23,14.02-61.06,1.01-7.49-4.91-13.42-11.39-17.18-19.67-.97-2.13-1.92-4.25-1.93-6.65-.02-2.93-.88-5.64-4.18-5.76-3.34-.12-7.17.58-8.28,4.26-1.34,4.43-3.01,8.85-3.42,13.51-.34,3.81.9,4.87,3.54,2.93,3.98-2.92,5.68-.98,7.75,2.34,11.66,18.67,28.82,27.87,50.61,28.85,5.28.24,10.1-1.8,15.05-3.21,1.83-.53,3.72-1.82,5.56.04.53,3.11-1.81,4.12-3.95,4.88-9.43,3.39-19.25,3.3-29.02,2.5-5.36-.44-10.25,0-14.64,3.19-3.79,2.76-8.23,4.26-12.28,6.55-3.48,1.97-7.17-.45-10.51-1.63-3.79-1.33-6.99-1.6-10.95-.04-4.98,1.97-10.45,1.76-15.55-.51-1.89-.84-3.74-1.59-5.7-.48-3.65,2.08-7.62,2.11-11.63,2.04-.66-.01-1.33.03-1.99,0-12.39-.67-24.54.05-35.79,6.08-.87.47-1.84.77-2.82.99-5.09,1.12-8.08-1.47-7.77-6.66.09-1.46.85-2.88.32-4.5-.95,2.06-1.87,4.02-2.59,6.04-1.39,3.91-3.66,6.25-8.14,5.59-3.36-.5-4.51,2.2-6.03,4.33-1.48,2.07-2.18,5.07-5.62,4.91-2.06-1.6-.54-3.22-.03-4.83,1.3-2.87,3.04-5.5,4.59-8.23,2.98-3.39,3.09-8.53,6.91-11.42Z"/>
    <path class="cls-4" d="m427.56,204.4c-.65,1.66-1.31,3.33-1.96,4.99,1.11,3-.89,5.08-2.24,7.29-4.58,7.49-10.21,14.32-13.18,22.82-1.43,4.09-3.01,8.12-3.73,12.37-6.53,38.59-29.15,64.69-63.4,81.72-11.79,5.86-24.18,10.01-36.89,13.64-13.46,3.84-27.19,6.18-40.76,9.35-15.36,3.59-31.11,2.74-46.72,2.04-11.45-.51-22.89-1.66-34.22-3.51-25.63-4.2-50.91-9.52-75.21-19.21-18.77-7.49-37.13-15.48-53.46-27.61-4.55-3.38-8.71-7.17-12.87-10.99-3.36-4.3-6.64-8.67-8.72-13.76-2.42-5.93-.97-11.21,4.43-14.67,8.57-5.49,18.09-8.49,28.2-9.62.96,7.19,6.52,10.72,11.7,14.42,18.36,13.12,38.06,23.68,59.14,31.88,18.19,7.08,37.21,10.35,56.25,13.45,8.1,1.32,16.49,1.84,24.81,1.26,5.33.78,10.66.81,15.99,0,10.8.18,21.33-1.94,31.98-3.33,19.63-2.57,37.96-9.31,55.65-17.37,18.6-8.47,36.12-19.42,47.97-36.76,9.47-13.86,18.03-28.32,21.43-45.28,1.74-8.68,7.25-15.35,14.81-20.14,2.43-1.73,4.53-3.84,6.82-5.74,2.75-2.28,5.75-2.94,9.25-1.83,6.17,1.96,6.98,3.03,5.23,9.22-.53,1.87.15,3.6-.3,5.35Z"/>
    <path class="cls-20" d="m158.73,412.08c-17.09,18.62-39.02,25.49-63.52,26.23-16.02.48-31.93.13-47.02-6.21-4.68-1.97-10.35-3.63-11.26-9.46-.99-6.3,4.76-8.64,8.94-11.34,16.9-10.92,33.78-21.85,47.75-36.57,3.53-3.72,6.72-7.76,10.06-11.65,2.22-.6,4.3-.08,6.28.91,18.07,9.01,37.15,15.43,56.15,22.05,1.87.65,3.91,1,5.16,2.8.77,1.44.52,2.87-.02,4.3-2.29,6.06-6.15,11.26-9.27,16.87-.67,1.21-1.93,1.75-3.25,2.09Z"/>
    <path class="cls-13" d="m417.67,237.33c4.59-1.23,4.21-6.4,7.14-9.1,1.68-1.55,2.49-2.49,4.85-1.45,3.05,1.34,5.37.78,6.11-3.23.56-3.03,3.18-5.4,3.21-8.76,0-.87.71-2.13,1.91-1.87,1.37.3,2.44,1.32,2.2,2.88-.28,1.8-.97,3.53-1.27,5.32-.29,1.74-1.05,3.76.93,4.98,1.73,1.06,3.51,1.11,5.67.43,6.79-2.16,12.8-6.75,20.15-7.03,7.48-.29,14.98-.11,22.48-.11,2.98,0,5.85.2,8.4-2.14,1.66-1.53,4.09-1.27,6.09-.08,5.9,3.52,11.79,3.44,17.68.07,1.9-1.09,4.11-1.46,5.69-.33,3.26,2.33,7.44,1.71,10.66,3.88.72.49,1.8.78,2.33.15,3.07-3.63,8.17-3.71,11.52-6.46,5.5-4.53,11.1-4.26,17.88-3.89,9.51.52,19.56,1.04,28.72-3.35,1.17-.56,2.35-1.36,2.33-2.97,1.61-4.9,5.15-7.63,9.98-8.93,3.59.07,7.17.59,10.53-1.49,3.5-2.17,7.3-3.69,11.26-4.92,3.04-.94,5.75-2.67,7.32-5.67,2.61-4.97,8.39-5.61,12.99-8.61-1.87,3.6-3.75,7.19-5.6,10.8-1.95,3.79-5.63,6.58-6.39,11.05,0,0-.04,0-.04,0-1.93,1.78-4.72,2.8-5.17,5.88-9.26,11.58-21.4,19.33-34.53,25.7-4.42,2.14-9.07,3.83-13.51,5.93-1.6.76-3.06.94-4.68.52-1.14-3.33,3.37-2.92,3.53-5.39-.27-1.81-.78-3.7,1.26-4.89,1.88-1.09,3.55-.54,4.99.82,2.47,2.34,4.5,1.51,6.24-.85,1.1-1.49,2.21-2.8,3.38-2.78-3.16.9-7.15.66-10.82-1.15-4.27-2.11-5.98,2.82-9.38,3.1-.72.06.34.97.63,1.41.99,1.53.8,2.79-.66,3.87-1.51.67-3.27-.39-4.75.77-2.97,2.33-3.53-.03-4.16-2.21-.82-2.81-2.84-2.7-4.69-1.53-2.6,1.65-6.29,1.28-8.08,2.4-6.15,3.84-13.05,1.9-19.24,4.04-1.28.44-2.46.93-3.41,1.94-2.39,2.56-5.36,3.61-8.87,3.85-3.49.24-6.85,1.36-9.26,4.21-3.05,3.61-6.77,5.09-11.52,4.18-3.24-.62-6.34-.38-8.11,3.15-.45.9-1.27,1.74-2.25,1.85-4.6.47-7.66,2.53-8.61,7.34-.25,1.29-1.49,2.29-2.79,2.68-2.24.68-3.57,2.1-4.67,4.12-1.41,2.59-3.89,3.5-6.78,3.19-4.86-.51-6.33-4.02-3.4-8.08.76-1.05,2.03-1.79,1.96-3.83-3.01,0-5.13,1.37-6.98,3.61-4.29,5.18-6.64,5.16-11.05.1-3.54-4.06-8.18-3.92-11.39.49-1.71,2.35-3.98,3.68-6.76,3.56-4.26-.18-8.29-2.06-12.7-1.68-1.45.12-2.78-1.26-3.13-2.83-1.51-6.8-7.31-12.23-6.3-19.83-.14-1.09-.04-2.1.94-2.81Z"/>
    <path class="cls-1" d="m158.73,412.08c4.37-7.45,9.77-14.36,12.07-22.89,1.07-6.13,3.32-11.67,7.97-16.02,15.85,5.21,32.09,8.86,48.52,11.61,7.44,1.24,15.03,1.47,22.4,3.26-4.1-.62-5.83,1.18-7.32,5.14-10.08,26.7-29.79,41.79-57.59,47.1-6.41,1.23-12.72,2.01-19.24,1.97-3.64-.02-6.81-1.36-10.01-2.47-3.94-1.36-5.22-7.74-2.8-13.18,1.61-3.63,3.68-7.05,5.45-10.6.6-1.2,2.18-2.37.56-3.93Z"/>
    <path class="cls-3" d="m590.41,229.37c.11,4.08-5.24,1.92-5.89,5.13,0,0,.01-.05.01-.05-5.27,2.93-11.5,2.4-16.95,4.68-4.27.15-8.31,1.64-12.5,2.2-2.86-.04-5.72.7-8.61.08-.61-.14,0,.7.25.08.05-.14.19-.06.48.08.61.29,1.11.63,1.05,1.41-2.27.11-4.55.22-6.82.34-2.45-.47-1.34,3.71-3.96,3.03-.93-1.78-2.34-1.54-4.15-1.58-14.29-.33-20.89,9.15-26.92,20.02-5.74,10.36-12.04,20.28-21.87,27.68-8.53,6.42-17.43,12.14-27.54,15.11-5.49,1.62-11.66,2.35-17.69,1.47-6.85-1-13.42-3.22-20.17-4.49-4.58-.86-7.36-4.29-11.3-5.9-1.39-.57-1.66-2.36-.98-3.5,3.61-6.07,1.82-12.54,1.66-18.9-.69-.53-1.17-1.3-1.07-2.1.71-5.78,1.33-11.59,4.09-16.87,4.76-.71,7.6,1.52,8.88,5.95.75,2.6,2.33,4.77,3.48,7.16,2.67,5.58,7.54,6,11.23,1.03,2.24-3.01,5.36-2.85,7.08.46.76,1.46,1.28,3.07,1.34,5.01.82-1.91,1.93-3.32,3.74-3.95,2.19-.76,3.25,1.02,4.66,2.12,4.39,3.43,12.61,1.99,15.45-2.75,2.19-3.66,5.78-4.35,9.46-4.4,3.34-.05,4.78-1.74,7.02-4.09,3.3-3.46,7.13-6.75,11.07-9.69.37-.28.96-.37,1.44-.34,9.83.58,16.36-5.8,23.42-11.07,5.72-4.27,12.36-5.96,19.32-6.68.3-.03.88.33.89.31,2.88-6.68,8.87-2.4,13.25-3.77.62-.19.07.29.45-.08,4.12-4.06,9.92-4.25,14.71-6.61,4.03-1.99,5.12-2.42,7.99,1.49.61,1.83.78,1.9.96,1.46,1.72-4.26,3.92-1.67,6.03-.46,2.52-.98,4.91-1.08,6.99,1Z"/>
    <path class="cls-15" d="m412.55,257.31c-1.34,6.32-2.69,12.63-4.03,18.95-5.11,9.95-9.95,20.07-16.93,28.89-4.51,5.7-10.01,10.44-15.44,15.3-5.61,5.03-12.7,7.39-18.56,11.82-2.54,1.53-5.29,2.66-7.95,3.95-2.46.75-5.13,1.02-7.05,3.04-7.3,3.85-14.87,6.99-22.9,8.96-1.7.05-3.4.1-5.11.14-25.48,9.16-51.59,15-78.82,14.93-7.68.68-15.36.71-23.04-.01-9.4.57-18.61-1.5-27.93-2.09-6.02.98-11.64-1.07-17.32-2.39-17.56-4.07-34.95-8.8-52.44-13.18-1.78-1.38-3.82-1.48-5.94-1.23-16.95-5.17-32.66-12.81-46.49-23.98-2.83-2.29-6.17-3.78-8.81-6.3-1.77-5.4-5.85-9.24-9.34-13.44-.89-1.08-1.63-1.96-1.54-3.37,6.75,1.76,10.74,7.56,16.13,11.29,11.38,7.88,23.33,14.52,36.07,19.77,14.82,6.11,29.65,12.27,45.24,16.15,21.19,5.27,42.6,9.73,64.37,11.48,19.79,1.6,39.73,2.89,59.48-.84,11.51-2.18,23.14-4.22,34.38-7.26,21.14-5.71,42.2-12.35,60.34-25.31,24.71-17.66,41.28-40.53,45.91-71.41,1.53-10.21,5.84-19.83,12.45-28.24,3.25-4.14,5.57-9.02,8.31-13.57,3.22-.55,1.73,3.6,3.99,4-1.66,4.2-2.43,8.82-5.91,12.13-2.37,2.09-4.04,4.54-4.14,7.83-.62,1.33-1.24,2.65-1.86,3.98,0,1.01,0,2.02-.01,3.03-1.1,5.83-2.04,11.71-5.11,16.95Z"/>
    <path class="cls-22" d="m122.83,220.39c.38,4.04-3.52,6.9-3,10.98-1.8,4.28-2.57,8.95-4.99,12.99,0,.66,0,1.33,0,1.99-2.97,3.78-3.45,8.53-4.84,12.89-1.02,3.18-2.69,6.02-3.81,9.13-.84,2.33-2.86,3.61-5.16,2.36-3.93-2.13-8.42-2.92-12.18-5.39-1.57-.18-2.95-.74-3.99-1.99-3.69-1.83-6.55-4.82-9.99-7h0c-1.69-.9-2.63-2.98-4.84-3.06-.33-.63-.66-1.26-.99-1.9,1.84-5.14,4.01-10.18,5.45-15.43,4.85-17.65,12.73-34.03,20.78-50.34,1.39-2.81,3.18-5.43,4.79-8.13.61.31,1.21.61,1.81.92,7.06,5.65,13.94,11.52,21.21,16.92,6.62,4.91,6.73,6.19,2.74,15.07h0c-1.59,3.16-1.24,6.89-2.99,10Z"/>
    <path class="cls-5" d="m53.8,314.11c1.72.41,3.57-.17,5.17,1.28,14.47,13.13,31.9,21.02,49.9,27.87.58.82,2.69.14,2.1,2.12-7.55,5.79-16.6,8.13-25.47,10.66-4.73,1.35-9.61,2.68-14.69,2.16-7.07-.1-14.15.37-21.13-1.45-18.04-4.69-34.21-12.48-46.44-27.12-1.6-1.91-2.54-3.83-1.98-6.33,4.96-3.82,11.05-3.11,16.65-3.75,12.04-1.39,24.02-2.97,35.88-5.45Z"/>
    <path class="cls-10" d="m114.81,344.26c23.32,5.64,46.65,11.29,69.97,16.93-3.23,3.38-4.26,7.86-6.01,11.97-2.39,5.47-4.69,10.99-7.97,16.02-19.59-6.21-38.86-13.28-57.6-21.72-3.19-1.43-6.34-2.93-9.52-4.4,3.56-4.99,6.47-10.35,9.11-15.87.9-.82.21-2.73,2.01-2.94Z"/>
    <path class="cls-8" d="m1.26,323.31c5.11,12.8,16.37,19.06,27.58,24.89,12.33,6.4,25.49,10.45,39.75,9.12.71-.07,1.48.58,2.23.89-.61.06-1.23.11-1.84.17-4.4.5-8.8.66-13.2-.12-21.47-2.69-39.44-12.02-53.61-28.42-1.53-1.77-3.48-3.97-.9-6.53Z"/>
    <path class="cls-12" d="m662.35,152.41c-1.55-1.5-1.23-3.49-.84-5.14,1.31-5.57.68-11.17.65-16.76-.27-9.88-2.31-19.4-5.25-28.82-.77-2.45-2.05-5.19-.69-7.96,4.59,11.19,6.09,23.04,7.44,34.92.28,5.22.32,10.44-.02,15.65-.87,2.63.47,5.62-1.29,8.11Z"/>
    <path class="cls-3" d="m506.51,293.32c-.77-1.68-.32-3.47.71-4.56,4.75-5.04,8.28-10.92,12.08-16.61.76-1.14,1.87-1.83,3.33-1.73-4.76,8.07-10.47,15.46-16.12,22.9Z"/>
    <path class="cls-13" d="m567.43,238.31c.21-.84.62-1.85,1.49-1.75,5.4.61,10.38-1.67,15.61-2.11-3.83,3.22-8.64,3.64-13.25,4.64-1.2-.68-2.82.73-3.85-.79Z"/>
    <path class="cls-11" d="m567.43,238.31c1.31.16,2.73-.26,3.85.79-4.48,1.49-9.15,1.85-13.8,2.31-1.21.26-2.73,1.43-3.01-1.02,4.44.08,8.47-2.46,12.96-2.08Z"/>
    <path class="cls-13" d="m554.47,240.39c.76,1.05,1.93.91,3.01,1.02-2.97,1.16-6.03,1.75-9.23,1.57-1.06-1.14-2.93.01-4.1-1.59,3.37-1.91,6.93-.7,10.32-1Z"/>
    <path class="cls-21" d="m523.54,268.59c.38-4.15,3.45-6.54,6.05-9.23-.6,4.01-3.25,6.67-6.05,9.23Z"/>
    <path class="cls-5" d="m55.77,358.26c4.4.04,8.8.08,13.2.12-4.41,1.15-8.81,1.35-13.2-.12Z"/>
    <path class="cls-11" d="m637.24,202.35c-.55-3.96,2.35-4.89,5.17-5.88-1,2.6-3.84,3.58-5.17,5.88Z"/>
    <path class="cls-4" d="m114.81,344.26c-.67.98-1.34,1.96-2.01,2.94-.12-1.1-.66-1.78-1.83-1.82-.7-.71-1.4-1.41-2.1-2.12,2,.23,4.2-.74,5.95,1Z"/>
    <path class="cls-21" d="m537.48,246.34c1.75-.45-.06-5.54,3.96-3.03-.94,1.39-1.39,3.15-2.98,4.06-.32-.34-.65-.69-.97-1.03Z"/>
    <path class="cls-21" d="m530.5,258.45c.88-2.68,1.94-5.21,5.04-6.04-1.3,2.33-2.66,4.6-5.04,6.04Z"/>
    <path class="cls-9" d="m493.46,105.29c.1-10,2.06-16.76,6.91-22.4,5.46-6.36,12.43-8.61,20.61-6.63,8.87,2.14,14.49,8.16,17.15,16.46,1.67,5.2,2.29,10.64,1.67,16.5-1.26,11.84-9.33,16.46-18.65,19.94-7.11,2.65-16.37-.8-21.19-7.05-4.42-5.72-6.59-12.2-6.5-16.82Z"/>
    <path class="cls-6" d="m512.09,34.61c14.7-.57,26.57,10.29,29.8,21.73.47,1.66,1.02,3.33-.61,4.55-1.68,1.26-3.19.04-4.57-.79-5.79-3.5-11.38-7.12-18.06-9.13-11.66-3.5-19.39-.45-28.24,10.82-1.73,2.2-3.02,4.75-4.53,7.12-.78,1.23-1.44,2.94-3.33,2.24-1.58-.59-1.9-2.22-1.97-3.73-.38-7.73,1.27-15.06,6.64-20.72,6.82-7.2,14.77-12.74,24.88-12.09Z"/>
    <path class="cls-17" d="m640.79,139.4c-2.9-.14-5.18-1.85-5.28-5.71-.1-4.02,2-6.05,6.02-6.19,3.65-.13,6.22,1.35,6.66,5.1.36,3.06-3.45,6.72-7.4,6.8Z"/>
    <path class="cls-11" d="m482.51,122.49c-2.04-.01-4.15.15-5.95-2.68,2.76.45,6.08-2.72,5.95,2.68h0Z"/>
    <path class="cls-11" d="m432.76,139.91c-1.62-1.42-3.23-2.84-5.69-5.01,3.91.29,5.7,1.5,5.69,5.01Z"/>
    <path class="cls-11" d="m541.86,97.81c-.53-2-.74-3.57.92-4.63.64-.41,1.28-.05,1.44.69.39,1.8-.25,3.09-2.36,3.94Z"/>
    <path class="cls-22" d="m273.14,122.5c7.34-1.95,14.53.13,21.85.11,4.38,0,7.57,2.71,10.06,6.42,8.94,13.32,16.7,27.34,24.95,41.08,1.71,2.85,3.5,5.65,5.35,8.4,3.18,4.73,2.95,9.36-.35,13.87-7.5,10.27-13.99,21.21-20.99,31.8-2.72,4.12-6.01,7.95-9.5,11.46-3.18,3.2-7.04,4.87-12.02,4.84-12.52-.06-25.02.79-37.53,1.5-6.15.35-12.56-.34-18.82-.87-2.29-.19-3.96-2.33-5.49-4.06-10.44-11.79-20.05-24.24-29.17-37.08-4.04-5.69-4.1-11.19-1.81-17.8,5.18-14.94,13.02-28.58,19.58-42.83,5.1-11.07,13.35-16.84,25.55-16.86,9.45-.01,18.89,0,28.34,0Z"/>
    <path class="cls-22" d="m129.81,287.3c-1.57-.18-2.96-.73-4-1.99-5.13-2.13-5.97-6.24-4.86-11.03,2.16-9.31,4.45-18.61,7.33-27.72,3.18-10.04,5.75-20.25,9.19-30.23,2.31-6.72,6.44-10.01,12.92-11.22,1.78-.33,3.58-.68,5.4-.73.66,0,1.33,0,1.99,0,5.91-1.66,11.92-2.79,18.06-2.97,5.43-.17,9.74,1.88,13.42,6.2,4.51,5.28,8.96,10.64,13.65,15.77,2.81,3.07,4.89,6.67,7.01,10.21,2.13,3.54,3.72,7.35,6.82,10.33,2.66,2.55,2.64,5.35-1.21,7.08-1.69.76-1.83,1.87-1.64,3.61,1.02,9.06-3.82,15.39-12.13,14.61-6.43-.6-6.87.42-7.29,7.09-.39,6.33-1,7.02-7.1,8.14q-8.36,1.53-8.92,9.74c-.4,5.78-1.99,6.66-7.6,5.94-14.48-1.85-27.75-7.34-41.05-12.82Z"/>
    <path class="cls-7" d="m236.07,308.27c-5.67,0-9.66-.1-13.65.03-3.24.11-4.86-1.56-4.57-4.49,1.61-16.5,5.36-32.33,15.04-46.23,1.58-2.28,3.56-3.09,6.27-3.29,18.08-1.35,36.19-.78,54.29-1.01,6.43-.08,10.47,2.61,13.45,8.26,3.33,6.33,6.32,12.78,9.01,19.38,1.99,4.89.87,7-4.28,8.36-5.68,1.5-10.24,5.34-15.77,7.21-10.61,3.58-21.1,7.18-32.39,8.63-9.68,1.24-19.14,4.1-27.38,3.16Z"/>
    <path class="cls-22" d="m383.51,202.52c-1.97,7.07-3.94,14.77-6.29,22.36-2.89,9.34-6.93,18.24-11.79,26.69-6.93,12.05-16.54,21.38-29.18,27.52-3.89,1.89-6.33.48-8.46-2.53-2.3-3.26-3.86-6.88-5.24-10.61-1.71-4.64-2.9-9.54-6.17-13.49-1.8-2.17-1.47-4.08-.12-6.72,8.07-15.81,19.39-29.55,28.1-44.94,1.83-3.24,4.36-4.37,8.12-4.51,8.66-.32,17.21,1.05,25.83,1.23,2.54.05,5.61.42,5.2,5Z"/>
    <path class="cls-7" d="m129.81,287.3c2.57-.03,4.88,1.02,7.17,1.94,11.42,4.63,23,8.55,35.38,9.82,3.39.35,4.66-.55,4.44-3.88-.12-1.82-.04-3.66-.01-5.48.05-4.05,1.4-6.7,6.16-6.47,2.1.1,4.24-.84,6.37-.85,3.05-.01,3.6-1.66,3.46-4.16-.08-1.49,0-2.99,0-4.49,0-4.45,1.83-6.91,6.66-6.44,1.81.18,3.66-.04,5.48.04,3.27.14,5.14-1.04,6.03-4.5.86-3.34,3.12-5.99.45-9.92-1.79-2.63,1.69-3.24,3.74-3.53,2.8-.4,3.41-2.26,1.38-3.52-6.54-4.06-6.51-12.06-11.07-17.26-4.86-5.54-8.34-12.26-14.47-16.73-3.12-2.28-3.76-6.54-8.15-8.27-6.02-2.39-11.48,0-17.15.18-2.58.08-5.24.55-7.89.6,12.12-7.77,26.44-5.03,36.1,6.65,8.88,10.72,17.26,21.8,25.46,33.04,2.48,3.4,3.06,6.64,1.83,10.19-3.46,10-7.13,19.93-10.86,29.83-2.2,5.84-2.56,12.25-6.13,17.72-1.69,2.6-3.37,3.51-6.36,3.53-10.39.09-20.29-2.64-30.36-4.55-11.83-2.25-22.94-6.39-33.89-11.16-1.34-.59-2.52-1.55-3.77-2.34Z"/>
    <path class="cls-7" d="m155.79,204.39c-1.43,1.67-3.43,1.65-5.38,2.09-5.67,1.27-9.7,3.97-12.07,10.1-4.69,12.11-7.03,24.86-10.62,37.22-2.16,7.42-4.79,15.01-5.88,22.88-.56,4.07,2.25,5.96,3.98,8.64-6.02-1.16-8.22-4.44-6.49-11.7,3-12.68,6.83-25.14,10.83-37.56,2.49-7.71,5.13-15.38,7.67-23.07,2.34-7.1,10.92-11.07,17.97-8.59Z"/>
    <path class="cls-22" d="m427.56,204.4c-.64-1.78-2.37-3.26-1.26-5.49.93-1.89,2.48-4.95.37-5.7-2.96-1.05-5.91-4.13-9.6-2.01-3.53,2.02-7.01,4.13-10.51,6.2,4.42-5.83,10.1-10.43,15.14-15.65,2.4-2.49,5.09-1.72,7.83-1.3,1.4,8.15,1.83,16.23-1.98,23.95Z"/>
    <path class="cls-7" d="m125.82,210.39c4.05-7.73-.67-11.6-6.19-16.01-6.2-4.95-13.4-8.94-17.77-15.97,3.51.42,5.5,3.39,8.26,5.06,5.37,3.23,9.69,7.92,14.74,11.69,6.49,4.84,6.44,8.81.96,15.24Z"/>
    <path class="cls-7" d="m88.84,265.33c4.02,1,8.11,1.77,11.76,3.87,2.85,1.64,4.24.24,5.17-2.4,1.86-5.28,3.86-10.51,5.66-15.8.67-1.96,1.42-3.71,3.39-4.65-2.15,8.12-4.71,16.09-7.92,23.86-.75,1.8-1.81,3.22-3.5,2.64-5.19-1.8-10.47-3.54-14.57-7.51Z"/>
    <path class="cls-7" d="m114.83,244.36c.88-4.63,1.9-9.21,4.99-12.99-.51,4.78-.96,9.57-4.99,12.99Z"/>
    <path class="cls-7" d="m74.86,256.34c4.47.71,6.81,4.45,9.99,7-4.33-.9-7.54-3.4-9.99-7Z"/>
    <path class="cls-7" d="m234.73,320.27c-5.33,1.6-10.66,1.61-15.99,0,5.33,0,10.66,0,15.99,0Z"/>
    <path class="cls-7" d="m122.83,220.39c.95-3.35.23-7.19,2.99-10-.31,3.54-.51,7.11-2.99,10Z"/>
    <path class="cls-7" d="m70.02,253.28c4.15-3,3.06,2.29,4.84,3.06-2.06-.31-3.54-1.54-4.84-3.06Z"/>
    <path class="cls-4" d="m212.72,363.28c7.68,0,15.36,0,23.04.01-7.68,1.46-15.36,1.44-23.04-.01Z"/>
    <path class="cls-4" d="m319.69,348.22c7.79-2.59,14.52-7.9,22.9-8.96-.83,1.96-2.56,3.19-4.34,3.77-6.1,2.02-11.87,5.29-18.57,5.19Z"/>
    <path class="cls-4" d="m349.64,336.22c2.12-2.39,4.86-3.51,7.95-3.95-2.01,2.61-4.74,3.77-7.95,3.95Z"/>
    <path class="cls-2" d="m612.35,195.33c-3.33,2.98-6.65,5.96-9.98,8.93-7.44,2.74-14.78,5.73-23.03,5-15.4-1.35-28.99-6.8-40-17.78-4.08-4.07-8.2-8.3-10.34-13.9-.99-2.6-2-1.75-3.44-.23-1.44,1.51-3.08,3.62-5.48,2.62-2.86-1.2-1.63-4.06-1.58-6.21.13-5.18,3.08-9.74,3.41-14.98.15-2.46,8.27-5.9,11.11-4.85,3.28,1.21,5.52,3.12,4.73,7.49-.72,3.96,2.07,7.28,4.02,10.47,11.04,18.02,34.46,28.15,55.14,23.44,8.48-1.93,15.44-7.34,22.84-12.87-1.11,5.47-5.41,8.53-7.38,12.87Z"/>
    <path class="cls-24" d="m615.7,131.39c4.25-.07,6.59,1.69,6.66,5.49.08,3.75-2.75,5.22-5.87,5.35-3.38.13-5.7-1.94-5.89-5.39-.2-3.66,2.13-5.27,5.1-5.44Z"/>
    <path class="cls-18" d="m419.54,233.35c-.42-4.49.36-5.97,4.14-7.83-1.38,2.61-2.76,5.22-4.14,7.83Z"/>
    <path class="cls-21" d="m412.55,257.31c.52-6,1.37-11.91,5.11-16.95,2.09.45,1.82,1.88,1.62,3.48-.52,4.01-.78,7.9,4.26,9.59,1.83.61,2.48,2.21,1.26,4.02-.82,1.21-1.42,2.38.1,3.41,1.23.84,2.57,1.77,4.07.51,1.84-1.56,3.24-.39,4.93.44,5.59,2.73,8.72,1.55,11.36-4.07.5-1.07.83-2.08,2.25-2.35,2.98-.58,9.76,2.23,11.14,4.88.86,1.65,2.19,2.65,3.9,2.63,1.71-.02,3.42-.88,3.79-2.7,1.03-4.98,5.74-4.8,8.96-5.85,2.93-.95,2.16,2.4,1.86,4.15-.14.84-1.05,1.7-1.82,2.26-1.51,1.09-3.28,1.99-2.55,4.28.53,1.66,2.09,2.03,3.6,2.22,2.26.28,4.61.08,5.56-2.27,1.09-2.69,2.49-4.44,5.56-4.96,2-.34,2.53-2.47,2.89-4.29.26-1.29.08-3.6,1.09-3.6,7.65-.03,11.23-11.18,20.29-7.23,3.07,1.34,5.56-.6,7.4-2.83,3.32-4.04,7.5-5.8,12.62-5.73,2.11.03,4.05-.72,5.36-2.28,3.48-4.16,8.12-4.74,13.05-4.7,3.45.03,7.12-2.19,9.55-2.18,5.18.03,8.67-3.71,13.34-3.76,2.63-.03,3.4,1.64,3.33,3.95-2.63-1.9-5.19-4.07-7.87.06-.44.68-1.76,1.15-2.65,1.13-3.55-.08-7.27-1.12-7.89,4.46-.17,1.56-2.77,1.33-4.45,1.32-3.96-.03-7.91,0-12,0,.51,1.56,3.14.86,2.5,2.83-.55,1.68-2.27,1.37-3.44,1.1-8.93-2.09-15.81,2.77-22.44,7.21-3.58,2.4-7.72,4.58-10.13,8.65-.89,1.5-2.58.69-4.08.66-4.68-.12-9.29-.46-12.85,4.16-2.48,3.22-6.35,5.15-9.13,8.5-1.85,2.24-6.86,1.2-10.2,2.9-1.72.87-3.28,1.49-3.32,3.79-.05,2.75-2.17,3.79-4.34,4-3.47.33-6.98.19-10.48.13-.77-.01-1.66-.37-2.26-.86-5.04-4.09-5.37-3.97-7.01,2.72-.14.55-.63,1.02-1.53,2.4-.51-4.03-.95-7.12-1.87-10.12-.44-1.43-1.1-1.95-2.36-1.96-1.23-.01-2.62.3-2.37,1.84.63,3.85-1.75,4.21-4.49,4.04-3.26-.21-7.56,1.49-8.76-3.39-.98-4-4.22-6.88-4.84-11.07-.23-1.55-.97-4.08-4.13-2.32-1.78,1-1.15-1.3-1.49-2.2Z"/>
    <path class="cls-21" d="m590.41,229.37c-2.16-1.54-4.88.84-6.99-1,1.52-2.39-.26-3.15-1.95-4.01-1.06-.54-2.18-1.3-1.75-2.64.61-1.91,1.94-.68,2.8-.24,1.89.96,3.08.47,4.05-1.32,1.46-2.68,3.49-3.19,6.19-1.63,3.76,2.17,7.98,1.74,12.09,2.03,1.28.09,3.72.22,3.53,1.77-.26,2.14-2.02,1.27-3.44.51-1.31-.7-1.86.17-2.56,1.37-2.96,5.05-5.21,5.4-9.08,1.61-1.1-1.08-2.2-1.47-3.51-.52-2.41,1.74.39,2.73.62,4.09Z"/>
    <path class="cls-21" d="m571.29,228.71c.91.24,1.07,1.04.8,1.87-.26.8-.87,1.58-1.8,1.14-.41-.19-.69-1.06-.69-1.62,0-.89.5-1.54,1.69-1.39Z"/>
  </g>
</svg>