<?xml version="1.0" encoding="UTF-8"?>
<svg id="Layer_2" data-name="Layer 2" xmlns="http://www.w3.org/2000/svg" viewBox="0 0 683.54 490.78">
  <defs>
    <style>
      .cls-1 {
        fill: #18642c;
      }

      .cls-2 {
        fill: #267436;
      }

      .cls-3 {
        fill: #135527;
      }

      .cls-4 {
        fill: #297033;
      }

      .cls-5 {
        fill: #165636;
      }

      .cls-6 {
        fill: #2a7f39;
      }

      .cls-7 {
        fill: #165535;
      }

      .cls-8 {
        fill: #14572a;
      }

      .cls-9 {
        fill: #013c29;
      }

      .cls-10 {
        fill: #1f652e;
      }

      .cls-11 {
        fill: #297133;
      }

      .cls-12 {
        fill: #78c576;
      }

      .cls-13 {
        fill: #023c28;
      }

      .cls-14 {
        fill: #78c675;
      }

      .cls-15 {
        fill: #013c2a;
      }
    </style>
  </defs>
  <g id="Layer_1-2" data-name="Layer 1">
    <path class="cls-6" d="m151.89,246.82c-9.13-.05-18.18,1.39-27.34,1.26-22.38-.3-43.62-4.99-63.88-14.64-18.97-9.04-33.58-22.56-44.64-40.34C1.7,170.08-1.89,145.07.85,118.58c3.51-34.06,18.44-62.52,43.1-85.59C63.13,15.03,86.26,4.32,112.67,1.09c27.16-3.32,53.01.82,77.1,13.74,17.25,9.26,30.8,22.78,41.55,39.17,9.96,15.2,15.92,31.94,19.93,49.53.66,2.9-.37,6.05,1.49,8.7,2.34,2,2.09,4.73,1.83,7.32-.37,3.62-.29,7.23-.12,10.85.02,9.85-2.77,19.31-4.23,28.95-.76,3.13-1.6,6.24-3.38,9-2.07,2.18-4.12,4.46-4.8,7.44-1.43,6.28-6.62,10.23-9.44,15.66-1.12,2.16-3.65,2.1-5.81,2.12-2.46.02-3.43,1.24-4.69,3.4-5.08,8.69-11.88,17.06-23.43,13.69-1.69-.49-3.55-.68-4.4,1.15-2.8,6.07-8.9,8.18-13.89,11.38-9.56,6.11-19.24,12.05-29.42,17.88,2.1,1.86,5.98,1.25,6.04,4.96-1.6.95-3.52-.19-5.12.8Z"/>
    <path class="cls-10" d="m151.89,246.82c1.45-1.4,3.29-.75,4.97-.94.73-1.21,1.81-1.97,3.18-2.21,15.52-2.66,30.42-2.86,43.08,8.92,6.44,5.99,14.15,10.37,21.6,15.01,2.27,1.41,4.86,2.12,7.5,2.62,2.87.55,5.2.81,7.29-2.31,3.86-5.76,12.44-5.04,16,.97.33.56.54,1.21,1.8,1.28,1.47-2.86,1.08-8.01,6.68-7.21,4.69.67,7.62,3.09,7.72,5.98-3.38-6.07-.66-14.4-.53-22.66,2.14-1.6,2.97.29,3.82,1.58,1.1,1.66,2.05,3.5,2.6,5.38,2.91,9.9,10.13,16.59,17.13,23.47,1.79,1.76,3.4,3.65,5.02,5.55,1.67,1.95,2.35,4.17,1,6.44-2.32,3.88-1.12,7.21,1.17,10.55.83-.9.38-1.94.5-2.88.83-6.47,4.37-8,10.07-4.74,4.32,2.48,7.86,7.07,13.82,5.64.97-.23,1.98-.27,2.91-.66,1.91-.8,2.1-1.96.65-3.4-.71-.71-1.55-1.26-2.45-1.7-14.92-7.29-26.74-18.47-38.04-30.3-4.08-4.27-7.27-9.26-9.29-14.7-5.47-14.73-14.74-27.15-23.6-39.82-4.11-5.88-5.46-12.82-8.52-19.08-.67-1.37-.34-3,.36-4.36,1.47-2.87,1.92-6,2.54-9.1,1.44-7.15,3.02-8.2,10.31-7.03,5.86,3.48,11.64,7.08,17.16,11.08,3.01,2.18,5.39,4.93,6.94,8.35,2.75,6.05,6.04,11.89,8.33,18.12,5.03,13.72,14.72,23.91,24.77,33.89,20.56,20.4,45.81,31.86,73.42,39.27,22.71,6.1,45.79,7.55,69.1,7.47,3.14.2,6.28.37,9.34-.63,18.3-2.33,36.66-4.27,54.51-9.27,19.44-5.44,38.06-12.88,56.1-21.95,8.94-4.49,17.55-9.38,25.8-15.06,7.38-5.08,14.33-10.22,16.81-19.41,5.1,1.4,10.13,3.08,15.3,4.11,6.05,1.21,10.68,4.78,14.68,8.86,3.72,3.79,2.42,8.75.21,13.06-2.51,4.9-6.06,9.08-9.82,13.1-1.14,1.22-3.66,2.14-2.6,4.27.87,1.73,3.18,1.3,4.99,1.59,10.46,1.66,21.16,1.81,31.4,4.93,2.43.74,4.91,1.43,5.69,4.23.82,2.91-1.15,4.7-3.04,6.35-10.93,9.55-23.71,15.05-37.97,17.44-11.82,1.98-23.35.67-34-4.42-7.36-3.52-13.54-.42-20,1.33-5.05,1.37-9.69,4.19-14.68,5.89-2.37.81-3.24,2-3.26,4.24,1.11,2.76,2.82,5.18,5.16,6.91,2.42,1.8,2.59,3.79,1.16,5.99-1.7,2.61-3.6,1.38-5.44-.08-4.95-3.95-10.76-2.44-16.22-2.11-2.79.17-2.93,2.64-1.78,4.99.58,1.18,1.39,2.58.4,3.73-1.25,1.47-2.81.34-4.08-.22-3.8-1.65-8.15-1.68-11.72-4.01-.84-.55-2.02-.77-2.88-.28-5.32,2.99-11.76,2.1-17.07,5.03-4.67,2.58-10.04,1.86-14.95,3.28-21.84,4.9-44.04,3.62-66.09,3.17-12.41-.26-24.85-2.13-37.15-4.23-3.16-.54-5.48-1.61-7.04-5.25-1.46-3.4-4.9-6.28-9.39-6.19-4.8.09-9.05-.56-10.6-6.08-.35-1.26-1.55-1.61-2.66-2.04-6.66-2.56-12.65-.8-16.73,4.98-.68.97-1.42,2.14-2.57,2.23-7.32.59-14.66,3.22-21.89-.84-8.59-4.83-10.22-4.5-17.91,1.92-3.4,2.84-5.4,6.71-7.97,10.18-1.39,1.88-2.08,4.72-5.2,4.78-10.9-3.34-21.98-6.08-32.7-10.02-8.73-3.21-17.31-6.7-25.35-11.42-2.42-1.42-3.68-1.05-3.85,1.94-1.08,18.9-1.64,37.78-.28,56.73.85,11.76,1.68,23.47,4.25,34.98,2.77,12.44,5.42,24.93,10.03,36.89,2.19,5.7,2.49,11.73,1.83,17.68-.62,5.57-7.85,8.49-15.01,6.52-12.86-3.53-24-10.42-34.69-18.05-16.66-11.88-31.15-26.06-41.53-43.75-8.59-14.64-14.59-30.41-16.69-47.53-2.45-19.97-.1-39,9.11-57.08,4.44-8.73,11.69-14.78,18.98-20.74,7.21-5.9,7.26-5.54.66-11.78-5.05-4.77-9.86-9.81-14.5-14.98-1.81-2.01-3.77-2.43-6.15-2.39Z"/>
    <path class="cls-11" d="m297.77,329.82c5.24-7.98,9.58-16.63,18.92-21.1,3.34-1.6,5.8-2.67,8.87.27,7.25,6.93,16.2,3.45,24.53,3.65,1.31.03,1.85-1.26,2.28-2.36.63-1.61-.17-4.23,2.12-4.64,3.68-.65,7.08-2.92,11.04-2.01,1.94.44,3.87.98,5.84,1.2,2.24.25,3.26,1.37,3.33,3.54.11,3.72,2.29,4.6,5.65,4.54,3.95-.08,8.57-1.42,10.59,3.97.12.31,1.19.48,1.76.38,3.5-.65,3.39,1.37,2.32,3.44-1.27,2.45-.04,2.72,1.9,3.17,10.03,2.31,20.33,2.55,30.48,3.93,16.37,2.22,32.85,1.01,49.26.87,8.98-.07,17.94-1.84,26.91-2.85,6.36-.07,9,3.44,8.96,11.91-2.23.71-4.47,1.36-6.85,1.15-19.9,8.05-40.58,12.3-62.03,12.83-9.58,1.29-19.23,1.33-28.85.99-7.94-.28-15.86-1.19-23.8-1.76-1.61-.11-3.63-.86-4.73.57-1.2,1.54.4,3.11,1.03,4.58,7.58,17.72,15.49,35.26,26.56,51.2,7.49,10.79,15.87,20.82,24.44,30.74,10.1,11.68,22.04,21.65,31.34,34.04,5.9,7.86,3.57,14.22-5.93,16.62-14.21,3.59-28.46,1.93-42.54-.29-26.24-4.14-50.69-13.31-72.71-28.38-20.95-14.33-37.93-32.34-48.73-55.46-11.44-24.49-12.75-49.53-1.97-74.74Z"/>
    <path class="cls-3" d="m623.48,218.96c1.51,7.56-3.7,11.75-8.54,15.57-13.3,10.5-28.08,18.72-43.48,25.59-20.88,9.32-42.31,17.32-64.98,21.2-11.87,2.03-23.78,4.07-35.86,4.55-3.23,1.37-6.77-.39-9.99.99-14.96.67-29.93-.16-44.68-2.24-16.21-2.29-32-6.67-47.4-12.63-15.45-5.98-29.65-13.66-42.42-24.29-11.06-9.21-20.88-19.55-29-31.29-4.06-5.86-6.5-12.99-8.87-19.83-3.87-11.15-11.08-18.95-21.49-24.18-2.18-1.09-3.99-2.92-5.97-4.41-4.41-2.06-9.25-3.46-12.02-7.99-.09-8.06,3.14-15.64,3.45-23.65.07-1.78.4-3.55.61-5.32,1.03-2.55.22-5.21.47-7.8.08-.8-.16-1.86.73-2.17,1.06-.37,1.82.44,2.42,1.26.29.4.55.85.64,1.33,1.15,5.98,3.54,11.84,3.19,17.97-.3,5.2.99,9.39,4.57,12.99,1.32,2.38,3.19,4.18,5.5,5.62,5.79,3.61,11.73,7.52,18.21,9.04,11.31,2.64,22.67,1.02,33.35-3.8,2.23-1.01,3.66-3.21,4.86-5.5,5.49-10.55,11.36-20.9,15.55-32.08.52-1.39,1.3-2.63,2.31-3.72,3.15-3.21,4.75-7.23,5.95-11.46,2.11-4.32,5.03-8.18,7.04-12.55,2.06-4.49,1.68-6.97-2.01-10.14-11.05-9.49-21.51-19.66-32.88-28.79-1.59-1.28-3.71-2.42-2.99-5.13,3.31-2.66,7.36-3.94,11.03-5.92,6.82,3.64,12.22,9.09,17.87,14.19,7.17,6.46,14.93,12.19,22.12,18.6,4.03,3.59,8.94,4.2,13.95,4.36,6.31.2,12.63.07,18.94.06,16.28-.04,32.51.87,48.75,1.83,7.82.46,14.75-1.61,20.41-7.32,5.14-5.19,10.45-10.2,15.27-15.72,3.33-3.82,6.26-8.26,11.47-10,3.55.66,6.39,2.62,9.03,4.95,1.09,2.65-.67,4.52-1.99,6.3-5.74,7.75-12.08,15-18.86,21.84-4.7,4.74-4.96,6-1.01,11.34,9.68,13.09,18.08,26.98,25.73,41.33,1.34,2.5,3.39,4.5,4.86,6.92-2.19-3.87-1.67-5.73,1.96-6.94.63-.21,1.29-.36,1.96-.37,14.13-.29,28.25-.29,42.38,0,2.92.06,5.08,1.64,6.13,4.36,1.42,3.68,4.38,3.52,7.45,3.3,3.49-.24,3.5-2.89,3.84-5.4.29-2.15.62-4.56,3.18-5.12,2.37-.51,3.35,1.73,4.65,3.17,2.23,2.47,3.4,5.7,5.69,8.14,3.1,3.54,4.72,7.95,6.95,12-.75,4.05,1.5,7.39,3.12,10.61,2.21,4.4,5.19,8.4,6.42,13.29.16.62.66,1.14,1.46,1.07,2.31,4.07,3.85,8.45,4.97,12.98-.42,3.74.85,6.98,2.98,9.95,1.46,2.86,2.91,5.73,3.04,9.04Z"/>
    <path class="cls-4" d="m512.54,337.73c-1.03-1.05-1.99-2.04-2-3.75-.02-4.6-2.49-7.28-6.96-8.16,8.54-.18,15.75-5.73,24.27-5.99.33-.01.69.03.99-.08,3.9-1.42,7.13-5.29,12.1-.98,3,2.6,8.33,1.43,11.75,4.46.96-1.47-.51-1.88-.75-2.72-.49-1.72-3.26-2.85-1.31-5.2,1.7-2.05,3.96-3.4,6.5-2.94,2.83.51,5.62.49,8.42.44,2.98-.06,5.66.17,7.16,3.28.35.73.97,1.53,1.94,1.18,1.23-.44,1.54-1.66,1.74-2.8.14-.8.07-2.2-.79-2.02-3.8.79-3.31-1.7-3.43-3.97-.09-1.65-3.38-2.13-1.77-4.51,17.12,20.93,41.15,31.48,64.51,43.07,7.89,3.91,15.71,7.95,23.5,12.05,11.94,6.28,9.26,13.61,3.38,20.49-11.25,13.16-25.8,21.14-43.23,23.24-26.7,3.21-48.74-6.9-67.81-24.52-12.81-11.84-24.96-24.37-34.88-38.84-.88-1.29-1.95-1.67-3.33-1.71Z"/>
    <path class="cls-1" d="m263.8,156.02c-4.4-4.11-5.57-8.87-5.32-15.06.26-6.24-2.06-12.59-3.39-19.65-2.52,3.41.05,7.15-2.26,9.74-.03-6.27-.07-12.55-.1-18.82,16.98-19.84,35.31-38.16,57.93-51.71,2.39-1.43,5.26-2.09,7.12-4.37.65-.01,1.3-.03,1.95-.04,5.75,5.19,11.46,10.43,17.28,15.55,6.94,6.12,14,12.1,20.94,18.22,3.61,3.18,3.3,7.1,1.24,10.88-2.3,4.21-4.96,8.21-7.47,12.3-2.25,3.87-3.67,8.15-5.99,11.99-.67,1-1.33,2-2,3-1.47,2.76-3.27,5.26-4.38,8.3-2.89,7.94-7.82,14.91-11.56,22.47-1.7,3.43-4.66,4.35-8.45,3.05-3.75-1.29-7.91-1.71-9.79-6.04-.39-.89-1.18-1.7-2.39-1.27-1.1.39-1.29,1.42-1.48,2.41-.28,1.48-.21,2.98-.28,4.48-.27,5.85-1.73,7.36-7.54,8.7-7.9,1.82-14.23-2.28-20.74-5.42-4.79-2.31-9.27-5.23-13.33-8.72Z"/>
    <path class="cls-1" d="m499.56,56.18c-9.65,10.04-18.33,20.98-29.18,29.89-5.98,4.91-12.7,5.26-19.64,4.69-2.79-.23-5.58-.59-8.4-.68-19.6-.62-39.19-1.49-58.8-.93-8.71.25-14.36-5.07-20.25-10.06-10.36-8.78-20.59-17.72-30.9-26.55-.79-.67-1.53-1.25-1.62-2.35,3.05-1.21,6.37-1.78,8.98-3.99,12.24-3.54,24.31-7.64,37.04-9.29,15.62-2.03,31.15-3.51,47-1.98,15.38,1.49,30.56,3.67,45.32,8.2,10.59,3.25,21.09,6.87,30.45,13.05Z"/>
    <path class="cls-1" d="m594.54,150.02c-4.3-1.04-4.46-5.97-7.61-8.08-1.02-.68-1.24-2.86-2.91-2.08-1.2.56-1.33,2.16-1.49,3.53-.85,7.68-1.42,8.12-9.02,7.63-2.72-.18-4.83-.74-5.09-4.14-.21-2.8-2.25-3.85-4.92-3.85-13.98,0-27.96,0-41.95,0-1.71,0-3.58.17-4.43,1.75-1.14,2.11,1.54,2.06,2.26,3.16.85,1.3,1.45,2.63.93,4.21-.22.67-.66,1.27-1.41,1.1-1.46-.33-1.79-1.8-2.63-2.8-8.03-9.61-12.18-21.57-19.58-31.7-4.7-6.42-8.79-13.49-13.61-19.98-2.53-3.41-1.2-6.52,2.72-10.3,8.59-8.26,16.79-16.91,22.77-27.37,8.96,3.45,16.13,9.7,23.71,15.27,17.93,13.16,32.85,29.34,46,47.13,5.4,7.3,10.8,14.68,15.07,22.77.64,1.22,1.17,2.35,1.17,3.72Z"/>
    <path class="cls-10" d="m443.66,351.71c8.48-3.09,17.54-2.95,26.29-4.57,10.3-1.9,20.28-4.82,30.37-7.43,1.78-.46,3.49-1.08,5.37-.83-.54,2.16-2.38,2.66-4.16,3.03-3.76.78-3.74,2.39-1.81,5.33,5.72,8.69,11.9,17.03,18.11,25.37,4.14,5.56,8.12,11.27,11.23,17.49,3.08,6.15,1.71,8.64-4.96,9.74-15.24,2.51-29.41-.91-43.44-6.83-9.08-3.83-16.19-9.85-22.19-17.13-4.91-5.94-8.75-12.8-11.94-19.91-.7-1.57-.52-3.78-2.86-4.26Z"/>
    <path class="cls-1" d="m612.5,186.99c-.34.57.56,2.43-1.09,1.51-.95-.53-1.62-2.12-1.83-3.33-.63-3.72-2.31-6.84-4.95-9.42-3.14-3.07-2.79-7.6-4.88-11.11-.59-1,.66-2.06,1.75-2.62,4.72,7.86,7.69,16.49,11,24.97Z"/>
    <path class="cls-1" d="m620.45,209.92c-4.36-2.27-3.88-6.8-4.64-10.62-.14-.72,1,.6,1.66.66,1.81,3.07,1.96,6.64,2.98,9.95Z"/>
    <path class="cls-2" d="m271.8,245.91c.71,5.24,1.93,10.48-.68,15.61-.58,1.15.07,2.32.98,3.13,1.52,1.33,1.66,3.2,2.07,4.95.44,1.85,1.75,4.37-1.07,4.99-3.04.67-3.37-1.96-3.28-4.26.09-2.32-.22-4.01-2.9-4.98-5.76-2.09-6.33-1.93-7.12,4.1-.26,1.97-.85,3.85-3.02,3.91-1.9.05-2.77-1.66-2.92-3.45-.16-1.97-.51-3.95-2.89-3.89-3.2.08-8.37-1.81-9.24,1.24-2.33,8.12-7.71,5.18-12.12,4.14-3.32-.79-6.75-1.98-9.44-5.06-2.18-2.5-6.11-3.03-9.06-5.34-7.61-5.96-14.66-12.99-24.22-16.08-1.25-.4-2.53-.92-3.82-.97-8.81-.37-17.56.28-26.22,1.92-2.82-2.75-6.63-2.63-11.57-3.66,4.76-1.32,7.56-3.82,10.24-5.97,4.44-3.56,10.58-4.16,14.18-9.12,1.63-2.24,5.23-2.95,7.77-3.82,4.97-1.7,7.11-7.47,12.73-7.82,1.49-.09,1.41-1.99,1.8-3.25,1.05-3.41,2.95-4.87,6.74-3.4,6.46,2.51,12.2.48,15.85-5.32.76-1.21,1.87-1.84,3.03-2.47,1.68-.9,3.34-2.1,3.11-4.13-.58-5.13,2.57-5.33,6.16-4.93,3.11.35,4.61-.84,5.87-3.82,1.94-4.59,7-7.47,7.72-12.82.48-3.51,2.65-5.56,5.33-7.36,2.18,2,1.73,4.59,1.33,6.99-1.29,7.66-.5,15.25.65,22.81.65,4.31,2.17,8.37,4.79,11.92,7.31,9.9,13.87,20.25,18.77,31.58.65,1.5,1.76,2.93.45,4.6Z"/>
    <path class="cls-12" d="m175.87,90.01c9.14,10.33,13.12,22.28,10.48,35.92-3.07,15.84-15.6,26.87-32.13,28.88-14.2,1.73-30.39-7.6-37.03-21.41-1.73-3.6-3.22-7.31-3.47-11.38,2.76-4.72,6.82-7.26,12.35-7.31,2.26,2.1,2.18,5.1,2.95,7.77,3.95,13.74,19.36,20.74,31.27,14.17,12.36-6.81,15.05-22.67,5.86-34.36-1.5-1.9-3.82-3.36-3.67-6.25,3.61-3.89,7.64-6.86,13.38-6.05Z"/>
    <path class="cls-1" d="m271.8,245.91c-5.45-11.12-10.55-22.49-18.54-32.08-6.48-7.79-7.64-17-8.47-26.48-.57-6.51,1.3-12.87,1.03-19.35.99-2.66,1.97-5.32,2.96-7.99,4.27,2.27,8.6,4.44,12.02,7.99-5.17-.84-8.11.76-8.48,6.57-.21,3.34-.42,6.98-2.97,9.83-.51.56-.51,2.01-.19,2.82,4.36,10.94,9.68,21.32,17,30.65,6.38,8.14,10.94,17.34,14.88,26.87,6.07,14.69,17.78,24.56,29.76,34.05,5.8,4.6,11.57,9.37,18.7,12.06,2.06.78,4.54,2.33,3.86,5.09-.61,2.46-3.43,2.17-5.4,2.84-7.05,2.4-11.43-2.88-16.52-5.93-1.72-1.03-3.16-2.81-5.28-1.43-1.97,1.28-2.5,3.43-2.3,5.71.06.65.35,1.28.46,1.93.3,1.63-.22,3.38-1.6,3.82-2,.64-2.06-1.61-2.68-2.8-2.26-4.42-4.09-8.77.02-13.33,1.34-1.49-.6-2.67-1.59-3.67-5.22-5.25-10.16-10.76-15.45-15.96-4.75-4.67-5.76-11.79-8.83-17.64-.68-1.3-.79-2.92-2.39-3.59Z"/>
    <path class="cls-13" d="m106.04,165.8c18.21.33,32.92,7.79,44.17,22.05,1.91,2.42,3.36,5.36,4.38,8.29.71,2.04,1.29,4.89-1.29,6.28-2.36,1.27-4.77.83-6.77-1.29-5.13-5.45-10.76-10.17-17.22-14.16-16.69-10.33-41.47-7.83-55.98,7.1-3.47,3.57-7.18,6.88-10.18,10.92-1.5,2.03-3.26,5.06-6.35,3.58-3.09-1.47-1.95-4.65-1.1-7.09,6.31-18.16,18.9-29.55,37.45-34.44,4.22-1.11,8.53-1.19,12.9-1.24Z"/>
    <path class="cls-7" d="m125.92,115.04c-4.45,1.66-8.22,4.5-12.19,6.98-.62.09-1.41.48-1.84.24-4.33-2.47-4.64-7.11-5.15-11.19-.5-3.91,3.29-4.83,6.21-6.02,14.1-5.71,27.34-13.14,40.68-20.36,6.09-3.29,12.16-6.64,18.42-9.6,5-2.36,10.14.38,11.57,5.73.82,3.06-.39,5.1-3.16,6.47-1.58.79-3.67.77-4.58,2.7-4.27,2.09-8.54,4.18-12.81,6.27-1.06,1.46-1.99,3.02-3.69,3.91-10.82,5.7-21.62,11.46-33.46,14.86Z"/>
    <path class="cls-9" d="m70.04,125.09c-3.35,9.09-6.78,18.12-17.1,21.75-2.6,2.49-5.86,2.34-8.9,1.67-15.36-3.37-21.07-21.31-13.99-33.53.42-.72,1.11-1.21,1.86-1.61,1.26-.54,2.58-.56,3.89-.26,10.15,2.29,20.51,3.49,30.61,6.04,3.36.85,4.98,2.4,3.62,5.94Z"/>
    <path class="cls-5" d="m70.04,125.09c-.25-1.53.39-3.49-2.01-3.95-12.15-2.33-24.29-4.67-36.43-7.01-3.97,1.14-7.75.24-11.5-1.04-2.64-3.2-6.1-5.72-3.87-11.09,1.57-3.78,3.35-5.54,7.24-4.58,10.93,2.69,21.84,5.51,32.76,8.25,4.82,1.21,9.69,2.23,14.48,3.55,5.66,1.55,6.6,4.63,2.35,8.72-2.21,2.13-1.35,5.07-3.01,7.15Z"/>
    <path class="cls-14" d="m20.1,113.09c4.03-1.87,7.7.33,11.5,1.04-3.78,8.46-4.64,16.9.89,24.94,4.96,7.2,12.1,9.21,20.45,7.77-1.2,5.44-6.52,7.25-10.17,9.84-2.89,2.05-7.51-1.27-10.79-3.49-11.42-7.73-16.41-21.2-13.11-34.78.43-1.76.81-3.54,1.22-5.31Z"/>
    <path class="cls-8" d="m460.63,286.86c3.17-2,6.67-.56,9.99-.99-3.17,2-6.67.57-9.99.99Z"/>
    <path class="cls-8" d="m489.6,132.05c7.89,9.59,12.28,21.01,16.94,32.29.51,1.23.86,2.56,1.58,3.65,4.1,6.16,5.02,12.09.78,18.89-4.27,6.85-6.88,14.61-10.87,21.71-3.29,5.85-6.17,12.05-8.96,18.15-7.76,16.91-15.66,19.03-33.9,17.79-12.61-.86-25.19-.96-37.79,0-10.96.83-21.93.3-32.9.28-2.05,0-3.13-1.57-3.81-3.44-2.57-7.03-8.66-11.58-12.59-17.67-.78-1.2-2.17-2.04-2.47-3.6-1.54-8.03-7.19-13.1-12.45-18.81-4.26-4.62-6.74-10.9-9.96-16.46-.41-.71-.36-1.77-.88-2.3-9.01-9.07-2.91-17.57.84-26.24,4.14-9.59,8.89-19.01,14.1-27.88,5.66-9.62,9.34-21.47,21.02-26.65,2.34-1.04,4.59-1.7,7.17-1.69,17.14.06,34.33-.82,51.39.35,10.01.69,20.3-1.14,30.12,2.27,1.96.68,3.72,1.42,4.66,3.39-1.58,1.3-3.21.55-4.7-.07-4.73-1.97-9.65-2.19-14.69-2.22-10.97-.06-21.94.35-32.92-.8-11.95-1.26-23.9,1.39-35.89.76-3.39-.18-5.77,2.28-8.09,4.47-4.52,4.28-7.8,9.36-10.3,15.07-3.91,8.91-9.58,16.89-13.7,25.7-1.46,3.11-2.18,5.99,1.9,7.88,2.14.99,3.76,1.27,4.85-1.29.59-1.38,1.23-3.11,2.6-3.56,5.33-1.76,5.27-5.96,5.48-10.42.23-4.88,10.73-14.96,15.62-15.17,6.65-.29,13.32-.24,19.97,0,3.19.11,6.05,1.12,6.86,4.65.75,3.29-1.11,5.34-3.91,6.72-1.06.52-2.22,1.11-1.99,2.52.28,1.75,1.84,1.71,3.13,1.82,3.99.33,7.99.06,11.98.18,5.81.18,11.27,1.29,15.22,6.1,1.74,2.12,4.19,1.85,6.46,1.83,4.52-.05,8.26,1.05,9.98,5.76.86,2.36,4.06,2.07,4.96,3.85,2.87,5.72,7.62,6.99,13.42,6.86,2.08-.05,3.52,1.61,4.66,3.39,3.68,5.75,10.54,5.91,14.03.26,1.54-2.5,3.66-3.75,6.51-3.98,2.82-.22,5.63-.03,8.82.38.39-3.23-.97-5.58-2.48-7.92-4.45-6.89-6.54-14.9-10.25-22.15-.75-1.46-.99-3.22.45-4.64Z"/>
    <path class="cls-1" d="m489.6,132.05c3.14,9.03,6.37,18.06,11.71,26.04,2.29,3.42,2.35,7.05,3.42,11.53-4.13-1.93-7.89-1.56-11.62-1.61-3.07-.05-5.28,1-5.47,4.38-.16,2.84-1.75,3.68-4.28,3.62-2.16-.05-4.33-.08-6.49.01-2.98.12-5.2-.33-5.37-4.12-.13-2.79-2.21-3.89-4.88-3.88-2.33,0-4.66-.03-6.99,0-2.32.02-4.13-.8-3.93-3.36.45-5.96-7.48-2.9-7.86-7.23-.53-6.14-4.7-5.49-8.67-5.35-3.82.14-6.6-.32-9.07-4.26-1.82-2.91-6.4-3.7-10.29-3.75-4.99-.06-9.98-.03-14.98-.02-2.39,0-4.62-.69-4.83-3.26-.2-2.47,1.06-4.53,4-4.71,2.86-.18,3.72-2.09,3.49-4.45-.22-2.27-1.9-3.49-4.16-3.51-7.82-.05-15.64-.02-23.46,0-1.24,0-3.03.66-2.94,1.44.8,7.02-8.7,5.24-9.18,10.96-.14,1.65-.11,3.33-.03,4.99.16,3.53.25,6.71-4.81,6.83-2.18.05-3.15,2.17-3.22,4.41-.05,1.67-.78,2.76-2.53,3.21-3.87,1-5.73-2.7-8.72-3.8-1.64-.61-.72-3.45.17-4.98,2.99-5.12,3.01-11.95,8.84-15.44.39-.23.86-.78.85-1.18-.05-7.07,6.25-11.37,7.63-17.94,1.4-6.66,13.85-14.94,20.87-14.48,6.34.41,12.57-.96,18.86-.96,17.77,0,35.51,1.5,53.3.99,4.58-.13,8.45,2.58,12.65,3.95,6.69,8.18,13.23,16.45,17.98,25.97Z"/>
    <path class="cls-8" d="m506.51,272.21c-4.52,1.07-7.13-1.2-9.11-4.68-1.72-3.03-3.48-6.05-5.02-9.17-2.63-5.29-.85-9.82,2.52-14.18,4.82-6.25,6.46-14.07,9.59-21.1,4.53-10.19,10.76-19.44,15.08-29.68,2.17-5.16,6.93-8.66,12.31-8.36,3.63.2,7.3.49,10.83,1.27,2.66.59,5.27.52,7.91.68,7.82.47,18.66,5.4,21.2,15.45,2.42,9.59,7.62,18.49,11.8,27.6,3.06,6.65,2.29,7.97-3.63,11.79-13.19,8.49-27.63,14.43-41.74,21-10.04,4.67-21.05,6.76-31.74,9.36Z"/>
    <path class="cls-8" d="m300.71,180.83c5.68,2.3,12.08-.14,18.49.13,4.34.18,7.45,1.41,10.41,5.27,11.65,15.18,21.04,31.85,32.08,47.42,2.84,4.01,4.86,8.68,6.71,13.27,1.2,2.96,2.45,6.5-.72,9.24-3.38,2.92-8.04,1.6-10.17-.26-5.23-4.56-12.12-5.88-17.25-10.53-9.39-8.52-19.59-16.46-26.83-26.8-4.35-6.2-7.91-13.28-11.56-20.1-1.66-3.1-3.19-6.21-5.77-8.6-2.05-1.91-2.9-4.1-2.08-6.7.98-3.11,3.81-1.87,6.68-2.34Z"/>
    <path class="cls-8" d="m466.91,277.87c-7.82-.46-16.16,1.51-24.63.15-4.03-.65-8.27.02-12.06-2.11-2.94-1.65-6.19.99-9.21-.72-1.62-.92-4.87-1.42-3.1-3.63,1.97-2.46-.05-8.18,6.09-7.46,8.13.95,16.04,0,23.22-4.43,1.86-1.15,3.85-1.73,6.11-1.81,6.77-.22,13.56.66,20.33-.8,3.02-.65,5.28,1.19,6.6,4.14,1.72,3.86,2.15,8.23,5.4,11.53,1.85,1.89-.48,2.58-2,3.3-5.19,2.46-10.71,1.77-16.73,1.83Z"/>
    <path class="cls-8" d="m263.8,156.02c7.68,3.48,14.18,9.09,22.33,11.83,5.26,1.77,10.11,1.11,15.11-.22,1.87-.5,2.55-1.88,2.53-3.79-.03-2.83-.07-5.67.18-8.47.15-1.71,1.03-3.17,3.12-3.29,1.78-.11,3.2.08,3.92,2.16.57,1.64.54,4.13,2.68,4.45,3.33.49,6.62,3.01,9.48,2.4,3.73-.8,4.78-5.31,6.83-8.49,5.1-7.92,7.33-17.41,13.74-24.54-4.02,12.32-11.24,23.12-16.68,34.76-1.19,2.55-3.7,4.49-6.77,5.55-9.2,3.19-19.01,5.05-28.2,3.22-10.6-2.11-20.8-6.85-28.28-15.57Z"/>
    <path class="cls-8" d="m397.99,258.9c2.49,0,4.99-.17,7.46.05,2.17.19,5.67-.6,3.53,3.91-.8,1.68,1.43,1.78,2.37,2.55,1.45,1.19,2.97,3.09,2.3,4.6-.85,1.94-2.89.31-4.31-.14-2.24-.71-4.48-1.02-6.83-1.03-3.38-.02-6.58-.5-8.51-3.93-1.12-1.99-3.2-2.07-5.27-2.05-1.47.01-3.45.11-3.47-1.86-.02-2.36,2.18-2.04,3.77-2.08,2.98-.07,5.97-.02,8.95-.02Z"/>
    <path class="cls-8" d="m345.73,125.05c1.24-4.37,2.4-8.79,5.99-11.99-.83,4.58-2.63,8.68-5.99,11.99Z"/>
    <path class="cls-15" d="m125.92,115.04c2.51-4.38,7.59-4.04,11.41-5.68,7.44-3.2,14.23-7.7,21.83-10.46,1.63-.59,1.26-3.83,3.91-2.63,6.48,6.42,11.12,13.75,10.21,23.29-1.13,11.89-10.48,20.86-21.85,21.41-11,.53-22-8.26-24.4-19.56-.45-2.11-.74-4.25-1.1-6.37Z"/>
    <path class="cls-1" d="m342.62,173.07c-.11.65-.17,1.4-1.04,1.39-.96,0-1.45-.68-1.58-1.56-.16-.99.35-1.65,1.32-1.6.98.05,1.3.85,1.3,1.76Z"/>
  </g>
</svg>