<svg width="512" height="512" viewBox="0 0 512 512" fill="none" xmlns="http://www.w3.org/2000/svg">
<g clip-path="url(#clip0_335_2672)">
<path d="M270.029 0H238.819C219.384 0 203.629 15.7551 203.629 35.19V476.75C203.629 496.185 219.384 511.94 238.819 511.94H270.029C289.464 511.94 305.219 496.185 305.219 476.75V35.19C305.219 15.7551 289.464 0 270.029 0Z" fill="#242E16"/>
<path d="M511.939 266.31V235.1C511.939 215.665 496.184 199.91 476.749 199.91L35.1895 199.91C15.7545 199.91 -0.000549316 215.665 -0.000549316 235.1V266.31C-0.000549316 285.745 15.7545 301.5 35.1895 301.5H476.749C496.184 301.5 511.939 285.745 511.939 266.31Z" fill="#242E16"/>
</g>
<defs>
<clipPath id="clip0_335_2672">
<rect width="511.94" height="511.94" fill="white"/>
</clipPath>
</defs>
</svg>
