<svg width="779" height="656" viewBox="0 0 779 656" fill="none" xmlns="http://www.w3.org/2000/svg">
<g clip-path="url(#clip0_335_2676)">
<path d="M546.36 302.801H242.3C228.78 302.801 217.82 313.761 217.82 327.281V338.001C217.82 351.521 228.78 362.481 242.3 362.481H546.36C559.88 362.481 570.84 351.521 570.84 338.001V327.281C570.84 313.761 559.88 302.801 546.36 302.801Z" fill="#2A2E22"/>
<path d="M394.331 288.332C435.542 288.332 468.951 254.923 468.951 213.712C468.951 172.5 435.542 139.092 394.331 139.092C353.119 139.092 319.711 172.5 319.711 213.712C319.711 254.923 353.119 288.332 394.331 288.332Z" fill="#2A2E22"/>
<path d="M393.989 526.181C435.201 526.181 468.609 492.773 468.609 451.561C468.609 410.35 435.201 376.941 393.989 376.941C352.778 376.941 319.369 410.35 319.369 451.561C319.369 492.773 352.778 526.181 393.989 526.181Z" fill="#2A2E22"/>
<path d="M190.163 10.4527C185.585 1.7405 174.811 -1.61102 166.099 2.96686C157.387 7.54475 154.035 18.3185 158.613 27.0307L218.506 141.013C223.084 149.725 233.858 153.077 242.57 148.499C251.282 143.921 254.634 133.147 250.056 124.435L190.163 10.4527Z" fill="#2A2E22"/>
<path d="M252.441 523.796C257.116 515.136 253.885 504.325 245.224 499.65C236.564 494.975 225.753 498.206 221.078 506.867L159.916 620.173C155.241 628.834 158.472 639.644 167.133 644.319C175.793 648.994 186.604 645.763 191.279 637.102L252.441 523.796Z" fill="#2A2E22"/>
<path d="M571.511 517.316C566.591 508.792 555.692 505.872 547.169 510.793C538.646 515.714 535.725 526.613 540.646 535.136L605.026 646.645C609.947 655.168 620.846 658.089 629.369 653.168C637.892 648.247 640.812 637.348 635.891 628.825L571.511 517.316Z" fill="#2A2E22"/>
<path d="M17.82 314.811C7.97829 314.811 0 322.789 0 332.631C0 342.473 7.97829 350.451 17.82 350.451H146.58C156.422 350.451 164.4 342.473 164.4 332.631C164.4 322.789 156.422 314.811 146.58 314.811H17.82Z" fill="#2A2E22"/>
<path d="M631.59 314.821C621.748 314.821 613.77 322.799 613.77 332.641C613.77 342.483 621.748 350.461 631.59 350.461H760.35C770.191 350.461 778.17 342.483 778.17 332.641C778.17 322.799 770.191 314.821 760.35 314.821H631.59Z" fill="#2A2E22"/>
<path d="M630.358 26.393C635.101 17.7694 631.955 6.93388 623.331 2.1911C614.708 -2.55169 603.872 0.59427 599.129 9.2178L537.079 122.04C532.336 130.664 535.482 141.499 544.106 146.242C552.729 150.985 563.565 147.839 568.308 139.215L630.358 26.393Z" fill="#2A2E22"/>
</g>
<defs>
<clipPath id="clip0_335_2676">
<rect width="778.16" height="655.55" fill="white"/>
</clipPath>
</defs>
</svg>
