<svg width="800" height="785" viewBox="0 0 800 785" fill="none" xmlns="http://www.w3.org/2000/svg">
<g clip-path="url(#clip0_335_2596)">
<path d="M536.82 370.611C532.22 375.171 527.77 379.891 522.96 384.211C520.44 386.471 521.21 387.591 523.17 389.621C543.97 411.341 565.52 432.341 585.48 454.851C587.18 456.771 587.97 456.781 589.48 454.771C598.34 442.971 607.8 431.461 614.9 418.561C625.44 399.391 644.38 397.381 661.28 406.661C678.8 416.281 688.07 431.741 689.92 451.641C690.3 455.031 690.36 458.421 689.88 461.811C688.88 478.081 680.73 490.971 670.23 502.611C660.88 512.961 651.26 523.081 641.61 533.151C639.32 535.541 639.15 536.931 641.56 539.521C667.58 567.501 693.54 595.531 719.27 623.781C723.26 628.161 726.54 630.371 733.18 629.781C750.33 628.261 765.86 633.371 778.67 645.431C782.8 650.731 787.98 655.15 791.18 661.22C796.19 670.71 798.98 680.71 799.05 691.47C799.06 693.1 798.73 694.771 799.36 696.371C798.33 710.561 793.04 723.231 785.3 734.951C775.89 749.201 764.28 761.261 749.53 770.121C744.19 771.451 739.67 774.651 734.64 776.741C720.25 782.721 705.57 785.091 690.17 781.891C689.36 781.721 688.52 781.771 687.74 782.111C664.63 776.001 649.06 762.191 643.24 738.461C642.85 736.861 642.73 735.201 642.49 733.571C642.12 728.791 642.05 724.011 642.52 719.241C642.57 718.581 642.43 717.821 642.7 717.271C646.6 709.321 641.77 705.17 636.39 700.22C609 675.02 581.92 649.481 554.93 623.861C551.94 621.021 551.07 624.171 549.23 624.621C546.58 625.551 545.05 627.84 543.23 629.72C535.49 637.67 527.17 645.061 519.93 653.501C509.4 663.471 497.01 669.541 482.57 671.321C456.88 674.491 426.67 654.081 420.48 629.081C418.5 621.081 419.28 613.251 424.34 606.291C425.62 604.531 427.03 602.811 429.06 601.951C442.52 596.201 453.55 586.851 464.85 577.891C466.8 576.341 468.72 574.761 470.85 573.041C467.81 569.601 463.56 567.441 460.9 563.661C453.46 554.741 444.72 547.081 436.62 538.801C434.11 536.241 432.08 533.031 428.46 531.711C420.95 525.731 414.69 518.471 407.93 511.731C403.14 505.121 401.15 504.811 394.98 510.341C392.41 512.651 391.41 511.701 390.52 509.041C388.73 503.681 391.23 499.931 396.92 499.571C398.25 499.491 399.58 499.521 401.16 498.731C400.71 497.211 398.72 495.901 399.76 494.031C400.7 492.351 402.6 492.561 404.12 492.001C407.25 490.861 410.08 489.071 412.86 487.321C415.89 485.411 414.65 482.401 413.9 479.641C412.63 474.921 413.37 473.631 417.81 472.541C417.66 471.581 416.69 471.631 416.13 471.241C412.58 468.681 411.68 469.021 410.64 473.201C409.18 479.091 406.66 480.771 400.76 479.721C399.13 479.431 397.56 478.861 395.87 478.851C394.04 478.841 391.97 478.981 391.11 476.941C390.12 474.601 392.21 473.361 393.45 471.901C395.38 469.641 398.01 467.991 399.24 465.141C399.78 463.921 400.57 462.861 401.51 461.921C414.84 448.631 427.95 435.121 441.54 422.091C450.54 414.491 458.56 405.901 466.57 397.311C470.83 393.971 474.33 389.841 478.26 386.151C479.66 384.841 480.85 383.101 483.17 383.391C485.41 386.211 482.63 387.591 481.26 388.951C471.95 398.181 462.82 407.571 453.54 416.831C452.4 417.971 450.88 418.871 450.48 420.631C451.46 421.601 452.99 421.121 453.16 420.561C454.52 416.171 458.47 414.221 461.27 411.181C463.55 408.711 465.09 406.371 468.92 407.071C471.13 407.471 471.25 405.751 470.96 404.111C470.58 401.941 468.83 399.381 472.01 398.061C474.9 396.861 477.11 398.471 478.93 400.721C478.27 397.731 478.29 394.611 480.52 392.581C483.71 389.671 486.38 386.251 489.58 383.451C491.94 381.381 494.73 379.881 496.19 376.901C496.56 376.161 497.27 375.381 498.04 375.311C503.13 374.811 506.25 372.441 506.55 367.021C506.58 366.431 507.34 365.721 507.94 365.701C511.13 365.611 513.03 364.711 513.87 361.021C514.32 359.041 517.42 359.591 518.99 361.111C520.89 362.961 524.1 364.731 521.44 368.061C519.78 370.141 518.25 372.311 516.57 374.371C514.81 376.521 514.96 378.581 516.21 380.821C517.63 383.371 519.16 384.261 521.56 381.731C524.99 378.101 528.44 374.481 532.21 371.211C533.38 370.201 534.92 367.601 536.85 370.611H536.82Z" fill="#343326"/>
<path d="M400.079 465.749C399.299 469.829 395.199 471.149 393.109 474.139C392.569 474.909 391.369 475.419 391.839 476.589C392.279 477.669 393.489 477.939 394.389 477.599C396.649 476.749 398.489 477.629 400.569 478.319C405.309 479.889 408.429 477.799 409.029 472.989C409.329 470.549 410.189 468.329 412.439 467.239C415.239 465.879 415.429 468.839 416.699 470.119C417.319 470.739 418.559 470.699 419.419 471.139C420.819 471.849 421.329 473.069 420.439 474.439C419.549 475.809 418.579 475.479 417.729 474.239C417.009 473.179 416.119 473.039 415.369 474.149C414.519 475.409 414.079 476.649 414.739 478.319C415.859 481.119 417.989 484.029 415.339 487.069C412.369 490.489 407.839 491.359 404.159 493.609C403.059 494.289 400.779 492.799 400.529 495.049C400.239 497.699 402.959 497.019 404.749 497.899C402.929 500.509 400.269 501.159 397.789 501.249C391.409 501.479 390.339 502.639 391.869 508.739C392.029 509.369 392.109 510.029 392.289 511.049C396.069 509.159 398.499 503.919 403.409 506.179C405.419 507.109 408.149 508.479 407.869 511.729C406.989 510.989 406.089 510.269 405.239 509.499C402.419 506.939 399.519 506.939 396.729 509.619C381.889 523.909 367.219 538.379 352.179 552.459C344.919 559.249 338.439 566.879 330.209 573.069C340.819 582.759 352.259 591.299 364.679 598.339C372.879 602.979 378.609 608.749 380.489 618.369C382.139 626.799 379.719 634.259 375.509 640.859C361.229 663.249 340.159 673.129 313.989 671.039C303.689 670.209 294.459 664.779 286.019 658.769C279.519 654.139 273.629 648.789 268.249 642.809C263.029 637.009 256.899 632.029 251.719 626.189C248.499 622.559 246.629 623.739 243.869 626.389C219.759 649.479 195.569 672.499 171.389 695.519C167.069 699.629 162.849 703.909 158.159 707.579C156.089 709.199 155.969 710.819 156.459 712.649C157.659 717.169 157.889 721.789 158.399 726.389C160.289 728.799 160.309 731.099 158.009 733.269C155.389 746.289 150.079 757.749 140.269 767.149C129.229 777.729 116.129 783.209 101.169 784.239C78.5692 785.789 58.8692 778.049 41.1792 764.489C27.7992 754.239 16.9592 741.579 9.01917 726.909C0.139169 710.489 -2.72083 692.419 2.78917 674.409C7.26917 659.769 15.6492 647.069 29.6792 639.249C31.3592 638.309 32.4192 636.349 34.5992 636.259C36.5992 633.629 39.5792 632.879 42.5592 632.139C43.9192 631.849 45.3892 632.359 46.6892 631.619C55.3392 630.269 63.9492 628.309 72.7592 630.449C74.6292 630.899 75.9392 629.809 77.0192 628.519C86.5992 617.079 96.9692 606.359 107.089 595.409C117.549 584.079 128.039 572.789 138.289 561.279C144.939 553.809 151.289 546.079 158.519 539.149C160.589 537.169 160.259 536.189 158.379 534.189C147.869 523.059 137.469 511.819 126.989 500.659C122.889 496.299 118.489 491.719 116.659 485.609C114.829 479.109 112.009 472.969 111.049 466.119C109.269 453.519 111.039 441.699 116.579 430.349C117.299 428.879 118.349 427.499 118.239 425.729C118.339 425.469 118.399 425.189 118.409 424.909C126.489 413.699 136.429 404.589 150.419 402.329C164.019 400.139 173.959 400.879 183.699 415.909C192.779 429.929 202.049 443.829 212.949 456.459C231.179 437.569 249.499 418.809 267.499 399.749C270.869 396.179 273.969 392.289 277.569 388.919C279.459 387.149 279.019 386.149 277.399 384.589C274.189 381.499 271.189 378.189 268.109 374.979C268.589 372.149 270.369 373.349 271.639 374.019C274.089 375.319 275.759 374.409 277.249 372.519C278.169 371.339 279.399 370.109 278.529 368.529C277.529 366.699 275.949 367.779 274.549 368.119C269.819 369.259 268.139 367.629 269.839 363.019C270.909 360.099 270.959 358.659 267.339 358.769C265.989 358.809 264.169 358.219 263.919 357.079C262.549 351.029 256.579 347.339 256.009 340.859C255.529 335.379 253.539 333.979 248.289 334.689C246.939 334.869 245.639 334.929 244.389 334.299C243.149 333.679 241.929 332.819 242.079 331.339C242.259 329.599 243.759 329.039 245.319 328.749C256.589 326.639 261.189 329.869 262.629 341.039C262.909 343.239 263.219 344.759 266.199 344.469C272.359 343.889 276.289 348.179 279.749 352.179C283.549 356.569 287.119 361.189 291.339 365.169C293.269 366.989 292.559 368.329 291.679 369.939C289.619 373.699 285.649 374.999 282.299 377.109C280.979 377.939 278.539 377.999 278.779 380.069C279.019 382.099 280.889 383.369 282.719 384.269C284.639 385.219 287.939 384.869 287.239 388.349C286.669 391.159 284.319 392.269 281.579 392.279C279.739 392.279 278.429 393.179 277.209 394.359C265.159 405.979 253.729 418.189 244.059 428.699C245.809 425.989 253.029 426.649 255.509 420.829C255.869 419.989 257.219 419.799 258.219 419.839C261.649 419.979 262.919 417.739 263.499 414.949C264.189 411.659 265.989 409.219 268.579 407.209C272.809 403.919 274.269 398.309 278.899 395.209C281.239 393.639 283.049 392.529 285.549 394.339C288.099 396.189 288.769 398.549 287.089 401.279C285.669 403.599 284.859 405.589 287.469 407.799C289.669 409.659 288.589 411.569 286.389 412.409C283.429 413.549 282.199 415.289 282.779 418.459C283.029 419.829 282.299 421.409 281.159 421.919C276.069 424.209 273.249 429.299 268.499 431.909C264.679 434.019 263.099 437.779 260.329 440.989C263.129 442.109 264.689 439.479 266.749 440.459C268.239 442.879 266.039 444.009 264.919 445.439C258.979 453.069 251.749 459.479 245.009 466.359C242.679 468.739 240.409 471.139 238.349 473.759C234.739 478.349 234.549 479.239 239.139 483.079C247.959 490.449 255.589 499.019 263.899 506.909C269.139 512.819 275.339 517.729 280.919 523.289C288.789 532.329 297.249 540.759 306.369 548.549C308.599 550.449 310.469 550.329 312.529 548.549C313.159 548.009 313.819 547.499 314.389 546.889C323.849 536.829 334.599 528.099 344.179 518.169C360.689 501.059 378.619 485.389 395.119 468.269C396.409 466.929 397.599 464.979 400.059 465.779L400.079 465.749Z" fill="#333326"/>
<path d="M536.82 370.61C534.6 369.21 533.89 371.44 532.86 372.42C528.78 376.33 524.86 380.4 520.85 384.37C520.22 384.99 519.85 386.66 518.73 385.91C516.2 384.22 514.56 381.79 513.65 378.77C513.04 376.76 513.03 375.51 514.89 374.12C517.35 372.28 517.53 368.45 520.82 367.06C521.96 366.58 521.47 365.33 520.49 364.69C518.77 363.58 518.48 360.57 515.62 361.01C513.77 361.3 514.1 362.81 513.88 364.1C513.6 365.72 515.31 367.22 513.88 369.21C512.37 368.2 512.09 365.05 509.24 366.23C506.39 367.4 507.53 369.43 507.4 371.55C507.21 374.55 504.75 376.03 501.73 375.8C498.76 375.58 497.01 376.83 496.13 379.58C495.88 380.36 495.59 381.69 495.16 381.76C489.08 382.74 488.05 389.59 483.03 391.95C478.49 394.09 480.47 398.96 479.72 403.01C478.4 401.76 477.3 400.58 476.05 399.59C474.78 398.59 473.14 398.37 471.86 399.29C470.31 400.4 471.6 401.61 472.24 402.72C473.35 404.63 473.22 406.57 472.08 408.38C470.65 410.66 469.16 408.69 467.79 408.22C465.79 407.54 464.59 408.48 463.6 409.94C463.25 410.46 463.01 411.17 462.99 411.8C462.87 416.42 456.67 413.25 456.25 416.96C455.86 420.38 455.68 423.44 451.01 422.79C449.9 422.63 448.41 423.24 447.77 422.14C446.84 420.57 448.54 419.8 449.39 418.95C459.81 408.46 470.31 398.05 480.68 387.51C481.62 386.56 484.03 386.1 482.82 383.79C482.38 380.95 484.74 379.75 486.27 378.19C497.39 366.89 508.75 355.82 519.81 344.46C520.13 344.09 520.48 343.76 520.86 343.46C525.8 340.25 529.5 335.71 533.61 331.61C566.55 298.69 599.4 265.69 632.44 232.88C643.3 222.1 653.59 210.79 664.34 199.91C672.64 191.51 681.19 183.32 690.03 175.57C700.84 166.1 706.48 154.45 710.19 141C717.34 115.08 726 89.5996 733.79 63.8596C736.33 55.4596 738.74 47.0196 741.64 37.9996C735.58 39.2896 730.34 41.1696 725.09 42.8296C691.54 53.4596 657.64 62.8996 624.03 73.3196C615.73 75.8896 611.3 82.4996 605.9 88.2396C605.5 88.8396 605.04 89.3896 604.55 89.9196C595.71 98.9996 586.23 107.46 577.97 117.11C577.73 117.51 577.44 117.89 577.14 118.24C562.86 131.91 549.55 146.52 535.85 160.76C516.53 180.85 497.57 201.29 478.2 221.33C474.41 225.25 471.52 230.04 466.63 232.85C463.59 234.12 461.74 236.8 459.51 239C457.17 241.31 454.98 242.17 452.16 239.78C448.89 237 445.43 235.46 441.62 239.03C441.04 239.57 440.07 239.88 439.27 239.71C436.17 239.05 434.29 240.12 433.21 243.17C432.64 244.79 431.19 246.02 429.28 245.53C425.6 244.6 425.19 247.01 425.43 249.45C425.78 253.08 424.25 255.14 420.99 256.24C419.52 256.74 418.33 257.67 417.51 258.95C415.64 261.84 412.56 259.28 410.98 260.23C409.2 261.31 408.8 264.27 405.72 264.64C395.93 265.81 388.12 261.75 384.04 252.43C382.7 249.38 381.65 250.13 379.74 251.51C375.07 254.89 374.68 254.52 371.03 250.14C368.25 246.81 366.37 243.42 366.27 239.04C366.24 237.96 365.91 236.54 364.4 236.49C363.05 236.45 362.43 237.59 361.98 238.69C361.13 240.81 361.34 242.92 362.09 245.03C363.81 249.89 365.45 254.77 368.37 259.1C369.49 260.76 370.77 262.77 368.86 264.5C366.75 266.41 365.06 264.43 363.82 263.03C357.02 255.28 349.03 248.55 342.79 240.45C339.76 236.52 337.28 232.73 332.94 229.99C329.65 227.91 327.09 224.6 324.44 221.62C323.49 220.55 322.18 219.23 323.6 217.73C324.88 216.39 326.56 216.31 328.16 217.33C329.73 218.32 330.97 219.67 331.97 221.22C332.97 222.77 334.05 224.23 335.59 225.3C337.1 226.35 338.65 227.63 340.59 226.9C342.67 226.11 341.79 224.03 341.97 222.5C342.74 215.97 342.68 216.03 336.69 213.8C333.16 212.49 331.11 209.66 330.06 206.17C329.34 203.81 328.55 203.04 326.42 204.97C323.79 207.36 320.04 207.76 317.19 209.84C316.5 210.34 315.55 210.64 314.83 210.19C310.72 207.59 307.27 204.28 304.8 200.05C304.26 199.13 304.73 198.08 305.56 197.38C306.45 196.63 307.42 196.83 308.35 197.32C309.97 198.18 311.33 199.44 312.92 200.35C315.53 201.84 318.06 202.86 320.56 200.15C322.86 197.67 326.37 195.71 324.04 191.38C323.5 190.38 323.36 189.21 322.86 187.45C322.82 190.98 321.13 192.2 318.55 192.25C316.48 192.28 314.73 192.84 313 194.04C310.49 195.79 307.59 194.72 307.74 192.1C308.12 185.5 301.74 186.8 299.51 182.79C298.17 185.42 299.86 186.37 300.2 187.66C300.51 188.84 300.73 189.98 299.75 190.91C298.6 192 297.21 191.91 296.1 191C292.11 187.72 288.45 184.1 285.22 180.07C284.46 179.13 284.33 177.91 285.15 176.82C285.98 175.72 287.03 175.75 288.27 176.05C293.83 177.4 295.61 176.59 299.01 171.32C302.33 166.18 302.86 166.06 306.66 170.54C307.92 172.02 309.26 172.71 310.99 172.09C314.22 170.93 316.14 172.52 318.32 174.68C336.88 193.02 354.41 212.36 372.34 231.3C376.3 235.48 380.45 239.58 384.46 243.74C388.61 248.05 392.14 252.89 396.49 257C401.19 261.43 402.09 261.29 404.89 254.95C443.06 214.68 481.23 174.41 519.39 134.12C523.38 129.9 527.27 125.59 531.2 121.32C542.21 109.94 553.51 98.8396 563.83 86.7896C566.62 83.5296 570.04 80.8096 573.03 77.6996C580.25 70.1996 587.55 62.7596 594.51 55.0096C598.87 50.1496 604.16 47.2596 610.27 45.4396C648.32 34.0896 686.36 22.7396 724.39 11.3196C735.98 7.83956 747.42 3.81956 759.09 0.649564C764.87 -0.920436 770.55 0.339564 775 5.08956C779.19 9.56956 780.81 14.4896 778.83 20.4996C774.34 34.0896 770.98 48.0496 765.67 61.3796C760.12 76.6296 755.93 92.3096 751.04 107.76C744.44 128.62 738.12 149.58 731.49 170.44C730.38 173.93 728.38 177.05 726.7 180.29C723 185.87 717.99 190.26 713.22 194.83C678.54 227.99 645.77 263.05 611.54 296.66C610.01 298.16 608.41 299.59 606.85 301.06C606.01 301.28 605.41 301.86 604.83 302.45C584.88 322.38 564.94 342.31 545.02 362.27C544.55 362.74 544.14 363.26 543.9 363.89L536.86 370.64L536.82 370.61Z" fill="#343327"/>
<path d="M404.85 254.93C406.88 258.45 403.11 258.97 401.7 260.38C400.2 261.88 398.67 260.17 397.53 258.97C391.51 252.65 385.54 246.28 379.49 240C378.38 238.84 377.62 237.03 375.08 238.57C373.35 239.63 371.4 237.52 372.55 235.97C374.62 233.18 372.63 232.15 371.22 230.69C360.02 219.13 348.52 207.84 337.69 195.95C331.31 188.94 324.52 182.36 318.06 175.44C316.04 173.27 314.18 172.12 311.2 173.51C308.26 174.88 306.02 174.11 305.16 170.68C304.86 169.49 304.31 168.43 302.92 168.35C301.22 168.25 301.53 169.78 301.01 170.74C299.27 173.98 296.94 176.65 293.62 178.49C291.85 179.47 290.57 180.46 289.09 178.17C288.39 177.09 287.17 175.88 285.86 177.3C284.78 178.47 286.03 179.42 286.82 180.21C289.86 183.29 292.92 186.35 295.99 189.39C296.79 190.18 297.65 191.37 298.93 190.45C300.26 189.49 299.03 188.42 298.77 187.36C298.32 185.58 293.88 184.89 296.82 182.48C299.23 180.5 301.22 183.14 303.57 184.24C307.46 186.07 310 187.23 308.98 192.27C308.64 193.98 311.41 194.71 312.54 192.78C313.97 190.35 315.61 190.59 317.93 190.91C320.34 191.25 323.14 190.93 320.83 187.17C320.19 186.13 320.36 185.16 321.44 184.67C322.91 184 323.69 185.04 323.93 186.25C324.46 188.88 325.24 191.36 326.73 193.64C327.33 194.56 326.9 195.59 326.2 196.38C325.54 197.13 324.83 197.83 324.13 198.54C317.5 205.29 316.35 205.34 308.95 199.41C308.07 198.7 307.3 196.62 305.83 198.25C304.58 199.64 306.14 200.98 307.13 201.44C310.85 203.14 311.19 210.53 317.24 207.89C321.36 206.09 326.28 205.31 328.59 200.57C330.51 201.94 330.55 203.84 331.22 205.49C332.75 209.25 333.98 213.13 339.75 212.59C342.89 212.3 344.31 215.46 344.03 218.67C343.81 221.26 342.74 223.67 343.55 226.49C344.15 228.6 339.47 230.1 337.01 228.16C334.77 226.39 331.98 225.25 330.78 222C329.52 218.58 327.15 217.79 322.96 218.62C327.46 223.01 331.53 227 335.63 230.97C336.25 231.57 337.01 231.84 337.91 231.56C341.5 230.45 342.04 232.8 341.78 235.35C341.59 237.26 342.26 238.58 343.43 239.81C350.64 247.39 357.85 254.97 365.13 262.48C365.92 263.29 366.68 265.22 368.25 263.93C369.64 262.78 368.43 261.3 367.67 260.42C363.65 255.77 362.55 249.81 360.23 244.41C359.28 242.19 359.89 240.07 360.38 238.09C360.9 235.99 362.54 234.2 364.99 234.17C367.75 234.14 367.66 237 367.52 238.26C366.91 243.64 371 246.71 373.02 250.76C374.32 253.35 375.98 253.63 377.99 251.29C378.95 250.18 380.17 249.25 381.39 248.43C383.43 247.06 385.12 247.41 384.96 250.13C384.78 253.13 386.29 254.71 388.55 256.08C389.24 256.5 390.02 257.11 390.31 257.82C393.61 265.84 400.47 263.24 406.4 263.21C408.41 263.2 409.04 261.91 408.92 259.79C408.78 257.22 410.25 256.4 412.14 258.4C414.16 260.54 415.44 260.17 416.63 257.76C416.85 257.31 417.07 256.55 417.37 256.51C424.75 255.47 423.7 249.18 424.93 244.37C425.34 242.76 425.9 241.59 427.45 243.09C430.97 246.48 432.2 243.62 432.73 240.95C433.39 237.6 434.57 236.47 437.68 238.34C439.07 239.18 440.59 238.66 441.34 237.72C445.63 232.35 449.51 235.68 452.78 238.57C455.27 240.78 456.33 240.08 458.38 238.24C460.79 236.09 462.06 232.4 465.97 232.12C466.42 233.19 465.99 234.16 465.29 234.84C460.22 239.76 455.99 245.59 449.82 249.33C446.64 247.84 449.49 245.61 448.92 243.43C446.84 243.88 445.54 245.41 444.48 247.2C443.45 248.94 442.32 250.53 440.22 251.1C439.58 251.27 438.6 251.67 438.64 252.14C439.13 257.68 434.41 259.45 431.22 262.4C435.97 260.8 438.48 256.71 441.82 253.59C443.11 252.38 444.4 250 446.46 252.8C446.49 256.08 443.79 257.56 441.87 259.42C438.01 263.15 434.79 267.59 430.03 270.35C427.49 269.83 425.15 268.37 422.32 269.17C420.45 269.7 418.85 270.19 418.26 272.29C417.74 274.12 416.72 275.52 414.89 276.38C413.82 276.89 411.09 276.45 412.4 278.79C413.39 280.56 415.52 280.53 417.2 279.14C419.63 277.11 421.6 274.59 424.05 272.6C425.26 271.62 426.58 269.51 428.47 271.87C425.59 278.75 419.47 282.66 414.22 287.37C412.29 287.72 410.82 286.48 409.15 285.9C408.52 285.68 407.73 285.63 407.49 286.36C407.16 287.37 407.91 287.78 408.79 287.99C410.04 288.28 411.8 286.74 412.52 289C412.59 290.66 411.58 291.8 410.5 292.81C405.58 297.47 401.19 302.6 396.76 307.71C385.12 319.77 374.04 332.35 362.49 344.49C352.99 354.47 343.69 364.64 334.01 374.46C326.79 381.78 319.87 389.4 312.94 396.99C312.03 397.98 311.14 398.94 309.89 399.49C309 399.92 308.07 400.29 307.35 401.02C294.43 414.11 281.1 426.78 268.52 440.2C268.22 440.57 267.87 440.86 267.45 441.08C265.45 440.54 264.5 442.22 263.15 443.09C261.75 443.98 260.26 444.08 259.04 442.84C257.66 441.43 258.27 439.88 259.57 438.97C263.37 436.34 265.11 431.98 269.51 429.32C273.22 427.07 277.04 423.51 280.83 420.54C281.85 419.75 282.13 418.65 281.44 417.43C279.35 413.72 281.25 412.3 284.7 411.71C285.83 411.51 287.19 411.23 287.5 409.99C287.82 408.73 286.43 408.45 285.61 408.06C281.57 406.12 283.68 403.78 285.26 401.69C287.15 399.19 287.86 397.04 284.65 395.11C283.06 394.15 282.17 394.41 280.46 395.65C274.76 399.8 272.76 407.11 266.71 410.88C264.19 412.45 265.56 415.9 264.05 418.18C262.75 420.14 262.06 422.54 258.84 421.2C256.51 420.23 255.47 421.96 254.75 423.71C253.65 426.39 252.2 428.34 248.86 427.81C247.36 427.57 246.28 428.4 245.73 429.76C244.45 432.93 242.03 433.17 239.2 432.49C238.85 431.44 239.58 430.92 240.14 430.35C252.28 417.87 264.4 405.38 276.58 392.94C278.08 391.41 279.18 389.22 282.35 390.91C283.79 391.68 286.35 389.75 286.37 387.57C286.39 385.31 284.26 386.56 283 386.22C279.69 385.33 277.82 382.3 276.08 379.72C275.01 378.13 277.7 377.77 278.87 377.08C283.61 374.31 289.62 373.16 291.85 366.51C288.58 367.08 286.66 365.94 286.78 362.48C286.79 362.07 286.4 361.43 286.02 361.24C280.7 358.6 279.53 352.07 273.93 349.12C270.4 347.26 268.24 344.57 263.68 346.45C261.96 347.16 261.31 344.16 261.23 342.34C261.11 339.69 261.32 337.03 260.23 334.49C258.89 331.39 256.7 329.39 253.3 330.46C250.61 331.31 248.43 329.59 245.96 329.88C244.81 330.02 243.24 329.79 243.03 331.15C242.77 332.86 244.6 333.07 245.75 333.49C246.44 333.74 247.37 333.56 248.14 333.35C253.82 331.81 257.94 335.05 257.57 340.98C257.49 342.18 257.21 343.37 257.98 344.3C260.73 347.66 263.77 350.67 264.28 355.48C264.48 357.39 267.02 358.18 269.25 357.32C270.64 356.78 271.89 356.86 272.71 358.27C273.42 359.48 272.79 360.47 272.1 361.47C271.54 362.29 271.04 363.16 270.64 364.07C270.16 365.16 269.86 366.4 270.91 367.3C271.8 368.07 272.9 367.62 273.67 367.03C276.05 365.19 278.74 364.39 280.4 367.31C282.48 370.97 278.53 372.8 276.88 375.2C275.08 377.81 272.96 377.01 270.99 375.16C270.1 374.33 269.18 373.52 268.12 374.96C267.24 374.21 266.37 373.46 265.49 372.72C264.38 371.43 263.27 370.15 262.16 368.86C252.94 358.47 242.85 348.92 232.87 339.28C228.71 335.26 224.69 331.09 220.47 327.14C219.18 325.94 218.27 324.14 216.17 324.06C209.91 318.36 203.92 312.38 198.22 306.11C194.11 299.37 187.95 294.45 182.54 288.92C169.67 275.76 156.95 262.44 143.34 250.03C141.7 249 140.36 247.65 139.29 246.03C133.16 238.13 125.2 232.03 118.44 224.72C104.22 209.36 88.4501 195.53 74.0701 180.31C69.5901 175.56 68.7601 169.39 66.5201 163.75C66.1701 162.88 66.4801 161.73 65.4201 161.16C60.4801 149.35 57.8701 136.79 53.7501 124.71C52.1201 119.93 51.0101 114.98 49.6701 110.1C47.3101 98.22 43.0301 86.9 39.5901 75.33C34.2501 57.39 28.4601 39.59 22.9401 21.71C21.2401 16.19 22.5301 11.29 24.4901 6.30004C25.4801 5.29004 26.4701 4.27004 27.4601 3.26004C36.1401 -1.61996 44.2801 2.45004 52.3001 5.12004C79.9501 14.34 108.16 21.72 135.88 30.67C136.37 30.83 136.85 30.63 137.3 30.4C155.64 35.75 174.01 41.02 192.32 46.48C197.98 48.17 202.11 52.12 206.12 56.4C218.06 69.12 230.3 81.57 242.4 94.14C265.1 117.72 287.82 141.27 310.46 164.91C331.71 187.1 352.91 209.35 374.07 231.63C381.83 239.81 389.53 248.06 397.03 256.48C399.66 259.43 401.41 260.21 403.32 256.1C403.56 255.58 404.32 255.3 404.84 254.91L404.85 254.93Z" fill="#333327"/>
<path d="M660.608 454.469C660.698 466.269 656.758 474.359 650.538 481.409C639.308 494.129 627.498 506.309 615.448 518.239C578.948 554.369 542.378 590.429 505.698 626.369C499.928 632.019 494.188 637.859 486.048 640.489C473.178 644.639 458.198 638.849 451.728 626.999C450.778 625.269 450.508 624.249 452.448 622.969C491.938 597.009 524.268 562.949 557.468 529.889C569.018 518.389 580.428 506.749 592.008 495.279C610.198 477.269 625.018 456.639 638.658 435.149C641.538 430.619 644.198 430.769 647.918 432.809C657.328 437.949 660.238 446.609 660.608 454.469Z" fill="#E6A129"/>
<path d="M618.839 557.559C620.879 557.809 622.089 559.529 623.419 560.949C638.839 577.469 654.229 594.009 669.599 610.579C678.639 620.319 687.579 630.149 696.639 639.879C698.259 641.619 699.169 642.639 696.289 644.189C681.139 652.359 670.139 664.979 660.339 678.709C658.049 681.929 656.969 681.109 654.809 679.009C641.849 666.349 629.049 653.519 615.729 641.249C602.649 629.199 590.079 616.649 577.099 604.509C574.179 601.779 574.419 600.269 577.149 597.599C589.759 585.279 602.149 572.719 614.649 560.279C615.799 559.139 616.749 557.619 618.829 557.559H618.839Z" fill="#8D5530"/>
<path d="M671.59 726.67C671.08 720.14 673.34 713.95 676.06 708.13C686.65 685.45 703.57 669.16 727.22 660.68C747.13 653.54 765.33 664.17 770.12 684.78C771.62 691.25 770.53 697.45 768.21 703.33C757.74 729.91 739.12 747.77 711.06 754.66C700.97 757.14 691.07 754.78 682.5 749.02C674.85 743.89 671.08 736.27 671.59 726.66V726.67Z" fill="#E6A029"/>
<path d="M400.079 465.75C377.989 487.18 355.919 508.63 333.799 530.03C326.389 537.2 318.859 544.26 311.329 551.31C310.399 552.18 309.609 553.99 307.759 552.12C298.409 542.68 288.449 533.83 279.779 523.71C280.449 521.31 282.449 519.95 284.069 518.33C311.879 490.48 339.719 462.66 367.549 434.82C369.429 432.94 371.399 431.15 372.929 428.95C380.009 420.99 387.879 413.79 395.339 406.19C396.389 405.12 397.519 404.09 399.229 404.33C402.819 407.39 404.969 406.97 407.169 402.75C407.629 401.87 407.829 400.85 408.429 400.05C409.789 398.2 411.669 396.94 413.949 397.3C416.549 397.71 417.059 400.06 417.259 402.26C417.529 405.18 416.719 408.15 418.259 411.04C419.079 412.58 417.629 413.42 416.139 413.58C414.309 413.77 412.549 414.15 410.889 415C408.439 416.26 407.299 417.99 408.749 420.63C410.739 424.24 409.909 426.99 406.369 428.97C404.519 430 403.379 431.48 402.889 433.57C402.389 435.71 400.969 437.07 398.739 437.29C396.519 437.51 396.219 435.63 395.489 434.16C394.189 431.57 390.029 429.64 388.079 430.93C384.759 433.12 386.029 435.93 387.119 438.6C388.669 438.76 389.209 437.78 389.979 437.21C390.959 436.48 391.969 435.92 393.169 436.65C394.329 437.35 394.329 438.46 394.269 439.7C393.969 445.72 394.009 445.73 400.039 445.54C407.759 445.3 415.099 443.8 421.499 439.08C424.339 436.98 426.979 434.77 428.529 431.51C430.949 426.43 436.249 425.04 440.439 422.24C441.109 421.79 442.059 422.16 442.539 423.02C431.079 434.57 419.839 446.33 407.919 457.41C405.139 459.99 402.699 462.95 400.109 465.74L400.079 465.75Z" fill="#C7C2BC"/>
<path d="M442.51 423.029C437.75 425.749 432.7 427.439 429.45 432.919C425.66 439.319 419.77 444.139 411.54 445.009C407.4 445.449 403.6 447.209 399.13 447.169C392.64 447.109 391 445.969 392.84 439.609C393.07 438.819 393.73 438.079 392.86 437.449C391.99 436.819 391.45 437.519 390.84 438.159C389.45 439.619 387.12 442.889 386.21 441.149C384.92 438.679 382.93 435.139 384.76 431.919C385.63 430.389 387.14 427.649 389.1 428.789C391.69 430.289 396.39 428.229 396.98 433.249C397.12 434.449 396.32 436.809 398.99 436.149C400.57 435.759 401.9 435.019 401.58 432.649C401.16 429.609 403.68 428.629 406.01 427.589C408.11 426.659 409.62 425.369 408.26 422.569C405.22 416.289 408.36 411.959 415.66 412.169C416.13 412.179 416.6 412.299 418.14 412.509C414.4 409.599 415.7 406.469 415.95 403.409C416.11 401.459 416.22 398.739 413.88 398.459C411.75 398.209 409.32 399.329 408.94 402.289C408.36 406.759 404.77 408.109 401.24 408.849C397.34 409.669 400.31 405.929 399.06 404.829C399.13 400.539 402.57 398.999 405.42 396.969C407.36 396.239 408.72 394.759 410.05 393.289C417.71 384.809 427.12 378.319 435.51 370.659C437.02 369.279 438.33 367.879 439.05 365.959C440.06 363.309 442.02 361.619 444.6 360.599C447.74 359.359 450.14 360.119 450.19 363.729C450.26 369.309 454.57 371.809 458 374.579C461.44 377.359 462.73 372.279 465.29 371.279C467.53 370.409 466.58 368.379 465.42 367.179C461.93 363.529 459.32 358.019 452.55 360.619C451.46 361.039 450.14 360.659 449.58 359.409C448.98 358.069 449.45 356.699 450.29 355.669C453.2 352.069 455.61 347.879 459.55 345.379C462.98 343.199 465.24 340.449 466.54 336.739C473.78 331.879 478.2 324.289 484.34 318.349C490.16 312.719 494.95 305.949 502.47 302.209C503.21 301.839 504.08 301.379 504.42 300.689C507.85 293.739 515.4 290.479 519.32 283.949C520.87 281.359 523.93 280.319 526.1 278.229C529.44 274.999 533.29 272.359 535.2 267.879C535.52 267.129 536.27 266.569 537.02 266.209C538.89 265.319 540.95 263.229 542.88 265.139C545.01 267.229 543.43 269.439 541.78 271.249C538.67 274.649 538.2 280.519 532.35 281.369C532.92 285.629 526.64 288.799 530.51 293.689C531.96 295.519 530.81 297.219 528.98 298.189C525.91 299.799 522.93 299.659 520.11 297.449C519.03 296.599 518.15 294.859 516.35 295.969C515.62 296.419 515.54 297.369 515.54 298.229C515.52 300.209 516.6 301.529 518.42 301.739C523.06 302.289 525.49 304.759 526.18 309.349C526.63 312.329 522.5 320.469 519.61 321.219C516.89 321.929 515.6 320.239 515.32 317.739C515.21 316.739 515.95 315.859 516.18 314.899C516.86 312.049 519.41 309.179 515.53 306.469C511.47 303.629 507.92 305.519 506.02 308.439C503.43 312.419 500.55 315.089 494.9 315.259C497.52 318.289 500.82 318.059 502.6 320.359C504.2 322.439 505.66 324.709 508.09 326.079C510.61 327.509 511.39 329.689 510.33 332.459C510.02 333.269 509.2 334.449 508.79 334.169C503.61 330.609 499.11 339.179 494.03 334.349C495.01 341.069 502.02 341.179 504.75 345.609C506.69 344.319 509.38 343.959 509.64 340.779C509.93 337.159 510.5 333.559 510.85 329.939C511.56 322.759 514.18 321.079 520.89 323.439C523.53 324.369 526.24 324.599 527.7 327.719C531.07 334.939 531.19 334.849 524.98 340.829C523.6 342.159 521.41 342.849 521.25 345.229L521.21 345.269C518.97 345.509 517.94 347.419 516.57 348.779C501.6 363.679 486.68 378.619 471.75 393.549C470.22 395.079 468.72 396.619 466.99 397.929C464.74 402.509 460.54 405.359 457.12 408.869C452.39 413.719 447.41 418.339 442.54 423.049L442.51 423.029Z" fill="#C7C2BC"/>
<path d="M469.748 437.74C479.118 428.3 488.518 418.89 497.828 409.4C499.318 407.88 500.148 407.73 501.728 409.4C522.848 431.57 545.118 452.61 565.818 475.2C567.828 477.39 568.408 478.67 565.828 481.09C556.018 490.32 546.488 499.85 536.858 509.27C521.388 491.35 504.558 474.72 487.718 458.12C482.048 452.53 477.218 446.19 471.448 440.71C470.608 439.91 469.888 438.99 469.738 437.76L469.748 437.74Z" fill="#C7C2BC"/>
<path d="M521.099 524.69C512.529 534.44 502.799 543.01 493.559 552.07C490.989 554.58 490.089 552.01 488.929 550.9C472.449 534.96 456.039 518.94 439.609 502.94C434.489 497.96 429.409 492.93 424.199 488.04C422.479 486.43 421.849 485.48 423.959 483.43C433.369 474.29 442.569 464.93 451.839 455.65C453.779 454.52 454.939 455.81 456.079 457.04C466.109 467.88 476.719 478.14 487.249 488.48C498.029 499.05 507.719 510.65 518.679 521.03C519.759 522.05 520.859 523.1 521.099 524.69Z" fill="#C7C2BC"/>
<path d="M521.1 524.69C514.83 519.98 509.63 514.11 504.38 508.39C489.54 492.23 473.57 477.2 458.24 461.54C456.24 459.49 455.23 456.22 451.84 455.65C457.79 449.66 463.3 443.23 469.75 437.74C474.81 441.35 478.37 446.43 482.64 450.81C499.2 467.83 515.85 484.78 532.43 501.79C534.49 503.9 536.97 505.83 536.86 509.25C531.85 514.65 526.88 520.08 521.1 524.68V524.69Z" fill="#96948E"/>
<path d="M519.049 403.709C523.889 406.649 525.649 405.639 524.949 400.609C524.719 398.939 525.409 397.149 525.879 394.039C538.279 408.209 551.019 420.369 564.169 433.659C562.379 433.509 561.499 433.699 561.199 433.369C556.969 428.679 550.059 427.629 546.329 421.979C544.879 419.779 541.329 418.859 538.319 420.819C537.109 421.609 535.939 422.099 534.739 420.919C533.589 419.769 534.579 418.859 535.119 417.839C536.459 415.319 536.249 412.019 533.929 411.299C531.049 410.399 530.109 404.429 525.149 408.269C522.539 410.289 519.849 408.289 519.029 403.699L519.049 403.709Z" fill="#343327"/>
<path d="M502.92 383.95C506.84 383.92 509.79 382.83 510.16 387.48C510.36 389.96 515.65 391.51 517.99 389.9C519.18 389.08 519.89 387.94 521.08 389.57C522.25 391.18 524.93 391.89 524.01 394.78C523.26 397.13 522.18 398.8 520.01 396.33C517.47 393.43 515.31 393.92 512.91 396.27C511.4 397.75 509.56 398.52 507.48 398.06C504.37 397.37 501.98 396.13 504.13 392.27C505.61 389.62 505.65 386.95 502.91 383.95H502.92Z" fill="#343327"/>
<path d="M466.969 397.9C467.909 396.76 468.759 395.52 469.799 394.48C485.279 378.97 500.769 363.46 516.299 348C517.639 346.67 518.679 344.6 521.179 345.23C508.379 358.08 495.579 370.93 482.779 383.78C477.069 388 473.249 394.32 466.969 397.89V397.9Z" fill="#C8C3BC"/>
<path d="M322.539 642.29C315.149 642.31 309.219 639.06 303.669 634.44C292.919 625.49 283.129 615.54 273.329 605.61C234.319 566.08 193.719 528.15 155.169 488.16C148.189 480.92 141.589 473.63 139.669 463.2C137.619 452.08 141.909 439.51 150.009 434.23C156.109 430.25 158.509 430.65 162.339 436.63C179.519 463.53 200.499 487.2 223.049 509.69C251.759 538.33 280.019 567.41 310.449 594.27C321.939 604.41 334.149 613.6 346.939 622C349.589 623.74 349.659 624.87 348.109 627.36C342.529 636.32 332.589 642.26 322.539 642.3V642.29Z" fill="#E6A029"/>
<path d="M263.199 507.77C253.859 498.77 244.589 489.71 235.139 480.82C232.499 478.34 233.629 476.68 235.509 474.71C246.179 463.51 256.829 452.28 267.479 441.07V441.04C273.919 432.46 282.099 425.56 289.699 418.11C291.279 417.44 292.379 416.17 293.569 415.01C305.499 403.25 317.399 391.47 328.929 379.32C332.119 375.95 333.569 376.2 335.939 380.43C339.779 387.28 339.029 392.57 333.659 397.83C332.119 399.34 330.409 400.27 328.319 399.91C326.019 399.52 324.219 400.64 321.799 401.17C323.649 402.18 324.269 400.64 325.329 400.4C328.189 399.74 329.249 400.98 328.299 403.58C327.629 405.42 326.969 407.47 325.559 408.85C323.839 410.54 323.099 412.15 323.879 414.53C324.319 415.87 323.679 417.25 322.539 418.07C319.649 420.16 320.329 422.46 322.339 425.76C322.599 420.83 325.689 417.22 324.149 412.75C323.939 412.14 324.109 411.31 324.519 410.83C329.709 404.79 332.989 397.15 339.839 392.51C340.529 392.04 341.269 391.25 341.999 391.34C349.489 392.27 352.159 385.66 356.729 382.03C361.759 378.03 368.019 376.73 373.779 374.35C375.479 373.65 376.579 375.88 378.479 376.27C379.379 373.29 374.969 369.94 379.059 367.24C381.889 365.37 385.109 366.31 388.689 365.47C385.869 365.58 383.629 366.2 381.519 364.62C377.509 361.62 377.259 358.65 381.089 355.42C382.239 354.45 383.249 353.35 384.329 352.32C388.219 348.64 391.279 349.02 394.009 353.49C394.839 354.84 395.179 357.12 397.319 356.51C399.489 355.89 398.589 353.78 398.449 352.2C398.339 350.95 398.629 349.95 399.649 349.12C404.029 345.56 406.779 341.47 406.059 335.27C405.639 331.66 409.099 334.53 410.769 333.2C409.639 330.36 409.039 327.21 406.219 324.44C403.659 321.92 403.849 317.77 405.519 313.82C402.229 314.03 401.429 315.18 402.359 317.72C403.239 320.11 402.509 321.8 399.739 321.67C397.829 321.58 397.099 322.57 396.419 324.02C395.989 324.94 395.019 326.08 394.239 325.85C390.869 324.85 389.659 326.84 388.189 329.26C387.249 330.81 385.299 330.42 384.429 328.94C382.959 326.43 380.769 323.5 383.749 320.87C388.249 316.91 391.609 311.99 395.729 307.73C399.169 305.58 400.269 300.56 405.079 300.09C407.209 300.63 409.329 300.46 411.489 300.12C414.019 299.72 416.439 300.18 416.649 303.26C416.839 306.04 414.779 306.86 412.319 306.84C411.829 306.84 411.319 306.83 410.899 307.38C411.429 310.09 413.559 309.76 415.529 309.68C418.499 309.57 420.389 310.05 420.729 313.9C421.319 320.51 426.659 322.28 431.959 318.46C438.659 313.62 439.999 306.64 440.629 299.22C440.809 297.05 440.599 294.66 443.049 293.68C445.259 292.8 446.169 294.85 447.489 296.06C450.359 298.69 454.469 297.92 456.239 294.51C456.699 293.63 456.839 292.6 457.359 291.74C458.509 289.81 459.979 288.17 462.409 288.21C464.979 288.25 466.089 290.21 466.939 292.26C467.379 293.33 467.729 294.45 467.899 295.61C468.029 298.18 466.939 300.17 464.739 301.39C458.939 304.62 455.219 310.01 450.569 314.46C443.229 321.49 437.979 330.56 429.189 336.16C427.119 337.48 426.629 339.95 425.859 342.13C425.509 342.78 425.009 343.3 424.379 343.69C422.229 344.34 420.889 345.78 419.529 347.59C414.469 354.35 408.889 360.65 401.449 364.98C400.629 365.54 399.659 365.99 399.329 367.01C397.919 371.48 394.539 374.32 390.659 376.22C385.779 378.6 382.499 382.39 379.539 386.64C378.099 388.71 376.549 390.69 374.369 391.98C366.559 396.62 362.039 404.32 356.299 410.93C351.769 416.15 346.329 420.63 340.789 424.76C338.299 426.62 336.219 428.36 334.949 431.16C331.419 438.99 323.229 442.17 317.809 448.14C316.379 449.71 314.529 450.95 312.829 452.29C310.619 454.01 308.189 454.47 306.009 452.5C303.629 450.36 301.289 450.53 298.649 451.74C297.259 452.38 295.739 452.82 294.509 451.43C293.319 450.08 294.479 449.05 295.079 447.88C296.939 444.26 296.669 440.17 297.389 436.3C297.629 435 296.909 433.98 295.729 433.53C292.039 432.11 292.759 430.19 294.289 428.85C293.559 429.7 291.559 429.76 289.569 429.93C288.389 430.04 287.049 430.3 286.919 431.71C286.779 433.31 288.199 433.45 289.349 433.54C291.629 433.72 293.549 434.57 294.949 436.4C296.819 438.86 297.569 441.34 293.919 442.77C291.479 443.73 290.999 445.12 291.849 447.4C293.219 451.07 291.819 454.57 290.729 457.9C292.289 459.04 293.609 458.53 294.869 458.24C297.119 457.73 299.229 457.54 300.489 460C301.779 462.52 301.389 464.93 299.459 466.9C297.829 468.56 296.189 470.21 294.489 471.8C292.999 473.19 292.439 474.75 292.789 476.71C292.679 477.92 292.139 478.96 291.319 479.79C282.029 489.21 272.899 498.8 263.159 507.76L263.199 507.77Z" fill="#C7C2BB"/>
<path d="M228.329 602.519C227.499 603.209 226.889 603.709 226.279 604.219C213.189 615.009 201.419 627.209 189.229 638.949C174.999 652.659 160.649 666.239 146.479 680.009C144.039 682.379 143.109 682.509 141.179 679.379C132.349 665.059 121.049 653.089 106.409 644.519C103.969 643.089 102.079 642.289 105.139 639.029C118.869 624.379 132.219 609.379 145.809 594.589C156.589 582.849 167.579 571.299 178.319 559.519C180.659 556.959 182.269 556.679 184.769 559.209C193.169 567.719 201.699 576.089 210.219 584.479C215.419 589.609 220.699 594.659 225.919 599.769C226.719 600.549 227.399 601.459 228.339 602.529L228.329 602.519Z" fill="#8C5530"/>
<path d="M97.2699 755.56C84.1799 755.63 74.4199 751.14 65.2199 745.33C50.9799 736.34 40.1299 724.26 33.2799 708.77C25.6199 691.44 30.0599 673.97 44.7499 663.63C53.9999 657.12 64.1599 657.4 74.3399 660.45C95.3299 666.72 109.16 681.61 120.25 699.56C125.57 708.17 128.94 717.37 128.55 727.77C128.15 738.61 123.16 746.39 113.64 751.24C107.96 754.14 101.9 755.82 97.2599 755.57L97.2699 755.56Z" fill="#E6A029"/>
<path d="M263.199 507.77C263.179 505.45 265.029 504.36 266.369 502.95C274.809 494.07 284.069 486 292.019 476.65C292.119 472.78 295.399 471.1 297.669 468.86C308.419 458.29 319.359 447.87 329.839 437.08C341.369 425.21 353.709 414.13 364.709 401.75C366.349 399.9 368.089 398.07 370.429 397.02C374.179 395.23 377.439 393.2 379.659 389.23C382.099 384.87 387.589 383.12 390.209 378.55C391.019 377.14 393.199 376.44 394.479 378.2C396.039 380.36 398.649 382.36 397.079 385.68C396.789 386.29 396.429 387.1 395.889 387.24C389.749 388.84 387.249 395.14 382.009 397.89C378.329 399.83 377.609 403.55 379.669 409.95C382.019 408.63 383.499 407.05 382.569 404.1C382.029 402.38 382.399 400.68 384.029 399.71C385.839 398.63 386.679 400.26 387.639 401.36C388.929 402.86 390.459 402.45 390.479 400.82C390.569 392.88 395.719 394.99 400.219 395.63C401.359 396.73 401.729 398.09 401.559 399.63C393.609 409.2 383.989 417.15 375.679 426.39C374.789 427.38 373.669 428.14 373.899 429.69C372.969 430.84 372.139 432.08 371.099 433.12C342.339 461.98 313.569 490.82 284.779 519.64C283.269 521.15 281.969 522.97 279.809 523.7C274.099 518.58 268.099 513.75 263.219 507.76L263.199 507.77Z" fill="#96948E"/>
<path d="M521.218 345.199C521.488 341.269 524.668 339.509 527.168 337.249C527.888 336.599 529.198 336.089 529.318 335.369C529.728 332.909 526.808 331.809 526.618 329.239C526.468 327.109 525.618 324.379 522.128 325.649C521.108 326.019 520.288 325.429 519.428 324.809C516.048 322.379 514.238 322.729 512.748 326.399C511.718 328.939 510.208 332.189 511.898 334.409C514.078 337.279 509.488 338.239 511.108 340.979C513.408 344.859 509.198 344.409 507.278 345.369C507.128 345.439 507.018 345.569 506.878 345.659C505.528 346.589 506.118 349.679 504.068 349.229C501.648 348.699 503.668 346.469 503.428 345.019C503.288 344.189 502.588 343.909 501.968 343.969C495.928 344.489 495.578 337.829 491.578 335.729C490.718 335.279 490.868 333.919 491.558 333.029C492.278 332.099 493.168 332.229 494.228 332.569C500.978 334.729 500.978 334.699 505.178 329.609C505.508 329.919 505.848 330.219 506.158 330.529C507.028 331.389 506.438 333.489 508.358 333.379C509.198 333.329 509.648 332.419 509.778 331.539C510.008 329.939 509.388 327.609 508.348 327.659C504.818 327.819 504.738 324.669 503.118 323.069C501.158 321.129 499.808 318.399 496.288 318.869C494.488 319.109 493.498 317.799 493.338 316.169C493.178 314.489 494.688 313.949 495.908 313.559C497.138 313.159 498.498 313.019 499.808 312.969C501.708 312.899 502.458 312.529 502.748 310.159C503.268 305.929 508.008 305.079 510.858 303.079C512.178 302.149 516.658 304.389 518.648 306.739C521.308 309.879 518.458 312.979 517.358 315.699C516.538 317.719 515.798 319.039 517.888 320.169C520.098 321.379 520.078 318.929 520.908 317.949C521.548 317.189 522.088 316.349 522.758 315.609C526.988 310.909 525.178 305.099 519.048 303.479C516.788 302.879 513.778 303.059 513.908 299.339C513.988 297.179 513.568 294.599 515.758 293.499C517.938 292.409 519.348 294.369 520.568 295.999C522.368 298.399 524.878 298.349 527.348 297.609C529.638 296.919 531.628 295.879 528.738 293.289C526.218 291.039 526.298 288.739 528.938 286.579C529.328 286.259 530.118 285.879 530.068 285.689C528.718 280.269 532.438 279.079 536.358 277.939C536.858 277.789 537.478 276.939 537.498 276.389C537.568 273.269 539.088 271.209 541.658 269.579C542.838 268.829 543.348 267.259 542.498 266.039C541.448 264.539 540.508 266.169 539.578 266.579C538.528 267.039 536.828 267.399 536.608 268.149C535.058 273.539 530.998 276.709 526.638 279.389C520.838 282.949 519.028 290.839 511.808 292.749C511.658 292.789 511.488 292.919 511.428 293.059C506.698 304.439 493.788 307.639 487.318 317.189C484.298 321.649 479.758 324.609 476.768 329.289C474.818 332.329 471.738 336.329 466.978 336.919C466.898 336.699 466.818 336.469 466.738 336.249C469.618 330.499 474.648 326.509 478.778 321.819C483.498 316.459 488.768 311.569 493.888 306.579C520.458 280.659 545.968 253.699 571.938 227.189C587.428 211.389 603.108 195.769 618.558 179.919C621.468 176.929 624.098 173.699 626.658 170.429C630.538 165.459 630.318 159.259 626.448 155.399C622.458 151.419 616.928 151.529 611.618 155.709C605.318 160.669 599.698 166.339 594.568 172.479C592.958 174.399 591.248 176.209 589.468 177.959C562.378 204.529 536.698 232.489 509.478 258.929C507.718 260.639 506.268 262.819 503.598 263.359C503.098 263.319 502.698 263.089 502.418 262.669C501.618 260.729 502.128 258.769 503.598 257.689C506.698 255.419 508.018 251.989 510.028 248.999C510.328 248.619 510.668 248.299 511.038 247.989C516.768 240.499 524.198 234.799 531.268 228.709C532.528 227.619 533.758 226.559 535.208 225.699C538.838 223.539 538.758 220.819 534.988 218.889C533.768 218.259 532.728 216.759 530.878 217.569C531.108 219.289 532.508 218.909 533.508 219.049C535.108 219.279 536.558 219.709 536.608 221.619C536.648 223.579 535.348 224.629 533.608 225.109C530.858 225.889 528.068 225.819 525.478 225.139C524.768 225.969 525.038 226.629 525.078 227.269C525.238 229.989 525.518 233.229 521.908 233.459C518.768 233.659 517.008 231.009 516.118 228.129C515.628 226.539 515.798 224.769 515.918 223.199C516.338 217.989 513.798 215.479 509.038 214.589C506.468 214.109 504.488 212.979 505.018 209.989C505.408 207.749 505.758 205.029 509.238 205.899C510.868 206.309 510.278 205.199 510.278 204.549C510.278 203.049 509.938 201.549 510.178 200.069C510.718 196.749 512.728 195.089 516.098 195.399C518.268 195.599 520.308 196.419 522.218 197.439C524.018 198.409 525.618 198.579 527.218 197.039C528.438 195.859 529.878 194.729 531.638 195.799C533.258 196.779 533.178 198.629 533.278 200.279C533.458 203.179 531.958 205.309 529.988 207.309C531.878 204.429 534.838 202.919 537.428 200.939C535.568 199.449 531.568 199.199 534.558 195.269C535.118 194.529 533.728 194.059 533.168 193.629C531.118 192.039 530.878 189.319 529.358 187.239C527.978 188.879 528.498 190.699 527.868 192.209C527.068 194.119 525.718 195.159 523.638 195.019C521.528 194.879 520.378 193.579 519.858 191.609C518.648 187.019 525.068 177.719 529.878 177.139C532.608 176.809 534.548 178.009 535.038 180.689C535.758 184.629 537.958 186.879 541.778 187.759C544.598 188.409 545.268 190.589 545.328 193.079C545.388 195.879 546.568 196.519 549.148 195.499C551.088 194.739 553.448 193.509 554.958 196.029C556.408 198.449 554.218 199.969 552.908 201.629C549.748 205.639 545.238 208.639 543.798 213.929C543.588 214.709 543.038 215.449 543.668 216.269C547.228 214.619 555.478 203.289 555.618 199.809C555.658 198.819 555.878 197.779 555.458 196.839C553.188 191.719 557.188 188.649 559.598 185.369C561.758 182.429 563.818 186.329 566.178 186.599C562.558 183.279 561.428 182.859 555.478 183.959C552.688 184.469 550.298 184.499 548.018 182.569C546.718 181.479 545.068 181.139 543.318 181.319C541.198 181.539 538.348 183.029 538.428 178.839C538.428 178.459 538.218 178.259 537.848 178.259C531.078 178.369 534.558 174.829 535.908 172.429C538.538 167.759 542.808 163.979 542.318 157.749C542.138 155.549 544.668 153.719 547.018 154.489C551.448 155.919 552.558 153.039 553.888 150.079C554.438 148.849 554.638 147.529 555.058 146.269C556.458 142.149 558.958 141.369 561.958 144.489C564.798 147.439 567.898 147.009 571.128 146.039C578.638 143.799 587.168 147.669 590.198 155.279C591.368 152.739 591.708 149.139 595.668 151.269C596.648 151.799 597.138 150.839 597.278 149.959C597.998 145.299 601.218 145.519 603.848 147.409C607.188 149.809 609.908 149.319 613.248 147.769C618.788 145.209 628.998 147.959 633.658 155.289C637.148 160.789 636.068 168.899 631.638 174.889C627.068 181.059 621.168 185.999 616.578 192.119C615.398 193.699 613.638 194.159 611.858 194.669C608.558 195.609 606.088 197.509 605.238 201.279C607.988 196.839 612.188 195.989 616.788 196.059C618.588 196.089 618.488 194.909 618.258 193.659C617.638 190.219 619.748 188.299 622.368 186.989C625.098 185.619 627.798 184.859 630.078 182.169C632.338 179.519 634.078 183.109 635.668 185.439C636.468 181.999 638.758 180.529 642.178 179.819C640.048 176.909 635.658 175.849 637.208 171.219C638.348 167.779 641.738 166.609 643.688 163.919C635.188 161.379 633.808 159.169 635.168 150.059C635.758 146.139 636.888 142.289 635.978 138.259C635.018 138.349 635.098 139.149 634.888 139.669C634.068 141.689 632.608 142.679 630.568 141.789C628.348 140.829 628.818 138.839 629.378 137.039C630.288 134.089 631.708 131.509 635.608 130.389C629.308 129.339 629.278 129.329 627.778 134.859C626.958 137.879 624.648 138.709 622.028 138.539C618.208 138.289 615.298 139.529 612.828 142.439C611.048 144.539 608.448 145.399 605.778 145.869C603.938 146.189 601.938 146.499 601.158 144.189C600.368 141.839 601.758 140.419 603.718 139.439C605.328 138.639 607.178 138.229 608.518 136.439C606.898 136.279 605.998 137.439 604.788 137.659C603.498 137.899 602.478 137.569 601.748 136.499C600.968 135.369 601.128 134.079 602.068 133.309C605.408 130.619 604.888 127.329 604.038 123.769C602.958 119.259 605.698 115.449 606.898 111.399C607.478 109.449 609.878 108.849 612.028 109.189C615.138 109.669 616.438 111.839 617.018 115.369C617.708 109.159 623.128 104.949 621.958 98.1992C620.848 99.6592 621.778 100.549 621.728 101.489C621.608 103.669 620.918 105.489 618.628 106.049C616.338 106.619 614.648 105.519 613.898 103.399C612.608 99.7592 610.988 96.9692 606.518 96.3292C604.248 96.0092 604.848 93.7592 606.448 92.5992C607.908 91.5292 609.638 90.7992 611.278 90.0192C613.068 89.1692 613.978 88.3592 614.088 86.0292C614.298 81.5992 618.288 78.1192 622.268 79.6392C628.958 82.1992 634.538 78.3392 640.648 77.8892C642.138 77.7792 642.728 76.4992 643.358 75.2592C646.078 69.8992 648.138 68.7592 654.038 69.5692C657.078 69.9892 660.058 68.6092 662.678 68.7092C670.318 68.9992 676.538 65.1192 683.428 63.3392C684.398 63.0892 685.828 62.7892 686.328 63.4092C689.338 67.1492 695.498 65.6192 697.798 70.4292C698.468 71.8292 699.888 71.8192 700.738 70.9892C703.128 68.6192 706.848 68.3292 708.918 65.4992C710.488 63.3492 712.628 62.3792 714.938 64.0792C717.448 65.9292 715.968 67.8292 714.478 69.5692C713.838 70.3192 713.198 71.1092 713.768 72.2392C716.288 72.3592 716.068 70.1692 716.768 68.8592C717.668 67.1592 718.738 65.7192 720.818 65.5892C723.068 65.4492 722.988 67.6592 724.018 68.7792C727.588 72.6492 726.958 76.9792 726.068 81.4692C725.738 83.1392 725.438 84.9092 723.528 85.3992C721.878 85.8192 720.658 84.6592 719.708 83.5092C716.898 80.0992 713.828 78.8692 709.718 82.0092C711.148 84.0392 713.208 84.0392 715.068 84.4592C719.148 85.3992 721.928 90.8592 720.198 94.5292C719.608 95.7892 718.578 96.0092 717.318 96.0092C713.465 95.9958 709.822 96.8392 706.388 98.5392C710.768 97.2792 713.968 98.5692 716.338 102.339C718.948 106.499 718.908 108.039 714.748 110.809C712.458 112.339 712.608 114.769 711.558 116.749C709.988 119.729 707.868 122.249 710.578 125.859C711.578 127.189 710.318 129.389 709.688 131.109C707.548 136.879 706.338 142.959 704.008 148.679C703.448 150.049 703.038 151.529 703.908 153.089C705.368 152.709 705.258 151.339 705.548 150.369C714.708 119.279 724.718 88.4592 734.268 57.4892C735.588 53.2192 735.658 48.6492 737.828 44.5592C739.098 42.1792 738.298 40.8492 735.168 41.5392C730.588 42.5392 726.298 44.3592 721.838 45.7092C690.308 55.2292 658.708 64.5392 627.168 74.0192C620.398 76.0492 615.558 80.1592 610.758 84.8292C609.038 86.4992 607.708 89.4592 604.338 88.1092C608.488 83.7992 612.638 79.4992 616.788 75.1892C617.968 73.9592 619.378 73.1592 621.018 72.6692C661.428 60.6092 701.938 48.8892 742.128 36.0992C742.398 36.0092 742.738 36.1392 743.508 36.1992C741.058 44.5092 738.708 52.7392 736.188 60.9192C726.278 93.1492 716.278 125.339 706.428 157.589C704.888 162.629 701.528 166.249 697.968 169.679C645.638 220.189 595.268 272.649 543.388 323.609C536.028 330.829 528.658 338.039 521.288 345.249L521.218 345.199Z" fill="#C8C3BC"/>
<path d="M604.269 88.0595C607.639 86.9795 609.408 83.9595 611.738 81.6695C616.058 77.4295 620.739 74.3295 626.779 72.5695C650.959 65.5395 674.888 57.6695 699.098 50.7695C711.988 47.0995 724.699 42.8595 737.589 39.2095C740.759 38.3095 740.668 39.2695 739.968 41.6895C737.478 50.3195 735.188 59.0095 732.608 67.5995C728.688 80.6195 725.048 93.7595 720.428 106.529C716.098 118.479 714.028 131.119 708.658 142.779C707.198 145.949 707.119 150.119 705.879 153.709C705.469 154.889 705.489 156.749 703.699 156.509C702.129 156.299 702.289 154.429 701.899 153.259C700.579 149.359 703.478 146.329 704.368 142.889C705.658 137.929 707.289 133.049 709.139 128.269C710.769 124.069 707.319 123.229 704.569 121.199C708.719 119.549 711.109 117.129 710.829 112.639C710.709 110.689 712.459 109.409 714.499 109.209C717.829 108.889 717.129 106.789 716.339 104.909C714.599 100.759 711.898 99.4295 707.168 100.059C706.188 100.189 705.169 100.169 704.189 100.059C703.179 99.9395 702.138 99.5495 702.218 98.2895C702.288 97.1695 703.359 97.2295 704.139 97.2095C706.249 97.1595 708.038 96.1795 709.658 95.0795C712.048 93.4695 714.138 92.4695 716.848 94.5795C718.148 95.5895 719.499 95.1195 718.999 92.9995C718.219 89.7495 719.919 84.5495 713.269 85.8495C712.339 86.0295 711.118 85.0695 710.118 84.4795C709.178 83.9295 707.029 84.9295 707.459 82.5295C707.729 80.9795 708.328 79.8595 710.038 79.2495C714.998 77.4795 716.598 77.8895 720.288 82.2395C721.118 83.2195 721.888 84.8095 723.348 84.3995C724.898 83.9595 724.458 82.2295 724.618 80.9395C724.828 79.2995 725.198 77.6895 725.428 76.0595C725.698 74.1895 725.799 72.3295 723.629 71.4095C722.689 71.0095 721.788 70.6895 721.788 69.4095C721.788 68.3295 723.309 66.4795 720.779 66.5095C719.159 66.5295 718.199 67.9095 717.769 69.4495C717.549 70.2395 717.639 71.1095 717.459 71.9195C717.029 73.8395 715.479 74.5595 713.819 74.8295C712.399 75.0595 711.969 73.7295 711.379 72.7195C710.369 70.9895 711.338 69.9395 712.548 68.8995C713.608 67.9995 715.619 67.7395 715.069 65.7095C714.789 64.6695 713.719 64.3195 712.649 64.3195C710.859 64.3295 709.968 65.3395 709.598 67.0195C709.458 67.6295 709.059 68.6795 708.769 68.6895C704.439 68.7595 701.978 72.6195 698.228 73.7995C696.328 74.3995 695.769 73.7595 696.259 71.8495C696.969 69.0395 695.259 68.2695 692.939 68.2595C690.539 68.2595 688.649 68.0995 687.279 65.3695C686.039 62.8995 682.788 64.2495 681.538 65.2395C677.808 68.1995 672.138 66.5495 669.178 70.8495C665.298 68.1695 661.759 71.1395 658.059 71.4395C656.289 71.5795 654.458 70.9995 652.668 70.7095C648.308 70.0095 645.579 71.6395 644.749 75.8995C644.189 78.7595 642.548 80.2395 639.988 79.6395C637.548 79.0695 635.789 79.6095 634.019 81.0295C630.279 84.0395 626.518 81.6795 622.788 81.0295C617.298 80.0695 614.369 83.1695 616.129 88.2295C616.529 89.3895 616.979 91.0995 615.259 90.6795C611.259 89.6995 609.548 94.0595 606.118 94.0995C606.078 94.0995 606.039 94.6895 606.009 94.9995C610.729 94.7695 613.619 96.9195 614.689 101.869C615.149 103.999 615.969 105.579 618.209 104.929C620.439 104.279 620.888 102.419 620.218 100.109C619.788 98.6495 616.539 97.7595 619.139 95.6695C619.999 94.9795 621.239 95.1595 621.819 96.0595C623.029 97.9295 625.248 99.7695 623.928 102.229C622.508 104.869 621.389 107.559 620.309 110.349C619.389 112.729 617.088 114.569 619.488 117.279C619.638 117.449 619.229 118.499 619.059 118.499C618.479 118.519 617.788 118.399 617.298 118.089C615.698 117.059 615.899 115.189 615.399 113.649C614.579 111.109 612.948 109.589 610.158 110.329C607.818 110.939 607.798 113.019 606.918 114.969C604.668 119.999 605.749 124.609 606.339 129.509C606.499 130.849 605.828 132.789 603.738 133.329C602.538 133.639 601.529 134.629 602.399 135.949C603.469 137.569 604.578 136.529 605.718 135.709C607.318 134.569 609.378 131.739 610.968 134.529C612.328 136.919 609.009 138.299 607.309 139.619C606.209 140.469 604.489 140.469 603.139 141.059C601.909 141.599 601.529 142.749 602.059 143.989C602.569 145.189 603.588 144.929 604.598 144.679C607.508 143.969 610.788 143.619 612.408 140.799C614.288 137.519 616.899 136.949 620.329 137.069C626.069 137.269 626.119 137.099 625.939 131.279C625.879 129.399 626.709 128.359 628.449 128.259C630.939 128.109 633.438 128.169 635.928 128.229C636.958 128.249 637.989 128.649 638.149 129.819C638.329 131.109 637.099 131.709 636.259 131.719C632.009 131.779 631.609 135.309 630.319 138.029C629.799 139.119 629.449 140.369 631.059 140.879C632.389 141.299 633.309 140.749 633.629 139.319C634.019 137.559 633.039 134.409 635.939 134.809C638.749 135.199 637.479 138.339 637.689 140.339C638.209 145.179 636.399 149.759 636.009 154.509C635.639 158.899 638.409 161.929 642.579 160.789C644.629 160.229 644.948 161.499 645.348 162.669C646.028 164.639 645.708 166.559 643.348 166.909C641.028 167.259 639.968 168.599 638.978 170.459C637.448 173.329 637.238 175.439 641.098 176.409C642.968 176.879 644.648 178.229 644.238 180.309C643.818 182.439 641.828 181.999 640.118 181.839C637.028 181.559 637.858 184.529 636.928 186.019C636.368 186.909 636.929 188.699 635.329 188.719C633.309 188.729 633.828 186.919 633.728 185.709C633.598 184.139 633.378 182.439 631.478 182.389C629.308 182.329 630.038 183.989 630.178 185.279C630.428 187.519 628.629 187.069 627.459 187.049C625.009 187.009 622.908 187.709 621.038 189.299C619.328 190.749 618.389 192.249 619.899 194.399C622.419 197.979 619.599 197.999 617.399 197.719C615.899 197.529 614.569 197.519 613.059 197.719C610.369 198.089 608.309 198.709 607.629 201.769C607.199 203.689 605.719 204.719 603.899 203.389C602.269 202.199 601.559 200.489 603.529 198.819C606.339 196.439 608.129 192.479 612.829 193.009C614.309 193.179 615.288 192.119 615.848 190.799C616.788 188.589 618.319 186.919 620.259 185.529C625.059 182.109 627.818 176.849 631.538 172.479C636.628 166.499 635.488 159.659 629.538 153.779C623.088 147.409 617.318 146.529 609.798 150.709C608.158 151.619 605.949 154.759 605.629 149.539C605.579 148.689 602.298 147.819 600.418 147.369C599.218 147.079 597.928 147.839 598.538 149.399C599.228 151.159 599.438 152.579 597.548 153.639C595.308 154.889 594.819 152.479 593.529 151.759C593.279 151.619 592.918 151.699 592.598 151.679C591.688 152.539 592.658 153.129 592.848 153.849C593.548 156.459 591.329 157.009 589.779 157.469C587.109 158.249 587.889 155.879 587.819 154.649C587.639 151.359 587.339 148.519 582.709 149.699C581.979 149.889 580.849 148.529 579.899 147.889C577.399 146.199 575.029 145.639 572.029 147.229C567.849 149.439 563.948 148.419 560.658 144.879C559.968 144.139 559.398 143.179 558.238 143.689C557.148 144.159 555.878 145.059 556.228 146.239C557.258 149.699 554.178 151.639 553.408 154.429C552.758 156.789 550.718 157.899 547.858 156.289C544.918 154.639 542.388 156.459 543.288 159.669C544.268 163.159 542.758 165.269 540.858 167.729C538.568 170.689 536.678 173.969 534.468 177.349C537.718 178.149 538.179 173.789 540.509 175.699C542.839 177.619 538.518 178.389 539.608 180.669C543.878 178.649 547.848 179.309 551.108 183.129C551.728 183.849 552.668 183.149 553.408 182.849C558.648 180.769 563.389 182.739 568.149 184.629C569.929 185.329 569.159 186.439 568.569 187.419C567.549 189.109 566.109 189.549 564.339 188.539C562.939 187.739 561.769 183.879 560.809 185.839C559.159 189.179 554.068 191.599 556.108 196.069C558.748 201.869 555.958 205.469 552.298 209.169C550.358 211.129 548.169 212.769 547.559 215.939C546.809 219.849 543.668 218.629 541.168 217.879C539.708 217.439 540.498 216.469 540.908 215.529C543.468 209.539 547.628 204.759 552.178 200.249C552.648 199.779 553.119 199.309 553.579 198.819C554.279 198.069 554.928 197.249 554.118 196.219C553.478 195.399 552.619 195.789 551.829 196.009C551.349 196.139 550.849 196.229 550.379 196.399C544.549 198.429 544.458 198.439 543.868 192.129C543.678 190.049 542.858 189.409 540.868 189.039C536.788 188.289 533.899 186.269 533.759 181.489C533.649 177.789 530.928 177.269 528.548 178.979C525.108 181.439 522.109 184.669 520.999 188.939C520.479 190.939 520.398 193.639 523.478 193.979C526.548 194.309 526.868 192.029 526.848 189.669C526.848 188.669 526.848 187.669 526.968 186.679C527.128 185.399 527.829 184.459 529.189 184.389C530.469 184.329 530.779 185.409 531.029 186.379C531.999 190.159 532.969 193.899 537.819 194.439C538.119 194.469 538.509 195.159 538.559 195.589C538.659 196.409 538.059 196.739 537.319 196.709C536.289 196.669 534.729 195.439 534.449 197.209C534.169 198.989 536.048 198.879 537.288 199.209C538.218 199.459 539.099 199.899 540.059 200.279C537.419 203.959 531.789 204.539 531.209 209.859C531.169 210.209 530.118 210.739 529.598 210.669C528.518 210.539 528.028 209.559 527.658 208.599C527.078 207.079 527.629 205.739 528.999 205.319C532.709 204.189 531.678 201.239 531.798 198.719C531.838 197.899 531.799 196.989 530.899 196.569C529.679 195.999 529.079 196.899 528.519 197.739C526.499 200.779 524.479 201.709 521.399 198.669C520.119 197.409 517.759 197.099 515.829 196.699C512.899 196.079 511.269 197.789 511.319 200.479C511.349 202.089 511.848 203.659 511.488 205.359C511.208 206.659 513.759 208.099 511.809 209.289C509.409 210.749 510.139 207.589 509.009 206.959C507.719 206.239 507.149 206.749 506.839 207.869C506.389 209.519 504.919 211.249 506.999 212.809C507.239 212.989 507.638 212.959 507.958 213.049C514.438 214.989 517.602 219.169 517.449 225.589C517.429 226.239 516.888 226.939 517.038 227.509C517.698 230.079 519.588 232.699 521.848 232.449C524.978 232.109 523.828 228.879 523.488 226.709C523.298 225.459 522.578 224.289 521.868 222.479C525.618 223.089 528.638 225.209 532.158 224.159C533.788 223.669 535.848 223.749 535.488 221.479C535.168 219.429 533.489 220.509 532.279 220.809C530.279 221.319 529.109 220.169 528.259 218.639C527.529 217.319 528.469 216.619 529.399 215.769C531.109 214.199 532.379 214.799 533.529 216.329C535.079 218.369 538.109 218.239 539.319 221.339C540.439 224.239 539.569 225.569 537.589 226.509C530.509 229.879 525.388 235.569 519.988 240.939C519.028 241.899 518.338 242.939 516.858 243.089C515.438 243.229 514.219 243.599 514.569 245.539C515.089 248.499 512.759 248.589 510.809 248.979C510.329 247.039 509.389 245.659 508.969 243.549C509.239 245.879 510.459 247.329 510.809 248.979C509.319 252.469 509.029 256.539 504.629 258.219C503.149 258.779 502.758 261.169 502.868 263.069C502.848 263.579 502.819 264.259 502.449 264.459C496.549 267.509 493.858 273.779 488.958 277.779C487.098 279.299 485.879 281.249 484.439 283.009C479.669 288.859 473.349 292.499 466.909 296.019C466.509 294.929 466.168 293.819 465.678 292.769C464.928 291.179 464.509 288.899 462.129 289.279C460.049 289.609 458.739 291.279 458.069 293.259C456.239 298.659 454.059 299.999 448.809 299.059C447.419 298.809 446.189 298.729 445.939 296.979C445.749 295.609 445.259 294.069 443.529 294.549C441.739 295.049 441.958 296.839 441.988 298.339C442.078 303.499 441.039 308.409 438.909 313.129C436.589 318.259 431.498 320.249 427.488 323.449C426.618 324.139 425.428 323.419 424.768 322.789C422.718 320.829 421.809 317.729 418.659 316.819C418.449 316.759 418.308 315.509 418.548 315.029C421.218 309.659 417.208 310.689 414.708 311.369C412.078 312.079 410.549 311.609 409.569 309.169C409.029 307.819 407.478 306.389 408.368 305.069C409.568 303.309 410.968 305.279 412.268 305.629C413.538 305.969 414.578 305.879 415.368 304.809C415.888 304.099 415.968 303.269 415.518 302.469C414.858 301.279 413.798 300.949 412.548 301.309C409.988 302.029 407.439 302.779 404.979 301.009C405.269 300.049 406.089 299.319 406.279 298.329C407.139 293.849 409.199 292.089 414.729 296.449C409.469 287.369 417.359 285.169 420.539 281.439C424.959 276.239 429.839 271.249 435.139 266.679C438.889 263.449 442.078 258.869 445.518 254.889C450.078 249.619 454.859 244.529 459.889 239.749C471.209 228.979 481.559 217.269 492.479 206.119C504.009 194.339 514.989 181.959 526.459 170.079C540.449 155.599 553.898 140.609 568.098 126.329C571.028 123.379 575.909 122.049 576.389 116.929V116.959C584.909 108.829 593.079 100.349 601.439 92.0695C602.379 91.1395 603.419 90.2595 603.569 88.8095C603.669 88.4695 603.888 88.2395 604.228 88.1295L604.269 88.0595Z" fill="#C7C2BC"/>
<path d="M576.429 116.869C577.369 120.539 575.969 123.049 572.439 124.159C570.719 124.709 569.489 125.769 568.489 127.049C563.199 133.819 554.419 137.639 551.919 146.939C551.649 147.939 547.709 148.419 546.019 150.409C541.839 155.329 537.719 160.569 533.369 164.999C528.169 170.299 522.599 175.639 516.889 180.629C514.499 182.719 512.339 184.999 511.629 188.309C511.399 189.399 510.789 190.399 509.569 190.949C502.939 193.879 498.409 199.139 494.989 205.229C493.519 207.849 490.899 208.409 489.099 210.299C472.719 227.489 456.239 244.579 439.789 261.699C437.739 269.629 429.509 271.719 424.849 277.279C421.509 281.269 419.059 286.149 414.459 289.129C412.769 290.229 413.009 291.549 415.189 292.209C416.169 292.509 417.039 293.359 416.509 294.479C415.789 295.999 414.649 297.299 412.929 297.699C411.679 297.999 411.209 297.059 411.009 295.969C410.809 294.869 410.399 293.939 409.069 294.659C408.199 295.129 407.189 295.949 407.819 297.009C409.959 300.609 406.849 300.289 405.019 300.939C400.889 301.799 399.499 306.179 396.069 307.929C395.739 307.699 395.609 307.459 395.689 307.189C395.769 306.919 395.869 306.779 395.969 306.779C401.329 300.869 406.699 294.969 412.059 289.059C412.399 288.139 412.799 287.269 413.839 286.929C418.519 281.929 423.829 277.529 428.029 272.079C428.369 271.169 428.789 270.319 429.789 269.949C435.199 264.329 440.599 258.719 446.009 253.099C446.569 251.099 447.749 249.669 449.749 248.979C455.159 243.359 461.079 238.239 465.969 232.139C485.939 211.199 505.869 190.219 525.879 169.329C542.679 151.799 559.569 134.359 576.419 116.879L576.429 116.869Z" fill="#C8C3BC"/>
<path d="M358.02 224.32C357.68 225.61 357.36 226.72 357.1 227.84C356.87 228.83 356.71 229.9 355.33 229.69C354.29 229.53 354.24 228.61 354.12 227.79C353.67 224.74 353.31 221.68 348.81 222.66C348.03 222.83 346.73 222.21 346.61 221.05C346.45 219.56 347.87 218.78 348.83 218.88C351.36 219.16 353.73 220.38 356.46 220.06C356.82 220.02 357.53 222.9 358.03 224.32H358.02Z" fill="#333327"/>
<path d="M603.609 88.7402C603.889 90.4302 602.939 91.5502 601.849 92.6402C594.099 100.37 586.369 108.13 578.589 115.83C578.049 116.36 577.159 116.55 576.439 116.9C585.499 107.51 594.549 98.1302 603.609 88.7402Z" fill="#C8C3BC"/>
<path d="M331.039 332.809C321.609 342.879 312.109 352.899 302.789 363.069C300.809 365.229 299.639 364.969 297.739 363.099C285.549 351.049 273.189 339.179 261.049 327.089C220.479 286.709 179.989 246.249 139.429 205.859C126.579 193.069 113.609 180.389 100.599 167.749C97.2689 164.519 95.3389 160.779 93.9989 156.349C82.0589 117.109 69.9489 77.9286 57.8889 38.7286C57.6989 38.1086 57.5489 37.4686 57.3789 36.8186C58.8189 35.5786 59.9289 36.9186 61.0289 37.2686C99.8289 49.5286 138.839 61.0486 177.909 72.3986C181.219 73.3586 183.839 74.9386 186.249 77.4286C246.019 139.289 305.579 201.349 364.459 264.049C368.669 268.539 372.689 273.199 376.849 277.739C378.899 279.979 378.899 282.049 376.789 284.269C366.819 294.749 356.879 305.259 346.919 315.749C341.029 311.229 336.119 305.659 331.209 300.199C326.089 294.499 320.739 289.059 315.349 283.639C298.689 266.909 281.599 250.579 265.359 233.449C244.539 211.479 222.779 190.449 201.609 168.829C197.889 165.029 194.849 160.609 190.769 157.129C188.089 154.849 185.359 152.729 181.599 152.539C174.039 152.159 168.689 158.829 170.839 166.079C172.019 170.049 174.699 173.009 177.549 175.829C208.909 206.789 239.369 238.619 270.359 269.939C289.879 289.669 309.409 309.399 328.899 329.169C329.879 330.169 331.479 330.889 331.039 332.769V332.809Z" fill="#C7C2BC"/>
<path d="M331.039 332.81C317.039 320.03 304.079 306.21 290.709 292.8C267.609 269.6 244.489 246.41 221.789 222.82C206.459 206.89 190.719 191.36 175.299 175.52C172.629 172.77 170.189 169.87 169.249 165.98C168.019 160.88 169.659 155.98 174.159 152.95C178.399 150.1 182.919 150.3 187.319 152.8C191.139 154.97 194.019 158.26 196.919 161.44C211.809 177.81 227.899 192.99 243.389 208.77C271.229 237.12 299.219 265.32 327.109 293.62C332.819 299.42 338.299 305.45 343.999 311.25C345.329 312.61 345.939 314.27 346.919 315.78C341.629 321.46 336.339 327.13 331.049 332.81H331.039Z" fill="#96948E"/>
<path d="M395.968 306.79C395.998 307.17 396.038 307.56 396.068 307.94C392.888 311.98 390.958 316.97 385.988 319.65C383.298 321.1 383.158 326.25 385.218 328.47C385.598 328.88 386.538 329.31 386.868 329.12C388.258 328.31 388.768 326.84 388.868 325.33C388.958 324 387.338 322.07 389.558 321.55C391.598 321.07 390.668 323.48 391.398 324.41C391.988 325.16 392.618 325.46 393.528 325.08C394.818 324.54 396.078 323.82 395.848 322.24C395.418 319.19 396.168 318.28 398.928 320.2C399.808 320.81 400.868 321.16 401.558 320.12C402.258 319.07 401.438 318.32 400.588 317.68C398.188 315.89 399.868 314.58 401.188 313.3C402.948 311.59 405.068 311.51 407.178 312.42C408.068 312.8 407.998 313.88 407.508 314.6C404.358 319.29 405.068 322.96 410.148 325.74C411.298 326.37 412.308 327.49 411.248 329.04C410.608 329.98 410.288 330.9 411.498 331.52C412.808 332.2 414.758 332.56 413.408 334.58C412.138 336.48 410.318 336.13 408.598 334.96C408.098 334.62 407.648 333.95 406.608 334.71C409.158 337.63 408.938 339.95 405.988 343.02C403.898 345.2 404.698 349.73 399.988 350.36C398.588 350.55 399.868 352.36 400.248 353.33C401.218 355.86 400.218 357.78 397.988 358.56C395.528 359.42 394.008 357.83 393.108 355.52C390.838 349.69 388.388 349.29 384.518 354.02C383.798 354.9 383.178 356.07 382.238 356.53C380.548 357.35 378.248 357.94 379.508 360.24C380.698 362.42 382.208 365.1 385.528 364.48C386.828 364.24 388.068 363.61 389.398 364.15C390.448 364.58 391.918 364.93 391.718 366.35C391.438 368.36 389.988 367.02 388.998 367.01C387.028 366.98 385.038 366.85 383.098 367.06C378.518 367.56 377.838 369.1 380.238 373.1C381.628 375.4 380.458 377.7 379.008 378.88C376.828 380.65 377.258 377.45 376.318 376.68C375.298 375.83 374.568 374.66 372.948 375.55C368.698 377.87 363.688 379.01 359.818 381.4C356.538 383.42 352.578 386.28 350.758 390.47C349.998 392.21 348.778 392.92 346.838 392.79C340.238 392.35 336.448 395.11 334.408 401.47C333.878 403.11 332.218 403.84 330.958 404.91C327.718 407.68 323.248 410.08 326.708 415.59C327.178 416.34 326.938 417.27 326.318 417.9C324.558 419.68 323.718 421.49 324.598 424.16C325.228 426.06 323.568 427.34 321.828 427.55C319.598 427.82 320.318 425.91 319.798 424.63C318.348 421.04 317.538 418.16 322.338 416.77C322.568 416.7 322.888 416.08 322.808 415.96C318.808 410.08 326.408 408.03 326.908 403.63C327.008 402.78 328.318 401.91 327.028 401.15C326.228 400.68 325.518 401.34 325.118 402.2C324.138 404.31 322.528 404.09 321.018 403C320.028 402.29 318.398 401.55 318.918 399.99C319.448 398.41 320.918 399.69 321.898 399.49C326.568 398.53 331.968 399.8 335.308 394.69C337.508 391.32 336.588 380.62 333.408 378.39C331.928 377.35 331.178 378.71 330.168 379.62C317.128 391.22 306.358 405.05 293.508 416.83C292.618 417.65 292.178 419.82 290.118 418.67C289.738 416.78 291.388 416.08 292.368 415.12C297.948 409.66 303.128 403.79 309.108 398.73C330.528 376.03 351.948 353.33 373.378 330.63C380.898 322.67 388.428 314.72 395.958 306.76L395.968 306.79Z" fill="#C7C2BC"/>
<path d="M449.748 248.979C448.848 250.669 447.518 251.969 446.008 253.099C444.608 251.489 444.198 253.079 443.458 253.839C440.218 257.169 436.948 260.469 433.688 263.779C432.638 264.839 431.568 266.219 429.948 264.769C428.328 263.319 428.988 261.769 430.158 260.409C431.128 259.279 432.158 258.069 433.808 258.059C437.028 258.039 437.378 256.379 436.408 253.809C435.548 251.509 436.898 249.799 438.788 249.839C441.658 249.899 442.558 248.259 443.328 246.239C444.648 242.779 447.838 242.229 450.578 240.879C452.468 244.099 448.238 246.159 449.748 248.979Z" fill="#343327"/>
<path d="M429.788 269.949C429.198 270.659 428.618 271.369 428.028 272.079C423.428 272.879 421.588 277.119 418.758 279.949C416.338 282.379 414.478 282.109 411.998 280.829C410.638 280.119 409.048 279.319 409.458 277.629C409.858 275.969 411.278 274.759 413.228 275.209C415.428 275.719 416.268 274.429 416.848 272.769C418.998 266.669 425.008 265.349 429.768 269.949H429.788Z" fill="#343327"/>
<path d="M309.12 398.759C302.79 405.399 296.46 412.049 290.13 418.689C282.58 426.139 275.03 433.589 267.48 441.039C267.02 439.289 268.19 438.279 269.24 437.219C281.86 424.599 294.47 411.979 307.1 399.379C307.63 398.849 308.13 397.919 309.12 398.749V398.759Z" fill="#333326"/>
<path d="M408.06 277.78C402.81 281.06 399.42 280.4 398.35 276.42C398.08 275.44 397.85 274.39 398.68 273.62C399.68 272.7 400.92 272.85 401.88 273.6C403.7 275 405.25 276.77 408.06 277.78Z" fill="#343327"/>
<path d="M413.839 286.94L412.059 289.07C410.159 288.18 407.989 292.33 406.109 288.62C405.379 287.18 404.769 286.11 405.869 284.67C407.069 283.11 408.339 283.5 409.699 284.36C411.069 285.23 412.459 286.07 413.829 286.93L413.839 286.94Z" fill="#343327"/>
<path d="M290.229 403.589C288.719 401.819 288.948 400.339 289.898 398.919C290.298 398.319 291.068 398.319 291.518 398.979C292.688 400.709 291.688 401.989 290.238 403.579L290.229 403.589Z" fill="#333326"/>
<path d="M373.879 429.7C372.869 428.67 372.959 427.59 373.909 426.64C382.889 417.64 391.489 408.25 401.029 399.81C401.469 398.29 402.459 396.62 400.029 395.82C399.009 396.4 398.539 398.15 396.749 397.02C392.759 394.51 391.619 396.04 392.459 400.2C392.549 400.64 392.309 401.19 392.089 401.62C391.429 402.91 391.089 404.55 389.199 404.68C387.519 404.79 386.969 403.52 386.359 402.32C386.009 401.63 386.129 400.61 384.969 400.37C382.979 401.58 383.159 402.97 384.339 404.83C385.189 406.17 380.249 413.2 378.659 413.16C378.369 413.16 378.009 412.96 377.799 412.74C377.289 412.21 377.559 411.58 377.569 410.93C377.669 406.01 374.699 400.46 380.619 396.79C381.039 396.53 381.479 396.09 381.909 396.08C384.729 396.07 385.949 395.2 385.379 391.96C385.049 390.07 386.729 388.71 388.999 388.81C390.849 388.9 392.549 388.74 394.079 387.33C396.579 385.02 396.299 379.98 393.419 378.44C392.009 377.69 388.639 380.91 389.039 383.08C389.299 384.49 389.519 385.75 387.949 385.43C383.309 384.5 381.159 388.36 380.089 390.88C378.199 395.31 374.679 396.3 371.079 397.79C370.489 394.69 373.109 393.47 374.749 391.8C381.829 384.58 388.899 377.33 396.609 370.77C397.749 369.8 398.749 368.67 399.359 367.27C408.349 359.91 415.859 351.03 424.089 342.91C424.409 342.59 424.719 342.28 425.039 341.96C427.499 337.1 431.429 333.79 436.189 331.33C437.829 331.68 438.759 332.9 439.349 334.28C440.519 337.01 441.169 339.56 445.469 339.01C447.619 338.74 449.489 341.85 449.639 344.47C449.789 346.98 447.979 348.54 445.629 348.78C443.039 349.05 441.089 350.51 438.859 351.41C435.199 352.88 431.159 351.49 427.389 350.67C426.169 350.4 425.349 349.99 424.299 350.92C419.089 355.53 413.779 360.04 409.169 365.28C408.509 366.03 407.719 366.81 407.719 367.83C407.719 371.32 407.719 374.2 402.539 372.86C400.189 372.25 399.349 376 401.059 380.06C403.199 380.2 403.339 376.64 405.809 377.38C407.989 378.03 408.719 379.95 409.679 381.69C410.349 382.91 411.459 383.34 412.629 382.7C416.509 380.55 420.789 379.01 423.179 374.72C424.349 372.62 424.769 371.01 423.599 368.76C422.149 365.97 423.409 363.51 425.699 361.76C427.539 360.36 430.269 360.42 430.609 362.71C431.099 365.98 433.169 366.59 435.449 367.48C434.459 372.88 429.839 375.59 426.289 378.71C420.029 384.2 414.369 390.25 408.359 395.95C407.639 396.63 406.979 397.4 406.039 397.8C403.379 399.79 401.079 402.14 399.099 404.79C390.699 413.08 382.299 421.38 373.899 429.67L373.879 429.7Z" fill="#96948E"/>
<path d="M413.599 450.389C409.269 454.449 405.849 457.779 402.249 460.909C401.399 461.649 400.729 464.289 398.939 462.269C397.709 460.879 397.209 458.459 398.769 457.299C400.949 455.659 402.149 454.349 401.599 451.339C401.349 449.969 403.309 448.669 405.299 449.019C407.539 449.409 409.789 449.769 413.589 450.389H413.599Z" fill="#C7C2BC"/>
<path d="M406.029 397.83C414.369 389.32 422.709 380.82 431.029 372.3C432.409 370.89 433.689 369.37 435.019 367.9C435.469 366.05 436.689 364.72 437.979 363.42C445.929 355.47 453.859 347.5 461.859 339.58C463.219 338.23 464.429 336.44 466.779 336.73L466.939 336.89C467.189 341.02 465.339 343.73 461.649 345.59C456.719 348.07 454.459 353.21 450.919 357.09C450.419 357.63 449.939 358.56 450.699 359.32C451.409 360.02 452.239 359.62 453.009 359.31C454.799 358.57 457.299 356.6 458.399 357.96C461.659 362 466.949 364.27 468.679 369.6C468.779 369.9 468.879 370.36 468.729 370.56C466.729 373.36 462.759 373.85 460.989 377.28C460.649 377.94 457.189 376.26 455.219 374.26C451.779 370.76 448.159 367.98 448.769 362.42C448.899 361.26 447.659 360.79 446.579 361.21C443.949 362.23 440.899 363.14 440.399 366.36C439.929 369.44 437.859 371.09 435.659 372.3C433.069 373.73 431.679 376.32 429.409 377.83C420.879 383.51 414.459 391.47 406.879 398.16C406.779 398.25 406.319 397.95 406.029 397.83Z" fill="#C8C3BC"/>
<path d="M477.859 334.93C479.539 335.42 482.199 335.22 481.589 338.57C481.249 340.45 482.879 341.1 483.729 342.23C485.479 344.57 487.109 346.07 487.949 341.65C488.209 340.28 488.709 338.82 490.499 339.5C491.999 340.06 492.189 341.66 491.659 342.91C490.279 346.17 491.139 347.63 494.669 348.47C496.799 348.97 498.779 350.64 500.499 352.16C502.419 353.86 502.659 356.25 500.209 357.54C497.919 358.75 496.789 360.48 495.929 362.69C495.439 363.94 494.609 365.26 493.199 365.35C491.639 365.45 491.839 363.72 491.399 362.75C490.599 360.98 491.299 359.53 492.669 358.34C492.899 358.14 493.269 358.1 493.579 357.98C495.029 357.41 498.109 358.8 497.479 355.75C496.869 352.85 494.319 354.75 492.499 354.69C489.379 354.58 487.199 357.34 483.959 356.93C480.239 356.46 478.959 355.07 480.789 351.8C482.139 349.38 481.459 348.38 479.629 346.93C477.259 345.06 475.779 342.46 474.649 339.63C473.299 336.25 474.049 334.86 477.859 334.93Z" fill="#C8C3BC"/>
<path d="M445.959 372.859C447.099 372.929 448.999 373.019 448.639 374.259C447.629 377.799 449.469 380.279 450.809 383.129C451.339 384.249 451.499 386.539 449.679 386.919C447.779 387.319 447.949 385.289 448.009 384.109C448.129 381.769 446.829 381.239 444.899 380.509C442.609 379.639 441.769 377.019 441.919 374.879C442.039 373.169 444.189 372.779 445.959 372.869V372.859Z" fill="#C8C3BC"/>
<path d="M480.809 367.98C480.689 368.59 480.679 369.25 480.439 369.81C479.509 371.97 479.959 376.24 477.439 375.77C475.339 375.37 473.869 371.46 472.219 369.04C471.849 368.49 472.099 367.66 472.809 367.41C473.159 367.29 473.969 367.54 474.089 367.83C476.239 372.79 478.219 370.49 480.809 367.99V367.98Z" fill="#C8C3BC"/>
<path d="M436.69 388.99C438.09 389.36 439.61 389.75 439.82 391.54C440.02 393.27 438.89 393.8 437.37 393.78C435.75 393.76 434.34 393.28 434.2 391.45C434.09 389.91 435.1 389.1 436.69 388.99Z" fill="#C8C3BC"/>
<path d="M473.319 348.379C472.909 349.519 472.079 349.899 471.019 349.669C469.519 349.329 468.969 348.209 469.019 346.789C469.049 345.949 469.349 345.009 470.419 345.409C471.809 345.919 472.799 346.979 473.309 348.389L473.319 348.379Z" fill="#C8C3BC"/>
<path d="M459.45 391.399C459.45 392.189 459.04 392.629 458.29 392.689C457.44 392.749 456.57 392.689 456.29 391.679C456.01 390.629 456.61 390.099 457.57 390.049C458.49 390.009 459.11 390.549 459.45 391.399Z" fill="#C8C3BC"/>
<path d="M493.53 325.49C494.36 325.69 495.28 325.91 495.33 326.87C495.38 327.88 494.45 328.16 493.64 328.27C492.91 328.37 492.35 327.88 492.24 327.2C492.08 326.25 492.64 325.7 493.53 325.5V325.49Z" fill="#C8C3BC"/>
<path d="M400.059 367.879C391.609 376.509 383.149 385.129 374.709 393.779C373.439 395.079 372.269 396.469 371.059 397.809C359.839 408.899 348.569 419.949 337.409 431.099C322.239 446.249 307.149 461.469 292.019 476.649C290.489 474.839 291.099 473.149 292.609 471.849C294.609 470.139 295.839 467.739 298.239 466.329C300.289 465.119 300.569 462.859 299.529 460.589C298.379 458.079 296.629 458.869 294.999 459.829C292.729 461.159 290.939 459.439 288.589 459.499C290.499 454.549 292.539 450.109 289.579 445.269C288.649 443.749 289.689 442.479 291.409 441.889C292.959 441.359 296.309 442.639 295.139 439.119C294.309 436.619 292.429 434.349 289.159 434.979C287.619 435.279 286.269 435.849 285.369 433.969C284.159 431.439 284.329 428.949 287.439 428.799C291.479 428.609 294.859 427.419 297.699 424.309L298.509 425.349C297.089 427.349 295.679 429.339 294.289 431.299C299.529 433.039 299.479 433.029 298.299 438.999C297.919 440.919 297.509 442.959 297.799 444.839C298.129 446.939 298.179 448.379 295.809 449.079C294.999 449.319 294.389 450.049 295.179 450.979C295.679 451.559 296.319 451.519 296.979 451.199C298.159 450.629 299.349 450.049 300.539 449.509C302.709 448.529 304.659 448.349 306.149 450.759C307.769 453.379 309.689 453.109 311.989 451.409C317.649 447.229 321.779 441.209 328.259 437.989C329.479 437.379 330.369 435.879 331.109 434.619C332.909 431.549 334.249 426.409 336.229 425.639C339.739 424.269 342.049 421.999 344.479 419.759C348.879 415.699 353.759 412.269 357.449 407.249C361.849 401.249 366.059 394.779 373.139 391.179C377.769 388.829 379.449 383.649 382.819 380.039C384.209 378.549 385.629 377.519 387.369 376.489C391.729 373.909 397.289 372.329 397.789 365.769C397.899 364.369 400.009 364.679 401.019 363.869C402.629 365.669 400.039 366.469 400.059 367.889V367.879Z" fill="#C7C2BC"/>
<path d="M435.94 331.88C432.3 335.24 428.66 338.61 425.02 341.97C425.16 337.97 426.8 334.86 430.74 333.58C435.73 331.95 436.18 326.43 439.74 323.61C446.85 317.97 451.88 310.35 458.31 304.05C459.77 302.62 461.44 301.61 463.26 300.82C465.41 299.88 466.73 298.36 466.94 295.96C467.32 293.55 467.89 292.07 471.09 291.57C477.45 290.57 480.42 284.51 484.74 280.53C490.93 274.84 494.7 266.64 502.89 263L503.08 263.16C504.19 265.58 502.35 266.91 501.02 268.25C480.76 288.63 460.41 308.93 440.08 329.26C438.89 330.45 437.6 331.47 435.93 331.89L435.94 331.88Z" fill="#C8C3BC"/>
<path d="M400.06 367.88C398.13 366 401.61 365.42 401.02 363.86C408.06 359.2 413.91 353.31 418.68 346.4C420.08 344.38 421.32 342.62 424.06 342.92C417.17 352.31 408.3 359.8 400.05 367.88H400.06Z" fill="#C8C3BC"/>
<path d="M359.88 397.83C360 399.39 359.33 400.38 357.76 400.63C356.85 400.78 349.45 396.75 349.58 396.2C350.31 393.14 353.22 393.69 355.25 393.08C357.22 392.49 359.68 395.28 359.88 397.83Z" fill="#C7C2BC"/>
<path d="M365.819 391.689C365.869 393.339 365.019 393.849 363.939 393.699C362.369 393.479 360.219 393.479 359.749 391.809C359.269 390.109 361.149 389.959 362.459 389.879C364.079 389.769 365.349 390.299 365.819 391.689Z" fill="#C7C2BC"/>
<path d="M345.82 396.28C344.96 397.34 344.42 398.5 343.53 398.93C342.74 399.31 342.26 398.24 342.26 397.41C342.26 396.14 342.88 395.2 344.22 395.18C344.69 395.18 345.16 395.81 345.82 396.29V396.28Z" fill="#C7C2BC"/>
<path d="M400.03 395.82C401.2 394.51 402.31 394.63 403.08 396.14C404.16 398.27 402.32 398.92 401.03 399.81C400.36 398.56 399.9 397.26 400.03 395.82Z" fill="#96948E"/>
<path d="M435.94 331.879C446.67 320.999 457.38 310.099 468.14 299.239C478.67 288.619 489.24 278.039 499.78 267.429C501.05 266.149 502.59 265.039 503.08 263.149C523.78 242.949 543.96 222.229 564.05 201.439C576.64 188.419 589.7 175.859 601.99 162.539C604.9 159.379 608.27 156.629 611.55 153.829C615.86 150.149 622.06 149.949 626.23 153.199C630.83 156.779 632.33 162.579 629.75 167.939C627.42 172.789 623.59 176.569 619.89 180.339C608.12 192.319 596.05 203.999 584.39 216.089C549.44 252.359 514.09 288.219 478.56 323.919C474.47 328.029 470.68 332.449 466.76 336.729C457.51 345.899 448.27 355.089 439 364.249C437.72 365.519 436.33 366.689 434.99 367.899C431.78 365.519 432.3 371.269 429.62 370.229C428.76 368.729 430.75 367.559 430.36 366.159C429.98 364.799 430.46 362.979 428.83 362.179C427.62 361.589 426.6 362.109 425.83 363.199C424.8 364.679 423.23 366.099 424.45 368.079C425.33 369.509 428.06 370.549 426.38 372.499C424.03 375.219 423.13 379.199 419.52 380.769C417.38 381.699 415.4 382.729 413.5 384.159C410.99 386.049 408.73 385.559 408.06 382.099C407.75 380.519 407.3 378.929 405.78 378.529C403.31 377.889 404.37 380.539 403.51 381.489C402.78 382.289 402.01 382.759 400.93 382.689C399.74 382.609 398.65 381.409 399.17 380.849C401.53 378.289 393.92 377.059 398.45 374.509C399.6 373.869 399.72 372.659 400.28 371.669C401.22 369.979 402.51 368.959 403.95 371.269C404.43 372.049 404.88 372.769 405.82 372.189C406.82 371.569 407 370.569 406.2 369.649C404.92 368.189 405.21 366.919 406.58 365.809C411.24 362.039 414.07 356.389 419.57 353.409C421.37 352.429 422.47 350.239 424.13 348.899C425.2 348.029 427.2 344.789 427.64 349.479C427.73 350.439 428.82 350.919 429.55 350.449C431.89 348.979 433.96 349.609 436.05 350.879C436.33 351.049 436.91 351.249 436.95 351.189C439.48 347.179 444.23 348.299 447.66 346.479C449.08 345.719 449.57 343.549 447.66 342.959C446.02 342.459 446.98 337.949 443.73 340.589C440.63 343.109 439.87 340.129 439.37 338.309C438.7 335.819 437.8 333.639 435.93 331.879H435.94Z" fill="#96948E"/>
<path d="M488.91 242.519C488.76 241.019 488.91 239.489 488.41 238.199C486.86 234.169 485.61 230.679 491.56 228.969C494.06 228.249 494.02 225.279 493.86 222.899C493.75 221.359 492.74 219.549 495.64 218.799C495.67 222.649 498.08 226.279 495.19 230.109C494.43 231.109 494.25 233.459 495.58 234.229C497.29 235.229 498.09 233.239 498.86 232.059C499.9 230.449 501.12 229.469 502.94 230.739C506.1 232.919 507.01 230.739 507.85 228.339C508.18 227.409 508.29 226.379 508.75 225.519C509.66 223.839 511.34 223.389 513.02 223.799C515.29 224.339 514.19 226.039 513.99 227.439C513 234.279 511.07 235.859 504.23 234.889C501.25 234.469 501.1 237.349 499.51 238.519C498.03 239.609 498.36 240.989 499.89 242.189C501.34 243.329 501.18 244.909 499.99 246.109C498.83 247.279 497.35 248.319 495.54 247.629C493.86 246.989 494.29 245.649 494.64 244.269C495.13 242.289 493.83 241.129 492.27 240.359C490.18 239.329 490.27 242.059 488.91 242.519Z" fill="#C8C3BC"/>
<path d="M582.03 123.879C585.98 126.479 588.92 128.019 591.76 123.059C592.66 121.489 594.53 122.349 595.72 123.319C597.1 124.439 595.93 125.319 595.19 126.189C594.35 127.189 591.81 127.859 593.52 129.479C594.93 130.819 597.19 130.709 598.82 128.899C599.65 127.979 599.89 125.359 601.92 127.199C603.63 128.749 601.8 130.009 601.06 131.459C597.75 137.939 590.74 136.469 585.54 138.839C584.49 139.319 583.95 138.049 583.81 136.969C583.22 132.599 582.61 128.239 582.01 123.879H582.03Z" fill="#C8C3BC"/>
<path d="M467.399 269.84C466.869 274.41 463.869 276.67 459.919 278.13C453.299 280.59 453.369 280.58 450.539 274.32C449.599 272.25 447.969 270.47 447.149 268.37C446.679 267.17 446.329 265.24 448.039 264.39C449.529 263.66 450.769 264.9 451.309 265.96C452.819 268.9 456.089 269.87 457.959 272.37C458.729 273.4 459.909 274.56 461.289 273.37C462.449 272.36 461.419 271.34 460.799 270.35C459.209 267.81 460.819 263.4 463.649 263.44C467.729 263.51 466.189 267.6 467.399 269.85V269.84Z" fill="#C8C3BC"/>
<path d="M577.47 132.75C574.17 138.01 577.36 138.99 581.98 139.56C583.93 139.8 584.1 142.02 583.57 143.67C582.93 145.69 581.1 145.46 579.95 144.49C576.6 141.68 573.61 141.99 570.1 144.36C566.99 146.46 564.08 144.34 561.33 142.81C559.93 142.03 560.58 140.83 560.82 139.72C561.2 138.01 562.26 137.21 564 137.19C568.28 137.14 571.99 136.24 573.38 131.39C573.62 130.54 574.45 129.52 575.63 129.9C576.78 130.28 577.53 131.19 577.47 132.73V132.75Z" fill="#C8C3BC"/>
<path d="M481.659 254.549C478.589 254.859 471.669 247.319 472.159 244.699C472.639 242.169 474.339 242.969 475.379 244.129C476.879 245.809 478.129 246.829 480.719 246.219C482.969 245.699 483.679 247.959 483.799 249.829C483.929 251.919 482.839 253.519 481.659 254.549Z" fill="#C8C3BC"/>
<path d="M606.66 104.279C607.15 108.639 603.85 109.199 601.87 110.549C600.59 111.419 598.39 107.299 599.52 105.229C600.64 103.159 601.93 101.409 601.02 98.8088C600.61 97.6388 601.65 96.6288 602.98 96.4388C604.36 96.2388 605.27 97.0388 605.56 98.2588C606.08 100.499 606.4 102.799 606.67 104.289L606.66 104.279Z" fill="#C8C3BC"/>
<path d="M454.779 293.169C453.109 290.889 451.509 288.209 448.369 291.309C447.759 291.919 447.189 292.689 446.479 291.579C445.849 290.599 446.009 289.389 447.209 289.209C450.479 288.699 451.299 287.219 450.309 284.029C449.719 282.149 451.329 281.709 452.759 282.529C458.069 285.599 459.429 285.069 454.789 293.169H454.779Z" fill="#C8C3BC"/>
<path d="M700.129 62.64C703.419 61.19 706.119 60 708.809 58.8C709.599 58.45 710.469 58.14 711.029 58.96C711.329 59.4 711.439 60.47 711.159 60.72C709.129 62.51 707.189 64.66 704.779 65.7C703.119 66.42 701.989 63.85 700.119 62.64H700.129Z" fill="#C8C3BC"/>
<path d="M511.659 219.19C510.779 220.65 509.999 222.2 508.239 221.56C505.789 220.67 504.409 218.65 503.999 216.08C503.859 215.22 504.649 214.04 505.269 214.6C507.219 216.38 510.459 216.47 511.669 219.18L511.659 219.19Z" fill="#C8C3BC"/>
<path d="M470.778 263.629C471.968 266.169 472.628 267.629 473.338 269.069C474.038 270.509 474.198 271.899 472.988 273.139C472.218 273.919 471.258 274.039 470.308 273.469C468.778 272.539 468.778 270.989 469.048 269.539C469.368 267.849 469.998 266.229 470.768 263.639L470.778 263.629Z" fill="#C8C3BC"/>
<path d="M727.58 52.3498C727.7 56.5398 724.04 54.7898 722.19 55.7898C721.26 56.2898 719.96 55.4998 720.11 54.4498C720.57 51.2798 724.47 52.4798 726.03 50.1698C726.57 49.3598 727.39 51.3498 727.59 52.3498H727.58Z" fill="#C8C3BC"/>
<path d="M491.98 263.179C489.42 262.409 486.15 262.629 486.19 259.009C486.21 257.559 487.84 256.469 488.98 256.769C492.13 257.599 490.62 261.089 491.98 263.179Z" fill="#C8C3BC"/>
<path d="M591.529 145.96C591.689 147.64 590.759 148.03 589.459 148.1C587.159 148.23 586.319 146.73 585.939 144.86C585.699 143.7 585.819 142.29 587.399 142.42C589.549 142.6 590.589 144.37 591.519 145.96H591.529Z" fill="#C8C3BC"/>
<path d="M510.84 249.099C507.29 246.589 507.31 243.889 509.19 240.869C509.42 243.659 512.72 245.799 510.84 249.099Z" fill="#C8C3BC"/>
<path d="M422.69 307.73C422.04 309.15 421 309.69 419.84 309.56C418.76 309.44 417.29 309.06 417.55 307.6C417.83 306.01 419.31 305.9 420.68 306.08C421.77 306.22 422.34 306.92 422.69 307.73Z" fill="#C8C3BC"/>
<path d="M505.568 248.39C504.978 249.6 504.838 251.37 503.008 251.48C501.918 251.55 501.928 250.4 501.988 249.62C502.108 248.21 502.848 247.03 504.228 246.72C505.118 246.52 505.618 247.34 505.568 248.38V248.39Z" fill="#C8C3BC"/>
<path d="M621.578 140.48C621.488 141.15 621.258 141.8 620.458 141.68C619.598 141.55 619.078 140.91 618.968 140.04C618.838 139.09 619.208 138.41 620.258 138.66C621.108 138.86 621.468 139.63 621.578 140.48Z" fill="#C8C3BC"/>
<path d="M440.959 279.779C439.949 279.839 439.279 279.499 439.209 278.529C439.159 277.849 439.549 277.289 440.279 277.189C441.119 277.079 441.939 277.289 442.189 278.199C442.489 279.249 441.599 279.489 440.959 279.779Z" fill="#C8C3BC"/>
<path d="M403.999 331.73C403.999 332.87 404.119 333.72 403.979 334.52C403.489 337.42 401.509 340.54 399.169 340.37C395.419 340.09 398.509 336.68 398.129 334.71C397.909 333.55 398.489 332.1 399.059 330.96C399.909 329.26 400.449 326.34 402.649 326.81C405.039 327.33 403.649 330.22 403.999 331.74V331.73Z" fill="#C8C3BC"/>
<path d="M407.62 393.26C405.54 390.91 405.86 388.96 407.75 387.31C408.6 386.56 409.91 386.97 410.3 387.95C411.41 390.72 408.34 391.24 407.63 393.27L407.62 393.26Z" fill="#96948E"/>
<path d="M305.709 456.729C305.649 457.939 304.899 458.449 303.849 458.569C302.769 458.689 301.879 458.169 301.599 457.169C301.289 456.079 301.939 455.229 303.039 455.139C304.199 455.039 305.199 455.579 305.709 456.739V456.729Z" fill="#C7C2BB"/>
</g>
<defs>
<clipPath id="clip0_335_2596">
<rect width="799.34" height="784.43" fill="white"/>
</clipPath>
</defs>
</svg>
