<svg width="524" height="699" viewBox="0 0 524 699" fill="none" xmlns="http://www.w3.org/2000/svg">
<path d="M258.02 656.13C249.64 667.8 242.38 680.36 230.26 688.95C199.03 711.08 154.39 693.77 146.79 656.29C144.72 646.07 146.7 635.74 147.4 625.49C148.16 614.41 149.4 603.35 150.46 592.29C150.54 591.5 150.89 590.74 151.12 589.96C152.97 579.08 153.04 568.03 154.24 557.09C154.59 553.89 155.59 550.6 154.44 547.33C155.4 534.96 156.26 522.58 157.34 510.22C159.48 485.77 161.75 461.34 164.02 436.28H111.34C100.97 435.23 90.5802 436.03 80.2002 435.9C72.3102 435.8 64.3802 435.35 56.4902 436.21C27.5702 432.1 5.41018 411.79 0.910179 384.05C-1.51982 369.07 1.10018 354.36 7.06018 340.31C8.98018 335.78 10.5802 331.11 12.3302 326.5C15.8002 326.9 14.3102 329.37 13.8802 330.9C12.6302 335.37 11.0802 339.78 9.25018 344.05C7.38018 348.41 6.64018 352.84 6.67018 357.59C6.68018 359.75 7.24018 359.63 8.78018 359.43C11.0102 359.14 8.85018 358.35 8.89018 357.88C9.12018 355.41 11.2802 354.26 13.5902 355.53C14.9602 356.28 15.2402 358.03 16.6302 358.74C19.1902 354.05 19.4902 353.99 23.8402 357.53C24.8302 358.33 26.0302 358.07 27.4602 358.46C26.3402 352.97 30.5302 350.35 33.1802 346.9C33.3802 346.63 33.6802 346.29 33.9502 346.32C38.2002 346.7 39.1102 351.02 41.8602 353.21C43.4302 354.46 42.9702 356.22 40.7802 356.97C38.8402 356.8 37.6602 357.63 37.1402 359.54C36.6102 361.52 38.1002 362.04 39.2602 362.98C42.3902 365.54 46.9202 366.5 47.7602 371.72C48.1102 373.87 52.8202 373.69 52.7202 377.23C53.3202 376.95 53.8102 376.47 54.4702 376.29C58.1902 377.26 60.2102 380.97 63.8402 382.11C64.3102 382.39 64.7602 382.65 65.2602 382.87C74.7602 383.24 84.2302 383.05 93.7102 383.05C129.31 383.05 164.91 383.05 200.5 383.05C202.82 383.05 205.16 383.22 207.46 382.75C208.07 382.64 208.68 382.65 209.29 382.75C216.01 385.61 217.89 391.54 218.68 397.99C219.23 402.44 219.12 406.96 218.84 411.42C217.91 426.31 217.27 441.23 215.47 456.05C215.23 458.02 214.93 460 214.43 461.92C211.68 467.35 212.52 473.38 212.27 479.06C211.88 487.91 208.86 496.64 210.9 505.59C211.41 518.92 209.59 532.13 208.37 545.34C207.05 559.57 206.19 573.83 204.9 588.06C203.51 603.44 202.78 618.88 201.04 634.24C200.78 636.55 200.69 638.87 201.03 642.23C204.95 636.92 208.32 632.16 211.76 627.47C224.94 609.5 237.98 591.43 251.2 573.49C252.29 572.01 253.34 570.51 255.09 569.72C256.05 569.35 257.3 569.08 257.95 569.76C261.2 573.1 264.05 576.83 269.28 577.41C270.34 577.53 271.17 580.07 270.22 580.82C266.88 583.45 268.5 588.29 264.33 591.13C268 591.16 270.37 592.66 273.06 592.81C276.73 593.02 276.8 595.97 275.76 597.77C274.24 600.41 273.55 604.19 269.51 604.8C268.39 604.97 267.12 605.57 267.09 606.95C267.04 608.89 268.59 608.06 269.61 608.24C271.13 608.52 271.12 609.83 271 610.99C270.82 612.8 269.62 613.93 268.18 614.87C263.77 617.76 263.77 617.79 268.08 620.64C271.57 622.95 270.24 625.25 267.56 627.46C274.44 629 274.79 629.71 270.99 635.21C269.19 637.81 268.46 640.93 266.31 643.38C262.87 647.31 262.32 647.54 258.03 644.68C253.45 648.48 258.21 652.29 258 656.12L258.02 656.13Z" fill="#444127"/>
<path d="M40.4604 356.54C42.0704 355.77 42.5204 354.55 40.8804 353.61C38.1404 352.05 36.8204 349.34 34.6704 346.69C33.5904 349.81 30.3204 350.95 29.3304 353.96C29.1604 354.47 28.0304 354.54 28.4704 355.43C29.3004 357.06 29.8804 358.77 27.8004 359.76C26.3704 360.44 24.1504 358.94 22.5904 356.83C21.7704 355.73 20.3304 355.72 19.3904 356.21C17.2304 357.35 19.3904 359.1 19.0804 360.56C16.7104 360.71 14.5104 360.71 13.9004 357.61C13.5904 356.02 12.2304 355.51 10.8604 356.07C9.45042 356.64 9.52042 357.85 10.4104 358.93C11.5704 360.34 10.2104 361.67 10.8004 362.85C8.81042 363.68 10.4704 357.82 7.22042 361.47C7.08042 361.63 4.93042 361.89 4.92042 358.72C4.86042 348.22 10.2704 339.58 12.8304 330.03C13.1904 328.7 13.7904 327.49 12.3104 326.5C22.6804 298.83 33.0104 271.14 43.4404 243.49C49.7304 226.81 56.4804 210.3 62.4204 193.5C64.6504 187.21 68.1304 181.39 69.4104 174.76C76.0404 157.48 82.6604 140.2 89.3104 122.94C90.2404 120.53 91.3304 118.18 92.3404 115.81C95.2104 111.14 96.6804 105.87 98.5704 100.81C101.56 92.7802 104.73 84.8102 107.71 76.7702C108.27 75.2502 109.2 73.7602 108.63 72.0102C114.26 57.8502 117.81 42.7902 127.11 30.2402C133.19 22.0402 140.39 15.1502 149.4 10.2402C157.35 7.05023 165.09 3.41023 173.66 1.79023C178.87 0.800234 184.21 2.11023 189.26 0.240234C191.93 0.250234 194.6 0.260234 197.27 0.270234C197.34 0.700234 197.21 0.910234 196.89 0.970234C196.64 1.02023 196.74 1.44023 197.11 1.40023C205.18 0.550234 213.27 1.12023 221.35 1.07023C230.6 1.01023 239.85 0.820234 249.09 1.19023C253.8 1.87023 258.2 3.87023 263.11 4.00023C265.88 4.07023 266.69 7.16023 267.32 9.58023C267.74 11.2002 267.72 13.0102 269.71 13.5402C272.36 14.2502 272.88 16.1902 271.72 18.0902C270.02 20.8802 269.46 16.8402 267.95 17.0802C267.41 17.1702 266.74 16.6602 266.12 17.0802C265.63 17.6302 265.03 18.1002 264.71 18.8402C265.76 18.5802 265.5 17.2302 266.41 16.8902C268.2 17.0202 269.83 17.5302 269.71 19.6902C269.62 21.5002 268.23 23.4602 266.77 23.2302C263.28 22.6802 265 27.0702 262.51 27.1702C262.39 27.1702 262.89 27.2702 263.07 27.3902C264.58 28.3202 267.03 29.0402 263.78 30.9302C263.46 31.1202 263.69 31.1102 264.07 31.2702C270.12 33.7802 265.79 38.4302 266 42.0302C266.1 43.7602 263.49 44.2102 261.78 44.4302C264.26 44.5902 266.2 43.9602 266.49 40.8602C266.77 37.9202 268.2 38.0302 270.09 39.5702C270.74 40.1002 271.25 40.7702 271.73 41.4402C272.84 43.0202 276.99 42.7502 275.82 44.6802C274.04 47.6402 272.77 52.0202 268 52.1502C265.82 52.2102 263.74 52.7902 261.62 53.2602C253.53 53.9102 245.38 52.4902 237.34 54.1602C234.94 54.6102 232.53 54.6102 230.13 54.1802C228.04 53.5902 225.92 53.3602 223.74 53.3702C210.62 53.4102 197.49 53.3702 184.37 53.4002C181.89 53.4002 179.32 53.1902 177.48 55.4002C172.98 59.1202 170.48 64.0502 168.42 69.4302C147.79 123.46 127.42 177.58 106.98 231.68C99.5804 251.26 92.5604 271 84.7904 290.44C84.2304 291.84 83.5704 293.17 82.6504 294.37C78.5004 300.86 76.7604 308.35 73.9504 315.4C69.1004 327.54 64.6404 339.82 60.1404 352.09C59.7404 353.18 59.2204 354.23 59.5304 355.44C59.7504 356.13 59.8504 356.84 59.6704 357.56C59.4104 357.96 59.0804 358.3 58.7004 358.58C56.5604 360.78 54.5804 361.94 51.1404 360.33C48.2704 358.99 44.5804 360.65 41.3704 359.39C40.1404 358.91 38.4804 358.83 39.8104 356.84C40.0204 356.74 40.2304 356.63 40.4304 356.53L40.4604 356.54Z" fill="#444127"/>
<path d="M258.02 656.13C254.97 652.16 252.98 648.11 256.48 643.29C257.01 642.56 257.48 641.95 258.29 641.81C259.35 641.62 259.43 642.43 259.73 643.28C261.06 646.97 263.12 645.99 264.9 643.73C268.18 639.56 269.3 634.18 273.15 629.54C270.16 629.48 267.73 629.6 265.59 628.09C266.28 627.19 266.82 626.11 267.68 625.44C270.93 622.92 267.69 620.96 266.56 621.21C262.71 622.07 262.63 618.45 262.26 617.17C261.71 615.27 264.65 615.02 266.19 614.41C268.56 613.47 270.35 612.4 270.02 609.36C268.76 609.47 268.41 612.07 267.09 610.78C266 609.72 264.89 607.89 265.03 606.54C265.22 604.79 266.96 603.38 268.96 603.3C274.08 603.09 273.08 598.41 274.65 595.64C274.9 595.2 275.18 593.31 273.97 594.09C270.98 596.02 269.67 592.28 267.17 592.59C263.08 593.09 264.38 590.29 264.83 588.17C265.2 586.41 268.62 585.04 264.92 582.7C263.81 581.99 266.41 581.47 267.53 581.27C268.46 581.1 269.68 581.37 269.37 579.75C269.18 578.78 269.09 577.61 267.67 577.79C262.86 578.4 260.35 575.95 258.93 571.65C258.58 570.58 257.14 570.26 255.93 570.16C256.2 566.11 257.96 563.15 262.02 561.9C264.03 562.6 265.49 564.54 267.69 564.06C266.47 562.71 263.35 563.18 262.62 560.53C262.62 557.68 264.7 555.93 266.12 553.82C268.14 551.13 270.29 548.53 272.03 545.64C272.92 544.31 273.82 542.99 274.65 541.63C289.89 521.25 304.69 500.56 319.75 480.05C339.43 453.25 358.88 426.28 378.7 399.57C388.91 385.82 398.76 371.81 408.96 358.04C410.19 356.61 411.02 354.75 413.1 354.25C415 354.69 414.64 356.12 414.44 357.42C414.16 359.2 413.65 360.96 414.34 363.39C416.17 361.49 414.76 358.9 416.8 357.48C418.23 356.48 420.62 356.68 421.11 353.92C421.34 352.62 428.97 355.25 429.8 357.84C431.41 362.85 434.62 363.09 438.62 361.63C440.44 360.97 441.03 363.21 443.34 362.67C441.43 362.81 440.49 361.22 439.96 361.48C432.52 365.03 434.8 357.91 433.55 355.34C432.51 353.2 434.03 351.45 436.81 352.28C438.25 352.71 440.02 352.65 441.1 353.44C444.77 356.13 448.26 357.07 452.55 354.66C454.48 353.58 456.19 355.23 456.56 357.2C457.16 360.37 458.74 362.84 461 364.99C463.04 366.93 461.98 369.38 461.87 371.55C461.81 372.81 460.34 373.01 458.85 371.84C460.48 373.34 462.13 372.72 462.07 371.53C461.89 368.04 464.38 366.88 466.43 365.02C468.75 362.91 470.19 359.95 472.33 357.62C473.35 356.51 474.35 354.08 476.46 356.51C476.69 358.36 475.7 359.77 474.75 361.18C464.62 375.33 454.08 389.19 444.04 403.4C442.79 405.16 441.66 407.04 439.33 407.56C432.06 417.45 424.39 427.05 417.7 437.36C417.53 440.61 414.98 442.53 413.34 444.92C408.39 452.13 403.23 459.19 398.11 466.29C380.39 490.3 363 514.54 345.43 538.65C337.62 549.37 329.88 560.14 322.01 570.81C317.07 576.98 312.74 583.59 308.08 589.96C300.19 600.91 292.08 611.69 284.19 622.63C282 625.23 280.92 628.84 277.39 630.25C270.93 638.88 264.48 647.51 258.02 656.15V656.13Z" fill="#444027"/>
<path d="M56.4805 436.2C60.0805 433.68 64.3505 435.02 68.0105 435.1C81.9205 435.41 95.8305 434.99 109.74 435.14C110.72 435.15 111.35 435.11 111.34 436.27C93.0605 436.25 74.7705 436.22 56.4905 436.2H56.4805Z" fill="#1C1806"/>
<path d="M476.03 356.76C472.99 356.31 472.36 359.31 471.63 360.79C469.34 365.43 464.36 367.59 462.15 372.52C460.64 375.88 458.78 372.33 457.35 370.33C459.24 369.72 459.25 372.31 460.66 371.83C460.29 367.29 459.36 365.04 455.43 360.5C454.72 359.67 455.19 359.55 455.49 359.04C456.38 357.55 455.55 356.42 454.45 355.62C453.16 354.68 452.01 355.97 450.92 356.36C447.66 357.52 444.87 359.1 441.96 355.09C440.91 353.65 437.29 354.19 435.14 352.84C434.62 353.88 433.41 355.21 435.1 355.94C439.75 357.94 436.35 359.46 434.75 361.35C437.65 360.21 440.45 361.05 443.2 360.68C444.69 360.48 444.26 362.07 444.33 362.76C444.46 364.02 443.32 364.7 442.37 364.07C439.09 361.89 435.85 362.99 432.54 363.76C431.51 364 429.93 363.34 429.98 362.73C430.55 356.49 425.14 356.36 421.58 354.26C420.88 356.01 423.87 356.89 422.45 358.91C420.85 360 420.81 354.91 418.57 357.65C417.36 359.14 416.53 359.8 417.27 362.54C418.48 366.99 413.43 362.12 412.36 364.53C412.67 361.2 412.97 357.87 413.28 354.55C412.24 351.54 414.8 350.05 416.15 348.19C433.07 324.91 449.9 301.56 466.95 278.38C467.74 277.31 468.6 276.28 469 275C468.84 274.59 468.58 274.31 468.14 274.17C432.61 273.99 397.12 274.11 361.62 274.18C354.9 274.19 348.86 272.65 343.33 268.94C337.49 264.39 338.18 258.12 339.39 252.05C341.03 243.8 345.38 236.56 349.06 229.12C366.46 193.92 384.13 158.85 401.09 123.44C411.51 101.68 422.43 80.1702 433.08 58.5202C433.79 57.0902 435.06 55.7502 434.35 53.9202C430.92 52.7902 427.42 53.4002 423.99 53.4402C408.45 53.6202 392.9 52.8302 377.36 53.8502C376.75 53.9302 376.15 53.9302 375.55 53.8602C370.61 53.0202 365.62 53.3602 360.66 53.3602C328.99 53.3902 297.31 53.4802 265.64 53.2402C264.68 53.0802 263.82 52.7202 263.23 51.8902C264.4 50.5702 266 51.1502 267.43 50.9102C269.89 50.4902 272.77 50.6902 271.81 46.4602C271.26 44.0102 274.15 45.6302 275.39 44.2702C271.76 44.2202 269.79 41.8902 267.28 37.7102C268.01 43.7502 266.21 46.1102 261.68 46.2402C260.5 46.2702 259.79 46.0502 259.16 45.2302C258.69 44.6202 258.68 43.7502 259.38 43.5602C260.37 43.2902 260.68 40.7702 262.31 42.6302C263.67 44.1802 264.63 42.4102 265.02 41.8802C267.75 38.1202 265.43 32.4602 260.69 31.2902C261.65 30.0702 263.7 31.1902 264.29 29.4902C263.32 27.2202 260.84 28.7602 258.73 27.5502C260.6 26.3902 262.55 26.5402 263.82 24.4402C263.77 23.2802 260.21 24.2102 261.27 21.4002C263.66 22.5102 266.5 24.0702 268.44 20.4402C269.77 17.9502 267.47 17.8102 266.23 16.9702C268.61 13.5002 269.04 18.5602 271.02 17.7502C270.7 16.8502 272.87 15.0802 269.43 14.8702C268.08 14.7902 265.92 13.4902 266.19 10.4702C266.29 9.28022 266.4 2.66022 260.78 6.27022C257.82 3.23022 253.57 4.17022 250.07 2.81022C251.01 0.15022 253.32 1.20022 255.11 1.03022C256.9 0.86022 258.73 0.99022 260.53 0.99022C262.11 1.03022 263.7 0.90022 265.27 1.14022C266.5 3.00022 268.94 3.53022 270.18 5.31022C270.38 3.97022 269.33 3.89022 268.27 3.42022C266.11 2.46022 266.98 1.62022 268.66 1.07022C284.56 0.91022 300.45 1.03022 316.34 0.96022C318.29 0.96022 320.33 1.42022 322.14 0.21022C346.22 0.13022 370.31 0.03022 394.39 -0.00978C409.66 -0.02978 424.92 -0.09978 440.19 0.11022C452.96 0.28022 464.15 4.93022 473.98 12.9702C475.5 13.4402 476.51 14.4202 476.98 15.9502C495.05 37.2802 494.95 59.9802 482.44 83.8602C476.62 94.9802 471.42 106.43 465.94 117.73C465.84 120.46 464.56 122.79 463.41 125.17C448.85 155.47 433.72 185.49 418.7 215.56C417.96 217.05 417.25 218.56 416.65 220.09C416.64 220.5 416.75 220.87 417.03 221.18C431.71 221.43 446.36 221.54 460.99 221.13C475.42 220.73 489.21 222.16 501.51 230.52C504.56 231.62 506.89 233.48 507.92 236.68C519.25 249.28 524.71 263.92 522.92 280.91C521.82 291.3 517.06 300.26 511.23 308.73C510.4 309.94 509.68 311.24 508.91 312.49C507.51 317.65 503.52 321.16 500.6 325.33C493.94 334.82 487.03 344.13 480.16 353.47C479.13 354.88 478.25 356.68 476.06 356.7L476.03 356.76Z" fill="#444127"/>
<path d="M249.231 0.200195C244.891 1.4502 240.561 1.5502 236.221 0.200195C240.561 0.200195 244.891 0.200195 249.231 0.200195Z" fill="#444127"/>
<path d="M267.17 554.18C265.82 556.18 264.47 558.18 263.12 560.17C262.69 560.7 263.04 561.75 261.99 561.87C259.46 564.25 257.79 567.26 255.94 570.14C241.67 589.49 227.4 608.84 213.15 628.2C208.83 634.07 204.56 639.97 200.27 645.86C199.81 645.8 199.34 645.73 198.88 645.67C202.59 598.85 206.29 552.04 210 505.22C208.99 496.62 210.94 488.18 211.41 479.67C211.73 473.95 211.73 468.15 213.12 462.52C215.23 441.92 217.41 421.31 217.19 400.56C217.12 393.62 215.52 387.4 208.82 383.74C196.28 383.2 183.74 383.71 171.21 383.47C167.61 383.43 169.94 380.45 169.37 379.04C168.65 377.24 171.08 376.64 172.74 376.41C179.58 375.48 184.98 372.42 188.23 366.15C186.82 366.57 185.48 367.27 184.06 367.74C183.99 367.76 183.04 366.96 183.61 368.03C185.69 371.94 182.75 373.26 180.06 373.6C177.17 373.96 173.08 371.82 173.65 369.62C174.44 366.54 173.65 363.56 174.51 360.68C174.75 359.88 175.61 359.47 176.42 359.21C176.9 359.15 177.36 359.21 177.79 359.42C180.97 362.87 186.88 362.86 189.96 359.38C192.42 356.61 194.92 356.81 196.65 360.1C199.71 365.93 205.96 366.19 211.05 368.38C212.4 368.96 213.56 367.12 214.66 366.15C217.3 365.55 215.8 362.8 216.98 361.37C217.15 361.17 215 361.58 214.1 360.84C212.74 360.01 212.16 358.84 211.94 357.2C211.6 354.65 212.6 353.45 214.88 354.3C218.5 355.65 219.21 353.38 219.96 350.86C220.2 350.06 220.3 349.24 220.4 348.42C220.62 346.51 221.67 345.21 223.6 345.33C225.68 345.45 227.33 347.03 226.83 348.94C226.03 351.99 227.71 353.11 229.75 354.31C232.08 355.68 232.94 353.54 234.23 352.45C235.01 351.8 235.87 351.19 236.92 351.42C239.98 352.09 243.05 355.08 246.05 351.29C246.06 351.28 246.36 351.16 246.52 351.32C249.39 354.18 254.36 353.69 256.58 357.59C256.46 359.16 255.13 360.18 254.77 361.65C254.45 362.94 253.75 364.1 253.4 365.39C255.37 362.6 257.27 359.56 261.32 362.46C264.38 364.65 266.28 359.88 269.18 361.2C270.81 362.74 270.89 364.54 270.1 366.29C272.18 363.83 275.68 365.89 278.09 364.18C282.47 364.68 288.84 370.54 289.2 374.56C289.41 376.84 287.86 378.45 286.06 379.2C283.62 380.22 282.28 381.49 282.29 384.28C282.29 386.84 280.15 388.08 278.13 388.62C275.93 389.21 273.29 389.14 271.48 387.63C269.91 386.32 270.76 384.96 272.39 383.66C275.22 381.4 278.16 379.01 278.74 374.77C275.25 374.24 273.86 376.07 271.57 378.32C267.76 382.05 269.32 386.84 267.13 390.61C266.71 390.85 266.27 390.99 265.78 391C261.65 389.62 258.49 391.88 255.4 394.06C255.98 394.94 257.3 394.82 258.39 395.19C261.17 396.14 262.31 397.68 260.4 400.39C258.45 403.16 259.17 406.96 256.86 409.73C259.99 406.88 264.85 408.31 267.89 404.82C268.76 403.82 271.56 404.21 272.81 405.92C274.11 407.68 272.35 408.64 271.34 409.58C268.96 411.8 268.9 415.11 268.15 417.77C266.28 424.4 264.57 431.45 269.17 438.05C269.62 437.6 269.79 437.24 269.59 436.95C268.2 434.95 266.75 432.46 269.16 430.83C271.46 429.28 272.76 432.2 274.28 433.54C276.54 435.53 278.8 437.54 278.86 441.18C281.63 439.16 284.61 438.39 287.8 438.77C290.62 439.1 292.28 440.35 290.57 443.42C288.89 446.43 287.74 449.15 290.85 452.24C292.67 454.04 291.62 455.94 289.2 456.77C287.6 457.32 285.94 457.53 284.28 457.15C281.57 456.54 279.85 455.32 281.85 452.33C282.52 451.33 283.05 450.34 282.92 449.13C283.16 448.48 282.01 448.76 282.67 448.86C282.73 448.87 282.67 448.97 282.67 449.14C282.73 450.41 282.03 451.35 281.25 452.2C280.3 453.23 279.74 455.07 277.79 454.4C276.16 453.84 275.57 452.48 275.77 450.81C276.1 448.2 274.72 446.12 273.37 442.86C273.84 445.86 274.22 447.66 275.16 449.45C276.24 451.51 274.88 453.06 273.97 455.03C273.12 456.88 274.49 457.5 271.75 459.57C269.81 461.03 268.56 467.79 269.87 469.71C270.3 470.34 270.94 470.63 271.58 470.36C272.73 469.88 272.14 469.05 271.82 468.33C271.02 466.52 271.35 464.95 273.18 464.15C275.17 463.29 276.02 464.92 277.16 466.2C280.14 469.57 282.01 472.95 278.24 476.94C280.21 477.87 280.84 473.53 282.92 476.14C283.44 477.04 284.81 476.7 285.25 477.73C285.39 478.05 285.1 478.37 285.29 478.68C285.43 478.36 285.48 478.04 285.36 477.73C284.95 476.64 283.55 477.1 282.99 476.23C281.23 471.88 281.37 471.56 285.62 471.96C286.96 472.09 287.35 468.95 289.06 471.18C290.07 472.49 291.59 473.35 292.36 474.88C292.52 475.2 292.72 475.55 293.05 475.52C300.22 474.92 296.04 479.44 295.82 481.94C295.7 483.3 295.34 485.16 293.52 485.41C291.6 485.67 290.75 484.07 289.98 482.53C288.61 483.66 288.07 485.29 287.02 486.55C284.72 489.34 282.63 489.22 280 486.76C276.3 483.29 272.45 479.9 267.85 477.68C266.43 477 266.59 473.1 263.69 475.51C264.35 475.11 265.61 474.56 265.79 475.24C266.52 478 268.73 478.84 270.9 479.9C271.99 480.43 272.91 481.34 272.42 482.67C271.83 484.27 270.49 483.61 269.46 483.22C268.17 482.73 266.81 483.1 265.53 482.71C262.55 480.84 261.74 483.53 260.35 485C261.65 483.74 262.28 481.38 264.96 482.31C268.58 483.14 271.69 484.45 271.17 489.05C270.98 490.69 272.47 490.16 273.13 490.68C276.41 493.32 276.42 496.06 273.06 498.44C272.54 498.81 271.85 498.92 271.65 499.66C270 505.9 268.85 506.51 261.87 504.03C264.38 506.35 267.33 507.2 267.49 510.25C267.51 510.58 267.65 511.15 267.81 511.15C270.26 511.19 272.37 511.8 271.42 514.81C270.62 517.33 268.5 518.72 265.84 519.15C265.36 519.23 264.89 519.45 264.44 519.67C263.81 519.87 264.4 520.68 264.17 520.05C264.14 519.96 264.27 519.92 264.47 519.8C267.61 517.89 269.52 519.61 270.88 522.17C272.35 524.93 271.14 526.56 268.24 527.19C266.85 527.49 265.8 528.67 267.03 529.57C270.12 531.81 263.05 534.27 267.6 536.65C270.38 538.1 272.46 540.98 275.4 542.52C275.12 544.13 273.87 545.11 272.91 546.27C270.41 547.51 267.99 548.22 266.05 545.36C264.88 543.38 262.48 543.97 260.72 542.95C262.39 544.16 264.01 545.39 263.29 547.84C263.65 546.2 264.05 544.93 266.05 545.29C268.34 548.03 266.49 551.26 267.08 554.2L267.17 554.18Z" fill="#F7B128"/>
<path d="M63.0601 382.59C59.1901 381.99 56.9701 379.23 54.8801 376.31C54.3301 376.31 53.8901 376.07 53.5801 375.62C50.9301 370.59 52.3701 366.22 55.7301 362.16C58.8601 362.12 58.1501 364.31 57.7501 365.99C57.1601 368.43 56.7501 370.87 56.7501 373.35C56.7501 376.7 59.1501 377.66 61.9201 378.28C65.1101 379.01 65.8701 377.08 66.1801 374.47C64.7301 375.8 63.8701 378.18 61.4001 377.63C59.5101 377.21 57.1501 376.88 57.0501 374.33C56.9101 370.69 60.5501 366.58 63.4201 367.02C65.7101 367.37 67.9401 368.18 70.2801 367.62C71.2001 367.4 72.5201 367.16 71.9301 365.79C71.6401 365.12 72.0201 363.59 70.4901 363.84C68.9301 364.1 67.2401 364.35 66.8801 362.37C66.3701 359.54 68.9601 358.48 70.5801 356.94C71.8101 355.77 73.2101 355.74 74.6601 356.72C75.6801 357.41 76.0201 359.18 77.8101 358.72C79.0401 357.5 77.8501 356.25 77.7501 355.04C77.5201 352.29 78.4701 350.57 81.3201 350.05C84.2701 349.52 85.1801 350.72 84.5001 353.51C84.4701 353.63 85.2001 354.1 85.4201 354.57C86.5801 355.68 85.8601 357.43 86.9201 358.83C88.5201 356.38 85.4501 355.88 85.3001 354.33C85.7101 351.15 88.3801 352.04 90.3001 351.54C94.3801 350.49 98.0101 349.37 97.5101 343.67C97.3301 341.6 99.5401 339.28 100.87 337.47C102.2 335.66 103.98 337.57 104.81 339.44C107.05 344.5 109.99 348.36 116.44 348.1C120.19 347.95 120.49 352.43 120.12 354.01C119.51 356.6 120.52 357.37 121.98 358.62C123.16 359.63 123.81 361.21 123.88 362.6C124.17 367.95 127.13 369.77 131.8 369.27C129.97 367.65 125.22 370.51 125.17 366.49C125.13 363.7 128.08 361.4 131.75 362.1C130.04 359.48 128.81 357.15 132.65 354.98C134.85 353.73 137.15 352.35 135.98 348.47C135.06 345.44 138.64 344.63 140.99 344.27C143.44 343.9 145.46 345.25 144.99 348.01C144.29 352.1 145.64 353.14 149.47 351.95C150.71 351.56 152.6 351.69 152.45 353.5C152.27 355.61 152.8 358.17 149.89 359.42C146.76 360.77 143.38 361.94 141.79 365.5C141.25 366.71 140.18 367.75 141.49 369.04C141.97 369.52 142.63 369.91 143.28 369.76C144.95 369.39 144.43 367.91 144.39 366.9C144.26 363.89 146.24 362.5 148.37 361.1C150.43 359.74 152.9 359.09 152.73 355.46C152.61 352.84 156.16 351.93 157.96 353.75C160.14 355.97 163.38 356.76 167.98 356.19C163.96 356.29 162.33 353.9 164.3 350.15C165.69 347.5 167.37 345.58 165.15 342.22C163.68 340 166.11 337.81 168.54 337.23C170.98 336.64 171.07 338.84 171.2 340.45C171.41 342.91 171.93 345.42 170.76 347.96C172.54 348.42 174.3 347.78 175.99 348.02C178.83 348.44 181.65 349.14 181.92 352.83C181.98 353.68 182.2 354.43 182.75 355.11C183.82 356.43 187.08 357.21 184.46 359.61C182.31 361.58 179.67 361.76 177.31 359.54C176.27 358.61 176.37 357.52 176.98 356.15C174.07 360.54 173.19 365.4 172.07 370.13C171.58 372.22 170.42 374.29 168.64 372.83C164.71 369.62 164.91 374.41 163.24 375.27C162.11 375.85 161.83 378.03 162.4 379.3C163.04 380.72 164.76 379.86 166.03 379.94C166.59 379.96 167.08 380.12 167.55 380.42C168.96 381.9 168.84 382.94 166.69 383.4C133.59 383.62 100.49 383.46 67.3901 383.49C65.8901 383.49 64.3801 383.49 63.0701 382.57L63.0601 382.59Z" fill="#F7B128"/>
<path d="M208.221 383.8C206.741 384.96 205.021 384.43 203.411 384.43C165.891 384.45 128.371 384.45 90.851 384.44C81.911 384.44 72.971 384.44 64.021 384.42C63.871 384.42 63.621 384.34 63.601 384.26C63.531 384 63.561 383.72 63.541 383.45C64.951 382.71 66.481 383.04 67.951 383.04C113.141 383.02 158.321 383.01 203.511 383.06C205.071 383.06 206.851 382.33 208.221 383.8Z" fill="#1F0800"/>
<path d="M208.22 383.801C181.45 383.711 154.67 383.601 127.9 383.531C106.45 383.481 85.0003 383.471 63.5503 383.451C63.4003 383.161 63.2403 382.871 63.0703 382.591C96.6403 382.551 130.21 382.521 163.78 382.481C165.27 382.481 166.77 382.421 168.26 382.381C168.63 382.051 168.99 382.071 169.36 382.381C180.92 382.421 192.47 382.431 204.03 382.571C205.64 382.591 207.7 381.521 208.83 383.751H208.52L208.22 383.821V383.801Z" fill="#D3BC7C"/>
<path d="M54.8902 376.311C53.8902 379.091 51.3702 378.571 49.2302 379.141C49.2902 377.321 51.1202 377.171 51.6702 375.841C49.4202 373.901 45.6002 373.851 45.4302 369.151C45.3702 367.361 41.0202 365.611 38.5002 364.031C35.3202 362.031 34.5702 358.901 36.8402 356.041C38.2702 354.241 39.3702 355.481 40.4502 356.561C37.1902 360.781 43.8002 358.641 43.3402 361.051C45.6702 359.621 46.5002 361.591 47.6002 362.941C48.7702 364.371 49.8902 366.241 51.1902 363.011C51.4802 362.291 52.2502 362.361 52.8902 362.741C54.5702 363.731 54.3402 365.341 53.8402 366.711C52.6002 370.121 52.2502 373.341 54.7402 376.361L54.8802 376.331L54.8902 376.311Z" fill="#444127"/>
<path d="M213.12 462.521C212.08 476.751 211.03 490.991 209.99 505.221C208.99 502.251 208.7 499.301 209.06 496.111C209.98 487.911 210.54 479.671 211.27 471.451C211.54 468.401 210.8 465.141 213.12 462.521Z" fill="#201606"/>
<path d="M261.241 634.22C260.501 632.67 260.901 631.2 263.241 631.48C264.801 631.66 267.341 631.89 266.591 634.55C266.201 635.97 267.411 638.64 264.371 638.61C261.731 638.58 260.591 637.28 261.241 634.22Z" fill="#444027"/>
<path d="M261.84 598.51C264.12 598.8 267.74 597.98 265.84 603.01C264.68 600.91 262.89 600.15 261.84 598.51Z" fill="#444027"/>
<path d="M177.291 359.54C179.961 360.71 182.251 359.54 184.911 358.33C183.261 356.22 177.861 356.62 180.771 351.68C181.501 350.45 173.251 348.63 170.311 350.06C169.761 350.33 169.381 351 168.281 350.37C171.051 346.47 170.141 342.2 169.551 337.47C166.721 339.41 164.281 340.58 167.501 344.07C169.051 345.75 167.991 348.24 165.961 349.68C164.011 351.06 164.551 353.13 165.041 354.65C165.581 356.31 167.131 355.55 168.201 354.65C168.751 354.19 169.081 354.46 169.361 354.93C170.241 356.37 168.531 356.89 168.271 357.94C168.051 358.83 167.521 359.4 166.471 358.71C165.801 358.27 165.081 357.85 164.321 357.59C161.461 356.59 158.761 355.96 159.791 361.41C159.411 361.22 159.021 361.03 158.641 360.84C158.301 359.26 157.711 357.68 157.681 356.1C157.661 354.66 157.351 353.79 155.891 353.73C154.551 353.67 153.141 354.74 153.581 355.73C156.141 361.41 148.811 360.31 148.291 363.76C144.851 363.11 146.001 365.24 145.831 367.17C145.731 368.38 147.161 370.46 144.091 371.36C141.041 372.26 140.391 369.88 139.181 368.82C137.461 367.31 139.491 365.92 140.601 364.78C142.741 362.58 144.101 359.62 147.851 359.15C151.161 358.73 151.251 355.67 151.521 352.77C150.281 353.02 148.861 352.87 148.141 353.51C144.671 356.63 143.831 352.21 143.661 351.31C142.401 344.52 142.561 344.49 136.381 347.92C137.121 350.11 139.691 349.3 140.941 350.5C140.691 352.07 139.811 352.09 138.691 351.79C137.191 351.39 136.241 351.31 136.121 353.55C136.061 354.68 135.701 357.13 132.731 356.28C130.761 355.71 131.491 358.01 131.351 359.1C131.171 360.49 131.631 360.89 132.971 360C134.001 359.32 134.961 359.75 135.111 361.04C135.241 362.15 134.641 363.16 133.431 362.97C129.981 362.42 127.551 363.8 125.831 367.03C128.441 368.88 131.941 367.1 134.981 368.48C134.721 369.9 134.521 370.96 132.281 370.71C124.701 369.84 124.291 370.06 122.071 361.8C121.161 358.42 119.331 358.24 116.081 357.69C120.951 355.7 117.131 352.5 117.931 349.87C118.231 348.86 116.351 348.91 116.051 349.16C113.381 351.35 111.001 349.57 109.691 347.94C107.591 345.33 102.651 344.67 103.661 339.7C103.841 338.83 102.971 337.57 101.811 337.81C99.6511 338.27 101.051 339.43 101.531 340.36C101.611 340.51 101.711 340.66 101.731 340.81C102.111 344.15 98.6111 341.21 98.1811 342.96C97.6311 345.16 101.741 346.58 100.771 346.84C96.5711 347.96 95.3111 353.85 90.0811 352.97C88.4811 352.7 86.3511 352.32 85.3611 354.55C84.1711 353.64 82.3411 354.58 81.2811 353.23C81.6311 351.86 83.7611 353.21 83.7911 351.46C83.5611 351.3 83.1911 350.93 83.1111 350.99C81.8611 351.9 79.4711 350.48 79.0211 352.79C78.7511 354.17 78.1811 355.98 79.5411 356.98C81.8211 358.66 79.8611 359.38 79.0111 360.35C77.7311 361.81 76.7811 360.95 75.7511 359.89C74.7811 358.89 74.5211 356.46 72.8111 357.08C70.9911 357.74 69.5011 359.4 68.0011 360.77C67.6411 361.1 67.5311 362.42 67.7011 362.51C68.3911 362.86 69.3711 363.25 69.9911 362.99C73.3811 361.58 74.4011 365.21 74.5211 366.29C74.7811 368.78 72.0911 368.82 70.1111 369.04C65.4211 369.56 58.9411 366.07 58.3911 375.33C60.6811 376.8 63.3311 377.94 65.0511 373.31C65.6811 371.62 67.0811 372.03 68.3711 372.23C69.2511 373.71 67.5211 374.18 67.2711 375.25C66.7111 377.63 67.2211 380.65 62.5111 379.79C57.5811 378.89 56.1811 376.17 55.3511 371.99C54.6911 368.65 57.8011 365.85 56.3411 362.52C55.3411 360.13 57.0711 358.96 58.5211 357.67C58.7611 357.54 59.0211 357.44 59.2811 357.38C60.2711 357.7 61.2811 360.61 62.2311 357.31C62.9111 354.92 64.4611 353.33 67.3011 352.87C64.5911 352.06 61.2911 355.36 59.9211 350.93C66.5711 332.08 73.9411 313.51 80.8911 294.77C81.0711 294.27 81.3011 293.91 81.7811 293.71C87.5111 278.75 93.2811 263.8 98.9511 248.82C111.191 216.5 123.341 184.15 135.581 151.84C146.131 123.99 156.791 96.1901 167.311 68.3301C169.271 63.1401 171.521 58.2601 176.201 54.9301C177.371 53.3701 179.011 52.4901 180.891 52.5001C197.311 52.6601 213.731 51.9701 230.141 52.8401C232.531 52.8201 234.921 52.8101 237.321 52.7901C246.611 52.0201 255.921 52.6701 265.221 52.4501C291.401 52.4001 317.581 52.4701 343.741 52.4501C344.641 52.5601 345.931 52.0501 346.211 53.3701C346.381 54.1701 345.631 54.8801 344.801 55.2201C342.421 56.2101 339.941 55.1901 337.411 55.5001C336.951 55.2301 337.201 55.8701 337.481 55.8301C339.931 55.4801 339.291 56.8201 338.531 58.0501C337.751 59.3101 336.721 60.4301 336.211 62.3701C339.061 60.9801 340.401 62.3601 340.911 64.7901C341.301 66.6501 342.261 67.7701 344.151 68.0501C346.031 68.3301 346.501 69.5601 346.471 71.2701C346.441 73.2701 345.341 74.4201 343.551 74.7701C339.171 75.6401 335.171 75.0701 332.761 70.7801C330.761 67.2301 327.981 66.6201 324.671 68.4601C322.171 69.8501 319.971 68.6801 319.001 67.0801C317.231 64.1401 314.161 61.0501 317.071 57.0601C318.021 56.0901 319.061 56.4901 321.041 57.1301C318.961 56.2801 317.871 56.1201 316.971 57.2801C315.091 59.8701 313.161 58.1801 311.291 57.3101C306.711 55.1801 305.441 55.5001 304.201 60.4401C303.161 64.5901 301.161 64.5501 298.091 62.8901C296.921 62.2601 295.821 61.5501 294.711 60.8101C292.971 59.6601 290.351 59.2901 289.141 60.4701C284.781 64.7301 282.841 61.5501 280.731 58.2901C279.821 56.8901 279.021 55.5101 277.771 58.0901C277.561 58.5301 276.511 58.5201 275.881 58.2901C267.971 55.4401 261.841 59.8701 255.551 63.3601C253.781 64.3401 252.381 65.9901 255.391 67.4801C255.761 67.7601 256.101 68.0701 256.441 68.3801C259.871 70.0401 263.041 72.3801 266.251 74.2301C270.681 76.7701 275.431 78.7101 279.831 81.2801C280.701 81.7901 281.471 82.5101 281.221 83.6701C281.021 84.5701 280.321 85.1001 279.441 85.1401C276.151 85.2701 272.741 87.5901 269.611 84.5701C269.301 84.2801 268.651 84.4801 267.991 84.5501C270.351 86.3501 269.451 88.1201 268.021 89.8101C266.271 91.8901 265.251 94.2101 267.051 96.5701C268.521 98.5001 270.181 100.01 273.341 98.9401C276.151 97.9901 278.021 100.61 276.821 103.4C275.741 105.91 274.781 108.77 271.241 108.88C270.228 105.233 268.081 104.41 264.801 106.41C261.888 108.19 260.094 109.747 259.421 111.08C266.831 104.56 269.601 104.95 271.471 109.05C271.581 111.02 270.101 111.92 268.861 113.02C267.361 114.35 267.391 114.39 266.861 117.17C269.641 116.743 272.088 117.52 274.201 119.5C274.791 113.82 279.031 115.1 282.571 114.95C286.921 114.76 285.391 118.63 286.531 120.64C289.291 119.59 296.391 122.62 297.231 125.23C297.491 126.05 297.231 126.9 296.911 127.66C295.891 130.09 296.771 131.68 299.561 132.41C301.191 132.84 302.701 133.6 303.821 134.86C305.191 136.4 305.061 138.74 303.231 138.82C300.641 138.93 300.511 139.6 301.161 141.59C301.311 142.04 301.071 142.57 300.971 143.06C300.431 145.7 296.431 145.84 296.461 146.34C296.621 148.96 296.121 150.87 293.861 152.31C290.541 154.43 287.821 153.63 286.791 149.83C286.151 147.45 284.601 145.84 282.691 145.15C279.131 143.87 279.461 141.76 280.971 139.42C282.541 136.99 282.561 134.62 281.671 131.81C280.671 134.08 278.101 132.31 276.971 134.01C272.801 134.36 270.521 132.28 269.751 128.34C269.561 127.35 269.271 126.42 268.821 125.53C268.221 124.33 267.591 122.85 265.961 123.46C264.691 123.94 264.381 125.96 264.721 126.65C266.391 129.95 264.101 130.87 261.951 132.01C258.041 128.65 253.451 127.54 249.501 128.41C251.561 128.75 252.791 130.55 251.811 133.88C251.461 135.06 252.241 135.32 253.501 134.65C255.201 133.75 256.721 134.46 258.131 135.36C259.631 136.32 260.621 138.03 262.761 138.5C263.931 136.14 260.901 133.98 262.311 131.68C263.391 131.12 264.981 130.73 265.561 131.53C267.651 134.42 270.421 134.14 273.371 133.91C274.431 133.83 275.861 133.94 276.251 135.29C276.761 137.05 275.521 138 274.191 138.8C271.401 140.46 268.521 142 266.661 145.02C269.391 143.17 272.591 142.11 274.051 138.89C277.061 138.33 276.071 135.27 277.351 133.62C281.311 133.45 281.131 136.42 280.581 138.68C279.881 141.53 278.811 143.91 282.261 145.76C283.421 146.38 283.361 148.08 282.981 149.45C282.521 151.12 281.221 151.07 279.831 151.18C274.601 151.59 272.781 153.81 274.111 158.61C274.961 161.67 273.701 163.52 271.331 164.76C268.011 166.51 266.161 163.98 264.251 161.89C263.321 160.44 265.801 159.91 265.091 158.33C263.561 159.37 263.491 160.56 264.341 161.98C269.481 168.58 266.121 176.07 266.571 183.16C266.651 184.39 263.351 185.31 266.201 186.85C267.071 187.83 266.201 188.95 266.471 190.14C266.691 188.78 266.871 187.59 266.031 186.52C267.591 184.73 269.601 184.96 272.901 187.34C273.891 188.05 275.021 189.18 273.721 190.08C267.511 194.37 272.731 198.54 273.701 202.72C273.841 203.31 274.351 203.83 274.251 204.53C273.711 206.51 273.191 208.49 271.071 210.11C272.401 209.33 273.101 207.99 274.431 208.91C275.761 209.83 276.991 210.04 277.531 208.25C278.241 205.85 275.951 206.86 275.041 206.32C274.421 205.96 273.981 205.59 274.121 204.81C273.281 203.95 277.061 204.06 274.451 202.42C272.301 201.07 272.611 198.3 274.681 196.91C277.211 195.21 280.241 193.44 283.281 195.76C286.721 198.39 287.971 203.84 286.061 206.6C284.771 208.47 283.711 210.46 282.281 212.51C286.671 211.17 286.011 204.38 291.561 204.95C293.901 205.19 294.821 207 295.561 208.37C295.851 209.15 295.801 208.83 296.131 208.57C298.291 206.87 298.281 201.9 301.291 202.75C304.441 203.64 301.991 207.69 302.351 210.31C302.621 212.31 303.171 214.17 303.601 216.1C304.241 218.98 302.701 219.23 300.621 218.29C303.571 221.36 307.301 222.82 311.641 222.34C314.621 222.01 316.291 223.87 317.871 225.77C319.201 227.37 319.461 229.13 317.051 230.2C316.271 230.54 315.561 230.98 315.091 231.68C313.911 233.43 312.511 234.9 310.181 234.24C307.521 233.48 309.001 231.21 308.681 229.59C308.581 229.09 308.271 228.69 307.781 228.36C307.061 229.62 308.251 230.99 307.501 232.27C306.091 234.69 305.081 237.99 301.481 237.03C297.831 236.06 300.181 233 300.361 230.74C297.521 230.34 297.861 232.43 297.351 233.84C296.341 236.59 294.751 236.24 293.531 234.17C291.791 231.22 291.401 228.15 294.511 225.69C297.451 223.36 295.901 220.41 295.421 217.83C295.011 215.65 292.971 215.6 290.991 216.01C290.721 218.27 294.921 218.29 293.231 220.84C291.711 223.13 289.561 221.6 287.731 221.35C283.331 220.76 278.871 223.65 274.521 221.11C273.701 220.28 273.421 218.9 272.011 218.65C271.511 218.34 271.611 217.56 270.991 217.39C270.861 217.35 270.741 217.6 270.801 217.78C271.051 218.44 271.811 218.4 272.251 218.81C273.121 219.4 272.591 221.36 274.421 221.01C276.741 224.26 274.411 225.35 271.911 225.49C269.071 225.64 266.601 224.66 264.741 221.92C263.221 219.68 264.141 214.51 259.301 216.67C262.721 217.77 265.031 221.05 265.441 224.98C265.821 228.6 270.311 231.61 266.531 235.97C269.311 235.33 271.471 235.1 271.791 238.23C272.021 240.49 270.961 241.2 268.791 240.81C267.171 240.52 268.091 241.28 268.301 242.02C269.021 244.58 268.451 246.92 266.691 248.97C266.051 249.72 265.511 250.54 265.491 251.63C265.411 257.54 264.211 261.25 261.071 265.48C260.761 265.82 260.391 266.11 260.011 266.35C257.811 267.59 259.231 269.25 259.561 270.73C260.131 273.27 259.541 275 256.701 275.44C256.271 275.51 255.401 275.23 255.491 275.42C257.831 280.09 251.921 279.77 250.921 282.72C250.331 284.45 252.231 283.26 251.571 283.86C253.251 285.2 254.711 283.53 256.301 283.49C258.181 283.45 260.271 283.34 261.061 285.34C262.031 287.82 259.721 288.3 258.121 289.05C257.521 289.33 256.641 289.46 256.401 289.99C255.051 292.98 253.031 295.28 249.941 296.8C252.011 296.88 254.491 297.81 255.391 295.42C256.851 291.55 259.511 292.55 261.871 293.6C264.811 294.9 265.141 297.61 264.101 300.39C263.391 302.29 261.311 303.81 262.681 306.25C263.071 303.87 263.321 301.27 266.811 302.35C270.051 303.35 272.661 307.99 270.621 310.14C267.711 313.2 268.711 319.77 262.111 319.66C260.751 319.64 262.581 321.26 262.131 322.02C261.151 323.69 259.221 324.12 257.751 325.16C262.041 323.05 263.191 323.91 265.701 331.15C267.671 330.9 269.471 329.95 271.451 329.71C277.811 328.95 279.281 330.09 282.211 335.76C284.171 339.55 284.671 344.09 288.021 347.2C289.011 348.12 288.711 349.33 287.781 350.31C286.241 351.56 284.571 352.44 282.511 352.3C280.851 351.99 279.441 351.13 278.321 349.95C276.231 347.76 274.181 347.71 271.971 349.66C271.581 349.84 271.171 349.93 270.761 349.92C268.591 350.41 268.201 353.58 265.571 353.43C262.851 353.12 262.391 355.63 261.061 357.05C259.601 358.99 258.311 362.65 256.151 357.55C255.901 357.33 255.681 357 255.391 356.92C252.241 356.13 248.571 356.41 246.981 352.54C246.871 352.27 245.601 352.11 245.231 352.38C243.631 353.55 246.591 354.49 245.491 355.78C243.301 355.84 241.581 354.31 239.581 353.7C236.461 352.75 234.311 352.31 233.121 356.01C232.611 357.59 231.551 356.42 230.691 356.31C228.081 355.95 227.101 352.87 224.251 352.64C223.201 352.56 223.341 351.07 224.621 350.57C226.351 349.89 226.391 348.77 225.441 347.45C224.861 346.64 224.151 345.88 222.971 346.29C221.561 346.78 221.701 347.71 221.811 349.04C222.011 351.33 220.681 353.35 219.671 355.34C218.921 356.83 217.531 357.61 216.021 356.28C215.081 355.45 213.791 354.51 213.111 355.25C212.581 355.82 213.251 357.56 213.491 358.75C213.611 359.37 213.971 359.94 214.211 360.53C214.021 360.65 213.821 360.78 213.631 360.91C211.591 361.58 208.741 360.23 207.521 363.62C210.121 363.99 212.921 363.8 214.871 365.92C214.991 366.12 215.101 366.32 215.211 366.52C213.581 369.76 211.891 371.67 207.971 368.77C206.371 367.59 204.111 366.12 201.501 366.81C200.091 367.18 198.861 366.93 198.921 364.9C198.971 363.15 197.851 362.67 196.251 362.89C195.261 363.03 194.481 362.48 194.701 361.5C195.011 360.12 197.111 358.14 193.561 358.47C190.931 358.71 189.991 360.66 190.551 363.83C187.791 364.85 185.101 360.25 181.921 363.94C181.311 364.65 177.691 362.35 177.261 359.53L177.291 359.54Z" fill="#F7B128"/>
<path d="M58.5606 357.66C58.8206 359.72 56.0306 360.41 56.3806 362.51C53.9206 366.89 52.7106 371.43 54.7506 376.34C51.5606 374.3 52.3106 371.17 52.7506 368.3C53.0206 366.54 54.0106 364.87 52.1706 362.98C51.5506 364.66 52.9206 366.93 51.1106 367.53C49.2606 368.14 47.9406 366.06 47.4706 364.86C46.1406 361.48 42.2806 362.5 40.2506 360.04C38.6706 358.13 37.9506 358.72 40.4506 356.54C41.3606 359.67 44.2606 358.82 46.1606 358.83C49.0706 358.85 51.9406 358 54.5206 360.11C56.0406 361.35 55.4406 359.47 55.6706 359.13C56.3906 358.04 57.3006 357.58 58.5606 357.65V357.66Z" fill="#444127"/>
<path d="M81.7997 293.7C76.4397 308.04 71.0597 322.37 65.7297 336.72C63.8997 341.64 62.1997 346.61 60.4397 351.56C61.1697 353.81 60.5797 355.52 58.3897 356.57C57.1697 355.66 57.5997 354.64 58.0397 353.48C62.8197 340.94 67.5597 328.38 72.3097 315.82C74.6597 309.61 77.0297 303.42 79.3697 297.21C79.8897 295.82 80.1497 294.29 81.8097 293.7H81.7997Z" fill="#281D09"/>
<path d="M58.3906 356.571C59.0706 354.901 59.7606 353.231 60.4406 351.561C62.6606 353.281 64.8506 351.451 67.0406 351.371C67.9506 351.341 68.7006 351.091 69.0406 352.011C69.5506 353.411 68.0506 352.981 67.5206 353.371C65.8706 354.601 63.6206 355.221 63.4506 357.801C63.3306 359.681 62.9906 361.981 60.7306 361.661C58.7406 361.371 59.6806 358.881 59.3206 357.371C59.0106 357.111 58.7006 356.841 58.3906 356.581V356.571Z" fill="#F7B128"/>
<path d="M266.191 17C267.191 21.26 264.871 20.7 261.811 19.62C263.231 18.31 264.321 17.08 266.191 17Z" fill="#444127"/>
<path d="M255.201 68.93C254.221 66.92 252.441 68.39 251.051 68.16C251.981 63.57 256.471 62.01 258.641 58.58C259.251 57.61 260.351 57.34 261.701 57.92C264.291 59.03 266.151 58.52 268.151 55.94C269.651 53.99 272.931 53.96 274.931 56.27C275.741 57.21 276.621 57.71 277.331 57.24C278.491 56.47 276.681 56.02 276.761 55.37C276.951 53.84 278.021 54.95 278.641 54.93C281.041 54.88 281.961 57.17 282.691 58.57C284.771 62.56 285.821 63.44 288.201 58.67C288.681 57.71 293.151 58.74 295.781 58.85C295.341 61.1 297.291 60.99 298.501 61.58C299.651 62.14 300.841 62.63 302.061 63.17C302.461 61.47 302.701 59.72 303.281 58.09C304.771 53.89 307.091 53.1 310.931 55.45C312.871 56.64 314.541 58.61 317.131 56.95C317.831 58.16 318.081 59.34 317.291 60.67C316.411 62.14 316.711 63.55 318.631 63.14C320.641 62.71 320.241 63.66 319.591 64.43C318.391 65.84 318.951 66.81 320.341 66.75C321.741 66.7 322.201 68.98 324.161 67.57C327.901 64.87 331.381 65.87 333.381 69.67C335.211 73.15 340.751 74.82 344.431 73.5C346.911 72.61 344.291 71.5 344.951 70.32C346.051 68.36 344.141 69.69 343.531 69.59C341.571 69.25 339.331 69 339.591 66.31C339.731 64.88 339.941 63.33 338.651 62.83C337.191 62.27 336.831 64.39 335.671 65.01C333.061 62.07 335.101 59.6 337.011 57.9C339.491 55.69 336.521 56.11 336.241 55.55C339.061 52.7 343.311 56.13 346.111 53.08C356.041 51.88 365.991 52.37 375.941 52.79C376.371 52.79 376.791 52.79 377.221 52.79C397.131 52.33 417.041 52.06 436.951 52.94C432.091 63.03 427.271 73.15 422.351 83.22C403.951 120.83 385.531 158.43 367.061 196.01C360.111 210.14 352.941 224.17 346.021 238.31C342.901 244.69 339.931 251.17 340.001 258.55C340.031 261.98 340.791 265.09 343.121 267.71C347.031 271.16 351.941 272.3 356.791 273.62C392.611 273.73 428.431 273.62 464.241 273.7C466.471 273.7 468.931 272.95 470.861 274.88C458.431 292.03 445.981 309.18 433.571 326.34C426.781 335.73 420.041 345.15 413.281 354.56C412.211 355.9 411.141 357.23 410.071 358.57C408.931 358.69 407.861 360.78 406.711 359.06C405.311 356.97 406.271 355.07 408.141 353.26C406.201 353.37 404.661 352.21 402.941 352.39C401.141 352.58 399.341 353.13 398.811 355.24C398.391 356.91 397.701 358.31 395.961 358.94C395.491 359.04 395.021 359.03 394.551 358.93C392.241 357.2 391.171 357.91 391.011 360.67C390.831 363.83 390.751 367.11 385.931 364.82C384.821 364.29 383.821 365.53 382.931 366.26C381.651 367.32 380.611 368.68 379.131 369.47C377.081 370.57 374.361 372.13 372.691 370.54C371.201 369.12 372.341 366.05 372.161 363.72C372.011 361.7 374.091 360.21 376.371 360.43C379.301 360.71 377.931 358.07 378.171 357.94C376.921 359.75 375.081 362.77 372.041 357.9C370.991 356.21 365.341 357.09 364.261 358.83C362.221 362.11 360.191 365.46 355.461 364.8C355.131 364.75 354.801 364.71 354.471 364.71C355.151 370.42 351.051 368.29 348.261 368.71C346.931 368.91 347.581 370.21 348.311 371C349.641 372.43 351.611 373.76 350.001 376.05C348.541 378.12 346.381 377.08 344.471 376.86C343.161 376.71 341.911 376.22 340.541 376.47C338.471 376.85 335.631 378.96 334.791 375.36C334.091 372.34 335.311 368.77 338.291 367.83C342.841 366.4 345.661 364.11 347.041 359.51C347.641 357.52 350.091 357.16 352.011 356.61C353.001 355.4 354.061 354.28 355.591 355.86C356.891 357.2 358.351 357.36 359.361 356.97C357.281 358.56 354.641 352.27 351.891 356.66C347.331 356.77 342.741 355.44 338.281 358.12C335.721 359.66 327.561 354.99 326.761 352.12C326.311 350.52 326.761 349.39 328.191 348.69C324.941 349.44 324.791 351.77 326.071 354.15C327.241 356.32 328.511 358.43 329.461 360.72C329.511 361.2 329.411 361.65 329.161 362.07C327.261 364.07 325.341 365.83 322.381 363.7C320.671 362.47 319.661 363.99 318.611 364.97C314.111 369.14 308.711 367.62 303.521 367.34C302.711 367.3 301.501 366.38 301.861 365.87C304.271 362.5 301.221 359.69 301.141 356.61C303.301 355.4 304.351 351.79 308.161 354.01C309.351 354.7 309.891 351.74 311.661 350.19C306.521 351.15 302.421 352.46 298.831 355.22C299.871 355.25 301.161 354.67 301.391 356.38C300.571 360.48 298.751 362.66 294.351 360.15C292.591 359.15 290.771 360.32 288.981 360.2C288.521 360.08 288.131 359.84 287.811 359.49C286.901 356.24 288.761 352.81 287.191 349.6C285.141 346.3 283.371 342.88 282.221 339.14C281.931 338.22 281.151 337.46 280.811 336.54C279.161 332.08 275.521 329.61 271.171 331.07C268.911 331.83 266.431 331.93 263.741 333.65C265.161 329.46 262.331 327.24 260.781 323.84C259.861 325.96 259.641 328.69 256.651 326.42C255.761 325.75 254.301 325.63 254.691 324.26C255.121 322.78 256.511 322.12 257.811 323.27C259.321 324.61 260.181 322.96 260.691 322.5C262.091 321.24 260.101 321.3 259.621 320.83C259.001 320.22 258.291 319.74 258.861 318.8C259.341 318 260.131 317.75 261.021 318.04C265.161 319.41 266.221 316.95 266.841 313.61C266.961 312.97 266.511 311.51 268.701 311.62C270.231 311.69 269.681 308.59 270.391 307.03C268.071 306.58 268.061 302.81 265.701 303.17C262.731 303.63 264.281 306.04 264.621 307.78C259.601 305.73 259.361 305.03 262.361 301.04C264.301 298.46 264.181 296.31 261.261 294.57C259.841 293.73 258.061 293.62 256.991 294.4C255.631 295.38 257.851 296.65 257.521 297.95C255.501 298.18 253.421 298.25 251.441 298.73C250.541 298.95 249.881 301.19 248.781 299.77C247.521 298.14 248.601 295.93 248.851 294.06C249.041 292.66 250.511 292.76 251.651 293.57C252.691 294.31 254.071 294 253.831 292.9C252.921 288.72 255.671 288.23 258.531 287.63C259.501 287.43 260.661 287.25 260.431 285.9C260.271 284.96 259.291 284.75 258.451 284.72C256.811 284.67 255.061 284.31 253.801 285.81C253.261 286.45 252.571 287.41 252.031 286.24C250.751 283.46 248.681 284.99 246.791 285.96C246.871 283.2 248.471 283.28 249.551 282.71C250.261 282.34 251.561 281.6 251.521 281.52C249.131 276.33 254.401 279.11 255.551 277.71C255.971 275.35 252.591 275.03 252.941 272.75C254.451 271.75 254.461 273.5 255.141 273.94C256.261 274.67 257.271 274.8 258.311 273.89C259.271 273.05 258.851 272.13 258.491 271.17C258.141 270.25 258.091 269.2 257.641 268.35C255.671 264.62 258.301 265.52 260.241 265.69C260.701 264.65 260.921 263.36 261.671 262.61C264.031 260.25 264.091 258.12 261.041 256.13C262.611 254.95 264.251 257.19 265.231 255.18C266.271 253.05 263.661 253.16 263.611 252.58C263.431 250.73 264.271 249.01 265.821 247.64C267.811 245.87 269.241 243.85 265.851 241.95C265.231 241.6 264.751 241.18 265.041 240.39C265.341 239.56 265.811 238.9 266.861 239.11C268.121 239.36 269.381 239.63 270.781 239.92C271.281 232.44 265.251 240.66 264.201 236.71C267.311 234.41 268.581 231.55 264.451 228.35C262.691 226.99 265.201 225.27 264.211 223.32C262.441 219.85 259.841 217.54 256.281 215.7C258.461 213.68 261.701 217.78 263.041 214.06C263.881 214.77 264.231 215.59 264.301 216.77C264.541 220.72 266.841 223.2 270.551 224.28C273.601 225.16 275.031 224.04 274.251 220.75C279.871 221.99 285.541 218.02 291.141 220.94C291.911 221.34 292.451 220.91 292.681 220.24C292.971 219.42 292.371 219.07 291.681 218.87C290.441 218.51 289.001 219.18 287.891 218.12C289.878 215.76 293.204 214.87 297.871 215.45C297.351 217.25 296.621 218.87 297.541 220.97C298.151 222.35 298.511 224.96 296.291 226.16C291.441 228.8 293.981 231.86 295.731 235.98C296.681 232.86 294.741 229.41 299.151 228.88C300.841 228.68 301.581 229.09 302.391 229.99C303.421 231.14 302.691 232.51 301.741 232.94C299.921 233.76 299.861 234.7 301.081 235.87C302.381 237.12 303.821 236.3 304.471 235.2C305.971 232.68 309.111 230.09 304.671 227.32C306.921 225.63 308.541 226.44 309.961 227.63C312.131 229.45 309.661 231.19 309.521 233.05C311.671 233.62 313.181 233.29 313.921 231.1C314.411 229.66 314.281 227.53 317.061 228.81C318.291 229.37 318.201 227.56 317.791 227.33C315.601 226.09 314.891 222.7 311.111 223.63C306.431 224.78 302.641 222.21 299.371 219.08C298.031 217.8 298.891 216.65 300.671 217.32C301.401 217.6 301.971 218.41 303.171 217.57C300.421 213.14 300.341 208.29 301.391 203.17C300.521 205.88 297.641 207.28 297.421 210.23C297.391 210.61 297.011 211.18 296.681 211.28C295.531 211.62 295.461 210.58 295.071 209.88C293.801 207.63 292.911 204.7 289.221 206.57C288.431 206.97 287.621 207.16 287.801 208.19C288.441 211.84 284.041 211.86 283.241 214.53C283.061 215.13 281.851 215.43 281.051 214.79C280.321 214.21 279.991 213.22 280.561 212.58C282.371 210.54 282.181 207.19 284.991 205.83C286.121 205.28 287.161 204.58 286.401 203.17C285.271 201.09 284.201 198.9 282.661 197.15C280.721 194.96 278.381 197.36 276.191 197.31C275.011 197.28 274.061 198.76 274.361 200.37C274.881 203.15 277.391 202.4 279.481 203.14C277.511 203.74 275.871 204.23 274.231 204.73C269.611 203.3 272.891 196.74 268.161 195.39C270.711 193.87 269.651 189.43 274.151 189.26C272.041 187.38 268.431 189.63 268.221 185.66C268.171 184.79 266.731 185.94 266.241 186.76C264.594 186.1 264.334 185.127 265.461 183.84C265.951 183.28 265.861 182.8 265.631 182.09C264.371 178.17 265.921 174.2 265.991 170.28C266.051 167.04 261.731 165.1 264.241 161.79C266.801 161.32 268.191 166.21 271.721 163.01C273.371 161.52 273.581 161.15 272.701 159.33C271.071 155.99 272.201 153.31 274.991 150.83C276.411 149.57 277.321 148.85 279.201 149.59C280.021 149.92 281.501 151.02 282.071 149.21C282.401 148.15 282.541 146.73 281.241 146.13C277.511 144.42 278.541 141.73 279.481 138.89C280.221 136.65 279.821 134.7 277.231 133.83C277.981 130.48 281.491 132.06 283.231 130.48C282.681 132.42 285.031 134.48 284.151 135.66C280.021 141.13 281.791 144.38 287.451 146.8C288.041 147.05 288.731 148.36 288.541 148.89C287.691 151.36 288.191 152.96 290.961 152.16C292.911 151.59 296.101 151.4 294.911 147.6C294.551 146.44 294.981 145.02 295.061 143.41C296.511 142.76 296.811 146.56 298.761 144.74C301.301 142.36 299.661 139.87 299.211 137.3C300.301 136.46 300.811 137.6 301.531 138.1C302.411 138.72 303.131 138.32 303.621 137.56C304.171 136.7 303.781 135.69 303.021 135.46C301.341 134.93 300.151 133.3 298.081 133.52C297.311 133.6 293.521 135.28 296.211 131.41C296.661 130.77 294.611 129.95 293.721 131.08C292.131 133.09 291.921 131.22 291.581 130.35C291.061 129.03 291.531 127.68 293.061 128.12C295.251 128.75 295.861 128.12 296.161 126.06C296.281 125.24 296.301 124.78 295.581 124.67C295.021 124.59 294.311 125.16 293.831 125C293.361 124.84 292.711 124.03 292.781 123.63C293.281 121.03 290.901 120.93 289.731 120.71C287.421 120.27 288.181 123.08 286.441 124.8C287.091 121.57 283.071 120.29 284.961 117.18C285.041 117.05 284.481 116.32 284.101 116.15C280.701 114.62 275.891 117.25 274.641 121.54C272.521 119.48 270.951 116.21 267.141 118.7C266.011 119.44 266.161 117.43 265.711 116.73C265.011 115.64 264.391 114.53 266.031 113.36C267.891 112.04 270.241 111.23 271.241 108.88C273.451 107.37 274.571 105.07 275.861 102.84C276.481 101.76 276.781 101.15 275.551 100.52C274.751 100.11 274.291 99.07 272.981 99.76C270.391 101.12 267.801 100.37 265.941 97.96C263.961 95.41 263.711 92.19 265.861 90.26C269.421 87.07 269.211 85.41 264.321 83.79C267.511 84.61 270.991 80.22 273.061 85.23C273.131 85.41 274.781 85.29 274.851 85.06C275.991 81.03 278.561 84.51 280.761 83.16C277.311 81.62 273.601 78.43 270.471 78.92C265.451 79.7 267.591 76.49 266.801 74.62C260.721 77.34 259.211 70.74 255.471 68.72C256.861 63.99 262.591 67.57 265.531 63.33C260.661 63.63 257.941 66.22 255.271 68.91L255.201 68.93Z" fill="#F6B128"/>
<path d="M352.091 356.55C348.421 358.88 347.221 362.86 345.551 366.49C344.841 368.03 344.001 368.01 342.471 367.99C340.351 367.96 338.061 368.09 337.021 370.94C336.401 372.64 334.751 374.5 335.991 375.92C337.291 377.42 339.121 375.69 340.251 374.72C342.521 372.78 343.721 377.17 346.031 375.55C346.251 375.4 348.601 377 349.471 375.16C350.211 373.6 348.471 372.61 347.551 372.1C345.121 370.74 344.881 369.5 346.741 367.44C347.921 366.14 348.661 366.31 350.011 367.2C350.921 367.8 352.571 368.84 353.511 367.21C354.631 365.27 351.461 366 351.581 364.19C356.911 363.31 363.331 363.49 363.511 355.44C365.511 356.87 365.661 356.95 366.571 355.19C367.281 353.8 368.081 353.94 368.771 354.83C370.641 357.22 371.871 354.9 373.611 354.16C373.451 355.58 373.121 356.8 373.221 357.99C373.401 359.94 374.941 359.05 375.951 358.98C377.181 358.89 377.901 357.74 377.111 356.99C376.171 356.1 375.051 355.62 376.691 354.62C378.501 353.52 378.441 356.17 379.741 356.35C380.881 356.51 381.761 357.13 380.391 358.15C378.881 359.27 379.321 363.01 375.661 361.47C374.681 361.06 373.331 362.61 372.961 364C372.431 365.98 374.281 364.7 374.691 365.18C376.901 367.81 372.411 367.81 373.081 369.8C376.841 370.08 379.401 367.71 382.221 365.25C383.201 364.39 385.381 358.83 387.861 364.56C387.951 364.77 388.971 364.88 389.081 364.72C389.421 364.23 389.791 363.52 389.681 363C389.041 360.1 390.591 357.64 390.851 353.74C392.731 355.9 393.901 357.23 394.411 359.21C393.781 359.97 393.901 360.09 393.981 360.02C394.341 359.73 394.451 359.25 394.761 358.92C395.181 358.46 395.191 358.46 394.731 358.89C394.401 359.2 393.971 359.42 394.421 359.21C396.201 357.9 397.881 357.18 397.481 355.78C396.121 351.06 400.871 351.25 402.481 350.8C404.661 350.19 407.571 351.9 410.051 352.91C410.681 353.17 411.141 354.88 409.391 354.77C406.831 354.61 407.071 356.5 407.181 357.85C407.391 360.41 409.441 356.93 410.091 358.58C383.761 394.68 357.421 430.77 331.091 466.87C313.621 490.82 296.171 514.77 278.691 538.71C277.721 540.04 276.591 541.25 275.531 542.52C273.261 543.01 271.011 542.41 269.981 540.55C268.291 537.52 265.681 536.83 261.621 536.62C265.281 534.23 268.151 532.49 264.971 528.26C263.581 526.4 266.711 525.93 268.061 525.73C269.621 525.5 271.431 525.99 270.311 523.52C269.561 521.87 268.741 519.97 266.211 520.35C264.571 520.59 263.621 522.02 261.801 522.98C261.551 516.5 272.321 519.36 270.371 512.11C268.461 512.71 264.851 517.45 266.391 510.42C266.511 509.86 266.251 507.44 264.011 507.28C260.941 507.07 260.481 504.8 260.681 501.89C264.401 503.13 268.091 505.89 271.951 502C272.411 500.31 268.231 501.46 269.511 498.97C270.231 497.57 271.191 496.54 273.081 497.19C274.591 497.71 274.751 496.56 274.651 495.49C274.461 493.46 273.881 491.08 271.541 491.33C269.901 491.5 269.511 490.4 269.671 490.03C271.711 485.35 267.471 484.47 265.211 482.4C267.361 481.77 269.511 480.9 272.141 483.36C270.961 478.82 263.261 482.07 265.751 476.11C262.641 474.83 265.181 479.27 262.721 478.27C262.281 478.09 261.741 477.04 261.901 476.68C262.601 475.05 265.531 473.93 265.561 474.07C266.301 478.01 273.701 473.33 272.661 479.56C272.551 480.2 274.891 481.98 276.071 481.96C279.011 481.91 280.251 483.54 281.131 485.79C282.501 489.29 284.231 487.54 285.791 486.11C286.621 485.35 286.931 483.89 287.831 483.37C289.421 482.45 287.271 479.44 289.971 479.64C292.521 479.83 291.641 481.86 291.621 483.43C291.621 483.72 292.641 484.05 293.211 484.31C294.391 484.83 294.051 483.82 294.211 483.3C294.841 481.1 295.481 478.9 296.321 475.98C289.281 481.27 291.391 471.51 288.901 471.88C286.401 471.2 289.201 475.88 285.101 473.03C281.701 470.67 283.941 475.22 283.201 476.42C280.771 476 280.671 479.68 278.231 479.25C277.451 479.11 276.361 479.26 275.941 478.8C275.121 477.92 275.921 476.94 276.511 476.18C279.631 472.14 279.301 468.78 275.401 465.35C274.441 464.5 273.541 464.65 272.851 465.57C272.251 466.37 271.781 467.46 273.281 467.87C275.111 468.37 275.201 469.37 274.471 470.85C273.751 472.3 272.521 472.5 271.121 472.41C269.681 472.32 268.051 471.61 268.031 470.37C267.961 466.63 267.871 462.78 269.151 459.19C269.971 456.9 274.091 459.47 274.451 456C273.731 455.18 272.931 455.83 272.161 455.86C271.201 455.89 269.901 455.92 270.061 454.56C270.171 453.65 271.091 452.66 272.251 453.23C273.441 453.82 274.441 454.29 274.981 452.65C275.471 451.16 274.021 450.77 273.501 449.94C272.071 447.67 271.761 444.57 273.021 441.93C273.591 440.73 275.271 440.78 275.461 442.49C275.771 445.26 278.031 447.71 276.671 450.76C276.081 452.08 277.011 453.19 278.101 453.54C279.531 454 279.061 452.12 279.801 451.65C281.681 450.45 282.401 448.62 282.381 445.3C283.667 449.087 283.524 452.274 281.951 454.86C283.321 455.82 284.721 456.31 286.481 456.03C287.951 455.8 289.871 456.06 290.561 454.76C291.441 453.12 289.521 451.86 288.511 451.25C283.311 448.07 289.811 445.97 289.141 443.21C288.971 442.52 290.781 442.07 290.311 440.58C285.721 438.82 281.931 440.66 277.951 443.8C278.611 437.36 273.031 435.17 270.091 430.43C269.441 432.85 268.861 434.22 270.811 435.79C272.601 437.23 271.671 439.47 270.041 440.35C267.671 441.64 268.251 438.4 267.851 438.25C263.101 436.48 267.681 431.05 264.071 429.04C266.991 425.24 264.581 420.23 267.221 416.17C269.131 413.23 267.691 408.34 272.991 407.15C269.321 405.58 259.301 409.09 256.071 412.68C255.641 410.97 257.331 401.77 259.191 399.87C261.401 397.62 260.721 397 258.251 396.44C257.611 396.29 256.961 396.15 256.321 395.97C254.961 395.59 253.781 394.64 253.521 393.42C253.011 391.02 254.971 393.61 256.081 392.41C258.581 389.71 262.161 387.29 266.221 390.54C265.421 392.71 264.411 394.56 261.431 393.45C261.821 394.99 262.791 396.38 263.981 395.82C265.981 394.88 266.511 392.75 266.221 390.54C265.501 384.8 269.001 380.31 271.081 375.52C272.431 372.41 276.641 373.12 279.461 372.93C280.951 372.83 281.071 375.56 279.591 377.51C278.211 379.31 274.591 384.01 272.601 384.77C271.711 385.11 271.841 385.6 271.801 386.22C271.761 387.03 272.091 387.27 272.901 387.47C278.311 388.82 279.111 388.15 280.501 382.63C280.921 380.96 281.971 379.28 284.451 378.55C286.501 377.95 290.131 376.92 286.761 372.53C284.241 369.26 282.721 365.5 278.211 364.56C274.601 361.08 269.771 358.47 269.801 352.46C269.801 351.23 269.981 350.16 271.221 349.58C275.101 349.06 278.601 350.59 282.211 351.58C283.881 350.92 285.541 350.25 287.211 349.59C292.301 352.44 288.371 356.19 288.211 359.57C286.341 360.1 286.801 358.26 286.151 357.55C285.591 356.67 284.011 357.69 283.871 356.04C283.941 357.72 285.421 356.72 286.011 357.44C286.731 358.09 286.171 359.04 286.561 359.75C286.841 360.27 286.801 361.23 287.471 361.17C287.871 361.13 287.581 359.96 288.211 359.56C290.991 358.42 293.441 357.03 296.581 359.56C299.781 362.13 299.671 357.67 301.201 356.56C301.261 356.88 301.201 357.35 301.401 357.51C304.281 359.86 307.781 362.09 301.051 366.14C308.571 365.89 314.981 368.51 319.541 362.23C320.381 361.08 321.301 361.32 321.971 361.99C324.601 364.62 326.811 362.29 329.441 361.68C331.741 361.7 332.491 365.56 335.021 363.86C336.661 362.75 334.431 360.59 331.961 361.13C331.031 361.33 330.201 362.04 329.441 361.69C326.451 359.69 325.901 356.3 324.081 353.78C322.461 351.54 324.641 348.34 327.731 346.07C327.001 347.69 331.271 347.99 327.901 350C327.641 350.16 327.531 350.93 327.651 351.31C328.841 354.87 332.641 354.84 335.141 356.61C336.661 357.69 338.391 357.95 339.691 355.67C340.401 354.42 350.311 355.33 352.141 356.55H352.091Z" fill="#F6B128"/>
<path d="M266.2 545.29C268.25 547.17 270.83 545.31 273.01 546.25C271.07 548.89 269.12 551.53 267.18 554.18C266.45 553.39 263.44 554.18 265.34 551.57C266.75 549.62 265.99 547.4 266.19 545.3L266.2 545.29Z" fill="#F6B128"/>
<path d="M262.689 575.791C262.879 573.111 258.399 570.761 262.779 568.521C263.609 568.091 265.029 567.201 265.379 568.351C266.199 571.061 266.099 573.811 262.689 575.791Z" fill="#444127"/>
<path d="M261.99 561.881C262.37 561.311 262.74 560.741 263.12 560.181C264.96 561.891 268 562.121 269.28 565.041C266.31 564.701 262.96 566.061 261.99 561.891V561.881Z" fill="#444127"/>
<path d="M257.97 651.561C257 651.421 256.39 650.921 256.6 649.941C256.89 648.581 258 648.221 259.23 648.261C260.09 648.291 260.99 648.561 260.64 649.691C260.26 650.931 259.06 651.241 257.98 651.561H257.97Z" fill="#444127"/>
<path d="M465.33 363.221C462.8 363.601 457.34 359.631 457.32 357.671C457.31 356.751 457.86 356.141 458.7 355.861C459.57 355.571 460.43 355.751 460.7 356.671C461.11 358.081 461.29 359.551 462.51 360.591C463.44 361.381 464.3 362.261 465.33 363.231V363.221Z" fill="#444027"/>
<path d="M266.191 2C266.531 2.02 266.871 2.04 267.211 2.06C269.931 3.05 272.451 4.18 270.841 8.11C271.181 4.49 265.741 5.7 266.191 2Z" fill="#444127"/>
<path d="M169.369 382.371C168.999 382.371 168.639 382.371 168.269 382.371C167.619 381.751 166.959 381.131 166.289 380.481C165.719 380.101 165.929 379.241 165.359 378.811C165.649 379.391 165.849 380.021 166.289 380.481C164.369 381.891 161.679 382.521 160.859 380.251C160.259 378.581 159.949 375.801 162.669 373.771C165.239 371.851 166.439 367.361 170.419 372.941C170.459 366.901 173.379 362.551 174.669 357.701C174.789 357.261 175.379 356.971 175.549 356.531C176.059 355.281 173.299 352.231 176.979 352.921C179.539 353.401 177.709 355.911 177.459 357.551C177.359 358.201 177.339 358.871 177.289 359.531C175.769 360.531 173.859 361.311 175.749 363.661C177.809 366.231 177.209 368.151 172.369 369.361C177.009 370.231 179.209 375.791 183.009 370.841C185.059 368.171 181.619 368.451 180.249 366.921C183.969 366.791 186.799 363.371 190.849 366.331C187.729 367.241 186.739 368.961 189.909 372.251C187.229 371.481 186.199 370.131 184.489 372.901C182.639 375.881 178.009 377.231 173.929 377.761C172.069 378.001 167.629 376.431 171.399 381.061C170.719 381.491 170.049 381.921 169.369 382.351V382.371Z" fill="#F7B128"/>
<path d="M271.18 349.561C270.88 353.161 270.87 356.471 274.29 359.071C275.97 360.351 277.92 361.991 278.17 364.541C277.68 365.691 276.47 366.991 275.69 366.631C272.18 365.011 270.35 367.261 268.12 369.511C269.51 366.811 269.73 364.221 269.18 361.541C269.45 359.711 267.49 360.301 266.87 359.441C264.89 358.291 264.5 356.381 264.42 354.311C264.43 353.621 264.62 353.001 265.18 352.551C268.19 351.981 268.78 349.231 269.89 346.931C270.89 347.731 269.94 349.131 271.17 349.551L271.18 349.561Z" fill="#F6B128"/>
<path d="M267.19 358.54C267.92 358.83 268.68 359.09 269.39 359.43C270.15 359.8 271.55 358.4 271.67 359.89C271.78 361.2 270.32 361.41 269.19 361.54C265.76 362.97 262.51 367.49 258.7 362.14C257.88 363.87 254.85 363.02 254.72 365.55C254.64 367.16 253.68 367.75 251.35 368.24C253.95 364.52 251.5 359.64 256.21 357.55C259.95 361.7 258.66 355.79 260.21 355.55C260.95 356.3 261.67 357.07 262.38 357.85C263.76 359.67 265.68 357.78 267.2 358.55L267.19 358.54Z" fill="#F6B128"/>
<path d="M259.401 492.47C262.391 491.9 264.391 488.23 266.781 490.04C269.681 492.23 266.251 495.82 267.131 498.88C267.401 499.8 265.011 500.79 264.041 499.91C262.921 498.88 260.151 497.38 261.451 496.11C264.771 492.87 261.821 493.07 259.391 492.47H259.401Z" fill="#F6B128"/>
<path d="M266.189 545.3C264.349 547.5 263.969 547.35 261.989 545.32C260.919 544.22 259.219 543.74 257.779 542.96C260.789 538.24 263.979 545.3 267.109 541.35C266.649 543.36 266.429 544.32 266.199 545.29L266.189 545.3Z" fill="#F6B128"/>
<path d="M265.311 470.41C263.651 468.37 262.951 467.23 261.991 466.39C258.531 463.33 259.051 460.27 263.401 458.4C264.431 457.96 265.311 457.84 265.841 459.05C266.221 459.92 266.031 460.8 265.151 461.12C262.241 462.16 259.341 463.08 264.551 465.25C263.861 466.63 265.351 467.59 265.301 470.41H265.311Z" fill="#F6B128"/>
<path d="M214.25 360.54C214.41 360.51 214.57 360.46 214.74 360.46C216.27 360.42 217.33 356.98 219.19 359.7C220.93 362.26 217.41 362.24 216.94 363.78C217.65 364.87 218.56 363.44 219.1 363.88C220.23 364.78 218.98 365.4 218.49 365.63C217.5 366.11 216.34 366.26 215.25 366.54C213.52 364.77 212.91 362.82 214.25 360.55V360.54Z" fill="#F7B128"/>
<path d="M235.949 358C238.969 358.93 243.749 356.88 243.699 362.7C241.879 362.64 241.159 360.14 239.089 360.68C237.039 361.22 236.349 359.73 235.949 358Z" fill="#F7B128"/>
<path d="M265.189 482.38C262.509 482.62 261.509 484.21 261.639 486.74C261.679 487.53 261.919 488.64 260.809 488.7C259.479 488.77 259.599 487.66 259.509 486.6C259.169 482.71 260.849 481.41 265.189 482.38Z" fill="#F6B128"/>
<path d="M265.909 367.431C265.109 369.061 266.509 371.371 264.399 372.001C263.739 372.201 262.569 371.321 262.339 370.211C261.699 367.151 264.749 368.431 265.909 367.431Z" fill="#F6B128"/>
<path d="M286.531 478.34C284.801 478.8 286.921 482.06 284.051 481.71C283.661 481.66 283.321 481.13 282.961 480.83C284.841 479.76 283.821 477.89 284.311 476.47C284.391 476.22 286.521 476.63 286.531 478.35V478.34Z" fill="#F6B128"/>
<path d="M261.4 375.18C262.99 373.66 264.64 373.37 266.78 375.15C264.93 377.26 263.04 375.08 261.4 375.18Z" fill="#F6B128"/>
<path d="M107.379 362.54C103.499 362.78 101.229 364.75 100.799 368.85C99.2492 368.68 99.3692 364.52 96.5892 367.14C95.0892 368.56 94.3492 366.47 93.8092 365.62C93.2392 364.73 93.3292 363.41 93.1392 362.28C92.9492 361.19 90.7692 359.85 92.9592 359.12C94.6692 358.55 94.8892 360.4 94.7692 361.75C94.6692 362.84 95.1692 363.57 96.0692 363.05C97.1292 362.44 98.9492 363.81 99.3592 361.76C99.4192 361.44 99.3792 361.07 99.5092 360.78C103.479 352.01 103.589 353 109.379 358.54C109.269 358.72 109.159 358.9 109.049 359.09C108.409 359.96 105.649 359.74 107.569 361.95C107.509 362.15 107.439 362.35 107.379 362.54Z" fill="#F7B128"/>
<path d="M109.371 358.541C110.701 359.811 113.301 356.711 113.801 359.481C114.101 361.131 113.921 363.471 111.941 364.661C109.431 366.171 108.471 364.161 107.381 362.531C108.561 361.451 108.111 359.571 109.381 358.541H109.371Z" fill="#F7B128"/>
<path d="M85.3105 354.06C86.6505 356.33 89.0705 355.59 90.5905 356.83C90.3705 357.17 90.2305 357.61 90.0605 357.62C87.9005 357.79 87.8905 362.24 85.4305 360.55C83.6405 359.32 85.6705 356.6 85.3005 354.05L85.3105 354.06Z" fill="#F7B128"/>
<path d="M145.159 356.18C143.899 357.3 143.179 358.32 142.199 358.7C141.219 359.08 140.959 357.84 140.749 357.13C140.399 355.98 140.899 355.1 142.169 355.19C143.039 355.25 143.879 355.73 145.159 356.18Z" fill="#F7B128"/>
<path d="M112.821 354.94C112.821 353.86 113.541 353.64 114.401 353.62C115.231 353.6 116.221 353.71 116.431 354.55C116.771 355.91 115.421 356.01 114.601 356.2C113.761 356.39 113.091 355.82 112.811 354.94H112.821Z" fill="#F7B128"/>
<path d="M258.11 343.96C259.34 344.84 258.68 345.43 257.78 345.4C254.92 345.31 252.77 343.77 251.14 341.52C250.81 341.07 250.72 339.74 251.31 339.87C254.66 340.62 254.66 338.42 255.01 336.21C255.21 334.91 256.11 335.69 256.85 335.89C258.26 336.26 259.73 336.44 261.17 336.7C264.42 337.28 267.45 338.72 271.01 336.95C273.73 335.6 279.73 339.95 279.85 342.82C279.88 343.59 278.99 344.95 278.65 344.65C276.17 342.44 272.3 344.49 269.99 341.44C267.92 338.71 266.37 339.09 265.28 342.34C264.71 344.05 264.37 345.75 262.17 345.32C259.98 344.89 261.2 343.48 261.5 342.26C261.73 341.3 260.86 340.79 259.99 340.71C258.91 340.61 257.98 342.33 258.11 343.97V343.96Z" fill="#F6B128"/>
<path d="M262.201 131.85C262.411 132.11 262.721 132.33 262.801 132.63C263.541 135.24 267.061 138.16 264.051 140.37C262.011 141.86 259.931 138.39 258.021 136.83C257.041 136.03 255.461 135.02 254.561 135.32C253.071 135.82 253.641 137.79 253.421 139.19C251.561 136.724 250.774 133.967 251.061 130.92C251.091 130.65 251.071 130.14 251.041 130.14C250.561 130.09 250.071 130.06 249.601 130.13C247.771 130.38 247.621 128.65 246.841 127.74C246.151 126.93 246.751 126.17 247.571 125.78C248.111 125.53 248.761 125.49 249.361 125.36C249.331 130.24 252.661 127.1 253.881 126.82C256.611 126.17 258.411 125.89 259.351 129.22C259.651 130.28 261.211 130.99 262.191 131.87L262.201 131.85Z" fill="#F6B128"/>
<path d="M277.181 133.84C276.941 135.96 280.151 140.15 274.181 138.83C275.561 136.27 276.801 134.06 271.871 135.19C270.031 135.61 267.161 136.99 266.231 133.12C265.941 131.92 263.741 131.76 262.191 131.84C262.251 131.19 262.301 129.98 262.391 129.98C264.181 129.91 266.361 130.05 263.311 127.95C261.831 126.93 261.291 126.29 263.221 125.32C263.651 125.1 264.001 124.75 264.391 124.46C260.471 119.79 266.061 122.62 266.681 122.1C268.571 120.51 268.611 123.3 269.591 124.04C272.421 126.15 269.961 130.27 273.241 132.02C274.531 132.71 275.641 133.7 277.171 133.84H277.181Z" fill="#F6B128"/>
<path d="M257.36 112.71C258.43 110.92 259.32 109.23 259.53 107.06C259.67 105.6 260.19 103.6 262.59 105.49C264.94 107.35 264.29 104.39 264.79 103.75C266.83 101.14 268.94 102.57 270.97 103.42C273.46 104.46 271.69 105.98 271.29 107.39C271.03 108.3 271.65 108.95 270.01 108.01C267.89 106.81 265.16 106.71 263.37 109.53C262.08 111.55 259.57 111.79 257.35 112.69L257.36 112.71Z" fill="#F6B128"/>
<path d="M267.54 209.84C266.85 210.76 267.92 212.58 266.04 212.95C264.98 213.16 257.94 208.23 258.24 207.34C259.02 205.09 260.91 203.73 263.14 203.06C264.4 202.68 267.45 207.47 267.53 209.84H267.54Z" fill="#F6B128"/>
<path d="M279.42 206.85C279.23 210.76 277.45 211.67 274.01 209.91C272.2 208.98 272.29 211.33 271.2 211.73C270.41 212.01 270.04 213.76 268.88 212.6C267.94 211.66 268.63 210.62 269.55 210.19C271.41 209.33 271.75 207.49 272.75 206.05C274.22 203.95 276.74 205.74 278.79 205.18C280.18 204.8 278.95 206.45 279.42 206.85Z" fill="#F6B128"/>
<path d="M214.251 360.541C214.581 362.541 214.921 364.531 215.251 366.531C211.891 365.731 208.641 364.41 204.561 365.27C206.911 360.38 209.831 358.751 214.251 360.541Z" fill="#F7B128"/>
<path d="M274.37 144.641C270.27 142.061 267.93 147.081 263.52 147.211C265.68 144.491 266.93 141.711 269.52 140.021C271.5 138.731 273.88 136.891 273.76 141.631C273.74 142.461 275.17 143.081 274.37 144.641Z" fill="#F6B128"/>
<path d="M282.17 351.55C278.4 351.5 274.44 352.43 271.18 349.55C273.34 345.75 275.73 344.6 278.86 348.68C279.73 349.81 281.05 350.6 282.17 351.55Z" fill="#F6B128"/>
<path d="M289.841 134.79C291.701 136.63 290.851 139.79 292.441 142C293.031 142.82 291.731 143.82 291.161 143.45C289.741 142.55 286.331 142.24 287.011 141.24C288.411 139.15 286.051 135.81 289.851 134.79H289.841Z" fill="#F6B128"/>
<path d="M264.869 155.971C266.449 156.331 267.659 157.271 267.909 158.821C268.329 161.481 265.679 160.761 264.469 161.331C263.059 161.991 262.269 160.471 262.379 159.181C262.509 157.731 263.029 156.271 264.869 155.981V155.971Z" fill="#F6B128"/>
<path d="M284.55 124.42C282.02 125.51 279.68 127.17 277.15 124.43C276.05 123.24 276.85 123.07 277.43 122.7C280.27 120.92 282.31 123.11 284.55 124.42Z" fill="#F6B128"/>
<path d="M329.5 54.3103C330.07 56.0603 333.88 53.4903 333.12 57.0403C332.94 57.9003 333.32 59.4803 331.93 59.0903C330.18 58.6003 327.88 58.2403 327.52 55.8703C327.36 54.8203 328.31 54.1703 329.5 54.3203V54.3103Z" fill="#F6B128"/>
<path d="M261.199 358.541C260.089 357.801 260.219 356.651 260.199 355.541C261.629 354.141 261.989 350.981 265.199 352.541V354.541C265.619 357.631 262.939 357.611 261.199 358.531V358.541Z" fill="#F7B128"/>
<path d="M317.131 56.9398C317.931 56.4398 318.721 55.5198 319.521 55.5298C320.721 55.5298 322.081 54.5298 323.181 55.7398C323.931 56.5698 323.281 57.1798 322.731 57.7898C321.331 59.3198 320.191 58.3498 318.961 57.4898C318.461 57.1498 317.751 57.1098 317.141 56.9398H317.131Z" fill="#F6B128"/>
<path d="M266.2 186.12C267.57 188.58 268.51 190.2 267.53 191.98C267.21 192.56 266.15 192.67 265.38 191.93C263.16 189.8 266.15 188.52 266.19 186.12H266.2Z" fill="#F6B128"/>
<path d="M287.75 55.8398C290.54 54.9298 293.31 53.4698 296.47 55.4898C293.52 57.9098 290.54 54.8398 287.75 55.8398Z" fill="#F6B128"/>
<path d="M269.929 220.23C268.749 219.87 268.269 219.21 268.519 218.33C268.829 217.27 269.159 216.22 270.749 216.28C272.289 216.34 272.449 217.46 272.089 218.2C271.669 219.08 270.589 219.64 269.929 220.23Z" fill="#F6B128"/>
<path d="M272.18 218.731C273.21 218.381 273.62 216.021 275.15 217.521C276.52 218.861 274.32 219.581 274.18 220.731C271.82 221.761 272.25 220.001 272.18 218.731Z" fill="#F6B128"/>
<path d="M270.54 273.78C272.26 272.55 274.38 270.29 276.13 272.39C277.82 274.42 278.53 277.43 278.41 280.34C275.4 280.01 273.42 283.55 270.76 282.96C266.92 282.1 266.37 282.05 264.04 286.99C261.26 283.61 262.03 276.68 265.46 274.4C267.62 272.97 268.2 271.22 266.77 268.93C266.04 267.76 264.34 266.6 266 265.11C267 264.21 268.19 265.27 269.27 265.57C271.3 266.12 271.18 268.07 270.67 269.14C269.88 270.8 269.56 272.16 270.54 273.77V273.78Z" fill="#F7B128"/>
<path d="M314.52 350.271C313.2 352.071 310.23 351.271 310.41 354.401C310.53 356.611 309.51 358.001 307.26 355.451C306.2 354.251 304.59 352.711 303.3 355.961C302.64 357.621 299.33 355.531 298.03 357.721C297.67 357.381 297.08 357.091 297 356.701C296.75 355.521 297.46 354.531 298.25 353.851C301.87 350.721 306.56 350.161 310.91 348.811C312.29 348.381 313.48 349.001 314.53 350.271H314.52Z" fill="#F6B128"/>
<path d="M255.08 70.1402C255.96 65.3302 259.82 64.5602 261.65 61.8802C262.65 60.4202 264.44 61.5202 265.79 62.0102C267.15 62.5002 266.9 64.0102 266.98 65.0002C267.18 67.4502 264.67 65.3902 264.13 66.4202C262 70.4402 257.3 65.0302 255.08 70.1402Z" fill="#F7B128"/>
<path d="M361.92 355.98C358.66 360.65 355.59 357.15 352.55 356.33C351.61 356.08 352.37 355.41 352.56 355.19C353.35 354.26 354.5 353.59 355.56 354.4C357.42 355.81 359.64 355.77 361.91 355.98H361.92Z" fill="#F6B128"/>
<path d="M314.871 360.011C313.341 361.051 311.611 361.921 309.471 362.011C308.271 362.061 307.111 361.541 307.531 360.521C308.681 357.661 312.081 360.211 313.861 358.261C314.101 358.001 314.821 358.911 314.871 360.011Z" fill="#F6B128"/>
<path d="M267.26 294.53C265.63 292.87 264.7 291.44 265.54 289.75C266.02 288.78 267.08 289.52 267.65 289.96C269.53 291.42 268.23 292.77 267.26 294.53Z" fill="#F7B128"/>
<path d="M263.029 266.83C263.029 267.94 262.499 268.52 261.539 268.43C260.569 268.34 260.389 267.5 260.209 266.66C259.949 265.39 260.809 265.32 261.589 265.3C262.629 265.28 262.829 266.15 263.019 266.83H263.029Z" fill="#F7B128"/>
<path d="M329.15 361.8C331.04 359.42 333.41 357.55 335.83 360.12C336.79 361.14 338.91 364.12 336.17 365.62C332.12 367.83 331.17 363.48 329.15 361.8Z" fill="#F6B128"/>
<path d="M266.191 390.51C267.081 391.69 267.961 392.87 268.851 394.06C260.971 397.83 260.221 397.59 260.661 390.89C263.281 395.92 264.291 390.54 266.191 390.5V390.51Z" fill="#F7B128"/>
<path d="M261.381 407.961C261.061 404.601 260.241 402.201 263.221 401.231C264.481 400.821 265.801 401.411 265.901 402.681C266.161 405.861 262.851 405.401 261.371 407.961H261.381Z" fill="#F7B128"/>
<path d="M365.57 365.871C365.66 363.901 365.79 362.151 365.81 360.391C365.82 359.571 365.6 358.511 366.82 358.731C367.7 358.891 368.48 359.621 369.31 360.091C367.74 361.721 369.68 365.391 365.57 365.861V365.871Z" fill="#F6B128"/>
<path d="M399.76 364.35C399.05 363.7 398.85 363.6 398.83 363.48C398.53 361.41 399.13 359.67 400.85 358.44C401.06 358.29 401.88 358.53 402 358.78C403.19 361.37 400.74 362.35 399.76 364.35Z" fill="#F6B128"/>
<path d="M288.161 359.54C287.641 360.88 290.291 361.44 289.031 362.79C288.631 363.22 287.481 363.17 286.741 363.01C284.881 362.61 285.881 360.87 285.501 359.78C285.291 359.19 285.921 358.3 286.171 357.55L288.171 359.55L288.161 359.54Z" fill="#F6B128"/>
<path d="M395.15 360.501C395.44 361.581 395.5 362.481 393.95 362.471C392.17 362.471 392.7 361.041 392.29 360.081C391.57 358.411 392.57 358.721 393.56 358.511C395.6 358.081 394.94 359.601 395.15 360.501Z" fill="#F6B128"/>
<path d="M281.58 358.76C282.38 356.72 283.01 355.12 283.68 353.44C284.03 355.51 288.13 358.6 281.58 358.76Z" fill="#F6B128"/>
<path d="M166.21 381.08C165.08 379.07 162.42 379.18 163.3 376.79C163.6 375.96 164.36 375.37 165.24 375.79C167.53 376.87 166.5 378.81 166.21 381.08Z" fill="#F7B128"/>
<path d="M261.199 358.54C261.609 356.29 264.889 356.9 265.199 354.55C266.429 355.6 265.469 357.74 267.199 358.54C265.199 359.2 263.209 362.54 261.209 358.54H261.199Z" fill="#F7B128"/>
<path d="M109.369 358.54C109.529 360.28 111.309 362.84 107.369 362.53C106.529 361.23 104.099 361.58 104.119 359.03C105.819 358.87 107.599 358.7 109.369 358.53V358.54Z" fill="#F7B128"/>
<path d="M258.44 132.53C260.3 132.74 261.68 133.17 261.81 134.97C261.84 135.36 260.91 136.25 260.66 136.17C259.18 135.69 258.23 134.68 258.45 132.54L258.44 132.53Z" fill="#F7B128"/>
<path d="M275.67 275.871C275.93 279.081 273.06 278.281 271.44 279.031C271.35 279.071 270.65 277.801 270.24 277.131C271.79 276.291 273.47 275.701 274.19 273.741C274.3 273.431 276 274.011 275.77 275.391C275.74 275.551 275.7 275.711 275.67 275.871Z" fill="#F6B128"/>
<path d="M264.971 276.74C266.701 276.91 267.861 274.32 269.701 275.83C270.411 276.41 269.911 276.76 269.481 277.29C267.821 279.33 266.441 277.68 264.971 276.74Z" fill="#F6B128"/>
</svg>
